<?xml version="1.0" encoding="UTF-8"?>
<svg xmlns="http://www.w3.org/2000/svg" onmouseup="{ if(window.parent.document.onmouseup) window.parent.document.onmouseup(arguments[0]);}" viewBox="0 0 89.06 89.06"><defs><style>.cls-1{isolation:isolate;}.cls-2{fill:#1c8284;}.cls-3,.cls-4{fill:#60a7a8;}.cls-4{mix-blend-mode:multiply;opacity:0.5;}.cls-5,.cls-6{fill:#fff;}.cls-5{opacity:0.9;}.cls-6{opacity:0.34;}</style></defs><g class="cls-1"><g data-name="Layer 2" id="Layer_2"><g id="Button"><g id="hover"><path data-cppathid="10000" d="M44.53,89.06h0A44.53,44.53,0,0,1,0,44.53H0A44.53,44.53,0,0,1,44.53,0h0A44.53,44.53,0,0,1,89.06,44.53h0A44.53,44.53,0,0,1,44.53,89.06Z" class="cls-2"/><path data-cppathid="10001" d="M44.53,80.41h0A35.87,35.87,0,0,1,8.65,44.53h0A35.87,35.87,0,0,1,44.53,8.65h0A35.87,35.87,0,0,1,80.41,44.53h0A35.87,35.87,0,0,1,44.53,80.41Z" class="cls-3"/><path data-cppathid="10002" d="M48.19,74.31h0A33.65,33.65,0,0,1,14.55,40.66h0a33.65,33.65,0,0,1,19-30.31A35.9,35.9,0,0,0,8.65,44.53h0A35.87,35.87,0,0,0,44.53,80.41h0a35.89,35.89,0,0,0,34.72-26.8A33.65,33.65,0,0,1,48.19,74.31Z" class="cls-4"/><path data-cppathid="10003" d="M64.63,39.93,48.72,23.79a4.53,4.53,0,0,0-7.75,0L25.06,39.93a4.53,4.53,0,0,0,3.87,6.87h1.19v12A2.88,2.88,0,0,0,33,61.66h6.28V58.15a2.87,2.87,0,0,1,2.87-2.88H47.9a2.87,2.87,0,0,1,2.87,2.88v3.51h6.28a2.88,2.88,0,0,0,2.87-2.87v-12h.84A4.53,4.53,0,0,0,64.63,39.93Z" class="cls-5"/><path data-cppathid="10004" d="M49.64,15.63a3.26,3.26,0,1,1-3.26-3.25A3.26,3.26,0,0,1,49.64,15.63Z" class="cls-6"/><path data-cppathid="10005" d="M64,21.62c-.48,1.4-6.1.74-9.57-1-1.35-.69-2-1.36-2.16-2.16a2.83,2.83,0,0,1,1.06-2.65C56.05,13.88,64.59,19.72,64,21.62Z" class="cls-6"/></g></g></g></g></svg>