<?xml version="1.0" encoding="UTF-8"?>
<svg xmlns="http://www.w3.org/2000/svg" onmouseup="{ if(window.parent.document.onmouseup) window.parent.document.onmouseup(arguments[0]);}" viewBox="0 0 225 74.87" xmlns:xlink="http://www.w3.org/1999/xlink"><defs><style>.cls-1,.cls-5{fill:none;}.cls-17,.cls-19,.cls-2,.cls-25{fill:#fff;}.cls-2{mix-blend-mode:overlay;}.cls-11,.cls-2{opacity:0.3;}.cls-3{fill:#b37157;}.cls-11,.cls-15,.cls-3,.cls-4{mix-blend-mode:multiply;}.cls-4{fill:#a85537;}.cls-5{stroke:#cc7645;stroke-miterlimit:10;stroke-width:0.5px;}.cls-6{isolation:isolate;}.cls-7{fill:#80361d;}.cls-8{fill:#be602b;}.cls-9{fill:url(#linear-gradient);}.cls-10{fill:url(#linear-gradient-2);}.cls-11{fill:url(#New_Pattern_4);}.cls-12{opacity:0.6;fill:url(#New_Pattern_3);}.cls-13{fill:#4700f1;}.cls-14{fill:#5d19ff;}.cls-15{fill:#60a7a8;opacity:0.5;}.cls-16{fill:#9467ff;}.cls-17{opacity:0.34;}.cls-18{fill:#1ac;}.cls-20{fill:#ababab;}.cls-21{fill:#f5b400;}.cls-22{fill:#e03434;}.cls-23{fill:#f5e5b5;}.cls-24{fill:#303030;}.cls-25{font-size:21px;font-family:Montserrat-Black, Montserrat;font-weight:800;}.cls-26{letter-spacing:-0.01em;}.cls-27{letter-spacing:-0.01em;}.cls-28{letter-spacing:0em;}</style><linearGradient gradientUnits="userSpaceOnUse" y2="-10.7" x2="112.5" y1="71.15" x1="112.5" id="linear-gradient"><stop stop-color="#e29e52" offset="0"/><stop stop-color="#e19c50" offset="0.4"/><stop stop-color="#de944b" offset="0.61"/><stop stop-color="#d98741" offset="0.77"/><stop stop-color="#d27433" offset="0.91"/><stop stop-color="#cc6226" offset="1"/></linearGradient><linearGradient xlink:href="#linear-gradient" y2="79.01" x2="112.5" y1="-2.84" x1="112.5" id="linear-gradient-2"/><pattern viewBox="0 0 225.11 198.06" patternUnits="userSpaceOnUse" patternTransform="translate(1850.35 1002.46) scale(0.98 1.01)" height="198.05" width="225.11" data-name="New Pattern 4" id="New_Pattern_4"><rect data-cppathid="10000" height="198.05" width="225.11" class="cls-1"/><path data-cppathid="10001" d="M275.89,200.05c-5.4-.71-10.89-1-16.31-1.55-4.81-.51-9.63-.35-14.44-.74-2.87-.23-5.62-1.18-8.49-1.31-.63,0-1.26,0-1.88,0h-2.13c-4.64.08-9.38,0-14,.94-3.6.71-9.55,2.47-9.83,6.95-.39,6.33,9.22,9.51,14,10.39,7,1.3,14.38.31,21.45-.25,7.28-.58,14.54-1.31,21.76-2.4a92.39,92.39,0,0,0,10.33-2c2.55-.7,5.7-1.57,7.6-3.55C288.06,202.21,278.35,200.38,275.89,200.05Z" class="cls-5"/><path data-cppathid="10002" d="M0,184.3c11.25,0,31.93,4.11,37.05,4.85,9.79,1.4,19.88,1.31,29.75,1,8.52-.22,16.83-2.93,25.12-4.61,12.44-2.53,27.61-15.87,59.81-18.54" class="cls-5"/><path data-cppathid="10003" d="M174.64,182.78c-1.09-1.55-3.79-2.1-5.55-2.14-3.21-.07-8.79-1-11.73-1.1-1.93,0-3.9-.16-5.83-.15-3.33,0-6.57.67-9.89.86-5.53.33-10.86.87-16.37,1.5-5.68.64-10.48,1.16-15.29,4.53-1.91,1.34-1.53,2.3-1.68,4.37,0,.72-.5,1.61-.17,2.31.75,1.58,4.24,1.59,5.62,1.74a61,61,0,0,0,16.41-.49c7-1.19,14.13-1.42,21.17-2.44,4.88-.71,9.46-2.52,14.31-3.33,2.1-.36,4.22-.18,6.07-1.18.79-.43,3.55-1.32,3.75-2.24A13.57,13.57,0,0,0,174.64,182.78Z" class="cls-5"/><path data-cppathid="10004" d="M0,192.24c16.14,0,17.86,1,21.13.81,2.63-.12,5.29,0,7.92-.06s5.3.95,8,1c3.41.13,6.77.64,10.18.8,8.37.38,16.7,1.31,25.06,1.93,8.77.65,17.32,2.92,26.13,3.26,7.35.27,14.76.07,22.13.26a158.23,158.23,0,0,0,24.31-1.46c8.69-1.14,17.59-2.18,26.06-4.51,2.61-.72,4.89-2.32,7.43-3.25,2-.72,4-1.21,5.91-2,4.51-1.83,23.31-4.78,40.83-4.78" class="cls-5"/><path data-cppathid="10005" d="M39.09,216.6c14.1-1.53,46.45-4.94,56.68-6.41,5.54-.79,11.36-2.45,16.92-2.55,6.73-.13,13.44,0,20.17-.24,8-.34,15.93,1,23.9-.75,2.06-.45,3.74-1.53,5.78-2,3-.63,6-.07,9-.35,2.32-.22,4.6-.8,6.91-1.17,4.28-.69,20.92-10.88,46.69-10.88" class="cls-5"/><path data-cppathid="10006" d="M50.78,200.05c-5.4-.71-10.89-1-16.31-1.55-4.81-.51-9.63-.35-14.44-.74-2.87-.23-5.62-1.18-8.49-1.31-.63,0-1.26,0-1.88,0H7.53c-4.64.08-9.38,0-14,.94-3.6.71-9.55,2.47-9.83,6.95-.39,6.33,9.21,9.51,14,10.39,7,1.3,14.38.31,21.45-.25,7.28-.58,14.54-1.31,21.76-2.4a92.39,92.39,0,0,0,10.33-2c2.55-.7,5.7-1.57,7.59-3.55C63,202.21,53.24,200.38,50.78,200.05Z" class="cls-5"/><path data-cppathid="10007" d="M122.46,188.68a3.51,3.51,0,0,0,2.26,1.54,12,12,0,0,0,2.87.12,35.15,35.15,0,0,0,3.7-.08l.91-.11c5.38-.77,11.05-.8,16.26-2.35.81-.24,3.37-.87,2.11-1.69-2.46-1.61-6.46-1.59-9.37-1.71a46.55,46.55,0,0,0-12.24.71,11.94,11.94,0,0,0-2.79,1.18c-.74.37-1.59.45-2.36.76S122.13,187.88,122.46,188.68Z" class="cls-5"/><path data-cppathid="10008" d="M112.56,134.79c11.25,0,31.93,4.11,37.05,4.84,9.79,1.41,19.88,1.31,29.75,1.06,8.52-.22,16.83-2.93,25.11-4.61,12.45-2.54,27.62-15.87,59.81-18.54" class="cls-5"/><path data-cppathid="10009" d="M287.19,133.27c-1.09-1.55-3.79-2.11-5.54-2.15-3.22-.06-8.79-1-11.74-1.09-1.92-.05-3.89-.16-5.82-.15-3.33,0-6.58.66-9.89.86-5.53.32-10.87.87-16.37,1.5-5.68.64-10.48,1.16-15.29,4.52-1.92,1.34-1.53,2.31-1.68,4.38-.05.71-.51,1.61-.18,2.31.76,1.57,4.25,1.59,5.63,1.73a60.06,60.06,0,0,0,16.4-.49c7-1.18,14.14-1.41,21.18-2.44,4.88-.7,9.46-2.51,14.3-3.33,2.1-.35,4.23-.17,6.07-1.17.79-.43,3.56-1.32,3.75-2.24A11.72,11.72,0,0,0,287.19,133.27Z" class="cls-5"/><path data-cppathid="10010" d="M112.56,142.72c16.14,0,17.85,1,21.13.82,2.63-.13,5.28,0,7.91-.06s5.31.94,8,1.05c3.41.13,6.77.64,10.18.79,8.37.38,16.7,1.32,25.06,1.94,8.78.65,17.32,2.92,26.13,3.25,7.35.28,14.76.07,22.13.26a157.11,157.11,0,0,0,24.32-1.46c8.68-1.13,17.59-2.18,26.06-4.51,2.6-.71,4.89-2.31,7.42-3.24,2-.72,4-1.22,5.91-2,4.52-1.82,23.32-4.77,40.84-4.77" class="cls-5"/><path data-cppathid="10011" d="M151.65,167.09c14.09-1.53,46.45-4.94,56.68-6.41,5.54-.8,11.35-2.46,16.92-2.56,6.73-.12,13.44,0,20.17-.24,8-.33,15.93,1,23.9-.74,2.05-.45,3.74-1.53,5.78-2,3-.62,6-.07,9-.34,2.32-.22,4.61-.8,6.91-1.17,4.29-.69,20.93-10.88,46.7-10.88" class="cls-5"/><path data-cppathid="10012" d="M315.36,164.67c-18.1-7.21-37.24-3.76-56-2.22-9.73.8-19.48.89-29.23,1.13-6.07.15-16.81.73-21.75,3.13-3.73,1.8-7,6.4-1.1,8.38,3.9,1.31,8.23,1.55,12.3,1.87,5.47.43,10.95.64,16.42.95a162,162,0,0,1,26.16,3.38,117.27,117.27,0,0,0,28,3.24,95.06,95.06,0,0,0,17.95-2c4.54-1,9.51-2.26,13.31-5C328.69,172.17,320.77,166.82,315.36,164.67Z" class="cls-5"/><path data-cppathid="10013" d="M163.34,150.54c-5.4-.72-10.89-1-16.31-1.55-4.81-.51-9.64-.35-14.45-.74-2.86-.24-5.61-1.18-8.49-1.31-.62,0-1.25,0-1.88,0h-2.12c-4.65.07-9.39,0-14,.93-3.6.72-9.55,2.47-9.83,7-.4,6.33,9.21,9.5,14,10.38,7,1.31,14.39.32,21.46-.25,7.27-.58,14.54-1.3,21.76-2.4a91,91,0,0,0,10.33-2c2.55-.69,5.69-1.56,7.59-3.54C175.5,152.69,165.8,150.87,163.34,150.54Z" class="cls-5"/><path data-cppathid="10014" d="M145.13,156.23a4.73,4.73,0,0,0-2.74-2.61,13.42,13.42,0,0,0-3.68-.59,39.86,39.86,0,0,0-4.77-.41l-1.18,0c-7,.4-14.3-.36-21.19,1.22-1.07.25-4.42.83-2.89,2.24,3,2.74,8.14,3.28,11.86,3.87,5.12.82,10.67,1.45,15.84.66a13.66,13.66,0,0,0,3.72-1.38c1-.44,2.1-.44,3.12-.8S145.47,157.48,145.13,156.23Z" class="cls-5"/><path data-cppathid="10015" d="M-112.56,134.79c11.25,0,31.94,4.11,37.06,4.84,9.79,1.41,19.87,1.31,29.74,1.06,8.53-.22,16.84-2.93,25.12-4.61C-8.19,133.54,7,120.21,39.17,117.54" class="cls-5"/><path data-cppathid="10016" d="M62.08,133.27c-1.09-1.55-3.79-2.11-5.54-2.15-3.22-.06-8.79-1-11.74-1.09-1.93-.05-3.89-.16-5.82-.15-3.33,0-6.58.66-9.89.86-5.54.32-10.87.87-16.38,1.5-5.67.64-10.47,1.16-15.28,4.52-1.92,1.34-1.53,2.31-1.68,4.38,0,.71-.51,1.61-.18,2.31.75,1.57,4.24,1.59,5.62,1.73a60.13,60.13,0,0,0,16.41-.49c7-1.18,14.14-1.41,21.18-2.44,4.88-.7,9.46-2.51,14.3-3.33,2.1-.35,4.22-.17,6.07-1.17.79-.43,3.56-1.32,3.75-2.24A11.72,11.72,0,0,0,62.08,133.27Z" class="cls-5"/><path data-cppathid="10017" d="M-112.56,142.72c16.15,0,17.86,1,21.14.82,2.62-.13,5.28,0,7.91-.06s5.31.94,8,1.05c3.41.13,6.77.64,10.18.79,8.37.38,16.7,1.32,25.06,1.94,8.78.65,17.32,2.92,26.13,3.25,7.35.28,14.76.07,22.13.26a156.9,156.9,0,0,0,24.31-1.46c8.69-1.13,17.6-2.18,26.07-4.51,2.6-.71,4.89-2.31,7.42-3.24,2-.72,4-1.22,5.91-2,4.52-1.82,23.32-4.77,40.84-4.77" class="cls-5"/><path data-cppathid="10018" d="M-73.46,167.09c14.09-1.53,46.44-4.94,56.68-6.41,5.53-.8,11.35-2.46,16.91-2.56,6.74-.12,13.45,0,20.17-.24,8.05-.33,15.94,1,23.91-.74,2-.45,3.74-1.53,5.78-2,3-.62,6-.07,9-.34,2.32-.22,4.61-.8,6.91-1.17,4.29-.69,20.93-10.88,46.7-10.88" class="cls-5"/><path data-cppathid="10019" d="M90.25,164.67c-18.1-7.21-37.25-3.76-56-2.22-9.72.8-19.47.89-29.22,1.13-6.07.15-16.81.73-21.75,3.13-3.73,1.8-7,6.4-1.11,8.38,3.9,1.31,8.24,1.55,12.31,1.87,5.47.43,11,.64,16.42.95a162,162,0,0,1,26.16,3.38,117.24,117.24,0,0,0,28,3.24,95.08,95.08,0,0,0,18-2c4.53-1,9.51-2.26,13.31-5C103.58,172.17,95.65,166.82,90.25,164.67Z" class="cls-5"/><path data-cppathid="10020" d="M85.22,170.17l-1.62-.75a118.25,118.25,0,0,0-22-3.5c-6.82-.29-13.6.37-20.39.84-6.47.44-13,.44-19.42,1-1.31.11-4.61,0-5.58,1.2s1,1.91,1.85,2.31c6.22,3,13.67,4.07,20.41,5.14A133.21,133.21,0,0,0,56.82,178q7.49.15,15,0c3.32-.05,6.86,0,10.07-1,1.77-.54,4.1-1.63,5-3.37S86.44,171,85.22,170.17Z" class="cls-5"/><path data-cppathid="10021" d="M74.63,171.89c-.22-.82-1.24-1.46-2.06-1.8a12.13,12.13,0,0,0-2.83-.46,34.74,34.74,0,0,0-3.68-.37h-.92c-5.43.12-11.06-.53-16.42.39-.84.14-3.45.46-2.3,1.43,2.25,1.89,6.23,2.35,9.09,2.82a47,47,0,0,0,12.25.76,12.28,12.28,0,0,0,2.9-.85c.79-.27,1.64-.25,2.44-.47S74.86,172.72,74.63,171.89Z" class="cls-5"/><path data-cppathid="10022" d="M9.91,139.17a3.44,3.44,0,0,0,2.26,1.53,12.46,12.46,0,0,0,2.87.13,35.27,35.27,0,0,0,3.7-.08l.91-.11c5.37-.77,11-.8,16.26-2.35.8-.24,3.36-.87,2.1-1.7-2.46-1.6-6.46-1.58-9.36-1.71a47.5,47.5,0,0,0-12.25.71,12.08,12.08,0,0,0-2.78,1.19c-.75.37-1.59.45-2.36.76S9.58,138.36,9.91,139.17Z" class="cls-5"/><path data-cppathid="10023" d="M275.89,101c-5.4-.72-10.89-1-16.31-1.56-4.81-.51-9.63-.34-14.44-.74-2.87-.23-5.62-1.18-8.49-1.31-.63,0-1.26,0-1.88,0h-2.13c-4.64.08-9.38,0-14,.94-3.6.72-9.55,2.47-9.83,7-.39,6.33,9.22,9.51,14,10.39,7,1.31,14.38.31,21.45-.25,7.28-.58,14.54-1.31,21.76-2.4a90.19,90.19,0,0,0,10.33-2c2.55-.7,5.7-1.57,7.6-3.55C288.06,103.18,278.35,101.35,275.89,101Z" class="cls-5"/><path data-cppathid="10024" d="M257.69,106.72A4.8,4.8,0,0,0,255,104.1a13.87,13.87,0,0,0-3.68-.59,40,40,0,0,0-4.77-.4l-1.18,0c-7,.39-14.31-.37-21.19,1.22-1.07.24-4.43.83-2.9,2.23,3,2.75,8.15,3.28,11.87,3.88,5.12.82,10.67,1.44,15.84.66a13.8,13.8,0,0,0,3.71-1.38c1-.44,2.1-.45,3.12-.8S258,108,257.69,106.72Z" class="cls-5"/><path data-cppathid="10025" d="M0,85.28c11.25,0,31.93,4.11,37.05,4.84,9.79,1.41,19.88,1.31,29.75,1,8.52-.22,16.83-2.92,25.12-4.61C104.36,84,119.53,70.69,151.73,68" class="cls-5"/><path data-cppathid="10026" d="M174.64,83.76c-1.09-1.55-3.79-2.11-5.55-2.15-3.21-.07-8.79-1-11.73-1.09-1.93-.06-3.9-.17-5.83-.15-3.33,0-6.57.66-9.89.85-5.53.33-10.86.88-16.37,1.5-5.68.65-10.48,1.17-15.29,4.53-1.91,1.34-1.53,2.3-1.68,4.37,0,.72-.5,1.62-.17,2.31.75,1.58,4.24,1.6,5.62,1.74a60.14,60.14,0,0,0,16.41-.49c7-1.19,14.13-1.42,21.17-2.44,4.88-.71,9.46-2.52,14.31-3.33,2.1-.35,4.22-.17,6.07-1.18.79-.42,3.55-1.31,3.75-2.24A13.15,13.15,0,0,0,174.64,83.76Z" class="cls-5"/><path data-cppathid="10027" d="M0,93.21c16.14,0,17.86,1,21.13.82,2.63-.13,5.29,0,7.92-.07s5.3,1,8,1.06c3.41.13,6.77.63,10.18.79,8.37.38,16.7,1.31,25.06,1.93,8.77.65,17.32,2.93,26.13,3.26,7.35.28,14.76.07,22.13.26a158.23,158.23,0,0,0,24.31-1.46c8.69-1.14,17.59-2.18,26.06-4.51,2.61-.72,4.89-2.31,7.43-3.24,2-.72,4-1.22,5.91-2,4.51-1.83,23.31-4.77,40.83-4.77" class="cls-5"/><path data-cppathid="10028" d="M39.09,117.57c14.1-1.53,46.45-4.94,56.68-6.41,5.54-.79,11.36-2.45,16.92-2.55,6.73-.12,13.44,0,20.17-.24,8-.34,15.93,1,23.9-.75,2.06-.45,3.74-1.52,5.78-2,3-.63,6-.07,9-.35,2.32-.21,4.6-.79,6.91-1.16,4.28-.7,20.92-10.88,46.69-10.88" class="cls-5"/><path data-cppathid="10029" d="M202.81,115.15c-18.11-7.2-37.25-3.75-56-2.22-9.72.8-19.48.9-29.23,1.14-6.07.15-16.8.73-21.75,3.12-3.73,1.81-7,6.41-1.1,8.39,3.9,1.31,8.24,1.55,12.31,1.86,5.46.43,10.94.65,16.42,1a162.14,162.14,0,0,1,26.16,3.37,116.62,116.62,0,0,0,28,3.24,95.15,95.15,0,0,0,18-2c4.53-1,9.51-2.27,13.31-5.06C216.13,122.66,208.21,117.3,202.81,115.15Z" class="cls-5"/><path data-cppathid="10030" d="M50.78,101c-5.4-.72-10.89-1-16.31-1.56-4.81-.51-9.63-.34-14.44-.74-2.87-.23-5.62-1.18-8.49-1.31-.63,0-1.26,0-1.88,0H7.53c-4.64.08-9.38,0-14,.94-3.6.72-9.55,2.47-9.83,7-.39,6.33,9.21,9.51,14,10.39,7,1.31,14.38.31,21.45-.25,7.28-.58,14.54-1.31,21.76-2.4a90.19,90.19,0,0,0,10.33-2c2.55-.7,5.7-1.57,7.59-3.55C63,103.18,53.24,101.35,50.78,101Z" class="cls-5"/><path data-cppathid="10031" d="M197.78,120.65l-1.62-.75a119.32,119.32,0,0,0-22-3.5c-6.81-.28-13.6.37-20.39.84-6.46.45-13,.45-19.41,1-1.32.11-4.62,0-5.58,1.2s1,1.91,1.85,2.31c6.21,3,13.67,4.07,20.4,5.14a136.53,136.53,0,0,0,18.39,1.61q7.49.15,15,0c3.32,0,6.85,0,10.06-1,1.77-.55,4.11-1.64,5-3.38C200.29,122.57,199,121.53,197.78,120.65Z" class="cls-5"/><path data-cppathid="10032" d="M187.19,122.37a3.48,3.48,0,0,0-2.06-1.79,12.22,12.22,0,0,0-2.84-.47,34.47,34.47,0,0,0-3.68-.36h-.91c-5.43.12-11.06-.53-16.43.38-.83.14-3.44.47-2.29,1.43,2.25,1.89,6.22,2.35,9.09,2.82a46.93,46.93,0,0,0,12.24.76,11.76,11.76,0,0,0,2.91-.84c.79-.27,1.63-.26,2.43-.47S187.42,123.21,187.19,122.37Z" class="cls-5"/><path data-cppathid="10033" d="M122.46,89.65a3.47,3.47,0,0,0,2.26,1.54,12,12,0,0,0,2.87.12,35.15,35.15,0,0,0,3.7-.07l.91-.11c5.38-.78,11.05-.8,16.26-2.35.81-.24,3.37-.88,2.11-1.7-2.46-1.61-6.46-1.59-9.37-1.71a47,47,0,0,0-12.24.71,12,12,0,0,0-2.79,1.19c-.74.36-1.59.45-2.36.75S122.13,88.85,122.46,89.65Z" class="cls-5"/><path data-cppathid="10034" d="M32.58,106.72a4.8,4.8,0,0,0-2.74-2.62,13.87,13.87,0,0,0-3.68-.59,40.2,40.2,0,0,0-4.77-.4l-1.19,0c-7,.39-14.3-.37-21.18,1.22-1.07.24-4.43.83-2.9,2.23,3,2.75,8.14,3.28,11.86,3.88,5.13.82,10.68,1.44,15.85.66a13.8,13.8,0,0,0,3.71-1.38c1-.44,2.1-.45,3.12-.8S32.91,108,32.58,106.72Z" class="cls-5"/><path data-cppathid="10035" d="M112.56,35.76c11.25,0,31.93,4.11,37.05,4.85,9.79,1.4,19.88,1.3,29.75,1,8.52-.22,16.83-2.93,25.11-4.61,12.45-2.54,27.62-15.87,59.81-18.54" class="cls-5"/><path data-cppathid="10036" d="M287.19,34.24c-1.09-1.55-3.79-2.11-5.54-2.14-3.22-.07-8.79-1-11.74-1.1-1.92-.05-3.89-.16-5.82-.15-3.33,0-6.58.66-9.89.86-5.53.33-10.87.87-16.37,1.5-5.68.64-10.48,1.16-15.29,4.53-1.92,1.34-1.53,2.3-1.68,4.37-.05.71-.51,1.61-.18,2.31.76,1.57,4.25,1.59,5.63,1.74a60.46,60.46,0,0,0,16.4-.5c7-1.18,14.14-1.41,21.18-2.43,4.88-.71,9.46-2.52,14.3-3.34,2.1-.35,4.23-.17,6.07-1.17.79-.43,3.56-1.32,3.75-2.24A11.72,11.72,0,0,0,287.19,34.24Z" class="cls-5"/><path data-cppathid="10037" d="M112.56,43.7c16.14,0,17.85,1,21.13.81,2.63-.12,5.28,0,7.91-.06s5.31.95,8,1c3.41.13,6.77.64,10.18.79,8.37.39,16.7,1.32,25.06,1.94,8.78.65,17.32,2.92,26.13,3.26,7.35.27,14.76.07,22.13.26a159.63,159.63,0,0,0,24.32-1.46c8.68-1.14,17.59-2.18,26.06-4.51,2.6-.72,4.89-2.32,7.42-3.25,2-.72,4-1.21,5.91-2,4.52-1.82,23.32-4.77,40.84-4.77" class="cls-5"/><path data-cppathid="10038" d="M151.65,68.06c14.09-1.53,46.45-4.94,56.68-6.41,5.54-.79,11.35-2.45,16.92-2.55,6.73-.13,13.44,0,20.17-.24,8-.34,15.93,1,23.9-.75,2.05-.45,3.74-1.53,5.78-2,3-.62,6-.06,9-.34,2.32-.22,4.61-.8,6.91-1.17,4.29-.69,20.93-10.88,46.7-10.88" class="cls-5"/><path data-cppathid="10039" d="M315.36,65.64c-18.1-7.2-37.24-3.75-56-2.22-9.73.8-19.48.9-29.23,1.13-6.07.15-16.81.74-21.75,3.13-3.73,1.81-7,6.4-1.1,8.38,3.9,1.31,8.23,1.55,12.3,1.87,5.47.43,10.95.64,16.42.95a162,162,0,0,1,26.16,3.38,116.76,116.76,0,0,0,28,3.24,95.88,95.88,0,0,0,17.95-2c4.54-1,9.51-2.27,13.31-5.06C328.69,73.14,320.77,67.79,315.36,65.64Z" class="cls-5"/><path data-cppathid="10040" d="M163.34,51.51c-5.4-.72-10.89-1-16.31-1.55-4.81-.51-9.64-.35-14.45-.74C129.72,49,127,48,124.09,47.91c-.62,0-1.25,0-1.88,0h-2.12c-4.65.08-9.39,0-14,.94-3.6.71-9.55,2.46-9.83,7-.4,6.33,9.21,9.51,14,10.39,7,1.3,14.39.31,21.46-.25,7.27-.58,14.54-1.31,21.76-2.4a91.07,91.07,0,0,0,10.33-2c2.55-.69,5.69-1.56,7.59-3.54C175.5,53.67,165.8,51.84,163.34,51.51Z" class="cls-5"/><path data-cppathid="10041" d="M145.13,57.2a4.76,4.76,0,0,0-2.74-2.61,13.81,13.81,0,0,0-3.68-.59,39.86,39.86,0,0,0-4.77-.41l-1.18,0c-7,.4-14.3-.36-21.19,1.22-1.07.25-4.42.83-2.89,2.24,3,2.74,8.14,3.28,11.86,3.87,5.12.82,10.67,1.45,15.84.66a14,14,0,0,0,3.72-1.37c1-.44,2.1-.45,3.12-.8S145.47,58.45,145.13,57.2Z" class="cls-5"/><path data-cppathid="10042" d="M-112.56,35.76c11.25,0,31.94,4.11,37.06,4.85,9.79,1.4,19.87,1.3,29.74,1,8.53-.22,16.84-2.93,25.12-4.61C-8.19,34.51,7,21.18,39.17,18.51" class="cls-5"/><path data-cppathid="10043" d="M62.08,34.24c-1.09-1.55-3.79-2.11-5.54-2.14-3.22-.07-8.79-1-11.74-1.1-1.93-.05-3.89-.16-5.82-.15-3.33,0-6.58.66-9.89.86-5.54.33-10.87.87-16.38,1.5C7,33.85,2.24,34.37-2.57,37.74-4.49,39.08-4.1,40-4.25,42.11c0,.71-.51,1.61-.18,2.31C-3.68,46-.19,46,1.19,46.16a60.53,60.53,0,0,0,16.41-.5c7-1.18,14.14-1.41,21.18-2.43,4.88-.71,9.46-2.52,14.3-3.34,2.1-.35,4.22-.17,6.07-1.17.79-.43,3.56-1.32,3.75-2.24A11.72,11.72,0,0,0,62.08,34.24Z" class="cls-5"/><path data-cppathid="10044" d="M-112.56,43.7c16.15,0,17.86,1,21.14.81,2.62-.12,5.28,0,7.91-.06s5.31.95,8,1c3.41.13,6.77.64,10.18.79,8.37.39,16.7,1.32,25.06,1.94,8.78.65,17.32,2.92,26.13,3.26,7.35.27,14.76.07,22.13.26a159.42,159.42,0,0,0,24.31-1.46c8.69-1.14,17.6-2.18,26.07-4.51,2.6-.72,4.89-2.32,7.42-3.25,2-.72,4-1.21,5.91-2,4.52-1.82,23.32-4.77,40.84-4.77" class="cls-5"/><path data-cppathid="10045" d="M-73.46,68.06c14.09-1.53,46.44-4.94,56.68-6.41C-11.25,60.86-5.43,59.2.13,59.1c6.74-.13,13.45,0,20.17-.24,8.05-.34,15.94,1,23.91-.75,2-.45,3.74-1.53,5.78-2,3-.62,6-.06,9-.34,2.32-.22,4.61-.8,6.91-1.17,4.29-.69,20.93-10.88,46.7-10.88" class="cls-5"/><path data-cppathid="10046" d="M90.25,65.64c-18.1-7.2-37.25-3.75-56-2.22-9.72.8-19.47.9-29.22,1.13-6.07.15-16.81.74-21.75,3.13-3.73,1.81-7,6.4-1.11,8.38,3.9,1.31,8.24,1.55,12.31,1.87,5.47.43,11,.64,16.42.95a162,162,0,0,1,26.16,3.38,116.74,116.74,0,0,0,28,3.24,95.89,95.89,0,0,0,18-2c4.53-1,9.51-2.27,13.31-5.06C103.58,73.14,95.65,67.79,90.25,65.64Z" class="cls-5"/><path data-cppathid="10047" d="M85.22,71.14l-1.62-.75a119.08,119.08,0,0,0-22-3.5c-6.82-.29-13.6.37-20.39.84-6.47.44-13,.44-19.42,1-1.31.12-4.61,0-5.58,1.2s1,1.92,1.85,2.32c6.22,3,13.67,4.06,20.41,5.13A133.21,133.21,0,0,0,56.82,79q7.49.15,15,0c3.32-.06,6.86,0,10.07-1,1.77-.55,4.1-1.64,5-3.38S86.44,72,85.22,71.14Z" class="cls-5"/><path data-cppathid="10048" d="M74.63,72.86a3.39,3.39,0,0,0-2.06-1.79,11.63,11.63,0,0,0-2.83-.47,34.74,34.74,0,0,0-3.68-.37h-.92c-5.43.13-11.06-.53-16.42.39-.84.14-3.45.46-2.3,1.43,2.25,1.89,6.23,2.35,9.09,2.82a47,47,0,0,0,12.25.76,12.26,12.26,0,0,0,2.9-.84c.79-.28,1.64-.26,2.44-.47S74.86,73.7,74.63,72.86Z" class="cls-5"/><path data-cppathid="10049" d="M9.91,40.14a3.44,3.44,0,0,0,2.26,1.53A11.43,11.43,0,0,0,15,41.8a35.27,35.27,0,0,0,3.7-.08l.91-.11c5.37-.77,11-.8,16.26-2.35.8-.24,3.36-.87,2.1-1.69C35.55,36,31.55,36,28.65,35.86a46.63,46.63,0,0,0-12.25.71,11.63,11.63,0,0,0-2.78,1.18c-.75.37-1.59.45-2.36.76S9.58,39.34,9.91,40.14Z" class="cls-5"/><path data-cppathid="10050" d="M275.89,2C270.49,1.28,265,1,259.58.45,254.77-.07,250,.1,245.14-.29c-2.87-.24-5.62-1.18-8.49-1.31-.63,0-1.26,0-1.88,0h-2.13c-4.64.07-9.38,0-14,.93-3.6.72-9.55,2.47-9.83,7-.39,6.34,9.22,9.51,14,10.39,7,1.31,14.38.32,21.45-.25,7.28-.58,14.54-1.3,21.76-2.4a90.19,90.19,0,0,0,10.33-2c2.55-.7,5.7-1.57,7.6-3.54C288.06,4.15,278.35,2.33,275.89,2Z" class="cls-5"/><path data-cppathid="10051" d="M257.69,7.69A4.76,4.76,0,0,0,255,5.08a13.48,13.48,0,0,0-3.68-.59,38.05,38.05,0,0,0-4.77-.41l-1.18,0c-7,.4-14.31-.37-21.19,1.22-1.07.24-4.43.83-2.9,2.24,3,2.74,8.15,3.28,11.87,3.87,5.12.82,10.67,1.44,15.84.66a13.47,13.47,0,0,0,3.71-1.38c1-.44,2.1-.44,3.12-.8S258,8.94,257.69,7.69Z" class="cls-5"/><path data-cppathid="10052" d="M0-5.82c16.14,0,17.86,1,21.13.82,2.63-.13,5.29,0,7.92-.06s5.3.94,8,1c3.41.13,6.77.64,10.18.79C55.62-2.84,64-1.9,72.31-1.28,81.08-.63,89.63,1.64,98.44,2c7.35.28,14.76.07,22.13.26A158.23,158.23,0,0,0,144.88.77c8.69-1.13,17.59-2.18,26.06-4.51,2.61-.71,4.89-2.31,7.43-3.24,2-.72,4-1.22,5.91-2,4.51-1.82,23.31-4.77,40.83-4.77" class="cls-5"/><path data-cppathid="10053" d="M39.09,18.55c14.1-1.53,46.45-5,56.68-6.41,5.54-.8,11.36-2.46,16.92-2.56,6.73-.12,13.44.05,20.17-.24,8-.34,15.93,1,23.9-.74,2.06-.45,3.74-1.53,5.78-2,3-.62,6-.07,9-.34,2.32-.22,4.6-.8,6.91-1.17,4.28-.69,20.92-10.88,46.69-10.88" class="cls-5"/><path data-cppathid="10054" d="M202.81,16.12c-18.11-7.2-37.25-3.75-56-2.21-9.72.79-19.48.89-29.23,1.13-6.07.15-16.8.73-21.75,3.13-3.73,1.8-7,6.4-1.1,8.38,3.9,1.31,8.24,1.55,12.31,1.87,5.46.43,10.94.64,16.42.95a162.15,162.15,0,0,1,26.16,3.38,117.12,117.12,0,0,0,28,3.23,94.34,94.34,0,0,0,18-2c4.53-1,9.51-2.26,13.31-5.06C216.13,23.63,208.21,18.28,202.81,16.12Z" class="cls-5"/><path data-cppathid="10055" d="M50.78,2C45.38,1.28,39.89,1,34.47.45,29.66-.07,24.84.1,20-.29c-2.87-.24-5.62-1.18-8.49-1.31-.63,0-1.26,0-1.88,0H7.53c-4.64.07-9.38,0-14,.93C-10,0-16,1.78-16.26,6.26c-.39,6.34,9.21,9.51,14,10.39,7,1.31,14.38.32,21.45-.25,7.28-.58,14.54-1.3,21.76-2.4a90.19,90.19,0,0,0,10.33-2c2.55-.7,5.7-1.57,7.59-3.54C63,4.15,53.24,2.33,50.78,2Z" class="cls-5"/><path data-cppathid="10056" d="M197.78,21.62l-1.62-.75a120.17,120.17,0,0,0-22-3.5c-6.81-.28-13.6.38-20.39.84-6.46.45-13,.45-19.41,1-1.32.11-4.62,0-5.58,1.2s1,1.91,1.85,2.31c6.21,3,13.67,4.07,20.4,5.14a133.35,133.35,0,0,0,18.39,1.61q7.49.15,15,0c3.32-.05,6.85,0,10.06-1,1.77-.54,4.11-1.64,5-3.37S199,22.5,197.78,21.62Z" class="cls-5"/><path data-cppathid="10057" d="M187.19,23.35a3.49,3.49,0,0,0-2.06-1.8,12.22,12.22,0,0,0-2.84-.47,34.47,34.47,0,0,0-3.68-.36h-.91c-5.43.12-11.06-.53-16.43.38-.83.15-3.44.47-2.29,1.44,2.25,1.88,6.22,2.35,9.09,2.82a47.81,47.81,0,0,0,12.24.76,12.22,12.22,0,0,0,2.91-.85c.79-.27,1.63-.25,2.43-.47S187.42,24.18,187.19,23.35Z" class="cls-5"/><path data-cppathid="10058" d="M32.58,7.69a4.76,4.76,0,0,0-2.74-2.61,13.48,13.48,0,0,0-3.68-.59,38.22,38.22,0,0,0-4.77-.41l-1.19,0C13.2,4.52,5.9,3.75-1,5.34c-1.07.24-4.43.83-2.9,2.24,3,2.74,8.14,3.28,11.86,3.87,5.13.82,10.68,1.44,15.85.66a13.47,13.47,0,0,0,3.71-1.38c1-.44,2.1-.44,3.12-.8S32.91,8.94,32.58,7.69Z" class="cls-5"/></pattern><pattern viewBox="0 0 1475.87 988.89" patternUnits="userSpaceOnUse" patternTransform="translate(282.82 290.64) scale(0.33 0.34)" height="988.89" width="1475.87" data-name="New Pattern 3" id="New_Pattern_3"><rect data-cppathid="10059" height="988.89" width="1475.87" class="cls-1"/><path data-cppathid="10060" d="M1353.23,674.35s-65.87-6.68-80.51-6.07-28.63,5-40.26,6.13-56.17,4.25-56.17,4.25,50.68.2,56.32-.06,26.23-3.29,30.37-3.83,11.4-2,15-2.09S1342.31,676.07,1353.23,674.35Z" class="cls-2"/><path data-cppathid="10061" d="M1353.23,674.35s-65.7-8.07-80.33-7.45-28.63,5-40.27,6.12l-56.34,5.64s50.86-1.19,56.5-1.45,26.23-3.29,30.37-3.83,11.39-2,15-2.09S1342.31,676.07,1353.23,674.35Z" class="cls-3"/><path data-cppathid="10062" d="M1275.37,669.6c-14.63.61-28.63,4.95-40.26,6.12s-58.82,2.94-58.82,2.94l56.34-5.64c11.64-1.17,25.63-5.51,40.27-6.12s80.33,7.45,80.33,7.45S1290,669,1275.37,669.6Z" class="cls-4"/><path data-cppathid="10063" d="M1590,561s-62.07-6.41-75.87-5.73-27,5.07-38,6.29-53,4.48-53,4.48,47.78,0,53.1-.3,24.74-3.39,28.65-3.95,10.74-2.07,14.19-2.15S1579.66,562.81,1590,561Z" class="cls-2"/><path data-cppathid="10064" d="M1590,561s-61.9-7.8-75.7-7.12-27,5.08-38,6.29l-53.14,5.87s47.95-1.4,53.27-1.68,24.74-3.4,28.65-3.95,10.74-2.07,14.19-2.16S1579.66,562.81,1590,561Z" class="cls-3"/><path data-cppathid="10065" d="M1516.58,556.61c-13.81.68-27,5.07-38,6.29s-55.46,3.18-55.46,3.18l53.14-5.87c11-1.21,24.18-5.61,38-6.29S1590,561,1590,561,1530.38,555.93,1516.58,556.61Z" class="cls-4"/><path data-cppathid="10066" d="M1421.13,980s-34.72-25.31-47.33-31.48c8.34,8.89,35.69,29.74,44.57,36.24s32.13,16.56,32.13,16.56S1426.88,983.85,1421.13,980Z" class="cls-2"/><path data-cppathid="10067" d="M1422,978.48s-35.62-23.75-48.23-29.92c8.34,8.89,36.6,28.18,45.47,34.68s31.23,18.12,31.23,18.12S1427.79,982.29,1422,978.48Z" class="cls-3"/><path data-cppathid="10068" d="M1373.8,948.56s24.59,18.08,35.32,24.82,19.52,13.18,22.84,15.1,18.54,12.88,18.54,12.88-22.71-19.07-28.47-22.88C1422,978.48,1386.41,954.73,1373.8,948.56Z" class="cls-4"/><path data-cppathid="10069" d="M1212.43,823.76s-24.92,38.18-29.77,52.22c9.88-9,30.78-39,37.19-48.79s13.53-35.74,13.53-35.74S1216,817.4,1212.43,823.76Z" class="cls-2"/><path data-cppathid="10070" d="M1210,822.64s-22.49,39.3-27.34,53.34c9.88-9,28.35-40.16,34.75-49.92s16-34.61,16-34.61S1213.58,816.28,1210,822.64Z" class="cls-3"/><path data-cppathid="10071" d="M1182.66,876s17.86-27,24-38.9,12.55-21.52,14.25-25.2,12.42-20.43,12.42-20.43-19.8,24.83-23.38,31.19C1210,822.64,1187.51,861.94,1182.66,876Z" class="cls-4"/><path data-cppathid="10072" d="M742.59,1014.86s51.22-42,63.76-49.53,26.6-11.68,36.94-17.14,49.17-27.48,49.17-27.48-42.13,28.16-47,31.06-23.68,11.74-27.43,13.59-10.62,4.61-13.7,6.56S752.64,1010.26,742.59,1014.86Z" class="cls-2"/><path data-cppathid="10073" d="M742.59,1014.86s50.3-43,62.84-50.59,26.61-11.68,37-17.13l50.08-26.43s-43.05,27.1-47.89,30-23.69,11.75-27.44,13.59-10.61,4.61-13.69,6.56S752.64,1010.26,742.59,1014.86Z" class="cls-3"/><path data-cppathid="10074" d="M804.86,967.89c12.55-7.57,26.61-11.68,36.95-17.14s50.65-30,50.65-30l-50.08,26.43c-10.34,5.45-24.4,9.56-37,17.13s-62.84,50.59-62.84,50.59S792.32,975.46,804.86,967.89Z" class="cls-4"/><path data-cppathid="10075" d="M615.29,921.57s-65.87-6.68-80.51-6.06-28.62,5-40.26,6.12-56.17,4.25-56.17,4.25,50.68.2,56.32-.06,26.23-3.29,30.38-3.83,11.39-2,15-2.09S604.37,923.29,615.29,921.57Z" class="cls-2"/><path data-cppathid="10076" d="M615.29,921.57S549.6,913.5,535,914.12s-28.63,5-40.26,6.12l-56.35,5.64s50.86-1.18,56.5-1.45,26.23-3.29,30.37-3.83,11.39-2,15-2.09S604.37,923.29,615.29,921.57Z" class="cls-3"/><path data-cppathid="10077" d="M537.43,916.82c-14.63.62-28.62,5-40.26,6.12s-58.82,2.94-58.82,2.94l56.35-5.64c11.63-1.16,25.62-5.5,40.26-6.12s80.33,7.45,80.33,7.45S552.07,916.2,537.43,916.82Z" class="cls-4"/><path data-cppathid="10078" d="M852,808.26s-62.07-6.41-75.87-5.73-27,5.08-38,6.29-53,4.48-53,4.48,47.78,0,53.1-.29,24.74-3.4,28.65-4,10.75-2.06,14.19-2.15S841.72,810,852,808.26Z" class="cls-2"/><path data-cppathid="10079" d="M852,808.26s-61.9-7.8-75.7-7.12-27,5.08-38,6.29l-53.14,5.87s47.95-1.4,53.27-1.68,24.74-3.4,28.65-4,10.75-2.07,14.2-2.16S841.72,810,852,808.26Z" class="cls-3"/><path data-cppathid="10080" d="M778.64,803.83c-13.8.68-27,5.07-38,6.29s-55.46,3.18-55.46,3.18l53.14-5.87c11-1.21,24.19-5.61,38-6.29s75.7,7.12,75.7,7.12S792.44,803.15,778.64,803.83Z" class="cls-4"/><path data-cppathid="10081" d="M1050.57,870.36s-34.71-25.32-47.32-31.48c8.33,8.88,35.69,29.73,44.56,36.23s32.13,16.57,32.13,16.57S1056.33,874.16,1050.57,870.36Z" class="cls-2"/><path data-cppathid="10082" d="M1051.48,868.8s-35.62-23.76-48.23-29.92c8.33,8.88,36.59,28.17,45.47,34.67s31.22,18.13,31.22,18.13S1057.24,872.6,1051.48,868.8Z" class="cls-3"/><path data-cppathid="10083" d="M1003.25,838.88s24.58,18.07,35.32,24.81,19.52,13.18,22.83,15.1,18.54,12.89,18.54,12.89-22.7-19.08-28.46-22.88C1051.48,868.8,1015.86,845,1003.25,838.88Z" class="cls-4"/><path data-cppathid="10084" d="M96,898.86s66.17-1.93,80.73-.27,28.2,7,39.72,9,55.71,8.27,55.71,8.27-50.56-3.43-56.17-4.1-25.92-5.17-30-6-11.21-2.83-14.85-3.17S106.72,901.36,96,898.86Z" class="cls-2"/><path data-cppathid="10085" d="M96,898.86s66.1-3.33,80.65-1.66,28.2,7,39.72,9l55.79,9.66s-50.63-4.83-56.24-5.5-25.93-5.16-30-6-11.22-2.83-14.86-3.16S106.72,901.36,96,898.86Z" class="cls-3"/><path data-cppathid="10086" d="M174,899.71c14.55,1.67,28.2,7,39.72,9s58.45,7.15,58.45,7.15l-55.79-9.66c-11.52-2-25.17-7.34-39.72-9S96,898.86,96,898.86,159.4,898,174,899.71Z" class="cls-4"/><path data-cppathid="10087" d="M4.66,767.63s51.21-42,63.75-49.52,26.6-11.68,37-17.14,49.16-27.48,49.16-27.48-42.13,28.16-47,31.06-23.68,11.74-27.43,13.58-10.61,4.61-13.7,6.57S14.7,763,4.66,767.63Z" class="cls-2"/><path data-cppathid="10088" d="M4.66,767.63s50.3-43,62.84-50.58,26.6-11.68,36.94-17.14,50.08-26.42,50.08-26.42-43,27.1-47.89,30S83,715.23,79.2,717.08s-10.62,4.61-13.7,6.56S14.7,763,4.66,767.63Z" class="cls-3"/><path data-cppathid="10089" d="M66.93,720.67c12.54-7.57,26.6-11.69,36.94-17.14s50.65-30,50.65-30-39.73,21-50.08,26.42S80,709.48,67.5,717.05,4.66,767.63,4.66,767.63,54.38,728.24,66.93,720.67Z" class="cls-4"/><path data-cppathid="10090" d="M114.08,561S52,554.63,38.21,555.31s-27,5.07-38,6.29-53,4.48-53,4.48,47.77,0,53.09-.3,24.74-3.39,28.65-3.95,10.75-2.07,14.2-2.15S103.78,562.81,114.08,561Z" class="cls-2"/><path data-cppathid="10091" d="M114.08,561s-61.9-7.8-75.7-7.12-27,5.08-38,6.29l-53.14,5.87S-4.8,564.68.52,564.4s24.74-3.4,28.65-3.95,10.75-2.07,14.2-2.16S103.78,562.81,114.08,561Z" class="cls-3"/><path data-cppathid="10092" d="M40.7,556.61c-13.8.68-27,5.07-38,6.29s-55.45,3.18-55.45,3.18L.4,560.21c11-1.21,24.18-5.61,38-6.29s75.7,7.12,75.7,7.12S54.5,555.93,40.7,556.61Z" class="cls-4"/><path data-cppathid="10093" d="M312.64,623.13s-34.72-25.31-47.33-31.47c8.34,8.88,35.69,29.73,44.57,36.23S342,644.45,342,644.45,318.39,626.94,312.64,623.13Z" class="cls-2"/><path data-cppathid="10094" d="M313.54,621.58s-35.62-23.76-48.23-29.92c8.34,8.88,36.6,28.17,45.47,34.67S342,644.45,342,644.45,319.3,625.38,313.54,621.58Z" class="cls-3"/><path data-cppathid="10095" d="M265.31,591.66s24.59,18.07,35.32,24.81,19.52,13.18,22.84,15.1S342,644.45,342,644.45s-22.7-19.07-28.46-22.87C313.54,621.58,277.92,597.82,265.31,591.66Z" class="cls-4"/><path data-cppathid="10096" d="M350.61,781.77s-35.66,4.47-47.34,3.47c9.73-3.5,38.21-7.8,47.34-9s30.13,1.81,30.13,1.81S356.36,781.37,350.61,781.77Z" class="cls-2"/><path data-cppathid="10097" d="M350.61,783.58s-35.66,2.66-47.34,1.66c9.73-3.5,38.21-6,47.34-7.16s30.13,0,30.13,0S356.36,783.17,350.61,783.58Z" class="cls-3"/><path data-cppathid="10098" d="M303.27,785.24s25.31-3.29,35.88-3.73,19.61-1.6,22.81-1.6,18.78-1.83,18.78-1.83-24.38,5.09-30.13,5.5C350.61,783.58,315,786.24,303.27,785.24Z" class="cls-4"/><path data-cppathid="10099" d="M1353.23,179.91s-65.87-6.69-80.51-6.07-28.63,5-40.26,6.13-56.17,4.24-56.17,4.24,50.68.21,56.32-.05,26.23-3.3,30.37-3.83,11.4-2,15-2.1S1342.31,181.63,1353.23,179.91Z" class="cls-2"/><path data-cppathid="10100" d="M1353.23,179.91s-65.7-8.07-80.33-7.46-28.63,5-40.27,6.13l-56.34,5.63s50.86-1.18,56.5-1.44,26.23-3.29,30.37-3.83,11.39-2,15-2.09S1342.31,181.63,1353.23,179.91Z" class="cls-3"/><path data-cppathid="10101" d="M1275.37,175.15c-14.63.62-28.63,5-40.26,6.13s-58.82,2.93-58.82,2.93l56.34-5.63c11.64-1.17,25.63-5.51,40.27-6.13s80.33,7.46,80.33,7.46S1290,174.54,1275.37,175.15Z" class="cls-4"/><path data-cppathid="10102" d="M1590,66.6s-62.07-6.41-75.87-5.73-27,5.07-38,6.29-53,4.47-53,4.47,47.78,0,53.1-.29,24.74-3.4,28.65-4,10.74-2.07,14.19-2.15S1579.66,68.36,1590,66.6Z" class="cls-2"/><path data-cppathid="10103" d="M1590,66.6s-61.9-7.8-75.7-7.12-27,5.07-38,6.29l-53.14,5.86s47.95-1.39,53.27-1.68,24.74-3.39,28.65-4,10.74-2.07,14.19-2.15S1579.66,68.36,1590,66.6Z" class="cls-3"/><path data-cppathid="10104" d="M1516.58,62.17c-13.81.67-27,5.07-38,6.28s-55.46,3.18-55.46,3.18l53.14-5.86c11-1.22,24.18-5.61,38-6.29S1590,66.6,1590,66.6,1530.38,61.49,1516.58,62.17Z" class="cls-4"/><path data-cppathid="10105" d="M1421.13,485.6s-34.72-25.32-47.33-31.48c8.34,8.88,35.69,29.74,44.57,36.24s32.13,16.56,32.13,16.56S1426.88,489.41,1421.13,485.6Z" class="cls-2"/><path data-cppathid="10106" d="M1422,484s-35.62-23.76-48.23-29.92c8.34,8.88,36.6,28.18,45.47,34.68s31.23,18.12,31.23,18.12S1427.79,487.85,1422,484Z" class="cls-3"/><path data-cppathid="10107" d="M1373.8,454.12s24.59,18.08,35.32,24.81S1428.64,492.12,1432,494s18.54,12.88,18.54,12.88S1427.79,487.85,1422,484C1422,484,1386.41,460.28,1373.8,454.12Z" class="cls-4"/><path data-cppathid="10108" d="M1235,521.4s-20.09-7-27-6.81c5.21,4.16,21.17,10.46,26.31,12.27s17.67.35,17.67.35S1238.28,522.2,1235,521.4Z" class="cls-2"/><path data-cppathid="10109" d="M1235.22,519.61s-20.31-5.18-27.2-5c5.21,4.16,21.39,8.67,26.53,10.48s17.45,2.14,17.45,2.14S1238.5,520.41,1235.22,519.61Z" class="cls-3"/><path data-cppathid="10110" d="M1208,514.59s14.25,5.07,20.32,6.25,11.16,3,13,3.21,10.65,3.16,10.65,3.16-13.5-6.8-16.78-7.6C1235.22,519.61,1214.91,514.43,1208,514.59Z" class="cls-4"/><path data-cppathid="10111" d="M1212.43,329.32s-24.92,38.17-29.77,52.22c9.88-9,30.78-39,37.19-48.8S1233.38,297,1233.38,297,1216,323,1212.43,329.32Z" class="cls-2"/><path data-cppathid="10112" d="M1210,328.2s-22.49,39.29-27.34,53.34c9.88-9,28.35-40.16,34.75-49.92s16-34.61,16-34.61S1213.58,321.84,1210,328.2Z" class="cls-3"/><path data-cppathid="10113" d="M1182.66,381.54s17.86-27,24-38.9,12.55-21.53,14.25-25.2S1233.38,297,1233.38,297s-19.8,24.83-23.38,31.19C1210,328.2,1187.51,367.49,1182.66,381.54Z" class="cls-4"/><path data-cppathid="10114" d="M833.89,651.64s66.18-1.93,80.73-.27,28.2,7,39.72,9,55.72,8.27,55.72,8.27-50.56-3.43-56.17-4.1-25.92-5.17-30-6-11.22-2.83-14.86-3.17S844.66,654.14,833.89,651.64Z" class="cls-2"/><path data-cppathid="10115" d="M833.89,651.64S900,648.31,914.55,650s28.2,7,39.72,9l55.79,9.67s-50.64-4.83-56.25-5.5-25.92-5.17-30-6-11.22-2.83-14.86-3.17S844.66,654.14,833.89,651.64Z" class="cls-3"/><path data-cppathid="10116" d="M911.89,652.49c14.55,1.67,28.2,7,39.72,9s58.45,7.15,58.45,7.15L954.27,659c-11.52-2-25.17-7.33-39.72-9s-80.66,1.67-80.66,1.67S897.33,650.82,911.89,652.49Z" class="cls-4"/><path data-cppathid="10117" d="M742.59,520.41s51.22-41.95,63.76-49.52,26.6-11.69,36.94-17.14,49.17-27.48,49.17-27.48-42.13,28.16-47,31.06-23.68,11.74-27.43,13.58-10.62,4.61-13.7,6.57S752.64,515.82,742.59,520.41Z" class="cls-2"/><path data-cppathid="10118" d="M742.59,520.41s50.3-43,62.84-50.58,26.61-11.68,37-17.14,50.08-26.42,50.08-26.42-43.05,27.1-47.89,30S820.88,468,817.13,469.85s-10.61,4.61-13.69,6.57S752.64,515.82,742.59,520.41Z" class="cls-3"/><path data-cppathid="10119" d="M804.86,473.44c12.55-7.57,26.61-11.68,36.95-17.13s50.65-30,50.65-30-39.73,21-50.08,26.42-24.4,9.57-37,17.14-62.84,50.58-62.84,50.58S792.32,481,804.86,473.44Z" class="cls-4"/><path data-cppathid="10120" d="M615.29,427.13s-65.87-6.68-80.51-6.07-28.62,5-40.26,6.13-56.17,4.25-56.17,4.25,50.68.2,56.32-.06,26.23-3.3,30.38-3.83,11.39-2,15-2.09S604.37,428.85,615.29,427.13Z" class="cls-2"/><path data-cppathid="10121" d="M615.29,427.13s-65.69-8.07-80.33-7.45-28.63,4.95-40.26,6.12l-56.35,5.64s50.86-1.19,56.5-1.45,26.23-3.29,30.37-3.83,11.39-2,15-2.09S604.37,428.85,615.29,427.13Z" class="cls-3"/><path data-cppathid="10122" d="M537.43,422.38c-14.63.61-28.62,4.95-40.26,6.12s-58.82,2.94-58.82,2.94l56.35-5.64c11.63-1.17,25.62-5.51,40.26-6.12s80.33,7.45,80.33,7.45S552.07,421.76,537.43,422.38Z" class="cls-4"/><path data-cppathid="10123" d="M852,313.82s-62.07-6.41-75.87-5.73-27,5.07-38,6.29-53,4.47-53,4.47,47.78,0,53.1-.29,24.74-3.39,28.65-3.95,10.75-2.07,14.19-2.15S841.72,315.59,852,313.82Z" class="cls-2"/><path data-cppathid="10124" d="M852,313.82s-61.9-7.8-75.7-7.12-27,5.08-38,6.29-53.14,5.86-53.14,5.86,47.95-1.39,53.27-1.67,24.74-3.4,28.65-4,10.75-2.06,14.2-2.15S841.72,315.59,852,313.82Z" class="cls-3"/><path data-cppathid="10125" d="M778.64,309.39c-13.8.68-27,5.07-38,6.29s-55.46,3.17-55.46,3.17,42.17-4.64,53.14-5.86,24.19-5.61,38-6.29,75.7,7.12,75.7,7.12S792.44,308.71,778.64,309.39Z" class="cls-4"/><path data-cppathid="10126" d="M1050.57,375.91s-34.71-25.31-47.32-31.48c8.33,8.89,35.69,29.74,44.56,36.24s32.13,16.56,32.13,16.56S1056.33,379.72,1050.57,375.91Z" class="cls-2"/><path data-cppathid="10127" d="M1051.48,374.35s-35.62-23.75-48.23-29.92c8.33,8.89,36.59,28.18,45.47,34.68s31.22,18.12,31.22,18.12S1057.24,378.16,1051.48,374.35Z" class="cls-3"/><path data-cppathid="10128" d="M1003.25,344.43s24.58,18.08,35.32,24.81,19.52,13.19,22.83,15.11,18.54,12.88,18.54,12.88-22.7-19.07-28.46-22.88C1051.48,374.35,1015.86,350.6,1003.25,344.43Z" class="cls-4"/><path data-cppathid="10129" d="M683.19,732.82s-34.71-25.32-47.32-31.48c8.33,8.89,35.68,29.74,44.56,36.24s32.13,16.56,32.13,16.56S689,736.63,683.19,732.82Z" class="cls-2"/><path data-cppathid="10130" d="M684.1,731.26s-35.62-23.76-48.23-29.92c8.33,8.89,36.59,28.18,45.46,34.68s31.23,18.12,31.23,18.12S689.85,735.07,684.1,731.26Z" class="cls-3"/><path data-cppathid="10131" d="M635.87,701.34s24.58,18.08,35.31,24.81,19.53,13.19,22.84,15.11,18.54,12.88,18.54,12.88-22.71-19.07-28.46-22.88C684.1,731.26,648.48,707.5,635.87,701.34Z" class="cls-4"/><path data-cppathid="10132" d="M497.07,768.62s-20.1-7-27-6.81c5.21,4.17,21.17,10.46,26.32,12.27s17.66.35,17.66.35S500.35,769.42,497.07,768.62Z" class="cls-2"/><path data-cppathid="10133" d="M497.29,766.83s-20.32-5.18-27.21-5c5.21,4.17,21.39,8.67,26.54,10.48s17.44,2.14,17.44,2.14S500.57,767.63,497.29,766.83Z" class="cls-3"/><path data-cppathid="10134" d="M470.08,761.81s14.25,5.07,20.32,6.25,11.16,3,13,3.21,10.65,3.16,10.65,3.16-13.49-6.8-16.77-7.6C497.29,766.83,477,761.65,470.08,761.81Z" class="cls-4"/><path data-cppathid="10135" d="M474.49,576.54s-24.92,38.17-29.76,52.22c9.88-9,30.77-39,37.18-48.8s13.53-35.73,13.53-35.73S478.08,570.18,474.49,576.54Z" class="cls-2"/><path data-cppathid="10136" d="M472.06,575.42s-22.49,39.29-27.33,53.34c9.88-9,28.34-40.16,34.75-49.92s16-34.61,16-34.61S475.64,569.06,472.06,575.42Z" class="cls-3"/><path data-cppathid="10137" d="M444.73,628.76s17.85-27,24-38.9,12.55-21.53,14.25-25.2,12.42-20.43,12.42-20.43-19.8,24.83-23.38,31.19C472.06,575.42,449.57,614.71,444.73,628.76Z" class="cls-4"/><path data-cppathid="10138" d="M1088.55,534.55s-35.66,4.47-47.34,3.47c9.73-3.5,38.21-7.8,47.34-9s30.13,1.8,30.13,1.8S1094.3,534.15,1088.55,534.55Z" class="cls-2"/><path data-cppathid="10139" d="M1088.55,536.35s-35.66,2.67-47.34,1.67c9.73-3.5,38.21-6,47.34-7.17s30.13,0,30.13,0S1094.3,536,1088.55,536.35Z" class="cls-3"/><path data-cppathid="10140" d="M1041.21,538s25.31-3.29,35.88-3.73,19.61-1.6,22.81-1.6,18.78-1.84,18.78-1.84-24.38,5.1-30.13,5.5C1088.55,536.35,1052.89,539,1041.21,538Z" class="cls-4"/><path data-cppathid="10141" d="M96,404.42s66.17-1.94,80.73-.27,28.2,7,39.72,9,55.71,8.27,55.71,8.27S221.56,418,216,417.32s-25.92-5.17-30-6-11.21-2.84-14.85-3.17S106.72,406.92,96,404.42Z" class="cls-2"/><path data-cppathid="10142" d="M96,404.42s66.1-3.33,80.65-1.67,28.2,7,39.72,9l55.79,9.67s-50.63-4.83-56.24-5.5-25.93-5.17-30-6-11.22-2.83-14.86-3.17S106.72,406.92,96,404.42Z" class="cls-3"/><path data-cppathid="10143" d="M174,405.27c14.55,1.66,28.2,7,39.72,9s58.45,7.15,58.45,7.15l-55.79-9.67c-11.52-2-25.17-7.33-39.72-9S96,404.42,96,404.42,159.4,403.6,174,405.27Z" class="cls-4"/><path data-cppathid="10144" d="M4.66,273.19s51.21-41.95,63.75-49.52,26.6-11.69,37-17.14S154.52,179,154.52,179s-42.13,28.17-47,31.07-23.68,11.74-27.43,13.58-10.61,4.61-13.7,6.57S14.7,268.6,4.66,273.19Z" class="cls-2"/><path data-cppathid="10145" d="M4.66,273.19s50.3-43,62.84-50.58,26.6-11.69,36.94-17.14S154.52,179,154.52,179s-43,27.11-47.89,30S83,220.79,79.2,222.63s-10.62,4.61-13.7,6.57S14.7,268.6,4.66,273.19Z" class="cls-3"/><path data-cppathid="10146" d="M66.93,226.22c12.54-7.57,26.6-11.68,36.94-17.13S154.52,179,154.52,179s-39.73,21-50.08,26.43S80,215,67.5,222.61,4.66,273.19,4.66,273.19,54.38,233.79,66.93,226.22Z" class="cls-4"/><path data-cppathid="10147" d="M114.08,66.6S52,60.19,38.21,60.87s-27,5.07-38,6.29-53,4.47-53,4.47S-5,71.63.35,71.34s24.74-3.4,28.65-4,10.75-2.07,14.2-2.15S103.78,68.36,114.08,66.6Z" class="cls-2"/><path data-cppathid="10148" d="M114.08,66.6s-61.9-7.8-75.7-7.12-27,5.07-38,6.29l-53.14,5.86S-4.8,70.24.52,70s24.74-3.39,28.65-4,10.75-2.07,14.2-2.15S103.78,68.36,114.08,66.6Z" class="cls-3"/><path data-cppathid="10149" d="M40.7,62.17c-13.8.67-27,5.07-38,6.28s-55.45,3.18-55.45,3.18L.4,65.77c11-1.22,24.18-5.61,38-6.29s75.7,7.12,75.7,7.12S54.5,61.49,40.7,62.17Z" class="cls-4"/><path data-cppathid="10150" d="M312.64,128.69s-34.72-25.32-47.33-31.48c8.34,8.88,35.69,29.74,44.57,36.24S342,150,342,150,318.39,132.5,312.64,128.69Z" class="cls-2"/><path data-cppathid="10151" d="M313.54,127.13s-35.62-23.76-48.23-29.92c8.34,8.88,36.6,28.18,45.47,34.68S342,150,342,150,319.3,130.94,313.54,127.13Z" class="cls-3"/><path data-cppathid="10152" d="M265.31,97.21S289.9,115.29,300.63,122s19.52,13.19,22.84,15.11S342,150,342,150s-22.7-19.07-28.46-22.88C313.54,127.13,277.92,103.37,265.31,97.21Z" class="cls-4"/><path data-cppathid="10153" d="M350.61,287.33S315,291.8,303.27,290.8c9.73-3.5,38.21-7.8,47.34-9s30.13,1.8,30.13,1.8S356.36,286.93,350.61,287.33Z" class="cls-2"/><path data-cppathid="10154" d="M350.61,289.13S315,291.8,303.27,290.8c9.73-3.5,38.21-6,47.34-7.17s30.13,0,30.13,0S356.36,288.73,350.61,289.13Z" class="cls-3"/><path data-cppathid="10155" d="M303.27,290.8s25.31-3.3,35.88-3.73,19.61-1.6,22.81-1.6,18.78-1.84,18.78-1.84-24.38,5.1-30.13,5.5C350.61,289.13,315,291.8,303.27,290.8Z" class="cls-4"/><path data-cppathid="10156" d="M1421.13-8.84s-34.72-25.32-47.33-31.48c8.34,8.88,35.69,29.73,44.57,36.23s32.13,16.57,32.13,16.57S1426.88-5,1421.13-8.84Z" class="cls-2"/><path data-cppathid="10157" d="M1422-10.4s-35.62-23.76-48.23-29.92c8.34,8.88,36.6,28.17,45.47,34.67s31.23,18.13,31.23,18.13S1427.79-6.6,1422-10.4Z" class="cls-3"/><path data-cppathid="10158" d="M1373.8-40.32s24.59,18.07,35.32,24.81S1428.64-2.33,1432-.4s18.54,12.88,18.54,12.88S1427.79-6.6,1422-10.4C1422-10.4,1386.41-34.16,1373.8-40.32Z" class="cls-4"/><path data-cppathid="10159" d="M1235,27s-20.09-7-27-6.82c5.21,4.17,21.17,10.47,26.31,12.27s17.67.35,17.67.35S1238.28,27.76,1235,27Z" class="cls-2"/><path data-cppathid="10160" d="M1235.22,25.16s-20.31-5.18-27.2-5c5.21,4.17,21.39,8.68,26.53,10.48S1252,32.76,1252,32.76,1238.5,26,1235.22,25.16Z" class="cls-3"/><path data-cppathid="10161" d="M1208,20.14s14.25,5.07,20.32,6.26,11.16,3,13,3.21S1252,32.76,1252,32.76s-13.5-6.79-16.78-7.6C1235.22,25.16,1214.91,20,1208,20.14Z" class="cls-4"/><path data-cppathid="10162" d="M833.89,157.2s66.18-1.94,80.73-.27,28.2,7,39.72,9,55.72,8.27,55.72,8.27-50.56-3.44-56.17-4.1-25.92-5.17-30-6-11.22-2.84-14.86-3.17S844.66,159.7,833.89,157.2Z" class="cls-2"/><path data-cppathid="10163" d="M833.89,157.2s66.11-3.33,80.66-1.67,28.2,7,39.72,9l55.79,9.67s-50.64-4.83-56.25-5.5-25.92-5.17-30-6-11.22-2.83-14.86-3.17S844.66,159.7,833.89,157.2Z" class="cls-3"/><path data-cppathid="10164" d="M911.89,158.05c14.55,1.66,28.2,7,39.72,9s58.45,7.15,58.45,7.15l-55.79-9.67c-11.52-2-25.17-7.33-39.72-9s-80.66,1.67-80.66,1.67S897.33,156.38,911.89,158.05Z" class="cls-4"/><path data-cppathid="10165" d="M742.59,26s51.22-42,63.76-49.53S833-35.24,843.29-40.69s49.17-27.49,49.17-27.49-42.13,28.17-47,31.07S821.8-25.37,818.05-23.53s-10.62,4.61-13.7,6.57S752.64,21.38,742.59,26Z" class="cls-2"/><path data-cppathid="10166" d="M742.59,26s50.3-43,62.84-50.59,26.61-11.68,37-17.13l50.08-26.43s-43.05,27.11-47.89,30-23.69,11.74-27.44,13.58S806.52-20,803.44-18,752.64,21.38,742.59,26Z" class="cls-3"/><path data-cppathid="10167" d="M804.86-21c12.55-7.57,26.61-11.68,36.95-17.13s50.65-30.05,50.65-30.05L842.38-41.75c-10.34,5.45-24.4,9.57-37,17.13S742.59,26,742.59,26,792.32-13.43,804.86-21Z" class="cls-4"/><path data-cppathid="10168" d="M683.19,238.38s-34.71-25.32-47.32-31.48c8.33,8.88,35.68,29.74,44.56,36.24s32.13,16.56,32.13,16.56S689,242.18,683.19,238.38Z" class="cls-2"/><path data-cppathid="10169" d="M684.1,236.82s-35.62-23.76-48.23-29.92c8.33,8.88,36.59,28.18,45.46,34.68s31.23,18.12,31.23,18.12S689.85,240.62,684.1,236.82Z" class="cls-3"/><path data-cppathid="10170" d="M635.87,206.9s24.58,18.08,35.31,24.81,19.53,13.18,22.84,15.11,18.54,12.88,18.54,12.88-22.71-19.08-28.46-22.88C684.1,236.82,648.48,213.06,635.87,206.9Z" class="cls-4"/><path data-cppathid="10171" d="M497.07,274.18s-20.1-7-27-6.81c5.21,4.16,21.17,10.46,26.32,12.27s17.66.35,17.66.35S500.35,275,497.07,274.18Z" class="cls-2"/><path data-cppathid="10172" d="M497.29,272.39s-20.32-5.19-27.21-5c5.21,4.16,21.39,8.67,26.54,10.47S514.06,280,514.06,280,500.57,273.19,497.29,272.39Z" class="cls-3"/><path data-cppathid="10173" d="M470.08,267.37s14.25,5.06,20.32,6.25,11.16,3,13,3.21S514.06,280,514.06,280s-13.49-6.8-16.77-7.6C497.29,272.39,477,267.2,470.08,267.37Z" class="cls-4"/><path data-cppathid="10174" d="M474.49,82.1s-24.92,38.17-29.76,52.22c9.88-9,30.77-39,37.18-48.8s13.53-35.73,13.53-35.73S478.08,75.74,474.49,82.1Z" class="cls-2"/><path data-cppathid="10175" d="M472.06,81s-22.49,39.3-27.33,53.35c9.88-9,28.34-40.16,34.75-49.92s16-34.61,16-34.61S475.64,74.62,472.06,81Z" class="cls-3"/><path data-cppathid="10176" d="M444.73,134.32s17.85-27,24-38.9S481.32,73.89,483,70.21s12.42-20.42,12.42-20.42S475.64,74.62,472.06,81C472.06,81,449.57,120.27,444.73,134.32Z" class="cls-4"/><path data-cppathid="10177" d="M1088.55,40.11s-35.66,4.47-47.34,3.47c9.73-3.5,38.21-7.81,47.34-9s30.13,1.8,30.13,1.8S1094.3,39.71,1088.55,40.11Z" class="cls-2"/><path data-cppathid="10178" d="M1088.55,41.91s-35.66,2.67-47.34,1.67c9.73-3.5,38.21-6,47.34-7.17s30.13,0,30.13,0S1094.3,41.51,1088.55,41.91Z" class="cls-3"/><path data-cppathid="10179" d="M1041.21,43.58s25.31-3.3,35.88-3.73,19.61-1.61,22.81-1.61,18.78-1.83,18.78-1.83-24.38,5.1-30.13,5.5C1088.55,41.91,1052.89,44.58,1041.21,43.58Z" class="cls-4"/></pattern></defs><g class="cls-6"><g data-name="Layer 2" id="Layer_2"><g data-name="Main menu" id="Main_menu"><g id="h.project"><path data-cppathid="10180" d="M222.44,22.07c0-8.1-6.23-14.71-13.85-14.72H194c-2.25,0-2.31,1.37-4.63,2.53s-14.89-2.53-17.2-2.53H16.41C8.79,7.36,2.56,14,2.56,22.07v7.66c0,3.11,1.77,8.24,1.9,10.12s-.13,5.2,0,6.36-1.9,4.19-1.9,6.28v7.66c0,8.09,6.23,14.72,13.85,14.72H69.88c1.42,0,5-2.82,6.66-2.6s7.21,2.6,9.86,2.6H208.59c7.62,0,13.85-6.63,13.85-14.72V49.34c0-6.51-2.27-10.51-2.41-11.66s2.41-5.37,2.41-7.1Z" class="cls-7"/><path data-cppathid="10181" d="M222.55,21.75c0-8.1-6.24-14.71-13.86-14.72H194c-2.25,0-2.31,1.37-4.63,2.53S174.49,7,172.18,7H16.31C8.69,7,2.45,13.66,2.45,21.75v7.66c0,3.11,1.77,8.24,1.9,10.12s-.13,5.2,0,6.36-1.91,4.19-1.91,6.28v7.66c0,8.09,6.24,14.72,13.86,14.72H69.83c1.43,0,5-2.82,6.67-2.6s7.22,2.6,9.87,2.6H208.69c7.62,0,13.86-6.63,13.86-14.72V49c0-6.51-2.27-10.51-2.41-11.66s2.41-5.36,2.41-7.1Z" class="cls-7"/><path data-cppathid="10182" d="M222.66,21.43c0-8.1-6.24-14.71-13.88-14.72H194.11c-2.25,0-2.32,1.37-4.63,2.53s-14.93-2.53-17.24-2.53h-156c-7.64,0-13.88,6.62-13.88,14.71v7.66c0,3.11,1.77,8.24,1.91,10.12s-.14,5.2,0,6.36-1.91,4.19-1.91,6.28v7.66c0,8.09,6.24,14.72,13.88,14.72H69.79c1.43,0,5-2.82,6.68-2.6s7.22,2.6,9.88,2.6H208.78c7.64,0,13.88-6.63,13.88-14.72V48.7c0-6.51-2.27-10.51-2.41-11.66s2.41-5.36,2.41-7.1Z" class="cls-7"/><path data-cppathid="10183" d="M222.77,21.11c0-8.09-6.25-14.71-13.89-14.71H194.19c-2.25,0-2.32,1.37-4.64,2.53S174.62,6.4,172.3,6.4H16.12C8.48,6.4,2.23,13,2.23,21.11v7.66C2.23,31.88,4,37,4.14,38.89s-.14,5.2,0,6.36-1.91,4.19-1.91,6.28V59.2c0,8.09,6.25,14.71,13.89,14.71H69.75c1.43,0,5-2.82,6.68-2.6s7.23,2.6,9.89,2.6H208.88c7.64,0,13.89-6.62,13.89-14.71V48.38c0-6.51-2.27-10.51-2.41-11.65s2.41-5.37,2.41-7.11Z" class="cls-7"/><path data-cppathid="10184" d="M222.88,20.79c0-8.09-6.26-14.71-13.9-14.71h-14.7c-2.26,0-2.33,1.37-4.65,2.53s-14.95-2.53-17.27-2.53H16c-7.65,0-13.9,6.62-13.9,14.71v7.66c0,3.11,1.77,8.24,1.91,10.12s-.14,5.2,0,6.36-1.91,4.19-1.91,6.28v7.67C2.12,67,8.37,73.59,16,73.59H69.71c1.43,0,5-2.82,6.69-2.6s7.23,2.6,9.9,2.6H209c7.64,0,13.9-6.62,13.9-14.71V48.06c0-6.51-2.27-10.51-2.42-11.65s2.42-5.37,2.42-7.11Z" class="cls-7"/><path data-cppathid="10185" d="M223,20.47c0-8.09-6.26-14.71-13.92-14.71H194.36c-2.26,0-2.33,1.37-4.65,2.53s-15-2.53-17.29-2.53H15.93C8.27,5.76,2,12.38,2,20.47v7.66c0,3.11,1.77,8.24,1.91,10.12s-.13,5.2,0,6.36S2,48.8,2,50.89v7.67c0,8.09,6.26,14.71,13.92,14.71H69.66c1.44,0,5-2.82,6.7-2.6s7.24,2.6,9.91,2.6h122.8c7.66,0,13.92-6.62,13.92-14.71V47.74c0-6.51-2.28-10.51-2.42-11.65S223,30.72,223,29Z" class="cls-7"/><path data-cppathid="10186" d="M223.1,20.15c0-8.09-6.27-14.71-13.93-14.71H194.44c-2.26,0-2.33,1.37-4.65,2.53s-15-2.53-17.31-2.53H15.83C8.17,5.44,1.9,12.06,1.9,20.15v7.66c0,3.11,1.77,8.24,1.91,10.12s-.13,5.2,0,6.36S1.9,48.48,1.9,50.57v7.67C1.9,66.33,8.17,73,15.83,73H69.62c1.44,0,5-2.82,6.7-2.6S83.58,73,86.24,73H209.17c7.66,0,13.93-6.62,13.93-14.71V47.42c0-6.51-2.28-10.51-2.42-11.65s2.42-5.37,2.42-7.11Z" class="cls-7"/><path data-cppathid="10187" d="M223.21,19.83c0-8.09-6.27-14.71-13.94-14.71H194.52c-2.26,0-2.33,1.37-4.66,2.53s-15-2.53-17.32-2.53H15.73c-7.67,0-13.94,6.62-13.94,14.71v7.66c0,3.11,1.78,8.24,1.91,10.12s-.13,5.2,0,6.36-1.91,4.19-1.91,6.28v7.67c0,8.09,6.27,14.71,13.94,14.71H69.58c1.43,0,5-2.82,6.71-2.6s7.26,2.6,9.93,2.6H209.27c7.67,0,13.94-6.62,13.94-14.71V47.1c0-6.51-2.28-10.51-2.42-11.65s2.42-5.37,2.42-7.11Z" class="cls-7"/><path data-cppathid="10188" d="M223.32,19.51c0-8.09-6.28-14.71-14-14.71H194.6c-2.26,0-2.33,1.37-4.66,2.53s-15-2.53-17.34-2.53h-157c-7.68,0-14,6.62-14,14.71v7.67c0,3.1,1.78,8.23,1.91,10.11s-.13,5.2,0,6.36-1.92,4.19-1.92,6.28V57.6c0,8.09,6.28,14.71,14,14.71H69.53c1.44,0,5-2.82,6.72-2.6s7.27,2.6,9.94,2.6H209.36c7.68,0,14-6.62,14-14.71V46.78c0-6.51-2.28-10.51-2.42-11.65s2.42-5.37,2.42-7.11Z" class="cls-7"/><path data-cppathid="10189" d="M223.44,19.19c0-8.09-6.29-14.71-14-14.71H194.69c-2.27,0-2.34,1.37-4.67,2.53s-15-2.53-17.36-2.53H15.54c-7.69,0-14,6.62-14,14.71v7.67C1.56,30,3.35,35.09,3.48,37s-.13,5.2,0,6.36-1.93,4.19-1.93,6.28v7.67c0,8.09,6.29,14.71,14,14.71h54c1.44,0,5-2.82,6.73-2.6S83.49,72,86.16,72h123.3c7.69,0,14-6.62,14-14.71V46.46c0-6.51-2.28-10.51-2.42-11.65s2.42-5.37,2.43-7.11Z" class="cls-7"/><path data-cppathid="10190" d="M223.55,18.87c0-8.09-6.3-14.71-14-14.71H194.77c-2.27,0-2.34,1.37-4.67,2.53s-15-2.53-17.38-2.53H15.44c-7.69,0-14,6.62-14,14.71v7.67c0,3.1,1.79,8.23,1.93,10.11s-.14,5.2,0,6.36S1.45,47.2,1.45,49.29V57c0,8.09,6.3,14.71,14,14.71h54c1.44,0,5-2.82,6.73-2.6s7.28,2.6,10,2.6H209.56c7.69,0,14-6.62,14-14.71V46.14c0-6.51-2.28-10.51-2.43-11.65s2.43-5.37,2.44-7.11Z" class="cls-7"/><path data-cppathid="10191" d="M223.66,18.55c0-8.09-6.31-14.71-14-14.71h-14.8c-2.27,0-2.34,1.37-4.68,2.53s-15.06-2.53-17.39-2.53H15.35c-7.71,0-14,6.62-14,14.71v7.67c0,3.1,1.79,8.23,1.93,10.11s-.14,5.2,0,6.36S1.34,46.88,1.34,49v7.67c0,8.09,6.3,14.71,14,14.71H69.4c1.45,0,5-2.82,6.74-2.6s7.29,2.6,10,2.6H209.65c7.7,0,14-6.62,14-14.71V45.82c0-6.51-2.29-10.51-2.44-11.65s2.43-5.37,2.44-7.11Z" class="cls-7"/><path data-cppathid="10192" d="M223.77,18.23c0-8.09-6.31-14.71-14-14.71H194.93c-2.27,0-2.34,1.37-4.68,2.53s-15.07-2.53-17.41-2.53H15.25c-7.71,0-14,6.62-14,14.71V25.9C1.23,29,3,34.13,3.16,36s-.14,5.2,0,6.36-1.93,4.19-1.93,6.28v7.67c0,8.09,6.31,14.71,14,14.71H69.36c1.45,0,5-2.82,6.75-2.6s7.29,2.6,10,2.6H209.75c7.71,0,14-6.62,14-14.71V45.5c0-6.51-2.3-10.51-2.44-11.65s2.44-5.37,2.44-7.11Z" class="cls-7"/><path data-cppathid="10193" d="M223.88,17.91c0-8.09-6.31-14.71-14-14.71H195c-2.28,0-2.35,1.37-4.69,2.53S175.24,3.2,172.9,3.2H15.15c-7.72,0-14,6.62-14,14.71v7.67c0,3.11,1.79,8.23,1.93,10.11s-.14,5.2,0,6.36-1.93,4.19-1.93,6.28V56c0,8.09,6.31,14.71,14,14.71H69.32c1.44,0,5-2.82,6.75-2.6s7.3,2.6,10,2.6H209.85c7.72,0,14-6.62,14-14.71V45.18c0-6.51-2.3-10.51-2.44-11.65s2.44-5.37,2.44-7.11Z" class="cls-7"/><path data-cppathid="10194" d="M224,17.59c0-8.09-6.32-14.71-14-14.71H195.1c-2.28,0-2.35,1.37-4.69,2.53S175.3,2.88,173,2.88H15.05C7.33,2.88,1,9.5,1,17.59v7.67c0,3.11,1.79,8.23,1.93,10.11s-.14,5.2,0,6.36S1,45.92,1,48v7.67c0,8.09,6.32,14.71,14,14.71H69.27c1.45,0,5-2.82,6.76-2.6s7.31,2.6,10,2.6H210c7.72,0,14-6.62,14-14.71V44.86c0-6.51-2.3-10.51-2.44-11.65S224,27.84,224,26.1Z" class="cls-7"/><path data-cppathid="10195" d="M224.1,17.27c0-8.09-6.32-14.71-14.06-14.71H195.18c-2.28,0-2.35,1.37-4.7,2.53S175.37,2.56,173,2.56H15C7.22,2.56.9,9.18.9,17.27v7.67c0,3.11,1.79,8.23,1.93,10.11s-.14,5.2,0,6.36S.9,45.6.9,47.69v7.67C.9,63.45,7.22,70.07,15,70.07H69.23c1.45,0,5-2.82,6.77-2.6s7.31,2.6,10,2.6H210c7.74,0,14.06-6.62,14.06-14.71V44.54c0-6.51-2.3-10.51-2.44-11.65s2.44-5.37,2.44-7.11Z" class="cls-7"/><path data-cppathid="10196" d="M224.21,17c0-8.09-6.33-14.71-14.07-14.71H195.26c-2.28,0-2.35,1.37-4.7,2.53s-15.13-2.53-17.48-2.53H14.86C7.12,2.24.78,8.86.79,17v7.67c0,3.11,1.79,8.23,1.93,10.11s-.14,5.2,0,6.36S.79,45.28.79,47.37V55c0,8.09,6.33,14.71,14.07,14.71H69.19c1.45,0,5-2.82,6.77-2.6s7.33,2.6,10,2.6H210.14c7.74,0,14.07-6.62,14.07-14.71V44.22c0-6.51-2.3-10.51-2.44-11.65s2.44-5.37,2.44-7.11Z" class="cls-7"/><path data-cppathid="10197" d="M224.33,16.63c0-8.09-6.34-14.71-14.09-14.71H195.35c-2.29,0-2.36,1.37-4.71,2.53s-15.15-2.53-17.5-2.53H14.76C7,1.92.67,8.54.67,16.63V24.3c0,3.11,1.8,8.23,1.94,10.11s-.14,5.2,0,6.36S.67,45,.67,47.05v7.67C.67,62.81,7,69.43,14.76,69.43H69.14c1.46,0,5-2.82,6.78-2.6s7.34,2.6,10,2.6H210.24c7.75,0,14.09-6.62,14.09-14.71V43.91c0-6.52-2.31-10.52-2.45-11.66s2.44-5.37,2.45-7.11Z" class="cls-7"/><path data-cppathid="10198" d="M224.44,16.31c0-8.09-6.35-14.71-14.1-14.71H195.43c-2.29,0-2.36,1.37-4.71,2.53S175.55,1.6,173.2,1.6H14.66C6.91,1.6.56,8.22.56,16.31V24c0,3.11,1.8,8.23,1.94,10.11s-.14,5.2,0,6.36S.56,44.64.56,46.73V54.4c0,8.09,6.35,14.71,14.1,14.71H69.1c1.46,0,5.05-2.82,6.79-2.6s7.34,2.6,10,2.6H210.34c7.75,0,14.1-6.62,14.1-14.71V43.59c0-6.52-2.31-10.52-2.45-11.66s2.45-5.37,2.45-7.11Z" class="cls-7"/><path data-cppathid="10199" d="M224.55,16c0-8.09-6.35-14.71-14.11-14.71H195.51c-2.29,0-2.36,1.37-4.71,2.53s-15.18-2.53-17.54-2.53H14.56C6.8,1.28.45,7.9.45,16v7.67c0,3.11,1.8,8.23,1.94,10.11s-.14,5.2,0,6.36S.45,44.32.45,46.42v7.66c0,8.09,6.35,14.71,14.11,14.71h54.5c1.45,0,5.06-2.82,6.79-2.6s7.35,2.6,10.05,2.6H210.44c7.76,0,14.11-6.62,14.11-14.71V43.27c0-6.52-2.31-10.52-2.45-11.66s2.45-5.37,2.45-7.11Z" class="cls-7"/><path data-cppathid="10200" d="M224.66,15.67C224.66,7.58,218.3,1,210.53,1H195.59c-2.28,0-2.35,1.37-4.71,2.53S175.68,1,173.32,1H14.47C6.69,1,.34,7.58.34,15.67v7.67c0,3.11,1.8,8.23,1.94,10.11s-.14,5.2,0,6.36S.34,44,.34,46.1v7.66c0,8.09,6.35,14.71,14.13,14.71H69c1.46,0,5.07-2.82,6.8-2.6s7.36,2.6,10.06,2.6H210.53c7.77,0,14.13-6.62,14.13-14.71V43c0-6.52-2.31-10.52-2.45-11.66s2.45-5.37,2.45-7.11Z" class="cls-7"/><path data-cppathid="10201" d="M224.78,15.35c0-8.09-6.37-14.71-14.15-14.71H195.68C193.39.64,193.32,2,191,3.17S175.74.64,173.38.64h-159C6.59.64.22,7.26.22,15.35V23c0,3.11,1.81,8.23,2,10.11s-.14,5.2,0,6.36S.22,43.68.22,45.78v7.66c0,8.09,6.37,14.71,14.15,14.71H69c1.46,0,5.07-2.82,6.81-2.6s7.36,2.6,10.07,2.6H210.63c7.78,0,14.14-6.62,14.14-14.71V42.63c0-6.52-2.31-10.51-2.45-11.66s2.45-5.37,2.46-7.11Z" class="cls-7"/><path data-cppathid="10202" d="M224.89,15c0-8.09-6.37-14.71-14.16-14.71h-15c-2.29,0-2.36,1.37-4.73,2.53S175.81.32,173.44.32H14.27C6.48.32.11,6.94.11,15V22.7c0,3.11,1.81,8.23,2,10.11s-.14,5.2,0,6.36S.11,43.36.11,45.46v7.66c0,8.09,6.37,14.71,14.16,14.71H68.93c1.46,0,5.07-2.82,6.81-2.6s7.37,2.6,10.08,2.6H210.73c7.79,0,14.16-6.62,14.16-14.71V42.31c0-6.52-2.32-10.51-2.46-11.66s2.45-5.37,2.46-7.1Z" class="cls-7"/><path data-cppathid="10203" d="M225,14.71C225,6.62,218.62,0,210.83,0h-15c-2.29,0-2.36,1.37-4.73,2.53S175.87,0,173.51,0H14.17C6.38,0,0,6.62,0,14.71v7.67c0,3.11,1.81,8.23,2,10.11s-.14,5.2,0,6.36S0,43,0,45.14V52.8c0,8.09,6.38,14.71,14.17,14.71H68.88c1.47,0,5.08-2.82,6.82-2.6s7.38,2.6,10.09,2.6h125c7.79,0,14.17-6.62,14.17-14.71V42c0-6.52-2.32-10.51-2.46-11.66S225,25,225,23.23Z" class="cls-7"/><path data-cppathid="10204" d="M223,20.47c0-8.09-6.26-14.71-13.92-14.71H194.36c-2.26,0-2.33,1.37-4.65,2.53s-15-2.53-17.29-2.53H15.93C8.27,5.76,2,12.38,2,20.47v7.66c0,3.11,1.77,8.24,1.91,10.12s-.13,5.2,0,6.36S2,48.8,2,50.89v7.67c0,8.09,6.26,14.71,13.92,14.71H69.66c1.44,0,5-2.82,6.7-2.6s7.24,2.6,9.91,2.6h122.8c7.66,0,13.92-6.62,13.92-14.71V47.74c0-6.51-2.28-10.51-2.42-11.65S223,30.72,223,29Z" class="cls-8"/><path data-cppathid="10205" d="M223.1,20.15c0-8.09-6.27-14.71-13.93-14.71H194.44c-2.26,0-2.33,1.37-4.65,2.53s-15-2.53-17.31-2.53H15.83C8.17,5.44,1.9,12.06,1.9,20.15v7.66c0,3.11,1.77,8.24,1.91,10.12s-.13,5.2,0,6.36S1.9,48.48,1.9,50.57v7.67C1.9,66.33,8.17,73,15.83,73H69.62c1.44,0,5-2.82,6.7-2.6S83.58,73,86.24,73H209.17c7.66,0,13.93-6.62,13.93-14.71V47.42c0-6.51-2.28-10.51-2.42-11.65s2.42-5.37,2.42-7.11Z" class="cls-8"/><path data-cppathid="10206" d="M223.21,19.83c0-8.09-6.27-14.71-13.94-14.71H194.52c-2.26,0-2.33,1.37-4.66,2.53s-15-2.53-17.32-2.53H15.73c-7.67,0-13.94,6.62-13.94,14.71v7.66c0,3.11,1.78,8.24,1.91,10.12s-.13,5.2,0,6.36-1.91,4.19-1.91,6.28v7.67c0,8.09,6.27,14.71,13.94,14.71H69.58c1.43,0,5-2.82,6.71-2.6s7.26,2.6,9.93,2.6H209.27c7.67,0,13.94-6.62,13.94-14.71V47.1c0-6.51-2.28-10.51-2.42-11.65s2.42-5.37,2.42-7.11Z" class="cls-8"/><path data-cppathid="10207" d="M223.32,19.51c0-8.09-6.28-14.71-14-14.71H194.6c-2.26,0-2.33,1.37-4.66,2.53s-15-2.53-17.34-2.53h-157c-7.68,0-14,6.62-14,14.71v7.67c0,3.1,1.78,8.23,1.91,10.11s-.13,5.2,0,6.36-1.92,4.19-1.92,6.28V57.6c0,8.09,6.28,14.71,14,14.71H69.53c1.44,0,5-2.82,6.72-2.6s7.27,2.6,9.94,2.6H209.36c7.68,0,14-6.62,14-14.71V46.78c0-6.51-2.28-10.51-2.42-11.65s2.42-5.37,2.42-7.11Z" class="cls-8"/><path data-cppathid="10208" d="M223.44,19.19c0-8.09-6.29-14.71-14-14.71H194.69c-2.27,0-2.34,1.37-4.67,2.53s-15-2.53-17.36-2.53H15.54c-7.69,0-14,6.62-14,14.71v7.67C1.56,30,3.35,35.09,3.48,37s-.13,5.2,0,6.36-1.93,4.19-1.93,6.28v7.67c0,8.09,6.29,14.71,14,14.71h54c1.44,0,5-2.82,6.73-2.6S83.49,72,86.16,72h123.3c7.69,0,14-6.62,14-14.71V46.46c0-6.51-2.28-10.51-2.42-11.65s2.42-5.37,2.43-7.11Z" class="cls-8"/><path data-cppathid="10209" d="M223.55,18.87c0-8.09-6.3-14.71-14-14.71H194.77c-2.27,0-2.34,1.37-4.67,2.53s-15-2.53-17.38-2.53H15.44c-7.69,0-14,6.62-14,14.71v7.67c0,3.1,1.79,8.23,1.93,10.11s-.14,5.2,0,6.36S1.45,47.2,1.45,49.29V57c0,8.09,6.3,14.71,14,14.71h54c1.44,0,5-2.82,6.73-2.6s7.28,2.6,10,2.6H209.56c7.69,0,14-6.62,14-14.71V46.14c0-6.51-2.28-10.51-2.43-11.65s2.43-5.37,2.44-7.11Z" class="cls-8"/><path data-cppathid="10210" d="M223.66,18.55c0-8.09-6.31-14.71-14-14.71h-14.8c-2.27,0-2.34,1.37-4.68,2.53s-15.06-2.53-17.39-2.53H15.35c-7.71,0-14,6.62-14,14.71v7.67c0,3.1,1.79,8.23,1.93,10.11s-.14,5.2,0,6.36S1.34,46.88,1.34,49v7.67c0,8.09,6.3,14.71,14,14.71H69.4c1.45,0,5-2.82,6.74-2.6s7.29,2.6,10,2.6H209.65c7.7,0,14-6.62,14-14.71V45.82c0-6.51-2.29-10.51-2.44-11.65s2.43-5.37,2.44-7.11Z" class="cls-8"/><path data-cppathid="10211" d="M223.77,18.23c0-8.09-6.31-14.71-14-14.71H194.93c-2.27,0-2.34,1.37-4.68,2.53s-15.07-2.53-17.41-2.53H15.25c-7.71,0-14,6.62-14,14.71V25.9C1.23,29,3,34.13,3.16,36s-.14,5.2,0,6.36-1.93,4.19-1.93,6.28v7.67c0,8.09,6.31,14.71,14,14.71H69.36c1.45,0,5-2.82,6.75-2.6s7.29,2.6,10,2.6H209.75c7.71,0,14-6.62,14-14.71V45.5c0-6.51-2.3-10.51-2.44-11.65s2.44-5.37,2.44-7.11Z" class="cls-8"/><path data-cppathid="10212" d="M223.88,17.91c0-8.09-6.31-14.71-14-14.71H195c-2.28,0-2.35,1.37-4.69,2.53S175.24,3.2,172.9,3.2H15.15c-7.72,0-14,6.62-14,14.71v7.67c0,3.11,1.79,8.23,1.93,10.11s-.14,5.2,0,6.36-1.93,4.19-1.93,6.28V56c0,8.09,6.31,14.71,14,14.71H69.32c1.44,0,5-2.82,6.75-2.6s7.3,2.6,10,2.6H209.85c7.72,0,14-6.62,14-14.71V45.18c0-6.51-2.3-10.51-2.44-11.65s2.44-5.37,2.44-7.11Z" class="cls-8"/><path data-cppathid="10213" d="M224,17.59c0-8.09-6.32-14.71-14-14.71H195.1c-2.28,0-2.35,1.37-4.69,2.53S175.3,2.88,173,2.88H15.05C7.33,2.88,1,9.5,1,17.59v7.67c0,3.11,1.79,8.23,1.93,10.11s-.14,5.2,0,6.36S1,45.92,1,48v7.67c0,8.09,6.32,14.71,14,14.71H69.27c1.45,0,5-2.82,6.76-2.6s7.31,2.6,10,2.6H210c7.72,0,14-6.62,14-14.71V44.86c0-6.51-2.3-10.51-2.44-11.65S224,27.84,224,26.1Z" class="cls-8"/><path data-cppathid="10214" d="M224.1,17.27c0-8.09-6.32-14.71-14.06-14.71H195.18c-2.28,0-2.35,1.37-4.7,2.53S175.37,2.56,173,2.56H15C7.22,2.56.9,9.18.9,17.27v7.67c0,3.11,1.79,8.23,1.93,10.11s-.14,5.2,0,6.36S.9,45.6.9,47.69v7.67C.9,63.45,7.22,70.07,15,70.07H69.23c1.45,0,5-2.82,6.77-2.6s7.31,2.6,10,2.6H210c7.74,0,14.06-6.62,14.06-14.71V44.54c0-6.51-2.3-10.51-2.44-11.65s2.44-5.37,2.44-7.11Z" class="cls-8"/><path data-cppathid="10215" d="M224.21,17c0-8.09-6.33-14.71-14.07-14.71H195.26c-2.28,0-2.35,1.37-4.7,2.53s-15.13-2.53-17.48-2.53H14.86C7.12,2.24.78,8.86.79,17v7.67c0,3.11,1.79,8.23,1.93,10.11s-.14,5.2,0,6.36S.79,45.28.79,47.37V55c0,8.09,6.33,14.71,14.07,14.71H69.19c1.45,0,5-2.82,6.77-2.6s7.33,2.6,10,2.6H210.14c7.74,0,14.07-6.62,14.07-14.71V44.22c0-6.51-2.3-10.51-2.44-11.65s2.44-5.37,2.44-7.11Z" class="cls-8"/><path data-cppathid="10216" d="M224.33,16.63c0-8.09-6.34-14.71-14.09-14.71H195.35c-2.29,0-2.36,1.37-4.71,2.53s-15.15-2.53-17.5-2.53H14.76C7,1.92.67,8.54.67,16.63V24.3c0,3.11,1.8,8.23,1.94,10.11s-.14,5.2,0,6.36S.67,45,.67,47.05v7.67C.67,62.81,7,69.43,14.76,69.43H69.14c1.46,0,5-2.82,6.78-2.6s7.34,2.6,10,2.6H210.24c7.75,0,14.09-6.62,14.09-14.71V43.91c0-6.52-2.31-10.52-2.45-11.66s2.44-5.37,2.45-7.11Z" class="cls-8"/><path data-cppathid="10217" d="M224.44,16.31c0-8.09-6.35-14.71-14.1-14.71H195.43c-2.29,0-2.36,1.37-4.71,2.53S175.55,1.6,173.2,1.6H14.66C6.91,1.6.56,8.22.56,16.31V24c0,3.11,1.8,8.23,1.94,10.11s-.14,5.2,0,6.36S.56,44.64.56,46.73V54.4c0,8.09,6.35,14.71,14.1,14.71H69.1c1.46,0,5.05-2.82,6.79-2.6s7.34,2.6,10,2.6H210.34c7.75,0,14.1-6.62,14.1-14.71V43.59c0-6.52-2.31-10.52-2.45-11.66s2.45-5.37,2.45-7.11Z" class="cls-8"/><path data-cppathid="10218" d="M224.55,16c0-8.09-6.35-14.71-14.11-14.71H195.51c-2.29,0-2.36,1.37-4.71,2.53s-15.18-2.53-17.54-2.53H14.56C6.8,1.28.45,7.9.45,16v7.67c0,3.11,1.8,8.23,1.94,10.11s-.14,5.2,0,6.36S.45,44.32.45,46.42v7.66c0,8.09,6.35,14.71,14.11,14.71h54.5c1.45,0,5.06-2.82,6.79-2.6s7.35,2.6,10.05,2.6H210.44c7.76,0,14.11-6.62,14.11-14.71V43.27c0-6.52-2.31-10.52-2.45-11.66s2.45-5.37,2.45-7.11Z" class="cls-8"/><path data-cppathid="10219" d="M224.66,15.67C224.66,7.58,218.3,1,210.53,1H195.59c-2.28,0-2.35,1.37-4.71,2.53S175.68,1,173.32,1H14.47C6.69,1,.34,7.58.34,15.67v7.67c0,3.11,1.8,8.23,1.94,10.11s-.14,5.2,0,6.36S.34,44,.34,46.1v7.66c0,8.09,6.35,14.71,14.13,14.71H69c1.46,0,5.07-2.82,6.8-2.6s7.36,2.6,10.06,2.6H210.53c7.77,0,14.13-6.62,14.13-14.71V43c0-6.52-2.31-10.52-2.45-11.66s2.45-5.37,2.45-7.11Z" class="cls-8"/><path data-cppathid="10220" d="M224.78,15.35c0-8.09-6.37-14.71-14.15-14.71H195.68C193.39.64,193.32,2,191,3.17S175.74.64,173.38.64h-159C6.59.64.22,7.26.22,15.35V23c0,3.11,1.81,8.23,2,10.11s-.14,5.2,0,6.36S.22,43.68.22,45.78v7.66c0,8.09,6.37,14.71,14.15,14.71H69c1.46,0,5.07-2.82,6.81-2.6s7.36,2.6,10.07,2.6H210.63c7.78,0,14.14-6.62,14.14-14.71V42.63c0-6.52-2.31-10.51-2.45-11.66s2.45-5.37,2.46-7.11Z" class="cls-8"/><path data-cppathid="10221" d="M224.89,15c0-8.09-6.37-14.71-14.16-14.71h-15c-2.29,0-2.36,1.37-4.73,2.53S175.81.32,173.44.32H14.27C6.48.32.11,6.94.11,15V22.7c0,3.11,1.81,8.23,2,10.11s-.14,5.2,0,6.36S.11,43.36.11,45.46v7.66c0,8.09,6.37,14.71,14.16,14.71H68.93c1.46,0,5.07-2.82,6.81-2.6s7.37,2.6,10.08,2.6H210.73c7.79,0,14.16-6.62,14.16-14.71V42.31c0-6.52-2.32-10.51-2.46-11.66s2.45-5.37,2.46-7.1Z" class="cls-8"/><path data-cppathid="10222" d="M225,14.71C225,6.62,218.62,0,210.83,0h-15c-2.29,0-2.36,1.37-4.73,2.53S175.87,0,173.51,0H14.17C6.38,0,0,6.62,0,14.71v7.67c0,3.11,1.81,8.23,2,10.11s-.14,5.2,0,6.36S0,43,0,45.14V52.8c0,8.09,6.38,14.71,14.17,14.71H68.88c1.47,0,5.08-2.82,6.82-2.6s7.38,2.6,10.09,2.6h125c7.79,0,14.17-6.62,14.17-14.71V42c0-6.52-2.32-10.51-2.46-11.66S225,25,225,23.23Z" class="cls-8"/><path data-cppathid="10223" d="M224.78,15.51C224.77,7.42,218.41.8,210.63.8H195.68c-2.29,0-2.36,1.37-4.73,2.53S175.74.8,173.38.8h-159C6.59.8.22,7.42.23,15.51v7.67c0,3.11,1.8,8.23,1.94,10.11s-.14,5.2,0,6.36S.23,43.84.23,45.94V53.6c0,8.09,6.36,14.71,14.14,14.71H69c1.46,0,5.07-2.82,6.81-2.6s7.36,2.6,10.07,2.6H210.63c7.78,0,14.14-6.62,14.14-14.71V42.79c0-6.52-2.31-10.51-2.45-11.66s2.45-5.37,2.46-7.11Z" class="cls-9"/><path data-cppathid="10224" d="M225,14.71C225,6.62,218.62,0,210.83,0h-15c-2.29,0-2.36,1.37-4.73,2.53S175.87,0,173.51,0H14.17C6.38,0,0,6.62,0,14.71v7.67c0,3.11,1.81,8.23,2,10.11s-.14,5.2,0,6.36S0,43,0,45.14V52.8c0,8.09,6.38,14.71,14.17,14.71H68.88c1.47,0,5.08-2.82,6.82-2.6s7.38,2.6,10.09,2.6h125c7.79,0,14.17-6.62,14.17-14.71V42c0-6.52-2.32-10.51-2.46-11.66S225,25,225,23.23Z" class="cls-10"/><path data-cppathid="10225" d="M225,14.71C225,6.62,218.62,0,210.83,0h-15c-2.29,0-2.36,1.37-4.73,2.53S175.87,0,173.51,0H14.17C6.38,0,0,6.62,0,14.71v7.67c0,3.11,1.81,8.23,2,10.11s-.14,5.2,0,6.36S0,43,0,45.14V52.8c0,8.09,6.38,14.71,14.17,14.71H68.88c1.47,0,5.08-2.82,6.82-2.6s7.38,2.6,10.09,2.6h125c7.79,0,14.17-6.62,14.17-14.71V42c0-6.52-2.32-10.51-2.46-11.66S225,25,225,23.23Z" class="cls-11"/><path data-cppathid="10226" d="M225,14.71C225,6.62,218.62,0,210.83,0h-15c-2.29,0-2.36,1.37-4.73,2.53S175.87,0,173.51,0H14.17C6.38,0,0,6.62,0,14.71v7.67c0,3.11,1.81,8.23,2,10.11s-.14,5.2,0,6.36S0,43,0,45.14V52.8c0,8.09,6.38,14.71,14.17,14.71H68.88c1.47,0,5.08-2.82,6.82-2.6s7.38,2.6,10.09,2.6h125c7.79,0,14.17-6.62,14.17-14.71V42c0-6.52-2.32-10.51-2.46-11.66S225,25,225,23.23Z" class="cls-12"/><g id="Informasi"><rect data-cppathid="10227" rx="27.17" height="55.16" width="200.85" y="9.29" x="14.02" class="cls-13"/><rect data-cppathid="10228" rx="24.41" height="49.64" width="195.34" y="12.05" x="16.78" class="cls-14"/><path data-cppathid="10229" d="M212.12,37.07a26.63,26.63,0,0,1-7,18.19,23.19,23.19,0,0,1-17,7.54H40.8c-13.27,0-24-11.52-24-25.73,0-.86,0-1.72.12-2.55,1.19,13,11.44,23.17,23.9,23.17H188.1a23.18,23.18,0,0,0,17-7.53A26.44,26.44,0,0,0,212,34.52C212.08,35.35,212.12,36.21,212.12,37.07Z" class="cls-15"/><path data-cppathid="10230" d="M212.12,35.09a22.32,22.32,0,0,1-.16,2.72A23.87,23.87,0,0,0,188.11,16.9H40.8a24.09,24.09,0,0,0-17,6.92,23.35,23.35,0,0,0-6.88,14,22.32,22.32,0,0,1-.16-2.72,23.34,23.34,0,0,1,7-16.71,24.09,24.09,0,0,1,17-6.92H188.11A23.82,23.82,0,0,1,212.12,35.09Z" class="cls-16"/><path data-cppathid="10231" d="M193.31,21a1.77,1.77,0,1,1-1.76-1.74A1.74,1.74,0,0,1,193.31,21Z" class="cls-17"/><path data-cppathid="10232" d="M201.08,24.23c-.26.75-3.31.4-5.19-.55-.73-.37-1.09-.73-1.17-1.15a1.47,1.47,0,0,1,.57-1.41C196.8,20.1,201.43,23.22,201.08,24.23Z" class="cls-17"/></g><rect data-cppathid="10233" rx="2.04" height="32" width="28.2" y="20.87" x="33.02" class="cls-18"/><rect data-cppathid="10234" rx="2.04" height="24.21" width="27.32" y="28.03" x="33.48" class="cls-19"/><rect data-cppathid="10235" rx="0.8" height="1.62" width="20.85" y="31.55" x="36.71" class="cls-20"/><rect data-cppathid="10236" rx="0.8" height="1.62" width="20.85" y="36.55" x="36.71" class="cls-20"/><rect data-cppathid="10237" rx="0.8" height="1.62" width="20.85" y="41.54" x="36.71" class="cls-20"/><rect data-cppathid="10238" rx="0.8" height="1.62" width="13.42" y="46.53" x="36.71" class="cls-20"/><rect data-cppathid="10239" transform="translate(-12.56 55.56) rotate(-45)" height="2.46" width="11.2" y="41.71" x="55.18" class="cls-21"/><rect data-cppathid="10240" transform="translate(-7.96 57.46) rotate(-45)" height="2.46" width="1.82" y="37.11" x="64.47" class="cls-20"/><path data-cppathid="10241" d="M67.87,36.35l-.5-.5a.88.88,0,0,0-1.24,0l-1,1,1.75,1.74,1-1A.86.86,0,0,0,67.87,36.35Z" class="cls-22"/><polygon data-cppathid="10242" points="54.31 49.42 55.95 46.03 57.69 47.77 54.31 49.42" class="cls-23"/><polygon data-cppathid="10243" points="54.31 49.42 54.59 48.82 54.9 49.13 54.31 49.42" class="cls-24"/><text data-cppathid="10244" transform="translate(69.96 44.83)" class="cls-25"><tspan data-cppathid="10245" class="cls-26">P</tspan><tspan data-cppathid="10246" y="0" x="15.39">R</tspan><tspan data-cppathid="10247" y="0" x="31.04" class="cls-27">O</tspan><tspan data-cppathid="10248" y="0" x="48.53">JE</tspan><tspan data-cppathid="10249" y="0" x="74.72" class="cls-28">C</tspan><tspan data-cppathid="10250" y="0" x="90.24">T</tspan></text></g></g></g></g></svg>