<?xml version="1.0" encoding="UTF-8"?>
<svg xmlns="http://www.w3.org/2000/svg" onmouseup="{ if(window.parent.document.onmouseup) window.parent.document.onmouseup(arguments[0]);}" viewBox="0 0 225 74.87" xmlns:xlink="http://www.w3.org/1999/xlink"><defs><style>
      .cls-1 {
        fill: #ff9a36;
      }

      .cls-1, .cls-2, .cls-3, .cls-4, .cls-5, .cls-6, .cls-7, .cls-8, .cls-9, .cls-10, .cls-11, .cls-12, .cls-13, .cls-14, .cls-15, .cls-16, .cls-17, .cls-18, .cls-19, .cls-20, .cls-21, .cls-22 {
        stroke-width: 0px;
      }

      .cls-2 {
        fill: url(#linear-gradient);
      }

      .cls-3 {
        fill: #80361d;
      }

      .cls-4 {
        fill: #b37157;
      }

      .cls-4, .cls-10, .cls-14 {
        mix-blend-mode: multiply;
      }

      .cls-5 {
        mix-blend-mode: overlay;
      }

      .cls-5, .cls-23, .cls-11 {
        fill: #fff;
      }

      .cls-5, .cls-10 {
        opacity: .3;
      }

      .cls-24 {
        isolation: isolate;
      }

      .cls-25 {
        letter-spacing: -.01em;
      }

      .cls-6 {
        fill: #be602b;
      }

      .cls-7 {
        fill: #b56529;
      }

      .cls-8, .cls-26 {
        fill: none;
      }

      .cls-23 {
        font-family: Montserrat-ExtraBold, Montserrat;
        font-size: 21px;
        font-weight: 700;
      }

      .cls-9 {
        fill: #cc7b2b;
      }

      .cls-10 {
        fill: url(#New_Pattern_4);
      }

      .cls-11 {
        opacity: .34;
      }

      .cls-12 {
        fill: url(#linear-gradient-2);
      }

      .cls-13, .cls-27 {
        fill: #99cfe5;
      }

      .cls-26 {
        stroke: #cc7645;
        stroke-miterlimit: 10;
        stroke-width: .5px;
      }

      .cls-14 {
        fill: #a85537;
      }

      .cls-28 {
        fill: #fce7d7;
        font-size: 3.29px;
      }

      .cls-28, .cls-27 {
        font-family: Montserrat-Black, Montserrat;
        font-weight: 800;
      }

      .cls-15 {
        fill: #b26b25;
      }

      .cls-16 {
        fill: #e58a30;
      }

      .cls-17 {
        fill: #f18636;
      }

      .cls-18 {
        fill: #cce7f2;
      }

      .cls-19 {
        fill: #002230;
      }

      .cls-20 {
        fill: url(#New_Pattern_3);
        opacity: .6;
      }

      .cls-21 {
        fill: #66b7d9;
      }

      .cls-22 {
        fill: #004460;
      }

      .cls-27 {
        font-size: 3.94px;
      }

      .cls-29 {
        letter-spacing: 0em;
      }
    </style><linearGradient gradientUnits="userSpaceOnUse" y2="-10.7" x2="112.5" y1="71.15" x1="112.5" id="linear-gradient"><stop stop-color="#e29e52" offset="0"/><stop stop-color="#e19b50" offset=".4"/><stop stop-color="#de934a" offset=".61"/><stop stop-color="#d98640" offset=".77"/><stop stop-color="#d27332" offset=".91"/><stop stop-color="#cc6226" offset="1"/></linearGradient><linearGradient xlink:href="#linear-gradient" y2="79.01" y1="-2.84" id="linear-gradient-2"/><pattern viewBox="0 0 225.11 198.05" patternUnits="userSpaceOnUse" patternTransform="translate(1708.3 539.9) scale(.98 1.01)" height="198.05" width="225.11" y="0" x="0" data-name="New Pattern 4" id="New_Pattern_4"><g><rect data-cppathid="10000" height="198.05" width="225.11" y="0" class="cls-8"/><path data-cppathid="10001" d="m275.89,200.05c-5.4-.72-10.89-.98-16.31-1.55-4.81-.51-9.63-.35-14.44-.74-2.87-.23-5.62-1.18-8.49-1.31-.63-.03-1.26-.03-1.88-.02h-2.12c-4.64.08-9.38.02-13.96.94-3.6.72-9.55,2.47-9.83,6.95-.39,6.33,9.21,9.51,13.96,10.39,7.04,1.31,14.38.31,21.45-.25,7.28-.58,14.54-1.3,21.76-2.4,3.47-.52,6.94-1.1,10.33-2.02,2.55-.7,5.7-1.57,7.59-3.54,4.11-4.29-5.59-6.11-8.05-6.44Z" class="cls-26"/><g><path data-cppathid="10002" d="m0,184.3c11.25,0,31.93,4.11,37.05,4.84,9.79,1.41,19.88,1.31,29.74,1.05,8.52-.22,16.83-2.93,25.12-4.61,12.45-2.53,27.61-15.87,59.81-18.53" class="cls-26"/><path data-cppathid="10003" d="m174.64,182.78c-1.09-1.55-3.79-2.11-5.54-2.15-3.22-.07-8.79-1.01-11.74-1.09-1.93-.05-3.89-.16-5.82-.15-3.33.02-6.58.66-9.89.86-5.53.33-10.87.87-16.37,1.5-5.68.64-10.48,1.16-15.29,4.53-1.91,1.34-1.53,2.3-1.68,4.37-.05.71-.51,1.61-.18,2.31.75,1.58,4.24,1.59,5.62,1.74,5.49.58,10.97.43,16.41-.49,7.02-1.19,14.13-1.42,21.17-2.44,4.88-.71,9.46-2.52,14.31-3.33,2.1-.35,4.22-.17,6.07-1.17.79-.43,3.55-1.32,3.75-2.24.04-.18-.68-2.04-.82-2.24Z" class="cls-26"/><path data-cppathid="10004" d="m0,192.24c16.14,0,17.86.98,21.13.82,2.63-.13,5.28-.03,7.91-.06,2.75-.04,5.31.95,8.02,1.05,3.41.13,6.77.64,10.18.79,8.37.38,16.7,1.31,25.06,1.93,8.78.65,17.32,2.92,26.13,3.26,7.35.28,14.76.07,22.13.26,8.05.21,16.33-.42,24.31-1.46,8.69-1.14,17.59-2.18,26.06-4.51,2.6-.72,4.89-2.31,7.42-3.24,1.96-.72,3.97-1.22,5.91-2,4.52-1.82,23.32-4.77,40.84-4.77" class="cls-26"/><path data-cppathid="10005" d="m39.09,216.6c14.09-1.53,46.45-4.94,56.68-6.41,5.54-.79,11.36-2.46,16.92-2.56,6.73-.12,13.44.04,20.17-.24,8.05-.34,15.93.99,23.9-.75,2.05-.45,3.74-1.53,5.78-1.96,2.96-.62,5.98-.07,8.97-.34,2.32-.22,4.61-.8,6.91-1.17,4.28-.69,20.92-10.88,46.69-10.88" class="cls-26"/><path data-cppathid="10006" d="m50.78,200.05c-5.4-.72-10.89-.98-16.31-1.55-4.81-.51-9.63-.35-14.44-.74-2.87-.23-5.62-1.18-8.49-1.31-.63-.03-1.26-.03-1.88-.02h-2.12c-4.64.08-9.38.02-13.96.94-3.6.72-9.55,2.47-9.83,6.95-.39,6.33,9.21,9.51,13.96,10.39,7.04,1.31,14.38.31,21.45-.25,7.28-.58,14.54-1.3,21.76-2.4,3.47-.52,6.94-1.1,10.33-2.02,2.55-.7,5.7-1.57,7.59-3.54,4.11-4.29-5.59-6.11-8.05-6.44Z" class="cls-26"/><path data-cppathid="10007" d="m122.46,188.68c.32.78,1.41,1.3,2.26,1.54.94.26,1.9.09,2.87.12,1.26.04,2.43,0,3.7-.08l.91-.11c5.38-.78,11.04-.8,16.26-2.35.81-.24,3.36-.87,2.1-1.7-2.46-1.61-6.46-1.59-9.36-1.71-3.99-.17-8.31-.18-12.25.71-1.08.25-1.83.72-2.79,1.19-.75.37-1.59.45-2.36.76-.77.31-1.68.83-1.35,1.63Z" class="cls-26"/></g><g><path data-cppathid="10008" d="m112.56,134.79c11.25,0,31.93,4.11,37.05,4.84,9.79,1.41,19.88,1.31,29.75,1.05,8.52-.22,16.83-2.93,25.12-4.61,12.45-2.53,27.61-15.87,59.81-18.53" class="cls-26"/><path data-cppathid="10009" d="m287.19,133.27c-1.09-1.55-3.79-2.11-5.54-2.15-3.22-.07-8.79-1.01-11.74-1.09-1.93-.05-3.89-.16-5.82-.15-3.33.02-6.58.66-9.89.86-5.53.33-10.87.87-16.37,1.5-5.68.64-10.48,1.16-15.29,4.53-1.91,1.34-1.53,2.3-1.68,4.37-.05.71-.51,1.61-.17,2.31.75,1.58,4.24,1.59,5.62,1.74,5.49.58,10.97.43,16.41-.49,7.02-1.19,14.13-1.42,21.17-2.44,4.88-.71,9.46-2.52,14.31-3.33,2.1-.35,4.22-.17,6.07-1.17.79-.43,3.55-1.32,3.75-2.24.04-.18-.68-2.04-.82-2.24Z" class="cls-26"/><path data-cppathid="10010" d="m112.56,142.72c16.14,0,17.86.98,21.13.82,2.63-.13,5.28-.03,7.91-.06,2.75-.04,5.31.95,8.02,1.05,3.41.13,6.77.64,10.18.79,8.37.38,16.7,1.31,25.06,1.93,8.78.65,17.32,2.92,26.13,3.26,7.35.28,14.76.07,22.13.26,8.05.21,16.33-.42,24.31-1.46,8.69-1.14,17.59-2.18,26.06-4.51,2.6-.72,4.89-2.31,7.42-3.24,1.96-.72,3.97-1.22,5.91-2,4.52-1.82,23.32-4.77,40.84-4.77" class="cls-26"/><path data-cppathid="10011" d="m151.65,167.09c14.09-1.53,46.45-4.94,56.68-6.41,5.54-.79,11.36-2.46,16.92-2.56,6.73-.12,13.44.05,20.17-.24,8.05-.34,15.93.99,23.9-.75,2.05-.45,3.74-1.53,5.78-1.96,2.96-.62,5.99-.07,8.97-.34,2.32-.22,4.61-.8,6.91-1.17,4.28-.69,20.92-10.88,46.69-10.88" class="cls-26"/><path data-cppathid="10012" d="m315.36,164.67c-18.1-7.2-37.25-3.75-55.96-2.22-9.73.8-19.48.9-29.23,1.13-6.07.15-16.81.73-21.75,3.13-3.73,1.81-7.01,6.4-1.1,8.38,3.9,1.31,8.24,1.55,12.31,1.87,5.47.43,10.95.64,16.42.95,8.84.5,17.51,1.46,26.16,3.38,9.26,2.06,18.46,3.44,27.98,3.24,6.02-.13,12.06-.72,17.96-1.98,4.54-.97,9.51-2.26,13.31-5.06,7.23-5.32-.69-10.67-6.09-12.82Z" class="cls-26"/><path data-cppathid="10013" d="m163.34,150.54c-5.4-.72-10.89-.98-16.31-1.55-4.81-.51-9.63-.35-14.44-.74-2.87-.23-5.62-1.18-8.49-1.31-.63-.03-1.26-.03-1.88-.02h-2.12c-4.64.08-9.38.02-13.96.94-3.6.72-9.55,2.47-9.83,6.95-.39,6.33,9.21,9.51,13.96,10.39,7.04,1.31,14.38.31,21.45-.25,7.28-.58,14.54-1.3,21.76-2.4,3.47-.52,6.94-1.1,10.33-2.02,2.55-.7,5.7-1.57,7.59-3.54,4.11-4.29-5.59-6.11-8.05-6.44Z" class="cls-26"/><path data-cppathid="10014" d="m145.13,156.23c-.33-1.22-1.67-2.14-2.74-2.61-1.18-.52-2.44-.4-3.68-.59-1.61-.24-3.13-.36-4.77-.41l-1.18.04c-7.01.4-14.3-.36-21.19,1.22-1.07.25-4.43.83-2.9,2.24,2.99,2.75,8.14,3.28,11.86,3.88,5.12.82,10.67,1.44,15.84.66,1.42-.22,2.44-.81,3.72-1.38,1-.44,2.1-.45,3.12-.8,1.03-.36,2.25-1,1.92-2.24Z" class="cls-26"/></g><g><path data-cppathid="10015" d="m-112.56,134.79c11.25,0,31.93,4.11,37.05,4.84,9.79,1.41,19.88,1.31,29.74,1.05,8.52-.22,16.84-2.93,25.12-4.61,12.45-2.53,27.61-15.87,59.81-18.53" class="cls-26"/><path data-cppathid="10016" d="m62.08,133.27c-1.09-1.55-3.79-2.11-5.54-2.15-3.22-.07-8.79-1.01-11.74-1.09-1.93-.05-3.89-.16-5.82-.15-3.33.02-6.58.66-9.89.86-5.53.33-10.87.87-16.37,1.5-5.68.64-10.48,1.16-15.29,4.53-1.91,1.34-1.53,2.3-1.68,4.37-.05.71-.51,1.61-.18,2.31.75,1.58,4.24,1.59,5.62,1.74,5.49.58,10.97.43,16.41-.49,7.02-1.19,14.13-1.42,21.17-2.44,4.88-.71,9.46-2.52,14.31-3.33,2.1-.35,4.22-.17,6.07-1.17.79-.43,3.55-1.32,3.75-2.24.04-.18-.68-2.04-.82-2.24Z" class="cls-26"/><path data-cppathid="10017" d="m-112.56,142.72c16.14,0,17.86.98,21.13.82,2.63-.13,5.28-.03,7.91-.06,2.75-.04,5.31.95,8.02,1.05,3.41.13,6.77.64,10.18.79,8.37.38,16.7,1.31,25.06,1.93,8.78.65,17.32,2.92,26.13,3.26,7.35.28,14.76.07,22.13.26,8.05.21,16.33-.42,24.31-1.46,8.69-1.14,17.59-2.18,26.06-4.51,2.6-.72,4.89-2.31,7.42-3.24,1.96-.72,3.97-1.22,5.91-2,4.52-1.82,23.32-4.77,40.84-4.77" class="cls-26"/><path data-cppathid="10018" d="m-73.46,167.09c14.09-1.53,46.45-4.94,56.68-6.41,5.54-.79,11.36-2.46,16.92-2.56,6.73-.12,13.44.05,20.17-.24,8.05-.34,15.93.99,23.9-.75,2.05-.45,3.74-1.53,5.78-1.96,2.96-.62,5.98-.07,8.97-.34,2.32-.22,4.61-.8,6.91-1.17,4.28-.69,20.92-10.88,46.69-10.88" class="cls-26"/><path data-cppathid="10019" d="m90.25,164.67c-18.1-7.2-37.25-3.75-55.97-2.22-9.73.8-19.48.9-29.23,1.13-6.07.15-16.81.73-21.75,3.13-3.73,1.81-7.01,6.4-1.1,8.38,3.9,1.31,8.24,1.55,12.31,1.87,5.47.43,10.95.64,16.42.95,8.84.5,17.51,1.46,26.16,3.38,9.26,2.06,18.46,3.44,27.98,3.24,6.02-.13,12.06-.72,17.96-1.98,4.54-.97,9.51-2.26,13.31-5.06,7.23-5.32-.69-10.67-6.09-12.82Z" class="cls-26"/><path data-cppathid="10020" d="m85.22,170.17l-1.62-.75c-7.27-1.69-14.55-3.19-22.03-3.5-6.82-.28-13.6.37-20.39.84-6.46.45-12.96.45-19.42,1-1.32.11-4.61.03-5.58,1.2-.92,1.11,1.02,1.91,1.85,2.31,6.21,2.96,13.67,4.07,20.41,5.14,6.09.97,12.22,1.49,18.39,1.61,4.99.1,9.99.11,14.98.03,3.32-.05,6.86-.01,10.06-1,1.77-.55,4.11-1.64,5.02-3.38.84-1.59-.45-2.63-1.66-3.51Z" class="cls-26"/><path data-cppathid="10021" d="m74.63,171.89c-.23-.82-1.25-1.46-2.06-1.79-.9-.37-1.87-.32-2.83-.47-1.24-.19-2.41-.3-3.68-.37h-.92c-5.43.13-11.06-.53-16.42.39-.83.14-3.44.46-2.29,1.43,2.25,1.89,6.22,2.35,9.09,2.82,3.94.65,8.22,1.18,12.24.76,1.11-.12,1.91-.49,2.91-.84.78-.27,1.63-.26,2.43-.47.8-.22,1.77-.62,1.54-1.46Z" class="cls-26"/><path data-cppathid="10022" d="m9.91,139.17c.32.78,1.41,1.3,2.26,1.54.94.26,1.9.09,2.87.12,1.26.04,2.43,0,3.7-.08l.91-.11c5.38-.78,11.04-.8,16.26-2.35.81-.24,3.36-.87,2.1-1.7-2.46-1.61-6.46-1.59-9.36-1.71-3.99-.17-8.31-.18-12.25.71-1.08.25-1.83.72-2.79,1.19-.75.37-1.59.45-2.36.76-.77.31-1.68.83-1.35,1.63Z" class="cls-26"/></g><g><path data-cppathid="10023" d="m275.89,101.03c-5.4-.72-10.89-.98-16.31-1.55-4.81-.51-9.63-.35-14.44-.74-2.87-.23-5.62-1.18-8.49-1.31-.63-.03-1.26-.03-1.88-.02h-2.12c-4.64.08-9.38.02-13.96.94-3.6.72-9.55,2.47-9.83,6.95-.39,6.33,9.21,9.51,13.96,10.39,7.04,1.31,14.38.31,21.45-.25,7.28-.58,14.54-1.3,21.76-2.4,3.47-.52,6.94-1.1,10.33-2.02,2.55-.7,5.7-1.57,7.59-3.54,4.11-4.29-5.59-6.11-8.05-6.44Z" class="cls-26"/><path data-cppathid="10024" d="m257.69,106.72c-.33-1.22-1.67-2.14-2.74-2.61-1.18-.52-2.44-.4-3.68-.59-1.61-.24-3.13-.36-4.77-.41l-1.18.04c-7.01.4-14.3-.36-21.19,1.22-1.07.25-4.43.83-2.9,2.24,2.99,2.75,8.14,3.28,11.86,3.87,5.12.82,10.67,1.44,15.84.66,1.42-.22,2.44-.81,3.72-1.38,1-.44,2.1-.45,3.12-.8,1.03-.36,2.25-1,1.92-2.24Z" class="cls-26"/></g><g><path data-cppathid="10025" d="m0,85.28c11.25,0,31.93,4.11,37.05,4.84,9.79,1.41,19.88,1.31,29.74,1.05,8.52-.22,16.83-2.93,25.12-4.61,12.45-2.53,27.61-15.87,59.81-18.53" class="cls-26"/><path data-cppathid="10026" d="m174.64,83.76c-1.09-1.55-3.79-2.11-5.54-2.15-3.22-.07-8.79-1.01-11.74-1.09-1.93-.05-3.89-.16-5.82-.15-3.33.02-6.58.66-9.89.86-5.53.33-10.87.87-16.37,1.5-5.68.64-10.48,1.16-15.29,4.53-1.91,1.34-1.53,2.3-1.68,4.37-.05.71-.51,1.61-.18,2.31.75,1.58,4.24,1.59,5.62,1.74,5.49.58,10.97.43,16.41-.49,7.02-1.19,14.13-1.42,21.17-2.44,4.88-.71,9.46-2.52,14.31-3.33,2.1-.35,4.22-.17,6.07-1.17.79-.43,3.55-1.32,3.75-2.24.04-.18-.68-2.04-.82-2.24Z" class="cls-26"/><path data-cppathid="10027" d="m0,93.21c16.14,0,17.86.98,21.13.82,2.63-.13,5.28-.03,7.91-.06,2.75-.04,5.31.95,8.02,1.05,3.41.13,6.77.64,10.18.79,8.37.38,16.7,1.31,25.06,1.93,8.78.65,17.32,2.92,26.13,3.26,7.35.28,14.76.07,22.13.26,8.05.21,16.33-.42,24.31-1.46,8.69-1.14,17.59-2.18,26.06-4.51,2.6-.72,4.89-2.31,7.42-3.24,1.96-.72,3.97-1.22,5.91-2,4.52-1.82,23.32-4.77,40.84-4.77" class="cls-26"/><path data-cppathid="10028" d="m39.09,117.57c14.09-1.53,46.45-4.94,56.68-6.41,5.54-.79,11.36-2.45,16.92-2.56,6.73-.12,13.44.04,20.17-.24,8.05-.34,15.93.99,23.9-.75,2.05-.45,3.74-1.53,5.78-1.95,2.96-.62,5.98-.07,8.97-.34,2.32-.22,4.61-.8,6.91-1.17,4.28-.69,20.92-10.88,46.69-10.88" class="cls-26"/><path data-cppathid="10029" d="m202.81,115.15c-18.1-7.2-37.25-3.75-55.97-2.22-9.73.8-19.48.9-29.23,1.13-6.07.15-16.81.73-21.75,3.13-3.73,1.81-7.01,6.4-1.1,8.38,3.9,1.31,8.24,1.55,12.31,1.87,5.47.43,10.95.64,16.42.95,8.84.5,17.51,1.46,26.16,3.38,9.26,2.06,18.46,3.44,27.98,3.24,6.02-.13,12.06-.72,17.96-1.98,4.54-.97,9.51-2.26,13.31-5.06,7.23-5.32-.69-10.67-6.09-12.82Z" class="cls-26"/><path data-cppathid="10030" d="m50.78,101.03c-5.4-.72-10.89-.98-16.31-1.55-4.81-.51-9.63-.35-14.44-.74-2.87-.23-5.62-1.18-8.49-1.31-.63-.03-1.26-.03-1.88-.02h-2.12c-4.64.08-9.38.02-13.96.94-3.6.72-9.55,2.47-9.83,6.95-.39,6.33,9.21,9.51,13.96,10.39,7.04,1.31,14.38.31,21.45-.25,7.28-.58,14.54-1.3,21.76-2.4,3.47-.52,6.94-1.1,10.33-2.02,2.55-.7,5.7-1.57,7.59-3.54,4.11-4.29-5.59-6.11-8.05-6.44Z" class="cls-26"/><path data-cppathid="10031" d="m197.78,120.65l-1.62-.75c-7.27-1.69-14.55-3.19-22.03-3.5-6.82-.28-13.6.37-20.39.84-6.46.45-12.96.45-19.42,1-1.32.11-4.61.03-5.58,1.2-.92,1.11,1.02,1.91,1.85,2.31,6.21,2.96,13.67,4.07,20.41,5.14,6.09.97,12.22,1.49,18.39,1.61,4.99.1,9.99.11,14.98.03,3.32-.05,6.86-.01,10.06-1,1.77-.55,4.11-1.64,5.02-3.38.84-1.59-.45-2.63-1.66-3.51Z" class="cls-26"/><path data-cppathid="10032" d="m187.19,122.37c-.23-.82-1.25-1.46-2.06-1.79-.9-.37-1.87-.32-2.83-.47-1.24-.19-2.42-.3-3.68-.37h-.92c-5.43.13-11.06-.53-16.42.39-.83.14-3.44.46-2.29,1.43,2.25,1.89,6.22,2.35,9.09,2.82,3.94.65,8.22,1.18,12.24.76,1.11-.12,1.91-.49,2.91-.84.78-.27,1.63-.26,2.43-.47.8-.22,1.77-.62,1.54-1.46Z" class="cls-26"/><path data-cppathid="10033" d="m122.46,89.65c.32.78,1.41,1.3,2.26,1.54.94.26,1.9.09,2.87.12,1.26.04,2.43,0,3.7-.08l.91-.11c5.38-.78,11.04-.8,16.26-2.35.81-.24,3.36-.87,2.1-1.7-2.46-1.61-6.46-1.59-9.36-1.71-3.99-.17-8.31-.18-12.25.71-1.08.25-1.83.72-2.79,1.19-.75.37-1.59.45-2.36.76-.77.31-1.68.83-1.35,1.63Z" class="cls-26"/><path data-cppathid="10034" d="m32.58,106.72c-.33-1.22-1.67-2.14-2.74-2.61-1.18-.52-2.44-.4-3.68-.59-1.61-.24-3.13-.36-4.77-.41l-1.18.04c-7.01.4-14.3-.36-21.19,1.22-1.07.25-4.43.83-2.9,2.24,2.99,2.75,8.14,3.28,11.86,3.87,5.12.82,10.67,1.44,15.84.66,1.42-.22,2.44-.81,3.72-1.38,1-.44,2.1-.45,3.12-.8,1.03-.36,2.25-1,1.92-2.24Z" class="cls-26"/></g><g><path data-cppathid="10035" d="m112.56,35.76c11.25,0,31.93,4.11,37.05,4.84,9.79,1.41,19.88,1.31,29.75,1.05,8.52-.22,16.83-2.93,25.12-4.61,12.45-2.53,27.61-15.87,59.81-18.53" class="cls-26"/><path data-cppathid="10036" d="m287.19,34.24c-1.09-1.55-3.79-2.11-5.54-2.15-3.22-.07-8.79-1.01-11.74-1.09-1.93-.05-3.89-.16-5.82-.15-3.33.02-6.58.66-9.89.86-5.53.33-10.87.87-16.37,1.5-5.68.64-10.48,1.16-15.29,4.53-1.91,1.34-1.53,2.3-1.68,4.37-.05.71-.51,1.61-.17,2.31.75,1.58,4.24,1.59,5.62,1.74,5.49.58,10.97.43,16.41-.49,7.02-1.19,14.13-1.42,21.17-2.44,4.88-.71,9.46-2.52,14.31-3.33,2.1-.35,4.22-.17,6.07-1.17.79-.43,3.55-1.32,3.75-2.24.04-.18-.68-2.04-.82-2.24Z" class="cls-26"/><path data-cppathid="10037" d="m112.56,43.7c16.14,0,17.86.98,21.13.82,2.63-.13,5.28-.03,7.91-.06,2.75-.04,5.31.95,8.02,1.05,3.41.13,6.77.64,10.18.79,8.37.38,16.7,1.31,25.06,1.93,8.78.65,17.32,2.92,26.13,3.26,7.35.28,14.76.07,22.13.26,8.05.21,16.33-.42,24.31-1.46,8.69-1.14,17.59-2.18,26.06-4.51,2.6-.72,4.89-2.31,7.42-3.24,1.96-.72,3.97-1.22,5.91-2,4.52-1.82,23.32-4.77,40.84-4.77" class="cls-26"/><path data-cppathid="10038" d="m151.65,68.06c14.09-1.53,46.45-4.94,56.68-6.41,5.54-.79,11.36-2.46,16.92-2.56,6.73-.12,13.44.04,20.17-.24,8.05-.34,15.93.99,23.9-.75,2.05-.45,3.74-1.53,5.78-1.96,2.96-.62,5.99-.07,8.97-.34,2.32-.22,4.61-.8,6.91-1.17,4.28-.69,20.92-10.88,46.69-10.88" class="cls-26"/><path data-cppathid="10039" d="m315.36,65.64c-18.1-7.2-37.25-3.75-55.96-2.22-9.73.8-19.48.9-29.23,1.13-6.07.15-16.81.73-21.75,3.13-3.73,1.81-7.01,6.4-1.1,8.38,3.9,1.31,8.24,1.55,12.31,1.87,5.47.43,10.95.64,16.42.95,8.84.5,17.51,1.46,26.16,3.38,9.26,2.06,18.46,3.44,27.98,3.24,6.02-.13,12.06-.72,17.96-1.98,4.54-.97,9.51-2.26,13.31-5.06,7.23-5.32-.69-10.67-6.09-12.82Z" class="cls-26"/><path data-cppathid="10040" d="m163.34,51.51c-5.4-.72-10.89-.98-16.31-1.55-4.81-.51-9.63-.35-14.44-.74-2.87-.23-5.62-1.18-8.49-1.31-.63-.03-1.26-.03-1.88-.02h-2.12c-4.64.08-9.38.02-13.96.94-3.6.72-9.55,2.47-9.83,6.95-.39,6.33,9.21,9.51,13.96,10.39,7.04,1.31,14.38.31,21.45-.25,7.28-.58,14.54-1.3,21.76-2.4,3.47-.52,6.94-1.1,10.33-2.02,2.55-.7,5.7-1.57,7.59-3.54,4.11-4.29-5.59-6.11-8.05-6.44Z" class="cls-26"/><path data-cppathid="10041" d="m145.13,57.2c-.33-1.22-1.67-2.14-2.74-2.61-1.18-.52-2.44-.4-3.68-.59-1.61-.24-3.13-.36-4.77-.41l-1.18.04c-7.01.4-14.3-.36-21.19,1.22-1.07.25-4.43.83-2.9,2.24,2.99,2.75,8.14,3.28,11.86,3.87,5.12.82,10.67,1.44,15.84.66,1.42-.22,2.44-.81,3.72-1.38,1-.44,2.1-.45,3.12-.8,1.03-.36,2.25-1,1.92-2.24Z" class="cls-26"/></g><g><path data-cppathid="10042" d="m-112.56,35.76c11.25,0,31.93,4.11,37.05,4.84,9.79,1.41,19.88,1.31,29.74,1.05,8.52-.22,16.84-2.93,25.12-4.61,12.45-2.53,27.61-15.87,59.81-18.53" class="cls-26"/><path data-cppathid="10043" d="m62.08,34.24c-1.09-1.55-3.79-2.11-5.54-2.15-3.22-.07-8.79-1.01-11.74-1.09-1.93-.05-3.89-.16-5.82-.15-3.33.02-6.58.66-9.89.86-5.53.33-10.87.87-16.37,1.5-5.68.64-10.48,1.16-15.29,4.53-1.91,1.34-1.53,2.3-1.68,4.37-.05.71-.51,1.61-.18,2.31.75,1.58,4.24,1.59,5.62,1.74,5.49.58,10.97.43,16.41-.49,7.02-1.19,14.13-1.42,21.17-2.44,4.88-.71,9.46-2.52,14.31-3.33,2.1-.35,4.22-.17,6.07-1.17.79-.43,3.55-1.32,3.75-2.24.04-.18-.68-2.04-.82-2.24Z" class="cls-26"/><path data-cppathid="10044" d="m-112.56,43.7c16.14,0,17.86.98,21.13.82,2.63-.13,5.28-.03,7.91-.06,2.75-.04,5.31.95,8.02,1.05,3.41.13,6.77.64,10.18.79,8.37.38,16.7,1.31,25.06,1.93,8.78.65,17.32,2.92,26.13,3.26,7.35.28,14.76.07,22.13.26,8.05.21,16.33-.42,24.31-1.46,8.69-1.14,17.59-2.18,26.06-4.51,2.6-.72,4.89-2.31,7.42-3.24,1.96-.72,3.97-1.22,5.91-2,4.52-1.82,23.32-4.77,40.84-4.77" class="cls-26"/><path data-cppathid="10045" d="m-73.46,68.06c14.09-1.53,46.45-4.94,56.68-6.41,5.54-.79,11.36-2.46,16.92-2.56,6.73-.12,13.44.04,20.17-.24,8.05-.34,15.93.99,23.9-.75,2.05-.45,3.74-1.53,5.78-1.96,2.96-.62,5.98-.07,8.97-.34,2.32-.22,4.61-.8,6.91-1.17,4.28-.69,20.92-10.88,46.69-10.88" class="cls-26"/><path data-cppathid="10046" d="m90.25,65.64c-18.1-7.2-37.25-3.75-55.97-2.22-9.73.8-19.48.9-29.23,1.13-6.07.15-16.81.73-21.75,3.13-3.73,1.81-7.01,6.4-1.1,8.38,3.9,1.31,8.24,1.55,12.31,1.87,5.47.43,10.95.64,16.42.95,8.84.5,17.51,1.46,26.16,3.38,9.26,2.06,18.46,3.44,27.98,3.24,6.02-.13,12.06-.72,17.96-1.98,4.54-.97,9.51-2.26,13.31-5.06,7.23-5.32-.69-10.67-6.09-12.82Z" class="cls-26"/><path data-cppathid="10047" d="m85.22,71.14l-1.62-.75c-7.27-1.69-14.55-3.19-22.03-3.5-6.82-.28-13.6.37-20.39.84-6.46.45-12.96.45-19.42,1-1.32.11-4.61.03-5.58,1.2-.92,1.11,1.02,1.91,1.85,2.31,6.21,2.96,13.67,4.07,20.41,5.14,6.09.97,12.22,1.49,18.39,1.61,4.99.1,9.99.11,14.98.03,3.32-.05,6.86-.01,10.06-1,1.77-.55,4.11-1.64,5.02-3.38.84-1.59-.45-2.63-1.66-3.51Z" class="cls-26"/><path data-cppathid="10048" d="m74.63,72.86c-.23-.82-1.25-1.46-2.06-1.79-.9-.37-1.87-.32-2.83-.47-1.24-.19-2.41-.3-3.68-.37h-.92c-5.43.13-11.06-.53-16.42.39-.83.14-3.44.46-2.29,1.43,2.25,1.89,6.22,2.35,9.09,2.82,3.94.65,8.22,1.18,12.24.76,1.11-.12,1.91-.49,2.91-.84.78-.27,1.63-.26,2.43-.47.8-.22,1.77-.62,1.54-1.45Z" class="cls-26"/><path data-cppathid="10049" d="m9.91,40.14c.32.78,1.41,1.3,2.26,1.54.94.26,1.9.09,2.87.12,1.26.04,2.43,0,3.7-.08l.91-.11c5.38-.78,11.04-.8,16.26-2.35.81-.24,3.36-.87,2.1-1.7-2.46-1.61-6.46-1.59-9.36-1.71-3.99-.17-8.31-.18-12.25.71-1.08.25-1.83.72-2.79,1.19-.75.37-1.59.45-2.36.76-.77.31-1.68.83-1.35,1.63Z" class="cls-26"/></g><g><path data-cppathid="10050" d="m275.89,2c-5.4-.72-10.89-.98-16.31-1.55-4.81-.51-9.63-.35-14.44-.74-2.87-.23-5.62-1.18-8.49-1.31-.63-.03-1.26-.03-1.88-.02h-2.12c-4.64.08-9.38.02-13.96.94-3.6.72-9.55,2.47-9.83,6.95-.39,6.33,9.21,9.51,13.96,10.39,7.04,1.31,14.38.31,21.45-.25,7.28-.58,14.54-1.3,21.76-2.4,3.47-.52,6.94-1.1,10.33-2.02,2.55-.7,5.7-1.57,7.59-3.54,4.11-4.29-5.59-6.11-8.05-6.44Z" class="cls-26"/><path data-cppathid="10051" d="m257.69,7.69c-.33-1.22-1.67-2.14-2.74-2.61-1.18-.52-2.44-.4-3.68-.59-1.61-.24-3.13-.36-4.77-.41l-1.18.04c-7.01.4-14.3-.36-21.19,1.22-1.07.25-4.43.83-2.9,2.24,2.99,2.75,8.14,3.28,11.86,3.87,5.12.82,10.67,1.44,15.84.66,1.42-.22,2.44-.81,3.72-1.38,1-.44,2.1-.45,3.12-.8,1.03-.36,2.25-1,1.92-2.24Z" class="cls-26"/></g><g><path data-cppathid="10052" d="m0-5.82c16.14,0,17.86.98,21.13.82,2.63-.13,5.28-.03,7.91-.06,2.75-.04,5.31.95,8.02,1.05,3.41.13,6.77.64,10.18.79,8.37.38,16.7,1.31,25.06,1.93,8.78.65,17.32,2.92,26.13,3.26,7.35.28,14.76.07,22.13.26,8.05.21,16.33-.42,24.31-1.46,8.69-1.14,17.59-2.18,26.06-4.51,2.6-.72,4.89-2.31,7.42-3.24,1.96-.72,3.97-1.22,5.91-2,4.52-1.82,23.32-4.77,40.84-4.77" class="cls-26"/><path data-cppathid="10053" d="m39.09,18.55c14.09-1.53,46.45-4.94,56.68-6.41,5.54-.79,11.36-2.46,16.92-2.56,6.73-.12,13.44.04,20.17-.24,8.05-.34,15.93.99,23.9-.75,2.05-.45,3.74-1.53,5.78-1.96,2.96-.62,5.98-.07,8.97-.34,2.32-.22,4.61-.8,6.91-1.17,4.28-.69,20.92-10.88,46.69-10.88" class="cls-26"/><path data-cppathid="10054" d="m202.81,16.12c-18.1-7.2-37.25-3.75-55.97-2.22-9.73.8-19.48.9-29.23,1.13-6.07.15-16.81.73-21.75,3.13-3.73,1.81-7.01,6.4-1.1,8.38,3.9,1.31,8.24,1.55,12.31,1.87,5.47.43,10.95.64,16.42.95,8.84.5,17.51,1.46,26.16,3.38,9.26,2.06,18.46,3.44,27.98,3.24,6.02-.13,12.06-.72,17.96-1.98,4.54-.97,9.51-2.26,13.31-5.06,7.23-5.32-.69-10.67-6.09-12.82Z" class="cls-26"/><path data-cppathid="10055" d="m50.78,2c-5.4-.72-10.89-.98-16.31-1.55C29.66-.07,24.84.1,20.03-.29c-2.87-.23-5.62-1.18-8.49-1.31-.63-.03-1.26-.03-1.88-.02h-2.12c-4.64.08-9.38.02-13.96.94C-10.03.03-15.98,1.78-16.26,6.26c-.39,6.33,9.21,9.51,13.96,10.39,7.04,1.31,14.38.31,21.45-.25,7.28-.58,14.54-1.3,21.76-2.4,3.47-.52,6.94-1.1,10.33-2.02,2.55-.7,5.7-1.57,7.59-3.54,4.11-4.29-5.59-6.11-8.05-6.44Z" class="cls-26"/><path data-cppathid="10056" d="m197.78,21.62l-1.62-.75c-7.27-1.69-14.55-3.19-22.03-3.5-6.82-.28-13.6.37-20.39.84-6.46.45-12.96.45-19.42,1-1.32.11-4.61.03-5.58,1.2-.92,1.11,1.02,1.91,1.85,2.31,6.21,2.96,13.67,4.07,20.41,5.14,6.09.97,12.22,1.49,18.39,1.61,4.99.1,9.99.11,14.98.03,3.32-.05,6.86-.01,10.06-1,1.77-.55,4.11-1.64,5.02-3.38.84-1.59-.45-2.63-1.66-3.51Z" class="cls-26"/><path data-cppathid="10057" d="m187.19,23.35c-.23-.82-1.25-1.46-2.06-1.79-.9-.37-1.87-.32-2.83-.47-1.24-.19-2.42-.3-3.68-.37h-.92c-5.43.13-11.06-.53-16.42.39-.83.14-3.44.46-2.29,1.43,2.25,1.89,6.22,2.35,9.09,2.82,3.94.65,8.22,1.18,12.24.76,1.11-.12,1.91-.49,2.91-.84.78-.27,1.63-.26,2.43-.47.8-.22,1.77-.62,1.54-1.46Z" class="cls-26"/><path data-cppathid="10058" d="m32.58,7.69c-.33-1.22-1.67-2.14-2.74-2.61-1.18-.52-2.44-.4-3.68-.59-1.61-.24-3.13-.36-4.77-.41l-1.18.04c-7.01.4-14.3-.36-21.19,1.22-1.07.25-4.43.83-2.9,2.24,2.99,2.75,8.14,3.28,11.86,3.87,5.12.82,10.67,1.44,15.84.66,1.42-.22,2.44-.81,3.72-1.38,1-.44,2.1-.45,3.12-.8,1.03-.36,2.25-1,1.92-2.24Z" class="cls-26"/></g></g></pattern><pattern viewBox="0 0 1475.87 988.89" patternUnits="userSpaceOnUse" patternTransform="translate(-4853.29 -5242.02) scale(.33 .34)" height="988.89" width="1475.87" y="0" x="0" data-name="New Pattern 3" id="New_Pattern_3"><g><rect data-cppathid="10059" height="988.89" width="1475.87" y="0" x="0" class="cls-8"/><g><g><path data-cppathid="10060" d="m1353.23,674.35s-65.87-6.68-80.5-6.07c-14.64.62-28.63,4.96-40.26,6.12-11.64,1.17-56.17,4.25-56.17,4.25,0,0,50.68.2,56.32-.06,5.64-.26,26.23-3.29,30.37-3.83,4.14-.54,11.39-2.02,15.05-2.09,3.65-.07,64.28,3.39,75.2,1.67Z" class="cls-5"/><path data-cppathid="10061" d="m1353.23,674.35s-65.69-8.07-80.33-7.45c-14.64.62-28.63,4.96-40.26,6.12-11.64,1.17-56.34,5.63-56.34,5.63,0,0,50.85-1.18,56.5-1.45,5.64-.26,26.23-3.29,30.37-3.83,4.14-.54,11.39-2.02,15.05-2.09,3.65-.07,64.1,4.78,75.02,3.06Z" class="cls-4"/><path data-cppathid="10062" d="m1275.37,669.6c-14.63.62-28.63,4.96-40.26,6.12-11.63,1.17-58.81,2.94-58.81,2.94,0,0,44.7-4.47,56.34-5.63,11.63-1.17,25.63-5.51,40.26-6.12,14.64-.62,80.33,7.45,80.33,7.45,0,0-63.22-5.37-77.86-4.75Z" class="cls-14"/></g><g><path data-cppathid="10063" d="m1589.95,561.04s-62.07-6.41-75.87-5.73c-13.8.68-27.01,5.07-37.98,6.29-10.97,1.21-52.97,4.48-52.97,4.48,0,0,47.77,0,53.09-.29,5.32-.29,24.74-3.4,28.65-3.95,3.91-.55,10.75-2.07,14.2-2.15,3.44-.09,60.59,3.13,70.88,1.36Z" class="cls-5"/><path data-cppathid="10064" d="m1589.95,561.04s-61.9-7.8-75.7-7.12c-13.8.68-27.01,5.08-37.98,6.29-10.98,1.22-53.14,5.87-53.14,5.87,0,0,47.94-1.39,53.27-1.68,5.32-.29,24.74-3.4,28.65-3.95,3.91-.56,10.75-2.07,14.2-2.15,3.44-.09,60.41,4.52,70.71,2.75Z" class="cls-4"/><path data-cppathid="10065" d="m1516.58,556.61c-13.8.68-27.01,5.07-37.99,6.29-10.97,1.22-55.46,3.18-55.46,3.18,0,0,42.16-4.65,53.14-5.87,10.97-1.21,24.18-5.61,37.98-6.29,13.8-.68,75.7,7.12,75.7,7.12,0,0-59.58-5.11-73.38-4.43Z" class="cls-14"/></g><g><path data-cppathid="10066" d="m1421.13,980.04s-34.71-25.32-47.32-31.48c8.33,8.88,35.69,29.74,44.56,36.24,8.87,6.5,32.13,16.56,32.13,16.56,0,0-23.61-17.51-29.37-21.32Z" class="cls-5"/><path data-cppathid="10067" d="m1422.03,978.48s-35.62-23.76-48.23-29.92c8.33,8.88,36.59,28.18,45.47,34.68,8.88,6.5,31.22,18.12,31.22,18.12,0,0-22.71-19.07-28.46-22.88Z" class="cls-4"/><path data-cppathid="10068" d="m1373.8,948.56s24.58,18.08,35.32,24.81c10.74,6.74,19.52,13.18,22.84,15.11,3.32,1.93,18.54,12.88,18.54,12.88,0,0-22.71-19.07-28.46-22.88,0,0-35.62-23.76-48.23-29.92Z" class="cls-14"/></g><g><path data-cppathid="10069" d="m1212.43,823.76s-24.92,38.17-29.77,52.22c9.88-9.01,30.77-39.04,37.18-48.79,6.41-9.76,13.53-35.73,13.53-35.73,0,0-17.36,25.95-20.95,32.31Z" class="cls-5"/><path data-cppathid="10070" d="m1210,822.64s-22.49,39.3-27.33,53.34c9.88-9.01,28.34-40.16,34.75-49.92,6.41-9.76,15.96-34.61,15.96-34.61,0,0-19.8,24.83-23.38,31.19Z" class="cls-4"/><path data-cppathid="10071" d="m1182.66,875.98s17.86-27.03,24.04-38.9c6.19-11.87,12.55-21.53,14.25-25.2,1.69-3.67,12.42-20.43,12.42-20.43,0,0-19.8,24.83-23.38,31.19,0,0-22.49,39.3-27.33,53.34Z" class="cls-14"/></g></g><g><g><path data-cppathid="10072" d="m742.59,1014.86s51.21-41.96,63.75-49.53c12.54-7.57,26.6-11.68,36.95-17.14,10.34-5.45,49.17-27.48,49.17-27.48,0,0-42.13,28.16-46.98,31.06-4.85,2.9-23.68,11.74-27.43,13.58-3.75,1.84-10.61,4.61-13.7,6.57-3.08,1.96-51.71,38.34-61.76,42.93Z" class="cls-5"/><path data-cppathid="10073" d="m742.59,1014.86s50.3-43.02,62.84-50.59c12.54-7.57,26.6-11.68,36.95-17.13,10.34-5.46,50.08-26.43,50.08-26.43,0,0-43.05,27.1-47.9,30-4.85,2.9-23.68,11.74-27.43,13.58-3.75,1.84-10.61,4.61-13.7,6.57-3.08,1.96-50.79,39.4-60.84,43.99Z" class="cls-4"/><path data-cppathid="10074" d="m804.86,967.89c12.54-7.57,26.6-11.68,36.95-17.13,10.34-5.46,50.65-30.04,50.65-30.04,0,0-39.74,20.97-50.08,26.43-10.34,5.45-24.4,9.57-36.95,17.13-12.54,7.57-62.84,50.59-62.84,50.59,0,0,49.73-39.4,62.27-46.97Z" class="cls-14"/></g><g><path data-cppathid="10075" d="m615.29,921.57s-65.87-6.68-80.5-6.07c-14.64.62-28.63,4.96-40.26,6.12-11.64,1.17-56.17,4.25-56.17,4.25,0,0,50.68.2,56.32-.06,5.64-.26,26.23-3.29,30.37-3.83,4.14-.54,11.39-2.02,15.05-2.09,3.65-.07,64.28,3.39,75.2,1.67Z" class="cls-5"/><path data-cppathid="10076" d="m615.29,921.57s-65.69-8.07-80.33-7.45c-14.64.62-28.63,4.96-40.26,6.12-11.64,1.17-56.34,5.63-56.34,5.63,0,0,50.85-1.18,56.5-1.45,5.64-.26,26.23-3.29,30.37-3.83,4.14-.54,11.39-2.02,15.05-2.09,3.65-.07,64.1,4.78,75.02,3.06Z" class="cls-4"/><path data-cppathid="10077" d="m537.43,916.82c-14.63.62-28.63,4.96-40.26,6.12-11.63,1.17-58.81,2.94-58.81,2.94,0,0,44.7-4.47,56.34-5.63,11.63-1.17,25.63-5.51,40.26-6.12,14.64-.62,80.33,7.45,80.33,7.45,0,0-63.22-5.37-77.86-4.75Z" class="cls-14"/></g><g><path data-cppathid="10078" d="m852.02,808.26s-62.07-6.41-75.87-5.73c-13.8.68-27.01,5.07-37.98,6.29-10.97,1.21-52.97,4.48-52.97,4.48,0,0,47.78,0,53.1-.29,5.32-.29,24.74-3.4,28.65-3.95,3.91-.55,10.75-2.07,14.2-2.15,3.44-.09,60.59,3.13,70.88,1.36Z" class="cls-5"/><path data-cppathid="10079" d="m852.02,808.26s-61.9-7.8-75.7-7.12c-13.8.68-27.01,5.08-37.98,6.29-10.98,1.22-53.14,5.87-53.14,5.87,0,0,47.95-1.39,53.27-1.68,5.32-.29,24.74-3.4,28.65-3.95,3.91-.56,10.75-2.07,14.2-2.15,3.44-.09,60.41,4.52,70.71,2.75Z" class="cls-4"/><path data-cppathid="10080" d="m778.64,803.83c-13.8.68-27.01,5.07-37.99,6.29-10.97,1.22-55.46,3.18-55.46,3.18,0,0,42.16-4.65,53.14-5.87,10.97-1.21,24.18-5.61,37.98-6.29,13.8-.68,75.7,7.12,75.7,7.12,0,0-59.58-5.11-73.38-4.43Z" class="cls-14"/></g><g><path data-cppathid="10081" d="m1050.57,870.36s-34.71-25.32-47.32-31.48c8.33,8.88,35.69,29.74,44.56,36.24,8.87,6.5,32.13,16.56,32.13,16.56,0,0-23.61-17.51-29.37-21.32Z" class="cls-5"/><path data-cppathid="10082" d="m1051.48,868.8s-35.62-23.76-48.23-29.92c8.33,8.88,36.59,28.18,45.47,34.68,8.88,6.5,31.22,18.12,31.22,18.12,0,0-22.71-19.07-28.46-22.88Z" class="cls-4"/><path data-cppathid="10083" d="m1003.25,838.88s24.58,18.08,35.32,24.81c10.74,6.74,19.52,13.18,22.84,15.11,3.32,1.93,18.54,12.88,18.54,12.88,0,0-22.71-19.07-28.46-22.88,0,0-35.62-23.76-48.23-29.92Z" class="cls-14"/></g></g><g><g><path data-cppathid="10084" d="m95.96,898.86s66.18-1.94,80.73-.27c14.55,1.67,28.2,7,39.72,9s55.72,8.27,55.72,8.27c0,0-50.56-3.44-56.17-4.1-5.61-.67-25.92-5.17-30.02-6-4.09-.83-11.22-2.83-14.86-3.17-3.64-.33-64.36-1.23-75.12-3.73Z" class="cls-5"/><path data-cppathid="10085" d="m95.96,898.86s66.1-3.33,80.66-1.67c14.55,1.67,28.2,7,39.72,9,11.52,2,55.79,9.67,55.79,9.67,0,0-50.64-4.83-56.25-5.5-5.61-.67-25.92-5.17-30.02-6-4.09-.83-11.22-2.83-14.86-3.17-3.64-.33-64.28.17-75.04-2.33Z" class="cls-4"/><path data-cppathid="10086" d="m173.95,899.71c14.55,1.67,28.2,7,39.72,9s58.45,7.15,58.45,7.15c0,0-44.27-7.67-55.79-9.67-11.52-2-25.17-7.33-39.72-9-14.55-1.67-80.66,1.67-80.66,1.67,0,0,63.44-.82,77.99.85Z" class="cls-14"/></g><g><path data-cppathid="10087" d="m4.66,767.63s51.21-41.96,63.75-49.53c12.54-7.57,26.6-11.68,36.95-17.14,10.34-5.45,49.17-27.48,49.17-27.48,0,0-42.13,28.16-46.98,31.06-4.85,2.9-23.68,11.74-27.43,13.58-3.75,1.84-10.61,4.61-13.7,6.57-3.08,1.96-51.71,38.34-61.76,42.93Z" class="cls-5"/><path data-cppathid="10088" d="m4.66,767.63s50.3-43.02,62.84-50.59c12.54-7.57,26.6-11.68,36.95-17.13,10.34-5.46,50.08-26.43,50.08-26.43,0,0-43.05,27.1-47.9,30-4.85,2.9-23.68,11.74-27.43,13.58-3.75,1.84-10.61,4.61-13.7,6.57-3.08,1.96-50.79,39.4-60.84,43.99Z" class="cls-4"/><path data-cppathid="10089" d="m66.93,720.67c12.54-7.57,26.6-11.68,36.95-17.13,10.34-5.46,50.65-30.04,50.65-30.04,0,0-39.74,20.97-50.08,26.43-10.34,5.45-24.4,9.57-36.95,17.13-12.54,7.57-62.84,50.59-62.84,50.59,0,0,49.73-39.4,62.27-46.97Z" class="cls-14"/></g><g><path data-cppathid="10090" d="m114.08,561.04s-62.07-6.41-75.87-5.73c-13.8.68-27.01,5.07-37.98,6.29-10.97,1.21-52.97,4.48-52.97,4.48,0,0,47.77,0,53.1-.29,5.32-.29,24.74-3.4,28.65-3.95,3.91-.55,10.75-2.07,14.2-2.15,3.44-.09,60.59,3.13,70.88,1.36Z" class="cls-5"/><path data-cppathid="10091" d="m114.08,561.04s-61.9-7.8-75.7-7.12c-13.8.68-27.01,5.08-37.98,6.29-10.98,1.22-53.14,5.87-53.14,5.87,0,0,47.94-1.39,53.27-1.68,5.32-.29,24.74-3.4,28.65-3.95,3.91-.56,10.75-2.07,14.2-2.15,3.44-.09,60.41,4.52,70.71,2.75Z" class="cls-4"/><path data-cppathid="10092" d="m40.7,556.61c-13.8.68-27.01,5.07-37.99,6.29-10.97,1.22-55.46,3.18-55.46,3.18,0,0,42.16-4.65,53.14-5.87,10.97-1.21,24.18-5.61,37.98-6.29,13.8-.68,75.7,7.12,75.7,7.12,0,0-59.58-5.11-73.38-4.43Z" class="cls-14"/></g><g><path data-cppathid="10093" d="m312.64,623.13s-34.71-25.32-47.32-31.48c8.33,8.88,35.69,29.74,44.56,36.24,8.87,6.5,32.13,16.56,32.13,16.56,0,0-23.61-17.51-29.37-21.32Z" class="cls-5"/><path data-cppathid="10094" d="m313.54,621.58s-35.62-23.76-48.23-29.92c8.33,8.88,36.59,28.18,45.47,34.68,8.87,6.5,31.22,18.12,31.22,18.12,0,0-22.71-19.07-28.46-22.88Z" class="cls-4"/><path data-cppathid="10095" d="m265.31,591.66s24.58,18.08,35.32,24.81c10.74,6.74,19.52,13.18,22.84,15.11,3.32,1.93,18.54,12.88,18.54,12.88,0,0-22.71-19.07-28.46-22.88,0,0-35.62-23.76-48.23-29.92Z" class="cls-14"/></g><g><path data-cppathid="10096" d="m350.61,781.77s-35.66,4.47-47.34,3.47c9.74-3.5,38.21-7.8,47.34-8.97,9.13-1.17,30.13,1.8,30.13,1.8,0,0-24.38,3.29-30.13,3.7Z" class="cls-5"/><path data-cppathid="10097" d="m350.61,783.58s-35.66,2.67-47.34,1.67c9.74-3.5,38.21-6,47.34-7.17,9.13-1.17,30.13,0,30.13,0,0,0-24.38,5.1-30.13,5.5Z" class="cls-4"/><path data-cppathid="10098" d="m303.27,785.24s25.31-3.29,35.88-3.73c10.57-.44,19.61-1.6,22.81-1.6s18.78-1.83,18.78-1.83c0,0-24.38,5.1-30.13,5.5,0,0-35.66,2.67-47.34,1.67Z" class="cls-14"/></g></g><g><g><path data-cppathid="10099" d="m1353.23,179.91s-65.87-6.68-80.5-6.07c-14.64.62-28.63,4.96-40.26,6.12-11.64,1.17-56.17,4.25-56.17,4.25,0,0,50.68.2,56.32-.06,5.64-.26,26.23-3.29,30.37-3.83,4.14-.54,11.39-2.02,15.05-2.09,3.65-.07,64.28,3.39,75.2,1.67Z" class="cls-5"/><path data-cppathid="10100" d="m1353.23,179.91s-65.69-8.07-80.33-7.45c-14.64.62-28.63,4.96-40.26,6.12-11.64,1.17-56.34,5.63-56.34,5.63,0,0,50.85-1.18,56.5-1.45,5.64-.26,26.23-3.29,30.37-3.83,4.14-.54,11.39-2.02,15.05-2.09,3.65-.07,64.1,4.78,75.02,3.06Z" class="cls-4"/><path data-cppathid="10101" d="m1275.37,175.15c-14.63.62-28.63,4.96-40.26,6.12-11.63,1.17-58.81,2.94-58.81,2.94,0,0,44.7-4.47,56.34-5.63,11.63-1.17,25.63-5.51,40.26-6.12,14.64-.62,80.33,7.45,80.33,7.45,0,0-63.22-5.37-77.86-4.75Z" class="cls-14"/></g><g><path data-cppathid="10102" d="m1589.95,66.6s-62.07-6.41-75.87-5.73c-13.8.68-27.01,5.07-37.98,6.29-10.97,1.21-52.97,4.48-52.97,4.48,0,0,47.77,0,53.09-.29,5.32-.29,24.74-3.4,28.65-3.95,3.91-.55,10.75-2.07,14.2-2.15,3.44-.09,60.59,3.13,70.88,1.36Z" class="cls-5"/><path data-cppathid="10103" d="m1589.95,66.6s-61.9-7.8-75.7-7.12c-13.8.68-27.01,5.08-37.98,6.29-10.98,1.22-53.14,5.87-53.14,5.87,0,0,47.94-1.39,53.27-1.68,5.32-.29,24.74-3.4,28.65-3.95,3.91-.56,10.75-2.07,14.2-2.15,3.44-.09,60.41,4.52,70.71,2.75Z" class="cls-4"/><path data-cppathid="10104" d="m1516.58,62.17c-13.8.68-27.01,5.07-37.99,6.29-10.97,1.22-55.46,3.18-55.46,3.18,0,0,42.16-4.65,53.14-5.87,10.97-1.21,24.18-5.61,37.98-6.29,13.8-.68,75.7,7.12,75.7,7.12,0,0-59.58-5.11-73.38-4.43Z" class="cls-14"/></g><g><path data-cppathid="10105" d="m1421.13,485.6s-34.71-25.32-47.32-31.48c8.33,8.88,35.69,29.74,44.56,36.24,8.87,6.5,32.13,16.56,32.13,16.56,0,0-23.61-17.51-29.37-21.32Z" class="cls-5"/><path data-cppathid="10106" d="m1422.03,484.04s-35.62-23.76-48.23-29.92c8.33,8.88,36.59,28.18,45.47,34.68,8.88,6.5,31.22,18.12,31.22,18.12,0,0-22.71-19.07-28.46-22.88Z" class="cls-4"/><path data-cppathid="10107" d="m1373.8,454.12s24.58,18.08,35.32,24.81c10.74,6.74,19.52,13.18,22.84,15.11,3.32,1.93,18.54,12.88,18.54,12.88,0,0-22.71-19.07-28.46-22.88,0,0-35.62-23.76-48.23-29.92Z" class="cls-14"/></g><g><path data-cppathid="10108" d="m1235,521.4s-20.1-6.97-26.98-6.81c5.21,4.17,21.17,10.46,26.31,12.27,5.14,1.8,17.66.35,17.66.35,0,0-13.71-5-16.99-5.81Z" class="cls-5"/><path data-cppathid="10109" d="m1235.22,519.61s-20.32-5.18-27.2-5.02c5.21,4.17,21.39,8.67,26.53,10.48,5.14,1.8,17.44,2.14,17.44,2.14,0,0-13.49-6.79-16.77-7.6Z" class="cls-4"/><path data-cppathid="10110" d="m1208.02,514.59s14.25,5.07,20.32,6.25c6.07,1.19,11.16,2.98,13.01,3.21,1.85.23,10.65,3.15,10.65,3.15,0,0-13.49-6.79-16.77-7.6,0,0-20.32-5.18-27.2-5.02Z" class="cls-14"/></g><g><path data-cppathid="10111" d="m1212.43,329.32s-24.92,38.17-29.77,52.22c9.88-9.01,30.77-39.04,37.18-48.79,6.41-9.76,13.53-35.73,13.53-35.73,0,0-17.36,25.95-20.95,32.31Z" class="cls-5"/><path data-cppathid="10112" d="m1210,328.2s-22.49,39.3-27.33,53.34c9.88-9.01,28.34-40.16,34.75-49.92,6.41-9.76,15.96-34.61,15.96-34.61,0,0-19.8,24.83-23.38,31.19Z" class="cls-4"/><path data-cppathid="10113" d="m1182.66,381.54s17.86-27.03,24.04-38.9c6.19-11.87,12.55-21.53,14.25-25.21,1.69-3.67,12.42-20.43,12.42-20.43,0,0-19.8,24.83-23.38,31.19,0,0-22.49,39.3-27.33,53.34Z" class="cls-14"/></g></g><g><g><path data-cppathid="10114" d="m833.89,651.64s66.18-1.94,80.73-.27c14.55,1.67,28.2,7,39.72,9,11.52,2,55.72,8.27,55.72,8.27,0,0-50.56-3.44-56.17-4.1-5.61-.67-25.92-5.17-30.02-6-4.09-.83-11.22-2.83-14.86-3.17-3.64-.33-64.36-1.23-75.12-3.73Z" class="cls-5"/><path data-cppathid="10115" d="m833.89,651.64s66.1-3.33,80.66-1.67c14.55,1.67,28.2,7,39.72,9,11.52,2,55.79,9.67,55.79,9.67,0,0-50.64-4.83-56.25-5.5-5.61-.67-25.92-5.17-30.02-6-4.09-.83-11.22-2.83-14.86-3.17-3.64-.33-64.28.17-75.04-2.33Z" class="cls-4"/><path data-cppathid="10116" d="m911.89,652.49c14.55,1.67,28.2,7,39.72,9,11.52,2,58.45,7.15,58.45,7.15,0,0-44.27-7.67-55.79-9.67-11.52-2-25.17-7.33-39.72-9-14.55-1.67-80.66,1.67-80.66,1.67,0,0,63.44-.82,77.99.85Z" class="cls-14"/></g><g><path data-cppathid="10117" d="m742.59,520.41s51.21-41.95,63.75-49.53c12.54-7.57,26.6-11.68,36.95-17.14,10.34-5.45,49.17-27.48,49.17-27.48,0,0-42.13,28.16-46.98,31.06-4.85,2.9-23.68,11.74-27.43,13.58-3.75,1.84-10.61,4.61-13.7,6.57-3.08,1.96-51.71,38.34-61.76,42.93Z" class="cls-5"/><path data-cppathid="10118" d="m742.59,520.41s50.3-43.02,62.84-50.59c12.54-7.57,26.6-11.68,36.95-17.13,10.34-5.45,50.08-26.43,50.08-26.43,0,0-43.05,27.1-47.9,30-4.85,2.9-23.68,11.74-27.43,13.58-3.75,1.84-10.61,4.61-13.7,6.57-3.08,1.96-50.79,39.4-60.84,43.99Z" class="cls-4"/><path data-cppathid="10119" d="m804.86,473.44c12.54-7.57,26.6-11.68,36.95-17.13,10.34-5.46,50.65-30.04,50.65-30.04,0,0-39.74,20.97-50.08,26.43-10.34,5.45-24.4,9.57-36.95,17.13-12.54,7.57-62.84,50.59-62.84,50.59,0,0,49.73-39.4,62.27-46.97Z" class="cls-14"/></g><g><path data-cppathid="10120" d="m615.29,427.13s-65.87-6.68-80.5-6.07c-14.64.62-28.63,4.96-40.26,6.12-11.64,1.17-56.17,4.25-56.17,4.25,0,0,50.68.2,56.32-.06s26.23-3.29,30.37-3.83c4.14-.54,11.39-2.02,15.05-2.09,3.65-.07,64.28,3.39,75.2,1.67Z" class="cls-5"/><path data-cppathid="10121" d="m615.29,427.13s-65.69-8.07-80.33-7.45c-14.64.62-28.63,4.96-40.26,6.12-11.64,1.17-56.34,5.63-56.34,5.63,0,0,50.85-1.18,56.5-1.45,5.64-.26,26.23-3.29,30.37-3.83,4.14-.54,11.39-2.02,15.05-2.09,3.65-.07,64.1,4.78,75.02,3.06Z" class="cls-4"/><path data-cppathid="10122" d="m537.43,422.38c-14.63.62-28.63,4.96-40.26,6.12-11.63,1.17-58.81,2.94-58.81,2.94,0,0,44.7-4.47,56.34-5.63,11.63-1.17,25.63-5.51,40.26-6.12,14.64-.62,80.33,7.45,80.33,7.45,0,0-63.22-5.37-77.86-4.75Z" class="cls-14"/></g><g><path data-cppathid="10123" d="m852.02,313.82s-62.07-6.41-75.87-5.73c-13.8.68-27.01,5.07-37.98,6.29-10.97,1.21-52.97,4.48-52.97,4.48,0,0,47.78,0,53.1-.29,5.32-.29,24.74-3.4,28.65-3.95,3.91-.55,10.75-2.07,14.2-2.15,3.44-.09,60.59,3.13,70.88,1.36Z" class="cls-5"/><path data-cppathid="10124" d="m852.02,313.82s-61.9-7.8-75.7-7.12c-13.8.68-27.01,5.08-37.98,6.29-10.98,1.22-53.14,5.87-53.14,5.87,0,0,47.95-1.39,53.27-1.68,5.32-.29,24.74-3.4,28.65-3.95,3.91-.56,10.75-2.07,14.2-2.15,3.44-.09,60.41,4.52,70.71,2.75Z" class="cls-4"/><path data-cppathid="10125" d="m778.64,309.39c-13.8.68-27.01,5.07-37.99,6.29-10.97,1.22-55.46,3.18-55.46,3.18,0,0,42.16-4.65,53.14-5.87,10.97-1.21,24.18-5.61,37.98-6.29,13.8-.68,75.7,7.12,75.7,7.12,0,0-59.58-5.11-73.38-4.43Z" class="cls-14"/></g><g><path data-cppathid="10126" d="m1050.57,375.91s-34.71-25.32-47.32-31.48c8.33,8.88,35.69,29.74,44.56,36.24,8.87,6.5,32.13,16.56,32.13,16.56,0,0-23.61-17.51-29.37-21.32Z" class="cls-5"/><path data-cppathid="10127" d="m1051.48,374.35s-35.62-23.76-48.23-29.92c8.33,8.88,36.59,28.18,45.47,34.68,8.88,6.5,31.22,18.12,31.22,18.12,0,0-22.71-19.07-28.46-22.88Z" class="cls-4"/><path data-cppathid="10128" d="m1003.25,344.43s24.58,18.08,35.32,24.81c10.74,6.74,19.52,13.18,22.84,15.11,3.32,1.93,18.54,12.88,18.54,12.88,0,0-22.71-19.07-28.46-22.88,0,0-35.62-23.76-48.23-29.92Z" class="cls-14"/></g><g><path data-cppathid="10129" d="m683.19,732.82s-34.71-25.32-47.32-31.48c8.33,8.88,35.69,29.74,44.56,36.24,8.87,6.5,32.13,16.56,32.13,16.56,0,0-23.61-17.51-29.37-21.32Z" class="cls-5"/><path data-cppathid="10130" d="m684.1,731.26s-35.62-23.76-48.23-29.92c8.33,8.88,36.59,28.18,45.47,34.68,8.87,6.5,31.22,18.12,31.22,18.12,0,0-22.71-19.07-28.46-22.88Z" class="cls-4"/><path data-cppathid="10131" d="m635.87,701.34s24.58,18.08,35.32,24.81c10.74,6.74,19.52,13.18,22.84,15.11,3.32,1.93,18.54,12.88,18.54,12.88,0,0-22.71-19.07-28.46-22.88,0,0-35.62-23.76-48.23-29.92Z" class="cls-14"/></g><g><path data-cppathid="10132" d="m497.07,768.62s-20.1-6.97-26.98-6.81c5.21,4.17,21.17,10.46,26.31,12.27,5.14,1.8,17.66.35,17.66.35,0,0-13.71-5-16.99-5.81Z" class="cls-5"/><path data-cppathid="10133" d="m497.29,766.83s-20.32-5.18-27.2-5.02c5.21,4.17,21.39,8.67,26.53,10.48,5.14,1.8,17.44,2.14,17.44,2.14,0,0-13.49-6.79-16.77-7.6Z" class="cls-4"/><path data-cppathid="10134" d="m470.08,761.81s14.25,5.07,20.32,6.25c6.07,1.19,11.16,2.98,13.01,3.21,1.85.23,10.65,3.15,10.65,3.15,0,0-13.49-6.79-16.77-7.6,0,0-20.32-5.18-27.2-5.02Z" class="cls-14"/></g><g><path data-cppathid="10135" d="m474.49,576.54s-24.92,38.17-29.77,52.22c9.88-9.01,30.77-39.04,37.18-48.79,6.41-9.76,13.53-35.73,13.53-35.73,0,0-17.36,25.95-20.95,32.31Z" class="cls-5"/><path data-cppathid="10136" d="m472.06,575.42s-22.49,39.3-27.33,53.34c9.88-9.01,28.34-40.16,34.75-49.92,6.41-9.76,15.96-34.61,15.96-34.61,0,0-19.8,24.83-23.38,31.19Z" class="cls-4"/><path data-cppathid="10137" d="m444.73,628.76s17.86-27.03,24.04-38.9c6.19-11.87,12.55-21.53,14.25-25.21,1.69-3.67,12.42-20.43,12.42-20.43,0,0-19.8,24.83-23.38,31.19,0,0-22.49,39.3-27.33,53.34Z" class="cls-14"/></g><g><path data-cppathid="10138" d="m1088.55,534.55s-35.66,4.47-47.34,3.47c9.74-3.5,38.21-7.8,47.34-8.97,9.13-1.17,30.13,1.8,30.13,1.8,0,0-24.38,3.29-30.13,3.7Z" class="cls-5"/><path data-cppathid="10139" d="m1088.55,536.35s-35.66,2.67-47.34,1.67c9.74-3.5,38.21-6,47.34-7.17,9.13-1.17,30.13,0,30.13,0,0,0-24.38,5.1-30.13,5.5Z" class="cls-4"/><path data-cppathid="10140" d="m1041.21,538.02s25.31-3.29,35.88-3.73c10.57-.44,19.61-1.6,22.81-1.6s18.78-1.83,18.78-1.83c0,0-24.38,5.1-30.13,5.5,0,0-35.66,2.67-47.34,1.67Z" class="cls-14"/></g></g><g><g><path data-cppathid="10141" d="m95.96,404.42s66.18-1.94,80.73-.27c14.55,1.67,28.2,7,39.72,9s55.72,8.27,55.72,8.27c0,0-50.56-3.44-56.17-4.1-5.61-.67-25.92-5.17-30.02-6-4.09-.83-11.22-2.83-14.86-3.17-3.64-.33-64.36-1.23-75.12-3.73Z" class="cls-5"/><path data-cppathid="10142" d="m95.96,404.42s66.1-3.33,80.66-1.67c14.55,1.67,28.2,7,39.72,9,11.52,2,55.79,9.67,55.79,9.67,0,0-50.64-4.83-56.25-5.5-5.61-.67-25.92-5.17-30.02-6-4.09-.83-11.22-2.83-14.86-3.17-3.64-.33-64.28.17-75.04-2.33Z" class="cls-4"/><path data-cppathid="10143" d="m173.95,405.27c14.55,1.67,28.2,7,39.72,9s58.45,7.15,58.45,7.15c0,0-44.27-7.67-55.79-9.67-11.52-2-25.17-7.33-39.72-9-14.55-1.67-80.66,1.67-80.66,1.67,0,0,63.44-.82,77.99.85Z" class="cls-14"/></g><g><path data-cppathid="10144" d="m4.66,273.19s51.21-41.96,63.75-49.53c12.54-7.57,26.6-11.68,36.95-17.14,10.34-5.45,49.17-27.48,49.17-27.48,0,0-42.13,28.16-46.98,31.06-4.85,2.9-23.68,11.74-27.43,13.58-3.75,1.84-10.61,4.61-13.7,6.57-3.08,1.96-51.71,38.34-61.76,42.93Z" class="cls-5"/><path data-cppathid="10145" d="m4.66,273.19s50.3-43.02,62.84-50.59c12.54-7.57,26.6-11.68,36.95-17.13,10.34-5.46,50.08-26.43,50.08-26.43,0,0-43.05,27.1-47.9,30-4.85,2.9-23.68,11.74-27.43,13.58-3.75,1.84-10.61,4.61-13.7,6.57-3.08,1.96-50.79,39.4-60.84,43.99Z" class="cls-4"/><path data-cppathid="10146" d="m66.93,226.22c12.54-7.57,26.6-11.68,36.95-17.13,10.34-5.45,50.65-30.04,50.65-30.04,0,0-39.74,20.97-50.08,26.43-10.34,5.45-24.4,9.57-36.95,17.13-12.54,7.57-62.84,50.59-62.84,50.59,0,0,49.73-39.4,62.27-46.97Z" class="cls-14"/></g><g><path data-cppathid="10147" d="m114.08,66.6s-62.07-6.41-75.87-5.73c-13.8.68-27.01,5.07-37.98,6.29-10.97,1.21-52.97,4.48-52.97,4.48,0,0,47.77,0,53.1-.29,5.32-.29,24.74-3.4,28.65-3.95,3.91-.55,10.75-2.07,14.2-2.15,3.44-.09,60.59,3.13,70.88,1.36Z" class="cls-5"/><path data-cppathid="10148" d="m114.08,66.6s-61.9-7.8-75.7-7.12c-13.8.68-27.01,5.08-37.98,6.29-10.98,1.22-53.14,5.87-53.14,5.87,0,0,47.94-1.39,53.27-1.68,5.32-.29,24.74-3.4,28.65-3.95,3.91-.56,10.75-2.07,14.2-2.15,3.44-.09,60.41,4.52,70.71,2.75Z" class="cls-4"/><path data-cppathid="10149" d="m40.7,62.17c-13.8.68-27.01,5.07-37.99,6.29-10.97,1.22-55.46,3.18-55.46,3.18,0,0,42.16-4.65,53.14-5.87,10.97-1.21,24.18-5.61,37.98-6.29,13.8-.68,75.7,7.12,75.7,7.12,0,0-59.58-5.11-73.38-4.43Z" class="cls-14"/></g><g><path data-cppathid="10150" d="m312.64,128.69s-34.71-25.32-47.32-31.48c8.33,8.88,35.69,29.74,44.56,36.24,8.87,6.5,32.13,16.56,32.13,16.56,0,0-23.61-17.51-29.37-21.32Z" class="cls-5"/><path data-cppathid="10151" d="m313.54,127.13s-35.62-23.76-48.23-29.92c8.33,8.88,36.59,28.18,45.47,34.68,8.87,6.5,31.22,18.12,31.22,18.12,0,0-22.71-19.07-28.46-22.88Z" class="cls-4"/><path data-cppathid="10152" d="m265.31,97.21s24.58,18.08,35.32,24.81c10.74,6.74,19.52,13.18,22.84,15.11,3.32,1.93,18.54,12.88,18.54,12.88,0,0-22.71-19.07-28.46-22.88,0,0-35.62-23.76-48.23-29.92Z" class="cls-14"/></g><g><path data-cppathid="10153" d="m350.61,287.33s-35.66,4.47-47.34,3.47c9.74-3.5,38.21-7.8,47.34-8.97,9.13-1.17,30.13,1.8,30.13,1.8,0,0-24.38,3.29-30.13,3.7Z" class="cls-5"/><path data-cppathid="10154" d="m350.61,289.13s-35.66,2.67-47.34,1.67c9.74-3.5,38.21-6,47.34-7.17,9.13-1.17,30.13,0,30.13,0,0,0-24.38,5.1-30.13,5.5Z" class="cls-4"/><path data-cppathid="10155" d="m303.27,290.8s25.31-3.29,35.88-3.73c10.57-.44,19.61-1.6,22.81-1.6s18.78-1.83,18.78-1.83c0,0-24.38,5.1-30.13,5.5,0,0-35.66,2.67-47.34,1.67Z" class="cls-14"/></g></g><g><g><path data-cppathid="10156" d="m1421.13-8.84s-34.71-25.32-47.32-31.48c8.33,8.88,35.69,29.74,44.56,36.24,8.87,6.5,32.13,16.56,32.13,16.56,0,0-23.61-17.51-29.37-21.32Z" class="cls-5"/><path data-cppathid="10157" d="m1422.03-10.4s-35.62-23.76-48.23-29.92c8.33,8.88,36.59,28.18,45.47,34.68,8.88,6.5,31.22,18.12,31.22,18.12,0,0-22.71-19.07-28.46-22.88Z" class="cls-4"/><path data-cppathid="10158" d="m1373.8-40.32s24.58,18.08,35.32,24.81c10.74,6.74,19.52,13.18,22.84,15.11,3.32,1.93,18.54,12.88,18.54,12.88,0,0-22.71-19.07-28.46-22.88,0,0-35.62-23.76-48.23-29.92Z" class="cls-14"/></g><g><path data-cppathid="10159" d="m1235,26.96s-20.1-6.97-26.98-6.81c5.21,4.17,21.17,10.46,26.31,12.27,5.14,1.8,17.66.35,17.66.35,0,0-13.71-5-16.99-5.81Z" class="cls-5"/><path data-cppathid="10160" d="m1235.22,25.16s-20.32-5.18-27.2-5.02c5.21,4.17,21.39,8.67,26.53,10.48,5.14,1.8,17.44,2.14,17.44,2.14,0,0-13.49-6.79-16.77-7.6Z" class="cls-4"/><path data-cppathid="10161" d="m1208.02,20.14s14.25,5.07,20.32,6.25c6.07,1.19,11.16,2.98,13.01,3.21,1.85.23,10.65,3.15,10.65,3.15,0,0-13.49-6.79-16.77-7.6,0,0-20.32-5.18-27.2-5.02Z" class="cls-14"/></g></g><g><g><path data-cppathid="10162" d="m833.89,157.2s66.18-1.94,80.73-.27c14.55,1.67,28.2,7,39.72,9,11.52,2,55.72,8.27,55.72,8.27,0,0-50.56-3.44-56.17-4.1-5.61-.67-25.92-5.17-30.02-6-4.09-.83-11.22-2.83-14.86-3.17-3.64-.33-64.36-1.23-75.12-3.73Z" class="cls-5"/><path data-cppathid="10163" d="m833.89,157.2s66.1-3.33,80.66-1.67c14.55,1.67,28.2,7,39.72,9,11.52,2,55.79,9.67,55.79,9.67,0,0-50.64-4.83-56.25-5.5-5.61-.67-25.92-5.17-30.02-6-4.09-.83-11.22-2.83-14.86-3.17-3.64-.33-64.28.17-75.04-2.33Z" class="cls-4"/><path data-cppathid="10164" d="m911.89,158.05c14.55,1.67,28.2,7,39.72,9,11.52,2,58.45,7.15,58.45,7.15,0,0-44.27-7.67-55.79-9.67-11.52-2-25.17-7.33-39.72-9-14.55-1.67-80.66,1.67-80.66,1.67,0,0,63.44-.82,77.99.85Z" class="cls-14"/></g><g><path data-cppathid="10165" d="m742.59,25.97s51.21-41.96,63.75-49.53c12.54-7.57,26.6-11.68,36.95-17.14,10.34-5.45,49.17-27.48,49.17-27.48,0,0-42.13,28.16-46.98,31.06-4.85,2.9-23.68,11.74-27.43,13.58-3.75,1.84-10.61,4.61-13.7,6.57-3.08,1.96-51.71,38.34-61.76,42.93Z" class="cls-5"/><path data-cppathid="10166" d="m742.59,25.97s50.3-43.02,62.84-50.59c12.54-7.57,26.6-11.68,36.95-17.13,10.34-5.46,50.08-26.43,50.08-26.43,0,0-43.05,27.1-47.9,30-4.85,2.9-23.68,11.74-27.43,13.58-3.75,1.84-10.61,4.61-13.7,6.57-3.08,1.96-50.79,39.4-60.84,43.99Z" class="cls-4"/><path data-cppathid="10167" d="m804.86-21c12.54-7.57,26.6-11.68,36.95-17.13,10.34-5.46,50.65-30.04,50.65-30.04,0,0-39.74,20.97-50.08,26.43-10.34,5.45-24.4,9.57-36.95,17.13-12.54,7.57-62.84,50.59-62.84,50.59,0,0,49.73-39.4,62.27-46.97Z" class="cls-14"/></g><g><path data-cppathid="10168" d="m683.19,238.38s-34.71-25.32-47.32-31.48c8.33,8.88,35.69,29.74,44.56,36.24,8.87,6.5,32.13,16.56,32.13,16.56,0,0-23.61-17.51-29.37-21.32Z" class="cls-5"/><path data-cppathid="10169" d="m684.1,236.82s-35.62-23.76-48.23-29.92c8.33,8.88,36.59,28.18,45.47,34.68,8.87,6.5,31.22,18.12,31.22,18.12,0,0-22.71-19.07-28.46-22.88Z" class="cls-4"/><path data-cppathid="10170" d="m635.87,206.9s24.58,18.08,35.32,24.81c10.74,6.74,19.52,13.18,22.84,15.11,3.32,1.93,18.54,12.88,18.54,12.88,0,0-22.71-19.07-28.46-22.88,0,0-35.62-23.76-48.23-29.92Z" class="cls-14"/></g><g><path data-cppathid="10171" d="m497.07,274.18s-20.1-6.97-26.98-6.81c5.21,4.17,21.17,10.46,26.31,12.27,5.14,1.8,17.66.35,17.66.35,0,0-13.71-5-16.99-5.81Z" class="cls-5"/><path data-cppathid="10172" d="m497.29,272.39s-20.32-5.18-27.2-5.02c5.21,4.17,21.39,8.67,26.53,10.48,5.14,1.8,17.44,2.14,17.44,2.14,0,0-13.49-6.79-16.77-7.6Z" class="cls-4"/><path data-cppathid="10173" d="m470.08,267.37s14.25,5.07,20.32,6.25c6.07,1.19,11.16,2.98,13.01,3.21,1.85.23,10.65,3.15,10.65,3.15,0,0-13.49-6.79-16.77-7.6,0,0-20.32-5.18-27.2-5.02Z" class="cls-14"/></g><g><path data-cppathid="10174" d="m474.49,82.1s-24.92,38.17-29.77,52.22c9.88-9.01,30.77-39.04,37.18-48.79,6.41-9.76,13.53-35.73,13.53-35.73,0,0-17.36,25.95-20.95,32.31Z" class="cls-5"/><path data-cppathid="10175" d="m472.06,80.97s-22.49,39.3-27.33,53.34c9.88-9.01,28.34-40.16,34.75-49.92,6.41-9.76,15.96-34.61,15.96-34.61,0,0-19.8,24.83-23.38,31.19Z" class="cls-4"/><path data-cppathid="10176" d="m444.73,134.32s17.86-27.03,24.04-38.9c6.19-11.87,12.55-21.53,14.25-25.21,1.69-3.67,12.42-20.43,12.42-20.43,0,0-19.8,24.83-23.38,31.19,0,0-22.49,39.3-27.33,53.34Z" class="cls-14"/></g><g><path data-cppathid="10177" d="m1088.55,40.11s-35.66,4.47-47.34,3.47c9.74-3.5,38.21-7.8,47.34-8.97,9.13-1.17,30.13,1.8,30.13,1.8,0,0-24.38,3.29-30.13,3.7Z" class="cls-5"/><path data-cppathid="10178" d="m1088.55,41.91s-35.66,2.67-47.34,1.67c9.74-3.5,38.21-6,47.34-7.17,9.13-1.17,30.13,0,30.13,0,0,0-24.38,5.1-30.13,5.5Z" class="cls-4"/><path data-cppathid="10179" d="m1041.21,43.58s25.31-3.29,35.88-3.73c10.57-.44,19.61-1.6,22.81-1.6s18.78-1.83,18.78-1.83c0,0-24.38,5.1-30.13,5.5,0,0-35.66,2.67-47.34,1.67Z" class="cls-14"/></g></g></g></pattern></defs><g class="cls-24"><g data-name="Layer 2" id="Layer_2"><g data-name="Main menu" id="Main_menu"><g id="o.evaluasi"><g><g><g><path data-cppathid="10180" d="m222.44,22.07c0-8.09-6.23-14.71-13.85-14.71h-14.64c-2.24,0-2.31,1.37-4.63,2.53-2.31,1.16-14.89-2.53-17.21-2.53H16.41c-7.62,0-13.85,6.62-13.85,14.71v7.67c0,3.11,1.77,8.24,1.9,10.11.14,1.88-.13,5.2,0,6.36.14,1.16-1.9,4.19-1.9,6.29v7.66c0,8.09,6.23,14.71,13.85,14.71h53.47c1.43,0,4.96-2.82,6.66-2.6,1.7.22,7.21,2.6,9.86,2.6h122.19c7.62,0,13.85-6.62,13.85-14.71v-10.81c0-6.51-2.26-10.51-2.41-11.66-.14-1.15,2.41-5.37,2.41-7.1v-8.51Z" class="cls-3"/><path data-cppathid="10181" d="m222.55,21.75c0-8.09-6.24-14.71-13.86-14.71h-14.66c-2.25,0-2.32,1.37-4.63,2.53-2.31,1.16-14.91-2.53-17.22-2.53H16.31c-7.63,0-13.86,6.62-13.86,14.71v7.67c0,3.11,1.77,8.24,1.9,10.11.14,1.88-.13,5.2,0,6.36.14,1.16-1.91,4.19-1.91,6.29v7.66c0,8.09,6.24,14.71,13.86,14.71h53.52c1.43,0,4.97-2.82,6.67-2.6,1.7.22,7.22,2.6,9.87,2.6h122.31c7.62,0,13.86-6.62,13.86-14.71v-10.81c0-6.51-2.27-10.51-2.41-11.66-.14-1.15,2.41-5.37,2.41-7.1v-8.51Z" class="cls-3"/><path data-cppathid="10182" d="m222.66,21.43c0-8.09-6.25-14.71-13.88-14.71h-14.67c-2.25,0-2.32,1.37-4.63,2.53-2.32,1.16-14.92-2.53-17.24-2.53H16.22c-7.63,0-13.88,6.62-13.88,14.71v7.67c0,3.11,1.77,8.24,1.91,10.11.14,1.88-.13,5.2,0,6.36.14,1.16-1.91,4.19-1.91,6.29v7.66c0,8.09,6.24,14.71,13.88,14.71h53.57c1.43,0,4.97-2.82,6.68-2.6,1.71.22,7.22,2.6,9.88,2.6h122.44c7.63,0,13.88-6.62,13.88-14.71v-10.81c0-6.51-2.27-10.51-2.41-11.66-.14-1.15,2.41-5.37,2.41-7.1v-8.51Z" class="cls-3"/><path data-cppathid="10183" d="m222.77,21.11c0-8.09-6.25-14.71-13.89-14.71h-14.69c-2.25,0-2.32,1.37-4.64,2.53-2.32,1.16-14.94-2.53-17.26-2.53H16.12c-7.64,0-13.89,6.62-13.89,14.71v7.67c0,3.11,1.77,8.24,1.91,10.11.14,1.88-.13,5.2,0,6.36.14,1.16-1.91,4.19-1.91,6.29v7.66c0,8.09,6.25,14.71,13.89,14.71h53.63c1.43,0,4.98-2.82,6.68-2.6,1.71.22,7.23,2.6,9.89,2.6h122.56c7.64,0,13.89-6.62,13.89-14.71v-10.81c0-6.51-2.27-10.51-2.41-11.66-.14-1.15,2.41-5.37,2.42-7.1v-8.51Z" class="cls-3"/><path data-cppathid="10184" d="m222.88,20.79c0-8.09-6.26-14.71-13.9-14.71h-14.7c-2.25,0-2.32,1.37-4.64,2.53-2.32,1.16-14.95-2.53-17.27-2.53H16.02c-7.65,0-13.91,6.62-13.9,14.71v7.67c0,3.11,1.77,8.24,1.91,10.11.14,1.88-.13,5.2,0,6.36.14,1.16-1.91,4.19-1.91,6.29v7.66c0,8.09,6.26,14.71,13.9,14.71h53.68c1.43,0,4.98-2.82,6.69-2.6,1.71.22,7.24,2.6,9.9,2.6h122.68c7.65,0,13.9-6.62,13.9-14.71v-10.81c0-6.51-2.27-10.51-2.42-11.66-.14-1.15,2.41-5.37,2.42-7.1v-8.51Z" class="cls-3"/><path data-cppathid="10185" d="m222.99,20.47c0-8.09-6.26-14.71-13.92-14.71h-14.72c-2.26,0-2.32,1.37-4.65,2.53-2.32,1.16-14.97-2.53-17.29-2.53H15.93c-7.66,0-13.92,6.62-13.92,14.71v7.67c0,3.11,1.78,8.24,1.91,10.11.14,1.88-.13,5.2,0,6.36.14,1.16-1.91,4.19-1.91,6.29v7.66c0,8.09,6.26,14.71,13.92,14.71h53.74c1.44,0,4.99-2.82,6.7-2.6,1.71.22,7.24,2.6,9.91,2.6h122.8c7.65,0,13.92-6.62,13.92-14.71v-10.81c0-6.51-2.28-10.51-2.42-11.66-.14-1.15,2.42-5.37,2.42-7.1v-8.51Z" class="cls-3"/><path data-cppathid="10186" d="m223.1,20.15c0-8.09-6.27-14.71-13.93-14.71h-14.73c-2.26,0-2.33,1.37-4.65,2.53-2.33,1.16-14.98-2.53-17.31-2.53H15.83c-7.66,0-13.93,6.62-13.93,14.71v7.67c0,3.11,1.78,8.24,1.91,10.11.14,1.88-.13,5.2,0,6.36.14,1.16-1.92,4.19-1.92,6.29v7.66c0,8.09,6.27,14.71,13.93,14.71h53.79c1.44,0,4.99-2.82,6.7-2.6,1.71.22,7.25,2.6,9.92,2.6h122.93c7.66,0,13.93-6.62,13.93-14.71v-10.81c0-6.51-2.28-10.51-2.42-11.66-.14-1.15,2.42-5.37,2.42-7.1v-8.51Z" class="cls-3"/><path data-cppathid="10187" d="m223.21,19.83c0-8.09-6.28-14.71-13.95-14.71h-14.75c-2.26,0-2.33,1.37-4.66,2.53-2.33,1.16-15-2.53-17.33-2.53H15.73c-7.67,0-13.95,6.62-13.95,14.71v7.67c0,3.11,1.78,8.24,1.92,10.11.14,1.88-.13,5.2,0,6.36.14,1.16-1.92,4.19-1.92,6.29v7.66c0,8.09,6.27,14.71,13.95,14.71h53.84c1.44,0,5-2.82,6.71-2.6,1.71.22,7.26,2.6,9.93,2.6h123.05c7.67,0,13.94-6.62,13.94-14.71v-10.81c0-6.51-2.28-10.51-2.42-11.66-.14-1.15,2.42-5.37,2.43-7.1v-8.51Z" class="cls-3"/><path data-cppathid="10188" d="m223.32,19.51c0-8.09-6.28-14.71-13.96-14.71h-14.76c-2.26,0-2.33,1.37-4.66,2.53-2.33,1.16-15.01-2.53-17.34-2.53H15.64C7.96,4.8,1.67,11.42,1.68,19.51v7.67c0,3.11,1.78,8.24,1.92,10.11.14,1.88-.13,5.2,0,6.36.14,1.16-1.92,4.19-1.92,6.29v7.66c0,8.09,6.28,14.71,13.96,14.71h53.9c1.44,0,5-2.82,6.72-2.6,1.72.22,7.27,2.6,9.94,2.6h123.17c7.68,0,13.96-6.62,13.96-14.71v-10.81c0-6.51-2.28-10.51-2.43-11.66-.14-1.15,2.42-5.37,2.43-7.1v-8.51Z" class="cls-3"/><path data-cppathid="10189" d="m223.44,19.19c0-8.09-6.29-14.71-13.97-14.71h-14.78c-2.26,0-2.33,1.37-4.67,2.53-2.33,1.16-15.03-2.53-17.36-2.53H15.54C7.85,4.48,1.56,11.1,1.56,19.19v7.67c0,3.11,1.78,8.24,1.92,10.11.14,1.88-.13,5.2,0,6.36.14,1.16-1.92,4.19-1.92,6.29v7.66c0,8.09,6.29,14.71,13.97,14.71h53.95c1.44,0,5.01-2.82,6.72-2.6,1.72.22,7.27,2.6,9.95,2.6h123.3c7.68,0,13.97-6.62,13.97-14.71v-10.81c0-6.51-2.29-10.51-2.43-11.66-.14-1.15,2.43-5.37,2.43-7.1v-8.51Z" class="cls-3"/><path data-cppathid="10190" d="m223.55,18.87c0-8.09-6.3-14.71-13.99-14.71h-14.79c-2.27,0-2.34,1.37-4.67,2.53-2.34,1.16-15.04-2.53-17.38-2.53H15.44C7.75,4.16,1.45,10.78,1.45,18.87v7.67c0,3.11,1.78,8.24,1.92,10.11.14,1.88-.14,5.2,0,6.36.14,1.16-1.92,4.19-1.92,6.29v7.66c0,8.09,6.29,14.71,13.99,14.71h54.01c1.44,0,5.01-2.82,6.73-2.6,1.72.22,7.28,2.6,9.96,2.6h123.42c7.69,0,13.99-6.62,13.99-14.71v-10.81c0-6.51-2.29-10.51-2.43-11.66-.14-1.15,2.43-5.37,2.43-7.1v-8.51Z" class="cls-3"/><path data-cppathid="10191" d="m223.66,18.55c0-8.09-6.3-14.71-14-14.71h-14.8c-2.27,0-2.34,1.37-4.68,2.53-2.34,1.16-15.06-2.53-17.4-2.53H15.35C7.64,3.84,1.34,10.46,1.34,18.55v7.67c0,3.11,1.79,8.24,1.92,10.11.14,1.88-.14,5.2,0,6.36.14,1.16-1.93,4.19-1.93,6.29v7.66c0,8.09,6.3,14.71,14,14.71h54.06c1.44,0,5.02-2.82,6.74-2.6,1.72.22,7.29,2.6,9.97,2.6h123.54c7.7,0,14-6.62,14-14.71v-10.81c0-6.51-2.29-10.51-2.43-11.66-.14-1.15,2.43-5.37,2.43-7.1v-8.51Z" class="cls-3"/><path data-cppathid="10192" d="m223.77,18.23c0-8.09-6.31-14.71-14.02-14.71h-14.82c-2.27,0-2.34,1.37-4.68,2.53-2.34,1.16-15.07-2.53-17.41-2.53H15.25C7.54,3.52,1.23,10.14,1.23,18.23v7.67c0,3.11,1.79,8.24,1.93,10.11.14,1.88-.14,5.2,0,6.36.14,1.16-1.93,4.19-1.93,6.29v7.66c0,8.09,6.31,14.71,14.02,14.71h54.11c1.45,0,5.02-2.82,6.75-2.6,1.72.22,7.3,2.6,9.98,2.6h123.67c7.71,0,14.01-6.62,14.01-14.71v-10.81c0-6.51-2.29-10.51-2.44-11.66-.14-1.15,2.43-5.37,2.44-7.1v-8.51Z" class="cls-3"/><path data-cppathid="10193" d="m223.88,17.91c0-8.09-6.32-14.71-14.03-14.71h-14.83c-2.27,0-2.34,1.37-4.69,2.53-2.34,1.16-15.09-2.53-17.43-2.53H15.15C7.43,3.2,1.12,9.82,1.12,17.91v7.67c0,3.11,1.79,8.24,1.93,10.11.14,1.88-.14,5.2,0,6.36.14,1.16-1.93,4.19-1.93,6.29v7.66c0,8.09,6.31,14.71,14.03,14.71h54.17c1.45,0,5.03-2.82,6.75-2.6,1.72.22,7.3,2.6,9.99,2.6h123.79c7.72,0,14.03-6.62,14.03-14.71v-10.81c0-6.51-2.29-10.51-2.44-11.66-.14-1.15,2.44-5.37,2.44-7.1v-8.51Z" class="cls-3"/><path data-cppathid="10194" d="m223.99,17.59c0-8.09-6.32-14.71-14.04-14.71h-14.85c-2.28,0-2.35,1.37-4.69,2.53-2.35,1.16-15.1-2.53-17.45-2.53H15.05C7.33,2.88,1.01,9.5,1.01,17.59v7.67c0,3.11,1.79,8.24,1.93,10.11.14,1.88-.14,5.2,0,6.36.14,1.16-1.93,4.19-1.93,6.29v7.66c0,8.09,6.32,14.71,14.04,14.71h54.22c1.45,0,5.03-2.82,6.76-2.6,1.73.22,7.31,2.6,10,2.6h123.91c7.72,0,14.04-6.62,14.04-14.71v-10.81c0-6.51-2.3-10.51-2.44-11.66-.14-1.15,2.44-5.37,2.44-7.1v-8.51Z" class="cls-3"/><path data-cppathid="10195" d="m224.1,17.27c0-8.09-6.33-14.71-14.06-14.71h-14.86c-2.28,0-2.35,1.37-4.7,2.53-2.35,1.16-15.12-2.53-17.47-2.53H14.96C7.22,2.56.9,9.18.9,17.27v7.67c0,3.11,1.79,8.24,1.93,10.11.14,1.88-.14,5.2,0,6.36.14,1.16-1.93,4.19-1.93,6.29v7.66c0,8.09,6.33,14.71,14.06,14.71h54.28c1.45,0,5.04-2.82,6.77-2.6,1.73.22,7.32,2.6,10.01,2.6h124.04c7.73,0,14.06-6.62,14.06-14.71v-10.81c0-6.51-2.3-10.51-2.44-11.66-.14-1.15,2.44-5.37,2.44-7.1v-8.51Z" class="cls-3"/><path data-cppathid="10196" d="m224.21,16.95c0-8.09-6.33-14.71-14.07-14.71h-14.88c-2.28,0-2.35,1.37-4.7,2.53-2.35,1.16-15.13-2.53-17.48-2.53H14.86C7.12,2.24.78,8.86.79,16.95v7.67c0,3.11,1.79,8.24,1.93,10.11.14,1.88-.14,5.2,0,6.36.14,1.16-1.93,4.19-1.93,6.29v7.66c0,8.09,6.33,14.71,14.07,14.71h54.33c1.45,0,5.04-2.82,6.77-2.6,1.73.22,7.32,2.6,10.02,2.6h124.16c7.74,0,14.07-6.62,14.07-14.71v-10.81c0-6.51-2.3-10.51-2.45-11.66-.14-1.15,2.44-5.37,2.45-7.1v-8.51Z" class="cls-3"/><path data-cppathid="10197" d="m224.33,16.63c0-8.09-6.34-14.71-14.09-14.71h-14.89c-2.28,0-2.35,1.37-4.7,2.53-2.35,1.16-15.15-2.53-17.5-2.53H14.76C7.01,1.92.67,8.54.67,16.63v7.67c0,3.11,1.8,8.24,1.94,10.11.14,1.88-.14,5.2,0,6.36.14,1.16-1.94,4.19-1.94,6.29v7.66c0,8.09,6.34,14.71,14.09,14.71h54.38c1.45,0,5.05-2.82,6.78-2.6,1.73.22,7.33,2.6,10.03,2.6h124.29c7.75,0,14.09-6.62,14.09-14.71v-10.81c0-6.51-2.3-10.51-2.45-11.66-.14-1.15,2.45-5.37,2.45-7.1v-8.51Z" class="cls-3"/><path data-cppathid="10198" d="m224.44,16.31c0-8.09-6.35-14.71-14.1-14.71h-14.91c-2.29,0-2.35,1.37-4.71,2.53-2.35,1.16-15.16-2.53-17.52-2.53H14.66C6.91,1.6.56,8.22.56,16.31v7.67c0,3.11,1.8,8.24,1.94,10.11.14,1.88-.14,5.2,0,6.36.14,1.16-1.94,4.19-1.94,6.29v7.66c0,8.09,6.34,14.71,14.1,14.71h54.44c1.45,0,5.05-2.82,6.79-2.6,1.73.22,7.34,2.6,10.04,2.6h124.41c7.75,0,14.1-6.62,14.1-14.71v-10.81c0-6.51-2.31-10.51-2.45-11.66-.14-1.15,2.45-5.37,2.45-7.1v-8.51Z" class="cls-3"/><path data-cppathid="10199" d="m224.55,15.99c0-8.09-6.35-14.71-14.11-14.71h-14.92c-2.29,0-2.36,1.37-4.71,2.53-2.36,1.16-15.18-2.53-17.54-2.53H14.56C6.8,1.28.45,7.9.45,15.99v7.67c0,3.11,1.8,8.24,1.94,10.11.14,1.88-.14,5.2,0,6.36.14,1.16-1.94,4.19-1.94,6.29v7.66c0,8.09,6.35,14.71,14.11,14.71h54.49c1.46,0,5.06-2.82,6.79-2.6,1.73.22,7.35,2.6,10.05,2.6h124.54c7.76,0,14.11-6.62,14.11-14.71v-10.81c0-6.51-2.31-10.51-2.45-11.66-.14-1.15,2.45-5.37,2.45-7.1v-8.51Z" class="cls-3"/><path data-cppathid="10200" d="m224.66,15.67c0-8.09-6.36-14.71-14.13-14.71h-14.94c-2.29,0-2.36,1.37-4.72,2.53-2.36,1.16-15.2-2.53-17.55-2.53H14.47C6.69.96.34,7.58.34,15.67v7.67c0,3.11,1.8,8.24,1.94,10.11.14,1.88-.14,5.2,0,6.36.14,1.16-1.94,4.19-1.94,6.29v7.66c0,8.09,6.36,14.71,14.13,14.71h54.55c1.46,0,5.06-2.82,6.8-2.6,1.74.22,7.35,2.6,10.06,2.6h124.66c7.77,0,14.13-6.62,14.13-14.71v-10.81c0-6.51-2.31-10.51-2.46-11.66-.14-1.15,2.45-5.37,2.46-7.1v-8.51Z" class="cls-3"/><path data-cppathid="10201" d="m224.78,15.35c0-8.09-6.37-14.71-14.14-14.71h-14.95c-2.29,0-2.36,1.37-4.72,2.53-2.36,1.16-15.21-2.53-17.57-2.53H14.37C6.59.64.22,7.26.22,15.35v7.67c0,3.11,1.8,8.24,1.94,10.11.14,1.88-.14,5.2,0,6.36.14,1.16-1.94,4.19-1.94,6.29v7.66c0,8.09,6.36,14.71,14.14,14.71h54.6c1.46,0,5.07-2.82,6.81-2.6,1.74.22,7.36,2.6,10.07,2.6h124.79c7.78,0,14.14-6.62,14.14-14.71v-10.81c0-6.51-2.31-10.51-2.46-11.66-.14-1.15,2.46-5.37,2.46-7.1v-8.51Z" class="cls-3"/><path data-cppathid="10202" d="m224.89,15.03c0-8.09-6.37-14.71-14.16-14.71h-14.97c-2.29,0-2.36,1.37-4.73,2.53-2.36,1.16-15.23-2.53-17.59-2.53H14.27C6.48.32.11,6.94.11,15.03v7.67c0,3.11,1.81,8.24,1.94,10.11.14,1.88-.14,5.2,0,6.36.14,1.16-1.95,4.19-1.95,6.29v7.66c0,8.09,6.37,14.71,14.16,14.71h54.66c1.46,0,5.07-2.82,6.81-2.6,1.74.22,7.37,2.6,10.08,2.6h124.91c7.79,0,14.16-6.62,14.16-14.71v-10.81c0-6.51-2.32-10.51-2.46-11.66-.14-1.15,2.46-5.37,2.46-7.1v-8.51Z" class="cls-3"/><path data-cppathid="10203" d="m225,14.71c0-8.09-6.38-14.71-14.17-14.71h-14.98c-2.3,0-2.37,1.37-4.73,2.53C188.75,3.69,175.87,0,173.51,0H14.17C6.38,0,0,6.62,0,14.71v7.67c0,3.11,1.81,8.24,1.95,10.11.14,1.88-.14,5.2,0,6.36C2.09,40.01,0,43.04,0,45.14v7.66c0,8.09,6.38,14.71,14.17,14.71h54.71c1.46,0,5.08-2.82,6.82-2.6,1.74.22,7.38,2.6,10.09,2.6h125.04c7.79,0,14.17-6.62,14.17-14.71v-10.81c0-6.51-2.32-10.51-2.46-11.66-.14-1.15,2.46-5.37,2.46-7.1v-8.51Z" class="cls-3"/></g><g><path data-cppathid="10204" d="m222.99,20.47c0-8.09-6.26-14.71-13.92-14.71h-14.72c-2.26,0-2.32,1.37-4.65,2.53-2.32,1.16-14.97-2.53-17.29-2.53H15.93c-7.66,0-13.92,6.62-13.92,14.71v7.67c0,3.11,1.78,8.24,1.91,10.11.14,1.88-.13,5.2,0,6.36.14,1.16-1.91,4.19-1.91,6.29v7.66c0,8.09,6.26,14.71,13.92,14.71h53.74c1.44,0,4.99-2.82,6.7-2.6,1.71.22,7.24,2.6,9.91,2.6h122.8c7.65,0,13.92-6.62,13.92-14.71v-10.81c0-6.51-2.28-10.51-2.42-11.66-.14-1.15,2.42-5.37,2.42-7.1v-8.51Z" class="cls-6"/><path data-cppathid="10205" d="m223.1,20.15c0-8.09-6.27-14.71-13.93-14.71h-14.73c-2.26,0-2.33,1.37-4.65,2.53-2.33,1.16-14.98-2.53-17.31-2.53H15.83c-7.66,0-13.93,6.62-13.93,14.71v7.67c0,3.11,1.78,8.24,1.91,10.11.14,1.88-.13,5.2,0,6.36.14,1.16-1.92,4.19-1.92,6.29v7.66c0,8.09,6.27,14.71,13.93,14.71h53.79c1.44,0,4.99-2.82,6.7-2.6,1.71.22,7.25,2.6,9.92,2.6h122.93c7.66,0,13.93-6.62,13.93-14.71v-10.81c0-6.51-2.28-10.51-2.42-11.66-.14-1.15,2.42-5.37,2.42-7.1v-8.51Z" class="cls-6"/><path data-cppathid="10206" d="m223.21,19.83c0-8.09-6.28-14.71-13.95-14.71h-14.75c-2.26,0-2.33,1.37-4.66,2.53-2.33,1.16-15-2.53-17.33-2.53H15.73c-7.67,0-13.95,6.62-13.95,14.71v7.67c0,3.11,1.78,8.24,1.92,10.11.14,1.88-.13,5.2,0,6.36.14,1.16-1.92,4.19-1.92,6.29v7.66c0,8.09,6.27,14.71,13.95,14.71h53.84c1.44,0,5-2.82,6.71-2.6,1.71.22,7.26,2.6,9.93,2.6h123.05c7.67,0,13.94-6.62,13.94-14.71v-10.81c0-6.51-2.28-10.51-2.42-11.66-.14-1.15,2.42-5.37,2.43-7.1v-8.51Z" class="cls-6"/><path data-cppathid="10207" d="m223.32,19.51c0-8.09-6.28-14.71-13.96-14.71h-14.76c-2.26,0-2.33,1.37-4.66,2.53-2.33,1.16-15.01-2.53-17.34-2.53H15.64C7.96,4.8,1.67,11.42,1.68,19.51v7.67c0,3.11,1.78,8.24,1.92,10.11.14,1.88-.13,5.2,0,6.36.14,1.16-1.92,4.19-1.92,6.29v7.66c0,8.09,6.28,14.71,13.96,14.71h53.9c1.44,0,5-2.82,6.72-2.6,1.72.22,7.27,2.6,9.94,2.6h123.17c7.68,0,13.96-6.62,13.96-14.71v-10.81c0-6.51-2.28-10.51-2.43-11.66-.14-1.15,2.42-5.37,2.43-7.1v-8.51Z" class="cls-6"/><path data-cppathid="10208" d="m223.44,19.19c0-8.09-6.29-14.71-13.97-14.71h-14.78c-2.26,0-2.33,1.37-4.67,2.53-2.33,1.16-15.03-2.53-17.36-2.53H15.54C7.85,4.48,1.56,11.1,1.56,19.19v7.67c0,3.11,1.78,8.24,1.92,10.11.14,1.88-.13,5.2,0,6.36.14,1.16-1.92,4.19-1.92,6.29v7.66c0,8.09,6.29,14.71,13.97,14.71h53.95c1.44,0,5.01-2.82,6.72-2.6,1.72.22,7.27,2.6,9.95,2.6h123.3c7.68,0,13.97-6.62,13.97-14.71v-10.81c0-6.51-2.29-10.51-2.43-11.66-.14-1.15,2.43-5.37,2.43-7.1v-8.51Z" class="cls-6"/><path data-cppathid="10209" d="m223.55,18.87c0-8.09-6.3-14.71-13.99-14.71h-14.79c-2.27,0-2.34,1.37-4.67,2.53-2.34,1.16-15.04-2.53-17.38-2.53H15.44C7.75,4.16,1.45,10.78,1.45,18.87v7.67c0,3.11,1.78,8.24,1.92,10.11.14,1.88-.14,5.2,0,6.36.14,1.16-1.92,4.19-1.92,6.29v7.66c0,8.09,6.29,14.71,13.99,14.71h54.01c1.44,0,5.01-2.82,6.73-2.6,1.72.22,7.28,2.6,9.96,2.6h123.42c7.69,0,13.99-6.62,13.99-14.71v-10.81c0-6.51-2.29-10.51-2.43-11.66-.14-1.15,2.43-5.37,2.43-7.1v-8.51Z" class="cls-6"/><path data-cppathid="10210" d="m223.66,18.55c0-8.09-6.3-14.71-14-14.71h-14.8c-2.27,0-2.34,1.37-4.68,2.53-2.34,1.16-15.06-2.53-17.4-2.53H15.35C7.64,3.84,1.34,10.46,1.34,18.55v7.67c0,3.11,1.79,8.24,1.92,10.11.14,1.88-.14,5.2,0,6.36.14,1.16-1.93,4.19-1.93,6.29v7.66c0,8.09,6.3,14.71,14,14.71h54.06c1.44,0,5.02-2.82,6.74-2.6,1.72.22,7.29,2.6,9.97,2.6h123.54c7.7,0,14-6.62,14-14.71v-10.81c0-6.51-2.29-10.51-2.43-11.66-.14-1.15,2.43-5.37,2.43-7.1v-8.51Z" class="cls-6"/><path data-cppathid="10211" d="m223.77,18.23c0-8.09-6.31-14.71-14.02-14.71h-14.82c-2.27,0-2.34,1.37-4.68,2.53-2.34,1.16-15.07-2.53-17.41-2.53H15.25C7.54,3.52,1.23,10.14,1.23,18.23v7.67c0,3.11,1.79,8.24,1.93,10.11.14,1.88-.14,5.2,0,6.36.14,1.16-1.93,4.19-1.93,6.29v7.66c0,8.09,6.31,14.71,14.02,14.71h54.11c1.45,0,5.02-2.82,6.75-2.6,1.72.22,7.3,2.6,9.98,2.6h123.67c7.71,0,14.01-6.62,14.01-14.71v-10.81c0-6.51-2.29-10.51-2.44-11.66-.14-1.15,2.43-5.37,2.44-7.1v-8.51Z" class="cls-6"/><path data-cppathid="10212" d="m223.88,17.91c0-8.09-6.32-14.71-14.03-14.71h-14.83c-2.27,0-2.34,1.37-4.69,2.53-2.34,1.16-15.09-2.53-17.43-2.53H15.15C7.43,3.2,1.12,9.82,1.12,17.91v7.67c0,3.11,1.79,8.24,1.93,10.11.14,1.88-.14,5.2,0,6.36.14,1.16-1.93,4.19-1.93,6.29v7.66c0,8.09,6.31,14.71,14.03,14.71h54.17c1.45,0,5.03-2.82,6.75-2.6,1.72.22,7.3,2.6,9.99,2.6h123.79c7.72,0,14.03-6.62,14.03-14.71v-10.81c0-6.51-2.29-10.51-2.44-11.66-.14-1.15,2.44-5.37,2.44-7.1v-8.51Z" class="cls-6"/><path data-cppathid="10213" d="m223.99,17.59c0-8.09-6.32-14.71-14.04-14.71h-14.85c-2.28,0-2.35,1.37-4.69,2.53-2.35,1.16-15.1-2.53-17.45-2.53H15.05C7.33,2.88,1.01,9.5,1.01,17.59v7.67c0,3.11,1.79,8.24,1.93,10.11.14,1.88-.14,5.2,0,6.36.14,1.16-1.93,4.19-1.93,6.29v7.66c0,8.09,6.32,14.71,14.04,14.71h54.22c1.45,0,5.03-2.82,6.76-2.6,1.73.22,7.31,2.6,10,2.6h123.91c7.72,0,14.04-6.62,14.04-14.71v-10.81c0-6.51-2.3-10.51-2.44-11.66-.14-1.15,2.44-5.37,2.44-7.1v-8.51Z" class="cls-6"/><path data-cppathid="10214" d="m224.1,17.27c0-8.09-6.33-14.71-14.06-14.71h-14.86c-2.28,0-2.35,1.37-4.7,2.53-2.35,1.16-15.12-2.53-17.47-2.53H14.96C7.22,2.56.9,9.18.9,17.27v7.67c0,3.11,1.79,8.24,1.93,10.11.14,1.88-.14,5.2,0,6.36.14,1.16-1.93,4.19-1.93,6.29v7.66c0,8.09,6.33,14.71,14.06,14.71h54.28c1.45,0,5.04-2.82,6.77-2.6,1.73.22,7.32,2.6,10.01,2.6h124.04c7.73,0,14.06-6.62,14.06-14.71v-10.81c0-6.51-2.3-10.51-2.44-11.66-.14-1.15,2.44-5.37,2.44-7.1v-8.51Z" class="cls-6"/><path data-cppathid="10215" d="m224.21,16.95c0-8.09-6.33-14.71-14.07-14.71h-14.88c-2.28,0-2.35,1.37-4.7,2.53-2.35,1.16-15.13-2.53-17.48-2.53H14.86C7.12,2.24.78,8.86.79,16.95v7.67c0,3.11,1.79,8.24,1.93,10.11.14,1.88-.14,5.2,0,6.36.14,1.16-1.93,4.19-1.93,6.29v7.66c0,8.09,6.33,14.71,14.07,14.71h54.33c1.45,0,5.04-2.82,6.77-2.6,1.73.22,7.32,2.6,10.02,2.6h124.16c7.74,0,14.07-6.62,14.07-14.71v-10.81c0-6.51-2.3-10.51-2.45-11.66-.14-1.15,2.44-5.37,2.45-7.1v-8.51Z" class="cls-6"/><path data-cppathid="10216" d="m224.33,16.63c0-8.09-6.34-14.71-14.09-14.71h-14.89c-2.28,0-2.35,1.37-4.7,2.53-2.35,1.16-15.15-2.53-17.5-2.53H14.76C7.01,1.92.67,8.54.67,16.63v7.67c0,3.11,1.8,8.24,1.94,10.11.14,1.88-.14,5.2,0,6.36.14,1.16-1.94,4.19-1.94,6.29v7.66c0,8.09,6.34,14.71,14.09,14.71h54.38c1.45,0,5.05-2.82,6.78-2.6,1.73.22,7.33,2.6,10.03,2.6h124.29c7.75,0,14.09-6.62,14.09-14.71v-10.81c0-6.51-2.3-10.51-2.45-11.66-.14-1.15,2.45-5.37,2.45-7.1v-8.51Z" class="cls-6"/><path data-cppathid="10217" d="m224.44,16.31c0-8.09-6.35-14.71-14.1-14.71h-14.91c-2.29,0-2.35,1.37-4.71,2.53-2.35,1.16-15.16-2.53-17.52-2.53H14.66C6.91,1.6.56,8.22.56,16.31v7.67c0,3.11,1.8,8.24,1.94,10.11.14,1.88-.14,5.2,0,6.36.14,1.16-1.94,4.19-1.94,6.29v7.66c0,8.09,6.34,14.71,14.1,14.71h54.44c1.45,0,5.05-2.82,6.79-2.6,1.73.22,7.34,2.6,10.04,2.6h124.41c7.75,0,14.1-6.62,14.1-14.71v-10.81c0-6.51-2.31-10.51-2.45-11.66-.14-1.15,2.45-5.37,2.45-7.1v-8.51Z" class="cls-6"/><path data-cppathid="10218" d="m224.55,15.99c0-8.09-6.35-14.71-14.11-14.71h-14.92c-2.29,0-2.36,1.37-4.71,2.53-2.36,1.16-15.18-2.53-17.54-2.53H14.56C6.8,1.28.45,7.9.45,15.99v7.67c0,3.11,1.8,8.24,1.94,10.11.14,1.88-.14,5.2,0,6.36.14,1.16-1.94,4.19-1.94,6.29v7.66c0,8.09,6.35,14.71,14.11,14.71h54.49c1.46,0,5.06-2.82,6.79-2.6,1.73.22,7.35,2.6,10.05,2.6h124.54c7.76,0,14.11-6.62,14.11-14.71v-10.81c0-6.51-2.31-10.51-2.45-11.66-.14-1.15,2.45-5.37,2.45-7.1v-8.51Z" class="cls-6"/><path data-cppathid="10219" d="m224.66,15.67c0-8.09-6.36-14.71-14.13-14.71h-14.94c-2.29,0-2.36,1.37-4.72,2.53-2.36,1.16-15.2-2.53-17.55-2.53H14.47C6.69.96.34,7.58.34,15.67v7.67c0,3.11,1.8,8.24,1.94,10.11.14,1.88-.14,5.2,0,6.36.14,1.16-1.94,4.19-1.94,6.29v7.66c0,8.09,6.36,14.71,14.13,14.71h54.55c1.46,0,5.06-2.82,6.8-2.6,1.74.22,7.35,2.6,10.06,2.6h124.66c7.77,0,14.13-6.62,14.13-14.71v-10.81c0-6.51-2.31-10.51-2.46-11.66-.14-1.15,2.45-5.37,2.46-7.1v-8.51Z" class="cls-6"/><path data-cppathid="10220" d="m224.78,15.35c0-8.09-6.37-14.71-14.14-14.71h-14.95c-2.29,0-2.36,1.37-4.72,2.53-2.36,1.16-15.21-2.53-17.57-2.53H14.37C6.59.64.22,7.26.22,15.35v7.67c0,3.11,1.8,8.24,1.94,10.11.14,1.88-.14,5.2,0,6.36.14,1.16-1.94,4.19-1.94,6.29v7.66c0,8.09,6.36,14.71,14.14,14.71h54.6c1.46,0,5.07-2.82,6.81-2.6,1.74.22,7.36,2.6,10.07,2.6h124.79c7.78,0,14.14-6.62,14.14-14.71v-10.81c0-6.51-2.31-10.51-2.46-11.66-.14-1.15,2.46-5.37,2.46-7.1v-8.51Z" class="cls-6"/><path data-cppathid="10221" d="m224.89,15.03c0-8.09-6.37-14.71-14.16-14.71h-14.97c-2.29,0-2.36,1.37-4.73,2.53-2.36,1.16-15.23-2.53-17.59-2.53H14.27C6.48.32.11,6.94.11,15.03v7.67c0,3.11,1.81,8.24,1.94,10.11.14,1.88-.14,5.2,0,6.36.14,1.16-1.95,4.19-1.95,6.29v7.66c0,8.09,6.37,14.71,14.16,14.71h54.66c1.46,0,5.07-2.82,6.81-2.6,1.74.22,7.37,2.6,10.08,2.6h124.91c7.79,0,14.16-6.62,14.16-14.71v-10.81c0-6.51-2.32-10.51-2.46-11.66-.14-1.15,2.46-5.37,2.46-7.1v-8.51Z" class="cls-6"/><path data-cppathid="10222" d="m225,14.71c0-8.09-6.38-14.71-14.17-14.71h-14.98c-2.3,0-2.37,1.37-4.73,2.53C188.75,3.69,175.87,0,173.51,0H14.17C6.38,0,0,6.62,0,14.71v7.67c0,3.11,1.81,8.24,1.95,10.11.14,1.88-.14,5.2,0,6.36C2.09,40.01,0,43.04,0,45.14v7.66c0,8.09,6.38,14.71,14.17,14.71h54.71c1.46,0,5.08-2.82,6.82-2.6,1.74.22,7.38,2.6,10.09,2.6h125.04c7.79,0,14.17-6.62,14.17-14.71v-10.81c0-6.51-2.32-10.51-2.46-11.66-.14-1.15,2.46-5.37,2.46-7.1v-8.51Z" class="cls-6"/></g><path data-cppathid="10223" d="m224.78,15.51c0-8.09-6.37-14.71-14.14-14.71h-14.95c-2.29,0-2.36,1.37-4.72,2.53-2.36,1.16-15.21-2.53-17.57-2.53H14.37C6.59.8.22,7.42.23,15.51v7.67c0,3.11,1.8,8.24,1.94,10.11.14,1.88-.14,5.2,0,6.36.14,1.16-1.94,4.19-1.94,6.29v7.66c0,8.09,6.36,14.71,14.14,14.71h54.6c1.46,0,5.07-2.82,6.81-2.6,1.74.22,7.36,2.6,10.07,2.6h124.79c7.78,0,14.14-6.62,14.14-14.71v-10.81c0-6.51-2.31-10.51-2.46-11.66-.14-1.15,2.46-5.37,2.46-7.1v-8.51Z" class="cls-2"/><path data-cppathid="10224" d="m225,14.71c0-8.09-6.38-14.71-14.17-14.71h-14.98c-2.3,0-2.37,1.37-4.73,2.53C188.75,3.69,175.87,0,173.51,0H14.17C6.38,0,0,6.62,0,14.71v7.67c0,3.11,1.81,8.24,1.95,10.11.14,1.88-.14,5.2,0,6.36C2.09,40.01,0,43.04,0,45.14v7.66c0,8.09,6.38,14.71,14.17,14.71h54.71c1.46,0,5.08-2.82,6.82-2.6,1.74.22,7.38,2.6,10.09,2.6h125.04c7.79,0,14.17-6.62,14.17-14.71v-10.81c0-6.51-2.32-10.51-2.46-11.66-.14-1.15,2.46-5.37,2.46-7.1v-8.51Z" class="cls-12"/><path data-cppathid="10225" d="m225,14.71c0-8.09-6.38-14.71-14.17-14.71h-14.98c-2.3,0-2.37,1.37-4.73,2.53C188.75,3.69,175.87,0,173.51,0H14.17C6.38,0,0,6.62,0,14.71v7.67c0,3.11,1.81,8.24,1.95,10.11.14,1.88-.14,5.2,0,6.36C2.09,40.01,0,43.04,0,45.14v7.66c0,8.09,6.38,14.71,14.17,14.71h54.71c1.46,0,5.08-2.82,6.82-2.6,1.74.22,7.38,2.6,10.09,2.6h125.04c7.79,0,14.17-6.62,14.17-14.71v-10.81c0-6.51-2.32-10.51-2.46-11.66-.14-1.15,2.46-5.37,2.46-7.1v-8.51Z" class="cls-10"/><path data-cppathid="10226" d="m225,14.71c0-8.09-6.38-14.71-14.17-14.71h-14.98c-2.3,0-2.37,1.37-4.73,2.53C188.75,3.69,175.87,0,173.51,0H14.17C6.38,0,0,6.62,0,14.71v7.67c0,3.11,1.81,8.24,1.95,10.11.14,1.88-.14,5.2,0,6.36C2.09,40.01,0,43.04,0,45.14v7.66c0,8.09,6.38,14.71,14.17,14.71h54.71c1.46,0,5.08-2.82,6.82-2.6,1.74.22,7.38,2.6,10.09,2.6h125.04c7.79,0,14.17-6.62,14.17-14.71v-10.81c0-6.51-2.32-10.51-2.46-11.66-.14-1.15,2.46-5.37,2.46-7.1v-8.51Z" class="cls-20"/></g><g id="Informasi"><g><g><path data-cppathid="10227" d="m41.19,9.29h146.51c15,0,27.17,12.18,27.17,27.17v.81c0,15-12.18,27.17-27.17,27.17H41.19c-15,0-27.17-12.17-27.17-27.17v-.82c0-15,12.17-27.17,27.17-27.17Z" class="cls-15"/><rect data-cppathid="10228" ry="24.41" rx="24.41" height="49.64" width="195.34" y="12.05" x="16.78" class="cls-16"/></g><path data-cppathid="10229" d="m212.12,37.07c0,7.1-2.69,13.53-7.03,18.19s-10.35,7.54-16.98,7.54H40.8c-13.26,0-24.02-11.52-24.02-25.73,0-.86.04-1.71.12-2.55,1.19,13.01,11.44,23.17,23.9,23.17h147.31c6.63,0,12.63-2.88,16.98-7.54,3.82-4.09,6.36-9.55,6.92-15.64.08.83.12,1.69.12,2.55Z" class="cls-9"/><path data-cppathid="10230" d="m212.12,35.09c0,.92-.05,1.83-.16,2.72-1.37-11.77-11.52-20.91-23.84-20.91H40.8c-6.64,0-12.64,2.64-16.98,6.92-3.73,3.67-6.25,8.56-6.87,13.99-.11-.89-.16-1.81-.16-2.72,0-6.53,2.69-12.44,7.03-16.71,4.34-4.28,10.34-6.92,16.98-6.92h147.32c13.26,0,24.01,10.58,24.01,23.63Z" class="cls-1"/></g><g><path data-cppathid="10231" d="m193.31,21.04c0,.96-.79,1.74-1.77,1.74s-1.77-.78-1.77-1.74.79-1.74,1.77-1.74,1.77.78,1.77,1.74Z" class="cls-11"/><path data-cppathid="10232" d="m201.08,24.23c-.26.75-3.31.4-5.19-.55-.73-.37-1.08-.72-1.17-1.15-.11-.53.19-1.15.58-1.41,1.5-1.02,6.14,2.1,5.79,3.11Z" class="cls-11"/></g></g></g><text data-cppathid="10233" transform="translate(74.16 43.97)" class="cls-23"><tspan data-cppathid="10234" y="0" x="0">REFERENSI</tspan></text><g><g><rect data-cppathid="10235" height="32.67" width="8.4" y="21.56" x="34.48" class="cls-17"/><rect data-cppathid="10236" height="2.16" width="6.82" y="22.39" x="35.27" class="cls-7"/><rect data-cppathid="10237" height="2.16" width="6.82" y="51.24" x="35.27" class="cls-7"/></g><g><rect data-cppathid="10238" height="32.67" width="8.4" y="21.56" x="43.78" class="cls-22"/><rect data-cppathid="10239" height="2.16" width="6.82" y="22.39" x="44.57" class="cls-19"/><rect data-cppathid="10240" height="2.16" width="6.82" y="51.24" x="44.57" class="cls-19"/></g><g><g><rect data-cppathid="10241" transform="translate(-7.58 17.11) rotate(-15)" height="32.67" width="8.4" y="21.02" x="57" class="cls-13"/><rect data-cppathid="10242" transform="translate(-4.11 15.68) rotate(-15)" height="2.17" width="6.82" y="22.35" x="54.06" class="cls-21"/><rect data-cppathid="10243" transform="translate(-11.06 18.56) rotate(-15)" height="2.16" width="6.82" y="50.21" x="61.53" class="cls-21"/></g><g><path data-cppathid="10244" d="m61.95,45.93c-.04-.1-.08-.19-.1-.29-.03-.1-.04-.2-.06-.3l2.88-.77c.04.1.08.19.1.29.03.1.04.2.05.3l-2.88.77Z" class="cls-18"/><path data-cppathid="10245" d="m61.99,44.09l.19.72c-.08.04-.16.07-.25.09-.08.02-.17.04-.25.04l-.54-2.02c.07-.04.16-.07.24-.09.09-.02.17-.04.26-.04l.19.72,2.38-.64s.04.09.05.14c.02.05.03.09.04.14.01.04.02.09.03.15.01.05.02.11.03.16l-2.38.64Z" class="cls-18"/><path data-cppathid="10246" d="m60.93,42.13c-.02-.05-.04-.11-.06-.16-.02-.05-.03-.11-.05-.17-.01-.05-.03-.11-.04-.16,0-.05-.02-.11-.03-.17l2.64-1.67c.04.11.08.21.11.31.03.1.05.2.06.3l-.53.32.26.95h.62c.04.1.07.19.1.28.03.1.04.2.06.3l-3.12-.14Zm1.65-1.13l-1.12.66,1.3.02-.18-.68Z" class="cls-18"/><path data-cppathid="10247" d="m60.43,40.25c-.04-.09-.07-.19-.1-.28-.02-.09-.04-.19-.05-.3l2.37-.64-.27-1s.09-.04.13-.05c.04-.01.08-.02.12-.03.04-.01.09-.02.13-.03.04,0,.09-.02.13-.02l.42,1.57-2.88.77Z" class="cls-18"/><path data-cppathid="10248" d="m59.9,38.28c-.04-.09-.07-.19-.1-.29-.03-.1-.04-.2-.06-.3l2.88-.77c.04.1.08.19.1.29.03.1.04.2.05.3l-2.88.77Z" class="cls-18"/><path data-cppathid="10249" d="m59.42,36.46c-.02-.05-.04-.11-.06-.16-.02-.05-.03-.11-.05-.17-.01-.05-.03-.11-.04-.16-.01-.05-.02-.11-.03-.17l2.64-1.67c.04.11.08.21.11.31.03.1.05.2.05.3l-.53.31.26.95h.62c.04.1.07.19.1.28.03.1.04.2.05.3l-3.12-.14Zm1.65-1.13l-1.12.66,1.3.03-.18-.68Z" class="cls-18"/><path data-cppathid="10250" d="m58.91,34.58c-.04-.08-.07-.16-.09-.23-.02-.08-.04-.16-.04-.26l1.54-1.6-1.83.49c-.04-.09-.07-.18-.1-.27-.02-.08-.04-.17-.04-.25l2.88-.77c.04.08.07.16.09.23.02.07.03.16.04.25l-1.53,1.61,1.83-.49c.04.08.07.17.09.26.02.09.04.17.04.26l-2.88.77Z" class="cls-18"/><path data-cppathid="10251" d="m60.81,29.95c.06.22.07.41.04.59-.03.18-.1.33-.21.47-.11.14-.24.25-.41.35-.17.1-.36.18-.57.23-.21.06-.42.08-.61.08-.2,0-.37-.03-.54-.1-.16-.07-.3-.17-.42-.3-.12-.14-.2-.31-.26-.53-.06-.22-.07-.41-.04-.59.03-.18.1-.34.21-.47.11-.14.24-.25.41-.35.17-.1.36-.18.57-.23.21-.06.42-.09.61-.08.19,0,.37.03.53.1.16.07.3.17.41.3.12.14.2.31.26.53Zm-.49.13c-.11-.41-.5-.53-1.16-.35-.33.09-.56.2-.7.35-.14.15-.18.32-.12.53.11.42.5.54,1.16.36.66-.18.94-.47.83-.89Z" class="cls-18"/></g></g></g><text data-cppathid="10252" transform="translate(39.9 47.22) rotate(-90)" class="cls-28"><tspan data-cppathid="10253" y="0" x="0" class="cls-25">C</tspan><tspan data-cppathid="10254" y="0" x="2.41">ULINA</tspan><tspan data-cppathid="10255" y="0" x="13.46" class="cls-29">R</tspan><tspan data-cppathid="10256" y="0" x="15.87">Y</tspan></text><text data-cppathid="10257" transform="translate(49.34 42.27) rotate(-90)" class="cls-27"><tspan data-cppathid="10258" y="0" x="0">ASIA</tspan></text><rect data-cppathid="10259" transform="translate(-8.06 18.5) rotate(-16.1)" height="18.49" width="6.89" y="28.5" x="57.92" class="cls-13"/></g></g></g></g></svg>