<?xml version="1.0" encoding="UTF-8"?>
<svg xmlns="http://www.w3.org/2000/svg" onmouseup="{ if(window.parent.document.onmouseup) window.parent.document.onmouseup(arguments[0]);}" xml:space="preserve" style="enable-background:new 0 0 36 36;" viewBox="0 0 36 36" y="0px" x="0px" id="S_NamingOrder_18_N_2x" version="1.1" xmlns:xlink="http://www.w3.org/1999/xlink"><style type="text/css">
	.st0{fill:#FFFFFF;}
</style><path data-cppathid="10000" d="M6.2,16.7l-1.5,5C4.6,21.9,4.5,22,4.3,22H1.5c-0.2,0-0.2-0.1-0.2-0.3L7.1,3.9c0.2-0.5,0.3-1.1,0.3-1.6  C7.3,2.1,7.4,2,7.5,2h3.9c0.1,0,0.2,0,0.2,0.2l6.5,19.5c0,0.2,0,0.3-0.2,0.3h-3.1c-0.1,0-0.2-0.1-0.3-0.2l-1.6-5.1H6.2z M12,13.4  c-0.6-2-1.9-6.2-2.5-8.4h0c-0.4,2-1.6,5.6-2.4,8.4H12z" class="st0"/><path data-cppathid="10001" d="M19.2,34c-0.1,0-0.2,0-0.2-0.2v-2c0-0.1,0-0.3,0.1-0.4l9.7-14.1h-9.4c-0.1,0-0.2,0-0.2-0.2l0.4-2.8  c0-0.2,0.1-0.2,0.3-0.2h13c0.1,0,0.2,0.1,0.2,0.2v2.2c0,0.2,0,0.3-0.1,0.4l-9.6,13.9h10c0.1,0,0.2,0.1,0.1,0.3l-0.4,2.8  c0,0.2-0.1,0.2-0.3,0.2L19.2,34z" class="st0"/></svg>