<?xml version="1.0" encoding="UTF-8"?>
<svg xmlns="http://www.w3.org/2000/svg" onmouseup="{ if(window.parent.document.onmouseup) window.parent.document.onmouseup(arguments[0]);}" xml:space="preserve" style="enable-background:new 0 0 36 36;" viewBox="0 0 36 36" y="0px" x="0px" id="S_Demographic_18_N_2x" version="1.1" xmlns:xlink="http://www.w3.org/1999/xlink"><style type="text/css">
	.st0{fill:#FFFFFF;}
</style><path data-cppathid="10000" d="M7.9,8.1c2.2,0,3.9-1.7,3.9-3.9s-1.7-3.9-3.9-3.9S4,2,4,4.2l0,0C4,6.4,5.8,8.1,7.9,8.1z" class="st0"/><path data-cppathid="10001" d="M17.9,8.1c2.2,0,3.9-1.7,3.9-3.9c0-2.2-1.7-3.9-3.9-3.9S14,2,14,4.2v0C14,6.4,15.8,8.1,17.9,8.1z" class="st0"/><path data-cppathid="10002" d="M27.9,8.1c2.2,0,3.9-1.7,3.9-3.9c0-2.2-1.7-3.9-3.9-3.9S24,2,24,4.2v0C24,6.4,25.8,8.1,27.9,8.1z" class="st0"/><path data-cppathid="10003" d="M28.1,10h-0.4c-1.8-0.1-3.6,0.6-4.8,1.9c-1.2-1.3-3-2-4.8-1.9h-0.4c-1.8-0.1-3.6,0.6-4.8,1.9  c-1.2-1.3-3-2-4.8-1.9H7.7c-3.2,0-5.8,1.6-5.8,4.8V22c0,0.6,0.4,1,1,1h1l1,10c0,0.6,0.4,1,1,1h4c0.6,0,1-0.4,1-1l1-10h2l1,10  c0,0.6,0.4,1,1,1h4c0.6,0,1-0.4,1-1l1-10h2l1,10c0,0.6,0.4,1,1,1h4c0.6,0,1-0.4,1-1l1-10h1c0.6,0,1-0.4,1-1v-7.2  C33.9,11.6,31.3,10,28.1,10z" class="st0"/></svg>