<?xml version="1.0" encoding="UTF-8"?>
<svg xmlns="http://www.w3.org/2000/svg" onmouseup="{ if(window.parent.document.onmouseup) window.parent.document.onmouseup(arguments[0]);}" viewBox="0 0 89.06 89.06"><defs><style>.cls-1{fill:#772089;}.cls-2{fill:#ee3f6c;}.cls-3{fill:#b11f6f;}.cls-4,.cls-5{fill:#fff;}.cls-5{opacity:0.34;}</style></defs><g data-name="Layer 2" id="Layer_2"><g id="Button"><g id="hover"><path data-cppathid="10000" d="M44.53,89.06h0A44.53,44.53,0,0,1,0,44.53H0A44.53,44.53,0,0,1,44.53,0h0A44.53,44.53,0,0,1,89.06,44.53h0A44.53,44.53,0,0,1,44.53,89.06Z" class="cls-1"/><path data-cppathid="10001" d="M44.53,80.41h0A35.87,35.87,0,0,1,8.65,44.53h0A35.87,35.87,0,0,1,44.53,8.65h0A35.87,35.87,0,0,1,80.41,44.53h0A35.87,35.87,0,0,1,44.53,80.41Z" class="cls-2"/><path data-cppathid="10002" d="M48.19,74.31h0A33.65,33.65,0,0,1,14.55,40.66h0a33.65,33.65,0,0,1,19-30.31A35.9,35.9,0,0,0,8.65,44.53h0A35.87,35.87,0,0,0,44.53,80.41h0a35.89,35.89,0,0,0,34.72-26.8A33.65,33.65,0,0,1,48.19,74.31Z" class="cls-3"/><path data-cppathid="10003" d="M54.32,26.1l-8.71,8.7L36.9,26.1a5.14,5.14,0,0,0-7.27,7.27l8.71,8.71-8.71,8.7a5.14,5.14,0,0,0,7.27,7.27l8.71-8.7,8.71,8.7a5.14,5.14,0,0,0,7.27-7.27l-8.71-8.7,8.71-8.71C66.29,28.51,59.18,21.4,54.32,26.1Z" class="cls-4"/><path data-cppathid="10004" d="M52,15.25A3.26,3.26,0,1,1,48.78,12,3.26,3.26,0,0,1,52,15.25Z" class="cls-5"/><path data-cppathid="10005" d="M66.35,21.23c-.48,1.41-6.1.74-9.57-1-1.35-.69-2-1.36-2.16-2.16a2.83,2.83,0,0,1,1.06-2.65C58.45,13.49,67,19.34,66.35,21.23Z" class="cls-5"/></g></g></g></svg>