<?xml version="1.0" encoding="UTF-8"?>
<svg xmlns="http://www.w3.org/2000/svg" onmouseup="{ if(window.parent.document.onmouseup) window.parent.document.onmouseup(arguments[0]);}" viewBox="0 0 89.06 89.06"><defs><style>.cls-1{isolation:isolate;}.cls-2{fill:#1c8284;}.cls-3,.cls-4{fill:#60a7a8;}.cls-4{mix-blend-mode:multiply;opacity:0.5;}.cls-5,.cls-6{fill:#fff;}.cls-5{opacity:0.9;}.cls-6{opacity:0.34;}</style></defs><g class="cls-1"><g data-name="Layer 2" id="Layer_2"><g id="Button"><g id="hover"><path data-cppathid="10000" d="M44.53,89.06h0A44.53,44.53,0,0,1,0,44.53H0A44.53,44.53,0,0,1,44.53,0h0A44.53,44.53,0,0,1,89.06,44.53h0A44.53,44.53,0,0,1,44.53,89.06Z" class="cls-2"/><path data-cppathid="10001" d="M44.53,80.41h0A35.87,35.87,0,0,1,8.65,44.53h0A35.87,35.87,0,0,1,44.53,8.65h0A35.87,35.87,0,0,1,80.41,44.53h0A35.87,35.87,0,0,1,44.53,80.41Z" class="cls-3"/><path data-cppathid="10002" d="M48.19,74.31h0A33.65,33.65,0,0,1,14.55,40.66h0a33.65,33.65,0,0,1,19-30.31A35.9,35.9,0,0,0,8.65,44.53h0A35.87,35.87,0,0,0,44.53,80.41h0a35.89,35.89,0,0,0,34.72-26.8A33.65,33.65,0,0,1,48.19,74.31Z" class="cls-4"/><path data-cppathid="10003" d="M51.41,26.31,65.29,40.2a5.6,5.6,0,0,1,0,7.94L51.41,62a5.59,5.59,0,0,1-4.26,1.62,5.5,5.5,0,0,1-2.66-.4A5.6,5.6,0,0,1,41,58.05V54.29H27.74a5.62,5.62,0,0,1-5.62-5.62v-9a5.62,5.62,0,0,1,5.62-5.61H41V30.29a5.59,5.59,0,0,1,3.46-5.19,5.68,5.68,0,0,1,2.67-.41A5.63,5.63,0,0,1,51.41,26.31Z" class="cls-5"/><path data-cppathid="10004" d="M50.46,14.23A3.26,3.26,0,1,1,47.21,11,3.25,3.25,0,0,1,50.46,14.23Z" class="cls-6"/><path data-cppathid="10005" d="M64.78,20.21c-.48,1.41-6.1.75-9.57-1-1.35-.69-2-1.36-2.16-2.16a2.77,2.77,0,0,1,1.06-2.64C56.88,12.47,65.42,18.32,64.78,20.21Z" class="cls-6"/></g></g></g></g></svg>