<?xml version="1.0" encoding="UTF-8"?>
<svg xmlns="http://www.w3.org/2000/svg" onmouseup="{ if(window.parent.document.onmouseup) window.parent.document.onmouseup(arguments[0]);}" viewBox="0 0 89.06 89.06"><defs><style>.cls-1{isolation:isolate;}.cls-2{fill:#1c8284;}.cls-3,.cls-4{fill:#60a7a8;}.cls-4{mix-blend-mode:multiply;opacity:0.5;}.cls-5,.cls-6{fill:#fff;}.cls-5{opacity:0.9;}.cls-6{opacity:0.34;}</style></defs><g class="cls-1"><g data-name="Layer 2" id="Layer_2"><g id="Button"><g id="hover"><path data-cppathid="10000" d="M44.53,89.06h0A44.53,44.53,0,0,1,0,44.53H0A44.53,44.53,0,0,1,44.53,0h0A44.53,44.53,0,0,1,89.06,44.53h0A44.53,44.53,0,0,1,44.53,89.06Z" class="cls-2"/><path data-cppathid="10001" d="M44.53,80.41h0A35.87,35.87,0,0,1,8.65,44.53h0A35.87,35.87,0,0,1,44.53,8.65h0A35.87,35.87,0,0,1,80.41,44.53h0A35.87,35.87,0,0,1,44.53,80.41Z" class="cls-3"/><path data-cppathid="10002" d="M48.19,74.31h0A33.65,33.65,0,0,1,14.55,40.66h0a33.65,33.65,0,0,1,19-30.31A35.9,35.9,0,0,0,8.65,44.53h0A35.87,35.87,0,0,0,44.53,80.41h0a35.89,35.89,0,0,0,34.72-26.8A33.65,33.65,0,0,1,48.19,74.31Z" class="cls-4"/><path data-cppathid="10003" d="M31.57,57.5V28.14a4.17,4.17,0,0,1,6.33-3.57L62.22,39.24a4.18,4.18,0,0,1,0,7.15L37.9,61.07A4.17,4.17,0,0,1,31.57,57.5Z" class="cls-5"/><path data-cppathid="10004" d="M50.61,17.22A3.26,3.26,0,1,1,47.35,14,3.25,3.25,0,0,1,50.61,17.22Z" class="cls-6"/><path data-cppathid="10005" d="M64.92,23.2c-.48,1.41-6.1.74-9.57-1-1.35-.69-2-1.36-2.16-2.16a2.81,2.81,0,0,1,1.06-2.64C57,15.46,65.57,21.31,64.92,23.2Z" class="cls-6"/></g></g></g></g></svg>