<?xml version="1.0" encoding="UTF-8"?>
<svg xmlns="http://www.w3.org/2000/svg" onmouseup="{ if(window.parent.document.onmouseup) window.parent.document.onmouseup(arguments[0]);}" viewBox="0 0 75.63 66.5" xmlns:xlink="http://www.w3.org/1999/xlink"><defs><style>
      .cls-1 {
        fill: #929497;
      }

      .cls-1, .cls-2, .cls-3, .cls-4, .cls-5, .cls-6, .cls-7, .cls-8, .cls-9, .cls-10, .cls-11, .cls-12, .cls-13, .cls-14, .cls-15, .cls-16 {
        stroke-width: 0px;
      }

      .cls-2 {
        fill: #ff9a36;
      }

      .cls-3 {
        fill: #17c5cc;
      }

      .cls-4 {
        fill: #f97069;
      }

      .cls-5 {
        fill: #bdbdbd;
        mix-blend-mode: overlay;
        opacity: .41;
      }

      .cls-17 {
        isolation: isolate;
      }

      .cls-18, .cls-11 {
        fill: #fff;
      }

      .cls-18, .cls-19 {
        stroke: #000;
        stroke-miterlimit: 10;
        stroke-width: .1px;
      }

      .cls-6 {
        fill: none;
      }

      .cls-7 {
        fill: #d8e0e7;
      }

      .cls-8, .cls-19 {
        fill: #cd608e;
      }

      .cls-9 {
        fill: #b0bec5;
      }

      .cls-10 {
        fill: #90a4ae;
      }

      .cls-20 {
        clip-path: url(#clippath);
      }

      .cls-12 {
        fill: #f4cd25;
      }

      .cls-13 {
        fill: #2a445d;
      }

      .cls-14 {
        fill: #68787a;
      }

      .cls-15 {
        fill: #cfd8dc;
      }

      .cls-16 {
        fill: #306b88;
      }
    </style><clipPath id="clippath"><path data-cppathid="10000" d="m72.86,50.63c-.26.33-.59.58-.95.77-.42.21-.88.33-1.35.33s-.93-.12-1.35-.33c-.36-.19-.69-.46-.95-.77-.73.65-1.14,1.57-1.14,2.55v1.73h6.92v-1.75c-.03-.98-.45-1.9-1.18-2.53Z" class="cls-6"/></clipPath></defs><g class="cls-17"><g data-name="Layer 2" id="Layer_2"><g id="Button"><g data-name="10" id="_10"><g data-name="5" id="_5"><g><g><g><polygon data-cppathid="10001" points="35.88 48.02 30.28 47.28 24.69 48.02 24.3 50.21 36.26 50.21 35.88 48.02" class="cls-10"/><polygon data-cppathid="10002" points="36.26 50.21 24.3 50.21 23.15 56.74 37.41 56.74 36.26 50.21" class="cls-9"/><path data-cppathid="10003" d="m43.56,58.92l-.68-1.04c-.8-.53-5.38-.82-5.38-.82h-.02s-.06-.32-.06-.32h-14.26l-.06.32h-.02s-4.58.3-5.39.82l-.68,1.04c-.28.18,0,.5.45.5h25.65c.45,0,.73-.31.45-.5Z" class="cls-15"/></g><g><path data-cppathid="10004" d="m.24,9.82h60.09c.13,0,.24.11.24.24v37.93c0,.13-.11.24-.24.24H.24c-.13,0-.24-.11-.24-.24V10.05c0-.13.11-.24.24-.24Z" class="cls-15"/><rect data-cppathid="10005" height="33.09" width="54.06" y="12.47" x="3.25" class="cls-14"/></g></g><polygon data-cppathid="10006" points="42.03 13.12 4.04 13.12 4.04 13.43 4.04 44.74 33.58 44.74 42.03 44.74 56.36 44.74 56.36 13.12 42.03 13.12" class="cls-13"/></g></g><polygon data-cppathid="10007" points="4.04 13.6 4.04 44.74 33.58 44.74 42.03 44.74 56.36 44.74 56.36 44.51 4.04 13.6" class="cls-5"/><path data-cppathid="10008" d="m49.2,7.74l-.2-2.23-1.68-.13c-.13-.36.52-1.8.32-2.14l.15-.28-1.59-1.58-1.36.97c-.34-.2-.7-.37-1.07-.5l-.14-1.65-2.23-.19-.41,1.6c-.39.06-.78.17-1.16.31l-1.16-1.17-.05.04-1.78,1.25.71,1.49c-.26.31-.49.64-.68.99l-1.64-.15-.57,2.16,1.51.69c0,.4.03.79.11,1.18l-1.36.94.95,2.03,1.62-.45c.25.31.53.58.83.82l-.44,1.62,2.03.94.96-1.39c.38.07.76.1,1.15.09l.71,1.53,2.16-.58-.08-.86-.08-.83c.16-.09.32-.19.47-.3.16-.11.32-.24.46-.36l1.53.72,1.28-1.84-1.21-1.19c.14-.36.23-.73.29-1.11l1.63-.43Zm-5.24,2.44c-.15.11-.31.19-.47.27-1.55.77-3.48.32-4.51-1.14-1.13-1.61-.75-3.84.87-4.97.14-.1.29-.18.44-.26,1.56-.79,3.5-.35,4.54,1.12,1.13,1.61.75,3.84-.87,4.97Z" class="cls-3"/><path data-cppathid="10009" d="m63.33,7.37l-.4-2.2-1.68.02c-.16-.35-.35-.69-.59-1.01l.84-1.45-1.72-1.43-1.26,1.09c-.36-.17-.73-.3-1.12-.4l-.29-1.63h-2.24s-.27,1.64-.27,1.64c-.38.1-.76.24-1.12.42l-1.26-1.06-.05.04-1.66,1.41.84,1.42c-.23.33-.43.68-.59,1.04h-1.64s-.37,2.21-.37,2.21l1.57.55c.03.39.11.79.22,1.17l-1.27,1.06,1.13,1.93,1.57-.59c.28.28.58.53.9.74l-.29,1.65,2.11.75.83-1.48c.38.03.77.03,1.16-.01l.84,1.46,2.1-.78-.16-.85-.16-.82c.15-.11.3-.22.44-.34.15-.13.29-.26.43-.4l1.59.58,1.11-1.95-1.31-1.08c.1-.37.17-.75.19-1.13l1.59-.58Zm-5,2.91c-.14.12-.29.22-.44.31-1.48.91-3.43.64-4.59-.73-1.28-1.5-1.09-3.75.41-5.03.13-.11.27-.21.41-.3,1.48-.93,3.45-.67,4.62.71,1.28,1.5,1.09,3.75-.41,5.03Z" class="cls-4"/><path data-cppathid="10010" d="m61.31,22.14l-.27-3.04-2.29-.18c-.17-.49-.39-.97-.67-1.44l1.31-1.86-2.16-2.15-1.85,1.32c-.47-.28-.95-.5-1.46-.68l-.19-2.25-3.04-.26-.56,2.18c-.53.09-1.06.23-1.57.43l-1.58-1.59-.07.05-2.42,1.7.97,2.03c-.36.42-.67.87-.93,1.34l-2.23-.2-.78,2.95,2.06.94c0,.54.04,1.08.15,1.61l-1.85,1.29,1.3,2.76,2.2-.61c.34.42.73.79,1.13,1.12l-.6,2.2,2.77,1.28,1.31-1.9c.52.09,1.04.14,1.57.13l.96,2.09,2.94-.8-.11-1.17-.11-1.13c.22-.13.44-.26.65-.41.22-.16.43-.32.63-.49l2.09.98,1.74-2.5-1.65-1.62c.18-.49.32-1,.4-1.51l2.22-.59Zm-7.13,3.33c-.2.14-.42.26-.64.37-2.11,1.05-4.73.44-6.14-1.55-1.54-2.19-1.02-5.23,1.18-6.77.19-.13.39-.25.59-.35,2.12-1.08,4.77-.48,6.18,1.53,1.55,2.19,1.02,5.23-1.18,6.77Z" class="cls-12"/><g data-name="16" id="_16"><g><g><g><path data-cppathid="10011" d="m48.52,34.36v28.77c0,1.85,1.29,3.37,2.87,3.37h16.74c1.58,0,2.87-1.52,2.87-3.37v-28.77c0-1.85-1.29-3.37-2.87-3.37h-16.74c-1.58,0-2.87,1.52-2.87,3.37Z" class="cls-9"/><polygon data-cppathid="10012" points="51.57 34.9 51.22 34.9 51.22 59.3 68.3 59.3 68.3 59.16 68.3 59.12 68.3 34.9 51.57 34.9" class="cls-13"/></g><path data-cppathid="10013" d="m59.71,62.13c.87,0,1.58.71,1.58,1.58s-.71,1.58-1.58,1.58-1.58-.71-1.58-1.58.71-1.58,1.58-1.58Z" class="cls-7"/><path data-cppathid="10014" d="m58.87,32.94c-.17,0-.31-.14-.31-.31,0-.17.14-.31.31-.31h2.92s0,.01,0,.01c.17,0,.31.14.31.31,0,.17-.14.31-.31.31l-2.92-.02h0Z" class="cls-1"/><path data-cppathid="10015" d="m57.45,33.93c-.17,0-.31-.14-.31-.31,0-.17.14-.31.31-.31l5.22.03h0c.17,0,.31.14.31.31,0,.17-.14.31-.31.31l-5.22-.03h0Z" class="cls-1"/></g><path data-cppathid="10016" d="m55.11,32.49c.42,0,.75.34.75.75s-.34.75-.75.75-.75-.34-.75-.75.34-.75.75-.75Z" class="cls-1"/></g></g><g><polygon data-cppathid="10017" points="38.55 17.27 12.44 17.27 12.44 42.13 30.83 42.13 38.55 36.05 38.55 17.27" class="cls-2"/><polygon data-cppathid="10018" points="36.96 18.78 14.03 18.78 14.03 40.62 30.18 40.62 36.96 35.28 36.96 18.78" class="cls-11"/><g><rect data-cppathid="10019" height="2.62" width="19.69" y="29.54" x="15.28" class="cls-16"/><rect data-cppathid="10020" height="2.62" width="19.69" y="21.51" x="15.28" class="cls-16"/><rect data-cppathid="10021" height="2.62" width="19.69" y="25.53" x="15.28" class="cls-16"/><rect data-cppathid="10022" height="2.62" width="19.69" y="33.56" x="15.28" class="cls-16"/></g><polygon data-cppathid="10023" points="38.55 36.05 30.83 42.13 30.83 36.05 38.55 36.05" class="cls-2"/></g><g><polygon data-cppathid="10024" points="66.33 36.88 53.94 36.88 53.94 57.17 62.67 57.17 66.33 52.2 66.33 36.88" class="cls-2"/><polygon data-cppathid="10025" points="65.58 38.11 54.7 38.11 54.7 55.93 62.36 55.93 65.58 51.57 65.58 38.11" class="cls-11"/><g><rect data-cppathid="10026" height="2.13" width="9.34" y="46.89" x="55.29" class="cls-16"/><rect data-cppathid="10027" height="2.13" width="9.34" y="40.34" x="55.29" class="cls-16"/><rect data-cppathid="10028" height="2.13" width="9.34" y="43.61" x="55.29" class="cls-16"/><rect data-cppathid="10029" height="2.13" width="9.34" y="50.17" x="55.29" class="cls-16"/></g><polygon data-cppathid="10030" points="66.33 52.2 62.67 57.17 62.67 52.2 66.33 52.2" class="cls-2"/></g><path data-cppathid="10031" d="m47.36,51.58l-6.32-3.65v2.69H8.42v-12.09c0-.54-.44-.98-.98-.98s-.98.44-.98.98v13.07c0,.54.44.98.98.98h33.6v2.64l6.32-3.65Z" class="cls-4"/></g><g><circle data-cppathid="10032" r="5" cy="49.73" cx="70.58" class="cls-18"/><g class="cls-20"><circle data-cppathid="10033" r="5" cy="49.73" cx="70.58" class="cls-19"/></g><path data-cppathid="10034" d="m70.54,46.81c1.04,0,1.89.84,1.89,1.86s-.84,1.87-1.89,1.87-1.89-.84-1.89-1.87.84-1.86,1.89-1.86Z" class="cls-8"/></g></g></g></g></svg>