<?xml version="1.0" encoding="UTF-8"?>
<svg xmlns="http://www.w3.org/2000/svg" onmouseup="{ if(window.parent.document.onmouseup) window.parent.document.onmouseup(arguments[0]);}" version="1.0" preserveAspectRatio="xMidYMid meet" height="95" viewBox="0 0 105.75 71.249999" zoomAndPan="magnify" width="141" xmlns:xlink="http://www.w3.org/1999/xlink"><defs><filter id="f26d1f355e" height="100%" width="100%" y="0%" x="0%"><feColorMatrix color-interpolation-filters="sRGB" values="0 0 0 0 1 0 0 0 0 1 0 0 0 0 1 0 0 0 1 0"/></filter><clipPath id="7aed8ddff6"><path data-cppathid="10000" clip-rule="nonzero" d="M 0.425781 0 L 104.332031 0 L 104.332031 70.507812 L 0.425781 70.507812 Z M 0.425781 0 "/></clipPath><clipPath id="87a118fac9"><path data-cppathid="10001" clip-rule="nonzero" d="M 0.425781 0 L 104 0 L 104 70 L 0.425781 70 Z M 0.425781 0 "/></clipPath><mask id="b18e856808"><g filter="url(#f26d1f355e)"><rect data-cppathid="10002" fill-opacity="0.1" height="85.499999" y="-7.125" fill="#000000" width="126.9" x="-10.575"/></g></mask><clipPath id="e9147f36e1"><path data-cppathid="10003" clip-rule="nonzero" d="M 0.425781 0 L 103.976562 0 L 103.976562 69.824219 L 0.425781 69.824219 Z M 0.425781 0 "/></clipPath><clipPath id="7bfae305be"><rect data-cppathid="10004" height="70" y="0" width="104" x="0"/></clipPath><mask id="302140f546"><g filter="url(#f26d1f355e)"><rect data-cppathid="10005" fill-opacity="0.1" height="85.499999" y="-7.125" fill="#000000" width="126.9" x="-10.575"/></g></mask><clipPath id="17d604b492"><path data-cppathid="10006" clip-rule="nonzero" d="M 0.738281 1 L 1.925781 1 L 1.925781 2.210938 L 0.738281 2.210938 Z M 0.738281 1 "/></clipPath><clipPath id="c42340e0de"><rect data-cppathid="10007" height="3" y="0" width="2" x="0"/></clipPath><mask id="51147e6225"><g filter="url(#f26d1f355e)"><rect data-cppathid="10008" fill-opacity="0.1" height="85.499999" y="-7.125" fill="#000000" width="126.9" x="-10.575"/></g></mask><clipPath id="45bdfb2838"><path data-cppathid="10009" clip-rule="nonzero" d="M 0.277344 1 L 1.464844 1 L 1.464844 2.210938 L 0.277344 2.210938 Z M 0.277344 1 "/></clipPath><clipPath id="2577135492"><rect data-cppathid="10010" height="3" y="0" width="2" x="0"/></clipPath><clipPath id="2c020188d1"><path data-cppathid="10011" clip-rule="nonzero" d="M 0.425781 0 L 104.332031 0 L 104.332031 70.507812 L 0.425781 70.507812 Z M 0.425781 0 "/></clipPath><mask id="a3127666c6"><g filter="url(#f26d1f355e)"><rect data-cppathid="10012" fill-opacity="0.2" height="85.499999" y="-7.125" fill="#000000" width="126.9" x="-10.575"/></g></mask><clipPath id="4dfa8f24a6"><path data-cppathid="10013" clip-rule="nonzero" d="M 0.425781 0 L 104.332031 0 L 104.332031 70.507812 L 0.425781 70.507812 Z M 0.425781 0 "/></clipPath><clipPath id="8eb8796b92"><rect data-cppathid="10014" height="71" y="0" width="105" x="0"/></clipPath></defs><path data-cppathid="10015" fill-rule="nonzero" fill-opacity="1" d="M 2.925781 2.121094 L 102.042969 2.121094 L 102.042969 67.351562 L 2.925781 67.351562 Z M 2.925781 2.121094 " fill="#ffead6"/><g clip-path="url(#7aed8ddff6)"><path data-cppathid="10016" fill-rule="nonzero" fill-opacity="1" d="M 103.828125 0 L 0.4375 0 L 0.4375 69.683594 L 1.230469 70.476562 L 104.613281 70.511719 L 104.589844 0.792969 Z M 100.9375 67.140625 L 4.191406 67.140625 L 4.203125 3.441406 L 100.9375 3.441406 Z M 100.9375 67.140625 " fill="#bf977b"/></g><g clip-path="url(#87a118fac9)"><g mask="url(#b18e856808)"><g transform="matrix(1, 0, 0, 1, 0.000000000000000056, 0.000000000000003143)"><g clip-path="url(#7bfae305be)"><g clip-path="url(#e9147f36e1)"><path data-cppathid="10017" fill-rule="nonzero" fill-opacity="1" d="M 13.476562 69.117188 C 13.175781 69.15625 13.242188 69.230469 12.9375 69.242188 C 12.265625 69.140625 12.871094 69.128906 13.476562 69.117188 Z M 12.429688 68.976562 L 12.046875 68.90625 C 12.128906 68.933594 12.246094 68.957031 12.429688 68.976562 Z M 14.007812 68.671875 L 13.414062 68.707031 L 14.027344 68.777344 Z M 14.667969 68.988281 L 13.445312 68.851562 L 13.304688 68.867188 L 14.527344 69.007812 Z M 100.308594 1.828125 C 101.613281 1.917969 101.53125 1.746094 102.070312 1.761719 C 101.199219 1.695312 100.675781 1.683594 100.308594 1.828125 Z M 17.507812 68.304688 L 13.539062 68.582031 C 12.941406 68.585938 12.777344 68.496094 13.058594 68.425781 C 11.734375 68.480469 11.253906 68.324219 9.777344 68.398438 L 10.644531 68.289062 C 8.980469 68.171875 9.488281 68.4375 7.222656 68.316406 L 7.398438 68.441406 L 6.636719 68.355469 C 6.050781 68.429688 5.648438 68.625 4.582031 68.503906 L 4.773438 68.699219 C 4.019531 68.683594 4.285156 68.503906 3.390625 68.507812 C 2.800781 68.542969 2.523438 68.652344 2.984375 68.703125 C 2.554688 68.707031 2.058594 68.679688 1.542969 68.644531 L 3.015625 67.183594 C 3.078125 67.183594 3.140625 67.191406 3.203125 67.195312 L 3.835938 67.167969 C 4.15625 67.203125 4.710938 67.222656 5.113281 67.25 C 5.246094 67.207031 4.9375 67.136719 5.484375 67.113281 C 5.578125 67.179688 5.464844 67.238281 5.488281 67.292969 C 5.5625 67.308594 5.601562 67.328125 5.585938 67.351562 C 5.679688 67.378906 5.847656 67.40625 6.148438 67.429688 C 6.992188 67.214844 9.109375 67.351562 10.28125 67.242188 L 11.796875 67.378906 L 10.636719 67.527344 L 11.234375 67.523438 C 10.253906 67.828125 10.011719 67.386719 8.5625 67.601562 L 8.46875 67.832031 L 7.417969 67.820312 C 7.285156 67.910156 7.757812 68.03125 8.210938 68.046875 C 8.648438 68.027344 9.363281 67.867188 9.792969 67.777344 C 9.640625 67.761719 9.632812 67.722656 9.1875 67.742188 C 10.644531 67.5625 9.363281 67.867188 10.550781 67.828125 C 10.085938 67.738281 11.121094 67.683594 11.550781 67.628906 C 11.882812 67.769531 13.972656 67.800781 14.699219 67.707031 L 15.921875 67.847656 L 16.640625 67.722656 C 17.390625 67.90625 20.472656 67.5 21.582031 67.738281 C 21.484375 67.671875 22.644531 67.660156 23.03125 67.613281 C 24.085938 67.664062 23.066406 67.789062 24.414062 67.804688 C 23.921875 67.609375 25.902344 67.835938 26.632812 67.710938 C 26.757812 67.84375 25.359375 67.914062 24.914062 67.945312 L 23.675781 67.859375 C 24 67.964844 22.792969 67.898438 23.261719 68.019531 C 21.457031 67.957031 20.570312 67.957031 18.011719 67.839844 C 18.167969 67.894531 18.03125 67.949219 18.332031 67.984375 L 16.371094 67.941406 C 17.160156 67.988281 17.398438 68.296875 19.125 68.210938 L 17.355469 68.289062 Z M 4.03125 67.296875 C 4.082031 67.296875 4.132812 67.296875 4.183594 67.296875 L 3.890625 67.277344 C 3.9375 67.285156 3.980469 67.289062 4.03125 67.296875 Z M 7.351562 67.601562 L 7.050781 67.566406 C 7.007812 67.570312 6.96875 67.570312 6.929688 67.574219 C 7.078125 67.578125 7.222656 67.589844 7.351562 67.601562 Z M 75.796875 67.597656 C 75.820312 67.703125 76.152344 67.847656 74.808594 67.832031 C 74.484375 67.726562 74.609375 67.601562 75.328125 67.511719 C 74.28125 67.460938 74.023438 67.640625 73.59375 67.730469 C 71.777344 67.59375 68.671875 67.726562 67.308594 67.640625 L 67.28125 67.5 L 66.707031 67.605469 C 67.496094 67.800781 68.796875 67.636719 69.71875 67.777344 C 70.757812 67.71875 71.066406 67.753906 72.699219 67.695312 C 72.402344 67.769531 72.710938 67.839844 71.816406 67.804688 C 71.976562 67.859375 72.863281 67.820312 73.597656 67.765625 C 74.636719 67.746094 74.367188 67.886719 74.679688 67.957031 C 73.800781 68.03125 72.894531 67.960938 71.847656 67.949219 C 73.074219 68.121094 70.375 68.058594 70.535156 68.109375 C 70.578125 68.324219 72.949219 68.246094 73.539062 68.207031 C 72.945312 68.210938 72.632812 68.140625 72.769531 68.085938 C 73.957031 68.046875 75.210938 68.328125 76.679688 68.289062 C 76.800781 68.128906 75.902344 68.097656 75.582031 67.992188 C 78.273438 68.015625 79.757812 67.976562 82.160156 68.078125 C 82.003906 68.058594 82.003906 68.023438 82.003906 68.023438 L 83.636719 68.035156 C 82.554688 67.808594 79.859375 67.78125 77.617188 67.734375 C 78.363281 67.75 77.78125 67.789062 77.484375 67.824219 C 77.164062 67.683594 75.972656 67.722656 75.796875 67.597656 Z M 75.039062 68.96875 C 74.71875 68.863281 73.546875 68.9375 73.101562 68.957031 C 73.703125 68.992188 74.445312 68.972656 75.039062 68.96875 Z M 25.1875 67.960938 L 24.914062 67.945312 C 24.707031 67.957031 24.710938 67.964844 25.1875 67.960938 Z M 14.097656 69.097656 C 13.792969 69.09375 13.605469 69.101562 13.476562 69.117188 C 13.707031 69.113281 13.9375 69.109375 14.097656 69.097656 Z M 83.289062 0.210938 C 82.710938 0.285156 84.21875 0.386719 83.914062 0.316406 C 84.046875 0.261719 84.175781 0.171875 83.289062 0.210938 Z M 79.503906 69.179688 C 80.738281 69.351562 82.617188 69.078125 81.558594 68.992188 C 80.992188 69.140625 79.011719 68.984375 79.503906 69.179688 Z M 96.574219 0.296875 C 96.605469 0.3125 96.644531 0.328125 96.6875 0.339844 L 96.878906 0.332031 Z M 77.792969 68.417969 C 77.734375 68.417969 77.671875 68.421875 77.617188 68.429688 C 77.691406 68.425781 77.746094 68.421875 77.792969 68.417969 Z M 96.128906 1.113281 C 96.007812 1.117188 95.800781 1.109375 95.574219 1.097656 C 95.683594 1.117188 95.882812 1.121094 96.128906 1.113281 Z M 97.757812 1.054688 C 97.730469 1.054688 97.710938 1.054688 97.6875 1.058594 C 97.714844 1.058594 97.738281 1.054688 97.757812 1.054688 Z M 92.152344 0.730469 C 92.101562 0.714844 92.054688 0.699219 92.019531 0.679688 C 91.570312 0.699219 90.519531 0.683594 90.542969 0.789062 C 90.859375 0.75 91.066406 0.746094 91.230469 0.753906 C 90.59375 0.894531 91.632812 0.90625 92.21875 0.992188 L 91.496094 1.035156 C 91.828125 1.214844 93.597656 1.101562 94.644531 1.152344 C 94.53125 1.121094 94.492188 1.097656 94.511719 1.085938 C 94.722656 1.085938 94.9375 1.082031 95.152344 1.078125 C 95.289062 1.085938 95.4375 1.09375 95.574219 1.097656 C 95.53125 1.09375 95.503906 1.085938 95.496094 1.074219 C 95.699219 1.070312 95.898438 1.066406 96.097656 1.058594 C 96.742188 1.085938 96.917969 1.097656 97.6875 1.058594 C 97.570312 1.058594 97.40625 1.03125 97.296875 1 C 97.527344 0.980469 97.738281 0.957031 97.90625 0.933594 C 98.121094 0.980469 98.566406 0.992188 99.027344 0.996094 C 99.183594 1.074219 99.199219 1.160156 100.609375 1.132812 C 100.910156 1.132812 101.625 1.070312 101.957031 0.996094 C 102.25 1.023438 102.539062 1.054688 102.820312 1.050781 L 103.363281 0.511719 L 101.691406 0.53125 C 101.375 0.460938 100.332031 0.410156 101.34375 0.28125 C 100.0625 0.203125 97.414062 0.550781 96.6875 0.339844 L 95.40625 0.40625 C 97.039062 0.382812 97.527344 0.578125 98.730469 0.609375 C 96.171875 0.570312 94.613281 0.699219 92.152344 0.730469 Z M 101.417969 2.445312 L 101.484375 2.378906 C 100.5 2.300781 99.375 2.390625 98.328125 2.332031 L 97.925781 2.5625 C 98.292969 2.4375 98.800781 2.414062 99.386719 2.417969 L 99.410156 2.523438 L 100.15625 2.539062 L 99.402344 2.421875 C 100.007812 2.425781 100.699219 2.460938 101.417969 2.445312 Z M 102.101562 1.765625 L 102.105469 1.761719 C 102.09375 1.761719 102.082031 1.761719 102.070312 1.761719 C 102.082031 1.761719 102.09375 1.765625 102.101562 1.765625 Z M 77.792969 68.417969 C 78.035156 68.40625 78.296875 68.421875 78.648438 68.40625 L 78.03125 68.304688 C 77.921875 68.347656 78.007812 68.390625 77.792969 68.417969 Z M 40.082031 69.722656 L 42.398438 69.722656 C 42.453125 69.664062 42.269531 69.613281 41.628906 69.585938 C 42.714844 69.449219 42.734375 69.621094 43.050781 69.683594 C 42.921875 69.691406 42.792969 69.699219 42.648438 69.714844 C 42.832031 69.714844 43.023438 69.71875 43.214844 69.722656 L 44.515625 69.722656 C 44.449219 69.71875 44.386719 69.714844 44.324219 69.707031 C 44.699219 69.625 44.789062 69.558594 44.585938 69.46875 C 44.011719 69.578125 43.386719 69.4375 42.785156 69.4375 L 43.820312 69.382812 L 42.449219 69.226562 L 42.460938 69.296875 L 40.480469 69.074219 L 41.644531 68.960938 C 40.015625 68.984375 37.890625 68.8125 36.417969 68.925781 L 38.671875 68.96875 L 37.640625 69.0625 C 37.820312 69.1875 39.265625 68.96875 39.890625 69.109375 C 40.59375 69.21875 40.691406 69.40625 41.8125 69.410156 C 41.367188 69.4375 41.433594 69.558594 41.09375 69.582031 L 41.488281 69.601562 C 40.757812 69.652344 40.480469 69.691406 40.082031 69.722656 Z M 18.433594 67.09375 C 18.480469 67.101562 18.515625 67.109375 18.542969 67.117188 C 18.53125 67.109375 18.507812 67.101562 18.46875 67.09375 Z M 39.191406 67.449219 C 38.503906 67.40625 38.40625 67.429688 38.457031 67.46875 C 38.644531 67.480469 38.867188 67.476562 39.191406 67.449219 Z M 41.09375 69.582031 L 40.273438 69.535156 C 40.691406 69.582031 40.9375 69.59375 41.09375 69.582031 Z M 37.101562 67.417969 L 38.632812 67.59375 C 38.699219 67.566406 38.503906 67.507812 38.457031 67.46875 C 38.050781 67.449219 37.808594 67.378906 37.101562 67.417969 Z M 33.605469 67.621094 C 33.6875 67.621094 33.773438 67.617188 33.855469 67.605469 Z M 32.15625 67.78125 L 32.34375 67.8125 C 32.363281 67.808594 32.382812 67.800781 32.402344 67.796875 C 32.324219 67.792969 32.242188 67.789062 32.15625 67.78125 Z M 36.382812 67.09375 L 32.503906 67.09375 L 32.566406 67.113281 L 31.515625 67.097656 C 31.582031 67.382812 34.640625 67.070312 34.535156 67.265625 C 35.058594 67.175781 35.839844 67.167969 36.382812 67.09375 Z M 33.394531 67.992188 L 32.34375 67.8125 C 32.285156 67.832031 32.207031 67.863281 32.03125 67.90625 Z M 29.566406 67.339844 C 29.546875 67.339844 29.535156 67.34375 29.535156 67.34375 C 29.542969 67.34375 29.554688 67.339844 29.566406 67.339844 Z M 34.59375 68.246094 C 34.882812 68.328125 35.296875 68.332031 35.777344 68.308594 C 35.996094 68.351562 36.265625 68.40625 36.894531 68.421875 L 36.015625 68.296875 C 36.804688 68.25 37.742188 68.15625 38.609375 68.214844 L 38.714844 68.019531 C 38.121094 68.019531 38.59375 68.144531 38.453125 68.195312 C 37.703125 68.113281 37.019531 68.085938 36.34375 68.078125 C 36.230469 68.054688 36.003906 68.039062 35.621094 68.035156 L 35.515625 68.074219 C 34.820312 68.074219 34.121094 68.078125 33.355469 68.035156 C 33.359375 68.070312 33.519531 68.121094 33.078125 68.140625 L 32.464844 68.074219 C 31.902344 68.21875 33.53125 68.160156 33.394531 68.246094 C 34.28125 68.171875 34.25 68.066406 35.300781 68.082031 C 35.351562 68.09375 35.386719 68.105469 35.40625 68.117188 L 35.167969 68.210938 C 35.03125 68.226562 34.835938 68.238281 34.59375 68.246094 Z M 31.785156 67.425781 C 31.191406 67.429688 31.503906 67.5 30.75 67.484375 C 30.410156 67.269531 32.074219 67.390625 32.964844 67.351562 C 32.34375 67.214844 29.941406 67.269531 29.566406 67.339844 C 29.761719 67.332031 31.007812 67.453125 30.613281 67.539062 C 30.472656 67.589844 30.03125 67.574219 29.722656 67.574219 C 30.035156 67.609375 30.777344 67.589844 31.371094 67.589844 Z M 30.328125 68.875 C 30.492188 68.882812 30.597656 68.886719 30.597656 68.886719 C 30.535156 68.875 30.441406 68.871094 30.328125 68.875 Z M 8.761719 69.359375 L 8.347656 69.484375 L 8.636719 69.484375 Z M 30.328125 68.875 C 29.921875 68.859375 29.136719 68.832031 28.503906 68.859375 C 29.019531 69 29.855469 68.886719 30.328125 68.875 Z M 10.582031 68.699219 C 10.890625 68.734375 11.054688 68.785156 11.359375 68.820312 L 11.503906 68.800781 L 12.046875 68.90625 C 11.667969 68.78125 12.175781 68.621094 10.582031 68.699219 Z M 33.890625 67.722656 L 34.386719 67.757812 C 34.203125 67.726562 34.046875 67.71875 33.890625 67.722656 Z M 19.382812 67.304688 C 18.472656 67.28125 18.753906 67.191406 18.542969 67.117188 C 18.664062 67.207031 17.75 67.335938 19.382812 67.304688 Z M 33.890625 67.722656 L 33.027344 67.660156 L 33.605469 67.621094 C 33.402344 67.625 33.21875 67.605469 33.113281 67.589844 L 32.847656 67.644531 L 32.71875 67.636719 C 32.746094 67.640625 32.789062 67.644531 32.839844 67.648438 L 32.683594 67.679688 L 32.992188 67.660156 C 33.203125 67.679688 33.433594 67.707031 33.347656 67.742188 C 32.648438 67.765625 32.511719 67.769531 32.402344 67.796875 C 33.058594 67.820312 33.445312 67.726562 33.890625 67.722656 Z M 80.742188 68.4375 C 81.175781 68.382812 81.78125 68.417969 81.914062 68.328125 C 81.164062 68.277344 80.875 68.347656 80.742188 68.4375 Z M 12.921875 2.425781 L 12.746094 2.300781 L 12.765625 2.371094 C 12.699219 2.378906 12.636719 2.378906 12.574219 2.382812 C 12.699219 2.390625 12.816406 2.40625 12.921875 2.425781 Z M 60.054688 2.464844 L 59.132812 2.46875 C 59.097656 2.429688 59.042969 2.394531 58.53125 2.398438 L 58.769531 2.507812 L 58.449219 2.632812 C 59.207031 2.648438 59.207031 2.683594 59.640625 2.59375 C 59.800781 2.617188 59.976562 2.648438 60.171875 2.679688 L 61.316406 2.679688 C 61.378906 2.59375 60.191406 2.539062 60.054688 2.464844 Z M 27.0625 0.359375 L 27.078125 0.359375 L 26.96875 0.34375 C 26.972656 0.351562 27.007812 0.359375 27.0625 0.359375 Z M 68.398438 0.289062 L 69.144531 0.308594 C 69.421875 0.199219 68.53125 0.199219 67.925781 0.167969 C 68.53125 0.199219 68.390625 0.253906 68.398438 0.289062 Z M 24.5 0.0742188 C 24.367188 0.0664062 24.234375 0.0585938 24.105469 0.046875 L 27.523438 0.046875 C 27.867188 0.0625 28.210938 0.0742188 28.550781 0.0703125 L 28.425781 0.195312 C 30.617188 0.445312 29.476562 0.195312 30.003906 0.046875 L 31.445312 0.046875 C 31.433594 0.144531 30.808594 0.242188 31.722656 0.292969 C 32.113281 0.335938 32.445312 0.332031 32.75 0.308594 C 32.75 0.308594 32.75 0.308594 32.753906 0.304688 L 32.804688 0.308594 C 33.414062 0.261719 33.886719 0.15625 34.40625 0.285156 C 34.21875 0.3125 34.003906 0.332031 33.769531 0.347656 L 34.257812 0.371094 L 33.628906 0.359375 C 33.511719 0.363281 33.386719 0.371094 33.257812 0.375 C 32.601562 0.445312 33.121094 0.601562 33.140625 0.730469 C 34.191406 0.78125 33.980469 0.480469 35.210938 0.652344 C 34.734375 0.496094 34.847656 0.332031 35.722656 0.222656 L 38.433594 0.359375 C 37.546875 0.398438 36.351562 0.398438 35.175781 0.476562 C 35.203125 0.617188 36.308594 0.917969 34.839844 1.027344 C 35.617188 1.148438 36.679688 1.269531 38.011719 1.214844 L 37.847656 1.125 L 38.90625 1.378906 C 38.929688 1.382812 38.949219 1.382812 38.96875 1.386719 C 39.257812 1.347656 39.65625 1.296875 39.214844 1.28125 C 39.652344 1.253906 39.628906 1.359375 39.238281 1.421875 C 39.25 1.421875 39.261719 1.425781 39.269531 1.425781 C 39.238281 1.429688 39.183594 1.433594 39.113281 1.4375 C 38.988281 1.449219 38.839844 1.460938 38.664062 1.460938 C 39.714844 1.511719 41.378906 1.628906 42.265625 1.554688 L 41.804688 1.503906 L 43.296875 1.535156 L 43.289062 1.5 C 44.617188 1.441406 45.234375 1.511719 47.179688 1.558594 C 47.4375 1.378906 46.527344 1.3125 45.769531 1.226562 C 46.46875 1.078125 47.246094 1.285156 48.148438 1.304688 C 48.03125 1.46875 50.035156 1.5 51.199219 1.53125 L 50.464844 1.585938 L 50.847656 1.628906 C 51.546875 1.5625 52.324219 1.519531 53.3125 1.5625 C 53.78125 1.683594 56 1.589844 55.882812 1.75 C 53.757812 1.578125 51.457031 1.976562 49.476562 1.789062 C 49.804688 1.894531 50.542969 1.871094 50.714844 1.996094 L 49.402344 2.160156 C 46.066406 1.851562 45.398438 2.226562 42.222656 2.003906 C 42.257812 2.183594 43.921875 2.300781 43.050781 2.410156 C 41.566406 2.449219 42.15625 2.414062 41.25 2.34375 L 43.039062 2.339844 C 41.082031 2.253906 41.488281 2.058594 38.804688 2.066406 L 38.710938 2.199219 C 38.636719 2.078125 35.996094 2.105469 35.636719 1.984375 L 35.496094 2.039062 L 34.441406 1.953125 C 35.1875 1.96875 34.871094 1.863281 35.007812 1.808594 C 34.554688 1.785156 34.066406 1.761719 33.558594 1.742188 L 32.644531 1.855469 C 33.074219 1.765625 30.671875 1.664062 29.488281 1.703125 C 29.488281 1.695312 29.457031 1.6875 29.414062 1.679688 C 29.378906 1.683594 29.347656 1.683594 29.3125 1.683594 C 27.601562 1.632812 28.09375 1.570312 28.582031 1.492188 C 27.488281 1.488281 26.3125 1.421875 25.382812 1.34375 L 25.867188 1.464844 L 24.367188 1.433594 L 24.945312 1.363281 C 23.890625 1.3125 22.953125 1.136719 21.332031 1.195312 C 20.851562 1.035156 21.917969 1.15625 22.371094 1.171875 C 22.015625 1.074219 22.410156 0.972656 22.714844 0.871094 L 22.582031 0.851562 C 22.15625 0.941406 21.144531 1.101562 19.769531 0.945312 C 19.457031 0.878906 20.050781 0.875 20.042969 0.804688 C 20.480469 0.785156 21.066406 0.746094 21.828125 0.796875 L 21.699219 0.664062 C 20.941406 0.679688 20.125 0.6875 19.285156 0.695312 C 19.277344 0.699219 19.273438 0.710938 19.273438 0.71875 C 19.160156 0.710938 19.074219 0.703125 19.003906 0.695312 C 18.015625 0.703125 17.003906 0.710938 16.019531 0.730469 L 16.285156 0.585938 C 15.851562 0.679688 13.746094 0.578125 13.171875 0.6875 L 12.980469 0.453125 C 12.382812 0.457031 12.101562 0.527344 11.964844 0.617188 L 11.652344 0.511719 C 11.988281 0.726562 10.078125 0.855469 11.304688 1.03125 L 13.089844 0.988281 C 13.84375 1.039062 12.058594 1.042969 12.070312 1.113281 C 13.097656 1.058594 13.722656 1.164062 15.054688 1.105469 C 16.390625 1.085938 16.722656 1.261719 16.152344 1.371094 C 14.957031 1.375 13.304688 1.289062 12.253906 1.3125 L 12.269531 1.347656 C 9.335938 1.386719 11.371094 1.128906 9.578125 1.089844 C 10.132812 0.878906 7.734375 1.035156 7.984375 0.824219 C 7.390625 0.828125 6.097656 1.0625 5.910156 0.867188 L 6.808594 0.898438 C 6.621094 0.835938 6.324219 0.738281 6.046875 0.675781 C 4.613281 0.710938 3.089844 0.710938 1.972656 0.664062 C 2.804688 1.070312 6.9375 0.878906 8.050781 1.214844 L 8.039062 1.140625 C 8.617188 1.246094 8.363281 1.234375 8.050781 1.226562 C 8.109375 1.238281 8.164062 1.253906 8.226562 1.269531 L 7.632812 1.273438 C 7.617188 1.269531 7.597656 1.269531 7.578125 1.269531 C 7.582031 1.277344 7.59375 1.289062 7.621094 1.304688 C 6.980469 1.289062 6.507812 1.277344 6.214844 1.25 C 6.0625 1.25 5.90625 1.25 5.757812 1.246094 C 5.835938 1.238281 5.945312 1.234375 6.066406 1.234375 C 5.8125 1.199219 5.804688 1.148438 6.082031 1.058594 C 5.183594 1.0625 3.839844 1.046875 4.472656 1.226562 C 4.089844 1.148438 3.625 1.109375 3.101562 1.089844 L 2.96875 1.089844 L 3.59375 1.195312 C 3.496094 1.183594 2.949219 1.136719 2.773438 1.078125 C 2.472656 1.070312 2.152344 1.070312 1.820312 1.074219 L 1.5 0.753906 C 1.515625 0.753906 1.527344 0.753906 1.539062 0.753906 L 1.496094 0.75 L 1.253906 0.503906 C 2.683594 0.566406 4.238281 0.515625 5.539062 0.519531 L 5.519531 0.40625 C 6.5625 0.457031 6.894531 0.597656 8.101562 0.664062 C 10.769531 0.585938 11.746094 0.28125 14.585938 0.289062 L 13.976562 0.257812 L 15.9375 0.339844 C 16.796875 0.160156 14.871094 0.253906 14.101562 0.132812 C 13.09375 0.296875 11.417969 0.140625 10.078125 0.125 C 8.484375 0.253906 8.265625 0.164062 8.089844 0.046875 L 21.585938 0.046875 C 21.6875 0.117188 21.910156 0.183594 22.476562 0.25 L 20.832031 0.238281 C 21.09375 0.304688 21.542969 0.335938 22.0625 0.355469 C 22.089844 0.355469 22.125 0.355469 22.179688 0.351562 C 23.230469 0.402344 23.214844 0.296875 23.195312 0.226562 C 23.371094 0.246094 24.167969 0.269531 24.875 0.261719 C 24.535156 0.25 24.25 0.222656 24.09375 0.15625 C 24.335938 0.117188 24.441406 0.0898438 24.5 0.0742188 Z M 6.101562 1.097656 L 6.113281 1.132812 L 6.308594 1.089844 C 6.246094 1.09375 6.179688 1.09375 6.101562 1.097656 Z M 27.542969 0.429688 C 27.339844 0.441406 27.15625 0.460938 27 0.484375 L 27.890625 0.480469 Z M 21.660156 0.621094 L 21.640625 0.605469 C 21.59375 0.605469 21.539062 0.605469 21.488281 0.605469 C 21.542969 0.609375 21.601562 0.617188 21.660156 0.621094 Z M 22.292969 0.652344 C 22.324219 0.65625 22.355469 0.65625 22.390625 0.65625 C 22.398438 0.652344 22.402344 0.652344 22.40625 0.652344 C 22.367188 0.652344 22.328125 0.652344 22.292969 0.652344 Z M 22.753906 0.78125 C 22.789062 0.789062 22.84375 0.792969 22.902344 0.800781 C 23.015625 0.75 23.042969 0.695312 22.878906 0.644531 C 22.410156 0.660156 22.097656 0.695312 22.109375 0.761719 C 22.261719 0.78125 22.574219 0.816406 22.71875 0.796875 Z M 25.304688 0.992188 C 24.671875 0.929688 24.042969 0.863281 23.820312 0.746094 C 23.804688 0.746094 23.789062 0.742188 23.777344 0.742188 C 23.792969 0.851562 24.441406 0.933594 25.304688 0.992188 Z M 46.878906 1.808594 C 46.835938 1.824219 46.808594 1.84375 46.792969 1.863281 C 46.804688 1.863281 46.808594 1.863281 46.816406 1.863281 C 46.867188 1.851562 46.90625 1.832031 46.933594 1.808594 C 46.914062 1.808594 46.898438 1.808594 46.878906 1.808594 Z M 49.964844 1.722656 C 49.640625 1.714844 49.296875 1.707031 48.957031 1.703125 L 48.886719 1.824219 C 49.253906 1.796875 49.605469 1.761719 49.964844 1.722656 Z M 42.785156 1.8125 C 43.058594 1.832031 43.195312 1.867188 42.957031 1.949219 C 44.796875 1.929688 43.621094 1.84375 43.46875 1.75 C 43.230469 1.753906 43.011719 1.769531 42.785156 1.8125 Z M 28.167969 0.398438 C 28.640625 0.445312 29.039062 0.507812 28.96875 0.550781 C 29.785156 0.433594 29.808594 0.777344 31.019531 0.558594 C 30.804688 0.550781 30.515625 0.503906 30.195312 0.460938 C 31.089844 0.488281 32.109375 0.480469 32.542969 0.394531 C 31.128906 0.414062 29.429688 0.359375 28.167969 0.398438 Z M 26.117188 0.242188 L 26.371094 0.449219 L 27.0625 0.359375 C 27.074219 0.363281 27.085938 0.363281 27.09375 0.363281 L 27.078125 0.359375 L 27.242188 0.339844 C 27.367188 0.339844 27.519531 0.347656 27.675781 0.359375 C 27.6875 0.359375 27.703125 0.359375 27.714844 0.359375 C 27.683594 0.199219 26.9375 0.21875 26.117188 0.242188 Z M 6.777344 0.132812 C 6.644531 0.1875 5.761719 0.261719 5.445312 0.15625 L 5.625 0.3125 C 7.28125 0.34375 7.3125 0.175781 7.011719 0.046875 L 6.796875 0.046875 C 6.820312 0.0703125 6.816406 0.0976562 6.777344 0.132812 Z M 29.046875 0.40625 C 29.34375 0.429688 29.753906 0.449219 30.195312 0.460938 C 29.835938 0.414062 29.433594 0.375 29.046875 0.40625 Z M 71.28125 0.511719 L 72.476562 0.546875 L 72.625 0.527344 Z M 7.71875 2.496094 L 9.054688 2.472656 L 8.296875 2.386719 C 8.585938 2.351562 7.105469 2.425781 7.71875 2.496094 Z M 76.535156 1.527344 C 76.382812 1.507812 76.382812 1.507812 76.085938 1.507812 C 75.765625 1.402344 76.515625 1.417969 76.960938 1.398438 L 78.039062 1.558594 C 78.363281 1.699219 76.253906 1.597656 76.710938 1.648438 C 77.488281 1.808594 79.230469 1.589844 78.175781 1.503906 L 79.964844 1.53125 C 79.8125 1.515625 79.214844 1.480469 79.5 1.445312 L 80.085938 1.371094 C 78.707031 1.21875 75.304688 1.316406 73.371094 1.339844 C 73.671875 1.339844 73.976562 1.371094 74.417969 1.355469 L 72.816406 1.554688 C 74.136719 1.425781 75.34375 1.527344 76.535156 1.527344 Z M 68.730469 1.957031 L 67.535156 1.960938 C 69.3125 1.886719 67.054688 1.804688 67.332031 1.695312 L 68.996094 1.816406 C 69.578125 1.777344 68.519531 1.65625 69.707031 1.652344 L 67.289062 1.480469 L 67.46875 1.640625 L 65.386719 1.683594 C 66.597656 1.75 65.257812 1.773438 64.824219 1.828125 C 66.027344 1.894531 67.300781 2.246094 68.730469 1.957031 Z M 39.75 0.960938 L 38.707031 0.945312 L 39.617188 1.046875 Z M 36.46875 0.136719 L 34.671875 0.105469 C 34.527344 0.160156 34.988281 0.210938 35.449219 0.265625 C 34.964844 0.105469 36.335938 0.226562 36.46875 0.136719 Z M 43.851562 1.320312 L 45.007812 1.175781 C 44.558594 1.121094 44.101562 1.105469 43.660156 1.125 Z M 43.988281 0.574219 C 44.164062 0.664062 42.53125 0.71875 43.882812 0.769531 C 43.410156 0.644531 45.5 0.675781 43.988281 0.574219 Z M 48.761719 1.289062 L 48.164062 1.289062 C 48.160156 1.296875 48.152344 1.300781 48.148438 1.304688 C 48.347656 1.308594 48.550781 1.308594 48.761719 1.289062 Z M 38.710938 2.203125 L 38.691406 2.226562 C 38.714844 2.21875 38.71875 2.210938 38.710938 2.203125 Z M 4.761719 1.085938 C 4.445312 1.191406 4.847656 1.226562 5.453125 1.242188 C 4.777344 1.175781 6.269531 1.097656 4.761719 1.085938 Z M 5.691406 1.261719 C 5.710938 1.253906 5.734375 1.25 5.757812 1.246094 C 5.652344 1.246094 5.550781 1.246094 5.453125 1.242188 C 5.515625 1.25 5.59375 1.253906 5.691406 1.261719 Z M 8.785156 1.089844 C 8.9375 1.105469 9.242188 1.140625 9.542969 1.105469 C 9.554688 1.101562 9.566406 1.097656 9.578125 1.09375 C 9.367188 1.089844 9.109375 1.085938 8.785156 1.089844 Z M 22.753906 0.78125 L 22.855469 0.742188 C 22.675781 0.757812 22.675781 0.769531 22.753906 0.78125 Z M 11.808594 2.363281 C 12.050781 2.386719 12.304688 2.394531 12.574219 2.382812 C 12.339844 2.363281 12.074219 2.359375 11.808594 2.363281 Z M 63.460938 1.707031 C 63.46875 1.742188 62.730469 1.832031 63.78125 1.8125 C 63.773438 1.777344 63.914062 1.722656 63.460938 1.707031 Z M 60.933594 2.496094 L 62.964844 2.589844 L 63.21875 2.617188 L 63.320312 2.605469 L 63.496094 2.613281 L 63.148438 2.679688 L 63.855469 2.679688 C 63.335938 2.664062 63.878906 2.589844 63.960938 2.523438 L 64.234375 2.488281 C 64.195312 2.492188 64.097656 2.492188 63.957031 2.492188 C 63.917969 2.46875 63.777344 2.449219 63.460938 2.4375 C 63.257812 2.46875 63.070312 2.488281 62.886719 2.5 C 62.8125 2.5 62.742188 2.503906 62.671875 2.511719 C 62.035156 2.53125 61.507812 2.445312 61.0625 2.371094 C 61.378906 2.441406 59.734375 2.429688 60.933594 2.496094 Z M 81.496094 2.332031 L 79.824219 2.175781 C 79.84375 2.277344 78.816406 2.226562 78.203125 2.273438 C 78.800781 2.25 80.441406 2.5 81.496094 2.332031 Z M 43.945312 2.476562 C 44.082031 2.457031 44.8125 2.367188 45.582031 2.453125 L 44.960938 2.347656 L 45.554688 2.347656 L 45.6875 2.292969 C 44.644531 2.277344 44.214844 2.367188 43.945312 2.476562 Z M 46.644531 2.507812 L 45.617188 2.460938 C 45.875 2.527344 45.167969 2.546875 45.03125 2.601562 C 46.675781 2.648438 45.601562 2.457031 46.644531 2.507812 Z M 62.484375 2.671875 C 62.496094 2.675781 62.503906 2.675781 62.511719 2.679688 L 62.523438 2.679688 Z M 78.203125 2.273438 C 78.148438 2.277344 78.097656 2.28125 78.058594 2.289062 C 78.105469 2.28125 78.152344 2.277344 78.203125 2.273438 Z M 81.632812 1.652344 C 81.652344 1.722656 80.902344 1.707031 80.914062 1.777344 L 82.402344 1.773438 Z M 79.945312 1.90625 C 79.988281 1.914062 80.035156 1.917969 80.070312 1.925781 C 80.070312 1.914062 80.023438 1.910156 79.945312 1.90625 Z M 78.71875 1.878906 C 78.859375 1.980469 79.640625 1.902344 79.945312 1.90625 C 79.640625 1.855469 79.234375 1.84375 78.71875 1.878906 Z M 45.527344 2.457031 L 45.144531 2.441406 C 45.148438 2.472656 45.269531 2.460938 45.527344 2.457031 Z M 19.933594 1.730469 L 22.605469 1.6875 C 22.292969 1.617188 21.972656 1.511719 22.402344 1.417969 L 20.464844 1.40625 L 21.070312 1.476562 C 20.78125 1.515625 19.308594 1.589844 19.933594 1.730469 Z M 22.039062 2.523438 L 20.839844 2.492188 L 21.898438 2.578125 Z M 19.222656 1.09375 L 18.804688 1.21875 L 16.855469 1.171875 L 17.921875 1.292969 C 18.191406 1.152344 19.433594 1.359375 20.457031 1.304688 C 19.707031 1.253906 20.558594 1.074219 19.222656 1.09375 Z M 82.070312 0.109375 L 81.023438 0.0585938 C 80.886719 0.113281 81.191406 0.144531 81.335938 0.164062 Z M 18.582031 1.714844 L 18.414062 1.589844 L 17.992188 1.71875 Z M 10.21875 2.324219 C 10.238281 2.398438 9.203125 2.453125 10.113281 2.523438 C 10.101562 2.5 10.960938 2.382812 11.808594 2.363281 C 11.210938 2.316406 10.691406 2.21875 10.21875 2.324219 Z M 45.527344 2.457031 L 45.617188 2.460938 C 45.613281 2.460938 45.605469 2.457031 45.601562 2.457031 C 45.574219 2.457031 45.550781 2.457031 45.527344 2.457031 Z M 34.617188 2.007812 L 33.386719 2 C 33.824219 2.039062 34.433594 2.136719 34.617188 2.007812 Z M 32.976562 1.996094 L 33.386719 2 C 33.207031 1.984375 33.058594 1.976562 32.976562 1.996094 Z M 29.132812 69 L 28.84375 69.070312 L 29.015625 69.160156 Z M 0.847656 69.410156 C 0.820312 69.414062 0.792969 69.417969 0.765625 69.417969 L 0.628906 69.554688 C 0.960938 69.59375 1.085938 69.671875 1.191406 69.660156 C 1.621094 69.570312 1.15625 69.480469 0.847656 69.410156 Z M 3.769531 69.625 C 4.035156 69.640625 4.292969 69.648438 4.546875 69.660156 C 4.378906 69.621094 4.40625 69.546875 3.769531 69.625 Z M 4.890625 69.683594 C 4.777344 69.675781 4.664062 69.667969 4.546875 69.660156 C 4.613281 69.675781 4.710938 69.6875 4.890625 69.683594 Z M 23.617188 69.722656 C 23.59375 69.695312 23.539062 69.671875 23.460938 69.660156 C 23.613281 69.660156 23.765625 69.660156 23.902344 69.65625 C 23.574219 69.511719 25.226562 69.597656 24.300781 69.457031 C 25.171875 69.441406 26.847656 69.421875 27.507812 69.527344 C 27.5625 69.519531 27.625 69.515625 27.695312 69.507812 C 27.335938 69.464844 26.96875 69.414062 26.777344 69.371094 L 28.285156 69.472656 C 28.523438 69.1875 26.769531 69.332031 26.710938 69.050781 L 27.785156 69.207031 L 28.5 69.082031 C 28.660156 69.132812 28.984375 69.238281 28.546875 69.292969 C 30.519531 69.449219 30.613281 69.179688 33.027344 69.316406 C 31.574219 69.5 35.730469 69.414062 34.714844 69.578125 C 35.023438 69.578125 35.460938 69.558594 35.769531 69.625 C 34.710938 69.527344 34.542969 69.59375 34.339844 69.671875 C 34.460938 69.6875 34.585938 69.707031 34.714844 69.722656 Z M 29.355469 69.441406 C 29.4375 69.445312 29.503906 69.449219 29.5625 69.453125 C 29.496094 69.449219 29.425781 69.441406 29.355469 69.441406 Z M 27.679688 69.5625 C 27.722656 69.578125 27.757812 69.589844 27.773438 69.605469 C 27.878906 69.59375 27.988281 69.582031 28.097656 69.570312 C 27.957031 69.574219 27.8125 69.574219 27.679688 69.5625 Z M 30.011719 69.722656 L 29.613281 69.707031 C 29.796875 69.71875 29.941406 69.722656 30.011719 69.722656 Z M 23.421875 69.496094 L 20.589844 69.488281 C 20.902344 69.59375 20.757812 69.613281 19.859375 69.578125 C 20.496094 69.742188 21.863281 69.636719 22.765625 69.625 C 22.683594 69.617188 22.609375 69.613281 22.546875 69.605469 Z M 22.765625 69.625 C 22.964844 69.640625 23.214844 69.652344 23.460938 69.660156 C 23.308594 69.628906 23.0625 69.621094 22.765625 69.625 Z M 18.347656 69.464844 C 18.039062 69.519531 17.757812 69.582031 18.0625 69.617188 C 18.507812 69.582031 18.289062 69.511719 18.347656 69.464844 Z M 96.222656 2.269531 L 96.191406 2.125 L 95.160156 2.144531 Z M 29.351562 67.289062 C 29.046875 67.253906 27.992188 67.203125 27.710938 67.277344 C 28.300781 67.273438 29.066406 67.359375 29.351562 67.289062 Z M 101.492188 2.375 L 101.734375 2.132812 C 101.726562 2.128906 101.714844 2.128906 101.707031 2.125 C 101.601562 2.199219 101.117188 2.296875 101.492188 2.375 Z M 15.21875 69.46875 C 15.25 69.480469 15.28125 69.496094 15.3125 69.507812 C 15.34375 69.484375 15.332031 69.472656 15.21875 69.46875 Z M 17.921875 69.566406 C 16.371094 69.519531 15.785156 69.675781 15.3125 69.507812 C 15.214844 69.566406 14.738281 69.671875 15.417969 69.699219 L 15.464844 69.722656 L 16.105469 69.722656 C 16.820312 69.644531 17.078125 69.640625 17.921875 69.566406 Z M 27.152344 68.808594 L 27.765625 68.878906 L 28.027344 68.699219 C 28.625 68.699219 26.082031 68.6875 27.152344 68.808594 Z M 19.070312 69.417969 L 18.753906 69.382812 C 18.703125 69.394531 18.632812 69.410156 18.554688 69.425781 C 18.664062 69.417969 18.828125 69.414062 19.070312 69.417969 Z M 32.910156 68.835938 C 32.859375 68.824219 32.78125 68.816406 32.667969 68.8125 C 32.761719 68.816406 32.84375 68.828125 32.910156 68.835938 Z M 28.269531 67.714844 C 28.878906 67.730469 29.515625 67.710938 29.902344 67.664062 C 28.53125 67.542969 28.132812 67.773438 26.902344 67.601562 C 27.140625 67.652344 27.523438 67.6875 27.949219 67.707031 C 28.378906 67.851562 28.121094 67.859375 29.011719 67.957031 C 29.117188 67.78125 29.242188 67.777344 28.269531 67.714844 Z M 26.839844 68.011719 L 27.710938 67.902344 L 27.257812 67.886719 Z M 95.097656 1.792969 C 94.941406 1.742188 93.742188 1.742188 93.726562 1.636719 L 93.308594 1.761719 C 93.769531 1.851562 94.648438 1.777344 95.097656 1.792969 Z M 33.34375 69.164062 C 33.328125 69.09375 34.0625 69.039062 34.5 68.984375 C 33.332031 69.035156 33.386719 68.902344 32.910156 68.835938 C 33.066406 68.871094 32.992188 68.925781 33 68.953125 C 32.707031 68.988281 32.417969 69.023438 31.820312 69.027344 L 31.632812 68.832031 C 30.890625 68.851562 32.28125 69.078125 30.480469 69.050781 C 30.363281 69.171875 32.714844 69.023438 33.34375 69.164062 Z M 18.792969 68.761719 C 19.101562 68.800781 19.414062 68.867188 19.726562 68.9375 C 19.148438 69.011719 18.816406 68.835938 18.394531 68.960938 C 18.722656 69.101562 20.175781 68.917969 19.761719 69.117188 C 20.355469 69.078125 20.339844 69.007812 20.453125 68.847656 C 20.902344 68.863281 21.480469 68.792969 21.65625 68.878906 L 21.09375 69.058594 C 22.859375 68.949219 22.785156 69.285156 23.390625 69.355469 C 23.179688 69.191406 23.714844 69.144531 24.40625 69.117188 C 24.871094 69.144531 25.496094 69.148438 26.304688 69.128906 L 25.910156 69.066406 C 26.410156 69.035156 26.738281 68.976562 26.566406 68.847656 C 25.816406 68.832031 25.925781 68.636719 26.519531 68.632812 L 24.25 68.480469 C 22.679688 68.789062 18.636719 68.675781 17.445312 68.714844 L 16.378906 68.59375 L 18.296875 68.535156 C 17.65625 68.320312 16.984375 68.664062 16.058594 68.488281 C 16.394531 68.664062 17.15625 68.75 18.648438 68.78125 Z M 18.347656 69.464844 C 18.417969 69.449219 18.488281 69.4375 18.554688 69.425781 C 18.421875 69.433594 18.367188 69.445312 18.347656 69.464844 Z M 37.269531 69.660156 L 36.746094 69.722656 L 40.066406 69.722656 C 39.539062 69.558594 38.011719 69.742188 37.269531 69.660156 Z M 21.066406 68.1875 C 22.253906 68.183594 21.027344 68.046875 21.023438 68.011719 Z M 35.554688 69.066406 L 36.320312 69.15625 L 35.398438 69.015625 L 35.410156 69.089844 Z M 12.207031 69.335938 C 10.359375 69.75 10.253906 69.25 8.09375 69.632812 L 7.179688 69.527344 L 7.589844 69.617188 C 6.804688 69.597656 6.09375 69.582031 5.820312 69.511719 L 6.144531 69.652344 L 5.441406 69.617188 C 5.425781 69.601562 5.386719 69.59375 5.308594 69.609375 L 5.089844 69.601562 C 5.207031 69.621094 5.257812 69.640625 5.261719 69.65625 C 5.109375 69.671875 4.988281 69.679688 4.890625 69.683594 C 4.980469 69.6875 5.066406 69.695312 5.152344 69.707031 C 5.121094 69.710938 5.085938 69.71875 5.046875 69.722656 L 13.472656 69.722656 C 12.691406 69.570312 14.605469 69.402344 12.207031 69.335938 Z M 56.746094 2.679688 L 56.765625 2.679688 L 56.648438 2.667969 Z M 54.011719 2.679688 C 53.921875 2.667969 53.839844 2.660156 53.769531 2.652344 L 53.996094 2.679688 Z M 60.75 2.300781 C 60.59375 2.25 59.992188 2.25 59.554688 2.269531 C 59.566406 2.339844 60.292969 2.285156 60.75 2.300781 Z M 52.578125 2.449219 C 51.078125 2.382812 52.707031 2.324219 52.398438 2.289062 L 50.617188 2.332031 C 50.664062 2.542969 51.988281 2.453125 52.917969 2.628906 L 52.289062 2.679688 L 53.214844 2.679688 C 53.363281 2.65625 53.503906 2.632812 53.769531 2.652344 L 53.214844 2.589844 C 54.496094 2.320312 55.636719 2.796875 57.222656 2.523438 C 56.003906 2.421875 53.78125 2.480469 52.578125 2.449219 Z M 60.742188 1.101562 C 61.515625 1.167969 61.128906 1.277344 62.914062 1.230469 C 63.789062 1.15625 61.972656 1.015625 63.757812 1.011719 L 61.792969 0.859375 C 60.757812 0.847656 61.265625 1.074219 60.742188 1.101562 Z M 72.457031 68.746094 C 73.632812 68.636719 73.242188 68.90625 74.566406 68.847656 C 74.695312 68.757812 72.734375 68.640625 72.457031 68.746094 Z M 44.292969 0.046875 L 44.1875 0.046875 C 44.222656 0.0507812 44.257812 0.046875 44.292969 0.046875 Z M 51.894531 1.921875 C 50.863281 1.980469 52.074219 2.046875 52.230469 2.097656 C 52.96875 2.078125 52.351562 1.972656 51.894531 1.921875 Z M 76.558594 0.105469 C 76.699219 0.0507812 77.296875 0.0859375 77.46875 0.140625 L 77.621094 0.046875 L 73.941406 0.046875 L 77.019531 0.195312 C 76.722656 0.160156 76.570312 0.140625 76.558594 0.105469 Z M 60.742188 1.101562 C 60.550781 1.085938 60.285156 1.070312 59.898438 1.058594 C 60.328125 1.101562 60.582031 1.109375 60.742188 1.101562 Z M 8.371094 0.523438 L 9.558594 0.484375 L 8.660156 0.484375 Z M 80.945312 2.613281 C 81.097656 2.667969 80.5 2.671875 80.207031 2.671875 C 79.285156 2.53125 80.015625 2.476562 78.96875 2.460938 C 79.203125 2.566406 79.296875 2.628906 79.46875 2.679688 L 81.597656 2.679688 C 81.359375 2.660156 81.140625 2.636719 80.945312 2.613281 Z M 65.105469 2.679688 L 65.300781 2.679688 L 65.292969 2.652344 C 65.238281 2.664062 65.171875 2.671875 65.105469 2.679688 Z M 103.675781 0.199219 L 103.691406 0.183594 C 103.679688 0.125 103.671875 0.0859375 103.664062 0.046875 L 103.453125 0.046875 C 103.246094 0.0976562 103.039062 0.167969 103.675781 0.199219 Z M 63.726562 2.191406 C 64.09375 2.3125 64.765625 2.222656 65 2.199219 C 64.601562 2.179688 64.417969 2.136719 63.726562 2.191406 Z M 30.335938 2.679688 L 30.871094 2.679688 L 30.429688 2.644531 Z M 6.246094 2.679688 L 6.894531 2.679688 C 7.050781 2.660156 7.234375 2.644531 7.296875 2.621094 C 6.382812 2.59375 6.308594 2.640625 6.246094 2.679688 Z M 93.832031 2.136719 L 93.515625 2.066406 L 92.800781 2.191406 Z M 65 2.199219 C 65.023438 2.199219 65.046875 2.203125 65.074219 2.203125 C 65.105469 2.191406 65.074219 2.191406 65 2.199219 Z M 65.285156 2.609375 L 65.292969 2.652344 C 65.417969 2.632812 65.472656 2.617188 65.285156 2.609375 Z M 69.964844 2.0625 L 71.003906 2.042969 L 68.898438 1.980469 Z M 65.613281 2.644531 L 65.597656 2.574219 C 66.636719 2.554688 66.222656 2.714844 67.242188 2.621094 L 65.417969 2.417969 C 64.691406 2.507812 65.445312 2.558594 65.613281 2.644531 Z M 67.9375 2.457031 L 66.605469 2.515625 L 67.671875 2.601562 C 67.957031 2.566406 68.542969 2.492188 67.9375 2.457031 Z M 55.953125 0.75 L 56.25 0.714844 L 55.175781 0.59375 Z M 54.136719 68.957031 C 54.285156 68.972656 54.429688 68.996094 54.574219 69.019531 C 54.429688 68.976562 54.285156 68.960938 54.136719 68.957031 Z M 47.308594 69.722656 L 47.605469 69.722656 C 47.644531 69.71875 47.683594 69.710938 47.726562 69.703125 C 47.59375 69.710938 47.445312 69.71875 47.269531 69.71875 C 47.285156 69.71875 47.296875 69.722656 47.308594 69.722656 Z M 53.730469 69.675781 C 53.597656 69.695312 53.628906 69.710938 53.589844 69.722656 L 53.722656 69.722656 C 53.703125 69.703125 53.703125 69.6875 53.730469 69.675781 Z M 48.296875 69.636719 C 48.035156 69.632812 47.871094 69.671875 47.726562 69.703125 C 47.949219 69.6875 48.125 69.660156 48.296875 69.636719 Z M 29.761719 67.09375 L 29.320312 67.09375 C 29.402344 67.109375 29.539062 67.125 29.738281 67.136719 Z M 48.847656 67.988281 C 49.414062 67.84375 50.648438 68.054688 51.367188 67.925781 C 51.324219 67.714844 48.246094 67.992188 48.035156 67.691406 C 46.992188 67.675781 45.792969 67.640625 44.914062 67.679688 L 45.527344 67.820312 L 45.527344 67.785156 C 45.5625 67.960938 47.207031 67.976562 48.847656 67.988281 Z M 59.53125 69.011719 C 60.382812 68.832031 57.898438 69.070312 58.015625 68.910156 L 57.296875 69.035156 C 57.15625 68.960938 57.222656 68.859375 57.238281 68.789062 C 56.785156 68.769531 55.578125 68.667969 55.863281 68.597656 L 53.492188 68.675781 C 54.742188 68.917969 55.964844 69.058594 58.210938 69.140625 C 58.195312 69.070312 58.898438 68.871094 59.53125 69.011719 Z M 41.894531 68.816406 L 44.203125 68.808594 C 44.484375 68.855469 45.03125 68.886719 46.046875 68.886719 C 42.0625 68.84375 47.054688 68.464844 43.351562 68.328125 C 44.671875 68.421875 43.425781 68.675781 44.183594 68.804688 L 42.171875 68.746094 Z M 58.359375 68.324219 L 58.179688 68.167969 C 57.613281 68.308594 57.421875 68.117188 56.378906 68.136719 L 57.457031 68.292969 C 57.597656 68.238281 58.050781 68.292969 58.359375 68.324219 Z M 52.914062 68.207031 L 54.117188 68.242188 C 54.109375 68.203125 54.691406 68.132812 53.941406 68.117188 C 54.125 68.273438 52.742188 68.082031 52.914062 68.207031 Z M 57.238281 68.753906 C 57.242188 68.761719 57.238281 68.777344 57.238281 68.789062 C 57.238281 68.789062 57.242188 68.789062 57.242188 68.789062 Z M 60.679688 69.675781 C 60.679688 69.675781 60.367188 69.605469 60.230469 69.660156 L 58.898438 69.71875 C 59.492188 69.71875 60.246094 69.734375 60.679688 69.675781 Z M 51.628906 69.171875 L 52.1875 68.992188 C 52.84375 69.207031 53.492188 68.9375 54.136719 68.957031 C 53.191406 68.84375 52.144531 68.890625 50.085938 68.925781 L 50.097656 68.964844 C 48.738281 68.878906 48.460938 68.984375 47.253906 68.917969 L 47.078125 68.792969 C 45.886719 68.796875 46.8125 68.972656 46.964844 68.988281 C 48.726562 68.84375 49.09375 69.195312 50.566406 69.085938 C 50.589844 69.191406 49.546875 69.214844 48.804688 69.199219 C 48.085938 69.324219 51.050781 69.28125 50.34375 69.441406 L 49.601562 69.460938 C 50.058594 69.515625 50.5 69.496094 50.222656 69.601562 C 49.132812 69.519531 48.714844 69.578125 48.296875 69.636719 C 48.425781 69.640625 48.574219 69.652344 48.753906 69.675781 C 48.734375 69.695312 48.703125 69.710938 48.675781 69.722656 L 53.515625 69.722656 C 53.300781 69.617188 52.464844 69.679688 51.847656 69.507812 L 53.042969 69.503906 L 52.890625 69.488281 C 53.457031 69.378906 55.113281 69.429688 55.089844 69.320312 C 53.617188 69.433594 52.691406 69.257812 51.628906 69.171875 Z M 68.644531 69.007812 L 68.007812 68.867188 L 67.890625 68.992188 C 68.335938 68.972656 68.5 69.058594 68.644531 69.007812 Z M 71.613281 68.960938 L 71.109375 68.695312 L 69.507812 68.898438 C 70.234375 68.804688 70.992188 68.859375 71.613281 68.960938 Z M 68.992188 67.9375 L 70.042969 67.984375 L 70.625 67.914062 Z M 75.230469 68.539062 L 74.621094 68.554688 C 74.378906 68.507812 73.691406 68.472656 73.691406 68.449219 C 73.535156 68.394531 73.242188 68.429688 72.792969 68.414062 C 72.648438 68.46875 74.148438 68.535156 74.617188 68.625 C 74.71875 68.601562 74.71875 68.582031 74.660156 68.566406 L 75.84375 68.609375 Z M 74.929688 69.164062 C 74.492188 69.183594 74.648438 69.238281 74.515625 69.292969 C 75.714844 69.324219 75.089844 69.21875 74.929688 69.164062 Z M 43.972656 68.199219 C 45.203125 68.371094 46.285156 68.566406 48.078125 68.59375 C 48.199219 68.46875 49.117188 68.539062 48.628906 68.378906 C 50.269531 68.359375 49.25 68.484375 50.304688 68.535156 C 49.964844 68.472656 49.773438 68.351562 49.984375 68.308594 C 49.445312 68.300781 49.261719 68.214844 48.890625 68.203125 L 49.214844 68.308594 C 48.347656 68.242188 46.824219 68.226562 47.679688 68.132812 C 47.125 68.183594 46.488281 68.167969 46.332031 68.085938 C 46.339844 68.121094 46.046875 68.15625 46.0625 68.226562 C 44.421875 68.214844 41.839844 67.992188 41.753906 68.292969 C 42.46875 68.292969 42.960938 68.304688 43.296875 68.324219 C 44.558594 68.335938 42.9375 68.183594 43.972656 68.199219 Z M 50.398438 68.304688 C 50.195312 68.289062 50.0625 68.292969 49.984375 68.308594 C 50.105469 68.3125 50.238281 68.3125 50.398438 68.304688 Z M 62.4375 67.378906 L 62.765625 67.554688 C 63.363281 67.554688 63.621094 67.339844 62.4375 67.378906 Z M 47.679688 68.132812 C 47.730469 68.125 47.78125 68.121094 47.832031 68.117188 C 47.773438 68.121094 47.726562 68.125 47.679688 68.132812 Z M 43.253906 68.324219 C 43.289062 68.324219 43.320312 68.328125 43.351562 68.328125 C 43.335938 68.328125 43.316406 68.328125 43.296875 68.324219 C 43.28125 68.324219 43.269531 68.324219 43.253906 68.324219 Z M 45.777344 69.722656 C 45.777344 69.722656 45.78125 69.722656 45.78125 69.722656 L 45.816406 69.722656 C 45.804688 69.722656 45.789062 69.722656 45.777344 69.722656 Z M 53.730469 69.675781 C 53.753906 69.671875 53.78125 69.667969 53.816406 69.664062 C 53.773438 69.664062 53.746094 69.667969 53.730469 69.675781 Z M 99.972656 68.515625 L 100.722656 68.550781 C 100.492188 68.53125 100.234375 68.523438 99.972656 68.515625 Z M 102.617188 69.253906 L 102.691406 69.332031 C 102.703125 69.300781 102.671875 69.273438 102.617188 69.253906 Z M 86.519531 68.953125 L 87.722656 69.019531 L 87.558594 68.933594 Z M 96.808594 69.570312 C 96.671875 69.558594 96.507812 69.550781 96.296875 69.550781 C 96.464844 69.558594 96.636719 69.566406 96.808594 69.570312 Z M 84.699219 68.816406 C 84.683594 68.804688 84.644531 68.796875 84.59375 68.789062 C 84.570312 68.792969 84.550781 68.796875 84.542969 68.800781 Z M 89.316406 68.007812 C 89.269531 68.003906 89.214844 68.003906 89.152344 68.003906 Z M 12.675781 67.09375 L 9.433594 67.09375 C 9.417969 67.109375 9.351562 67.128906 9.21875 67.15625 C 10.796875 67.265625 11.746094 67.175781 12.675781 67.09375 Z M 92.652344 69.058594 C 92.945312 69.023438 93.386719 69.003906 93.675781 68.96875 L 92.324219 68.917969 Z M 98.070312 69.550781 C 97.648438 69.574219 97.226562 69.578125 96.808594 69.570312 C 97.238281 69.605469 97.386719 69.6875 97.886719 69.722656 L 98.511719 69.722656 C 98.367188 69.636719 99.195312 69.613281 98.070312 69.550781 Z M 98.054688 67.796875 L 99.394531 67.8125 L 98.488281 67.746094 Z M 93.691406 69.261719 C 94.375 69.382812 95.296875 69.503906 96.296875 69.550781 C 96.199219 69.550781 96.097656 69.550781 95.980469 69.554688 C 95.84375 69.609375 96.300781 69.625 96.605469 69.660156 C 95.414062 69.699219 94.066406 69.648438 92.871094 69.617188 C 94.707031 69.167969 89.535156 69.378906 90.355469 69.023438 L 88.738281 69.113281 L 89.003906 68.972656 C 89.515625 68.945312 89.933594 68.945312 90.320312 68.957031 C 89.574219 68.804688 87.175781 68.828125 85.597656 68.851562 L 86.332031 68.757812 C 86.171875 68.675781 84.890625 68.734375 84.59375 68.789062 C 84.117188 68.707031 82.277344 68.773438 81.980469 68.648438 C 83.328125 68.695312 83.734375 68.5 84.660156 68.601562 C 84.9375 68.53125 84.898438 68.351562 84.308594 68.390625 C 84.757812 68.371094 85.3125 68.191406 86.5 68.152344 C 86.5625 68.15625 86.621094 68.160156 86.679688 68.167969 L 88.40625 68.125 L 87.976562 68.179688 L 86.695312 68.167969 C 86.949219 68.195312 87.167969 68.238281 87.304688 68.269531 C 87.707031 68.28125 88.15625 68.292969 88.738281 68.269531 L 88.800781 68.300781 L 89.214844 68.324219 L 88.964844 68.386719 L 89.074219 68.445312 C 89.210938 68.390625 89.371094 68.445312 89.53125 68.460938 C 87.902344 68.554688 87.113281 68.324219 85.773438 68.3125 C 85.792969 68.308594 85.816406 68.308594 85.835938 68.304688 C 85.6875 68.308594 85.519531 68.308594 85.335938 68.296875 C 86.550781 68.402344 85.828125 68.527344 87.34375 68.628906 C 88.507812 68.519531 86.585938 68.542969 87.304688 68.453125 C 87.789062 68.613281 89.710938 68.554688 90.179688 68.640625 C 89.878906 68.605469 90.308594 68.515625 89.402344 68.515625 L 90.269531 68.375 C 91.171875 68.40625 90.128906 68.425781 90.445312 68.496094 C 90.769531 68.535156 91.246094 68.605469 91.699219 68.605469 C 91.761719 68.601562 91.820312 68.601562 91.882812 68.601562 C 91.972656 68.597656 92.0625 68.589844 92.148438 68.578125 C 91.949219 68.546875 91.589844 68.554688 91.324219 68.527344 L 92.261719 68.523438 C 92.296875 68.460938 92.359375 68.390625 91.625 68.421875 L 92.636719 68.261719 C 91.871094 68.171875 91.089844 68.015625 90.503906 68.050781 L 90.425781 68.105469 L 91.398438 68.152344 L 90.242188 68.335938 C 90.828125 68.261719 89.300781 68.089844 88.714844 68.160156 L 89.289062 68.050781 L 89.636719 68.070312 C 89.550781 68.042969 89.476562 68.015625 89.316406 68.007812 L 90.351562 68.035156 C 91.382812 68.015625 91.214844 67.890625 90.75 67.804688 C 89.734375 67.929688 89.539062 67.734375 89.074219 67.648438 L 87.152344 67.707031 C 84.898438 67.625 85.3125 67.464844 83.503906 67.398438 C 83.371094 67.449219 83.816406 67.46875 84.125 67.5 C 82.476562 67.453125 80.863281 67.582031 79.1875 67.394531 L 79.34375 67.445312 C 79.03125 67.375 77.675781 67.289062 77.242188 67.378906 C 75.542969 67.082031 80.945312 67.386719 79.28125 67.09375 L 79.804688 67.09375 C 79.757812 67.101562 79.6875 67.113281 79.578125 67.125 C 79.980469 67.125 80.34375 67.109375 80.652344 67.09375 L 84.484375 67.09375 L 84.492188 67.128906 C 85.074219 67.054688 85.992188 67.160156 86.742188 67.175781 C 86.417969 67.136719 86.472656 67.113281 86.652344 67.09375 L 97.191406 67.09375 C 97.40625 67.105469 97.632812 67.117188 97.871094 67.132812 L 97.910156 67.125 C 98.078125 67.105469 98.21875 67.097656 98.339844 67.09375 L 98.730469 67.09375 C 99.011719 67.105469 99.183594 67.152344 99.460938 67.1875 C 99.546875 67.1875 99.632812 67.191406 99.71875 67.191406 L 99.710938 67.15625 C 100.113281 67.175781 100.542969 67.1875 100.976562 67.199219 L 101.277344 67.5 C 100.816406 67.519531 100.449219 67.523438 100.140625 67.511719 L 99.507812 67.617188 L 99.566406 67.484375 C 99.035156 67.441406 98.628906 67.371094 97.960938 67.34375 C 97.902344 67.355469 97.855469 67.371094 97.824219 67.390625 C 97.976562 67.441406 98.566406 67.40625 98.726562 67.457031 C 98.433594 67.496094 97.84375 67.53125 98.003906 67.585938 L 98.894531 67.546875 C 97.726562 67.660156 96.082031 67.644531 95.054688 67.734375 C 97.449219 67.765625 95.285156 68.074219 97.230469 68.15625 C 97.335938 68.117188 98.96875 68.0625 99.71875 68.121094 C 100.253906 68.132812 100.710938 68.160156 100.617188 68.171875 C 100.46875 68.167969 100.277344 68.175781 100.070312 68.183594 C 100.101562 68.199219 100.105469 68.214844 100.082031 68.238281 L 96.941406 68.191406 C 97.265625 68.28125 97.894531 68.371094 98.617188 68.457031 L 98.621094 68.453125 L 99.972656 68.515625 C 99.683594 68.507812 99.398438 68.511719 99.148438 68.519531 C 99.695312 68.578125 100.265625 68.640625 100.773438 68.695312 C 101.421875 68.707031 101.894531 68.695312 102.445312 68.675781 L 102.90625 69.140625 C 102.847656 69.140625 102.78125 69.136719 102.707031 69.136719 C 102.722656 69.160156 102.761719 69.191406 102.574219 69.210938 L 102.617188 69.25 C 102.582031 69.238281 102.539062 69.226562 102.488281 69.214844 C 102.480469 69.214844 102.476562 69.214844 102.472656 69.214844 L 102.429688 69.207031 C 101.691406 69.078125 99.621094 69.140625 99.511719 69.082031 L 99.519531 69.109375 C 96.125 69.28125 96.628906 68.851562 93.800781 68.84375 C 93.371094 68.894531 90.601562 68.71875 90.410156 68.960938 C 91.425781 69.003906 92.214844 69.136719 93.816406 69.171875 C 94.570312 69.222656 94.246094 69.082031 94.691406 69.097656 C 95.328125 69.238281 93.667969 69.1875 93.691406 69.261719 Z M 98.503906 68.648438 L 98.554688 68.558594 C 98.410156 68.582031 98.371094 68.613281 98.503906 68.648438 Z M 87.339844 68.277344 C 87.445312 68.300781 87.484375 68.3125 87.425781 68.292969 C 87.394531 68.285156 87.367188 68.28125 87.339844 68.277344 Z M 86.601562 68.257812 C 86.828125 68.253906 87.050781 68.261719 87.289062 68.269531 C 87.050781 68.230469 86.839844 68.238281 86.601562 68.257812 Z M 92.285156 68.710938 L 92.582031 68.808594 C 92.601562 68.757812 92.480469 68.726562 92.285156 68.710938 Z M 79.265625 67.09375 L 79.03125 67.09375 C 79.109375 67.105469 79.191406 67.117188 79.265625 67.09375 Z M 32.917969 67.394531 C 32.007812 67.328125 32.34375 67.46875 31.609375 67.523438 L 32.21875 67.59375 C 32.8125 67.554688 32.933594 67.46875 32.917969 67.394531 Z M 102 68.230469 L 101.707031 68.179688 L 101.28125 68.269531 L 102.050781 68.28125 Z M 40.183594 67.179688 C 39.671875 67.160156 39.300781 67.113281 38.777344 67.09375 L 37.707031 67.09375 C 37.546875 67.097656 37.375 67.105469 37.1875 67.117188 C 37.664062 67.273438 39.585938 67.179688 40.183594 67.179688 Z M 73.191406 67.199219 C 74.402344 67.300781 73.613281 67.109375 74.816406 67.175781 C 74.90625 67.144531 74.710938 67.117188 74.511719 67.09375 L 73.851562 67.09375 Z M 61.253906 67.164062 L 61.375 67.09375 L 61.277344 67.09375 C 61.328125 67.105469 61.328125 67.128906 61.253906 67.164062 Z M 57.804688 69.492188 C 57.476562 69.347656 57.683594 69.617188 56.625 69.53125 C 56.605469 69.460938 57.195312 69.421875 57.488281 69.386719 L 56.140625 69.371094 C 56.910156 69.542969 55.976562 69.628906 55.21875 69.722656 L 57.914062 69.722656 C 57.535156 69.679688 57.417969 69.609375 57.804688 69.492188 Z M 41.378906 67.683594 C 41.21875 67.71875 41.191406 67.746094 41.25 67.769531 C 41.386719 67.753906 41.449219 67.726562 41.378906 67.683594 Z M 84.535156 69.714844 C 83.644531 69.714844 82.113281 69.542969 80.789062 69.601562 C 81.855469 69.75 80.304688 69.683594 79.964844 69.722656 L 84.515625 69.722656 C 84.519531 69.71875 84.527344 69.71875 84.535156 69.714844 Z M 85.875 69.691406 C 85.136719 69.695312 85.316406 69.707031 85.503906 69.722656 L 86.433594 69.722656 C 86.367188 69.707031 86.152344 69.703125 85.875 69.691406 Z M 40.398438 68.785156 C 40.839844 68.765625 40.082031 68.714844 39.929688 68.699219 C 38.90625 68.789062 38.292969 68.683594 37.574219 68.8125 C 38.476562 68.878906 39.792969 68.714844 40.398438 68.785156 Z M 41.003906 68.023438 C 42.054688 68.035156 41.730469 67.929688 42.628906 67.929688 C 42.605469 67.84375 41.445312 67.839844 41.25 67.769531 C 40.71875 67.828125 39.03125 67.730469 39.183594 67.886719 C 39.898438 67.757812 40.402344 67.988281 41.003906 68.023438 Z M 3.074219 37.078125 C 3.15625 35.414062 3.171875 34.074219 3.132812 32.59375 C 3.179688 32.414062 3.226562 32.300781 3.273438 32.171875 L 3.246094 38.003906 C 3.214844 37.269531 3.1875 36.910156 3.074219 37.078125 Z M 3.132812 27.371094 C 3.058594 29.121094 3.261719 28.1875 3.21875 29.378906 C 3.257812 28.933594 3.320312 28.464844 3.277344 27.945312 L 3.207031 27.949219 L 3.273438 26.746094 L 3.300781 26.871094 L 3.308594 25.253906 C 3.195312 25.695312 3.128906 26.546875 3.074219 27.460938 C 3.085938 27.382812 3.105469 27.34375 3.132812 27.371094 Z M 3.140625 59.972656 L 3.140625 59.425781 C 3.117188 59.6875 3.125 59.855469 3.140625 59.972656 Z M 2.828125 33.945312 C 2.875 32.886719 2.765625 32.015625 2.78125 30.972656 C 2.785156 31.867188 2.648438 33.6875 2.828125 33.945312 Z M 2.308594 44.636719 C 2.351562 43.949219 2.324219 43.847656 2.285156 43.898438 C 2.277344 44.089844 2.277344 44.3125 2.308594 44.636719 Z M 2.335938 42.542969 L 2.164062 44.078125 C 2.191406 44.140625 2.246094 43.949219 2.285156 43.898438 C 2.304688 43.492188 2.375 43.253906 2.335938 42.542969 Z M 2.636719 23.988281 C 2.660156 23.957031 2.683594 23.847656 2.695312 23.59375 C 2.679688 23.808594 2.660156 23.921875 2.636719 23.988281 Z M 2.46875 34.796875 C 2.5 34.492188 2.550781 33.4375 2.480469 33.15625 C 2.480469 33.746094 2.394531 34.511719 2.46875 34.796875 Z M 3.21875 29.378906 C 3.207031 29.554688 3.195312 29.726562 3.195312 29.894531 C 3.207031 29.6875 3.214844 29.519531 3.21875 29.378906 Z M 2.230469 37.054688 L 2.160156 37.664062 C 2.199219 38.253906 2.289062 38.378906 2.359375 38.363281 C 2.425781 37.453125 2.285156 37.789062 2.230469 37.054688 Z M 2.992188 21.882812 C 3.007812 21.597656 3.054688 21.273438 3.082031 20.949219 C 3.035156 20.914062 2.992188 21.34375 2.992188 21.882812 Z M 3.394531 7.742188 L 3.402344 6.335938 C 3.371094 6.863281 3.359375 7.351562 3.359375 7.648438 C 3.371094 7.675781 3.382812 7.707031 3.394531 7.742188 Z M 3.097656 20.972656 C 2.996094 23.074219 3.261719 22.277344 3.160156 24.382812 C 3.230469 24.921875 3.28125 24.328125 3.3125 24.25 L 3.339844 18.882812 C 3.332031 19.128906 3.316406 19.363281 3.289062 19.589844 L 3.078125 19.929688 C 3.132812 20.230469 3.117188 20.589844 3.082031 20.949219 C 3.089844 20.953125 3.09375 20.957031 3.097656 20.972656 Z M 2.617188 35.183594 L 2.8125 35.289062 C 2.757812 34.554688 2.667969 34.425781 2.617188 35.183594 Z M 3.128906 25.585938 C 3.019531 25.304688 2.96875 25.765625 2.917969 26.226562 C 2.972656 26.960938 3.003906 25.457031 3.128906 25.585938 Z M 3.035156 28.113281 C 3.027344 28.222656 3.019531 28.332031 3.011719 28.4375 C 3.023438 28.4375 3.027344 28.292969 3.035156 28.113281 Z M 3.035156 28.113281 C 3.046875 27.894531 3.058594 27.675781 3.074219 27.460938 C 3.046875 27.605469 3.039062 27.886719 3.035156 28.113281 Z M 2.640625 42.632812 C 2.480469 43.109375 2.574219 45.03125 2.578125 45.628906 C 2.609375 44.722656 2.734375 44.25 2.640625 42.632812 Z M 2.449219 24.828125 C 2.476562 23.917969 2.566406 24.195312 2.636719 23.988281 C 2.546875 24.109375 2.417969 23.195312 2.449219 24.828125 Z M 1.054688 16.027344 C 1.019531 16.335938 0.96875 16.5 0.933594 16.800781 L 0.953125 16.949219 L 0.847656 17.492188 C 0.976562 17.113281 1.136719 17.621094 1.054688 16.027344 Z M 0.765625 20.113281 L 0.90625 18.890625 L 0.886719 18.75 L 0.75 19.96875 Z M 0.847656 17.492188 C 0.824219 17.574219 0.796875 17.691406 0.777344 17.875 Z M 0.613281 63.65625 C 0.683594 63.640625 0.882812 64.34375 0.742188 64.976562 C 0.921875 65.828125 0.683594 63.34375 0.84375 63.457031 L 0.71875 62.738281 C 0.792969 62.601562 0.894531 62.667969 0.964844 62.679688 C 0.984375 62.230469 1.085938 61.023438 1.15625 61.304688 L 1.082031 58.9375 C 0.835938 60.1875 0.695312 61.410156 0.613281 63.65625 Z M 0.816406 3.355469 C 0.804688 3.308594 0.792969 3.277344 0.785156 3.257812 L 0.78125 4.0625 C 0.792969 4.089844 0.804688 4.148438 0.816406 4.25 Z M 1.625 53.125 C 1.628906 53.175781 1.632812 53.226562 1.640625 53.277344 C 1.632812 53.21875 1.628906 53.167969 1.625 53.125 Z M 1.429688 48.695312 C 1.429688 48.734375 1.425781 48.761719 1.425781 48.796875 C 1.425781 48.78125 1.429688 48.761719 1.429688 48.742188 C 1.429688 48.726562 1.429688 48.714844 1.429688 48.695312 Z M 1.046875 18.859375 L 0.976562 19.472656 L 1.085938 19.453125 Z M 1.765625 38.839844 L 1.941406 37.789062 C 1.921875 37.730469 1.894531 37.652344 1.847656 37.476562 Z M 1.941406 37.789062 C 1.949219 37.808594 1.953125 37.828125 1.960938 37.847656 C 1.960938 37.769531 1.964844 37.6875 1.972656 37.601562 Z M 2.132812 39.046875 C 2.132812 39.132812 2.136719 39.21875 2.148438 39.300781 Z M 2.035156 39.335938 L 2 39.832031 C 2.027344 39.648438 2.035156 39.488281 2.035156 39.335938 Z M 1.003906 62.683594 C 0.992188 62.683594 0.980469 62.683594 0.964844 62.679688 C 0.964844 62.683594 0.964844 62.683594 0.964844 62.6875 Z M 2.117188 38.164062 C 2.113281 38.191406 2.109375 38.234375 2.105469 38.285156 L 2.074219 38.128906 L 2.09375 38.4375 C 2.074219 38.648438 2.046875 38.878906 2.015625 38.789062 C 1.988281 38.09375 1.988281 37.957031 1.960938 37.847656 C 1.933594 38.503906 2.027344 38.890625 2.035156 39.335938 L 2.097656 38.46875 L 2.132812 39.046875 C 2.132812 38.847656 2.152344 38.664062 2.164062 38.554688 L 2.109375 38.292969 Z M 2.074219 50.359375 L 1.933594 50.972656 L 1.96875 50.972656 C 1.792969 51.007812 1.777344 52.648438 1.765625 54.292969 C 1.910156 54.859375 1.703125 56.09375 1.828125 56.808594 C 2.039062 56.769531 1.765625 53.691406 2.066406 53.476562 C 2.082031 52.433594 2.113281 51.238281 2.074219 50.359375 Z M 1.855469 33.152344 L 1.871094 32.699219 L 1.746094 32.285156 Z M 2.046875 33.394531 C 1.902344 33.824219 1.898438 33.566406 1.796875 34.457031 C 1.972656 34.558594 1.976562 34.683594 2.039062 33.714844 C 2.023438 34.324219 2.042969 34.960938 2.089844 35.34375 C 2.210938 33.976562 1.980469 33.578125 2.15625 32.347656 C 2.101562 32.585938 2.066406 32.96875 2.046875 33.394531 Z M 2.835938 65.109375 C 2.839844 65.070312 2.839844 65.066406 2.835938 65.109375 Z M 0.765625 57.632812 C 0.546875 58.289062 0.816406 58.9375 0.800781 59.582031 C 0.910156 58.636719 0.863281 57.589844 0.828125 55.53125 L 0.792969 55.542969 C 0.878906 54.183594 0.769531 53.90625 0.839844 52.699219 L 0.960938 52.523438 C 0.957031 51.332031 0.78125 52.257812 0.765625 52.40625 C 0.914062 54.171875 0.558594 54.539062 0.667969 56.011719 C 0.5625 56.035156 0.542969 54.992188 0.558594 54.25 C 0.550781 54.207031 0.542969 54.175781 0.535156 54.160156 L 0.519531 57.75 C 0.542969 57.527344 0.5625 57.304688 0.582031 57.070312 Z M 0.800781 59.582031 C 0.78125 59.730469 0.761719 59.875 0.734375 60.019531 C 0.777344 59.875 0.792969 59.730469 0.800781 59.582031 Z M 0.636719 33.726562 L 0.632812 34.0625 C 0.648438 34.023438 0.664062 33.980469 0.675781 33.945312 Z M 0.683594 45.921875 L 0.792969 47.089844 C 0.769531 45.457031 0.941406 43.332031 0.832031 41.863281 L 0.785156 44.113281 L 0.691406 43.085938 C 0.566406 43.265625 0.785156 44.710938 0.644531 45.335938 C 0.625 45.46875 0.601562 45.574219 0.578125 45.675781 L 0.570312 46.898438 Z M 1.589844 63.621094 C 1.445312 63.054688 1.640625 62.863281 1.617188 61.820312 L 1.460938 62.902344 C 1.515625 63.039062 1.464844 63.496094 1.429688 63.804688 Z M 2.070312 46.824219 C 2.035156 46.664062 2.007812 46.636719 1.988281 46.695312 C 2.003906 46.832031 2.027344 46.894531 2.070312 46.824219 Z M 1.746094 26.46875 L 1.566406 26.507812 C 1.570312 27.699219 1.710938 26.472656 1.746094 26.46875 Z M 1.546875 58.359375 L 1.515625 59.5625 C 1.550781 59.554688 1.625 60.132812 1.640625 59.386719 C 1.480469 59.570312 1.671875 58.1875 1.546875 58.359375 Z M 1.734375 44.160156 C 1.734375 43.566406 1.613281 44.039062 1.558594 43.894531 C 1.644531 43.148438 1.667969 42.460938 1.675781 41.789062 C 1.699219 41.675781 1.714844 41.449219 1.71875 41.0625 L 1.679688 40.960938 C 1.679688 40.265625 1.675781 39.5625 1.71875 38.800781 C 1.683594 38.804688 1.632812 38.964844 1.613281 38.519531 L 1.683594 37.910156 C 1.539062 37.347656 1.597656 38.972656 1.507812 38.839844 C 1.582031 39.726562 1.6875 39.695312 1.671875 40.746094 C 1.660156 40.796875 1.648438 40.832031 1.636719 40.851562 L 1.546875 40.613281 C 1.53125 40.476562 1.515625 40.28125 1.511719 40.039062 C 1.425781 40.328125 1.421875 40.738281 1.445312 41.21875 C 1.402344 41.441406 1.351562 41.707031 1.332031 42.339844 L 1.457031 41.460938 C 1.503906 42.25 1.597656 43.1875 1.539062 44.054688 Z M 1.328125 18.503906 C 1.273438 17.179688 1.433594 16.699219 1.355469 15.222656 L 1.464844 16.089844 C 1.585938 14.425781 1.320312 14.933594 1.4375 12.667969 L 1.3125 12.84375 L 1.398438 12.082031 C 1.328125 11.496094 1.132812 11.09375 1.253906 10.027344 L 1.058594 10.21875 C 1.074219 9.464844 1.25 9.730469 1.25 8.835938 C 1.210938 8.246094 1.101562 7.96875 1.050781 8.429688 C 1.046875 6.9375 1.378906 4.628906 1.125 3.488281 C 1.234375 3.761719 1.210938 2.429688 1.265625 2.867188 L 1.265625 3.164062 C 1.425781 2.683594 1.460938 2.378906 1.457031 0.886719 L 1.363281 0.796875 C 1.378906 0.777344 1.390625 0.730469 1.402344 0.652344 L 2.417969 1.675781 C 2.414062 1.695312 2.40625 1.71875 2.402344 1.738281 C 2.472656 2.300781 2.523438 2.171875 2.574219 1.828125 L 2.71875 1.976562 C 2.664062 3.328125 2.640625 4.710938 2.644531 6.003906 L 2.574219 5.722656 C 2.492188 6.6875 2.628906 7.613281 2.558594 8.648438 L 2.585938 9.28125 C 2.550781 9.601562 2.535156 10.15625 2.503906 10.558594 C 2.550781 10.691406 2.617188 10.382812 2.640625 10.929688 C 2.574219 11.019531 2.515625 10.90625 2.460938 10.933594 C 2.445312 11.007812 2.425781 11.046875 2.402344 11.03125 C 2.375 11.125 2.347656 11.292969 2.324219 11.589844 C 2.539062 12.433594 2.402344 14.554688 2.511719 15.726562 L 2.375 17.242188 L 2.230469 16.082031 L 2.230469 16.679688 C 1.925781 15.699219 2.371094 15.453125 2.152344 14.003906 L 1.921875 13.914062 L 1.9375 12.863281 C 1.847656 12.730469 1.722656 13.203125 1.707031 13.65625 C 1.726562 14.09375 1.890625 14.808594 1.976562 15.238281 C 1.996094 15.085938 2.03125 15.078125 2.011719 14.632812 C 2.195312 16.089844 1.890625 14.808594 1.925781 15.996094 C 2.015625 15.53125 2.070312 16.5625 2.125 16.996094 C 1.984375 17.328125 1.957031 19.417969 2.046875 20.144531 L 1.90625 21.367188 L 2.035156 22.082031 C 1.851562 22.835938 2.257812 25.914062 2.015625 27.023438 C 2.085938 26.925781 2.09375 28.089844 2.140625 28.476562 C 2.09375 29.527344 1.964844 28.511719 1.949219 29.855469 C 2.144531 29.367188 1.917969 31.347656 2.046875 32.078125 C 1.914062 32.203125 1.84375 30.804688 1.8125 30.359375 L 1.894531 29.121094 C 1.789062 29.441406 1.855469 28.234375 1.734375 28.707031 C 1.800781 26.902344 1.796875 26.015625 1.914062 23.453125 C 1.859375 23.613281 1.808594 23.476562 1.773438 23.777344 L 1.8125 21.8125 C 1.765625 22.605469 1.457031 22.84375 1.542969 24.570312 L 1.46875 22.800781 L 1.449219 22.953125 L 1.171875 18.984375 C 1.171875 18.386719 1.257812 18.222656 1.328125 18.503906 Z M 2.1875 12.496094 C 2.1875 12.453125 2.183594 12.414062 2.183594 12.371094 C 2.175781 12.523438 2.167969 12.667969 2.152344 12.796875 Z M 2.480469 9.335938 C 2.472656 9.382812 2.46875 9.425781 2.457031 9.472656 C 2.457031 9.527344 2.457031 9.578125 2.457031 9.628906 Z M 101.625 49.898438 C 101.675781 48.847656 101.667969 46.761719 101.523438 46.496094 C 101.582031 48.125 101.367188 46.980469 101.316406 48.03125 C 101.339844 47.988281 101.386719 47.949219 101.386719 48.3125 C 101.378906 51.148438 101.03125 48.089844 100.984375 50.632812 C 101.21875 51.03125 100.886719 53.042969 100.976562 53.464844 C 101.15625 53.730469 101.492188 53.210938 101.378906 51.148438 L 101.484375 50.824219 L 101.492188 52.914062 C 101.71875 51.824219 101.285156 49.234375 101.625 49.898438 Z M 0.738281 40.839844 L 0.667969 40.855469 L 0.6875 41 L 0.597656 41.765625 Z M 101.960938 61.613281 C 102.046875 61.144531 101.992188 59.515625 102.007812 59.070312 C 101.851562 59.101562 101.957031 60.332031 101.902344 60.355469 C 101.949219 60.613281 101.886719 61.5 101.960938 61.613281 Z M 101.867188 60.285156 C 101.882812 60.339844 101.894531 60.359375 101.902344 60.355469 C 101.894531 60.3125 101.882812 60.285156 101.867188 60.285156 Z M 101.316406 48.03125 C 101.300781 48.0625 101.296875 48.09375 101.316406 48.03125 Z M 1.363281 0.796875 L 1.332031 0.761719 C 1.339844 0.804688 1.351562 0.816406 1.363281 0.796875 Z M 1.988281 46.695312 C 1.929688 46.164062 2.027344 44.476562 1.871094 44.628906 C 1.996094 45.34375 1.765625 45.847656 1.734375 46.449219 C 1.71875 47.496094 1.824219 47.175781 1.828125 48.070312 C 1.910156 48.050781 1.914062 46.886719 1.988281 46.695312 Z M 1.792969 30.632812 L 1.8125 30.359375 C 1.796875 30.152344 1.792969 30.15625 1.792969 30.632812 Z M 2.414062 35.007812 C 2.414062 34.992188 2.414062 34.980469 2.410156 34.980469 C 2.414062 34.988281 2.414062 35 2.414062 35.007812 Z M 2.871094 59.03125 L 2.894531 60.375 L 2.960938 59.765625 Z M 1.453125 55.84375 C 1.464844 55.640625 1.460938 55.507812 1.445312 55.429688 C 1.441406 55.550781 1.445312 55.683594 1.453125 55.84375 Z M 2.953125 50.371094 C 2.957031 51.859375 2.871094 53.816406 2.894531 54.855469 C 2.90625 53.214844 3.0625 51.839844 2.953125 50.371094 Z M 2.902344 64.25 L 2.953125 63.191406 L 2.867188 64.253906 Z M 2.820312 48.164062 L 2.824219 49.652344 L 3.074219 49.300781 C 2.894531 49.042969 2.855469 48.457031 2.820312 48.164062 Z M 2.808594 25.351562 L 2.914062 24.4375 C 2.839844 24.453125 2.785156 24.3125 2.769531 24.765625 C 2.773438 25.0625 2.753906 25.214844 2.808594 25.351562 Z M 2.835938 65.15625 C 2.835938 65.132812 2.835938 65.121094 2.835938 65.109375 C 2.828125 65.296875 2.78125 66.234375 2.695312 65.777344 C 2.675781 65.335938 2.730469 65.175781 2.765625 64.871094 C 2.570312 65.359375 2.789062 67.105469 2.589844 66.695312 L 2.824219 67.09375 C 2.699219 66.671875 2.890625 65.886719 2.835938 65.15625 Z M 2.488281 39.980469 C 2.613281 40.699219 2.582031 41.902344 2.78125 42.300781 C 2.996094 42.855469 2.828125 40.648438 3.042969 40.605469 C 2.988281 40.167969 2.84375 39.3125 2.929688 38.246094 C 2.941406 37.199219 2.894531 38.851562 2.84375 39.3125 C 2.804688 39.015625 2.660156 38.453125 2.746094 37.6875 L 2.644531 38.011719 L 2.65625 36.960938 C 2.375 37.023438 2.683594 40.085938 2.488281 39.980469 Z M 2.167969 36.8125 L 2.328125 37.230469 C 2.328125 36.636719 2.257812 36.949219 2.273438 36.195312 C 2.484375 35.855469 2.363281 37.519531 2.402344 38.410156 C 2.539062 37.789062 2.484375 35.386719 2.414062 35.007812 C 2.421875 35.207031 2.300781 36.453125 2.21875 36.058594 C 2.164062 35.917969 2.179688 35.472656 2.179688 35.167969 C 2.144531 35.476562 2.164062 36.222656 2.167969 36.8125 Z M 2.863281 9.660156 C 2.863281 9.46875 2.851562 9.285156 2.8125 9.105469 Z M 2.902344 6.773438 C 2.867188 7.042969 2.832031 7.320312 2.808594 7.609375 C 2.898438 8.324219 2.878906 7.308594 2.902344 6.773438 Z M 2.902344 6.773438 C 2.914062 6.679688 2.925781 6.582031 2.9375 6.488281 C 2.917969 6.5 2.910156 6.613281 2.902344 6.773438 Z M 2.875 23.554688 L 2.902344 21.75 L 2.796875 21.777344 C 2.800781 22.371094 2.730469 23.578125 2.875 23.554688 Z M 3.285156 17.804688 C 3.292969 16.953125 3.207031 17.191406 3.140625 17.109375 C 3.195312 17.378906 3.25 17.808594 3.285156 17.804688 Z M 2.820312 20.761719 C 2.828125 20.746094 2.832031 20.699219 2.828125 20.574219 C 2.828125 20.636719 2.824219 20.699219 2.820312 20.761719 Z M 2.597656 14.660156 C 2.375 17.84375 2.964844 18.460938 2.691406 21.503906 C 2.609375 21.925781 2.78125 21.421875 2.820312 20.761719 C 2.8125 20.78125 2.796875 20.734375 2.777344 20.738281 C 2.988281 20.398438 2.660156 16.589844 2.964844 18.460938 L 3.019531 18.898438 C 3.144531 18.125 2.964844 18.167969 2.980469 17.414062 C 3.011719 16.925781 3.050781 16.839844 3.089844 16.929688 C 3.074219 16.816406 3.066406 16.636719 3.066406 16.355469 L 3.316406 16.300781 C 3.324219 16.84375 3.339844 17.335938 3.34375 17.792969 L 3.363281 14.402344 L 3.273438 14.816406 L 3.285156 12.578125 L 3.371094 12.628906 L 3.371094 12.070312 C 3.304688 11.347656 3.410156 10.6875 3.171875 9.921875 C 3.191406 10.359375 3.15625 10.375 3.121094 10.683594 L 2.992188 9.664062 C 3.15625 10.375 3.042969 8.011719 3.21875 7.976562 C 3.242188 6.578125 3.335938 4.90625 3.417969 3.148438 L 3.417969 2.679688 L 3.21875 2.480469 C 3.195312 3.242188 3.027344 2.316406 2.957031 2.960938 L 3.042969 3.085938 L 2.90625 4.316406 L 2.941406 4.304688 L 2.894531 5.660156 C 2.945312 5.5 2.960938 5.046875 3.015625 5.179688 C 3.046875 5.59375 3 6.027344 2.9375 6.488281 C 2.945312 6.484375 2.957031 6.496094 2.964844 6.535156 C 2.953125 7.582031 3.0625 9.050781 2.90625 10.128906 L 2.863281 9.660156 C 2.867188 10.382812 2.683594 11.203125 2.839844 12.222656 C 3.070312 12.027344 2.78125 10.898438 2.871094 10.4375 L 2.996094 10.257812 C 3.035156 12.039062 3.039062 12.929688 2.917969 14.59375 C 2.84375 13.714844 2.773438 13.136719 2.789062 12.683594 C 2.683594 13.003906 2.796875 15.660156 2.597656 14.660156 Z M 3.089844 16.929688 C 3.101562 17.035156 3.121094 17.085938 3.140625 17.109375 C 3.121094 17.03125 3.105469 16.964844 3.089844 16.929688 Z M 0.632812 34.390625 L 0.632812 34.488281 L 0.753906 34.578125 L 0.683594 34.289062 Z M 103.238281 5.171875 C 103.292969 5.011719 103.328125 4.40625 103.398438 4.394531 L 103.304688 2.46875 C 103.25 2.933594 103.132812 4.597656 103.238281 5.171875 Z M 103.308594 36.289062 C 103.3125 37.175781 103.292969 37.628906 103.203125 37.199219 C 103.242188 38.386719 103.355469 40.453125 103.429688 41.332031 L 103.550781 39.960938 C 103.441406 39.980469 103.515625 40.863281 103.410156 40.585938 C 103.460938 40.125 103.421875 38.644531 103.582031 39.0625 C 103.472656 38.1875 103.433594 36.410156 103.574219 35.78125 C 103.410156 35.371094 103.179688 35.273438 103.1875 36.757812 C 103.203125 36.304688 103.257812 36.445312 103.308594 36.289062 Z M 103.683594 6.984375 L 103.628906 6.550781 L 103.578125 7.902344 Z M 103.621094 3.574219 C 103.515625 3.898438 103.714844 4.890625 103.699219 5.941406 C 103.820312 5.46875 103.601562 4.019531 103.800781 4.132812 C 103.804688 4.167969 103.804688 4.203125 103.808594 4.238281 L 103.820312 2.101562 C 103.71875 2.183594 103.625 2.371094 103.621094 3.574219 Z M 102.910156 58.132812 C 103.050781 56.910156 102.78125 56.816406 102.746094 56.230469 C 102.800781 57.558594 102.890625 56.5 102.910156 58.132812 Z M 102.804688 37.761719 C 102.996094 36.382812 102.621094 36.308594 102.867188 35.363281 C 102.777344 35.523438 102.757812 34.488281 102.707031 35.246094 C 102.90625 36.25 102.519531 37.519531 102.804688 37.761719 Z M 102.703125 47.4375 C 102.703125 47.527344 102.703125 47.628906 102.703125 47.738281 C 102.707031 47.625 102.707031 47.523438 102.703125 47.4375 Z M 102.984375 41.269531 L 102.96875 41.421875 C 102.890625 39.949219 102.925781 39.648438 102.996094 38.433594 C 102.792969 38.691406 102.757812 40.140625 102.648438 40.960938 C 102.648438 40.9375 102.648438 40.921875 102.644531 40.898438 C 102.648438 40.921875 102.648438 40.941406 102.648438 40.964844 C 102.605469 41.285156 102.550781 41.511719 102.46875 41.527344 C 102.371094 42.414062 102.445312 42.871094 102.476562 43.117188 C 102.46875 41.414062 102.671875 42.832031 102.660156 41.464844 C 102.714844 43.175781 102.84375 41.265625 102.835938 44.140625 L 102.761719 43.554688 C 102.78125 44.296875 102.710938 44.90625 102.835938 44.734375 C 102.851562 44.582031 102.921875 43.96875 102.960938 44.554688 C 102.800781 45.335938 102.824219 46.375 102.628906 47.160156 C 102.667969 47.042969 102.699219 47.175781 102.707031 47.4375 C 102.714844 47.03125 102.742188 46.785156 102.769531 46.539062 C 102.753906 46.984375 102.988281 48.28125 103.113281 48.402344 L 103.175781 45.410156 C 103.140625 45.714844 103.089844 45.875 103.015625 45.589844 L 103.207031 44.210938 C 103.203125 42.714844 102.863281 42.339844 102.984375 41.269531 Z M 102.476562 43.316406 C 102.492188 43.273438 102.484375 43.210938 102.476562 43.117188 C 102.476562 43.179688 102.476562 43.246094 102.476562 43.316406 Z M 103.5 52.347656 L 103.574219 52.117188 L 103.585938 49.8125 L 103.457031 50.265625 C 103.582031 50.691406 103.53125 51.441406 103.5 52.347656 Z M 103.476562 33.566406 C 103.507812 33.511719 103.527344 33.421875 103.542969 33.304688 L 103.460938 33.417969 Z M 103.699219 17.570312 C 103.707031 17.472656 103.726562 17.449219 103.742188 17.445312 L 103.746094 16.742188 C 103.722656 16.832031 103.703125 17.09375 103.699219 17.570312 Z M 103.582031 44.28125 L 103.507812 43.699219 C 103.480469 44.828125 103.542969 44.8125 103.609375 44.621094 L 103.613281 44.238281 C 103.605469 44.261719 103.59375 44.277344 103.582031 44.28125 Z M 103.582031 33.246094 C 103.574219 33.210938 103.566406 33.171875 103.558594 33.132812 C 103.554688 33.195312 103.546875 33.253906 103.542969 33.304688 Z M 103.558594 31.015625 L 103.433594 30.890625 L 103.515625 28.640625 C 103.445312 28.65625 103.390625 28.214844 103.40625 27.765625 L 103.285156 28.839844 L 103.375 28.96875 C 103.375 29.558594 103.289062 30.027344 103.273438 30.476562 C 103.527344 30.855469 103.382812 32.261719 103.558594 33.132812 C 103.601562 32.511719 103.535156 31.472656 103.558594 31.015625 Z M 103.707031 8.617188 C 103.746094 8.851562 103.761719 9.265625 103.765625 9.675781 C 103.789062 8.972656 103.808594 8.308594 103.707031 8.617188 Z M 103.746094 10.703125 L 103.773438 10.695312 C 103.765625 10.453125 103.769531 10.0625 103.765625 9.675781 C 103.753906 10.054688 103.742188 10.445312 103.746094 10.703125 Z M 103.777344 10.695312 L 103.773438 10.695312 C 103.773438 10.746094 103.773438 10.785156 103.777344 10.824219 Z M 103.589844 11.480469 L 103.699219 12.351562 L 103.660156 10.867188 Z M 101.910156 17.332031 C 101.898438 17.375 101.894531 17.449219 101.894531 17.574219 C 101.898438 17.496094 101.902344 17.414062 101.910156 17.332031 Z M 102.34375 33.234375 C 102.398438 33.378906 102.433594 33.070312 102.453125 33.507812 L 102.429688 31.28125 Z M 102.402344 13.070312 C 102.445312 12.851562 102.464844 12.53125 102.472656 12.164062 C 102.519531 12.269531 102.574219 11.910156 102.621094 12 C 102.574219 11.585938 102.585938 10.414062 102.507812 9.789062 L 102.464844 10.78125 C 102.445312 9.972656 102.421875 9.261719 102.464844 9.175781 L 102.304688 9.0625 L 102.410156 9.335938 C 102.34375 10.550781 102.472656 12.460938 102.402344 13.070312 Z M 102.3125 8.714844 C 102.320312 8.644531 102.328125 8.5625 102.335938 8.460938 C 102.328125 8.527344 102.320312 8.617188 102.3125 8.714844 Z M 102.621094 12 C 102.632812 12.078125 102.640625 12.128906 102.65625 12.148438 C 102.644531 12.066406 102.632812 12.023438 102.621094 12 Z M 102.0625 68.292969 L 102.210938 68.4375 C 102.1875 67.867188 102.105469 67.953125 102.0625 68.292969 Z M 101.050781 65.972656 L 101.085938 67.308594 L 101.101562 67.324219 L 101.175781 66.394531 Z M 101.996094 19.707031 C 101.921875 18.832031 102.097656 18.5 101.972656 18.074219 C 101.957031 18.226562 101.921875 18.238281 101.902344 18.09375 C 101.894531 17.859375 101.890625 17.695312 101.894531 17.574219 C 101.847656 18.25 101.800781 18.898438 101.746094 19.464844 Z M 101.542969 8.207031 C 101.578125 7.90625 101.628906 7.742188 101.664062 7.742188 C 101.828125 7.855469 101.78125 10.394531 101.65625 10.871094 L 101.921875 10.664062 L 101.945312 12.296875 C 101.953125 12.226562 101.964844 12.191406 101.976562 12.167969 C 101.984375 12.191406 101.992188 12.210938 102 12.234375 C 102.007812 12.601562 101.960938 12.765625 101.929688 13.046875 L 101.820312 12.175781 C 101.949219 13.199219 101.789062 13.976562 101.953125 14.386719 C 101.984375 14.285156 102.019531 14.105469 102.046875 13.882812 C 102.035156 14.882812 101.984375 16.136719 101.910156 17.332031 C 101.949219 17.144531 102.054688 17.617188 102.078125 16.566406 L 102.050781 13.863281 C 102.085938 13.59375 102.121094 13.269531 102.15625 12.941406 C 102.109375 13.230469 102.042969 13.472656 101.984375 13.488281 C 102.007812 13.089844 102.03125 12.738281 102.050781 12.402344 C 102.070312 12.480469 102.085938 12.570312 102.101562 12.683594 C 102.1875 11.917969 102.109375 10.148438 102.230469 9.082031 L 102.324219 9.808594 C 102.304688 9.660156 102.304688 9.359375 102.304688 9.0625 C 102.292969 8.980469 102.300781 8.84375 102.3125 8.714844 C 102.246094 9.242188 102.199219 8.972656 102.152344 8.832031 C 102.152344 8.6875 102.152344 8.539062 102.148438 8.382812 C 102.285156 9.039062 102.242188 8.066406 102.269531 7.632812 L 102.316406 8.019531 L 102.304688 7.480469 C 102.292969 7.503906 102.285156 7.535156 102.273438 7.566406 C 102.28125 7.503906 102.289062 7.460938 102.300781 7.449219 L 102.277344 6.539062 L 102.226562 7.296875 L 102.265625 7.597656 C 102.246094 7.65625 102.222656 7.691406 102.199219 7.625 C 102.195312 6.730469 102.351562 5.652344 102.460938 5.929688 C 102.332031 4.910156 102.394531 2.222656 102.289062 1.941406 C 102.054688 1.84375 102.261719 4.929688 102.046875 5.273438 L 102.113281 3.46875 C 101.917969 2.46875 101.976562 4.691406 101.960938 5.4375 L 102.050781 5.570312 C 102.070312 6.3125 101.910156 6.195312 101.910156 6.789062 C 101.953125 5.027344 101.789062 3.625 101.714844 2.152344 L 101.488281 2.375 C 101.46875 4.335938 101.5625 6.125 101.542969 8.207031 Z M 102.15625 12.941406 C 102.195312 12.707031 102.222656 12.445312 102.230469 12.242188 C 102.203125 12.460938 102.179688 12.699219 102.15625 12.941406 Z M 102.320312 7.449219 C 102.3125 7.441406 102.308594 7.441406 102.300781 7.449219 L 102.304688 7.480469 C 102.308594 7.464844 102.316406 7.449219 102.320312 7.449219 Z M 102.25 39.488281 C 102.285156 38.589844 102.105469 38.027344 102.261719 37.546875 L 102.050781 38.1875 C 102.160156 38.464844 102.140625 38.910156 102.25 39.488281 Z M 102.273438 29.496094 L 102.359375 28.140625 L 102.257812 29.347656 Z M 102.171875 67.085938 C 102.101562 66.800781 102.042969 65.765625 101.921875 66.835938 C 102.078125 65.761719 102 69.207031 102.171875 67.085938 Z M 102.019531 39.6875 C 101.984375 39.992188 102.039062 40.425781 102.042969 40.722656 L 102.109375 40.109375 C 102.125 39.664062 102.054688 39.671875 102.019531 39.6875 Z M 101.894531 57.601562 L 102.058594 58.609375 L 102.21875 58.128906 Z M 103.570312 2.269531 C 103.628906 1.753906 103.730469 1.785156 103.820312 1.703125 L 103.828125 0.046875 L 103.695312 0.179688 C 103.613281 0.835938 103.488281 1.242188 103.570312 2.269531 Z M 103.515625 64.148438 L 103.269531 65.363281 C 103.164062 65.085938 103.125 64.796875 103.089844 64.207031 L 103.136719 62.859375 L 102.960938 63.191406 L 102.917969 61.109375 L 102.566406 62.382812 L 102.613281 66.242188 C 102.53125 66.992188 102.5 67.835938 102.492188 68.722656 L 103.488281 69.722656 Z M 102.417969 39.925781 L 102.328125 38.90625 C 102.222656 39.820312 102.367188 40.386719 102.335938 41.882812 L 102.632812 40.777344 L 102.5625 39.894531 L 102.679688 39.0625 C 102.625 39.257812 102.554688 39.238281 102.515625 39.054688 C 102.527344 39.445312 102.386719 39.195312 102.417969 39.925781 Z M 101.210938 33.769531 C 101.164062 33.121094 101.097656 33.019531 101.035156 33.1875 L 101.023438 35.785156 C 101.1875 35.863281 101.378906 36.449219 101.210938 33.769531 Z M 101.648438 50.078125 C 101.742188 49.960938 101.769531 49.601562 101.773438 49.164062 C 101.714844 49.464844 101.667969 49.753906 101.648438 50.078125 Z M 101.0625 32.3125 C 101.113281 30.960938 101.203125 31.390625 101.144531 30.058594 L 101.050781 29.988281 L 101.042969 31.695312 Z M 101.328125 40.277344 C 101.402344 41.449219 101.507812 40.238281 101.628906 40.0625 C 101.539062 39.632812 101.527344 40.984375 101.449219 39.804688 L 101.519531 39.195312 C 101.394531 38.476562 101.453125 40.398438 101.328125 40.277344 Z M 101.6875 40.796875 C 101.609375 41.722656 101.660156 43.425781 101.519531 43.769531 C 101.519531 43.714844 101.519531 43.640625 101.523438 43.546875 C 101.515625 43.644531 101.511719 43.722656 101.507812 43.789062 C 101.488281 43.820312 101.46875 43.835938 101.445312 43.828125 C 101.464844 43.9375 101.484375 43.984375 101.503906 43.976562 C 101.515625 44.21875 101.59375 43.972656 101.597656 44.425781 C 101.65625 43.65625 101.574219 44.007812 101.535156 43.921875 C 101.628906 43.648438 101.710938 42.398438 101.726562 42.277344 Z M 100.871094 66.707031 L 100.871094 67.09375 L 100.925781 67.148438 C 100.925781 67.113281 100.929688 67.078125 100.929688 67.042969 C 100.917969 66.800781 100.898438 66.71875 100.871094 66.707031 Z M 101.347656 46.832031 C 101.3125 46.242188 101.378906 44.738281 101.289062 44.609375 L 101.167969 45.976562 L 101.273438 45.355469 Z M 101.464844 38.160156 L 101.515625 37.105469 L 101.300781 37.152344 Z M 101.476562 41.734375 C 101.457031 41.59375 101.28125 41.925781 101.265625 42.671875 C 101.371094 42.652344 101.425781 42.792969 101.476562 41.734375 Z M 0.644531 31.625 L 0.6875 31.351562 C 0.71875 31.855469 0.777344 32.183594 0.910156 32.011719 C 0.925781 31.261719 1.121094 31.371094 1.121094 31.960938 L 1.273438 29.695312 C 0.96875 28.125 1.082031 24.082031 1.042969 22.886719 L 1.164062 21.824219 L 1.222656 23.742188 C 1.433594 23.101562 1.09375 22.429688 1.269531 21.5 C 1.089844 21.839844 1.003906 22.601562 0.972656 24.09375 L 0.992188 24.238281 C 0.957031 24.546875 0.886719 24.859375 0.816406 25.171875 C 0.742188 24.59375 0.921875 24.257812 0.792969 23.839844 C 0.664062 24.144531 0.808594 25.402344 0.675781 25.265625 L 0.675781 25.554688 C 0.71875 25.800781 0.789062 25.8125 0.90625 25.898438 C 0.890625 26.347656 0.964844 26.925781 0.875 27.101562 L 0.695312 26.539062 C 0.738281 27.226562 0.714844 27.636719 0.664062 27.914062 Z M 0.96875 45.84375 C 0.988281 46.285156 1.039062 45.527344 1.058594 45.375 C 0.964844 44.351562 1.070312 43.734375 0.945312 43.019531 C 0.875 43.921875 1.039062 45.238281 0.96875 45.84375 Z M 0.945312 32.597656 L 0.875 33.210938 L 1.054688 33.472656 C 1.054688 34.070312 1.066406 31.527344 0.945312 32.597656 Z M 0.644531 32.207031 L 0.640625 32.589844 L 0.703125 32.15625 C 0.679688 32.160156 0.660156 32.183594 0.644531 32.207031 Z M 0.878906 35.773438 C 0.871094 35.9375 0.867188 36.042969 0.867188 36.042969 C 0.878906 35.980469 0.882812 35.886719 0.878906 35.773438 Z M 0.949219 49.628906 L 1.011719 47.617188 L 0.941406 47.339844 L 0.945312 49.644531 C 0.898438 49.929688 0.871094 50.476562 0.867188 51.492188 C 0.910156 47.503906 1.292969 52.5 1.425781 48.796875 C 1.332031 50.117188 1.078125 48.867188 0.949219 49.628906 Z M 0.878906 35.773438 C 0.898438 35.367188 0.921875 34.578125 0.894531 33.949219 C 0.753906 34.460938 0.867188 35.300781 0.878906 35.773438 Z M 103.574219 52.175781 C 103.46875 52.820312 103.398438 54.550781 103.402344 55.648438 L 103.492188 56.671875 L 103.296875 57.160156 L 103.292969 61.480469 C 103.378906 60.121094 103.335938 63.265625 103.363281 60.273438 C 103.425781 60.785156 103.484375 61.453125 103.523438 62.1875 Z M 0.917969 38.355469 C 0.929688 38.304688 0.9375 38.226562 0.945312 38.113281 C 0.9375 38.207031 0.929688 38.285156 0.917969 38.355469 Z M 0.707031 35.925781 C 0.589844 35.8125 0.714844 37.90625 0.613281 38.667969 L 0.609375 38.804688 C 0.671875 38.914062 0.722656 39.546875 0.769531 39.945312 C 0.722656 38.777344 0.851562 38.832031 0.917969 38.355469 C 0.886719 38.511719 0.828125 38.4375 0.804688 38.445312 C 0.765625 38.152344 0.730469 37.863281 0.730469 37.265625 L 0.921875 37.078125 C 0.902344 36.335938 0.675781 37.722656 0.707031 35.925781 Z M 103.605469 17.140625 C 103.59375 17.207031 103.578125 17.289062 103.566406 17.375 C 103.605469 17.25 103.628906 17.070312 103.605469 17.140625 Z M 103.484375 10.039062 L 103.503906 10.183594 L 103.535156 8.984375 Z M 103.019531 16.515625 L 102.984375 17.417969 L 103.035156 16.667969 L 103.089844 16.800781 Z M 103.558594 14.96875 C 103.585938 14.824219 103.617188 14.695312 103.652344 14.59375 C 103.609375 14.644531 103.578125 14.78125 103.558594 14.96875 Z M 103.230469 22.589844 C 103.28125 21.828125 103.417969 25.527344 103.5 22.976562 L 103.445312 22.839844 C 103.472656 21.171875 103.40625 18.496094 103.566406 17.375 C 103.519531 17.527344 103.457031 17.59375 103.449219 17.023438 C 103.496094 16.363281 103.5 15.472656 103.558594 14.96875 C 103.394531 15.75 103.28125 17.097656 103.253906 18.113281 C 103.308594 18.246094 103.332031 21.074219 103.230469 22.589844 Z M 103.289062 46.003906 C 103.257812 47.207031 103.222656 47.214844 103.261719 48.699219 C 103.261719 47.800781 103.308594 46.453125 103.289062 46.003906 Z M 103.496094 63.378906 C 103.40625 63.246094 103.34375 60.730469 103.207031 62.542969 C 103.210938 63.136719 103.3125 61.328125 103.386719 62.503906 L 103.300781 63.867188 Z M 103.183594 53.605469 L 103.164062 53.460938 L 103.132812 54.65625 Z M 101.984375 21.058594 L 101.867188 20.597656 C 101.921875 20.996094 101.910156 22.257812 101.984375 21.058594 Z M 102.164062 19.558594 C 102.25 19.089844 102.210938 17.605469 102.070312 17.933594 C 102.089844 18.378906 102.035156 18.546875 102 18.84375 Z M 101.945312 41.96875 C 101.785156 42.148438 101.789062 43.339844 101.738281 44.097656 C 101.757812 44.839844 101.835938 46.613281 101.671875 46.191406 C 101.746094 46.476562 101.796875 46.320312 101.851562 46.75 C 101.683594 46.992188 101.777344 48.253906 101.773438 49.164062 C 101.929688 48.34375 102.167969 47.417969 102.148438 45.355469 C 102.285156 42.640625 101.847656 44.671875 101.945312 41.96875 Z M 102.761719 19.105469 L 102.683594 17.929688 L 102.5625 18.699219 C 102.601562 20.183594 102.722656 18.816406 102.796875 19.394531 C 102.992188 19.804688 102.839844 22.070312 102.984375 22.933594 L 102.929688 21.90625 C 103 21.886719 103.035156 22.179688 103.089844 22.015625 L 103.074219 23.363281 C 103.285156 22.128906 103.027344 20.09375 103.167969 18.875 C 103.105469 16.355469 102.921875 19.527344 102.761719 19.105469 Z M 101.832031 23.621094 C 101.972656 23.589844 101.898438 23.015625 101.96875 22.105469 C 101.84375 21.980469 101.828125 23.027344 101.832031 23.621094 Z M 101.867188 20.597656 C 101.859375 20.546875 101.847656 20.507812 101.839844 20.492188 Z M 102.515625 39.054688 C 102.511719 38.976562 102.503906 38.871094 102.484375 38.722656 C 102.488281 38.863281 102.5 38.972656 102.515625 39.054688 Z M 1.554688 49.417969 C 1.382812 50.644531 1.191406 51.730469 1.160156 53.523438 C 1.285156 53.644531 1.214844 54.5625 1.375 54.074219 C 1.398438 55.714844 1.269531 54.695312 1.21875 55.75 C 1.28125 55.410156 1.402344 55.21875 1.445312 55.429688 C 1.453125 54.890625 1.539062 54.707031 1.550781 54.335938 L 1.449219 54.660156 C 1.511719 53.792969 1.527344 52.269531 1.625 53.125 C 1.570312 52.570312 1.589844 51.929688 1.671875 51.777344 C 1.632812 51.785156 1.597656 51.492188 1.527344 51.507812 C 1.539062 49.867188 1.761719 47.285156 1.460938 47.199219 C 1.460938 47.914062 1.449219 48.40625 1.429688 48.742188 C 1.421875 50.003906 1.570312 48.382812 1.554688 49.417969 Z M 102.679688 39.0625 C 102.703125 38.976562 102.722656 38.847656 102.734375 38.667969 Z M 102.679688 39.0625 " fill="#000000"/></g></g></g></g></g><path data-cppathid="10018" fill-rule="nonzero" fill-opacity="1" d="M 28.65625 66.550781 C 28.65625 66.851562 28.476562 67.09375 28.253906 67.09375 L 19.460938 67.09375 C 19.238281 67.09375 19.058594 66.851562 19.058594 66.550781 C 19.058594 66.253906 19.238281 66.011719 19.460938 66.011719 L 28.253906 66.011719 C 28.476562 66.011719 28.65625 66.253906 28.65625 66.550781 Z M 28.65625 66.550781 " fill="#eebdb5"/><path data-cppathid="10019" fill-rule="nonzero" fill-opacity="1" d="M 42.167969 66.550781 C 42.167969 66.851562 41.988281 67.09375 41.769531 67.09375 L 32.972656 67.09375 C 32.753906 67.09375 32.574219 66.851562 32.574219 66.550781 C 32.574219 66.253906 32.753906 66.011719 32.972656 66.011719 L 41.769531 66.011719 C 41.988281 66.011719 42.167969 66.253906 42.167969 66.550781 Z M 42.167969 66.550781 " fill="#bae2df"/><g mask="url(#302140f546)"><g transform="matrix(1, 0, 0, 1, 27, 65)"><g clip-path="url(#c42340e0de)"><g clip-path="url(#17d604b492)"><path data-cppathid="10020" fill-rule="nonzero" fill-opacity="1" d="M 1.636719 1.539062 C 1.636719 1.683594 1.601562 1.808594 1.53125 1.910156 C 1.460938 2.015625 1.375 2.066406 1.273438 2.066406 C 1.175781 2.066406 1.089844 2.015625 1.019531 1.910156 C 0.949219 1.808594 0.914062 1.683594 0.914062 1.539062 C 0.914062 1.394531 0.949219 1.269531 1.019531 1.167969 C 1.089844 1.0625 1.175781 1.011719 1.273438 1.011719 C 1.375 1.011719 1.460938 1.0625 1.53125 1.167969 C 1.601562 1.269531 1.636719 1.394531 1.636719 1.539062 Z M 1.636719 1.539062 " fill="#000000"/></g></g></g></g><g mask="url(#51147e6225)"><g transform="matrix(1, 0, 0, 1, 41, 65)"><g clip-path="url(#2577135492)"><g clip-path="url(#45bdfb2838)"><path data-cppathid="10021" fill-rule="nonzero" fill-opacity="1" d="M 1.167969 1.546875 C 1.167969 1.695312 1.132812 1.820312 1.058594 1.925781 C 0.988281 2.03125 0.902344 2.082031 0.796875 2.082031 C 0.695312 2.082031 0.609375 2.03125 0.539062 1.925781 C 0.464844 1.820312 0.429688 1.695312 0.429688 1.546875 C 0.429688 1.398438 0.464844 1.273438 0.539062 1.167969 C 0.609375 1.066406 0.695312 1.011719 0.796875 1.011719 C 0.902344 1.011719 0.988281 1.066406 1.058594 1.167969 C 1.132812 1.273438 1.167969 1.398438 1.167969 1.546875 Z M 1.167969 1.546875 " fill="#000000"/></g></g></g></g><g clip-path="url(#2c020188d1)"><g mask="url(#a3127666c6)"><g transform="matrix(1, 0, 0, 1, 0.000000000000000056, 0.000000000000003143)"><g clip-path="url(#8eb8796b92)"><g clip-path="url(#4dfa8f24a6)"><path data-cppathid="10022" fill-rule="nonzero" fill-opacity="1" d="M 103.828125 0.046875 L 104.613281 0.835938 L 104.613281 70.511719 L 103.488281 69.722656 Z M 100.941406 2.660156 L 3.417969 2.710938 L 4.203125 3.480469 L 100.9375 3.441406 Z M 3.398438 67.140625 L 4.1875 67.140625 L 4.203125 3.464844 L 3.417969 2.679688 Z M 0.460938 69.722656 L 1.246094 70.511719 L 104.613281 70.511719 L 103.488281 69.722656 Z M 0.460938 69.722656 " fill="#000000"/></g></g></g></g></g></svg>