<?xml version="1.0" encoding="UTF-8"?>
<svg xmlns="http://www.w3.org/2000/svg" onmouseup="{ if(window.parent.document.onmouseup) window.parent.document.onmouseup(arguments[0]);}" version="1.0" preserveAspectRatio="xMidYMid meet" height="131" viewBox="0 0 105.75 98.249997" zoomAndPan="magnify" width="141" xmlns:xlink="http://www.w3.org/1999/xlink"><defs><clipPath id="3bfc5b2bbf"><path data-cppathid="10000" clip-rule="nonzero" d="M 20 17.796875 L 56 17.796875 L 56 23 L 20 23 Z M 20 17.796875 "/></clipPath><clipPath id="113b5d6f65"><path data-cppathid="10001" clip-rule="nonzero" d="M 1.441406 44 L 93 44 L 93 52 L 1.441406 52 Z M 1.441406 44 "/></clipPath><clipPath id="1274eaf443"><path data-cppathid="10002" clip-rule="nonzero" d="M 89.015625 53.933594 L 104.398438 53.933594 L 104.398438 56.769531 L 89.015625 56.769531 Z M 89.015625 53.933594 "/></clipPath><clipPath id="2bddeee66a"><path data-cppathid="10003" clip-rule="nonzero" d="M 56 74 L 85 74 L 85 79.722656 L 56 79.722656 Z M 56 74 "/></clipPath></defs><g clip-path="url(#3bfc5b2bbf)"><path data-cppathid="10004" fill-rule="nonzero" fill-opacity="1" d="M 26.390625 17.984375 C 25.691406 18.097656 24.675781 18.421875 23.96875 18.757812 C 22.34375 19.53125 20.195312 21.28125 20.207031 21.828125 C 20.214844 22.144531 20.417969 22.070312 21.335938 21.410156 C 21.800781 21.078125 22.503906 20.679688 22.890625 20.53125 C 23.863281 20.160156 25.429688 19.851562 26.484375 19.820312 C 27.769531 19.785156 28.453125 20.011719 29.492188 20.808594 C 31.457031 22.324219 31.660156 22.355469 34.90625 21.613281 C 36.863281 21.164062 37.480469 21.070312 38.628906 21.039062 C 39.386719 21.015625 40.152344 21.035156 40.324219 21.078125 C 40.503906 21.121094 40.914062 21.386719 41.25 21.675781 C 41.589844 21.964844 42.085938 22.289062 42.367188 22.40625 C 43.125 22.71875 44.683594 22.746094 46.300781 22.476562 C 47.59375 22.261719 53.976562 20.5625 54.6875 20.246094 C 55.210938 20.011719 55.511719 19.625 55.351562 19.390625 C 55.164062 19.113281 52.964844 19.222656 49.894531 19.660156 C 48.554688 19.851562 46.886719 20.023438 46.191406 20.042969 C 44.402344 20.09375 43.871094 19.925781 42.722656 18.945312 C 42.007812 18.339844 41.6875 18.140625 41.246094 18.046875 C 40.488281 17.886719 40.023438 17.96875 36.769531 18.84375 C 34.792969 19.375 33.695312 19.613281 32.914062 19.675781 C 31.65625 19.777344 31.410156 19.707031 29.746094 18.753906 C 28.445312 18.007812 27.546875 17.800781 26.390625 17.984375 " fill="#3c98b9"/></g><path data-cppathid="10005" fill-rule="nonzero" fill-opacity="1" d="M 72.835938 18.484375 C 71.773438 18.90625 70.742188 19.777344 70.851562 20.15625 C 70.886719 20.265625 70.976562 20.339844 71.054688 20.316406 C 71.128906 20.296875 71.570312 20.21875 72.023438 20.144531 C 73.027344 19.980469 73.664062 20.164062 74.472656 20.84375 C 75.679688 21.863281 76.183594 21.863281 81.464844 20.855469 C 85.699219 20.046875 86.09375 19.945312 86.171875 19.621094 C 86.203125 19.496094 86.1875 19.359375 86.140625 19.320312 C 86.09375 19.28125 83.972656 19.394531 81.425781 19.570312 C 76.222656 19.921875 76.378906 19.9375 75.699219 19.089844 C 75.144531 18.402344 74.691406 18.191406 73.914062 18.253906 C 73.570312 18.28125 73.078125 18.386719 72.835938 18.484375 " fill="#3c98b9"/><path data-cppathid="10006" fill-rule="nonzero" fill-opacity="1" d="M 41.609375 28.996094 C 40.628906 29.09375 39.136719 29.4375 36.808594 30.105469 C 32.261719 31.402344 32.113281 31.414062 30.179688 30.648438 C 27.386719 29.546875 26 29.648438 22.8125 31.191406 C 20.925781 32.109375 20.382812 32.253906 19.054688 32.207031 C 18.238281 32.179688 17.59375 32.066406 16.566406 31.773438 C 13.929688 31.019531 11.25 30.75 9.289062 31.050781 C 8.132812 31.222656 5.367188 31.921875 5.175781 32.085938 C 4.992188 32.238281 4.988281 32.59375 5.164062 32.695312 C 5.234375 32.738281 6.007812 32.855469 6.871094 32.957031 C 8.976562 33.207031 10.371094 33.546875 12.445312 34.324219 C 16.683594 35.914062 17.996094 35.929688 22.617188 34.4375 C 25.011719 33.667969 26.457031 33.34375 27.625 33.320312 C 28.832031 33.296875 29.179688 33.421875 29.324219 33.9375 C 29.382812 34.140625 29.558594 34.398438 29.730469 34.523438 C 30.3125 34.953125 31.183594 34.828125 35.902344 33.644531 C 40.042969 32.609375 42.929688 31.976562 43.589844 31.960938 C 44.53125 31.945312 44.824219 32.046875 45.476562 32.621094 C 47.117188 34.066406 50.4375 34.277344 55.023438 33.230469 C 58.078125 32.535156 59.375 32.367188 60.558594 32.523438 C 61.8125 32.691406 62.148438 32.859375 62.074219 33.289062 C 61.941406 34.027344 62.445312 34.359375 63.964844 34.53125 C 66.355469 34.800781 69.050781 34.316406 74.082031 32.707031 C 76.242188 32.015625 77.421875 31.726562 78.128906 31.710938 C 78.554688 31.703125 78.710938 31.769531 79.117188 32.140625 C 79.710938 32.683594 80.660156 32.996094 82.054688 33.105469 C 83.800781 33.238281 84.867188 33.015625 88 31.859375 C 89.527344 31.296875 92.695312 30.566406 94.667969 30.328125 C 95.78125 30.191406 95.972656 30.136719 95.96875 29.972656 C 95.964844 29.683594 95.640625 29.636719 93.894531 29.671875 C 92.304688 29.703125 91.316406 29.839844 88.398438 30.417969 C 87.46875 30.601562 86.054688 30.789062 85.1875 30.839844 L 83.640625 30.933594 L 82.941406 30.527344 C 81.089844 29.449219 80.273438 29.242188 78.035156 29.296875 C 76.285156 29.335938 75.246094 29.496094 71.472656 30.3125 C 68.210938 31.015625 66.480469 31.246094 65.628906 31.085938 C 65.296875 31.023438 64.605469 30.730469 64.082031 30.425781 C 63.558594 30.125 62.679688 29.742188 62.109375 29.570312 C 61.164062 29.28125 60.960938 29.261719 59.363281 29.292969 C 57.78125 29.328125 57.496094 29.367188 55.816406 29.800781 C 53.449219 30.40625 52.519531 30.601562 51.179688 30.761719 C 49.839844 30.925781 49.242188 30.835938 48.578125 30.378906 C 46.894531 29.222656 44.359375 28.71875 41.609375 28.996094 " fill="#3c98b9"/><g clip-path="url(#113b5d6f65)"><path data-cppathid="10007" fill-rule="nonzero" fill-opacity="1" d="M 42.917969 44.964844 C 41.210938 45.285156 39.339844 45.878906 36.617188 46.960938 C 32.992188 48.402344 32.238281 48.601562 30.527344 48.566406 C 28.871094 48.527344 28.417969 48.367188 26.476562 47.132812 C 23.949219 45.527344 23.085938 45.246094 21.039062 45.382812 C 19.65625 45.476562 19.171875 45.621094 16.222656 46.835938 C 11.550781 48.761719 8.488281 49.121094 3.925781 48.28125 C 1.570312 47.847656 1.445312 47.84375 1.453125 48.191406 C 1.457031 48.382812 1.679688 48.582031 2.367188 49.023438 C 4.648438 50.476562 6.933594 51.054688 10.183594 50.992188 C 12.261719 50.953125 13.625 50.742188 16.195312 50.0625 C 17.617188 49.6875 18.117188 49.613281 19.699219 49.53125 C 21.902344 49.414062 22.296875 49.492188 23.84375 50.359375 C 24.421875 50.6875 25.152344 51.050781 25.480469 51.183594 C 26.867188 51.738281 29.59375 51.855469 32.136719 51.472656 C 33.886719 51.210938 34.644531 51.03125 37.683594 50.164062 C 40.640625 49.316406 41.945312 49.042969 43.117188 49.015625 C 44.007812 49 44.359375 49.125 45.882812 50.023438 C 46.773438 50.546875 47.5625 50.824219 49.074219 51.132812 C 51.726562 51.679688 53.820312 51.652344 56.746094 51.023438 C 57.398438 50.886719 58.167969 50.765625 58.472656 50.761719 C 58.941406 50.75 59.050781 50.796875 59.277344 51.082031 C 59.433594 51.28125 59.710938 51.457031 59.976562 51.519531 C 61.269531 51.824219 63.632812 51.6875 65.792969 51.175781 C 66.777344 50.945312 68.417969 50.371094 70.8125 49.425781 C 71.675781 49.082031 72.1875 48.953125 72.929688 48.890625 L 73.910156 48.808594 L 75.1875 49.4375 C 76.832031 50.246094 77.988281 50.476562 80.21875 50.429688 C 82.847656 50.375 83.808594 50.15625 87.832031 48.695312 C 89.773438 47.992188 91.253906 47.542969 92.628906 47.246094 C 92.949219 47.175781 92.964844 46.78125 92.652344 46.691406 C 92.453125 46.632812 89.695312 47.050781 86.167969 47.675781 C 84.144531 48.035156 82.015625 48.175781 81.007812 48.023438 C 80.398438 47.929688 79.710938 47.671875 78.226562 46.972656 C 75.871094 45.867188 74.90625 45.605469 73.261719 45.628906 C 72.15625 45.640625 72.03125 45.671875 70 46.382812 C 68.839844 46.792969 67.433594 47.226562 66.875 47.351562 C 65.878906 47.574219 65.851562 47.574219 65.722656 47.363281 C 65.386719 46.820312 65.011719 46.507812 64.566406 46.394531 C 63.644531 46.164062 62.683594 46.371094 59.808594 47.410156 C 56.570312 48.578125 55.535156 48.863281 54.027344 48.984375 C 52.800781 49.082031 52.121094 49 51.082031 48.625 C 50.148438 48.292969 49.863281 48.007812 49.398438 46.957031 C 48.78125 45.5625 48.230469 45.089844 46.898438 44.835938 C 46.101562 44.683594 44.0625 44.75 42.917969 44.964844 " fill="#3c98b9"/></g><g clip-path="url(#1274eaf443)"><path data-cppathid="10008" fill-rule="nonzero" fill-opacity="1" d="M 92.046875 54.128906 C 91.398438 54.269531 90.414062 54.539062 89.269531 54.886719 C 89.078125 54.945312 88.964844 55.269531 89.097656 55.394531 C 89.164062 55.457031 89.703125 55.578125 90.304688 55.660156 C 90.90625 55.746094 92.144531 55.972656 93.066406 56.164062 C 93.988281 56.359375 95.125 56.566406 95.601562 56.625 C 96.824219 56.785156 99.945312 56.695312 101.058594 56.472656 C 103.90625 55.894531 104.464844 55.691406 104.398438 55.277344 C 104.359375 55.035156 104.289062 55.023438 102.921875 54.980469 C 101.882812 54.945312 100.78125 54.800781 98.949219 54.453125 C 96.699219 54.03125 96.207031 53.972656 94.628906 53.964844 C 93.421875 53.960938 92.589844 54.011719 92.046875 54.128906 " fill="#3c98b9"/></g><path data-cppathid="10009" fill-rule="nonzero" fill-opacity="1" d="M 50.152344 59.394531 C 49.246094 59.558594 48.542969 59.867188 46.886719 60.820312 C 45.332031 61.714844 44.085938 62.21875 43.09375 62.347656 C 42.65625 62.402344 41.863281 62.332031 40.398438 62.109375 C 38.761719 61.859375 37.875 61.789062 36.199219 61.777344 C 33.75 61.761719 32.8125 61.90625 30.816406 62.613281 C 29.058594 63.230469 28.59375 63.492188 28.601562 63.84375 C 28.609375 64.121094 28.632812 64.128906 29.410156 64.097656 C 34.601562 63.90625 34.789062 63.90625 36.132812 64.128906 C 36.863281 64.25 38.070312 64.511719 38.820312 64.714844 C 40.695312 65.222656 41.847656 65.402344 43.097656 65.375 C 44.554688 65.347656 45.871094 65.015625 48.195312 64.097656 C 49.289062 63.664062 50.585938 63.21875 51.070312 63.109375 C 52.097656 62.875 53.796875 62.824219 54.375 63.007812 C 54.734375 63.121094 54.785156 63.179688 54.804688 63.546875 C 54.871094 64.601562 55.574219 64.898438 58.265625 65.011719 C 60.425781 65.101562 62.753906 64.722656 65.136719 63.898438 C 67.03125 63.242188 67.589844 63.121094 68.910156 63.082031 C 70.117188 63.046875 70.207031 63.0625 70.871094 63.390625 C 71.898438 63.902344 72.6875 64.085938 74.042969 64.128906 C 75.554688 64.183594 76.628906 64.011719 78.761719 63.378906 C 79.660156 63.113281 81.605469 62.558594 83.078125 62.148438 C 84.554688 61.738281 85.8125 61.351562 85.871094 61.289062 C 85.9375 61.222656 85.917969 61.121094 85.824219 61.03125 C 85.636719 60.851562 84.480469 60.921875 81.914062 61.269531 C 80.8125 61.421875 79.261719 61.632812 78.476562 61.738281 C 76.574219 61.996094 75.117188 62.019531 74.332031 61.804688 C 73.988281 61.714844 73.183594 61.386719 72.546875 61.082031 C 71.050781 60.371094 70.082031 60.035156 69.039062 59.855469 C 67.335938 59.566406 66.472656 59.714844 63.980469 60.714844 C 62.042969 61.488281 60.964844 61.800781 59.855469 61.90625 C 58.761719 62.011719 58.433594 61.914062 56.816406 61 C 54.78125 59.855469 53.371094 59.390625 51.65625 59.316406 C 51.1875 59.296875 50.503906 59.332031 50.152344 59.394531 " fill="#3c98b9"/><path data-cppathid="10010" fill-rule="nonzero" fill-opacity="1" d="M 15.410156 71.441406 C 14.113281 71.625 11.949219 72.480469 11.957031 72.808594 C 11.960938 73.101562 12.171875 73.140625 13.617188 73.136719 C 15.144531 73.128906 15.574219 73.222656 17.355469 73.929688 C 18.832031 74.515625 20.292969 74.765625 22.039062 74.730469 C 23.714844 74.695312 24.429688 74.519531 25.820312 73.804688 C 27.320312 73.03125 28.105469 72.167969 27.746094 71.695312 C 27.613281 71.519531 27.519531 71.53125 26.664062 71.820312 C 23.824219 72.78125 22.367188 72.855469 20.503906 72.148438 C 18.613281 71.429688 17.054688 71.214844 15.410156 71.441406 " fill="#3c98b9"/><g clip-path="url(#2bddeee66a)"><path data-cppathid="10011" fill-rule="nonzero" fill-opacity="1" d="M 74.132812 74.46875 C 73.910156 74.527344 73.003906 74.898438 72.105469 75.300781 C 68.691406 76.828125 67.027344 77 64.710938 76.066406 C 62.820312 75.300781 60.996094 75.097656 59.609375 75.496094 C 58.398438 75.839844 56.507812 76.683594 56.441406 76.90625 C 56.320312 77.328125 56.582031 77.421875 57.984375 77.460938 C 59.566406 77.507812 60.726562 77.765625 62.992188 78.585938 C 65.644531 79.546875 66.597656 79.71875 67.988281 79.496094 C 69.113281 79.316406 69.667969 79.105469 71.804688 78.042969 C 74.125 76.890625 74.621094 76.746094 75.472656 76.996094 C 75.816406 77.097656 76.480469 77.425781 76.957031 77.726562 C 77.980469 78.382812 78.867188 78.648438 79.617188 78.527344 C 80.761719 78.339844 83.28125 77.664062 84.117188 77.316406 C 84.753906 77.050781 84.992188 76.894531 84.988281 76.746094 C 84.988281 76.628906 84.9375 76.511719 84.875 76.476562 C 84.816406 76.445312 84.261719 76.511719 83.644531 76.625 C 82.386719 76.855469 81.101562 76.835938 80.253906 76.566406 C 79.972656 76.476562 79.429688 76.160156 79.042969 75.863281 C 78.0625 75.101562 77.488281 74.777344 76.683594 74.527344 C 75.949219 74.300781 74.886719 74.277344 74.132812 74.46875 " fill="#3c98b9"/></g></svg>