<?xml version="1.0" encoding="UTF-8"?>
<svg xmlns="http://www.w3.org/2000/svg" onmouseup="{ if(window.parent.document.onmouseup) window.parent.document.onmouseup(arguments[0]);}" version="1.0" preserveAspectRatio="xMidYMid meet" height="131" viewBox="0 0 105.75 98.249997" zoomAndPan="magnify" width="141" xmlns:xlink="http://www.w3.org/1999/xlink"><defs><clipPath id="e30c5704e0"><path data-cppathid="10000" clip-rule="nonzero" d="M 8.742188 46 L 103.214844 46 L 103.214844 62.890625 L 8.742188 62.890625 Z M 8.742188 46 "/></clipPath><clipPath id="c653726503"><path data-cppathid="10001" clip-rule="evenodd" d="M 23.257812 54.230469 C 5.335938 49.175781 0.347656 69.742188 30.148438 60.398438 C 34.917969 63.046875 40.4375 63.714844 47.28125 60.886719 C 54.667969 63.570312 60.734375 63.179688 65.84375 60.550781 C 71.464844 62.527344 77.152344 63.34375 83.042969 60.777344 C 86.421875 63.109375 89.851562 62.640625 93.308594 60.597656 C 104.617188 62.964844 105.410156 57.753906 99.855469 57.527344 C 97.402344 53.753906 95.796875 53.636719 92.148438 54.945312 C 91.292969 51.035156 89.285156 49.796875 86.152344 51.144531 C 87.132812 45.0625 84.5625 43.289062 79.511719 44.53125 C 80.535156 29.902344 64.441406 27.960938 56.765625 37.414062 C 46.546875 33.394531 39.625 37.441406 41.066406 45.136719 C 38.800781 45.148438 36.964844 45.6875 36.308594 47.695312 C 30.5 47.429688 25.039062 49.21875 23.257812 54.230469 Z M 23.257812 54.230469 "/></clipPath></defs><path data-cppathid="10002" fill-rule="evenodd" fill-opacity="1" d="M 23.257812 54.230469 C 5.335938 49.175781 0.347656 69.742188 30.148438 60.398438 C 34.917969 63.046875 40.4375 63.714844 47.28125 60.886719 C 54.667969 63.570312 60.734375 63.179688 65.84375 60.550781 C 71.464844 62.527344 77.152344 63.34375 83.042969 60.777344 C 86.421875 63.109375 89.851562 62.640625 93.308594 60.597656 C 104.617188 62.964844 105.410156 57.753906 99.855469 57.527344 C 97.402344 53.753906 95.796875 53.636719 92.148438 54.945312 C 91.292969 51.035156 89.285156 49.796875 86.152344 51.144531 C 87.132812 45.0625 84.5625 43.289062 79.511719 44.53125 C 80.535156 29.902344 64.441406 27.960938 56.765625 37.414062 C 46.546875 33.394531 39.625 37.441406 41.066406 45.136719 C 38.800781 45.148438 36.964844 45.6875 36.308594 47.695312 C 30.5 47.429688 25.039062 49.21875 23.257812 54.230469 Z M 23.257812 54.230469 " fill="#ffffff"/><g clip-path="url(#e30c5704e0)"><g clip-path="url(#c653726503)"><path data-cppathid="10003" fill-rule="evenodd" fill-opacity="1" d="M 11.570312 54.363281 C 11.78125 53.988281 11.589844 55.246094 11.765625 55.640625 C 13.261719 59.054688 16.46875 59.890625 19.929688 59.304688 C 22.90625 58.800781 26.203125 57.027344 29.242188 57.207031 C 32.527344 57.402344 34.59375 59.996094 38.265625 59.296875 C 40.945312 58.785156 46.664062 53.921875 46.695312 53.921875 C 49.273438 53.742188 53.066406 57.878906 58.453125 56.558594 C 62.691406 55.519531 62.835938 51.042969 60.726562 48.03125 C 60.640625 47.90625 60 47.1875 60.222656 47.011719 C 60.925781 46.449219 64.554688 49.722656 65.746094 49.722656 C 67.722656 49.722656 69.714844 48.957031 71.699219 48.820312 C 71.761719 48.816406 72.582031 48.753906 72.554688 48.886719 C 72.539062 48.992188 72.15625 49.089844 72.082031 49.117188 C 69.46875 50.078125 61.597656 53.503906 67.605469 56.457031 C 71.179688 58.210938 74.996094 55.382812 78.507812 54.945312 C 81 54.636719 81.292969 57.660156 83.382812 58.367188 C 86.21875 59.332031 89.34375 58.398438 92.253906 58.53125 C 94.515625 58.636719 96.355469 59.570312 98.449219 60.273438 C 100.007812 60.796875 108.246094 59.742188 107.53125 62.398438 C 106.679688 65.570312 85.117188 67.082031 82.421875 67.242188 C 62.984375 68.378906 42.445312 70.546875 23.214844 66.519531 C 16.726562 65.160156 5.453125 61.964844 4.421875 53.871094 " fill="#f1e8e8"/></g></g></svg>