<?xml version="1.0" encoding="UTF-8"?>
<svg xmlns="http://www.w3.org/2000/svg" onmouseup="{ if(window.parent.document.onmouseup) window.parent.document.onmouseup(arguments[0]);}" version="1.0" preserveAspectRatio="xMidYMid meet" height="131" viewBox="0 0 105.75 98.249997" zoomAndPan="magnify" width="141" xmlns:xlink="http://www.w3.org/1999/xlink"><defs><clipPath id="b81e7e65c6"><path data-cppathid="10000" clip-rule="nonzero" d="M 12.929688 26.191406 L 92.820312 26.191406 L 92.820312 87.953125 L 12.929688 87.953125 Z M 12.929688 26.191406 "/></clipPath><clipPath id="a0e4d83654"><path data-cppathid="10001" clip-rule="nonzero" d="M 7.675781 16.75 L 98 16.75 L 98 87.953125 L 7.675781 87.953125 Z M 7.675781 16.75 "/></clipPath><clipPath id="04ecc93b93"><path data-cppathid="10002" clip-rule="nonzero" d="M 0.277344 9.617188 L 105.226562 9.617188 L 105.226562 46 L 0.277344 46 Z M 0.277344 9.617188 "/></clipPath></defs><g clip-path="url(#b81e7e65c6)"><path data-cppathid="10003" fill-rule="nonzero" fill-opacity="1" d="M 27.089844 30.632812 C 28.054688 30.222656 29.148438 29.648438 29.28125 29.125 C 29.351562 28.832031 29.394531 28.351562 29.414062 27.914062 L 29.414062 31.070312 Z M 33.476562 29.125 C 33.605469 29.648438 34.699219 30.222656 35.667969 30.632812 L 33.339844 31.070312 L 33.339844 27.917969 C 33.363281 28.351562 33.402344 28.832031 33.476562 29.125 Z M 70.082031 30.632812 C 71.050781 30.222656 72.144531 29.648438 72.273438 29.125 C 72.347656 28.832031 72.386719 28.351562 72.410156 27.917969 L 72.410156 31.070312 Z M 76.46875 29.125 C 76.601562 29.648438 77.695312 30.222656 78.660156 30.632812 L 76.335938 31.070312 L 76.335938 27.914062 C 76.355469 28.351562 76.398438 28.832031 76.46875 29.125 Z M 92.8125 31.519531 C 88.207031 32.023438 81.0625 32.238281 78.109375 32.238281 C 77.75 32.238281 77.136719 32.238281 76.335938 32.238281 L 76.335938 31.519531 L 78.710938 31.519531 L 78.710938 30.652344 C 78.972656 30.765625 79.222656 30.863281 79.441406 30.945312 L 79.683594 30.304688 C 78.4375 29.832031 77.246094 29.199219 77.136719 28.957031 C 77.023438 28.5 76.996094 27.335938 76.996094 26.925781 L 76.335938 26.925781 L 76.335938 26.3125 L 72.410156 26.3125 L 72.410156 26.925781 L 71.746094 26.925781 C 71.746094 27.335938 71.722656 28.5 71.609375 28.949219 C 71.5 29.199219 70.308594 29.832031 69.058594 30.304688 L 69.304688 30.945312 C 69.519531 30.863281 69.773438 30.765625 70.035156 30.652344 L 70.035156 31.519531 L 72.410156 31.519531 L 72.410156 32.238281 C 64.839844 32.238281 52.875 32.238281 52.875 32.238281 C 52.875 32.238281 40.910156 32.238281 33.339844 32.238281 L 33.339844 31.519531 L 35.714844 31.519531 L 35.714844 30.652344 C 35.976562 30.765625 36.230469 30.863281 36.445312 30.945312 L 36.691406 30.304688 C 35.441406 29.832031 34.25 29.199219 34.144531 28.957031 C 34.027344 28.5 34.003906 27.335938 34.003906 26.925781 L 33.339844 26.925781 L 33.339844 26.3125 L 29.414062 26.3125 L 29.414062 26.925781 L 28.753906 26.925781 C 28.753906 27.335938 28.726562 28.5 28.613281 28.949219 C 28.503906 29.199219 27.3125 29.832031 26.066406 30.304688 L 26.308594 30.945312 C 26.527344 30.863281 26.777344 30.765625 27.039062 30.652344 L 27.039062 31.519531 L 29.414062 31.519531 L 29.414062 32.238281 C 28.613281 32.238281 28 32.238281 27.640625 32.238281 C 24.6875 32.238281 17.542969 32.023438 12.9375 31.519531 L 12.9375 35.847656 L 29.414062 35.847656 L 29.414062 87.953125 L 33.339844 87.953125 L 33.339844 35.847656 L 72.410156 35.847656 L 72.410156 87.953125 L 76.335938 87.953125 L 76.335938 35.847656 L 92.8125 35.847656 L 92.8125 31.519531 " fill="#d12c23"/></g><g clip-path="url(#a0e4d83654)"><path data-cppathid="10004" fill-rule="nonzero" fill-opacity="1" d="M 74.765625 46.066406 L 74.765625 47.742188 L 75.558594 47.742188 L 75.558594 87.953125 L 79.484375 87.953125 L 79.484375 47.742188 L 80.277344 47.742188 L 80.277344 46.066406 Z M 25.472656 47.742188 L 26.265625 47.742188 L 26.265625 87.953125 L 30.191406 87.953125 L 30.191406 47.742188 L 30.984375 47.742188 L 30.984375 46.066406 L 25.472656 46.066406 Z M 97.921875 16.773438 C 91.914062 17.722656 78.914062 19.398438 62.636719 19.234375 L 61.949219 20.378906 L 43.800781 20.378906 L 43.113281 19.234375 C 26.835938 19.398438 13.835938 17.722656 7.828125 16.773438 L 8.785156 19.546875 L 12.015625 20.378906 L 12.976562 23.9375 C 12.976562 23.9375 16.074219 24.523438 28.097656 24.90625 L 28.097656 26.5 C 28.097656 26.792969 29.566406 27.035156 31.378906 27.035156 C 33.191406 27.035156 34.660156 26.792969 34.660156 26.5 L 34.660156 25.078125 C 39.601562 25.175781 45.605469 25.238281 52.875 25.238281 C 60.148438 25.238281 66.148438 25.175781 71.089844 25.078125 L 71.089844 26.5 C 71.089844 26.792969 72.558594 27.035156 74.371094 27.035156 C 76.183594 27.035156 77.652344 26.792969 77.652344 26.5 L 77.652344 24.90625 C 89.679688 24.523438 92.773438 23.9375 92.773438 23.9375 L 93.734375 20.378906 L 96.964844 19.546875 Z M 93.566406 30.625 L 93.566406 31.429688 C 89.03125 32 81.226562 32.238281 78.109375 32.238281 C 74.988281 32.238281 52.875 32.238281 52.875 32.238281 C 52.875 32.238281 30.761719 32.238281 27.640625 32.238281 C 24.523438 32.238281 16.71875 32 12.183594 31.429688 L 12.183594 30.625 C 12.183594 30.625 18.1875 31.519531 27.039062 31.519531 C 35.894531 31.519531 52.875 31.519531 52.875 31.519531 C 52.875 31.519531 69.855469 31.519531 78.710938 31.519531 C 87.5625 31.519531 93.566406 30.625 93.566406 30.625 " fill="#b31e23"/></g><path data-cppathid="10005" fill-rule="nonzero" fill-opacity="1" d="M 73.515625 45.136719 C 73.605469 45.945312 74.765625 46.066406 74.765625 46.066406 L 80.277344 46.066406 C 80.277344 46.066406 81.441406 45.945312 81.53125 45.136719 C 81.53125 45.136719 81.167969 45.4375 79.84375 45.4375 C 79.285156 45.4375 78.378906 45.394531 77.523438 45.363281 C 76.664062 45.394531 75.761719 45.4375 75.199219 45.4375 C 73.875 45.4375 73.515625 45.136719 73.515625 45.136719 Z M 102.902344 12.566406 C 97.84375 14.074219 84.152344 16.917969 52.875 16.917969 C 21.597656 16.917969 7.90625 14.074219 2.847656 12.566406 L 2.816406 12.5625 L 4.21875 16.140625 C 4.21875 16.140625 20.507812 19.464844 43.113281 19.234375 L 43.800781 20.378906 L 61.949219 20.378906 L 62.636719 19.234375 C 85.242188 19.464844 101.53125 16.140625 101.53125 16.140625 L 102.933594 12.5625 Z M 32.234375 45.136719 C 32.144531 45.945312 30.984375 46.066406 30.984375 46.066406 L 25.472656 46.066406 C 25.472656 46.066406 24.308594 45.945312 24.21875 45.136719 C 24.21875 45.136719 24.582031 45.4375 25.90625 45.4375 C 26.464844 45.4375 27.371094 45.394531 28.226562 45.363281 C 29.085938 45.394531 29.988281 45.4375 30.550781 45.4375 C 31.875 45.4375 32.234375 45.136719 32.234375 45.136719 " fill="#657368"/><g clip-path="url(#04ecc93b93)"><path data-cppathid="10006" fill-rule="nonzero" fill-opacity="1" d="M 73.515625 45.136719 C 73.515625 45.136719 73.875 45.4375 75.199219 45.4375 C 75.761719 45.4375 76.664062 45.394531 77.523438 45.363281 C 78.378906 45.394531 79.285156 45.4375 79.84375 45.4375 C 81.167969 45.4375 81.53125 45.136719 81.53125 45.136719 C 81.53125 45.136719 78.875 44.503906 77.523438 43.964844 C 76.171875 44.503906 73.515625 45.136719 73.515625 45.136719 Z M 52.875 14.882812 C 10.308594 14.882812 0.316406 9.617188 0.316406 9.617188 L 0.316406 11.652344 C 0.316406 11.652344 10.308594 16.917969 52.875 16.917969 C 95.441406 16.917969 105.433594 11.652344 105.433594 11.652344 L 105.433594 9.617188 C 105.433594 9.617188 95.441406 14.882812 52.875 14.882812 Z M 32.234375 45.136719 C 32.234375 45.136719 31.875 45.4375 30.550781 45.4375 C 29.988281 45.4375 29.085938 45.394531 28.226562 45.363281 C 27.371094 45.394531 26.464844 45.4375 25.90625 45.4375 C 24.582031 45.4375 24.21875 45.136719 24.21875 45.136719 C 24.21875 45.136719 26.875 44.503906 28.226562 43.964844 C 29.578125 44.503906 32.234375 45.136719 32.234375 45.136719 " fill="#8aa48b"/></g></svg>