<?xml version="1.0" encoding="UTF-8"?>
<svg xmlns="http://www.w3.org/2000/svg" onmouseup="{ if(window.parent.document.onmouseup) window.parent.document.onmouseup(arguments[0]);}" version="1.0" preserveAspectRatio="xMidYMid meet" height="131" viewBox="0 0 105.75 98.249997" zoomAndPan="magnify" width="141" xmlns:xlink="http://www.w3.org/1999/xlink"><defs><clipPath id="81ad7c21e1"><path data-cppathid="10000" clip-rule="nonzero" d="M 39.804688 90 L 65.914062 90 L 65.914062 93 L 39.804688 93 Z M 39.804688 90 "/></clipPath><clipPath id="d5717662a1"><path data-cppathid="10001" clip-rule="nonzero" d="M 39.804688 92 L 65.914062 92 L 65.914062 96 L 39.804688 96 Z M 39.804688 92 "/></clipPath><clipPath id="99d316b6ce"><path data-cppathid="10002" clip-rule="nonzero" d="M 39.804688 95 L 65.914062 95 L 65.914062 97.503906 L 39.804688 97.503906 Z M 39.804688 95 "/></clipPath></defs><path data-cppathid="10003" fill-rule="nonzero" fill-opacity="1" d="M 57.847656 82.972656 L 54.039062 38.09375 L 51.683594 38.09375 L 47.878906 82.972656 L 57.847656 82.972656 " fill="#c5d0d4"/><path data-cppathid="10004" fill-rule="nonzero" fill-opacity="1" d="M 52.683594 38.09375 L 51.683594 38.09375 L 47.878906 82.972656 L 52.683594 82.972656 L 52.683594 38.09375 " fill="#9fb6c3"/><path data-cppathid="10005" fill-rule="nonzero" fill-opacity="1" d="M 53.257812 26.304688 L 52.464844 26.304688 L 52.464844 22.128906 L 53.257812 22.128906 L 53.257812 26.304688 " fill="#f03866"/><path data-cppathid="10006" fill-rule="nonzero" fill-opacity="1" d="M 53.257812 22.128906 L 52.464844 22.128906 L 52.464844 17.953125 L 53.257812 17.953125 L 53.257812 22.128906 " fill="#dbdcd7"/><path data-cppathid="10007" fill-rule="nonzero" fill-opacity="1" d="M 53.257812 17.953125 L 52.464844 17.953125 L 52.464844 13.777344 L 53.257812 13.777344 L 53.257812 17.953125 " fill="#f03866"/><path data-cppathid="10008" fill-rule="nonzero" fill-opacity="1" d="M 53.257812 9.605469 L 52.464844 9.605469 L 52.464844 5.429688 L 53.257812 5.429688 L 53.257812 9.605469 " fill="#f03866"/><path data-cppathid="10009" fill-rule="nonzero" fill-opacity="1" d="M 53.257812 13.78125 L 52.464844 13.78125 L 52.464844 9.605469 L 53.257812 9.605469 L 53.257812 13.78125 " fill="#dbdcd7"/><path data-cppathid="10010" fill-rule="nonzero" fill-opacity="1" d="M 56.554688 67.753906 L 56.265625 64.316406 L 49.460938 64.316406 L 49.167969 67.753906 L 56.554688 67.753906 " fill="#91a4b0"/><path data-cppathid="10011" fill-rule="nonzero" fill-opacity="1" d="M 58.273438 40.972656 L 47.449219 40.972656 L 47.449219 33.453125 L 58.273438 33.453125 L 58.273438 40.972656 " fill="#9fb6c3"/><path data-cppathid="10012" fill-rule="nonzero" fill-opacity="1" d="M 48.855469 34.832031 L 48.03125 34.832031 L 48.03125 34.007812 L 48.855469 34.007812 L 48.855469 34.832031 " fill="#7c98a2"/><path data-cppathid="10013" fill-rule="nonzero" fill-opacity="1" d="M 50.625 34.832031 L 49.796875 34.832031 L 49.796875 34.007812 L 50.625 34.007812 L 50.625 34.832031 " fill="#7c98a2"/><path data-cppathid="10014" fill-rule="nonzero" fill-opacity="1" d="M 52.390625 34.832031 L 51.566406 34.832031 L 51.566406 34.007812 L 52.390625 34.007812 L 52.390625 34.832031 " fill="#7c98a2"/><path data-cppathid="10015" fill-rule="nonzero" fill-opacity="1" d="M 54.160156 34.832031 L 53.332031 34.832031 L 53.332031 34.007812 L 54.160156 34.007812 L 54.160156 34.832031 " fill="#7c98a2"/><path data-cppathid="10016" fill-rule="nonzero" fill-opacity="1" d="M 55.925781 34.832031 L 55.101562 34.832031 L 55.101562 34.007812 L 55.925781 34.007812 L 55.925781 34.832031 " fill="#7c98a2"/><path data-cppathid="10017" fill-rule="nonzero" fill-opacity="1" d="M 57.695312 34.832031 L 56.871094 34.832031 L 56.871094 34.007812 L 57.695312 34.007812 L 57.695312 34.832031 " fill="#7c98a2"/><path data-cppathid="10018" fill-rule="nonzero" fill-opacity="1" d="M 48.855469 36.1875 L 48.03125 36.1875 L 48.03125 35.359375 L 48.855469 35.359375 L 48.855469 36.1875 " fill="#7c98a2"/><path data-cppathid="10019" fill-rule="nonzero" fill-opacity="1" d="M 50.625 36.1875 L 49.796875 36.1875 L 49.796875 35.359375 L 50.625 35.359375 L 50.625 36.1875 " fill="#7c98a2"/><path data-cppathid="10020" fill-rule="nonzero" fill-opacity="1" d="M 52.390625 36.1875 L 51.566406 36.1875 L 51.566406 35.359375 L 52.390625 35.359375 L 52.390625 36.1875 " fill="#7c98a2"/><path data-cppathid="10021" fill-rule="nonzero" fill-opacity="1" d="M 54.160156 36.1875 L 53.332031 36.1875 L 53.332031 35.359375 L 54.160156 35.359375 L 54.160156 36.1875 " fill="#7c98a2"/><path data-cppathid="10022" fill-rule="nonzero" fill-opacity="1" d="M 55.925781 36.1875 L 55.101562 36.1875 L 55.101562 35.359375 L 55.925781 35.359375 L 55.925781 36.1875 " fill="#7c98a2"/><path data-cppathid="10023" fill-rule="nonzero" fill-opacity="1" d="M 57.695312 36.1875 L 56.871094 36.1875 L 56.871094 35.359375 L 57.695312 35.359375 L 57.695312 36.1875 " fill="#7c98a2"/><path data-cppathid="10024" fill-rule="nonzero" fill-opacity="1" d="M 48.855469 37.539062 L 48.03125 37.539062 L 48.03125 36.714844 L 48.855469 36.714844 L 48.855469 37.539062 " fill="#7c98a2"/><path data-cppathid="10025" fill-rule="nonzero" fill-opacity="1" d="M 50.625 37.539062 L 49.796875 37.539062 L 49.796875 36.714844 L 50.625 36.714844 L 50.625 37.539062 " fill="#7c98a2"/><path data-cppathid="10026" fill-rule="nonzero" fill-opacity="1" d="M 52.390625 37.539062 L 51.566406 37.539062 L 51.566406 36.714844 L 52.390625 36.714844 L 52.390625 37.539062 " fill="#7c98a2"/><path data-cppathid="10027" fill-rule="nonzero" fill-opacity="1" d="M 54.160156 37.539062 L 53.332031 37.539062 L 53.332031 36.714844 L 54.160156 36.714844 L 54.160156 37.539062 " fill="#7c98a2"/><path data-cppathid="10028" fill-rule="nonzero" fill-opacity="1" d="M 55.925781 37.539062 L 55.101562 37.539062 L 55.101562 36.714844 L 55.925781 36.714844 L 55.925781 37.539062 " fill="#7c98a2"/><path data-cppathid="10029" fill-rule="nonzero" fill-opacity="1" d="M 57.695312 37.539062 L 56.871094 37.539062 L 56.871094 36.714844 L 57.695312 36.714844 L 57.695312 37.539062 " fill="#7c98a2"/><path data-cppathid="10030" fill-rule="nonzero" fill-opacity="1" d="M 48.855469 38.894531 L 48.03125 38.894531 L 48.03125 38.070312 L 48.855469 38.070312 L 48.855469 38.894531 " fill="#7c98a2"/><path data-cppathid="10031" fill-rule="nonzero" fill-opacity="1" d="M 50.625 38.894531 L 49.796875 38.894531 L 49.796875 38.070312 L 50.625 38.070312 L 50.625 38.894531 " fill="#7c98a2"/><path data-cppathid="10032" fill-rule="nonzero" fill-opacity="1" d="M 52.390625 38.894531 L 51.566406 38.894531 L 51.566406 38.070312 L 52.390625 38.070312 L 52.390625 38.894531 " fill="#7c98a2"/><path data-cppathid="10033" fill-rule="nonzero" fill-opacity="1" d="M 54.160156 38.894531 L 53.332031 38.894531 L 53.332031 38.070312 L 54.160156 38.070312 L 54.160156 38.894531 " fill="#7c98a2"/><path data-cppathid="10034" fill-rule="nonzero" fill-opacity="1" d="M 55.925781 38.894531 L 55.101562 38.894531 L 55.101562 38.070312 L 55.925781 38.070312 L 55.925781 38.894531 " fill="#7c98a2"/><path data-cppathid="10035" fill-rule="nonzero" fill-opacity="1" d="M 57.695312 38.894531 L 56.871094 38.894531 L 56.871094 38.070312 L 57.695312 38.070312 L 57.695312 38.894531 " fill="#7c98a2"/><path data-cppathid="10036" fill-rule="nonzero" fill-opacity="1" d="M 48.855469 40.25 L 48.03125 40.25 L 48.03125 39.421875 L 48.855469 39.421875 L 48.855469 40.25 " fill="#7c98a2"/><path data-cppathid="10037" fill-rule="nonzero" fill-opacity="1" d="M 50.625 40.25 L 49.796875 40.25 L 49.796875 39.421875 L 50.625 39.421875 L 50.625 40.25 " fill="#7c98a2"/><path data-cppathid="10038" fill-rule="nonzero" fill-opacity="1" d="M 52.390625 40.25 L 51.566406 40.25 L 51.566406 39.421875 L 52.390625 39.421875 L 52.390625 40.25 " fill="#7c98a2"/><path data-cppathid="10039" fill-rule="nonzero" fill-opacity="1" d="M 54.160156 40.25 L 53.332031 40.25 L 53.332031 39.421875 L 54.160156 39.421875 L 54.160156 40.25 " fill="#7c98a2"/><path data-cppathid="10040" fill-rule="nonzero" fill-opacity="1" d="M 55.925781 40.25 L 55.101562 40.25 L 55.101562 39.421875 L 55.925781 39.421875 L 55.925781 40.25 " fill="#7c98a2"/><path data-cppathid="10041" fill-rule="nonzero" fill-opacity="1" d="M 57.695312 40.25 L 56.871094 40.25 L 56.871094 39.421875 L 57.695312 39.421875 L 57.695312 40.25 " fill="#7c98a2"/><path data-cppathid="10042" fill-rule="nonzero" fill-opacity="1" d="M 57.488281 33.453125 L 48.238281 33.453125 L 48.238281 30.441406 L 57.488281 30.441406 L 57.488281 33.453125 " fill="#7c99b1"/><path data-cppathid="10043" fill-rule="nonzero" fill-opacity="1" d="M 49.742188 31.683594 L 48.917969 31.6875 L 48.914062 30.863281 L 49.738281 30.859375 L 49.742188 31.683594 " fill="#6883a8"/><path data-cppathid="10044" fill-rule="nonzero" fill-opacity="1" d="M 51.507812 31.679688 L 50.683594 31.683594 L 50.679688 30.855469 L 51.503906 30.851562 L 51.507812 31.679688 " fill="#6883a8"/><path data-cppathid="10045" fill-rule="nonzero" fill-opacity="1" d="M 53.277344 31.671875 L 52.453125 31.675781 L 52.449219 30.847656 L 53.273438 30.84375 L 53.277344 31.671875 " fill="#6883a8"/><path data-cppathid="10046" fill-rule="nonzero" fill-opacity="1" d="M 55.042969 31.664062 L 54.21875 31.667969 L 54.214844 30.839844 L 55.039062 30.835938 L 55.042969 31.664062 " fill="#6883a8"/><path data-cppathid="10047" fill-rule="nonzero" fill-opacity="1" d="M 56.8125 31.65625 L 55.988281 31.660156 L 55.984375 30.832031 L 56.808594 30.828125 L 56.8125 31.65625 " fill="#6883a8"/><path data-cppathid="10048" fill-rule="nonzero" fill-opacity="1" d="M 49.742188 33.039062 L 48.917969 33.042969 L 48.914062 32.21875 L 49.738281 32.214844 L 49.742188 33.039062 " fill="#6883a8"/><path data-cppathid="10049" fill-rule="nonzero" fill-opacity="1" d="M 51.507812 33.03125 L 50.683594 33.035156 L 50.679688 32.210938 L 51.503906 32.207031 L 51.507812 33.03125 " fill="#6883a8"/><path data-cppathid="10050" fill-rule="nonzero" fill-opacity="1" d="M 53.277344 33.023438 L 52.453125 33.027344 L 52.449219 32.203125 L 53.273438 32.199219 L 53.277344 33.023438 " fill="#6883a8"/><path data-cppathid="10051" fill-rule="nonzero" fill-opacity="1" d="M 55.042969 33.015625 L 54.21875 33.019531 L 54.214844 32.195312 L 55.039062 32.191406 L 55.042969 33.015625 " fill="#6883a8"/><path data-cppathid="10052" fill-rule="nonzero" fill-opacity="1" d="M 56.8125 33.007812 L 55.988281 33.011719 L 55.984375 32.1875 L 56.808594 32.183594 L 56.8125 33.007812 " fill="#6883a8"/><path data-cppathid="10053" fill-rule="nonzero" fill-opacity="1" d="M 55.019531 30.441406 L 55.023438 30.394531 L 54.179688 27.070312 C 54.058594 26.335938 53.695312 26.304688 53.105469 26.304688 L 52.617188 26.304688 C 52.027344 26.304688 51.664062 26.335938 51.542969 27.070312 L 50.703125 30.394531 L 50.703125 30.441406 L 55.019531 30.441406 " fill="#6883a8"/><path data-cppathid="10054" fill-rule="nonzero" fill-opacity="1" d="M 52.417969 28.535156 C 52.3125 27.792969 52.492188 26.644531 53.226562 26.304688 C 53.1875 26.304688 53.148438 26.304688 53.105469 26.304688 L 52.617188 26.304688 C 52.027344 26.304688 51.664062 26.335938 51.542969 27.070312 L 50.703125 30.394531 L 50.703125 30.441406 L 55.019531 30.441406 L 55.023438 30.394531 L 54.792969 29.488281 C 53.820312 29.664062 52.59375 29.773438 52.417969 28.535156 " fill="#567fa8"/><path data-cppathid="10055" fill-rule="nonzero" fill-opacity="1" d="M 53.039062 4.234375 L 52.6875 4.234375 L 52.6875 0.0585938 L 53.039062 0.0585938 L 53.039062 4.234375 " fill="#dbdcd7"/><path data-cppathid="10056" fill-rule="nonzero" fill-opacity="1" d="M 54.175781 4.832031 C 54.175781 5.160156 53.910156 5.429688 53.578125 5.429688 L 52.144531 5.429688 C 51.816406 5.429688 51.550781 5.160156 51.550781 4.832031 C 51.550781 4.503906 51.816406 4.234375 52.144531 4.234375 L 53.578125 4.234375 C 53.910156 4.234375 54.175781 4.503906 54.175781 4.832031 " fill="#f03866"/><path data-cppathid="10057" fill-rule="nonzero" fill-opacity="1" d="M 53.042969 6.035156 C 53.042969 6.136719 52.964844 6.21875 52.863281 6.21875 C 52.761719 6.21875 52.679688 6.136719 52.679688 6.035156 C 52.679688 5.9375 52.761719 5.855469 52.863281 5.855469 C 52.964844 5.855469 53.042969 5.9375 53.042969 6.035156 " fill="#ffffff"/><path data-cppathid="10058" fill-rule="nonzero" fill-opacity="1" d="M 53.042969 7.515625 C 53.042969 7.617188 52.964844 7.699219 52.863281 7.699219 C 52.761719 7.699219 52.679688 7.617188 52.679688 7.515625 C 52.679688 7.414062 52.761719 7.332031 52.863281 7.332031 C 52.964844 7.332031 53.042969 7.414062 53.042969 7.515625 " fill="#ffffff"/><path data-cppathid="10059" fill-rule="nonzero" fill-opacity="1" d="M 53.042969 8.996094 C 53.042969 9.09375 52.964844 9.179688 52.863281 9.179688 C 52.761719 9.179688 52.679688 9.09375 52.679688 8.996094 C 52.679688 8.894531 52.761719 8.8125 52.863281 8.8125 C 52.964844 8.8125 53.042969 8.894531 53.042969 8.996094 " fill="#ffffff"/><path data-cppathid="10060" fill-rule="nonzero" fill-opacity="1" d="M 53.046875 10.472656 C 53.046875 10.574219 52.964844 10.65625 52.863281 10.65625 C 52.761719 10.65625 52.679688 10.574219 52.679688 10.472656 C 52.679688 10.371094 52.761719 10.289062 52.863281 10.289062 C 52.964844 10.289062 53.046875 10.371094 53.046875 10.472656 " fill="#ffffff"/><path data-cppathid="10061" fill-rule="nonzero" fill-opacity="1" d="M 53.042969 11.953125 C 53.042969 12.054688 52.960938 12.136719 52.863281 12.136719 C 52.761719 12.136719 52.679688 12.054688 52.679688 11.953125 C 52.679688 11.851562 52.761719 11.769531 52.863281 11.769531 C 52.960938 11.769531 53.042969 11.851562 53.042969 11.953125 " fill="#ffffff"/><path data-cppathid="10062" fill-rule="nonzero" fill-opacity="1" d="M 53.042969 13.433594 C 53.042969 13.53125 52.960938 13.613281 52.863281 13.613281 C 52.761719 13.613281 52.679688 13.53125 52.679688 13.433594 C 52.679688 13.332031 52.761719 13.25 52.863281 13.25 C 52.960938 13.25 53.042969 13.332031 53.042969 13.433594 " fill="#ffffff"/><path data-cppathid="10063" fill-rule="nonzero" fill-opacity="1" d="M 53.042969 14.910156 C 53.042969 15.011719 52.964844 15.09375 52.863281 15.09375 C 52.761719 15.09375 52.679688 15.011719 52.679688 14.910156 C 52.679688 14.808594 52.761719 14.726562 52.863281 14.726562 C 52.964844 14.726562 53.042969 14.808594 53.042969 14.910156 " fill="#ffffff"/><path data-cppathid="10064" fill-rule="nonzero" fill-opacity="1" d="M 53.042969 16.390625 C 53.042969 16.492188 52.960938 16.574219 52.863281 16.574219 C 52.761719 16.574219 52.679688 16.492188 52.679688 16.390625 C 52.679688 16.289062 52.761719 16.207031 52.863281 16.207031 C 52.960938 16.207031 53.042969 16.289062 53.042969 16.390625 " fill="#ffffff"/><path data-cppathid="10065" fill-rule="nonzero" fill-opacity="1" d="M 53.042969 17.867188 C 53.042969 17.96875 52.960938 18.050781 52.863281 18.050781 C 52.761719 18.050781 52.679688 17.96875 52.679688 17.867188 C 52.679688 17.769531 52.761719 17.6875 52.863281 17.6875 C 52.960938 17.6875 53.042969 17.769531 53.042969 17.867188 " fill="#ffffff"/><path data-cppathid="10066" fill-rule="nonzero" fill-opacity="1" d="M 53.042969 19.347656 C 53.042969 19.449219 52.960938 19.53125 52.863281 19.53125 C 52.761719 19.53125 52.679688 19.449219 52.679688 19.347656 C 52.679688 19.246094 52.761719 19.164062 52.863281 19.164062 C 52.960938 19.164062 53.042969 19.246094 53.042969 19.347656 " fill="#ffffff"/><path data-cppathid="10067" fill-rule="nonzero" fill-opacity="1" d="M 53.042969 20.828125 C 53.042969 20.925781 52.960938 21.007812 52.863281 21.007812 C 52.761719 21.007812 52.679688 20.925781 52.679688 20.828125 C 52.679688 20.726562 52.761719 20.644531 52.863281 20.644531 C 52.960938 20.644531 53.042969 20.726562 53.042969 20.828125 " fill="#ffffff"/><path data-cppathid="10068" fill-rule="nonzero" fill-opacity="1" d="M 53.042969 22.304688 C 53.042969 22.40625 52.964844 22.488281 52.863281 22.488281 C 52.761719 22.488281 52.679688 22.40625 52.679688 22.304688 C 52.679688 22.203125 52.761719 22.121094 52.863281 22.121094 C 52.964844 22.121094 53.042969 22.203125 53.042969 22.304688 " fill="#ffffff"/><path data-cppathid="10069" fill-rule="nonzero" fill-opacity="1" d="M 53.042969 23.785156 C 53.042969 23.886719 52.964844 23.96875 52.863281 23.96875 C 52.761719 23.96875 52.679688 23.886719 52.679688 23.785156 C 52.679688 23.683594 52.761719 23.601562 52.863281 23.601562 C 52.964844 23.601562 53.042969 23.683594 53.042969 23.785156 " fill="#ffffff"/><path data-cppathid="10070" fill-rule="nonzero" fill-opacity="1" d="M 53.042969 25.523438 C 53.042969 25.621094 52.964844 25.703125 52.863281 25.703125 C 52.761719 25.703125 52.679688 25.621094 52.679688 25.523438 C 52.679688 25.421875 52.761719 25.339844 52.863281 25.339844 C 52.964844 25.339844 53.042969 25.421875 53.042969 25.523438 " fill="#ffffff"/><path data-cppathid="10071" fill-rule="nonzero" fill-opacity="1" d="M 60.011719 85.421875 L 45.710938 85.421875 L 45.710938 82.972656 L 60.011719 82.972656 L 60.011719 85.421875 " fill="#8fb1c3"/><path data-cppathid="10072" fill-rule="nonzero" fill-opacity="1" d="M 63.011719 87.871094 L 42.710938 87.871094 L 42.710938 85.421875 L 63.011719 85.421875 L 63.011719 87.871094 " fill="#739aac"/><g clip-path="url(#81ad7c21e1)"><path data-cppathid="10073" fill-rule="nonzero" fill-opacity="1" d="M 65.917969 92.773438 L 39.804688 92.773438 L 39.804688 90.324219 L 65.917969 90.324219 L 65.917969 92.773438 " fill="#739aac"/></g><g clip-path="url(#d5717662a1)"><path data-cppathid="10074" fill-rule="nonzero" fill-opacity="1" d="M 65.917969 95.222656 L 39.804688 95.222656 L 39.804688 92.773438 L 65.917969 92.773438 L 65.917969 95.222656 " fill="#567f93"/></g><g clip-path="url(#99d316b6ce)"><path data-cppathid="10075" fill-rule="nonzero" fill-opacity="1" d="M 65.917969 97.671875 L 39.804688 97.671875 L 39.804688 95.222656 L 65.917969 95.222656 L 65.917969 97.671875 " fill="#496a7b"/></g><path data-cppathid="10076" fill-rule="nonzero" fill-opacity="1" d="M 64.410156 90.324219 L 41.316406 90.324219 L 41.316406 87.871094 L 64.410156 87.871094 L 64.410156 90.324219 " fill="#8aa0ad"/><path data-cppathid="10077" fill-rule="nonzero" fill-opacity="1" d="M 47.84375 61.457031 L 57.878906 61.457031 L 57.878906 59.613281 L 47.84375 59.613281 Z M 47.84375 61.457031 " fill="#dbdcd7"/><path data-cppathid="10078" fill-rule="nonzero" fill-opacity="1" d="M 47.84375 65.238281 L 57.878906 65.238281 L 57.878906 63.394531 L 47.84375 63.394531 Z M 47.84375 65.238281 " fill="#dbdcd7"/></svg>