<?xml version="1.0" encoding="UTF-8"?>
<svg xmlns="http://www.w3.org/2000/svg" onmouseup="{ if(window.parent.document.onmouseup) window.parent.document.onmouseup(arguments[0]);}" version="1.0" preserveAspectRatio="xMidYMid meet" height="131" viewBox="0 0 105.75 98.249997" zoomAndPan="magnify" width="141" xmlns:xlink="http://www.w3.org/1999/xlink"><defs><clipPath id="1a3acaa44c"><path data-cppathid="10000" clip-rule="nonzero" d="M 40 10 L 70 10 L 70 97.503906 L 40 97.503906 Z M 40 10 "/></clipPath><clipPath id="d3ca02d7d0"><path data-cppathid="10001" clip-rule="nonzero" d="M 26.242188 23 L 79 23 L 79 54 L 26.242188 54 Z M 26.242188 23 "/></clipPath><clipPath id="1e91cdeb16"><path data-cppathid="10002" clip-rule="nonzero" d="M 26.242188 29 L 79 29 L 79 54 L 26.242188 54 Z M 26.242188 29 "/></clipPath></defs><path data-cppathid="10003" fill-rule="nonzero" fill-opacity="1" d="M 60.144531 26.539062 C 60.792969 26.488281 60.867188 27.316406 61.53125 27.140625 C 61.851562 27.054688 62.070312 26.453125 62.355469 26.429688 C 62.96875 26.378906 63.019531 27.664062 63.699219 27.78125 C 64.027344 27.832031 64.304688 27.542969 64.625 27.703125 C 65.253906 28.007812 64.917969 28.675781 65.773438 28.421875 C 66.128906 28.320312 66.679688 28.1875 67.007812 28.035156 C 67.53125 27.804688 67.371094 27.636719 67.503906 27.164062 C 67.621094 26.765625 67.933594 26.167969 68.371094 26.015625 C 68.875 25.835938 69.328125 26.34375 69.839844 26.167969 C 70.234375 26.023438 70.144531 25.8125 70.386719 25.484375 C 70.808594 24.925781 71.101562 25.28125 71.6875 25.035156 C 72.460938 24.714844 71.714844 23.21875 71.839844 22.425781 C 71.964844 21.613281 72.4375 21.78125 72.824219 21.292969 C 73.050781 21.023438 72.949219 20.804688 72.863281 20.414062 C 72.789062 20.042969 72.65625 19.804688 72.527344 19.460938 C 72.496094 19.359375 72.519531 19.1875 72.488281 19.070312 C 72.488281 19.046875 72.480469 19.027344 72.46875 19.011719 C 72.386719 18.859375 72.203125 18.816406 72.132812 18.699219 C 71.722656 18 71.789062 17.261719 70.621094 17.050781 C 69.679688 16.890625 69.738281 17.929688 68.917969 17.898438 C 68.5625 17.878906 68.015625 17.585938 67.78125 17.332031 C 67.5625 17.109375 67.53125 16.707031 67.304688 16.519531 C 67.078125 16.34375 66.480469 16.417969 66.195312 16.351562 C 65.683594 16.25 65.414062 16.097656 65.101562 15.667969 C 64.902344 15.402344 64.957031 15.214844 64.683594 15.019531 C 64.996094 14.824219 65.070312 14.660156 65.085938 14.25 C 65.097656 13.988281 64.949219 13.773438 64.953125 13.515625 C 64.964844 12.792969 65.199219 12.984375 65.636719 12.617188 C 66.292969 12.070312 65.738281 11.457031 66.199219 10.777344 C 66.417969 10.453125 66.808594 10.523438 66.972656 10.097656 C 67.160156 9.617188 66.917969 9.308594 66.578125 9.058594 C 66.242188 8.808594 65.171875 8.675781 65.328125 7.953125 C 65.382812 7.683594 65.738281 7.644531 65.765625 7.304688 C 65.785156 7.070312 65.488281 6.796875 65.539062 6.480469 C 65.648438 6.484375 65.789062 6.382812 65.914062 6.394531 C 66.015625 5.355469 65.421875 5.714844 65.019531 5.019531 C 64.75 4.546875 65.226562 3.652344 64.570312 3.363281 C 64.304688 3.25 63.910156 3.546875 63.621094 3.425781 C 63.464844 3.359375 63.257812 2.988281 63.09375 2.867188 C 62.851562 2.683594 62.523438 2.695312 62.328125 2.402344 C 62.121094 2.085938 62.339844 1.648438 61.871094 1.375 C 61.390625 1.09375 60.929688 1.417969 60.398438 1.359375 C 60.097656 1.324219 59.722656 1.136719 59.464844 0.980469 C 59.082031 0.75 59.261719 0.625 58.742188 0.527344 C 58.480469 0.476562 58.210938 0.527344 57.976562 0.605469 C 57.539062 0.746094 57.371094 1.113281 56.832031 0.917969 C 56.582031 0.828125 56.515625 0.527344 56.253906 0.457031 C 55.871094 0.359375 55.449219 0.785156 55.023438 0.660156 C 54.800781 0.59375 54.691406 0.320312 54.539062 0.265625 C 53.664062 -0.0351562 53.355469 1.117188 52.4375 0.972656 C 52.636719 0.519531 52.433594 0.320312 51.980469 0.449219 C 51.636719 0.546875 51.535156 0.90625 51.152344 1.050781 C 50.277344 1.375 49.996094 0.292969 49.253906 0.878906 C 49.015625 1.066406 48.964844 1.414062 48.644531 1.550781 C 48.257812 1.71875 47.910156 1.566406 47.503906 1.835938 C 46.964844 2.195312 46.875 2.925781 46.421875 3.28125 C 46.066406 3.558594 45.613281 3.363281 45.1875 3.511719 C 45.207031 3.996094 45.207031 4.925781 44.582031 5.179688 C 44.261719 5.3125 43.945312 4.855469 43.605469 4.980469 C 43.292969 5.097656 43.152344 5.652344 43 5.898438 C 42.457031 6.777344 41.46875 7.289062 41.632812 8.324219 C 41.75 9.082031 41.828125 9.523438 41.214844 10.089844 C 40.933594 10.34375 40.71875 9.980469 40.792969 10.585938 C 40.839844 10.972656 41.203125 11.203125 41.5 11.375 C 42.117188 11.734375 43.65625 11.949219 43.765625 12.796875 C 43.804688 13.09375 43.449219 13.40625 43.566406 13.699219 C 43.660156 13.941406 44.078125 14.082031 44.277344 14.214844 C 45.003906 14.703125 44.769531 15.042969 45.105469 15.675781 C 45.492188 16.410156 45.785156 15.941406 46.363281 15.863281 C 46.601562 15.828125 46.855469 15.8125 47.042969 16.011719 C 47.363281 16.351562 46.992188 16.488281 47.0625 16.921875 C 47.464844 16.917969 47.863281 16.699219 48.261719 16.847656 C 48.628906 16.980469 48.550781 17.292969 49.035156 17.257812 C 49.382812 17.230469 49.546875 16.945312 49.933594 16.976562 C 50.15625 16.996094 50.53125 17.238281 50.753906 17.328125 C 50.667969 19.132812 52.988281 17.585938 53.703125 17.390625 C 54.429688 17.191406 55.09375 17.527344 55.609375 17.90625 C 55.890625 18.109375 56.160156 18.265625 56.441406 18.390625 C 56.566406 18.664062 56.671875 18.921875 56.523438 19.25 C 56.3125 19.703125 55.71875 19.914062 55.390625 20.304688 C 54.953125 20.828125 54.945312 21.117188 55.0625 21.496094 C 55.078125 21.539062 55.085938 21.582031 55.105469 21.628906 C 55.164062 21.773438 55.230469 21.945312 55.304688 22.136719 C 55.398438 22.390625 55.390625 22.59375 55.339844 22.789062 C 55.246094 23.183594 54.996094 23.515625 55.070312 24.011719 C 55.1875 24.75 55.976562 24.832031 56.464844 25.195312 C 57.042969 25.625 56.632812 26.140625 57.035156 26.625 C 57.210938 26.828125 57.441406 26.699219 57.667969 26.808594 C 58.101562 27.011719 58.371094 27.453125 58.910156 27.390625 C 59.488281 27.324219 59.574219 26.589844 60.144531 26.539062 Z M 60.144531 26.539062 " fill="#80aa53"/><path data-cppathid="10004" fill-rule="nonzero" fill-opacity="1" d="M 60.144531 26.539062 C 60.792969 26.488281 60.867188 27.316406 61.53125 27.140625 C 61.851562 27.054688 62.070312 26.453125 62.355469 26.429688 C 62.96875 26.378906 63.019531 27.664062 63.699219 27.78125 C 64.027344 27.832031 64.304688 27.542969 64.625 27.703125 C 65.253906 28.007812 64.917969 28.675781 65.773438 28.421875 C 66.128906 28.320312 66.679688 28.1875 67.007812 28.035156 C 67.53125 27.804688 67.371094 27.636719 67.503906 27.164062 C 67.621094 26.765625 67.933594 26.167969 68.371094 26.015625 C 68.875 25.835938 69.328125 26.34375 69.839844 26.167969 C 70.234375 26.023438 70.144531 25.8125 70.386719 25.484375 C 70.808594 24.925781 71.101562 25.28125 71.6875 25.035156 C 72.460938 24.714844 71.714844 23.21875 71.839844 22.425781 C 71.964844 21.613281 72.4375 21.78125 72.824219 21.292969 C 73.050781 21.023438 72.949219 20.804688 72.863281 20.414062 C 72.789062 20.042969 72.65625 19.804688 72.527344 19.460938 C 72.496094 19.359375 72.519531 19.1875 72.488281 19.070312 C 72.460938 19.070312 72.445312 19.078125 72.417969 19.089844 C 72.101562 19.238281 72.023438 19.773438 71.882812 20.058594 C 71.773438 20.269531 71.480469 20.878906 71.269531 20.972656 C 71.042969 21.074219 70.714844 20.90625 70.46875 20.945312 C 69.714844 21.066406 70.3125 21.902344 69.640625 22.339844 C 68.992188 22.753906 68.976562 22.238281 68.472656 22.144531 C 67.925781 22.042969 67.957031 22.796875 67.472656 22.8125 C 67.34375 22.8125 67.066406 22.628906 66.839844 22.628906 C 66.574219 22.636719 66.277344 22.621094 66.160156 22.820312 C 65.984375 23.117188 66.355469 23.558594 66.101562 23.894531 C 65.96875 24.0625 65.640625 24.148438 65.4375 24.183594 C 64.480469 24.324219 64.011719 23.457031 63.269531 24.273438 C 62.742188 24.859375 62.84375 24.519531 62.304688 24.324219 C 61.816406 24.148438 61.640625 24.417969 61.40625 24.757812 C 61.144531 25.136719 60.960938 25.3125 60.429688 25.160156 C 60.195312 25.085938 60.113281 24.949219 59.882812 24.898438 C 59.667969 24.859375 59.421875 25.027344 59.222656 24.949219 C 58.945312 24.859375 59.0625 24.707031 58.875 24.476562 C 58.632812 24.191406 58.75 24.367188 58.4375 24.292969 C 58.085938 24.199219 57.414062 24.214844 57.105469 23.980469 C 56.917969 23.84375 56.945312 23.582031 56.757812 23.464844 C 56.507812 23.296875 56.0625 23.4375 55.769531 23.261719 C 55.609375 23.160156 55.449219 22.992188 55.339844 22.789062 C 55.390625 22.59375 55.398438 22.390625 55.304688 22.136719 C 55.230469 21.945312 55.164062 21.773438 55.105469 21.628906 C 55.085938 21.582031 55.078125 21.539062 55.0625 21.496094 C 54.945312 21.117188 54.953125 20.828125 55.390625 20.304688 C 55.71875 19.914062 56.3125 19.703125 56.523438 19.25 C 56.671875 18.921875 56.566406 18.664062 56.441406 18.390625 C 56.160156 18.265625 55.890625 18.109375 55.609375 17.90625 C 55.09375 17.527344 54.429688 17.191406 53.703125 17.390625 C 52.988281 17.585938 50.667969 19.132812 50.753906 17.328125 C 50.53125 17.238281 50.15625 16.996094 49.933594 16.976562 C 49.546875 16.945312 49.382812 17.230469 49.035156 17.257812 C 48.550781 17.292969 48.628906 16.980469 48.261719 16.847656 C 47.863281 16.699219 47.464844 16.917969 47.0625 16.921875 C 46.992188 16.488281 47.363281 16.351562 47.042969 16.011719 C 46.855469 15.8125 46.601562 15.828125 46.363281 15.863281 C 45.785156 15.941406 45.492188 16.410156 45.105469 15.675781 C 44.769531 15.042969 45.003906 14.703125 44.277344 14.214844 C 44.1875 14.15625 44.054688 14.09375 43.921875 14.019531 C 43.738281 14.089844 43.566406 14.175781 43.441406 14.296875 C 43.148438 14.582031 43.195312 15.082031 42.867188 15.300781 C 42.578125 15.496094 42.160156 15.253906 41.886719 15.429688 C 41.460938 15.699219 41.683594 16.1875 41.582031 16.609375 C 41.359375 17.511719 40.820312 17.097656 40.136719 17.316406 C 39.800781 17.425781 39.898438 17.636719 39.65625 17.738281 C 39.371094 17.867188 38.90625 17.761719 38.59375 17.828125 C 37.988281 17.953125 37.367188 18.386719 37.757812 19.09375 C 37.960938 19.460938 38.230469 19.300781 38.175781 19.738281 C 38.144531 19.988281 37.722656 20.15625 37.726562 20.511719 C 37.734375 21.574219 38.605469 20.957031 39.089844 21.25 C 39.339844 21.402344 39.511719 21.925781 39.734375 22.160156 C 39.945312 22.382812 40.246094 22.636719 40.535156 22.757812 C 41.0625 22.976562 41.722656 22.664062 42.222656 22.871094 C 42.503906 22.984375 42.691406 23.347656 43.027344 23.574219 C 43.859375 24.132812 44.164062 24.367188 45.234375 24.429688 C 45.421875 25.273438 46.667969 24.78125 47.199219 24.609375 C 47.570312 24.488281 47.820312 24.144531 48.195312 24.046875 C 48.71875 23.914062 48.707031 24.167969 49.144531 24.242188 C 49.683594 24.339844 49.617188 23.96875 50.09375 23.777344 C 50.3125 23.691406 50.855469 23.734375 51.085938 23.773438 C 51.753906 23.886719 52.039062 24.519531 52.726562 24.550781 C 53.371094 24.578125 53.542969 24.144531 54.070312 23.972656 C 54.328125 23.890625 54.726562 23.898438 55.070312 23.902344 C 55.070312 23.941406 55.0625 23.972656 55.070312 24.011719 C 55.1875 24.75 55.976562 24.832031 56.464844 25.195312 C 57.042969 25.625 56.632812 26.140625 57.035156 26.625 C 57.210938 26.828125 57.441406 26.699219 57.667969 26.808594 C 58.101562 27.011719 58.371094 27.453125 58.910156 27.390625 C 59.488281 27.324219 59.574219 26.589844 60.144531 26.539062 Z M 60.144531 26.539062 " fill="#64893a"/><g clip-path="url(#1a3acaa44c)"><path data-cppathid="10005" fill-rule="nonzero" fill-opacity="1" d="M 68.921875 44.554688 C 67.417969 45.699219 66.179688 47.082031 64.898438 48.464844 C 64.332031 49.074219 63.707031 49.628906 63.175781 50.273438 C 62.820312 50.707031 62.46875 51.148438 62.109375 51.582031 C 60.453125 52.429688 59.09375 53.914062 57.828125 55.222656 C 56.746094 56.339844 55.625 57.539062 54.769531 58.878906 C 54.507812 57.125 54.273438 55.367188 54.324219 53.582031 C 54.453125 49.054688 54.859375 44.535156 54.933594 40 C 54.949219 39.109375 54.933594 38.222656 54.910156 37.335938 C 55.058594 36.476562 55.171875 35.605469 55.179688 34.710938 C 55.203125 32 55 29.472656 56.226562 26.949219 C 56.742188 25.894531 57.488281 24.972656 58.042969 23.9375 C 58.601562 22.886719 58.875 21.703125 59.542969 20.707031 C 59.742188 20.410156 59.273438 20.039062 59.050781 20.320312 C 58.363281 21.195312 58.007812 22.226562 57.457031 23.179688 C 56.804688 24.304688 55.90625 25.257812 55.199219 26.34375 C 54.851562 26.875 54.574219 27.40625 54.34375 27.945312 C 54.316406 27.484375 54.292969 27.023438 54.273438 26.5625 C 54.050781 21.429688 54.105469 16.25 54.378906 11.117188 C 54.402344 10.738281 53.765625 10.640625 53.710938 11.027344 C 52.488281 19.722656 52.769531 28.554688 52.972656 37.308594 C 53.078125 41.800781 52.46875 46.246094 51.957031 50.699219 C 51.945312 50.785156 51.9375 50.871094 51.929688 50.960938 C 51.691406 49.074219 51.589844 47.171875 51.214844 45.300781 C 50.976562 44.125 50.90625 42.890625 50.585938 41.734375 C 50.304688 40.707031 49.714844 39.804688 49.179688 38.898438 C 47.976562 36.878906 46.640625 35.089844 45.09375 33.320312 C 43.429688 31.421875 41.757812 29.417969 41.050781 26.9375 C 40.960938 26.621094 40.507812 26.753906 40.570312 27.070312 C 41.25 30.578125 43.578125 33.3125 45.390625 36.285156 C 46.320312 37.808594 47.183594 39.503906 47.640625 41.238281 C 48.175781 43.269531 48.195312 45.394531 48.75 47.429688 C 49.472656 50.089844 50.332031 52.707031 50.945312 55.382812 C 51.292969 58.019531 51.21875 60.640625 51.121094 63.324219 C 50.945312 68.191406 50.765625 73.019531 50.765625 77.882812 C 50.765625 79.316406 50.703125 80.730469 50.765625 82.160156 C 50.863281 84.304688 51.21875 86.371094 50.757812 88.511719 C 50.167969 91.25 49.058594 93.664062 46.296875 94.605469 C 45.738281 94.796875 43.085938 95.542969 44.410156 96.203125 C 45.554688 96.773438 46.855469 95.269531 48.164062 95.675781 C 48.472656 95.773438 48.589844 96.042969 48.964844 96.023438 C 49.425781 96 49.363281 95.589844 49.761719 95.996094 C 50.027344 96.265625 50.058594 97.125 50.195312 97.503906 C 51.214844 97.652344 51.015625 96.761719 51.824219 96.550781 C 52.460938 96.382812 52.28125 96.75 52.753906 96.921875 C 53.269531 97.109375 53.636719 96.65625 54.09375 96.617188 C 54.332031 97.199219 55.199219 97.386719 55.773438 97.320312 C 56.613281 97.21875 56.191406 96.957031 56.414062 96.351562 C 56.65625 95.679688 57.246094 95.921875 57.828125 96.09375 C 58.097656 96.171875 58.308594 96.304688 58.597656 96.257812 C 58.941406 96.203125 59.15625 95.855469 59.496094 95.835938 C 59.867188 95.8125 60.164062 96.03125 60.492188 96.171875 C 61.128906 96.441406 61.722656 96.621094 62.417969 96.675781 C 62.96875 96.71875 65.015625 96.984375 64.574219 96.015625 C 64.339844 95.503906 63.242188 95.113281 62.757812 94.851562 C 60.898438 93.851562 58.503906 92.472656 57.699219 90.386719 C 56.582031 87.492188 56.796875 83.980469 56.351562 80.933594 C 56.132812 79.445312 55.914062 77.96875 55.84375 76.464844 C 55.746094 74.46875 55.472656 72.425781 55.636719 70.429688 C 55.800781 68.472656 55.367188 66.320312 55.722656 64.398438 C 55.9375 63.238281 56.226562 62.09375 56.625 60.976562 C 57.160156 59.488281 57.949219 58.058594 59 56.878906 C 60.136719 55.605469 61.636719 54.761719 62.792969 53.515625 C 63.910156 52.316406 64.726562 50.855469 65.664062 49.519531 C 66.761719 47.957031 68.03125 46.484375 69.34375 45.105469 C 69.605469 44.828125 69.25 44.304688 68.921875 44.554688 Z M 68.921875 44.554688 " fill="#a47052"/></g><g clip-path="url(#d3ca02d7d0)"><path data-cppathid="10006" fill-rule="nonzero" fill-opacity="1" d="M 78.820312 45.148438 C 78.628906 45.671875 77.871094 45.402344 78.183594 46.113281 C 78.242188 46.265625 78.34375 46.390625 78.460938 46.5 C 78.519531 46.550781 78.636719 46.59375 78.671875 46.671875 C 78.761719 46.898438 78.367188 47.210938 78.316406 47.429688 C 78.242188 47.71875 78.191406 48.089844 77.796875 48.039062 C 77.496094 47.996094 77.097656 47.894531 76.949219 48.257812 C 76.824219 48.554688 76.855469 48.890625 76.738281 49.1875 C 76.527344 49.703125 75.933594 50.183594 75.359375 49.796875 C 75.160156 50.015625 75.109375 50.574219 74.921875 50.707031 C 74.605469 50.945312 74.621094 50.605469 74.308594 50.632812 C 73.765625 50.675781 73.707031 51.242188 73.175781 51.410156 C 72.664062 51.578125 72.527344 51.351562 72.082031 51.796875 C 71.796875 52.101562 71.714844 52.464844 71.253906 52.558594 C 70.589844 52.695312 70.722656 52.179688 70.285156 51.976562 C 69.6875 51.679688 69.539062 52.3125 69.136719 52.523438 C 68.628906 52.785156 68.210938 52.457031 67.707031 52.550781 C 67.078125 52.675781 66.824219 53.097656 66.101562 53.015625 C 66.019531 52.769531 66.035156 52.507812 66.117188 52.261719 C 65.613281 53.292969 64.050781 52.070312 63.605469 51.5625 C 63.238281 51.128906 62.792969 50.851562 62.464844 50.414062 C 62.261719 50.140625 62.488281 50.082031 62.195312 49.921875 C 61.976562 49.804688 61.53125 50.058594 61.21875 49.828125 C 60.464844 49.273438 61.566406 49.171875 61.496094 48.570312 C 61.464844 48.207031 60.539062 47.742188 60.253906 47.515625 C 59.691406 47.085938 59.867188 47.195312 59.757812 46.519531 C 59.605469 45.605469 59.136719 45.933594 58.546875 45.539062 C 58.136719 45.25 58.09375 44.828125 58.464844 44.433594 C 58.558594 44.339844 58.640625 44.289062 58.714844 44.261719 C 58.917969 44.167969 59.050781 44.238281 59.179688 43.722656 C 59.339844 43.070312 59.070312 42.886719 58.917969 42.335938 C 58.726562 41.628906 58.960938 42.058594 59.523438 41.726562 C 60.121094 41.382812 59.640625 40.925781 59.882812 40.4375 C 60.128906 39.929688 60.457031 40.460938 60.765625 40.183594 C 61.320312 39.675781 60.363281 38.984375 61.449219 38.722656 C 62.085938 38.570312 62.546875 39.015625 62.867188 38.179688 C 63.109375 37.554688 62.582031 36.980469 63.445312 36.785156 C 64.414062 36.574219 64 37.445312 64.640625 37.589844 C 65.472656 37.785156 65.605469 36.804688 66.355469 36.878906 C 66.976562 36.945312 67.101562 37.808594 67.597656 36.761719 C 67.917969 36.71875 68.066406 36.972656 68.363281 37.015625 C 68.722656 37.058594 68.699219 36.582031 69.066406 36.945312 C 69.34375 36.203125 71.203125 36.421875 70.628906 37.140625 C 71.328125 37.125 73.21875 36.792969 72.992188 37.902344 C 73.496094 38.027344 74.78125 37.910156 75.160156 38.324219 C 75.546875 38.746094 75.050781 38.738281 74.914062 39.195312 C 75.367188 39.328125 76.570312 39.246094 76.890625 39.574219 C 77.226562 39.929688 76.882812 39.863281 76.714844 40.242188 C 77.089844 40.394531 78.191406 40.636719 78.25 41.144531 C 78.300781 41.578125 77.695312 41.542969 77.746094 41.914062 C 77.796875 42.335938 78.636719 42.34375 78.621094 42.886719 C 78.621094 43.300781 77.964844 43.554688 78.050781 44.058594 C 78.050781 44.078125 78.058594 44.09375 78.066406 44.101562 C 78.191406 44.59375 78.988281 44.667969 78.820312 45.148438 Z M 52.222656 30.78125 C 52.148438 30.710938 52.054688 30.636719 51.960938 30.550781 C 51.601562 30.230469 51.542969 30.382812 51.535156 29.773438 C 51.523438 29.460938 51.667969 29.148438 51.566406 28.835938 C 51.375 28.253906 50.960938 28.339844 50.484375 28.355469 C 50.375 28.363281 49.753906 28.398438 49.660156 28.363281 C 49.214844 28.210938 49.484375 28.007812 49.28125 27.652344 C 48.800781 26.835938 48.011719 27.695312 47.433594 28.09375 C 47.441406 27.519531 47.171875 27.324219 46.914062 26.996094 C 46.753906 26.785156 46.585938 26.480469 46.339844 26.371094 C 46.03125 26.226562 45.550781 26.503906 45.257812 26.351562 C 44.652344 26.03125 45.507812 25.746094 45.179688 25.128906 C 44.886719 24.570312 44.046875 24.773438 43.585938 24.992188 C 43.542969 24.636719 43.382812 24.316406 43.023438 24.214844 C 42.644531 24.105469 42.417969 24.546875 41.964844 24.164062 C 41.191406 23.871094 40.738281 23.203125 39.828125 23.195312 C 39.214844 23.175781 39.324219 23.386719 38.855469 23.582031 C 38.082031 23.886719 37.542969 23.589844 37.585938 24.730469 C 36.863281 24.796875 36.503906 24.933594 35.988281 25.425781 C 35.796875 25.617188 35.621094 25.746094 35.476562 25.988281 C 35.335938 26.21875 35.351562 26.445312 35.132812 26.648438 C 34.746094 27.003906 34.300781 26.765625 34.03125 27.128906 C 33.8125 27.433594 33.855469 27.847656 33.410156 28.007812 C 32.949219 28.160156 32.707031 27.855469 32.386719 28.289062 C 32.261719 28.457031 32.328125 28.71875 32.058594 28.820312 C 31.722656 28.9375 31.863281 28.734375 31.636719 28.667969 C 31.140625 28.515625 30.738281 28.523438 30.578125 29.023438 C 30.519531 29.21875 30.585938 29.308594 30.46875 29.503906 C 30.386719 29.648438 30.101562 29.902344 29.949219 29.996094 C 29.765625 30.113281 29.546875 30.09375 29.328125 30.042969 C 28.949219 29.960938 28.570312 29.765625 28.300781 29.984375 C 27.796875 30.390625 28.460938 30.972656 27.628906 31.152344 C 27.277344 31.226562 26.992188 31.175781 26.875 31.609375 C 26.78125 31.996094 27.109375 32.097656 27.132812 32.402344 C 27.167969 33.042969 26.335938 33.289062 27.269531 33.660156 C 27.628906 33.804688 28.101562 33.753906 28.351562 34.109375 C 28.546875 34.378906 28.363281 34.675781 28.53125 34.945312 C 28.847656 35.476562 30 35.25 30.546875 35.351562 C 31.066406 35.441406 31.335938 35.425781 31.839844 35.332031 C 32.160156 35.265625 33.082031 35.054688 33.367188 35.199219 C 33.796875 35.410156 33.789062 36.167969 33.941406 36.558594 C 34.316406 37.554688 34.578125 37.007812 35.445312 37.074219 C 35.949219 37.117188 36.308594 37.554688 36.636719 37.851562 C 36.730469 37.945312 37.132812 38.246094 37.292969 38.246094 C 37.6875 38.238281 37.761719 37.621094 38.191406 37.683594 C 38.375 37.707031 38.949219 38.214844 39.132812 38.316406 C 39.5625 38.550781 40.082031 38.855469 40.601562 38.746094 C 42.054688 38.449219 40.980469 36.378906 42.855469 36.886719 C 43.292969 37.007812 43.207031 37.285156 43.726562 37.140625 C 44.171875 37.023438 44.46875 36.753906 44.484375 36.246094 C 45.082031 36.230469 45.695312 36.203125 46.300781 36.167969 C 47.273438 36.128906 47.625 35.242188 48.59375 35.148438 C 49.425781 35.0625 49.644531 35.171875 50.136719 34.429688 C 50.550781 33.796875 50.632812 33.753906 51.375 33.5 C 52.128906 33.238281 52.523438 32.6875 52.625 31.84375 C 52.691406 31.253906 52.523438 31.050781 52.222656 30.78125 Z M 52.222656 30.78125 " fill="#80aa53"/></g><path data-cppathid="10007" fill-rule="nonzero" fill-opacity="1" d="M 55.105469 21.628906 C 55.085938 21.582031 55.078125 21.539062 55.0625 21.496094 C 55.105469 21.511719 55.121094 21.53125 55.128906 21.5625 C 55.121094 21.589844 55.113281 21.605469 55.105469 21.628906 Z M 55.105469 21.628906 " fill="#64893a"/><path data-cppathid="10008" fill-rule="nonzero" fill-opacity="1" d="M 78.820312 45.148438 C 78.628906 45.671875 77.871094 45.402344 78.183594 46.113281 C 78.242188 46.265625 78.34375 46.390625 78.460938 46.5 C 78.519531 46.550781 78.636719 46.59375 78.671875 46.671875 C 78.761719 46.898438 78.367188 47.210938 78.316406 47.429688 C 78.242188 47.71875 78.191406 48.089844 77.796875 48.039062 C 77.496094 47.996094 77.097656 47.894531 76.949219 48.257812 C 76.824219 48.554688 76.855469 48.890625 76.738281 49.1875 C 76.527344 49.703125 75.933594 50.183594 75.359375 49.796875 C 75.160156 50.015625 75.109375 50.574219 74.921875 50.707031 C 74.605469 50.945312 74.621094 50.605469 74.308594 50.632812 C 73.765625 50.675781 73.707031 51.242188 73.175781 51.410156 C 72.664062 51.578125 72.527344 51.351562 72.082031 51.796875 C 71.796875 52.101562 71.714844 52.464844 71.253906 52.558594 C 70.589844 52.695312 70.722656 52.179688 70.285156 51.976562 C 69.6875 51.679688 69.539062 52.3125 69.136719 52.523438 C 68.628906 52.785156 68.210938 52.457031 67.707031 52.550781 C 67.078125 52.675781 66.824219 53.097656 66.101562 53.015625 C 66.019531 52.769531 66.035156 52.507812 66.117188 52.261719 C 65.613281 53.292969 64.050781 52.070312 63.605469 51.5625 C 63.238281 51.128906 62.792969 50.851562 62.464844 50.414062 C 62.261719 50.140625 62.488281 50.082031 62.195312 49.921875 C 61.976562 49.804688 61.53125 50.058594 61.21875 49.828125 C 60.464844 49.273438 61.566406 49.171875 61.496094 48.570312 C 61.464844 48.207031 60.539062 47.742188 60.253906 47.515625 C 59.691406 47.085938 59.867188 47.195312 59.757812 46.519531 C 59.605469 45.605469 59.136719 45.933594 58.546875 45.539062 C 58.136719 45.25 58.09375 44.828125 58.464844 44.433594 C 58.558594 44.339844 58.640625 44.289062 58.714844 44.261719 C 58.894531 44.304688 58.976562 44.421875 59.160156 44.710938 C 59.429688 45.140625 59.53125 45.058594 59.992188 45.207031 C 60.261719 45.285156 60.683594 45.496094 60.851562 45.722656 C 61.027344 45.960938 60.933594 46.339844 61.085938 46.550781 C 61.328125 46.875 61.691406 46.644531 61.96875 46.941406 C 62.195312 47.175781 62.167969 47.558594 62.40625 47.800781 C 62.496094 47.902344 62.664062 47.886719 62.773438 48.003906 C 62.875 48.105469 62.832031 48.308594 62.941406 48.375 C 63.261719 48.570312 63.632812 48.199219 63.96875 48.34375 C 64.3125 48.488281 64.246094 49.003906 64.582031 49.152344 C 64.917969 49.304688 65.765625 48.859375 66.085938 48.738281 C 66.890625 48.425781 66.613281 47.347656 67.679688 47.539062 C 67.847656 47.574219 67.867188 47.734375 68.042969 47.761719 C 68.335938 47.8125 68.730469 47.589844 68.984375 47.472656 C 69.292969 47.320312 69.605469 47.203125 69.796875 46.941406 C 70.101562 46.535156 70.144531 46.113281 70.789062 46.257812 C 71.234375 46.347656 71.210938 46.644531 71.597656 46.746094 C 71.949219 46.839844 72.292969 46.492188 72.613281 46.550781 C 72.832031 46.585938 72.972656 46.789062 73.203125 46.839844 C 73.796875 46.984375 74.21875 46.6875 74.453125 46.207031 C 74.636719 45.84375 74.535156 45.394531 74.964844 45.335938 C 75.175781 45.308594 75.335938 45.5625 75.554688 45.488281 C 75.863281 45.386719 75.914062 44.785156 75.992188 44.523438 C 76.496094 44.421875 77.4375 45.132812 77.484375 44.136719 C 77.714844 44.128906 77.898438 44.121094 78.066406 44.101562 C 78.191406 44.59375 78.988281 44.667969 78.820312 45.148438 Z M 78.820312 45.148438 " fill="#64893a"/><g clip-path="url(#1e91cdeb16)"><path data-cppathid="10009" fill-rule="nonzero" fill-opacity="1" d="M 51.375 33.5 C 50.632812 33.753906 50.550781 33.796875 50.136719 34.429688 C 49.644531 35.171875 49.425781 35.0625 48.59375 35.148438 C 47.625 35.242188 47.273438 36.128906 46.300781 36.167969 C 45.695312 36.203125 45.082031 36.230469 44.484375 36.246094 C 44.46875 36.753906 44.171875 37.023438 43.726562 37.140625 C 43.207031 37.285156 43.292969 37.007812 42.855469 36.886719 C 40.980469 36.378906 42.054688 38.449219 40.601562 38.746094 C 40.082031 38.855469 39.5625 38.550781 39.132812 38.316406 C 38.949219 38.214844 38.375 37.707031 38.191406 37.683594 C 37.761719 37.621094 37.6875 38.238281 37.292969 38.246094 C 37.132812 38.246094 36.730469 37.945312 36.636719 37.851562 C 36.308594 37.554688 35.949219 37.117188 35.445312 37.074219 C 34.578125 37.007812 34.316406 37.554688 33.941406 36.558594 C 33.789062 36.167969 33.796875 35.410156 33.367188 35.199219 C 33.082031 35.054688 32.160156 35.265625 31.839844 35.332031 C 31.335938 35.425781 31.066406 35.441406 30.546875 35.351562 C 30 35.25 28.847656 35.476562 28.53125 34.945312 C 28.363281 34.675781 28.546875 34.378906 28.351562 34.109375 C 28.101562 33.753906 27.628906 33.804688 27.269531 33.660156 C 26.335938 33.289062 27.167969 33.042969 27.132812 32.402344 C 27.109375 32.097656 26.78125 31.996094 26.875 31.609375 C 26.992188 31.175781 27.277344 31.226562 27.628906 31.152344 C 28.460938 30.972656 27.796875 30.390625 28.300781 29.984375 C 28.570312 29.765625 28.949219 29.960938 29.328125 30.042969 C 29.511719 30.128906 29.671875 30.246094 29.796875 30.457031 C 29.914062 30.652344 29.914062 30.972656 30.050781 31.144531 C 30.445312 31.632812 31.03125 31.160156 31.335938 31.691406 C 31.460938 31.902344 31.394531 32.222656 31.578125 32.410156 C 31.789062 32.636719 32.117188 32.597656 32.402344 32.636719 C 33.191406 32.773438 33.546875 33.1875 34.132812 32.519531 C 34.929688 31.609375 35.535156 31.710938 36.671875 31.878906 C 36.941406 31.921875 37.046875 32.011719 37.257812 32.074219 C 37.554688 32.15625 37.769531 32.089844 38.089844 32.125 C 38.484375 32.15625 38.445312 32.273438 38.695312 32.503906 C 38.988281 32.78125 38.964844 32.789062 39.441406 32.75 C 39.878906 32.714844 40.242188 32.75 40.667969 32.789062 C 41.15625 32.832031 41.460938 32.671875 41.914062 32.546875 C 42.351562 32.417969 42.191406 32.578125 42.511719 32.605469 C 42.847656 32.636719 43.183594 32.425781 43.492188 32.460938 C 43.726562 32.488281 43.753906 32.613281 43.953125 32.664062 C 44.28125 32.75 44.636719 32.628906 44.953125 32.664062 C 45.433594 32.707031 45.660156 33.011719 46.0625 33.136719 C 46.527344 33.289062 47.089844 32.933594 47.515625 32.808594 C 47.9375 32.671875 48.03125 32.824219 48.347656 32.851562 C 48.929688 32.898438 49.535156 32.554688 50.03125 32.324219 C 50.296875 32.199219 50.550781 31.980469 50.84375 31.910156 C 51.089844 31.859375 51.230469 31.9375 51.464844 31.828125 C 51.886719 31.648438 51.929688 31.015625 52.222656 30.78125 C 52.523438 31.050781 52.691406 31.253906 52.625 31.84375 C 52.523438 32.6875 52.128906 33.238281 51.375 33.5 Z M 78.070312 44.101562 C 77.898438 44.121094 77.714844 44.132812 77.492188 44.132812 C 77.4375 45.136719 76.492188 44.425781 75.996094 44.523438 C 75.910156 44.78125 75.867188 45.386719 75.554688 45.484375 C 75.339844 45.558594 75.179688 45.3125 74.964844 45.332031 C 74.535156 45.398438 74.640625 45.839844 74.457031 46.207031 C 74.222656 46.683594 73.800781 46.988281 73.199219 46.835938 C 72.972656 46.792969 72.835938 46.585938 72.609375 46.554688 C 72.296875 46.488281 71.953125 46.835938 71.597656 46.75 C 71.210938 46.640625 71.234375 46.347656 70.792969 46.25 C 70.144531 46.109375 70.101562 46.53125 69.800781 46.945312 C 69.671875 47.117188 69.492188 47.226562 69.296875 47.320312 C 69.199219 47.375 69.09375 47.417969 68.984375 47.472656 C 68.726562 47.59375 68.339844 47.808594 68.039062 47.765625 C 67.867188 47.734375 67.84375 47.570312 67.683594 47.539062 C 66.609375 47.34375 66.886719 48.425781 66.082031 48.738281 C 65.769531 48.855469 64.921875 49.3125 64.578125 49.148438 C 64.242188 48.996094 64.308594 48.488281 63.964844 48.339844 C 63.628906 48.199219 63.265625 48.578125 62.941406 48.382812 C 62.835938 48.304688 62.878906 48.109375 62.769531 48.003906 C 62.664062 47.882812 62.5 47.90625 62.40625 47.796875 C 62.167969 47.558594 62.191406 47.179688 61.964844 46.945312 C 61.695312 46.640625 61.328125 46.867188 61.082031 46.554688 C 60.953125 46.359375 61.007812 46.046875 60.890625 45.808594 C 60.878906 45.777344 60.867188 45.742188 60.84375 45.722656 C 60.683594 45.496094 60.265625 45.289062 59.996094 45.214844 C 59.535156 45.050781 59.425781 45.136719 59.15625 44.707031 C 58.976562 44.425781 58.890625 44.304688 58.714844 44.261719 C 58.640625 44.285156 58.554688 44.339844 58.46875 44.433594 C 58.105469 44.8125 58.136719 45.226562 58.511719 45.503906 C 58.199219 45.484375 57.867188 45.484375 57.695312 45.601562 C 57.4375 45.777344 57.449219 46.21875 57.40625 46.5 C 56.621094 46.597656 55.933594 46.101562 55.285156 46.804688 C 55.136719 46.964844 55.070312 47.300781 54.878906 47.410156 C 54.695312 47.503906 54.425781 47.386719 54.222656 47.484375 C 53.492188 47.832031 54.148438 48.523438 53.890625 49.007812 C 53.640625 49.484375 52.976562 48.921875 52.566406 49.074219 C 52.191406 49.214844 52.363281 49.472656 52.296875 49.820312 C 52.222656 50.253906 52.253906 49.925781 51.984375 50.242188 C 51.511719 50.8125 52.15625 51.148438 52.628906 51.472656 C 53.050781 51.765625 53.242188 51.820312 53.726562 51.679688 C 54.265625 51.527344 54.597656 51.324219 55.09375 51.667969 C 55.425781 51.882812 55.621094 52.253906 55.976562 52.4375 C 56.394531 52.640625 56.726562 52.523438 57.15625 52.480469 C 57.890625 52.402344 58.371094 52.890625 59.09375 52.847656 C 59.792969 52.792969 60.738281 52.445312 60.492188 51.601562 C 60.792969 51.582031 61.167969 51.558594 61.4375 51.648438 C 61.75 51.742188 61.585938 51.851562 61.976562 51.832031 C 62.351562 51.796875 62.511719 51.582031 62.941406 51.777344 C 63.296875 51.929688 63.4375 52.121094 63.835938 52.175781 C 63.984375 52.199219 64.148438 52.1875 64.308594 52.175781 C 64.308594 52.175781 64.308594 52.175781 64.320312 52.175781 C 64.953125 52.621094 65.78125 52.953125 66.113281 52.261719 C 66.039062 52.511719 66.015625 52.769531 66.105469 53.019531 C 66.824219 53.09375 67.070312 52.671875 67.707031 52.554688 C 68.210938 52.457031 68.628906 52.78125 69.136719 52.523438 C 69.457031 52.347656 69.621094 51.894531 69.996094 51.894531 C 70.082031 51.894531 70.179688 51.917969 70.285156 51.972656 C 70.726562 52.175781 70.585938 52.695312 71.253906 52.554688 C 71.714844 52.46875 71.800781 52.101562 72.082031 51.796875 C 72.535156 51.355469 72.664062 51.582031 73.179688 51.410156 C 73.707031 51.234375 73.757812 50.671875 74.308594 50.628906 C 74.621094 50.609375 74.609375 50.945312 74.921875 50.707031 C 75.101562 50.578125 75.15625 50.015625 75.363281 49.796875 C 75.929688 50.1875 76.535156 49.699219 76.738281 49.191406 C 76.855469 48.890625 76.824219 48.554688 76.953125 48.261719 C 77.101562 47.894531 77.492188 47.992188 77.800781 48.035156 C 78.1875 48.089844 78.242188 47.722656 78.316406 47.429688 C 78.371094 47.214844 78.757812 46.898438 78.671875 46.671875 C 78.640625 46.597656 78.523438 46.554688 78.457031 46.5 C 78.339844 46.390625 78.242188 46.261719 78.179688 46.109375 C 77.878906 45.410156 78.628906 45.679688 78.824219 45.148438 C 78.984375 44.671875 78.1875 44.597656 78.070312 44.101562 Z M 78.070312 44.101562 " fill="#64893a"/></g></svg>