<?xml version="1.0" encoding="UTF-8"?>
<svg xmlns="http://www.w3.org/2000/svg" onmouseup="{ if(window.parent.document.onmouseup) window.parent.document.onmouseup(arguments[0]);}" viewBox="0 0 20 25.94" data-name="Layer 2" id="Layer_2"><defs><style>
      .cls-1 {
        fill: #231f20;
        stroke-width: 0px;
      }
    </style></defs><g data-name="Main menu" id="Main_menu"><path data-cppathid="10000" d="m19.48,9.54c-.22-.16-.49-.24-.76-.24-.13,0-.25.02-.38.05-.47.14-.98.27-1.52.38.02-1.54.04-3.3.01-3.66C16.63,2.94,13.94.29,10.7.03c-.2-.02-.41-.03-.6-.03-1.77-.02-3.33.53-4.63,1.64-1.3,1.1-2.15,2.72-2.28,4.33-.03.33-.03,2.18-.02,3.75-.53-.11-1.03-.24-1.49-.37-.12-.04-.25-.05-.38-.05-.27,0-.54.08-.76.24-.33.23-.52.6-.52,1v14.17c0,.68.58,1.24,1.29,1.24h17.43c.71,0,1.29-.55,1.29-1.24v-14.17c0-.39-.19-.76-.52-1Zm-13.44.63c.02-2,.13-4.72.59-5.46.72-1.18,1.92-1.87,3.27-1.9.05,0,.1,0,.14,0,1.37.01,2.58.69,3.3,1.86.49.79.6,3.41.6,5.5-1.25.13-2.58.2-3.94.2s-2.71-.07-3.96-.2Z" class="cls-1"/></g></svg>