<?xml version="1.0" encoding="UTF-8"?>
<svg xmlns="http://www.w3.org/2000/svg" onmouseup="{ if(window.parent.document.onmouseup) window.parent.document.onmouseup(arguments[0]);}" version="1.0" preserveAspectRatio="xMidYMid meet" height="131" viewBox="0 0 105.75 98.249997" zoomAndPan="magnify" width="141" xmlns:xlink="http://www.w3.org/1999/xlink"><defs><clipPath id="86abb897bb"><path data-cppathid="10000" clip-rule="nonzero" d="M 0.277344 0.574219 L 105.226562 0.574219 L 105.226562 30 L 0.277344 30 Z M 0.277344 0.574219 "/></clipPath><clipPath id="40c1805899"><path data-cppathid="10001" clip-rule="nonzero" d="M 0.277344 68 L 105.226562 68 L 105.226562 96.816406 L 0.277344 96.816406 Z M 0.277344 68 "/></clipPath><clipPath id="cbe0bcf28d"><path data-cppathid="10002" clip-rule="nonzero" d="M 0.277344 32 L 105.226562 32 L 105.226562 62 L 0.277344 62 Z M 0.277344 32 "/></clipPath></defs><path data-cppathid="10003" fill-rule="nonzero" fill-opacity="1" d="M 9.65625 8.476562 L 9.65625 23.625 L 19.679688 23.625 L 19.0625 8.476562 Z M 9.65625 8.476562 " fill="#efd8cc"/><path data-cppathid="10004" fill-rule="nonzero" fill-opacity="1" d="M 9.65625 6.363281 L 19.167969 6.363281 L 19.136719 10.289062 L 9.65625 10.289062 Z M 9.65625 6.363281 " fill="#21201f"/><path data-cppathid="10005" fill-rule="nonzero" fill-opacity="1" d="M 20.453125 8.476562 L 20.453125 23.625 L 30.476562 23.625 L 29.859375 8.476562 Z M 20.453125 8.476562 " fill="#efd8cc"/><path data-cppathid="10006" fill-rule="nonzero" fill-opacity="1" d="M 20.453125 6.363281 L 29.960938 6.363281 L 29.933594 10.289062 L 20.453125 10.289062 Z M 20.453125 6.363281 " fill="#21201f"/><path data-cppathid="10007" fill-rule="nonzero" fill-opacity="1" d="M 9.914062 12.277344 L 18.753906 12.277344 L 19.371094 23.214844 L 9.914062 23.316406 Z M 9.914062 12.277344 " fill="#d49037"/><path data-cppathid="10008" fill-rule="nonzero" fill-opacity="1" d="M 20.734375 14.964844 L 29.960938 14.964844 L 30.191406 23.363281 L 20.734375 23.445312 Z M 20.734375 14.964844 " fill="#e37232"/><path data-cppathid="10009" fill-rule="nonzero" fill-opacity="1" d="M 30.9375 8.476562 L 30.9375 23.625 L 40.960938 23.625 L 40.34375 8.476562 Z M 30.9375 8.476562 " fill="#efd8cc"/><path data-cppathid="10010" fill-rule="nonzero" fill-opacity="1" d="M 30.9375 6.363281 L 40.449219 6.363281 L 40.417969 10.289062 L 30.9375 10.289062 Z M 30.9375 6.363281 " fill="#21201f"/><path data-cppathid="10011" fill-rule="nonzero" fill-opacity="1" d="M 41.734375 8.476562 L 41.734375 23.625 L 51.757812 23.625 L 51.140625 8.476562 Z M 41.734375 8.476562 " fill="#efd8cc"/><path data-cppathid="10012" fill-rule="nonzero" fill-opacity="1" d="M 41.734375 6.363281 L 51.242188 6.363281 L 51.214844 10.289062 L 41.734375 10.289062 Z M 41.734375 6.363281 " fill="#21201f"/><path data-cppathid="10013" fill-rule="nonzero" fill-opacity="1" d="M 31.195312 14.375 L 40.035156 14.375 L 40.652344 23.230469 L 31.195312 23.316406 Z M 31.195312 14.375 " fill="#d49037"/><path data-cppathid="10014" fill-rule="nonzero" fill-opacity="1" d="M 42.015625 12.9375 L 51.242188 12.9375 L 51.472656 23.347656 L 42.015625 23.445312 Z M 42.015625 12.9375 " fill="#e37232"/><path data-cppathid="10015" fill-rule="nonzero" fill-opacity="1" d="M 52.875 8.476562 L 52.875 23.625 L 62.898438 23.625 L 62.28125 8.476562 Z M 52.875 8.476562 " fill="#efd8cc"/><path data-cppathid="10016" fill-rule="nonzero" fill-opacity="1" d="M 52.875 6.363281 L 62.386719 6.363281 L 62.355469 10.289062 L 52.875 10.289062 Z M 52.875 6.363281 " fill="#21201f"/><path data-cppathid="10017" fill-rule="nonzero" fill-opacity="1" d="M 63.671875 8.476562 L 63.671875 23.625 L 73.695312 23.625 L 73.078125 8.476562 Z M 63.671875 8.476562 " fill="#efd8cc"/><path data-cppathid="10018" fill-rule="nonzero" fill-opacity="1" d="M 63.671875 6.363281 L 73.179688 6.363281 L 73.152344 10.289062 L 63.671875 10.289062 Z M 63.671875 6.363281 " fill="#21201f"/><path data-cppathid="10019" fill-rule="nonzero" fill-opacity="1" d="M 53.132812 12.277344 L 61.972656 12.277344 L 62.589844 23.214844 L 53.132812 23.316406 Z M 53.132812 12.277344 " fill="#d49037"/><path data-cppathid="10020" fill-rule="nonzero" fill-opacity="1" d="M 63.953125 14.964844 L 73.179688 14.964844 L 73.410156 23.363281 L 63.953125 23.445312 Z M 63.953125 14.964844 " fill="#e37232"/><path data-cppathid="10021" fill-rule="nonzero" fill-opacity="1" d="M 74.15625 8.476562 L 74.15625 23.625 L 84.179688 23.625 L 83.5625 8.476562 Z M 74.15625 8.476562 " fill="#efd8cc"/><path data-cppathid="10022" fill-rule="nonzero" fill-opacity="1" d="M 74.15625 6.363281 L 83.667969 6.363281 L 83.636719 10.289062 L 74.15625 10.289062 Z M 74.15625 6.363281 " fill="#21201f"/><path data-cppathid="10023" fill-rule="nonzero" fill-opacity="1" d="M 84.953125 8.476562 L 84.953125 23.625 L 94.976562 23.625 L 94.359375 8.476562 Z M 84.953125 8.476562 " fill="#efd8cc"/><path data-cppathid="10024" fill-rule="nonzero" fill-opacity="1" d="M 84.953125 6.363281 L 94.460938 6.363281 L 94.433594 10.289062 L 84.953125 10.289062 Z M 84.953125 6.363281 " fill="#21201f"/><path data-cppathid="10025" fill-rule="nonzero" fill-opacity="1" d="M 74.414062 14.375 L 83.253906 14.375 L 83.871094 23.230469 L 74.414062 23.316406 Z M 74.414062 14.375 " fill="#d49037"/><path data-cppathid="10026" fill-rule="nonzero" fill-opacity="1" d="M 85.234375 12.9375 L 94.460938 12.9375 L 94.691406 23.347656 L 85.234375 23.445312 Z M 85.234375 12.9375 " fill="#e37232"/><g clip-path="url(#86abb897bb)"><path data-cppathid="10027" fill-rule="nonzero" fill-opacity="1" d="M 0.277344 3.382812 L 6.160156 3.382812 L 6.160156 23.359375 L 98.996094 23.359375 L 98.996094 0.613281 L 104.085938 0.613281 L 105.472656 29.375 L 0.726562 29.375 Z M 0.277344 3.382812 " fill="#7c492b"/></g><path data-cppathid="10028" fill-rule="nonzero" fill-opacity="1" d="M 4.3125 12.292969 L 50.714844 10.910156 L 100.230469 11.601562 L 100.230469 13.984375 L 50.714844 13.214844 L 4.3125 14.992188 Z M 4.3125 12.292969 " fill="#7c492b"/><path data-cppathid="10029" fill-rule="nonzero" fill-opacity="1" d="M 9.65625 75.886719 L 9.65625 91.035156 L 19.679688 91.035156 L 19.0625 75.886719 Z M 9.65625 75.886719 " fill="#efd8cc"/><path data-cppathid="10030" fill-rule="nonzero" fill-opacity="1" d="M 9.65625 73.773438 L 19.167969 73.773438 L 19.136719 77.699219 L 9.65625 77.699219 Z M 9.65625 73.773438 " fill="#21201f"/><path data-cppathid="10031" fill-rule="nonzero" fill-opacity="1" d="M 20.453125 75.886719 L 20.453125 91.035156 L 30.476562 91.035156 L 29.859375 75.886719 Z M 20.453125 75.886719 " fill="#efd8cc"/><path data-cppathid="10032" fill-rule="nonzero" fill-opacity="1" d="M 20.453125 73.773438 L 29.960938 73.773438 L 29.933594 77.699219 L 20.453125 77.699219 Z M 20.453125 73.773438 " fill="#21201f"/><path data-cppathid="10033" fill-rule="nonzero" fill-opacity="1" d="M 9.914062 79.6875 L 18.753906 79.6875 L 19.371094 90.625 L 9.914062 90.726562 Z M 9.914062 79.6875 " fill="#d49037"/><path data-cppathid="10034" fill-rule="nonzero" fill-opacity="1" d="M 20.734375 82.378906 L 29.960938 82.378906 L 30.191406 90.777344 L 20.734375 90.855469 Z M 20.734375 82.378906 " fill="#e37232"/><path data-cppathid="10035" fill-rule="nonzero" fill-opacity="1" d="M 30.9375 75.886719 L 30.9375 91.035156 L 40.960938 91.035156 L 40.34375 75.886719 Z M 30.9375 75.886719 " fill="#efd8cc"/><path data-cppathid="10036" fill-rule="nonzero" fill-opacity="1" d="M 30.9375 73.773438 L 40.449219 73.773438 L 40.417969 77.699219 L 30.9375 77.699219 Z M 30.9375 73.773438 " fill="#21201f"/><path data-cppathid="10037" fill-rule="nonzero" fill-opacity="1" d="M 41.734375 75.886719 L 41.734375 91.035156 L 51.757812 91.035156 L 51.140625 75.886719 Z M 41.734375 75.886719 " fill="#efd8cc"/><path data-cppathid="10038" fill-rule="nonzero" fill-opacity="1" d="M 41.734375 73.773438 L 51.242188 73.773438 L 51.214844 77.699219 L 41.734375 77.699219 Z M 41.734375 73.773438 " fill="#21201f"/><path data-cppathid="10039" fill-rule="nonzero" fill-opacity="1" d="M 31.195312 81.789062 L 40.035156 81.789062 L 40.652344 90.644531 L 31.195312 90.726562 Z M 31.195312 81.789062 " fill="#d49037"/><path data-cppathid="10040" fill-rule="nonzero" fill-opacity="1" d="M 42.015625 80.347656 L 51.242188 80.347656 L 51.472656 90.757812 L 42.015625 90.855469 Z M 42.015625 80.347656 " fill="#e37232"/><path data-cppathid="10041" fill-rule="nonzero" fill-opacity="1" d="M 52.875 75.886719 L 52.875 91.035156 L 62.898438 91.035156 L 62.28125 75.886719 Z M 52.875 75.886719 " fill="#efd8cc"/><path data-cppathid="10042" fill-rule="nonzero" fill-opacity="1" d="M 52.875 73.773438 L 62.386719 73.773438 L 62.355469 77.699219 L 52.875 77.699219 Z M 52.875 73.773438 " fill="#21201f"/><path data-cppathid="10043" fill-rule="nonzero" fill-opacity="1" d="M 63.671875 75.886719 L 63.671875 91.035156 L 73.695312 91.035156 L 73.078125 75.886719 Z M 63.671875 75.886719 " fill="#efd8cc"/><path data-cppathid="10044" fill-rule="nonzero" fill-opacity="1" d="M 63.671875 73.773438 L 73.179688 73.773438 L 73.152344 77.699219 L 63.671875 77.699219 Z M 63.671875 73.773438 " fill="#21201f"/><path data-cppathid="10045" fill-rule="nonzero" fill-opacity="1" d="M 53.132812 79.6875 L 61.972656 79.6875 L 62.589844 90.625 L 53.132812 90.726562 Z M 53.132812 79.6875 " fill="#d49037"/><path data-cppathid="10046" fill-rule="nonzero" fill-opacity="1" d="M 63.953125 82.378906 L 73.179688 82.378906 L 73.410156 90.777344 L 63.953125 90.855469 Z M 63.953125 82.378906 " fill="#e37232"/><path data-cppathid="10047" fill-rule="nonzero" fill-opacity="1" d="M 74.15625 75.886719 L 74.15625 91.035156 L 84.179688 91.035156 L 83.5625 75.886719 Z M 74.15625 75.886719 " fill="#efd8cc"/><path data-cppathid="10048" fill-rule="nonzero" fill-opacity="1" d="M 74.15625 73.773438 L 83.667969 73.773438 L 83.636719 77.699219 L 74.15625 77.699219 Z M 74.15625 73.773438 " fill="#21201f"/><path data-cppathid="10049" fill-rule="nonzero" fill-opacity="1" d="M 84.953125 75.886719 L 84.953125 91.035156 L 94.976562 91.035156 L 94.359375 75.886719 Z M 84.953125 75.886719 " fill="#efd8cc"/><path data-cppathid="10050" fill-rule="nonzero" fill-opacity="1" d="M 84.953125 73.773438 L 94.460938 73.773438 L 94.433594 77.699219 L 84.953125 77.699219 Z M 84.953125 73.773438 " fill="#21201f"/><path data-cppathid="10051" fill-rule="nonzero" fill-opacity="1" d="M 74.414062 81.789062 L 83.253906 81.789062 L 83.871094 90.644531 L 74.414062 90.726562 Z M 74.414062 81.789062 " fill="#d49037"/><path data-cppathid="10052" fill-rule="nonzero" fill-opacity="1" d="M 85.234375 80.347656 L 94.460938 80.347656 L 94.691406 90.757812 L 85.234375 90.855469 Z M 85.234375 80.347656 " fill="#e37232"/><g clip-path="url(#40c1805899)"><path data-cppathid="10053" fill-rule="nonzero" fill-opacity="1" d="M 0.277344 70.792969 L 6.160156 70.792969 L 6.160156 90.769531 L 98.996094 90.769531 L 98.996094 68.027344 L 104.085938 68.027344 L 105.472656 96.785156 L 0.726562 96.785156 Z M 0.277344 70.792969 " fill="#7c492b"/></g><path data-cppathid="10054" fill-rule="nonzero" fill-opacity="1" d="M 4.3125 79.707031 L 50.714844 78.320312 L 100.230469 79.011719 L 100.230469 81.394531 L 50.714844 80.628906 L 4.3125 82.40625 Z M 4.3125 79.707031 " fill="#7c492b"/><path data-cppathid="10055" fill-rule="nonzero" fill-opacity="1" d="M 94.976562 40.332031 L 94.976562 55.480469 L 84.953125 55.480469 L 85.570312 40.332031 Z M 94.976562 40.332031 " fill="#efd8cc"/><path data-cppathid="10056" fill-rule="nonzero" fill-opacity="1" d="M 94.976562 38.21875 L 85.464844 38.21875 L 85.496094 42.148438 L 94.976562 42.148438 Z M 94.976562 38.21875 " fill="#21201f"/><path data-cppathid="10057" fill-rule="nonzero" fill-opacity="1" d="M 84.179688 40.332031 L 84.179688 55.480469 L 74.15625 55.480469 L 74.773438 40.332031 Z M 84.179688 40.332031 " fill="#efd8cc"/><path data-cppathid="10058" fill-rule="nonzero" fill-opacity="1" d="M 84.179688 38.21875 L 74.671875 38.21875 L 74.699219 42.148438 L 84.179688 42.148438 Z M 84.179688 38.21875 " fill="#21201f"/><path data-cppathid="10059" fill-rule="nonzero" fill-opacity="1" d="M 94.71875 44.132812 L 85.878906 44.132812 L 85.261719 55.070312 L 94.71875 55.171875 Z M 94.71875 44.132812 " fill="#d49037"/><path data-cppathid="10060" fill-rule="nonzero" fill-opacity="1" d="M 83.898438 46.824219 L 74.671875 46.824219 L 74.441406 55.222656 L 83.898438 55.300781 Z M 83.898438 46.824219 " fill="#e37232"/><path data-cppathid="10061" fill-rule="nonzero" fill-opacity="1" d="M 73.695312 40.332031 L 73.695312 55.480469 L 63.671875 55.480469 L 64.289062 40.332031 Z M 73.695312 40.332031 " fill="#efd8cc"/><path data-cppathid="10062" fill-rule="nonzero" fill-opacity="1" d="M 73.695312 38.21875 L 64.183594 38.21875 L 64.214844 42.148438 L 73.695312 42.148438 Z M 73.695312 38.21875 " fill="#21201f"/><path data-cppathid="10063" fill-rule="nonzero" fill-opacity="1" d="M 62.898438 40.332031 L 62.898438 55.480469 L 52.875 55.480469 L 53.492188 40.332031 Z M 62.898438 40.332031 " fill="#efd8cc"/><path data-cppathid="10064" fill-rule="nonzero" fill-opacity="1" d="M 62.898438 38.21875 L 53.390625 38.21875 L 53.417969 42.148438 L 62.898438 42.148438 Z M 62.898438 38.21875 " fill="#21201f"/><path data-cppathid="10065" fill-rule="nonzero" fill-opacity="1" d="M 73.4375 46.234375 L 64.59375 46.234375 L 63.980469 55.089844 L 73.4375 55.171875 Z M 73.4375 46.234375 " fill="#d49037"/><path data-cppathid="10066" fill-rule="nonzero" fill-opacity="1" d="M 62.617188 44.792969 L 53.390625 44.792969 L 53.15625 55.203125 L 62.617188 55.300781 Z M 62.617188 44.792969 " fill="#e37232"/><path data-cppathid="10067" fill-rule="nonzero" fill-opacity="1" d="M 51.757812 40.332031 L 51.757812 55.480469 L 41.734375 55.480469 L 42.351562 40.332031 Z M 51.757812 40.332031 " fill="#efd8cc"/><path data-cppathid="10068" fill-rule="nonzero" fill-opacity="1" d="M 51.757812 38.21875 L 42.246094 38.21875 L 42.277344 42.148438 L 51.757812 42.148438 Z M 51.757812 38.21875 " fill="#21201f"/><path data-cppathid="10069" fill-rule="nonzero" fill-opacity="1" d="M 40.960938 40.332031 L 40.960938 55.480469 L 30.9375 55.480469 L 31.554688 40.332031 Z M 40.960938 40.332031 " fill="#efd8cc"/><path data-cppathid="10070" fill-rule="nonzero" fill-opacity="1" d="M 40.960938 38.21875 L 31.453125 38.21875 L 31.480469 42.148438 L 40.960938 42.148438 Z M 40.960938 38.21875 " fill="#21201f"/><path data-cppathid="10071" fill-rule="nonzero" fill-opacity="1" d="M 51.5 44.132812 L 42.660156 44.132812 L 42.042969 55.070312 L 51.5 55.171875 Z M 51.5 44.132812 " fill="#d49037"/><path data-cppathid="10072" fill-rule="nonzero" fill-opacity="1" d="M 40.679688 46.824219 L 31.453125 46.824219 L 31.222656 55.222656 L 40.679688 55.300781 Z M 40.679688 46.824219 " fill="#e37232"/><path data-cppathid="10073" fill-rule="nonzero" fill-opacity="1" d="M 30.476562 40.332031 L 30.476562 55.480469 L 20.453125 55.480469 L 21.070312 40.332031 Z M 30.476562 40.332031 " fill="#efd8cc"/><path data-cppathid="10074" fill-rule="nonzero" fill-opacity="1" d="M 30.476562 38.21875 L 20.964844 38.21875 L 20.996094 42.148438 L 30.476562 42.148438 Z M 30.476562 38.21875 " fill="#21201f"/><path data-cppathid="10075" fill-rule="nonzero" fill-opacity="1" d="M 19.679688 40.332031 L 19.679688 55.480469 L 9.65625 55.480469 L 10.273438 40.332031 Z M 19.679688 40.332031 " fill="#efd8cc"/><path data-cppathid="10076" fill-rule="nonzero" fill-opacity="1" d="M 19.679688 38.21875 L 10.171875 38.21875 L 10.199219 42.148438 L 19.679688 42.148438 Z M 19.679688 38.21875 " fill="#21201f"/><path data-cppathid="10077" fill-rule="nonzero" fill-opacity="1" d="M 30.21875 46.234375 L 21.378906 46.234375 L 20.761719 55.089844 L 30.21875 55.171875 Z M 30.21875 46.234375 " fill="#d49037"/><path data-cppathid="10078" fill-rule="nonzero" fill-opacity="1" d="M 19.398438 44.792969 L 10.171875 44.792969 L 9.941406 55.203125 L 19.398438 55.300781 Z M 19.398438 44.792969 " fill="#e37232"/><g clip-path="url(#cbe0bcf28d)"><path data-cppathid="10079" fill-rule="nonzero" fill-opacity="1" d="M 0.277344 35.238281 L 6.160156 35.238281 L 6.160156 55.214844 L 98.996094 55.214844 L 98.996094 32.472656 L 104.085938 32.472656 L 105.472656 61.230469 L 0.726562 61.230469 Z M 0.277344 35.238281 " fill="#7c492b"/></g><path data-cppathid="10080" fill-rule="nonzero" fill-opacity="1" d="M 4.3125 44.152344 L 50.714844 42.769531 L 100.230469 43.460938 L 100.230469 45.839844 L 50.714844 45.074219 L 4.3125 46.851562 Z M 4.3125 44.152344 " fill="#7c492b"/></svg>