<?xml version="1.0" encoding="UTF-8"?>
<svg xmlns="http://www.w3.org/2000/svg" onmouseup="{ if(window.parent.document.onmouseup) window.parent.document.onmouseup(arguments[0]);}" version="1.0" preserveAspectRatio="xMidYMid meet" height="500" viewBox="0 0 375 374.999991" zoomAndPan="magnify" width="500" xmlns:xlink="http://www.w3.org/1999/xlink"><defs><clipPath id="24e42c8c13"><path data-cppathid="10000" clip-rule="nonzero" d="M 17 130 L 158 130 L 158 262 L 17 262 Z M 17 130 "/></clipPath><clipPath id="60cd9b34fb"><path data-cppathid="10001" clip-rule="nonzero" d="M 110.542969 0 L 344.476562 111.8125 L 222.894531 366.199219 L -11.042969 254.386719 Z M 110.542969 0 "/></clipPath><clipPath id="c92c7120f4"><path data-cppathid="10002" clip-rule="nonzero" d="M 110.542969 0 L 344.476562 111.8125 L 222.894531 366.199219 L -11.042969 254.386719 Z M 110.542969 0 "/></clipPath><clipPath id="e4a72ad7b1"><path data-cppathid="10003" clip-rule="nonzero" d="M 110.542969 0 L 344.476562 111.8125 L 222.894531 366.199219 L -11.042969 254.386719 Z M 110.542969 0 "/></clipPath><clipPath id="c1b5ed6058"><path data-cppathid="10004" clip-rule="nonzero" d="M 178 50 L 230 50 L 230 106 L 178 106 Z M 178 50 "/></clipPath><clipPath id="330f7d3aef"><path data-cppathid="10005" clip-rule="nonzero" d="M 110.542969 0 L 344.476562 111.8125 L 222.894531 366.199219 L -11.042969 254.386719 Z M 110.542969 0 "/></clipPath><clipPath id="1e1a30f8ef"><path data-cppathid="10006" clip-rule="nonzero" d="M 110.542969 0 L 344.476562 111.8125 L 222.894531 366.199219 L -11.042969 254.386719 Z M 110.542969 0 "/></clipPath><clipPath id="0b71a3712c"><path data-cppathid="10007" clip-rule="nonzero" d="M 110.542969 0 L 344.476562 111.8125 L 222.894531 366.199219 L -11.042969 254.386719 Z M 110.542969 0 "/></clipPath><clipPath id="358f212920"><path data-cppathid="10008" clip-rule="nonzero" d="M 207 85 L 278 85 L 278 159 L 207 159 Z M 207 85 "/></clipPath><clipPath id="d46accc3cb"><path data-cppathid="10009" clip-rule="nonzero" d="M 110.542969 0 L 344.476562 111.8125 L 222.894531 366.199219 L -11.042969 254.386719 Z M 110.542969 0 "/></clipPath><clipPath id="0cec380e2f"><path data-cppathid="10010" clip-rule="nonzero" d="M 110.542969 0 L 344.476562 111.8125 L 222.894531 366.199219 L -11.042969 254.386719 Z M 110.542969 0 "/></clipPath><clipPath id="52e2cb82d3"><path data-cppathid="10011" clip-rule="nonzero" d="M 110.542969 0 L 344.476562 111.8125 L 222.894531 366.199219 L -11.042969 254.386719 Z M 110.542969 0 "/></clipPath><clipPath id="6b07125d1c"><path data-cppathid="10012" clip-rule="nonzero" d="M 123 34 L 189 34 L 189 118 L 123 118 Z M 123 34 "/></clipPath><clipPath id="da73df4133"><path data-cppathid="10013" clip-rule="nonzero" d="M 110.542969 0 L 344.476562 111.8125 L 222.894531 366.199219 L -11.042969 254.386719 Z M 110.542969 0 "/></clipPath><clipPath id="8e997b8246"><path data-cppathid="10014" clip-rule="nonzero" d="M 110.542969 0 L 344.476562 111.8125 L 222.894531 366.199219 L -11.042969 254.386719 Z M 110.542969 0 "/></clipPath><clipPath id="2f8ebc34e3"><path data-cppathid="10015" clip-rule="nonzero" d="M 110.542969 0 L 344.476562 111.8125 L 222.894531 366.199219 L -11.042969 254.386719 Z M 110.542969 0 "/></clipPath><clipPath id="f85581a664"><path data-cppathid="10016" clip-rule="nonzero" d="M 103 62 L 189 62 L 189 170 L 103 170 Z M 103 62 "/></clipPath><clipPath id="27b4117882"><path data-cppathid="10017" clip-rule="nonzero" d="M 110.542969 0 L 344.476562 111.8125 L 222.894531 366.199219 L -11.042969 254.386719 Z M 110.542969 0 "/></clipPath><clipPath id="1a519437fc"><path data-cppathid="10018" clip-rule="nonzero" d="M 110.542969 0 L 344.476562 111.8125 L 222.894531 366.199219 L -11.042969 254.386719 Z M 110.542969 0 "/></clipPath><clipPath id="e5f72634d7"><path data-cppathid="10019" clip-rule="nonzero" d="M 110.542969 0 L 344.476562 111.8125 L 222.894531 366.199219 L -11.042969 254.386719 Z M 110.542969 0 "/></clipPath><clipPath id="f6a1eb28fc"><path data-cppathid="10020" clip-rule="nonzero" d="M 146 137 L 308 137 L 308 209 L 146 209 Z M 146 137 "/></clipPath><clipPath id="1319b62e45"><path data-cppathid="10021" clip-rule="nonzero" d="M 110.542969 0 L 344.476562 111.8125 L 222.894531 366.199219 L -11.042969 254.386719 Z M 110.542969 0 "/></clipPath><clipPath id="f048fed46b"><path data-cppathid="10022" clip-rule="nonzero" d="M 110.542969 0 L 344.476562 111.8125 L 222.894531 366.199219 L -11.042969 254.386719 Z M 110.542969 0 "/></clipPath><clipPath id="8204bba834"><path data-cppathid="10023" clip-rule="nonzero" d="M 110.542969 0 L 344.476562 111.8125 L 222.894531 366.199219 L -11.042969 254.386719 Z M 110.542969 0 "/></clipPath><clipPath id="e3cd99e33f"><path data-cppathid="10024" clip-rule="nonzero" d="M 119 160 L 273 160 L 273 234 L 119 234 Z M 119 160 "/></clipPath><clipPath id="6ccfd3ab46"><path data-cppathid="10025" clip-rule="nonzero" d="M 110.542969 0 L 344.476562 111.8125 L 222.894531 366.199219 L -11.042969 254.386719 Z M 110.542969 0 "/></clipPath><clipPath id="5a7faa0f62"><path data-cppathid="10026" clip-rule="nonzero" d="M 110.542969 0 L 344.476562 111.8125 L 222.894531 366.199219 L -11.042969 254.386719 Z M 110.542969 0 "/></clipPath><clipPath id="d76e4df08a"><path data-cppathid="10027" clip-rule="nonzero" d="M 110.542969 0 L 344.476562 111.8125 L 222.894531 366.199219 L -11.042969 254.386719 Z M 110.542969 0 "/></clipPath><clipPath id="36ca0dc602"><path data-cppathid="10028" clip-rule="nonzero" d="M 23 95 L 159 95 L 159 260 L 23 260 Z M 23 95 "/></clipPath><clipPath id="710d8bb756"><path data-cppathid="10029" clip-rule="nonzero" d="M 110.542969 0 L 344.476562 111.8125 L 222.894531 366.199219 L -11.042969 254.386719 Z M 110.542969 0 "/></clipPath><clipPath id="ee70bc91ff"><path data-cppathid="10030" clip-rule="nonzero" d="M 110.542969 0 L 344.476562 111.8125 L 222.894531 366.199219 L -11.042969 254.386719 Z M 110.542969 0 "/></clipPath><clipPath id="a1a8e21183"><path data-cppathid="10031" clip-rule="nonzero" d="M 110.542969 0 L 344.476562 111.8125 L 222.894531 366.199219 L -11.042969 254.386719 Z M 110.542969 0 "/></clipPath><clipPath id="7509d199dd"><path data-cppathid="10032" clip-rule="nonzero" d="M 114 77 L 237 77 L 237 201 L 114 201 Z M 114 77 "/></clipPath><clipPath id="a506662381"><path data-cppathid="10033" clip-rule="nonzero" d="M 110.542969 0 L 344.476562 111.8125 L 222.894531 366.199219 L -11.042969 254.386719 Z M 110.542969 0 "/></clipPath><clipPath id="f5728aa51d"><path data-cppathid="10034" clip-rule="nonzero" d="M 110.542969 0 L 344.476562 111.8125 L 222.894531 366.199219 L -11.042969 254.386719 Z M 110.542969 0 "/></clipPath><clipPath id="52505b9d3d"><path data-cppathid="10035" clip-rule="nonzero" d="M 110.542969 0 L 344.476562 111.8125 L 222.894531 366.199219 L -11.042969 254.386719 Z M 110.542969 0 "/></clipPath><clipPath id="6ba023534e"><path data-cppathid="10036" clip-rule="nonzero" d="M 30 124 L 195 124 L 195 279 L 30 279 Z M 30 124 "/></clipPath><clipPath id="524513ad1e"><path data-cppathid="10037" clip-rule="nonzero" d="M 110.542969 0 L 344.476562 111.8125 L 222.894531 366.199219 L -11.042969 254.386719 Z M 110.542969 0 "/></clipPath><clipPath id="2f4df46492"><path data-cppathid="10038" clip-rule="nonzero" d="M 110.542969 0 L 344.476562 111.8125 L 222.894531 366.199219 L -11.042969 254.386719 Z M 110.542969 0 "/></clipPath><clipPath id="151fd37dc3"><path data-cppathid="10039" clip-rule="nonzero" d="M 110.542969 0 L 344.476562 111.8125 L 222.894531 366.199219 L -11.042969 254.386719 Z M 110.542969 0 "/></clipPath><clipPath id="48b965ebd1"><path data-cppathid="10040" clip-rule="nonzero" d="M 31 199 L 205 199 L 205 276 L 31 276 Z M 31 199 "/></clipPath><clipPath id="32619429cf"><path data-cppathid="10041" clip-rule="nonzero" d="M 217.355469 61.917969 L 383.222656 261.207031 L 166.511719 441.574219 L 0.644531 242.285156 Z M 217.355469 61.917969 "/></clipPath><clipPath id="91b1afb2ea"><path data-cppathid="10042" clip-rule="nonzero" d="M 217.355469 61.917969 L 383.222656 261.207031 L 166.511719 441.574219 L 0.644531 242.285156 Z M 217.355469 61.917969 "/></clipPath><clipPath id="8e57dc81cf"><path data-cppathid="10043" clip-rule="nonzero" d="M 217.355469 61.917969 L 383.222656 261.207031 L 166.511719 441.574219 L 0.644531 242.285156 Z M 217.355469 61.917969 "/></clipPath><clipPath id="ccb79d6821"><path data-cppathid="10044" clip-rule="nonzero" d="M 239 147 L 292 147 L 292 204 L 239 204 Z M 239 147 "/></clipPath><clipPath id="a4c9185dd2"><path data-cppathid="10045" clip-rule="nonzero" d="M 217.355469 61.917969 L 383.222656 261.207031 L 166.511719 441.574219 L 0.644531 242.285156 Z M 217.355469 61.917969 "/></clipPath><clipPath id="8dbb8d515c"><path data-cppathid="10046" clip-rule="nonzero" d="M 217.355469 61.917969 L 383.222656 261.207031 L 166.511719 441.574219 L 0.644531 242.285156 Z M 217.355469 61.917969 "/></clipPath><clipPath id="9d42f8fcef"><path data-cppathid="10047" clip-rule="nonzero" d="M 217.355469 61.917969 L 383.222656 261.207031 L 166.511719 441.574219 L 0.644531 242.285156 Z M 217.355469 61.917969 "/></clipPath><clipPath id="277ab0634b"><path data-cppathid="10048" clip-rule="nonzero" d="M 251 189 L 326 189 L 326 260 L 251 260 Z M 251 189 "/></clipPath><clipPath id="c3df604d07"><path data-cppathid="10049" clip-rule="nonzero" d="M 217.355469 61.917969 L 383.222656 261.207031 L 166.511719 441.574219 L 0.644531 242.285156 Z M 217.355469 61.917969 "/></clipPath><clipPath id="116b5dc9d1"><path data-cppathid="10050" clip-rule="nonzero" d="M 217.355469 61.917969 L 383.222656 261.207031 L 166.511719 441.574219 L 0.644531 242.285156 Z M 217.355469 61.917969 "/></clipPath><clipPath id="f52d1869e5"><path data-cppathid="10051" clip-rule="nonzero" d="M 217.355469 61.917969 L 383.222656 261.207031 L 166.511719 441.574219 L 0.644531 242.285156 Z M 217.355469 61.917969 "/></clipPath><clipPath id="0eb8979b33"><path data-cppathid="10052" clip-rule="nonzero" d="M 181 114 L 264 114 L 264 179 L 181 179 Z M 181 114 "/></clipPath><clipPath id="9e4e560d8b"><path data-cppathid="10053" clip-rule="nonzero" d="M 217.355469 61.917969 L 383.222656 261.207031 L 166.511719 441.574219 L 0.644531 242.285156 Z M 217.355469 61.917969 "/></clipPath><clipPath id="dfa8772574"><path data-cppathid="10054" clip-rule="nonzero" d="M 217.355469 61.917969 L 383.222656 261.207031 L 166.511719 441.574219 L 0.644531 242.285156 Z M 217.355469 61.917969 "/></clipPath><clipPath id="a2e42c4a66"><path data-cppathid="10055" clip-rule="nonzero" d="M 217.355469 61.917969 L 383.222656 261.207031 L 166.511719 441.574219 L 0.644531 242.285156 Z M 217.355469 61.917969 "/></clipPath><clipPath id="18a8c9733b"><path data-cppathid="10056" clip-rule="nonzero" d="M 140 139 L 257 139 L 257 216 L 140 216 Z M 140 139 "/></clipPath><clipPath id="756b2d8a12"><path data-cppathid="10057" clip-rule="nonzero" d="M 217.355469 61.917969 L 383.222656 261.207031 L 166.511719 441.574219 L 0.644531 242.285156 Z M 217.355469 61.917969 "/></clipPath><clipPath id="f64bfb2de0"><path data-cppathid="10058" clip-rule="nonzero" d="M 217.355469 61.917969 L 383.222656 261.207031 L 166.511719 441.574219 L 0.644531 242.285156 Z M 217.355469 61.917969 "/></clipPath><clipPath id="78f3779d32"><path data-cppathid="10059" clip-rule="nonzero" d="M 217.355469 61.917969 L 383.222656 261.207031 L 166.511719 441.574219 L 0.644531 242.285156 Z M 217.355469 61.917969 "/></clipPath><clipPath id="dcdc49586e"><path data-cppathid="10060" clip-rule="nonzero" d="M 163 234 L 326 234 L 326 311 L 163 311 Z M 163 234 "/></clipPath><clipPath id="4a8794ffb4"><path data-cppathid="10061" clip-rule="nonzero" d="M 217.355469 61.917969 L 383.222656 261.207031 L 166.511719 441.574219 L 0.644531 242.285156 Z M 217.355469 61.917969 "/></clipPath><clipPath id="588cda37b5"><path data-cppathid="10062" clip-rule="nonzero" d="M 217.355469 61.917969 L 383.222656 261.207031 L 166.511719 441.574219 L 0.644531 242.285156 Z M 217.355469 61.917969 "/></clipPath><clipPath id="a4a2548efe"><path data-cppathid="10063" clip-rule="nonzero" d="M 217.355469 61.917969 L 383.222656 261.207031 L 166.511719 441.574219 L 0.644531 242.285156 Z M 217.355469 61.917969 "/></clipPath><clipPath id="08d96fcf2f"><path data-cppathid="10064" clip-rule="nonzero" d="M 127 245 L 287 245 L 287 299 L 127 299 Z M 127 245 "/></clipPath><clipPath id="35b821ccfb"><path data-cppathid="10065" clip-rule="nonzero" d="M 217.355469 61.917969 L 383.222656 261.207031 L 166.511719 441.574219 L 0.644531 242.285156 Z M 217.355469 61.917969 "/></clipPath><clipPath id="ac71227102"><path data-cppathid="10066" clip-rule="nonzero" d="M 217.355469 61.917969 L 383.222656 261.207031 L 166.511719 441.574219 L 0.644531 242.285156 Z M 217.355469 61.917969 "/></clipPath><clipPath id="615bf4aa8c"><path data-cppathid="10067" clip-rule="nonzero" d="M 217.355469 61.917969 L 383.222656 261.207031 L 166.511719 441.574219 L 0.644531 242.285156 Z M 217.355469 61.917969 "/></clipPath><clipPath id="89bc182e51"><path data-cppathid="10068" clip-rule="nonzero" d="M 34 169 L 221 169 L 221 267 L 34 267 Z M 34 169 "/></clipPath><clipPath id="01b042c440"><path data-cppathid="10069" clip-rule="nonzero" d="M 217.355469 61.917969 L 383.222656 261.207031 L 166.511719 441.574219 L 0.644531 242.285156 Z M 217.355469 61.917969 "/></clipPath><clipPath id="d4352107cc"><path data-cppathid="10070" clip-rule="nonzero" d="M 217.355469 61.917969 L 383.222656 261.207031 L 166.511719 441.574219 L 0.644531 242.285156 Z M 217.355469 61.917969 "/></clipPath><clipPath id="3d556f4cf6"><path data-cppathid="10071" clip-rule="nonzero" d="M 217.355469 61.917969 L 383.222656 261.207031 L 166.511719 441.574219 L 0.644531 242.285156 Z M 217.355469 61.917969 "/></clipPath><clipPath id="38d58dce89"><path data-cppathid="10072" clip-rule="nonzero" d="M 140 168 L 288 168 L 288 256 L 140 256 Z M 140 168 "/></clipPath><clipPath id="e00c74b9b3"><path data-cppathid="10073" clip-rule="nonzero" d="M 217.355469 61.917969 L 383.222656 261.207031 L 166.511719 441.574219 L 0.644531 242.285156 Z M 217.355469 61.917969 "/></clipPath><clipPath id="82dd689039"><path data-cppathid="10074" clip-rule="nonzero" d="M 217.355469 61.917969 L 383.222656 261.207031 L 166.511719 441.574219 L 0.644531 242.285156 Z M 217.355469 61.917969 "/></clipPath><clipPath id="2f4b48ce02"><path data-cppathid="10075" clip-rule="nonzero" d="M 217.355469 61.917969 L 383.222656 261.207031 L 166.511719 441.574219 L 0.644531 242.285156 Z M 217.355469 61.917969 "/></clipPath><clipPath id="7ef02e74ba"><path data-cppathid="10076" clip-rule="nonzero" d="M 36 209 L 241 209 L 241 299 L 36 299 Z M 36 209 "/></clipPath><clipPath id="4afd18aea7"><path data-cppathid="10077" clip-rule="nonzero" d="M 217.355469 61.917969 L 383.222656 261.207031 L 166.511719 441.574219 L 0.644531 242.285156 Z M 217.355469 61.917969 "/></clipPath><clipPath id="b01501f821"><path data-cppathid="10078" clip-rule="nonzero" d="M 217.355469 61.917969 L 383.222656 261.207031 L 166.511719 441.574219 L 0.644531 242.285156 Z M 217.355469 61.917969 "/></clipPath><clipPath id="5b1c4cbfea"><path data-cppathid="10079" clip-rule="nonzero" d="M 217.355469 61.917969 L 383.222656 261.207031 L 166.511719 441.574219 L 0.644531 242.285156 Z M 217.355469 61.917969 "/></clipPath></defs><g clip-path="url(#24e42c8c13)"><g clip-path="url(#60cd9b34fb)"><g clip-path="url(#c92c7120f4)"><g clip-path="url(#e4a72ad7b1)"><path data-cppathid="10080" fill-rule="nonzero" fill-opacity="1" d="M 29.863281 260.214844 C 29.863281 260.214844 -1.777344 235.167969 36.96875 204.679688 C 75.660156 174.316406 96.417969 168.667969 111.871094 156.507812 C 127.386719 144.535156 156.078125 130.613281 156.078125 130.613281 C 156.078125 130.613281 164.523438 156.480469 141.167969 191.582031 C 118.890625 225.058594 65.992188 267.863281 29.863281 260.214844 Z M 29.863281 260.214844 " fill="#c5daac"/></g></g></g></g><g clip-path="url(#c1b5ed6058)"><g clip-path="url(#330f7d3aef)"><g clip-path="url(#1e1a30f8ef)"><g clip-path="url(#0b71a3712c)"><path data-cppathid="10081" fill-rule="nonzero" fill-opacity="1" d="M 178.339844 93.316406 C 178.339844 93.316406 177.785156 66.941406 191.015625 58.152344 C 204.371094 49.421875 209.933594 49.941406 215.167969 52.441406 C 220.402344 54.945312 219.59375 64.632812 228.125 85.199219 C 236.78125 105.828125 209.863281 115.402344 178.339844 93.316406 Z M 178.339844 93.316406 " fill="#618547"/></g></g></g></g><g clip-path="url(#358f212920)"><g clip-path="url(#d46accc3cb)"><g clip-path="url(#0cec380e2f)"><g clip-path="url(#52e2cb82d3)"><path data-cppathid="10082" fill-rule="nonzero" fill-opacity="1" d="M 239.433594 85.871094 C 226.476562 86.089844 213.65625 93.707031 213.65625 93.707031 C 205.371094 99.519531 205.464844 137.425781 217.523438 148.683594 C 229.585938 159.945312 240.191406 162.726562 253.921875 147.757812 C 267.65625 132.792969 283.308594 114.777344 276.140625 101.277344 C 266.863281 83.867188 249.183594 85.644531 239.433594 85.871094 Z M 239.433594 85.871094 " fill="#618547"/></g></g></g></g><g clip-path="url(#6b07125d1c)"><g clip-path="url(#da73df4133)"><g clip-path="url(#8e997b8246)"><g clip-path="url(#2f8ebc34e3)"><path data-cppathid="10083" fill-rule="nonzero" fill-opacity="1" d="M 188.816406 85.804688 C 188.816406 85.804688 189.960938 37.953125 170.890625 34.941406 C 151.945312 31.996094 140.320312 50.558594 135.925781 66.480469 C 131.535156 82.394531 120.382812 99.96875 124.359375 114.695312 C 128.519531 129.351562 188.816406 85.804688 188.816406 85.804688 Z M 188.816406 85.804688 " fill="#698e4e"/></g></g></g></g><g clip-path="url(#f85581a664)"><g clip-path="url(#27b4117882)"><g clip-path="url(#1a519437fc)"><g clip-path="url(#e5f72634d7)"><path data-cppathid="10084" fill-rule="nonzero" fill-opacity="1" d="M 184.320312 99.378906 C 184.320312 99.378906 196.308594 70.449219 179.796875 65.304688 C 163.28125 60.15625 154.816406 63.136719 146.667969 72.824219 C 138.515625 82.519531 117.167969 99.644531 115.28125 114.160156 C 113.390625 128.679688 98.273438 171.835938 105.457031 169.929688 C 145.683594 159.078125 184.320312 99.378906 184.320312 99.378906 Z M 184.320312 99.378906 " fill="#6f9a52"/></g></g></g></g><g clip-path="url(#f6a1eb28fc)"><g clip-path="url(#1319b62e45)"><g clip-path="url(#f048fed46b)"><g clip-path="url(#8204bba834)"><path data-cppathid="10085" fill-rule="nonzero" fill-opacity="1" d="M 217.234375 143.203125 C 217.234375 143.203125 250.011719 133.21875 266.25 140.21875 C 282.488281 147.21875 305.96875 158.285156 307.699219 171.636719 C 309.433594 184.984375 299.167969 193.96875 256.953125 187.84375 C 214.925781 181.644531 177.34375 192.085938 154.753906 205.40625 C 132.230469 218.917969 162.058594 176.683594 184.164062 160.53125 C 206.210938 144.5 210.933594 142.941406 217.234375 143.203125 Z M 217.234375 143.203125 " fill="#6f9a52"/></g></g></g></g><g clip-path="url(#e3cd99e33f)"><g clip-path="url(#6ccfd3ab46)"><g clip-path="url(#5a7faa0f62)"><g clip-path="url(#d76e4df08a)"><path data-cppathid="10086" fill-rule="nonzero" fill-opacity="1" d="M 255.609375 165.363281 C 255.609375 165.363281 237.558594 163.757812 218.007812 174.5625 C 218.007812 174.5625 211.320312 176.710938 206.714844 178.023438 C 207.964844 175.410156 212.839844 165.53125 222.921875 160.121094 C 222.921875 160.121094 208.792969 163.75 199.035156 180 C 182.078125 184.109375 157.070312 180.402344 157.070312 180.402344 C 157.070312 180.402344 99.8125 254.417969 126.480469 228.078125 C 153.148438 201.734375 171.675781 195.933594 202.140625 184.386719 C 240.816406 169.742188 272.105469 185.914062 272.105469 185.914062 C 259.71875 177.246094 243.175781 173.765625 226.710938 174.597656 C 229.515625 172.890625 244.480469 164.316406 255.609375 165.363281 Z M 255.609375 165.363281 " fill="#c4daac"/></g></g></g></g><g clip-path="url(#36ca0dc602)"><g clip-path="url(#710d8bb756)"><g clip-path="url(#ee70bc91ff)"><g clip-path="url(#a1a8e21183)"><path data-cppathid="10087" fill-rule="nonzero" fill-opacity="1" d="M 158.449219 95.867188 C 153.921875 104.695312 145.011719 123.335938 134.683594 138.863281 C 133.378906 128.46875 135.738281 116.160156 135.738281 116.160156 C 131.746094 127.078125 131.3125 143.355469 131.375 143.539062 C 126.5625 150.09375 121.542969 155.785156 116.609375 159.074219 C 99.417969 170.707031 54.199219 198.40625 33.132812 223.910156 C 12.191406 249.476562 31.511719 259.320312 31.511719 259.320312 C 36.023438 259.800781 40.75 255.03125 64.464844 245.757812 C 88.179688 236.484375 120.417969 181.203125 131.417969 165.542969 C 142.417969 149.886719 148.628906 138.503906 148.628906 138.503906 C 141.660156 145.398438 124.15625 159.933594 124.15625 159.933594 C 146.746094 129.96875 158.449219 95.867188 158.449219 95.867188 Z M 158.449219 95.867188 " fill="#d0e6b7"/></g></g></g></g><g clip-path="url(#7509d199dd)"><g clip-path="url(#a506662381)"><g clip-path="url(#f5728aa51d)"><g clip-path="url(#52505b9d3d)"><path data-cppathid="10088" fill-rule="nonzero" fill-opacity="1" d="M 220.171875 82.621094 C 230.785156 88.917969 240.492188 109.585938 235.113281 125.640625 C 229.859375 141.753906 208.679688 157.585938 185.789062 174.738281 C 162.957031 191.765625 155.792969 191.390625 155.792969 191.390625 L 118.984375 200.210938 C 118.984375 200.210938 100.539062 184.371094 134.722656 147.425781 C 146.15625 135.027344 158.917969 120.820312 168.039062 103.65625 C 177.105469 86.617188 196.082031 68.359375 220.171875 82.621094 Z M 220.171875 82.621094 " fill="#79a25c"/></g></g></g></g><g clip-path="url(#6ba023534e)"><g clip-path="url(#524513ad1e)"><g clip-path="url(#2f4df46492)"><g clip-path="url(#151fd37dc3)"><path data-cppathid="10089" fill-rule="nonzero" fill-opacity="1" d="M 192.863281 124.074219 C 192.863281 124.074219 183.996094 138.460938 171.644531 151.1875 C 159.289062 163.910156 159.769531 176.351562 151.707031 184.253906 C 151.707031 184.253906 157.175781 156.484375 166.148438 144.433594 C 166.148438 144.433594 152.34375 158.90625 148.578125 181.839844 C 148.578125 181.839844 143.617188 177.175781 143.996094 171.253906 C 141.445312 173.390625 139.992188 178.351562 142.792969 182.738281 C 142.792969 182.738281 139.042969 186.75 114.027344 202.582031 C 87.917969 219.113281 88.921875 226.613281 64.402344 235.652344 C 39.878906 244.695312 26.574219 246.277344 31.667969 261.234375 C 35.457031 272.203125 63.625 290.097656 87.976562 268.605469 C 112.324219 247.113281 141.011719 213.34375 151.148438 197.574219 C 155.710938 190.597656 158.417969 183.644531 161.195312 176.878906 C 178.339844 159.578125 194.125 145.441406 194.125 145.441406 C 184.742188 148.742188 168.332031 165.785156 164.21875 170.230469 C 166.9375 163.898438 170.035156 157.742188 174.984375 151.867188 C 186.871094 136.933594 192.863281 124.074219 192.863281 124.074219 Z M 192.863281 124.074219 " fill="#d9efc0"/></g></g></g></g><g clip-path="url(#48b965ebd1)"><g clip-path="url(#32619429cf)"><g clip-path="url(#91b1afb2ea)"><g clip-path="url(#8e57dc81cf)"><path data-cppathid="10090" fill-rule="nonzero" fill-opacity="1" d="M 35.378906 264.664062 C 35.378906 264.664062 17.09375 228.691406 65.027344 217.171875 C 112.867188 205.738281 134.085938 209.273438 153.203125 204.679688 C 172.304688 200.28125 204.1875 199.613281 204.1875 199.613281 C 204.1875 199.613281 201.058594 226.644531 165.175781 248.785156 C 130.953125 269.898438 65.011719 286.703125 35.378906 264.664062 Z M 35.378906 264.664062 " fill="#c5daac"/></g></g></g></g><g clip-path="url(#ccb79d6821)"><g clip-path="url(#a4c9185dd2)"><g clip-path="url(#8dbb8d515c)"><g clip-path="url(#9d42f8fcef)"><path data-cppathid="10091" fill-rule="nonzero" fill-opacity="1" d="M 239.988281 175.019531 C 239.988281 175.019531 250.5 150.824219 266.191406 148.359375 C 281.972656 146.007812 286.808594 148.800781 290.519531 153.261719 C 294.234375 157.71875 289.453125 166.183594 288.613281 188.4375 C 287.863281 210.792969 259.410156 208.253906 239.988281 175.019531 Z M 239.988281 175.019531 " fill="#618547"/></g></g></g></g><g clip-path="url(#277ab0634b)"><g clip-path="url(#c3df604d07)"><g clip-path="url(#116b5dc9d1)"><g clip-path="url(#f52d1869e5)"><path data-cppathid="10092" fill-rule="nonzero" fill-opacity="1" d="M 298.609375 193.769531 C 286.742188 188.554688 271.914062 190.121094 271.914062 190.121094 C 261.960938 191.941406 246.214844 226.425781 252.46875 241.691406 C 258.726562 256.960938 267.203125 263.914062 285.929688 256.050781 C 304.65625 248.1875 326.402344 238.355469 325.527344 223.09375 C 324.371094 203.40625 307.5625 197.636719 298.609375 193.769531 Z M 298.609375 193.769531 " fill="#618547"/></g></g></g></g><g clip-path="url(#0eb8979b33)"><g clip-path="url(#9e4e560d8b)"><g clip-path="url(#dfa8772574)"><g clip-path="url(#a2e42c4a66)"><path data-cppathid="10093" fill-rule="nonzero" fill-opacity="1" d="M 252.644531 172.570312 C 252.644531 172.570312 273.667969 129.570312 257.597656 118.871094 C 241.613281 108.28125 223.296875 120.292969 212.65625 132.921875 C 202.019531 145.550781 184.550781 156.859375 182.011719 171.902344 C 179.671875 186.960938 252.644531 172.570312 252.644531 172.570312 Z M 252.644531 172.570312 " fill="#698e4e"/></g></g></g></g><g clip-path="url(#18a8c9733b)"><g clip-path="url(#756b2d8a12)"><g clip-path="url(#f64bfb2de0)"><g clip-path="url(#78f3779d32)"><path data-cppathid="10094" fill-rule="nonzero" fill-opacity="1" d="M 242.890625 183.023438 C 242.890625 183.023438 265.867188 161.746094 253.007812 150.175781 C 240.152344 138.601562 231.21875 137.773438 219.765625 143.175781 C 208.3125 148.578125 181.765625 155.222656 173.984375 167.625 C 166.207031 180.03125 134.445312 212.929688 141.769531 214.195312 C 182.851562 221.136719 242.890625 183.023438 242.890625 183.023438 Z M 242.890625 183.023438 " fill="#6f9a52"/></g></g></g></g><g clip-path="url(#dcdc49586e)"><g clip-path="url(#4a8794ffb4)"><g clip-path="url(#588cda37b5)"><g clip-path="url(#a4a2548efe)"><path data-cppathid="10095" fill-rule="nonzero" fill-opacity="1" d="M 254.496094 236.589844 C 254.496094 236.589844 288.445312 241.207031 300.277344 254.347656 C 312.109375 267.492188 328.820312 287.351562 324.820312 300.203125 C 320.824219 313.058594 307.742188 316.933594 271.945312 293.738281 C 236.34375 270.558594 197.835938 264.347656 171.75 267.019531 C 145.640625 269.890625 190.378906 243.972656 217.210938 238.523438 C 243.9375 233.164062 248.882812 233.722656 254.496094 236.589844 Z M 254.496094 236.589844 " fill="#6f9a52"/></g></g></g></g><g clip-path="url(#08d96fcf2f)"><g clip-path="url(#35b821ccfb)"><g clip-path="url(#ac71227102)"><g clip-path="url(#615bf4aa8c)"><path data-cppathid="10096" fill-rule="nonzero" fill-opacity="1" d="M 280.113281 272.753906 C 280.113281 272.753906 264.378906 263.757812 242.101562 265.410156 C 242.101562 265.410156 235.132812 264.566406 230.398438 263.835938 C 232.621094 261.984375 241.179688 255.042969 252.597656 254.339844 C 252.597656 254.339844 238.246094 251.734375 222.59375 262.425781 C 205.46875 259.078125 184.292969 245.269531 184.292969 245.269531 C 184.292969 245.269531 101.359375 288.605469 136.589844 275.808594 C 171.820312 263.007812 191.078125 265.480469 223.582031 267.707031 C 264.839844 270.554688 286.515625 298.316406 286.515625 298.316406 C 278.882812 285.269531 265.304688 275.195312 249.996094 269.074219 C 253.257812 268.695312 270.4375 267.152344 280.113281 272.753906 Z M 280.113281 272.753906 " fill="#c4daac"/></g></g></g></g><g clip-path="url(#89bc182e51)"><g clip-path="url(#01b042c440)"><g clip-path="url(#d4352107cc)"><g clip-path="url(#3d556f4cf6)"><path data-cppathid="10097" fill-rule="nonzero" fill-opacity="1" d="M 220.847656 169.03125 C 213.050781 175.160156 197.167969 188.378906 181.300781 198.171875 C 184.457031 188.183594 191.742188 177.984375 191.742188 177.984375 C 183.554688 186.238281 176.359375 200.847656 176.34375 201.042969 C 169.230469 204.988281 162.292969 208.0625 156.4375 208.988281 C 135.960938 212.378906 83.304688 218.664062 53.511719 233.042969 C 23.804688 247.527344 37.25 264.539062 37.25 264.539062 C 41.152344 266.859375 47.4375 264.5 72.855469 265.976562 C 98.277344 267.453125 150.65625 230.6875 167.191406 221.054688 C 183.726562 211.421875 194.121094 203.671875 194.121094 203.671875 C 184.910156 207.027344 162.933594 212.921875 162.933594 212.921875 C 195.972656 195.128906 220.847656 169.03125 220.847656 169.03125 Z M 220.847656 169.03125 " fill="#d0e6b7"/></g></g></g></g><g clip-path="url(#38d58dce89)"><g clip-path="url(#e00c74b9b3)"><g clip-path="url(#82dd689039)"><g clip-path="url(#2f4b48ce02)"><path data-cppathid="10098" fill-rule="nonzero" fill-opacity="1" d="M 282.464844 182.773438 C 289.480469 192.925781 289.667969 215.757812 278.078125 228.101562 C 266.574219 240.546875 240.714844 246.085938 212.753906 252.113281 C 184.894531 258.050781 178.542969 254.71875 178.542969 254.71875 L 141.414062 247.359375 C 141.414062 247.359375 131.269531 225.261719 177.761719 205.972656 C 193.328125 199.480469 210.855469 191.898438 226.3125 180.113281 C 241.664062 168.417969 266.53125 159.753906 282.464844 182.773438 Z M 282.464844 182.773438 " fill="#79a25c"/></g></g></g></g><g clip-path="url(#7ef02e74ba)"><g clip-path="url(#4afd18aea7)"><g clip-path="url(#b01501f821)"><g clip-path="url(#5b1c4cbfea)"><path data-cppathid="10099" fill-rule="nonzero" fill-opacity="1" d="M 240.339844 209.035156 C 240.339844 209.035156 226.277344 218.402344 209.738281 224.804688 C 193.199219 231.210938 188.4375 242.714844 177.8125 246.523438 C 177.8125 246.523438 194.378906 223.578125 207.5625 216.375 C 207.5625 216.375 188.976562 223.761719 175.976562 243.027344 C 175.976562 243.027344 173.417969 236.71875 176.234375 231.496094 C 173.027344 232.371094 169.636719 236.273438 170.347656 241.429688 C 170.347656 241.429688 165.265625 243.503906 135.925781 247.445312 C 105.296875 251.558594 103.078125 258.792969 77.019531 256.769531 C 50.960938 254.746094 38.210938 250.628906 36.59375 266.34375 C 35.457031 277.890625 53.578125 305.914062 84.679688 296.554688 C 115.777344 287.195312 155.945312 268.492188 171.742188 258.398438 C 178.800781 253.960938 184.167969 248.773438 189.511719 243.789062 C 212.316406 235.230469 232.5625 228.972656 232.5625 228.972656 C 222.65625 228.054688 200.632812 236.691406 195.035156 239.011719 C 200.152344 234.390625 205.535156 230.089844 212.488281 226.820312 C 229.527344 218.214844 240.339844 209.035156 240.339844 209.035156 Z M 240.339844 209.035156 " fill="#d9efc0"/></g></g></g></g></svg>