<?xml version="1.0" encoding="UTF-8"?>
<svg xmlns="http://www.w3.org/2000/svg" onmouseup="{ if(window.parent.document.onmouseup) window.parent.document.onmouseup(arguments[0]);}" version="1.0" preserveAspectRatio="xMidYMid meet" height="500" viewBox="0 0 375 374.999991" zoomAndPan="magnify" width="500" xmlns:xlink="http://www.w3.org/1999/xlink"><defs><clipPath id="75f1e41240"><path data-cppathid="10000" clip-rule="nonzero" d="M 57.152344 84 L 336.109375 84 L 336.109375 349.535156 L 57.152344 349.535156 Z M 57.152344 84 "/></clipPath><clipPath id="ffb1ecb138"><path data-cppathid="10001" clip-rule="nonzero" d="M 2 25.546875 L 106 25.546875 L 106 178 L 2 178 Z M 2 25.546875 "/></clipPath><clipPath id="6ad721abb0"><path data-cppathid="10002" clip-rule="nonzero" d="M 9.257812 88.199219 L 374.835938 88.199219 L 374.835938 282 L 9.257812 282 Z M 9.257812 88.199219 "/></clipPath></defs><g clip-path="url(#75f1e41240)"><path data-cppathid="10003" fill-rule="nonzero" fill-opacity="1" d="M 173.175781 349.535156 C 139.378906 349.539062 114.46875 340.332031 97.746094 330.8125 C 70.613281 315.371094 58.644531 296.011719 58.148438 295.195312 C 56.292969 292.144531 57.261719 288.164062 60.3125 286.308594 C 63.363281 284.453125 67.34375 285.421875 69.199219 288.476562 C 69.296875 288.636719 80.28125 306.179688 104.773438 319.925781 C 137.652344 338.378906 178.054688 341.65625 224.851562 329.65625 C 271.246094 317.757812 301.757812 293.460938 315.542969 257.433594 C 325.90625 230.347656 322.523438 206.28125 322.488281 206.042969 C 322.460938 205.851562 322.4375 205.644531 322.429688 205.449219 C 322.414062 205.199219 320.703125 178.929688 305.640625 152.609375 C 285.761719 117.863281 252.921875 99.257812 208.039062 97.300781 C 173.007812 95.769531 145.722656 104.023438 126.953125 121.8125 C 100.617188 146.773438 99.945312 182.679688 99.945312 183.039062 C 99.90625 186.589844 97.019531 189.445312 93.480469 189.445312 C 93.460938 189.445312 93.441406 189.445312 93.421875 189.445312 C 89.859375 189.414062 86.988281 186.511719 87.011719 182.945312 C 87.023438 181.261719 87.621094 141.386719 117.929688 112.542969 C 139.34375 92.164062 169.851562 82.691406 208.605469 84.378906 C 270.652344 87.082031 301.867188 119.730469 317.128906 146.640625 C 332.824219 174.328125 335.097656 201.148438 335.320312 204.425781 C 335.757812 207.617188 338.683594 232.683594 327.839844 261.46875 C 317.355469 289.3125 291.53125 325.910156 228.0625 342.183594 C 207.671875 347.414062 189.398438 349.535156 173.175781 349.535156 " fill="#ffc419"/></g><path data-cppathid="10004" fill-rule="nonzero" fill-opacity="1" d="M 329.527344 182.984375 C 329.527344 249.1875 267.746094 302.851562 191.53125 302.851562 C 115.320312 302.851562 53.539062 249.1875 53.539062 182.984375 C 53.539062 116.785156 115.320312 63.117188 191.53125 63.117188 C 267.746094 63.117188 329.527344 116.785156 329.527344 182.984375 " fill="#ff9d00"/><g clip-path="url(#ffb1ecb138)"><path data-cppathid="10005" fill-rule="nonzero" fill-opacity="1" d="M 70.78125 177.207031 C 70.378906 177.207031 69.972656 177.167969 69.5625 177.09375 C 68.8125 176.949219 50.949219 173.449219 33.886719 161.765625 C 10.644531 145.851562 0.160156 122.613281 3.570312 94.558594 C 6.980469 66.515625 24.742188 45.652344 54.9375 34.234375 C 77 25.890625 97.820312 25.554688 98.695312 25.542969 C 98.71875 25.542969 98.746094 25.542969 98.769531 25.542969 C 102.308594 25.542969 105.195312 28.390625 105.238281 31.9375 C 105.277344 35.507812 102.417969 38.4375 98.847656 38.480469 C 98.421875 38.488281 79.03125 38.878906 59.199219 46.453125 C 33.625 56.21875 19.226562 72.929688 16.40625 96.121094 C 9.660156 151.648438 69.445312 163.894531 71.992188 164.386719 C 75.496094 165.066406 77.792969 168.457031 77.117188 171.957031 C 76.523438 175.050781 73.820312 177.207031 70.78125 177.207031 " fill="#ffc419"/></g><g clip-path="url(#6ad721abb0)"><path data-cppathid="10006" fill-rule="nonzero" fill-opacity="1" d="M 292.425781 281.957031 C 276.410156 281.957031 264.40625 279.191406 263.761719 279.039062 C 260.285156 278.222656 258.128906 274.742188 258.945312 271.265625 C 259.761719 267.785156 263.242188 265.636719 266.722656 266.449219 C 266.898438 266.488281 285.566406 270.757812 306.371094 268.199219 C 333.011719 264.933594 350.644531 252.421875 358.789062 231.019531 C 366.953125 209.554688 359.316406 185.6875 336.089844 160.078125 C 315.269531 137.121094 287.511719 120.496094 255.820312 111.992188 C 184.644531 92.890625 116.214844 105.65625 115.527344 105.785156 C 115.441406 105.804688 115.351562 105.816406 115.265625 105.828125 C 115.050781 105.863281 93.421875 109.222656 71.234375 120.585938 C 42.433594 135.335938 26.226562 156.027344 23.058594 182.078125 C 15.578125 243.621094 76.367188 255.867188 78.960938 256.359375 C 82.464844 257.023438 84.777344 260.402344 84.117188 263.90625 C 83.460938 267.410156 80.089844 269.730469 76.589844 269.074219 C 75.820312 268.933594 57.597656 265.441406 40.292969 252.945312 C 23.988281 241.171875 5.539062 219.046875 10.222656 180.515625 C 13.898438 150.261719 33.070312 125.5 65.664062 108.90625 C 88.988281 97.035156 111.050781 93.394531 113.210938 93.0625 C 117.585938 92.230469 185.878906 79.832031 259.167969 99.496094 C 293.265625 108.644531 323.175781 126.585938 345.664062 151.386719 C 372.054688 180.480469 380.773438 209.609375 370.875 235.621094 C 360.996094 261.597656 339.105469 277.320312 307.574219 281.085938 C 302.300781 281.714844 297.183594 281.957031 292.425781 281.957031 " fill="#ffc419"/></g><path data-cppathid="10007" fill-rule="nonzero" fill-opacity="1" d="M 145.167969 261.542969 C 131.398438 261.546875 110.792969 259.027344 93.792969 246.429688 C 78.285156 234.945312 69.003906 217.53125 66.203125 194.671875 C 61.515625 156.429688 80.417969 133.945312 97.097656 121.820312 C 114.769531 108.980469 133.339844 105.035156 134.121094 104.875 C 137.625 104.152344 141.039062 106.402344 141.761719 109.902344 C 142.484375 113.398438 140.234375 116.820312 136.738281 117.542969 C 133.941406 118.132812 71.554688 132.023438 79.039062 193.097656 C 81.386719 212.261719 88.917969 226.695312 101.421875 235.988281 C 124.625 253.234375 157.871094 247.75 158.207031 247.691406 C 161.722656 247.09375 165.066406 249.441406 165.675781 252.957031 C 166.289062 256.472656 163.945312 259.816406 160.429688 260.433594 C 159.820312 260.539062 153.855469 261.542969 145.167969 261.542969 " fill="#ffc419"/><path data-cppathid="10008" fill-rule="nonzero" fill-opacity="1" d="M 139.777344 239.730469 C 135.992188 239.730469 129.953125 239.402344 123.382812 237.769531 C 108.476562 234.0625 97.894531 225.488281 92.785156 212.964844 C 86.542969 197.667969 87.316406 182.773438 95.085938 168.699219 C 111.953125 138.140625 159.023438 119.5625 184.726562 115.035156 C 188.234375 114.417969 191.597656 116.765625 192.214844 120.285156 C 192.835938 123.800781 190.488281 127.15625 186.96875 127.777344 C 161.890625 132.191406 120.316406 149.75 106.40625 174.953125 C 100.539062 185.582031 100 196.417969 104.753906 208.078125 C 108.253906 216.652344 115.460938 222.390625 126.167969 225.128906 C 134.832031 227.351562 142.570312 226.707031 142.648438 226.703125 C 146.1875 226.382812 149.339844 229.011719 149.660156 232.566406 C 149.980469 236.117188 147.371094 239.257812 143.824219 239.585938 C 143.671875 239.597656 142.175781 239.730469 139.777344 239.730469 " fill="#ffc419"/><path data-cppathid="10009" fill-rule="nonzero" fill-opacity="1" d="M 220.0625 70.515625 C 208.566406 70.515625 194.898438 72.476562 178.414062 75.59375 C 143.515625 82.199219 124.113281 112.5625 117.597656 138.773438 C 111.085938 164.949219 115.90625 189.890625 129.59375 200.835938 C 141.710938 210.53125 148.925781 220.410156 155.292969 229.125 C 168.023438 246.550781 176.429688 258.0625 215.875 258.335938 C 216 258.335938 216.132812 258.335938 216.257812 258.335938 C 236.628906 258.335938 253 247.195312 262.398438 226.933594 C 269.851562 210.863281 271.984375 190.609375 268.410156 169.902344 C 264.464844 147.039062 253.921875 125.089844 237.921875 106.433594 C 235.59375 103.722656 235.90625 99.640625 238.617188 97.3125 C 241.328125 94.984375 245.410156 95.296875 247.734375 98.011719 C 264.1875 117.191406 275.378906 139.613281 280.28125 163.113281 C 277.253906 119.515625 268.46875 92.933594 253.1875 80.421875 C 244.554688 73.351562 233.878906 70.515625 220.0625 70.515625 Z M 194.335938 292.574219 C 159.109375 292.574219 127.734375 282.332031 125.609375 281.625 C 122.222656 280.492188 120.390625 276.832031 121.519531 273.441406 C 122.648438 270.054688 126.304688 268.226562 129.695312 269.347656 C 130.492188 269.613281 209.859375 295.46875 253.164062 263.828125 C 267.742188 253.179688 276.734375 236.90625 280.023438 215.304688 C 278.578125 221.308594 276.605469 227.03125 274.128906 232.375 C 262.585938 257.269531 241.277344 271.449219 215.785156 271.269531 C 169.832031 270.953125 158.253906 255.105469 144.851562 236.757812 C 138.675781 228.300781 132.289062 219.554688 121.515625 210.9375 C 103.683594 196.675781 97.21875 167.121094 105.046875 135.652344 C 112.535156 105.546875 135.109375 70.625 176.011719 62.882812 C 209.871094 56.480469 239.660156 52.625 261.382812 70.410156 C 283.410156 88.453125 293.585938 126.34375 294.371094 193.273438 C 294.804688 230.4375 283.5 257.695312 260.765625 274.292969 C 241.609375 288.273438 217.164062 292.574219 194.335938 292.574219 " fill="#ffc419"/><path data-cppathid="10010" fill-rule="nonzero" fill-opacity="1" d="M 146.023438 161.761719 C 151.785156 190.585938 165.394531 222.953125 197.359375 226.71875 C 205.617188 227.6875 216.511719 227.378906 221.496094 220.371094 C 226.128906 213.855469 225.226562 202.019531 219.148438 189.484375 C 207.011719 164.464844 185.046875 152.453125 168.664062 151.644531 C 158.59375 151.152344 151.691406 153.667969 147.539062 159.339844 C 146.980469 160.097656 146.476562 160.90625 146.023438 161.761719 Z M 203.871094 240.0625 C 201.386719 240.0625 198.71875 239.90625 195.84375 239.566406 C 173.476562 236.933594 156.046875 223.144531 144.53125 199.269531 C 146.113281 207.21875 148.257812 214.234375 149.804688 218.40625 C 151.050781 221.753906 149.351562 225.476562 146.003906 226.722656 C 142.664062 227.96875 138.9375 226.273438 137.691406 222.929688 C 137.046875 221.199219 123.695312 184.816406 132.550781 160.375 C 128.238281 136.425781 128.929688 116.1875 128.96875 115.195312 C 129.101562 111.625 132.136719 108.8125 135.671875 108.976562 C 139.242188 109.109375 142.023438 112.113281 141.890625 115.679688 C 141.875 116.074219 141.496094 128.679688 143.441406 145.277344 C 149.992188 140.402344 158.660156 138.203125 169.296875 138.726562 C 197.324219 140.105469 220.375 162.378906 230.78125 183.835938 C 239.050781 200.882812 239.515625 217.34375 232.035156 227.867188 C 227.902344 233.679688 219.746094 240.0625 203.871094 240.0625 " fill="#ffc419"/><path data-cppathid="10011" fill-rule="nonzero" fill-opacity="1" d="M 189.421875 229.316406 C 189.566406 229.480469 197.808594 238.6875 209.574219 239.230469 C 217.5 239.582031 225.53125 235.972656 233.46875 228.449219 C 244.066406 218.40625 245.140625 193.015625 236.136719 165.265625 C 227.460938 138.53125 214.042969 120.453125 200.714844 110.515625 C 209.671875 124.449219 219.902344 144.15625 222.25 164.257812 C 225.492188 191.988281 207.09375 221.421875 188.878906 228.761719 C 189.070312 228.933594 189.25 229.117188 189.421875 229.316406 Z M 91.574219 111.640625 C 66.332031 125.214844 56.59375 145.324219 56.039062 183.65625 C 55.699219 207.464844 67.695312 245.46875 94.84375 272.652344 C 117.648438 295.488281 146.785156 306.851562 181.3125 306.371094 C 259.292969 305.328125 274.710938 272.738281 292.558594 235.003906 C 295.839844 228.070312 299.230469 220.90625 303.070312 213.8125 C 326.515625 170.488281 318.609375 141.027344 302.613281 92.6875 C 296.183594 73.246094 279.558594 63.226562 250.292969 61.15625 C 221.554688 59.125 183.820312 65.390625 153.488281 70.429688 C 128.769531 74.53125 112.457031 82.511719 106.320312 93.507812 C 104.261719 97.195312 103.628906 100.746094 103.59375 103.652344 C 109.753906 101.046875 118.960938 97.890625 129.578125 96.65625 C 155.449219 93.644531 177.097656 103.359375 192.175781 124.757812 C 211.800781 152.597656 195.542969 174.8125 183.675781 191.035156 C 174.882812 203.050781 171.105469 209.246094 174.464844 214.136719 C 176.847656 217.609375 179.617188 218.4375 183.714844 216.894531 C 201.027344 210.394531 211.234375 181.394531 209.40625 165.757812 C 205.597656 133.179688 176.808594 99.691406 176.519531 99.359375 C 174.757812 97.328125 174.433594 94.421875 175.703125 92.054688 C 176.976562 89.6875 179.570312 88.355469 182.242188 88.699219 C 196.597656 90.589844 210.707031 99.359375 223.042969 114.058594 C 233.636719 126.683594 242.652344 143.449219 248.4375 161.269531 C 256.933594 187.453125 259.796875 221.320312 242.363281 237.839844 C 231.714844 247.929688 220.394531 252.742188 208.792969 252.144531 C 191.40625 251.25 180.105469 238.320312 179.632812 237.769531 C 177.851562 235.699219 177.613281 232.828125 178.808594 230.546875 C 172.882812 230.171875 167.65625 227.070312 163.804688 221.460938 C 154.886719 208.472656 164.21875 195.722656 173.238281 183.394531 C 184.878906 167.484375 195.875 152.457031 181.605469 132.210938 C 152.144531 90.40625 104.050781 117.570312 102.019531 118.746094 C 100.421875 119.671875 98.503906 119.871094 96.75 119.292969 C 94.996094 118.714844 93.570312 117.417969 92.835938 115.722656 C 92.757812 115.546875 92.132812 114.054688 91.574219 111.640625 Z M 179.378906 319.316406 C 142.589844 319.316406 110.234375 306.371094 85.695312 281.796875 C 55.894531 251.957031 42.730469 209.910156 43.113281 183.46875 C 43.761719 138.175781 57.550781 113.296875 90.710938 97.59375 C 90.90625 97.5 91.105469 97.417969 91.304688 97.347656 C 91.902344 94.238281 93.003906 90.914062 94.847656 87.527344 C 102.984375 72.589844 122 62.542969 151.371094 57.667969 C 219.476562 46.359375 296.671875 33.539062 314.894531 88.625 C 331.566406 139.019531 339.855469 173.007812 314.441406 219.96875 C 310.769531 226.753906 307.457031 233.761719 304.25 240.535156 C 295.167969 259.738281 285.777344 279.589844 267.945312 294.324219 C 247.941406 310.84375 220.472656 318.785156 181.484375 319.304688 C 180.78125 319.3125 180.078125 319.316406 179.378906 319.316406 " fill="#ffc419"/></svg>