<?xml version="1.0" encoding="UTF-8"?>
<svg xmlns="http://www.w3.org/2000/svg" onmouseup="{ if(window.parent.document.onmouseup) window.parent.document.onmouseup(arguments[0]);}" viewBox="0 0 28.72 26.56" data-name="Layer 2" id="Layer_2"><defs><style>
      .cls-1 {
        fill: #81c157;
      }

      .cls-1, .cls-2, .cls-3, .cls-4, .cls-5 {
        stroke-width: 0px;
      }

      .cls-2 {
        opacity: .15;
      }

      .cls-2, .cls-4 {
        fill: #fff;
      }

      .cls-3 {
        fill: #e5e5e5;
      }

      .cls-5 {
        fill: #ff666f;
      }
    </style></defs><g data-name="‘ëîé_1" id="_ëîé_1"><g><path data-cppathid="10000" d="m27.34,15.29c.09-4.6-1.78-12.92-1.78-12.92H2.14s.62,7.95-.16,11.87c-.78,3.92-3.08,12.18-.98,12.18h26.5c2.53,0-.22-7.62-.16-11.14Z" class="cls-2"/><path data-cppathid="10001" d="m27.5,26.56H1c-.26,0-.47-.1-.63-.3-.94-1.18.1-5.85.94-9.61.2-.9.39-1.74.53-2.44.77-3.86.17-11.75.16-11.83v-.15s23.67,0,23.67,0l.02.11c.02.08,1.87,8.39,1.79,12.95-.02,1.21.3,2.95.61,4.63.51,2.75.99,5.35.21,6.28-.2.24-.47.36-.8.36ZM2.3,2.51c.08,1.13.54,8.16-.17,11.76-.14.7-.33,1.55-.53,2.45-.78,3.5-1.86,8.29-1,9.37.11.13.24.2.41.2h26.5c.25,0,.44-.08.59-.26.69-.83.2-3.48-.27-6.05-.31-1.7-.64-3.45-.61-4.69.08-4.24-1.53-11.77-1.75-12.77H2.3Z" class="cls-4"/><rect data-cppathid="10002" height="2.84" width="24.3" x="1.74" class="cls-3"/><path data-cppathid="10003" d="m2.35,0c1.83,1.49,6.3,2.55,11.53,2.55s9.7-1.05,11.53-2.55H2.35Z" class="cls-4"/><circle data-cppathid="10004" r=".68" cy="1.27" cx="13.88" class="cls-1"/><g><path data-cppathid="10005" d="m12.36,1.27c0,.3-.24.54-.54.54s-.54-.24-.54-.54.24-.54.54-.54.54.24.54.54Z" class="cls-5"/><path data-cppathid="10006" d="m10.52,1.27c0,.21-.17.38-.38.38s-.38-.17-.38-.38.17-.38.38-.38.38.17.38.38Z" class="cls-5"/><path data-cppathid="10007" d="m15.41,1.27c0,.3.24.54.54.54s.54-.24.54-.54-.24-.54-.54-.54-.54.24-.54.54Z" class="cls-5"/><path data-cppathid="10008" d="m17.25,1.27c0,.21.17.38.38.38s.38-.17.38-.38-.17-.38-.38-.38-.38.17-.38.38Z" class="cls-5"/></g></g></g></svg>