<?xml version="1.0" encoding="UTF-8"?>
<svg xmlns="http://www.w3.org/2000/svg" onmouseup="{ if(window.parent.document.onmouseup) window.parent.document.onmouseup(arguments[0]);}" version="1.0" preserveAspectRatio="xMidYMid meet" height="500" viewBox="0 0 375 374.999991" zoomAndPan="magnify" width="500" xmlns:xlink="http://www.w3.org/1999/xlink"><defs><clipPath id="8d39c48c87"><path data-cppathid="10000" clip-rule="nonzero" d="M 0 82.34375 L 375 82.34375 L 375 292.34375 L 0 292.34375 Z M 0 82.34375 "/></clipPath><clipPath id="12b5792539"><path data-cppathid="10001" clip-rule="nonzero" d="M 0 82.34375 L 375 82.34375 L 375 285 L 0 285 Z M 0 82.34375 "/></clipPath><clipPath id="c5e55558c1"><path data-cppathid="10002" clip-rule="nonzero" d="M 76 104.101562 L 299 104.101562 L 299 270.601562 L 76 270.601562 Z M 76 104.101562 "/></clipPath></defs><g clip-path="url(#8d39c48c87)"><path data-cppathid="10003" fill-rule="nonzero" fill-opacity="1" d="M 375 187.339844 C 375 245.328125 291.054688 292.339844 187.5 292.339844 C 83.949219 292.339844 0 245.328125 0 187.339844 C 0 129.355469 83.949219 82.347656 187.5 82.347656 C 291.054688 82.347656 375 129.355469 375 187.339844 Z M 375 187.339844 " fill="#1c1b17"/></g><g clip-path="url(#12b5792539)"><path data-cppathid="10004" fill-rule="nonzero" fill-opacity="1" d="M 375 183.335938 C 375 239.113281 291.054688 284.328125 187.5 284.328125 C 83.949219 284.328125 0 239.113281 0 183.335938 C 0 127.558594 83.949219 82.347656 187.5 82.347656 C 291.054688 82.347656 375 127.558594 375 183.335938 Z M 375 183.335938 " fill="#898989"/></g><path data-cppathid="10005" fill-rule="nonzero" fill-opacity="1" d="M 372.792969 183.21875 C 372.792969 237.078125 289.78125 280.746094 187.378906 280.746094 C 84.976562 280.746094 1.960938 237.078125 1.960938 183.21875 C 1.960938 129.351562 84.976562 85.6875 187.378906 85.6875 C 289.78125 85.6875 372.792969 129.351562 372.792969 183.21875 Z M 372.792969 183.21875 " fill="#f8fbfe"/><path data-cppathid="10006" fill-rule="nonzero" fill-opacity="1" d="M 325.4375 183.21875 C 325.4375 224.042969 263.574219 257.140625 187.257812 257.140625 C 110.941406 257.140625 49.074219 224.042969 49.074219 183.21875 C 49.074219 142.390625 110.941406 109.292969 187.257812 109.292969 C 263.574219 109.292969 325.4375 142.390625 325.4375 183.21875 Z M 325.4375 183.21875 " fill="#fefefe"/><g clip-path="url(#c5e55558c1)"><path data-cppathid="10007" fill-rule="nonzero" fill-opacity="1" d="M 298.800781 192.046875 C 297.320312 209.566406 286.703125 224.011719 280.359375 229 C 278.246094 230.664062 274.886719 232.679688 269.765625 234.335938 C 269.769531 234.375 269.769531 234.410156 269.765625 234.449219 C 269.746094 234.664062 269.210938 239.789062 264.90625 246.300781 C 260.957031 252.277344 252.9375 260.574219 237.15625 266.191406 C 231.402344 268.238281 223.75 270.199219 215.550781 270.199219 C 211.347656 270.199219 207 269.683594 202.691406 268.402344 C 195.101562 266.136719 191.261719 262.589844 191.054688 262.394531 C 183.722656 264.804688 174.082031 266.792969 162.214844 266.792969 C 158.675781 266.792969 154.941406 266.617188 151.007812 266.222656 C 141.394531 265.257812 133.011719 263.011719 126.089844 259.550781 C 120.53125 256.769531 115.894531 253.203125 112.308594 248.949219 C 106.1875 241.679688 105.277344 235.007812 105.238281 234.730469 C 105.226562 234.636719 105.242188 234.546875 105.269531 234.464844 C 100.445312 233.144531 96.019531 231.105469 92.160156 228.398438 C 80.679688 220.351562 75.09375 207.238281 76.433594 191.476562 C 77.035156 184.429688 79.113281 177.832031 82.621094 171.875 C 85.746094 166.5625 89.925781 161.859375 95.046875 157.902344 C 103.875 151.070312 115 147.007812 124.21875 147.21875 C 124.429688 146.097656 125.199219 143.394531 127.992188 139.847656 C 133.957031 132.28125 144.519531 126.761719 152.328125 123.464844 C 158.191406 120.992188 164.164062 119.992188 170.097656 120.488281 C 170.117188 120.40625 170.152344 120.328125 170.207031 120.253906 C 170.390625 120.019531 174.796875 114.433594 183.203125 109.964844 C 188.140625 107.339844 193.429688 105.65625 198.921875 104.96875 C 205.78125 104.105469 212.976562 104.796875 220.3125 107.019531 C 236.894531 112.050781 246.921875 121.945312 252.417969 129.359375 C 258.375 137.398438 260.378906 144.152344 260.460938 144.433594 C 260.476562 144.496094 260.480469 144.554688 260.480469 144.613281 C 263.078125 144.839844 265.613281 145.308594 268.066406 146.03125 C 275.199219 148.128906 281.664062 152.339844 287.28125 158.546875 C 295.992188 168.175781 299.867188 179.445312 298.800781 192.046875 Z M 298.800781 192.046875 " fill="#231f20"/></g><path data-cppathid="10008" fill-rule="nonzero" fill-opacity="1" d="M 226.765625 182.332031 C 225.121094 174.707031 222.046875 168.648438 217.625 164.332031 C 211.410156 158.265625 202.722656 155.890625 191.800781 157.265625 C 180.792969 158.65625 171.957031 162.078125 165.535156 167.4375 C 159.796875 172.234375 157.097656 177.71875 155.84375 181.472656 C 155.828125 181.519531 155.820312 181.566406 155.816406 181.613281 C 154.414062 181.699219 153.054688 181.746094 151.742188 181.746094 C 150.414062 181.746094 149.132812 181.703125 147.898438 181.613281 C 149.640625 172.898438 157.34375 153.542969 191.277344 149.265625 C 203.21875 147.757812 212.875 150 219.980469 155.925781 C 230.921875 165.054688 233.023438 180.640625 233.414062 187.25 C 233.171875 187.316406 232.929688 187.386719 232.691406 187.464844 C 232.632812 187.402344 232.582031 187.34375 232.523438 187.277344 C 231.335938 185.953125 229.703125 184.128906 226.773438 182.40625 C 226.773438 182.382812 226.773438 182.359375 226.765625 182.332031 Z M 133.683594 177.582031 C 133.917969 175.890625 135.390625 170.015625 144.589844 163.082031 C 144.683594 163.011719 144.789062 162.976562 144.898438 162.96875 C 145.191406 162.464844 145.5 161.964844 145.824219 161.457031 C 148.585938 157.175781 152.117188 153.382812 156.359375 150.132812 C 156.34375 150.140625 156.328125 150.144531 156.316406 150.152344 C 148.6875 153.371094 138.410156 158.742188 132.757812 166.039062 C 129.402344 170.371094 129.28125 173.367188 129.28125 173.398438 C 129.277344 173.539062 129.222656 173.664062 129.136719 173.761719 C 129.144531 173.773438 129.152344 173.78125 129.160156 173.792969 C 130.445312 175.257812 131.953125 176.523438 133.683594 177.582031 Z M 258.046875 206.988281 C 256.566406 210.183594 252.035156 217.078125 239.308594 222.03125 C 234.820312 223.773438 229.695312 224.65625 224.035156 224.65625 C 222.878906 224.65625 221.699219 224.617188 220.496094 224.542969 C 214.859375 224.199219 208.734375 223.046875 202.289062 221.113281 C 191.335938 217.832031 183.132812 213.371094 183.050781 213.324219 C 182.941406 213.265625 182.859375 213.171875 182.808594 213.066406 C 180.398438 214.214844 177.941406 215.386719 175.4375 216.570312 C 176.992188 217.71875 184.699219 223.222656 195.390625 227.539062 C 202.386719 230.367188 209.269531 232.140625 215.851562 232.808594 C 224.050781 233.644531 231.808594 232.757812 238.898438 230.175781 C 247.378906 227.085938 252.25 222.996094 254.839844 220.113281 C 257.003906 217.707031 257.980469 215.714844 258.316406 214.921875 C 258.785156 212.386719 258.675781 209.683594 258.046875 206.988281 Z M 191.84375 167.589844 C 179.914062 169.09375 171.277344 173.398438 166.132812 180.378906 C 188.5 176.871094 205.582031 176.332031 216.929688 178.78125 C 212.121094 169.863281 203.6875 166.097656 191.84375 167.589844 Z M 218.304688 179.101562 C 221.226562 179.824219 223.546875 180.714844 225.417969 181.664062 C 223.777344 174.695312 220.886719 169.144531 216.808594 165.164062 C 210.863281 159.359375 202.5 157.089844 191.949219 158.417969 C 181.164062 159.78125 172.527344 163.113281 166.285156 168.332031 C 160.910156 172.820312 158.304688 177.925781 157.054688 181.527344 C 159.425781 181.347656 161.914062 181.050781 164.53125 180.632812 C 166.835938 177.203125 169.972656 174.308594 173.855469 172.03125 C 178.679688 169.203125 184.683594 167.320312 191.695312 166.4375 C 198.574219 165.570312 204.445312 166.453125 209.144531 169.0625 C 212.972656 171.1875 216.03125 174.453125 218.242188 178.773438 C 218.296875 178.878906 218.316406 178.992188 218.304688 179.101562 Z M 220.3125 134.71875 C 228.761719 137.28125 236.089844 141.378906 242.097656 146.890625 C 243.792969 146.347656 245.628906 145.847656 247.582031 145.441406 C 240.847656 136.453125 231.558594 130.113281 219.972656 126.601562 C 208.976562 123.265625 198.5 123.449219 188.824219 127.148438 C 191.996094 129.183594 194.550781 131.324219 196.394531 133.058594 C 204.019531 131.664062 212.066406 132.21875 220.3125 134.71875 Z M 143.597656 165.347656 C 139.398438 168.828125 137.25 171.914062 136.171875 173.980469 C 134.863281 176.488281 134.804688 178.074219 134.804688 178.089844 C 134.804688 178.132812 134.796875 178.175781 134.785156 178.214844 C 136.195312 178.96875 137.734375 179.601562 139.40625 180.117188 C 139.507812 178.117188 140.117188 172.238281 143.597656 165.347656 Z M 220.3125 125.488281 C 232.253906 129.109375 241.8125 135.679688 248.714844 145.011719 C 248.761719 145.070312 248.789062 145.136719 248.808594 145.203125 C 249.140625 145.144531 249.476562 145.085938 249.816406 145.03125 C 250.855469 144.867188 251.886719 144.742188 252.914062 144.648438 C 249.109375 136.9375 239.847656 123.394531 219.972656 117.367188 C 201.625 111.800781 188.035156 117.070312 179.742188 122.625 C 182 123.4375 184.238281 124.46875 186.441406 125.710938 C 186.84375 125.9375 187.230469 126.167969 187.613281 126.398438 C 187.65625 126.367188 187.699219 126.339844 187.75 126.320312 C 197.855469 122.277344 208.808594 122 220.3125 125.488281 Z M 248.066406 190.445312 C 248.84375 190.988281 249.613281 191.589844 250.363281 192.25 C 250.363281 192.25 250.363281 192.25 250.367188 192.25 C 250.394531 192.253906 250.421875 192.253906 250.449219 192.261719 C 250.691406 192.3125 250.867188 192.507812 250.902344 192.742188 C 251.421875 193.21875 251.917969 193.714844 252.394531 194.230469 C 254.664062 180.019531 252.886719 169.160156 247.101562 161.957031 C 242.039062 155.648438 235.246094 154.042969 232.75 153.65625 C 234.859375 156.886719 236.460938 160.292969 237.675781 163.582031 C 237.746094 163.582031 237.816406 163.589844 237.886719 163.617188 C 238.023438 163.664062 241.265625 164.890625 244.15625 168.832031 C 248.933594 175.339844 248.941406 184.097656 248.109375 190.296875 C 248.101562 190.351562 248.085938 190.398438 248.066406 190.445312 Z M 191.132812 148.109375 C 203.40625 146.5625 213.363281 148.890625 220.726562 155.03125 C 231.914062 164.363281 234.136719 180.125 234.5625 186.992188 C 236.539062 186.628906 238.578125 186.675781 240.617188 187.105469 C 240.628906 185.554688 240.566406 179.722656 239.070312 172.652344 C 237.847656 166.878906 235.453125 159.359375 230.78125 152.832031 C 230.75 152.804688 230.722656 152.769531 230.699219 152.734375 C 230.6875 152.71875 230.679688 152.699219 230.671875 152.679688 C 229.242188 150.707031 227.609375 148.824219 225.726562 147.113281 C 217.382812 139.515625 205.867188 136.582031 191.503906 138.394531 C 179.8125 139.871094 169.863281 143.019531 161.921875 147.765625 C 155.589844 151.546875 150.515625 156.347656 146.839844 162.03125 C 141.304688 170.589844 140.640625 178.632812 140.558594 180.449219 C 142.460938 180.949219 144.519531 181.304688 146.730469 181.515625 C 148.476562 172.601562 156.289062 152.503906 191.132812 148.109375 Z M 254.355469 145.703125 C 260.652344 149.546875 265.375 156.210938 268.40625 165.535156 C 269.863281 170.019531 269.957031 176.839844 268.65625 183.777344 C 267.574219 189.566406 265.03125 198.160156 259.070312 206.28125 C 259.398438 207.578125 259.613281 208.878906 259.710938 210.164062 C 267.382812 204.601562 271.726562 197.070312 274.035156 191.652344 C 276.875 184.984375 278.214844 177.726562 277.617188 172.230469 C 276.988281 166.449219 275.148438 158.1875 269.933594 151.660156 C 266.824219 147.761719 263.941406 146.3125 263.910156 146.300781 C 263.867188 146.277344 263.832031 146.253906 263.796875 146.222656 C 260.75 145.679688 257.59375 145.507812 254.355469 145.703125 Z M 247.875 237.46875 C 247.328125 238.035156 246.757812 238.59375 246.160156 239.140625 C 238.160156 246.460938 227.714844 250.15625 215.0625 250.160156 C 214.472656 250.160156 213.875 250.148438 213.273438 250.132812 C 212.980469 250.417969 211 252.328125 207.234375 254.769531 C 214.457031 255.707031 222.371094 254.664062 230.789062 251.667969 C 240.257812 248.300781 247.550781 243.484375 252.492188 237.347656 C 250.597656 237.453125 249.148438 237.472656 248.371094 237.472656 C 248.148438 237.472656 247.980469 237.472656 247.875 237.46875 Z M 212.480469 256.265625 C 210.164062 256.265625 207.90625 256.085938 205.714844 255.722656 C 203.839844 256.859375 201.609375 258.074219 199.019531 259.269531 C 206.101562 262.175781 217.652344 264.144531 233.859375 258.375 C 241.929688 255.503906 248.597656 251.613281 253.679688 246.804688 C 257.050781 243.617188 259.667969 240.101562 261.46875 236.339844 C 260.902344 236.433594 260.328125 236.527344 259.738281 236.613281 C 257.675781 236.917969 255.742188 237.113281 254.050781 237.242188 C 248.96875 243.949219 241.273438 249.171875 231.179688 252.765625 C 224.628906 255.09375 218.367188 256.265625 212.480469 256.265625 Z M 252.351562 229.875 C 254.804688 225.964844 256.339844 222.113281 257.292969 218.976562 C 254.714844 222.488281 249.476562 227.558594 239.296875 231.265625 C 233.800781 233.269531 227.921875 234.277344 221.75 234.277344 C 219.765625 234.277344 217.753906 234.171875 215.714844 233.964844 C 209.019531 233.28125 202.023438 231.476562 194.921875 228.605469 C 182.847656 223.722656 174.515625 217.335938 174.433594 217.273438 C 174.375 217.226562 174.328125 217.171875 174.292969 217.113281 C 171.683594 218.347656 169.027344 219.601562 166.335938 220.867188 C 168.464844 222.410156 177.648438 228.855469 189.679688 234.148438 C 197.710938 237.679688 205.417969 240.015625 212.59375 241.085938 C 221.527344 242.421875 229.648438 241.789062 236.730469 239.207031 C 242.769531 237.007812 247.949219 233.910156 252.125 230.003906 C 252.191406 229.941406 252.269531 229.902344 252.351562 229.875 Z M 270.796875 150.875 C 273.789062 154.601562 277.601562 161.308594 278.777344 172.105469 C 279.394531 177.789062 278.023438 185.265625 275.105469 192.105469 C 272.679688 197.804688 268.046875 205.792969 259.765625 211.550781 C 259.777344 212.558594 259.707031 213.554688 259.5625 214.53125 C 259.605469 214.648438 259.613281 214.777344 259.570312 214.90625 C 259.558594 214.945312 259.515625 215.074219 259.433594 215.273438 C 259.410156 215.394531 259.390625 215.511719 259.367188 215.632812 C 259.320312 215.832031 259.273438 216.042969 259.226562 216.257812 C 267.757812 213.675781 273.902344 207.15625 277.59375 202.058594 C 282.785156 194.886719 285.367188 187.558594 286.050781 183.09375 C 286.929688 177.351562 287.332031 168.820312 284.253906 160.800781 C 282.414062 156.011719 280.167969 153.644531 280.148438 153.621094 C 280.089844 153.5625 280.050781 153.496094 280.023438 153.425781 C 276.21875 150.539062 272.117188 148.4375 267.757812 147.152344 C 267.464844 147.066406 267.167969 146.984375 266.871094 146.90625 C 267.980469 147.796875 269.359375 149.085938 270.796875 150.875 Z M 237.128906 240.300781 C 232.324219 242.050781 227.0625 242.929688 221.414062 242.929688 C 218.511719 242.929688 215.507812 242.699219 212.40625 242.234375 C 205.128906 241.144531 197.316406 238.78125 189.183594 235.203125 C 175.363281 229.117188 165.261719 221.523438 165.160156 221.449219 C 165.152344 221.441406 165.148438 221.433594 165.140625 221.425781 C 162.40625 222.707031 159.640625 224 156.84375 225.296875 C 158.433594 226.820312 163.375 231.300781 170.949219 235.921875 C 179.503906 241.144531 193.261719 247.617188 210.246094 248.820312 C 224.785156 249.851562 236.605469 246.304688 245.371094 238.285156 C 247.0625 236.734375 248.539062 235.109375 249.835938 233.457031 C 246.164062 236.261719 241.910156 238.558594 237.128906 240.300781 Z M 247.007812 189.742188 C 247.757812 183.78125 247.664062 175.578125 243.214844 169.519531 C 241.3125 166.929688 239.25 165.601562 238.195312 165.042969 C 239.085938 167.667969 239.738281 170.1875 240.214844 172.445312 C 241.832031 180.097656 241.796875 186.335938 241.777344 187.390625 C 243.542969 187.890625 245.296875 188.675781 247.007812 189.742188 Z M 147.351562 229.679688 C 145.492188 230.535156 143.617188 231.304688 141.734375 231.996094 C 147.125 234.773438 153.683594 236.558594 161.265625 237.300781 C 164.8125 237.648438 168.316406 237.792969 171.710938 237.730469 C 171.230469 237.449219 170.761719 237.171875 170.308594 236.894531 C 168.152344 235.578125 166.207031 234.273438 164.488281 233.039062 C 164.484375 233.039062 164.476562 233.039062 164.472656 233.039062 C 164.449219 233.039062 164.429688 233.039062 164.40625 233.039062 C 158.542969 232.371094 153.324219 231.003906 148.894531 228.972656 C 148.378906 229.207031 147.863281 229.445312 147.351562 229.679688 Z M 129.84375 235.242188 C 127.078125 235.738281 124.328125 236.054688 121.613281 236.179688 C 130.347656 246.703125 144.59375 250.164062 155.128906 251.195312 C 169.21875 252.578125 182.011719 251.152344 193.179688 246.964844 C 190.21875 246.121094 187.421875 245.15625 184.804688 244.121094 C 179.335938 245.296875 173.542969 245.886719 167.496094 245.886719 C 164.339844 245.886719 161.113281 245.726562 157.832031 245.402344 C 146.164062 244.261719 136.78125 240.875 129.941406 235.34375 C 129.902344 235.3125 129.871094 235.277344 129.84375 235.242188 Z M 118.941406 236.242188 C 118.335938 236.242188 117.730469 236.230469 117.128906 236.210938 C 115.855469 236.171875 114.597656 236.085938 113.355469 235.957031 C 116.976562 243.488281 126.769531 255.613281 152.621094 258.148438 C 177.839844 260.621094 194.222656 253.824219 202.316406 249.039062 C 199.808594 248.617188 197.390625 248.085938 195.066406 247.480469 C 186.140625 251.066406 176.167969 252.867188 165.316406 252.867188 C 161.964844 252.867188 158.53125 252.695312 155.015625 252.351562 C 144.03125 251.277344 129.082031 247.601562 120.152344 236.226562 C 119.75 236.234375 119.34375 236.242188 118.941406 236.242188 Z M 131.332031 234.957031 C 137.933594 240.039062 146.882812 243.160156 157.945312 244.246094 C 166.75 245.109375 175.121094 244.796875 182.859375 243.324219 C 179.441406 241.886719 176.355469 240.347656 173.652344 238.839844 C 173.648438 238.839844 173.648438 238.839844 173.648438 238.839844 C 172.519531 238.886719 171.375 238.910156 170.222656 238.910156 C 167.257812 238.910156 164.21875 238.757812 161.152344 238.457031 C 152.976562 237.65625 145.949219 235.660156 140.257812 232.523438 C 137.289062 233.539062 134.304688 234.355469 131.332031 234.957031 Z M 150.300781 228.324219 C 153.90625 229.859375 158.019531 230.96875 162.570312 231.625 C 158.835938 228.804688 156.46875 226.5625 155.714844 225.824219 C 153.917969 226.65625 152.113281 227.488281 150.300781 228.324219 Z M 155.863281 149.082031 C 156.398438 148.855469 157.589844 148.453125 158.546875 148.132812 C 158.992188 147.984375 159.378906 147.855469 159.621094 147.769531 C 159.667969 147.75 159.714844 147.742188 159.765625 147.738281 C 160.261719 147.417969 160.769531 147.101562 161.285156 146.792969 C 165.453125 144.296875 170.164062 142.238281 175.375 140.617188 C 169.332031 139.53125 160.71875 139.652344 152.78125 143.003906 C 145.152344 146.226562 134.84375 151.585938 129.050781 158.824219 C 125.613281 163.125 125.410156 166.085938 125.40625 166.117188 C 125.398438 166.289062 125.308594 166.441406 125.183594 166.542969 C 125.839844 168.648438 126.8125 170.714844 128.210938 172.609375 C 128.433594 171.386719 129.183594 168.792969 131.742188 165.449219 C 137.527344 157.894531 148.050781 152.378906 155.863281 149.082031 Z M 83.480469 194.472656 C 86.988281 210.59375 93.796875 219.101562 98.890625 223.402344 C 107.308594 230.503906 118.488281 232.832031 132.128906 230.320312 C 139.96875 228.875 153.421875 224.753906 159.441406 222.777344 C 159.480469 222.765625 159.515625 222.757812 159.554688 222.753906 C 165.632812 219.921875 171.566406 217.125 177.25 214.425781 C 169.484375 216.925781 158.054688 220.320312 138.53125 224.160156 C 134.652344 224.925781 130.972656 225.304688 127.496094 225.304688 C 118.183594 225.304688 110.332031 222.574219 104.070312 217.136719 C 98.710938 212.484375 91.675781 203.199219 88.605469 185.367188 C 87.199219 177.199219 87.144531 170.132812 87.195312 167.253906 C 85.882812 168.914062 84.691406 170.652344 83.625 172.460938 C 82.824219 173.820312 82.105469 175.214844 81.457031 176.640625 C 81.46875 176.683594 81.476562 176.726562 81.472656 176.773438 C 81.472656 176.855469 81.375 184.789062 83.480469 194.472656 Z M 146.863281 228.625 C 148.429688 227.90625 149.992188 227.1875 151.546875 226.46875 C 145.203125 228.375 137.550781 230.503906 132.339844 231.460938 C 128.71875 232.128906 125.261719 232.460938 121.980469 232.464844 C 112.574219 232.464844 104.582031 229.730469 98.136719 224.285156 C 88.648438 216.277344 84.308594 203.773438 82.335938 194.691406 C 80.917969 188.152344 80.492188 182.40625 80.363281 179.269531 C 78.886719 183.171875 77.960938 187.285156 77.59375 191.574219 C 76.292969 206.90625 81.703125 219.648438 92.832031 227.449219 C 99.496094 232.121094 107.910156 234.75 117.164062 235.050781 C 126.753906 235.359375 137.023438 233.140625 146.863281 228.625 Z M 211.609375 250.066406 C 211.128906 250.042969 210.648438 250.015625 210.164062 249.980469 C 208.089844 249.835938 206.066406 249.609375 204.09375 249.320312 C 197.417969 253.507812 183.886719 259.835938 163.128906 259.835938 C 159.777344 259.835938 156.238281 259.671875 152.507812 259.304688 C 125.335938 256.640625 115.472656 243.496094 112 235.800781 C 110.09375 235.558594 108.234375 235.207031 106.425781 234.761719 C 106.613281 235.863281 107.863281 241.890625 113.25 248.257812 C 116.734375 252.378906 121.246094 255.835938 126.660156 258.535156 C 133.449219 261.917969 141.679688 264.117188 151.125 265.066406 C 172.570312 267.21875 188.109375 262.8125 197.367188 258.738281 C 205.039062 255.359375 209.78125 251.648438 211.609375 250.066406 Z M 96.335938 177.117188 C 97.734375 186.101562 101.253906 198.527344 110.097656 206.671875 C 118.359375 214.28125 129.863281 216.972656 144.289062 214.675781 C 181.367188 208.769531 195.316406 204.535156 202.019531 202.5 C 202.046875 202.492188 202.074219 202.488281 202.097656 202.484375 C 204.449219 201.339844 206.695312 200.246094 208.828125 199.203125 C 205.308594 199.65625 200.738281 200.378906 194.648438 201.339844 C 184.5 202.945312 170.601562 205.144531 151.085938 207.742188 C 147.984375 208.15625 145.015625 208.363281 142.1875 208.363281 C 130.859375 208.363281 121.714844 205.0625 114.921875 198.503906 C 106.570312 190.445312 103.398438 178.871094 102.210938 170.582031 C 101.125 163.011719 101.449219 156.722656 101.578125 154.910156 C 99.5625 156.082031 97.609375 157.386719 95.757812 158.820312 C 95.636719 158.914062 95.515625 159.011719 95.394531 159.109375 C 95.410156 159.171875 95.421875 159.234375 95.414062 159.304688 C 95.410156 159.382812 94.8125 167.332031 96.335938 177.117188 Z M 89.757812 185.195312 C 92.773438 202.675781 99.621094 211.738281 104.835938 216.261719 C 113.152344 223.480469 124.414062 225.753906 138.304688 223.019531 C 160.914062 218.574219 172.632812 214.726562 180.386719 212.179688 C 182.183594 211.589844 183.738281 211.078125 185.183594 210.640625 C 185.1875 210.640625 185.1875 210.640625 185.191406 210.636719 C 188.898438 208.863281 192.46875 207.144531 195.871094 205.5 C 187.378906 207.835938 172.527344 211.351562 144.472656 215.824219 C 141.082031 216.363281 137.839844 216.632812 134.765625 216.632812 C 124.417969 216.632812 115.882812 213.585938 109.304688 207.523438 C 100.210938 199.144531 96.601562 186.445312 95.179688 177.265625 C 93.933594 169.226562 94.09375 162.40625 94.203125 160.074219 C 92.082031 161.851562 90.140625 163.765625 88.390625 165.804688 C 88.398438 165.851562 88.402344 165.894531 88.402344 165.945312 C 88.398438 166.03125 87.949219 174.695312 89.757812 185.195312 Z M 254.480469 247.648438 C 249.28125 252.566406 242.472656 256.542969 234.253906 259.46875 C 226.503906 262.226562 219.785156 263.25 214.082031 263.25 C 207.03125 263.25 201.539062 261.6875 197.574219 259.917969 C 196 260.601562 194.257812 261.292969 192.339844 261.960938 C 193.582031 262.960938 197.199219 265.5625 203.097656 267.308594 C 209.933594 269.332031 221.324219 270.589844 236.765625 265.097656 C 245.285156 262.066406 256.90625 256.242188 263.890625 245.726562 C 267.410156 240.421875 268.347656 235.996094 268.554688 234.710938 C 266.84375 235.21875 264.957031 235.683594 262.867188 236.085938 C 261 240.261719 258.183594 244.152344 254.480469 247.648438 Z M 283.421875 156.289062 C 284.035156 157.371094 284.695312 158.710938 285.316406 160.316406 C 287.082031 164.882812 288.839844 172.574219 287.203125 183.269531 C 286.304688 189.136719 282.984375 196.597656 278.535156 202.742188 C 274.648438 208.117188 268.09375 215.023438 258.902344 217.558594 C 258.539062 218.945312 258.054688 220.527344 257.414062 222.234375 C 266.417969 221.871094 273.867188 217.433594 278.578125 213.714844 C 284.117188 209.347656 288.929688 203.484375 291.140625 198.414062 C 295.238281 189.011719 295.476562 181.363281 294.953125 176.601562 C 294.386719 171.445312 292.828125 168.46875 292.8125 168.4375 C 292.761719 168.34375 292.742188 168.242188 292.746094 168.140625 C 291.058594 165.066406 288.949219 162.125 286.414062 159.324219 C 285.441406 158.25 284.445312 157.238281 283.421875 156.289062 Z M 103.367188 170.445312 C 104.535156 178.546875 107.625 189.847656 115.734375 197.671875 C 122.300781 204.007812 131.179688 207.199219 142.195312 207.199219 C 144.972656 207.199219 147.886719 206.996094 150.929688 206.589844 C 170.433594 203.992188 184.324219 201.796875 194.46875 200.191406 C 202.632812 198.902344 208.070312 198.042969 211.9375 197.679688 C 213.789062 196.773438 215.535156 195.914062 217.171875 195.109375 C 209.445312 194.023438 195.722656 193.988281 155.28125 199.398438 C 152.105469 199.824219 149.078125 200.039062 146.203125 200.039062 C 135.054688 200.039062 126.199219 196.847656 119.800781 190.503906 C 112.363281 183.125 109.722656 172.78125 108.820312 165.402344 C 107.996094 158.664062 108.429688 153.09375 108.589844 151.503906 C 106.617188 152.285156 104.660156 153.207031 102.75 154.253906 C 102.777344 154.332031 102.789062 154.414062 102.78125 154.503906 C 102.773438 154.570312 102.097656 161.625 103.367188 170.445312 Z M 292.207031 198.878906 C 289.925781 204.113281 284.980469 210.148438 279.300781 214.628906 C 274.363281 218.519531 266.496094 223.183594 256.953125 223.410156 C 256.199219 225.265625 255.257812 227.242188 254.089844 229.25 C 268.425781 227.828125 286.433594 220.472656 292.628906 210.195312 C 292.660156 210.140625 292.703125 210.097656 292.746094 210.058594 C 295.199219 204.707031 297.082031 198.554688 297.640625 191.949219 C 298.117188 186.332031 297.578125 180.988281 296.046875 175.945312 C 296.066406 176.097656 296.085938 176.25 296.101562 176.40625 C 296.652344 181.320312 296.425781 189.210938 292.207031 198.878906 Z M 253.34375 230.480469 C 252.121094 232.433594 250.671875 234.402344 248.960938 236.304688 C 253.542969 236.25 270.199219 235.519531 279.640625 228.089844 C 282.644531 225.722656 286.628906 221.183594 290.105469 215.171875 C 287.132812 218.136719 283.058594 221.003906 278.320312 223.421875 C 270.757812 227.273438 261.902344 229.773438 253.34375 230.480469 Z M 257.039062 162.570312 C 251.765625 151.699219 241.980469 148.289062 241.882812 148.253906 C 241.851562 148.242188 241.820312 148.230469 241.792969 148.214844 C 237.199219 149.75 233.796875 151.566406 232.316406 152.417969 C 234.324219 152.636719 242.144531 153.9375 247.996094 161.210938 C 254.074219 168.769531 255.914062 180.113281 253.464844 194.925781 C 253.445312 195.050781 253.382812 195.160156 253.296875 195.242188 C 254.488281 196.644531 255.527344 198.144531 256.410156 199.703125 C 261.539062 184.773438 261.753906 172.285156 257.039062 162.570312 Z M 216.378906 196.796875 C 215.171875 197.390625 213.90625 198.011719 212.59375 198.65625 C 212.507812 198.738281 212.394531 198.796875 212.269531 198.816406 C 210.042969 199.90625 207.667969 201.066406 205.167969 202.285156 C 209.492188 203.382812 226.160156 207.113281 237.753906 202.628906 C 243.339844 200.464844 246.308594 197.878906 247.816406 196.089844 C 248.90625 194.789062 249.410156 193.714844 249.621094 193.148438 C 249.609375 193.140625 249.601562 193.128906 249.59375 193.121094 C 247.859375 191.597656 246.042969 190.398438 244.195312 189.539062 C 243.882812 190.347656 242.386719 193.140625 236.101562 195.460938 C 232.460938 196.800781 227.527344 197.136719 223.507812 197.136719 C 219.671875 197.136719 216.671875 196.832031 216.425781 196.804688 C 216.40625 196.804688 216.390625 196.796875 216.378906 196.796875 Z M 193.585938 207.894531 C 190.503906 209.382812 187.296875 210.921875 183.984375 212.503906 C 185.695312 213.402344 193.117188 217.152344 202.648438 220.007812 C 212.613281 222.988281 226.984375 225.574219 238.886719 220.945312 C 253.933594 215.09375 257.15625 206.3125 257.53125 205.113281 C 256.988281 203.417969 256.25 201.746094 255.328125 200.140625 C 254.46875 202.332031 251.230469 208.066406 239.980469 212.441406 C 235.265625 214.277344 230.132812 214.945312 225.152344 214.945312 C 219.4375 214.945312 213.921875 214.0625 209.472656 213.050781 C 200.476562 211.003906 193.757812 207.988281 193.691406 207.957031 C 193.652344 207.941406 193.621094 207.917969 193.585938 207.894531 Z M 203.617188 203.039062 C 200.871094 204.375 197.976562 205.777344 194.957031 207.234375 C 196.964844 208.070312 202.632812 210.304688 209.753906 211.921875 C 217.917969 213.777344 229.714844 215.1875 239.558594 211.359375 C 252.800781 206.207031 254.457031 199.078125 254.472656 199.007812 C 254.484375 198.949219 254.507812 198.894531 254.535156 198.84375 C 253.410156 197.113281 252.066406 195.476562 250.535156 193.996094 C 249.664062 195.980469 246.835938 200.359375 238.175781 203.710938 C 233.804688 205.402344 228.765625 205.949219 224.082031 205.949219 C 221.070312 205.949219 218.203125 205.722656 215.75 205.429688 C 208.988281 204.617188 203.835938 203.132812 203.78125 203.117188 C 203.722656 203.101562 203.667969 203.070312 203.617188 203.039062 Z M 109.980469 165.292969 C 110.863281 172.480469 113.429688 182.546875 120.628906 189.683594 C 128.402344 197.390625 140.011719 200.269531 155.128906 198.25 C 195.734375 192.8125 209.902344 192.683594 218.6875 194.164062 C 218.769531 194.179688 218.84375 194.210938 218.90625 194.253906 C 221.101562 193.167969 223.058594 192.199219 224.757812 191.355469 C 217.5 183.527344 185.632812 186.445312 160.152344 190.273438 C 143.730469 192.742188 131.601562 190.015625 124.113281 182.167969 C 120.707031 178.597656 116.503906 171.980469 115.792969 160.703125 C 115.441406 155.105469 116.085938 150.617188 116.332031 149.15625 C 114.171875 149.601562 111.980469 150.238281 109.792969 151.042969 C 109.796875 151.089844 109.800781 151.140625 109.792969 151.191406 C 109.785156 151.253906 109.019531 157.464844 109.980469 165.292969 Z M 199.863281 136.71875 C 210.695312 136.800781 219.636719 139.992188 226.515625 146.257812 C 228.339844 147.921875 229.945312 149.734375 231.351562 151.636719 C 232.566406 150.914062 236.011719 148.992188 240.828125 147.316406 C 235.039062 142.140625 228.03125 138.277344 219.972656 135.832031 C 212.203125 133.476562 204.625 132.886719 197.429688 134.0625 C 198.925781 135.550781 199.753906 136.570312 199.835938 136.671875 C 199.847656 136.6875 199.855469 136.703125 199.863281 136.71875 Z M 235.699219 194.367188 C 241.875 192.089844 243 189.429688 243.125 189.078125 C 239.613281 187.691406 236.03125 187.527344 232.738281 188.671875 C 232.230469 188.925781 226.953125 191.582031 218.40625 195.796875 C 222.101562 196.035156 230.453125 196.304688 235.699219 194.367188 Z M 124.960938 181.367188 C 132.171875 188.921875 143.953125 191.53125 159.976562 189.125 C 197.507812 183.480469 219.605469 183.984375 225.652344 190.613281 C 225.71875 190.679688 225.757812 190.761719 225.78125 190.847656 C 228.613281 189.4375 230.597656 188.445312 231.570312 187.957031 C 229.414062 185.554688 226.125 181.992188 216.859375 179.953125 C 205.414062 177.4375 187.921875 178.042969 164.871094 181.757812 C 147.25 184.59375 134.9375 182.171875 128.277344 174.550781 C 124.535156 170.269531 122.636719 164.25 122.792969 157.152344 C 122.882812 153.078125 123.605469 149.78125 123.96875 148.371094 C 123.824219 148.371094 123.679688 148.371094 123.53125 148.371094 C 121.609375 148.371094 119.601562 148.558594 117.558594 148.917969 C 117.472656 149.355469 116.558594 154.359375 116.957031 160.664062 C 117.339844 166.6875 119.039062 175.167969 124.960938 181.367188 Z M 267.296875 165.894531 C 264.238281 156.476562 259.429688 149.871094 253.003906 146.257812 C 252.738281 146.109375 252.53125 145.992188 252.386719 145.867188 C 251.605469 145.949219 250.824219 146.050781 250.039062 146.175781 C 247.714844 146.542969 245.527344 147.066406 243.523438 147.664062 C 246.441406 148.972656 253.671875 152.980469 258.078125 162.039062 C 263.046875 172.265625 262.738281 185.410156 257.152344 201.105469 C 257.757812 202.332031 258.265625 203.585938 258.664062 204.851562 C 268.605469 190.757812 269.730469 173.378906 267.296875 165.894531 Z M 128.046875 158.21875 C 133.96875 150.730469 144.519531 145.230469 152.328125 141.933594 C 161.34375 138.125 171.203125 138.367188 177.429688 139.859375 C 177.503906 139.878906 177.574219 139.910156 177.636719 139.957031 C 181.058594 139 184.683594 138.230469 188.5 137.644531 C 180.1875 132.261719 167.519531 127.546875 152.78125 133.769531 C 126.21875 144.984375 123.992188 157.339844 123.972656 157.460938 C 123.972656 157.464844 123.972656 157.464844 123.972656 157.46875 C 123.945312 159.625 124.105469 161.980469 124.609375 164.347656 C 125.042969 162.964844 125.984375 160.824219 128.046875 158.21875 Z M 152.328125 132.699219 C 168.140625 126.023438 181.613281 131.53125 190.132812 137.332031 C 190.164062 137.351562 190.1875 137.375 190.210938 137.398438 C 190.59375 137.34375 190.972656 137.289062 191.355469 137.242188 C 193.761719 136.9375 196.09375 136.769531 198.34375 136.726562 C 196.820312 135.015625 192.367188 130.386719 185.835938 126.703125 C 181.078125 124.023438 176.167969 122.363281 171.238281 121.773438 C 165.085938 121.035156 158.875 121.964844 152.78125 124.535156 C 145.152344 127.757812 134.828125 133.136719 129 140.453125 C 125.535156 144.804688 125.308594 147.816406 125.304688 147.847656 C 125.304688 147.855469 125.300781 147.863281 125.300781 147.871094 C 125.296875 147.902344 125.292969 147.9375 125.28125 147.96875 C 125.28125 147.972656 125.28125 147.976562 125.28125 147.980469 C 125.261719 148.042969 124.578125 150.363281 124.203125 153.753906 C 124.878906 152.5 125.875 150.964844 127.34375 149.230469 C 133.851562 141.539062 144.523438 135.996094 152.328125 132.699219 Z M 178.640625 121.964844 C 187.097656 116.160156 201.191406 110.457031 220.3125 116.253906 C 240.820312 122.472656 250.273438 136.550781 254.082031 144.386719 C 254.109375 144.441406 254.121094 144.496094 254.132812 144.554688 C 255.867188 144.441406 257.582031 144.429688 259.269531 144.527344 C 258.863281 143.273438 256.695312 137.078125 251.453125 130.011719 C 246.066406 122.75 236.230469 113.0625 219.972656 108.132812 C 212.808594 105.960938 205.789062 105.28125 199.101562 106.117188 C 193.753906 106.785156 188.605469 108.417969 183.796875 110.964844 C 176.765625 114.695312 172.511719 119.339844 171.414062 120.625 C 173.769531 120.910156 176.121094 121.433594 178.453125 122.183594 C 178.496094 122.101562 178.558594 122.023438 178.640625 121.964844 Z M 178.640625 121.964844 " fill="#ffffff"/></svg>