<?xml version="1.0" encoding="UTF-8"?>
<svg xmlns="http://www.w3.org/2000/svg" onmouseup="{ if(window.parent.document.onmouseup) window.parent.document.onmouseup(arguments[0]);}" version="1.0" preserveAspectRatio="xMidYMid meet" height="500" viewBox="0 0 375 374.999991" zoomAndPan="magnify" width="500" xmlns:xlink="http://www.w3.org/1999/xlink"><path data-cppathid="10000" fill-rule="nonzero" fill-opacity="1" d="M 280.289062 337.652344 C 314.160156 335.726562 348.792969 285.019531 340.316406 258.738281 C 331.8125 232.484375 138.960938 73.792969 112.453125 56.277344 C 85.972656 38.796875 70.300781 41.246094 35.5 70.882812 C 19.339844 91.171875 21.375 110.824219 31.191406 129.226562 C 41.007812 147.679688 246.421875 339.578125 280.289062 337.652344 Z M 280.289062 337.652344 " fill="#edc365"/><path data-cppathid="10001" fill-rule="nonzero" fill-opacity="1" d="M 267.066406 308.726562 C 270.148438 320.355469 277.820312 329.820312 285.574219 336.882812 C 317.628906 330.40625 348.3125 283.632812 340.289062 258.765625 C 339.734375 257.023438 338.355469 254.753906 336.339844 251.980469 C 333.570312 252.5625 330.546875 253.546875 327.25 254.847656 C 311.300781 261.046875 309.007812 263.34375 305.375 280.382812 C 301.742188 297.421875 289.414062 308.398438 281.828125 301.175781 C 274.292969 293.957031 300.183594 260.46875 312.816406 253.898438 C 307.453125 249.832031 295.511719 255.6875 285.039062 265.847656 C 273.1875 277.324219 263.234375 294.324219 267.066406 308.726562 Z M 267.066406 308.726562 " fill="#d6902a"/><path data-cppathid="10002" fill-rule="nonzero" fill-opacity="1" d="M 283.007812 319.324219 C 294.132812 326.492188 300.046875 325.441406 312.445312 306.683594 C 324.84375 287.929688 327.96875 261.238281 327.96875 261.238281 C 318.417969 265.289062 313.972656 263.617188 314.070312 274.613281 C 314.199219 285.632812 313.257812 300.789062 299.867188 309.773438 C 286.476562 318.757812 268.242188 300.949219 279.265625 285.671875 C 264.359375 292.351562 271.878906 312.15625 283.007812 319.324219 Z M 283.007812 319.324219 " fill="#ae642d"/><path data-cppathid="10003" fill-rule="nonzero" fill-opacity="1" d="M 202.203125 178.882812 C 226.902344 185.554688 236.15625 183.902344 259.402344 202.203125 C 282.648438 220.503906 296.105469 236.90625 307.894531 246.980469 C 296.324219 226.082031 266.296875 191.289062 238.363281 179.46875 C 210.429688 167.703125 189.6875 165.070312 177.558594 143.699219 C 165.429688 122.332031 108.410156 46.410156 77.195312 50.449219 C 112.320312 72.667969 133.570312 96.785156 152.714844 125.550781 C 171.777344 154.34375 177.5 172.214844 202.203125 178.882812 Z M 202.203125 178.882812 " fill="#d6902a"/></svg>