<?xml version="1.0" encoding="UTF-8"?>
<svg xmlns="http://www.w3.org/2000/svg" onmouseup="{ if(window.parent.document.onmouseup) window.parent.document.onmouseup(arguments[0]);}" version="1.0" preserveAspectRatio="xMidYMid meet" height="500" viewBox="0 0 375 374.999991" zoomAndPan="magnify" width="500" xmlns:xlink="http://www.w3.org/1999/xlink"><path data-cppathid="10000" fill-rule="nonzero" fill-opacity="1" d="M 21.949219 322.171875 C 39.804688 361.605469 101.5625 375 146.207031 340.773438 C 217.632812 288.691406 271.949219 218.007812 305.429688 137.648438 C 320.3125 98.214844 303.199219 57.292969 271.949219 46.875 C 240.699219 35.714844 208.707031 50.59375 192.335938 77.382812 C 161.085938 136.160156 113.46875 185.269531 56.917969 218.75 C 21.949219 238.839844 3.347656 281.992188 21.949219 322.171875 Z M 21.949219 322.171875 " fill="#8fc73f"/><path data-cppathid="10001" fill-rule="nonzero" fill-opacity="0.2" d="M 16.742188 308.035156 C 17.484375 312.5 19.71875 317.707031 21.207031 322.171875 C 23.4375 326.636719 25.667969 331.101562 29.390625 334.820312 C 34.597656 341.519531 41.292969 346.726562 49.480469 351.191406 C 55.429688 354.167969 62.128906 356.398438 68.824219 357.886719 C 86.679688 356.398438 106.769531 347.46875 126.117188 331.84375 C 196.054688 275.296875 254.09375 205.355469 295.015625 128.71875 C 307.664062 104.167969 307.664062 81.101562 298.734375 66.21875 C 298.734375 66.21875 298.734375 65.476562 297.992188 65.476562 C 297.246094 63.988281 295.757812 62.5 295.015625 61.011719 C 294.269531 59.523438 292.78125 58.78125 291.292969 57.292969 C 287.574219 54.316406 283.109375 52.082031 278.644531 50.59375 C 252.605469 44.644531 222.097656 62.5 204.984375 88.542969 C 112.722656 234.375 24.925781 229.910156 16.742188 308.035156 Z M 16.742188 308.035156 " fill="#ffffff"/><path data-cppathid="10002" fill-rule="nonzero" fill-opacity="0.2" d="M 30.132812 334.820312 C 35.34375 341.519531 42.039062 346.726562 50.222656 351.191406 C 108.257812 333.332031 241.445312 168.898438 280.132812 115.328125 C 295.757812 93.75 301.710938 75.894531 299.480469 66.964844 C 298.734375 64.730469 297.992188 63.242188 295.757812 61.757812 C 295.757812 61.757812 295.015625 61.757812 295.015625 61.757812 C 293.527344 61.011719 291.292969 61.011719 289.0625 61.011719 C 280.878906 61.757812 269.71875 67.707031 258.554688 76.636719 C 247.394531 85.566406 236.234375 96.726562 225.820312 109.375 C 117.1875 247.769531 42.78125 273.066406 30.132812 334.820312 Z M 30.132812 334.820312 " fill="#ffffff"/><path data-cppathid="10003" fill-rule="nonzero" fill-opacity="1" d="M 295.757812 98.214844 C 271.207031 95.238281 252.605469 83.332031 239.210938 62.5 C 237.722656 58.78125 237.722656 54.316406 239.210938 49.851562 C 242.1875 40.179688 264.507812 0 274.925781 2.976562 C 280.878906 5.207031 280.878906 20.832031 279.390625 35.714844 C 289.804688 26.042969 300.96875 17.855469 305.429688 20.832031 C 309.894531 23.808594 307.664062 37.203125 303.199219 49.851562 C 315.847656 42.410156 329.984375 36.457031 333.707031 40.921875 C 341.144531 48.363281 314.359375 86.308594 306.175781 93.007812 C 303.945312 95.980469 299.480469 98.214844 295.757812 98.214844 Z M 295.757812 98.214844 " fill="#4faa47"/><path data-cppathid="10004" fill-rule="nonzero" fill-opacity="0.2" d="M 268.972656 64.730469 C 268.230469 67.707031 265.996094 70.683594 263.019531 71.429688 C 260.789062 71.429688 258.554688 69.941406 257.070312 67.707031 C 254.09375 64.730469 250.371094 61.757812 247.394531 58.035156 C 245.164062 55.058594 246.652344 52.828125 247.394531 49.105469 C 250.371094 40.179688 254.09375 32.738281 258.554688 25.296875 C 260.042969 23.066406 264.507812 14.136719 267.484375 14.882812 C 271.207031 15.625 269.71875 20.089844 269.71875 22.320312 C 269.71875 26.785156 270.460938 31.992188 271.207031 36.457031 C 272.695312 45.386719 271.207031 55.804688 268.972656 64.730469 Z M 268.972656 64.730469 " fill="#ffffff"/><path data-cppathid="10005" fill-rule="nonzero" fill-opacity="0.2" d="M 299.480469 24.554688 C 300.222656 23.808594 300.96875 23.808594 301.710938 23.808594 C 302.457031 23.808594 303.199219 25.296875 303.199219 26.042969 C 303.199219 26.785156 302.457031 27.53125 301.710938 28.273438 C 299.480469 30.507812 297.246094 33.480469 295.757812 36.457031 C 293.527344 40.921875 291.292969 46.132812 286.832031 49.105469 C 284.597656 50.59375 281.621094 51.339844 280.132812 48.363281 C 278.644531 46.132812 279.390625 44.644531 280.878906 42.410156 C 284.597656 37.945312 288.320312 33.480469 292.78125 29.761719 C 294.269531 28.273438 296.503906 26.042969 299.480469 24.554688 Z M 299.480469 24.554688 " fill="#ffffff"/><path data-cppathid="10006" fill-rule="nonzero" fill-opacity="0.2" d="M 288.320312 72.171875 C 287.574219 69.941406 289.804688 67.707031 291.292969 66.21875 C 292.78125 64.730469 294.269531 62.5 296.503906 61.757812 C 297.992188 61.011719 298.734375 60.269531 300.222656 59.523438 C 301.710938 58.035156 302.457031 56.546875 303.945312 55.804688 C 306.175781 53.570312 309.152344 52.082031 312.128906 50.59375 C 315.105469 49.105469 318.082031 46.875 321.800781 45.386719 C 324.777344 43.898438 328.496094 43.15625 332.21875 43.15625 C 330.730469 46.875 328.496094 49.105469 325.519531 51.339844 C 322.542969 53.570312 319.570312 55.058594 316.59375 57.292969 C 313.617188 59.523438 312.128906 62.5 309.152344 65.476562 C 306.917969 68.453125 303.945312 70.683594 300.96875 72.171875 C 298.734375 72.917969 295.757812 73.660156 293.527344 73.660156 C 291.292969 73.660156 289.0625 73.660156 288.320312 72.171875 Z M 288.320312 72.171875 " fill="#ffffff"/><path data-cppathid="10007" fill-rule="nonzero" fill-opacity="0.1" d="M 295.757812 159.226562 C 268.230469 217.261719 229.539062 268.601562 181.917969 311.757812 C 173.734375 296.875 169.269531 279.761719 169.269531 261.90625 C 169.269531 203.867188 216.144531 156.992188 274.179688 156.992188 C 281.621094 156.992188 288.320312 157.738281 295.757812 159.226562 Z M 295.757812 159.226562 " fill="#010101"/><path data-cppathid="10008" fill-rule="nonzero" fill-opacity="1" d="M 371.652344 261.90625 C 371.652344 263.5 371.613281 265.09375 371.535156 266.6875 C 371.457031 268.28125 371.339844 269.871094 371.183594 271.457031 C 371.027344 273.046875 370.832031 274.628906 370.597656 276.207031 C 370.363281 277.785156 370.089844 279.355469 369.777344 280.921875 C 369.46875 282.484375 369.117188 284.039062 368.730469 285.589844 C 368.34375 287.136719 367.917969 288.671875 367.453125 290.199219 C 366.992188 291.726562 366.492188 293.238281 365.953125 294.742188 C 365.417969 296.242188 364.84375 297.730469 364.230469 299.203125 C 363.621094 300.679688 362.976562 302.136719 362.292969 303.578125 C 361.613281 305.019531 360.894531 306.445312 360.144531 307.851562 C 359.390625 309.257812 358.605469 310.644531 357.785156 312.015625 C 356.964844 313.382812 356.109375 314.730469 355.226562 316.054688 C 354.339844 317.382812 353.421875 318.6875 352.46875 319.96875 C 351.519531 321.25 350.539062 322.507812 349.527344 323.738281 C 348.515625 324.972656 347.472656 326.179688 346.402344 327.363281 C 345.332031 328.542969 344.230469 329.699219 343.101562 330.828125 C 341.976562 331.953125 340.820312 333.054688 339.636719 334.125 C 338.457031 335.195312 337.25 336.238281 336.015625 337.25 C 334.78125 338.261719 333.527344 339.242188 332.246094 340.195312 C 330.964844 341.144531 329.660156 342.0625 328.332031 342.949219 C 327.007812 343.835938 325.660156 344.6875 324.292969 345.507812 C 322.921875 346.328125 321.535156 347.113281 320.128906 347.867188 C 318.722656 348.617188 317.296875 349.335938 315.855469 350.015625 C 314.414062 350.699219 312.957031 351.34375 311.480469 351.957031 C 310.007812 352.566406 308.519531 353.140625 307.019531 353.675781 C 305.515625 354.214844 304.003906 354.714844 302.476562 355.179688 C 300.949219 355.640625 299.414062 356.066406 297.863281 356.453125 C 296.316406 356.839844 294.761719 357.191406 293.195312 357.503906 C 291.632812 357.8125 290.0625 358.085938 288.484375 358.320312 C 286.90625 358.554688 285.324219 358.75 283.734375 358.90625 C 282.148438 359.0625 280.558594 359.179688 278.964844 359.257812 C 277.371094 359.335938 275.777344 359.375 274.179688 359.375 C 272.585938 359.375 270.992188 359.335938 269.398438 359.257812 C 267.804688 359.179688 266.214844 359.0625 264.628906 358.90625 C 263.039062 358.75 261.457031 358.554688 259.878906 358.320312 C 258.300781 358.085938 256.730469 357.8125 255.164062 357.503906 C 253.601562 357.191406 252.046875 356.839844 250.5 356.453125 C 248.949219 356.066406 247.414062 355.640625 245.886719 355.179688 C 244.359375 354.714844 242.847656 354.214844 241.34375 353.675781 C 239.84375 353.140625 238.355469 352.566406 236.882812 351.957031 C 235.40625 351.34375 233.949219 350.699219 232.507812 350.015625 C 231.066406 349.335938 229.640625 348.617188 228.234375 347.867188 C 226.828125 347.113281 225.441406 346.328125 224.070312 345.507812 C 222.703125 344.6875 221.355469 343.835938 220.03125 342.949219 C 218.703125 342.0625 217.398438 341.144531 216.117188 340.195312 C 214.835938 339.242188 213.582031 338.261719 212.347656 337.25 C 211.113281 336.238281 209.90625 335.195312 208.722656 334.125 C 207.542969 333.054688 206.386719 331.953125 205.257812 330.828125 C 204.132812 329.699219 203.03125 328.542969 201.960938 327.363281 C 200.890625 326.179688 199.847656 324.972656 198.835938 323.738281 C 197.824219 322.507812 196.84375 321.25 195.894531 319.96875 C 194.941406 318.6875 194.023438 317.382812 193.136719 316.054688 C 192.25 314.730469 191.398438 313.382812 190.578125 312.015625 C 189.757812 310.644531 188.972656 309.257812 188.21875 307.851562 C 187.46875 306.445312 186.75 305.019531 186.070312 303.578125 C 185.386719 302.136719 184.742188 300.679688 184.128906 299.203125 C 183.519531 297.730469 182.945312 296.242188 182.410156 294.742188 C 181.871094 293.238281 181.371094 291.726562 180.910156 290.199219 C 180.445312 288.671875 180.019531 287.136719 179.632812 285.589844 C 179.246094 284.039062 178.894531 282.484375 178.585938 280.921875 C 178.273438 279.355469 178 277.785156 177.765625 276.207031 C 177.53125 274.628906 177.335938 273.046875 177.179688 271.457031 C 177.023438 269.871094 176.90625 268.28125 176.828125 266.6875 C 176.75 265.09375 176.710938 263.5 176.710938 261.90625 C 176.710938 260.308594 176.75 258.714844 176.828125 257.121094 C 176.90625 255.527344 177.023438 253.9375 177.179688 252.351562 C 177.335938 250.761719 177.53125 249.179688 177.765625 247.601562 C 178 246.023438 178.273438 244.453125 178.585938 242.890625 C 178.894531 241.324219 179.246094 239.769531 179.632812 238.222656 C 180.019531 236.675781 180.445312 235.136719 180.910156 233.609375 C 181.371094 232.085938 181.871094 230.570312 182.410156 229.066406 C 182.945312 227.566406 183.519531 226.078125 184.128906 224.605469 C 184.742188 223.128906 185.386719 221.671875 186.070312 220.230469 C 186.75 218.789062 187.46875 217.363281 188.21875 215.957031 C 188.972656 214.550781 189.757812 213.164062 190.578125 211.796875 C 191.398438 210.425781 192.25 209.078125 193.136719 207.753906 C 194.023438 206.425781 194.941406 205.121094 195.894531 203.839844 C 196.84375 202.558594 197.824219 201.304688 198.835938 200.070312 C 199.847656 198.835938 200.890625 197.628906 201.960938 196.449219 C 203.03125 195.265625 204.132812 194.109375 205.257812 192.984375 C 206.386719 191.855469 207.542969 190.753906 208.722656 189.683594 C 209.90625 188.613281 211.113281 187.570312 212.347656 186.558594 C 213.582031 185.546875 214.835938 184.566406 216.117188 183.617188 C 217.398438 182.664062 218.703125 181.746094 220.03125 180.859375 C 221.355469 179.976562 222.703125 179.121094 224.070312 178.300781 C 225.441406 177.480469 226.828125 176.695312 228.234375 175.945312 C 229.640625 175.191406 231.066406 174.476562 232.507812 173.792969 C 233.949219 173.109375 235.40625 172.464844 236.882812 171.855469 C 238.355469 171.242188 239.84375 170.667969 241.34375 170.132812 C 242.847656 169.59375 244.359375 169.09375 245.886719 168.632812 C 247.414062 168.167969 248.949219 167.742188 250.5 167.355469 C 252.046875 166.96875 253.601562 166.617188 255.164062 166.308594 C 256.730469 165.996094 258.300781 165.722656 259.878906 165.488281 C 261.457031 165.253906 263.039062 165.058594 264.628906 164.902344 C 266.214844 164.746094 267.804688 164.628906 269.398438 164.550781 C 270.992188 164.472656 272.585938 164.433594 274.179688 164.433594 C 275.777344 164.433594 277.371094 164.472656 278.964844 164.550781 C 280.558594 164.628906 282.148438 164.746094 283.734375 164.902344 C 285.324219 165.058594 286.90625 165.253906 288.484375 165.488281 C 290.0625 165.722656 291.632812 165.996094 293.195312 166.308594 C 294.761719 166.617188 296.316406 166.96875 297.863281 167.355469 C 299.414062 167.742188 300.949219 168.167969 302.476562 168.632812 C 304.003906 169.09375 305.515625 169.59375 307.019531 170.132812 C 308.519531 170.667969 310.007812 171.242188 311.480469 171.855469 C 312.957031 172.464844 314.414062 173.109375 315.855469 173.792969 C 317.296875 174.476562 318.722656 175.191406 320.128906 175.945312 C 321.535156 176.695312 322.921875 177.480469 324.292969 178.300781 C 325.660156 179.121094 327.007812 179.976562 328.332031 180.859375 C 329.660156 181.746094 330.964844 182.664062 332.246094 183.617188 C 333.527344 184.566406 334.78125 185.546875 336.015625 186.558594 C 337.25 187.570312 338.457031 188.613281 339.636719 189.683594 C 340.820312 190.753906 341.976562 191.855469 343.101562 192.984375 C 344.230469 194.109375 345.332031 195.265625 346.402344 196.449219 C 347.472656 197.628906 348.515625 198.835938 349.527344 200.070312 C 350.539062 201.304688 351.519531 202.558594 352.46875 203.839844 C 353.421875 205.121094 354.339844 206.425781 355.226562 207.753906 C 356.109375 209.078125 356.964844 210.425781 357.785156 211.796875 C 358.605469 213.164062 359.390625 214.550781 360.144531 215.957031 C 360.894531 217.363281 361.613281 218.789062 362.292969 220.230469 C 362.976562 221.671875 363.621094 223.128906 364.230469 224.605469 C 364.84375 226.078125 365.417969 227.566406 365.953125 229.066406 C 366.492188 230.570312 366.992188 232.085938 367.453125 233.609375 C 367.917969 235.136719 368.34375 236.675781 368.730469 238.222656 C 369.117188 239.769531 369.46875 241.324219 369.777344 242.890625 C 370.089844 244.453125 370.363281 246.023438 370.597656 247.601562 C 370.832031 249.179688 371.027344 250.761719 371.183594 252.351562 C 371.339844 253.9375 371.457031 255.527344 371.535156 257.121094 C 371.613281 258.714844 371.652344 260.308594 371.652344 261.90625 Z M 371.652344 261.90625 " fill="#8fc73f"/><path data-cppathid="10009" fill-rule="nonzero" fill-opacity="1" d="M 357.515625 261.90625 C 357.515625 263.269531 357.480469 264.632812 357.414062 265.992188 C 357.347656 267.355469 357.246094 268.714844 357.113281 270.074219 C 356.980469 271.429688 356.8125 272.78125 356.613281 274.132812 C 356.414062 275.480469 356.179688 276.824219 355.914062 278.164062 C 355.648438 279.5 355.347656 280.828125 355.015625 282.152344 C 354.6875 283.476562 354.324219 284.789062 353.925781 286.09375 C 353.53125 287.398438 353.101562 288.695312 352.644531 289.980469 C 352.183594 291.261719 351.691406 292.535156 351.171875 293.796875 C 350.648438 295.054688 350.097656 296.300781 349.515625 297.535156 C 348.929688 298.765625 348.316406 299.984375 347.675781 301.1875 C 347.03125 302.390625 346.359375 303.578125 345.660156 304.746094 C 344.957031 305.917969 344.226562 307.066406 343.46875 308.203125 C 342.714844 309.335938 341.929688 310.449219 341.117188 311.546875 C 340.304688 312.640625 339.464844 313.714844 338.597656 314.769531 C 337.734375 315.824219 336.84375 316.859375 335.925781 317.867188 C 335.011719 318.878906 334.070312 319.867188 333.105469 320.832031 C 332.144531 321.792969 331.15625 322.734375 330.144531 323.652344 C 329.132812 324.566406 328.101562 325.457031 327.046875 326.320312 C 325.992188 327.1875 324.917969 328.027344 323.824219 328.839844 C 322.726562 329.652344 321.613281 330.4375 320.480469 331.195312 C 319.34375 331.953125 318.191406 332.679688 317.023438 333.382812 C 315.855469 334.082031 314.667969 334.753906 313.464844 335.398438 C 312.261719 336.042969 311.042969 336.652344 309.8125 337.238281 C 308.578125 337.820312 307.332031 338.371094 306.070312 338.894531 C 304.8125 339.417969 303.539062 339.90625 302.253906 340.367188 C 300.972656 340.824219 299.675781 341.253906 298.371094 341.648438 C 297.066406 342.046875 295.753906 342.410156 294.429688 342.742188 C 293.105469 343.070312 291.777344 343.371094 290.4375 343.636719 C 289.101562 343.902344 287.757812 344.136719 286.410156 344.335938 C 285.058594 344.535156 283.707031 344.703125 282.351562 344.835938 C 280.992188 344.96875 279.632812 345.070312 278.269531 345.136719 C 276.910156 345.203125 275.546875 345.238281 274.179688 345.238281 C 272.816406 345.238281 271.453125 345.203125 270.09375 345.136719 C 268.730469 345.070312 267.371094 344.96875 266.011719 344.835938 C 264.65625 344.703125 263.304688 344.535156 261.953125 344.335938 C 260.605469 344.136719 259.261719 343.902344 257.925781 343.636719 C 256.585938 343.371094 255.257812 343.070312 253.933594 342.742188 C 252.609375 342.410156 251.296875 342.046875 249.992188 341.648438 C 248.6875 341.253906 247.390625 340.824219 246.105469 340.367188 C 244.824219 339.90625 243.550781 339.417969 242.292969 338.894531 C 241.03125 338.371094 239.785156 337.820312 238.550781 337.238281 C 237.320312 336.652344 236.101562 336.042969 234.898438 335.398438 C 233.695312 334.753906 232.507812 334.082031 231.339844 333.382812 C 230.167969 332.679688 229.019531 331.953125 227.882812 331.195312 C 226.75 330.4375 225.636719 329.652344 224.539062 328.839844 C 223.445312 328.027344 222.371094 327.1875 221.316406 326.320312 C 220.261719 325.457031 219.230469 324.566406 218.21875 323.652344 C 217.207031 322.734375 216.21875 321.792969 215.257812 320.832031 C 214.292969 319.867188 213.351562 318.878906 212.4375 317.867188 C 211.519531 316.859375 210.628906 315.824219 209.765625 314.769531 C 208.898438 313.714844 208.058594 312.640625 207.246094 311.546875 C 206.433594 310.449219 205.648438 309.335938 204.890625 308.203125 C 204.132812 307.066406 203.40625 305.917969 202.703125 304.746094 C 202.003906 303.578125 201.332031 302.390625 200.6875 301.1875 C 200.046875 299.984375 199.433594 298.765625 198.847656 297.535156 C 198.265625 296.300781 197.714844 295.054688 197.191406 293.796875 C 196.667969 292.535156 196.179688 291.261719 195.71875 289.980469 C 195.261719 288.695312 194.832031 287.398438 194.4375 286.09375 C 194.039062 284.789062 193.675781 283.476562 193.34375 282.152344 C 193.015625 280.828125 192.714844 279.5 192.449219 278.164062 C 192.183594 276.824219 191.949219 275.480469 191.75 274.132812 C 191.550781 272.78125 191.382812 271.429688 191.25 270.074219 C 191.117188 268.714844 191.015625 267.355469 190.949219 265.992188 C 190.882812 264.632812 190.847656 263.269531 190.847656 261.90625 C 190.847656 260.539062 190.882812 259.179688 190.949219 257.816406 C 191.015625 256.453125 191.117188 255.09375 191.25 253.738281 C 191.382812 252.378906 191.550781 251.027344 191.75 249.675781 C 191.949219 248.328125 192.183594 246.984375 192.449219 245.648438 C 192.714844 244.308594 193.015625 242.980469 193.34375 241.65625 C 193.675781 240.332031 194.039062 239.019531 194.4375 237.714844 C 194.832031 236.410156 195.261719 235.113281 195.71875 233.832031 C 196.179688 232.546875 196.667969 231.273438 197.191406 230.015625 C 197.714844 228.753906 198.265625 227.507812 198.847656 226.273438 C 199.433594 225.042969 200.046875 223.824219 200.6875 222.621094 C 201.332031 221.417969 202.003906 220.234375 202.703125 219.0625 C 203.40625 217.894531 204.132812 216.742188 204.890625 215.605469 C 205.648438 214.472656 206.433594 213.359375 207.246094 212.261719 C 208.058594 211.167969 208.898438 210.09375 209.765625 209.039062 C 210.628906 207.984375 211.519531 206.953125 212.4375 205.941406 C 213.351562 204.929688 214.292969 203.945312 215.257812 202.980469 C 216.21875 202.015625 217.207031 201.074219 218.21875 200.160156 C 219.230469 199.242188 220.261719 198.351562 221.316406 197.488281 C 222.371094 196.621094 223.445312 195.78125 224.539062 194.972656 C 225.636719 194.160156 226.75 193.375 227.882812 192.617188 C 229.019531 191.859375 230.167969 191.128906 231.339844 190.425781 C 232.507812 189.726562 233.695312 189.054688 234.898438 188.410156 C 236.101562 187.769531 237.320312 187.15625 238.550781 186.574219 C 239.785156 185.988281 241.03125 185.4375 242.292969 184.914062 C 243.550781 184.394531 244.824219 183.902344 246.105469 183.441406 C 247.390625 182.984375 248.6875 182.554688 249.992188 182.160156 C 251.296875 181.765625 252.609375 181.398438 253.933594 181.070312 C 255.257812 180.738281 256.585938 180.4375 257.925781 180.171875 C 259.261719 179.90625 260.605469 179.671875 261.953125 179.472656 C 263.304688 179.273438 264.65625 179.105469 266.011719 178.972656 C 267.371094 178.839844 268.730469 178.738281 270.09375 178.671875 C 271.453125 178.605469 272.816406 178.570312 274.179688 178.570312 C 275.546875 178.570312 276.910156 178.605469 278.269531 178.671875 C 279.632812 178.738281 280.992188 178.839844 282.351562 178.972656 C 283.707031 179.105469 285.058594 179.273438 286.410156 179.472656 C 287.757812 179.671875 289.101562 179.90625 290.4375 180.171875 C 291.777344 180.4375 293.105469 180.738281 294.429688 181.070312 C 295.753906 181.398438 297.066406 181.765625 298.371094 182.160156 C 299.675781 182.554688 300.972656 182.984375 302.253906 183.441406 C 303.539062 183.902344 304.8125 184.394531 306.070312 184.914062 C 307.332031 185.4375 308.578125 185.988281 309.8125 186.574219 C 311.042969 187.15625 312.261719 187.769531 313.464844 188.410156 C 314.667969 189.054688 315.855469 189.726562 317.023438 190.425781 C 318.191406 191.128906 319.34375 191.859375 320.480469 192.617188 C 321.613281 193.375 322.726562 194.160156 323.824219 194.972656 C 324.917969 195.78125 325.992188 196.621094 327.046875 197.488281 C 328.101562 198.351562 329.132812 199.242188 330.144531 200.160156 C 331.15625 201.074219 332.144531 202.015625 333.105469 202.980469 C 334.070312 203.945312 335.011719 204.929688 335.925781 205.941406 C 336.84375 206.953125 337.734375 207.984375 338.597656 209.039062 C 339.464844 210.09375 340.304688 211.167969 341.117188 212.261719 C 341.929688 213.359375 342.714844 214.472656 343.46875 215.605469 C 344.226562 216.742188 344.957031 217.894531 345.660156 219.0625 C 346.359375 220.234375 347.03125 221.417969 347.675781 222.621094 C 348.316406 223.824219 348.929688 225.042969 349.515625 226.273438 C 350.097656 227.507812 350.648438 228.753906 351.171875 230.015625 C 351.691406 231.273438 352.183594 232.546875 352.644531 233.832031 C 353.101562 235.113281 353.53125 236.410156 353.925781 237.714844 C 354.324219 239.019531 354.6875 240.332031 355.015625 241.65625 C 355.347656 242.980469 355.648438 244.308594 355.914062 245.648438 C 356.179688 246.984375 356.414062 248.328125 356.613281 249.675781 C 356.8125 251.027344 356.980469 252.378906 357.113281 253.738281 C 357.246094 255.09375 357.347656 256.453125 357.414062 257.816406 C 357.480469 259.179688 357.515625 260.539062 357.515625 261.90625 Z M 357.515625 261.90625 " fill="#d8e6e9"/><path data-cppathid="10010" fill-rule="nonzero" fill-opacity="0.5" d="M 341.890625 261.90625 C 341.890625 263.011719 341.863281 264.121094 341.808594 265.226562 C 341.753906 266.332031 341.671875 267.4375 341.5625 268.542969 C 341.457031 269.644531 341.320312 270.742188 341.15625 271.839844 C 340.996094 272.9375 340.804688 274.027344 340.589844 275.113281 C 340.371094 276.199219 340.128906 277.28125 339.859375 278.355469 C 339.589844 279.429688 339.296875 280.5 338.972656 281.558594 C 338.652344 282.621094 338.304688 283.671875 337.933594 284.714844 C 337.558594 285.757812 337.160156 286.792969 336.734375 287.816406 C 336.3125 288.839844 335.863281 289.851562 335.390625 290.855469 C 334.914062 291.855469 334.417969 292.84375 333.894531 293.820312 C 333.371094 294.800781 332.828125 295.761719 332.257812 296.714844 C 331.6875 297.664062 331.09375 298.601562 330.480469 299.519531 C 329.863281 300.441406 329.226562 301.347656 328.566406 302.238281 C 327.90625 303.128906 327.222656 304 326.519531 304.859375 C 325.816406 305.714844 325.09375 306.554688 324.351562 307.375 C 323.605469 308.195312 322.84375 309 322.058594 309.78125 C 321.273438 310.566406 320.472656 311.328125 319.652344 312.074219 C 318.832031 312.816406 317.992188 313.539062 317.136719 314.242188 C 316.277344 314.945312 315.40625 315.628906 314.515625 316.289062 C 313.625 316.949219 312.71875 317.585938 311.796875 318.203125 C 310.875 318.816406 309.941406 319.410156 308.992188 319.980469 C 308.039062 320.550781 307.078125 321.097656 306.097656 321.617188 C 305.121094 322.140625 304.132812 322.636719 303.128906 323.113281 C 302.128906 323.585938 301.117188 324.035156 300.09375 324.460938 C 299.070312 324.882812 298.035156 325.28125 296.992188 325.65625 C 295.949219 326.027344 294.898438 326.375 293.835938 326.699219 C 292.777344 327.019531 291.707031 327.316406 290.632812 327.582031 C 289.558594 327.851562 288.476562 328.097656 287.390625 328.3125 C 286.304688 328.527344 285.210938 328.71875 284.117188 328.878906 C 283.019531 329.042969 281.921875 329.179688 280.816406 329.285156 C 279.714844 329.394531 278.609375 329.476562 277.503906 329.53125 C 276.398438 329.585938 275.289062 329.613281 274.179688 329.613281 C 273.074219 329.613281 271.964844 329.585938 270.859375 329.53125 C 269.753906 329.476562 268.648438 329.394531 267.546875 329.285156 C 266.441406 329.179688 265.34375 329.042969 264.246094 328.878906 C 263.152344 328.71875 262.058594 328.527344 260.972656 328.3125 C 259.886719 328.097656 258.804688 327.851562 257.730469 327.582031 C 256.65625 327.316406 255.585938 327.019531 254.527344 326.699219 C 253.464844 326.375 252.414062 326.027344 251.371094 325.65625 C 250.328125 325.28125 249.292969 324.882812 248.269531 324.460938 C 247.246094 324.035156 246.234375 323.585938 245.234375 323.113281 C 244.230469 322.636719 243.242188 322.140625 242.265625 321.617188 C 241.285156 321.097656 240.324219 320.550781 239.371094 319.980469 C 238.421875 319.410156 237.484375 318.816406 236.566406 318.203125 C 235.644531 317.585938 234.738281 316.949219 233.847656 316.289062 C 232.957031 315.628906 232.085938 314.945312 231.226562 314.242188 C 230.371094 313.539062 229.53125 312.816406 228.710938 312.074219 C 227.890625 311.328125 227.089844 310.566406 226.304688 309.78125 C 225.519531 309 224.757812 308.195312 224.011719 307.375 C 223.269531 306.554688 222.546875 305.714844 221.84375 304.859375 C 221.140625 304 220.457031 303.128906 219.796875 302.238281 C 219.136719 301.347656 218.5 300.441406 217.882812 299.519531 C 217.269531 298.601562 216.675781 297.664062 216.105469 296.714844 C 215.535156 295.761719 214.992188 294.800781 214.46875 293.820312 C 213.945312 292.84375 213.449219 291.855469 212.972656 290.855469 C 212.5 289.851562 212.050781 288.839844 211.628906 287.816406 C 211.203125 286.792969 210.804688 285.757812 210.429688 284.714844 C 210.058594 283.671875 209.710938 282.621094 209.390625 281.558594 C 209.066406 280.5 208.773438 279.429688 208.503906 278.355469 C 208.234375 277.28125 207.992188 276.199219 207.773438 275.113281 C 207.558594 274.027344 207.367188 272.9375 207.207031 271.839844 C 207.042969 270.742188 206.90625 269.644531 206.800781 268.542969 C 206.691406 267.4375 206.609375 266.332031 206.554688 265.226562 C 206.5 264.121094 206.472656 263.011719 206.472656 261.90625 C 206.472656 260.796875 206.5 259.6875 206.554688 258.582031 C 206.609375 257.476562 206.691406 256.371094 206.800781 255.269531 C 206.90625 254.164062 207.042969 253.066406 207.207031 251.96875 C 207.367188 250.875 207.558594 249.78125 207.773438 248.695312 C 207.992188 247.609375 208.234375 246.527344 208.503906 245.453125 C 208.773438 244.378906 209.066406 243.308594 209.390625 242.25 C 209.710938 241.191406 210.058594 240.136719 210.429688 239.09375 C 210.804688 238.050781 211.203125 237.019531 211.628906 235.992188 C 212.050781 234.96875 212.5 233.957031 212.972656 232.957031 C 213.449219 231.953125 213.945312 230.964844 214.46875 229.988281 C 214.992188 229.011719 215.535156 228.046875 216.105469 227.09375 C 216.675781 226.144531 217.269531 225.210938 217.882812 224.289062 C 218.5 223.367188 219.136719 222.460938 219.796875 221.570312 C 220.457031 220.679688 221.140625 219.808594 221.84375 218.949219 C 222.546875 218.09375 223.269531 217.253906 224.011719 216.433594 C 224.757812 215.613281 225.519531 214.8125 226.304688 214.027344 C 227.089844 213.242188 227.890625 212.480469 228.710938 211.734375 C 229.53125 210.992188 230.371094 210.269531 231.226562 209.566406 C 232.085938 208.863281 232.957031 208.179688 233.847656 207.519531 C 234.738281 206.859375 235.644531 206.222656 236.566406 205.605469 C 237.484375 204.992188 238.421875 204.398438 239.371094 203.828125 C 240.324219 203.257812 241.285156 202.714844 242.265625 202.191406 C 243.242188 201.667969 244.230469 201.171875 245.234375 200.695312 C 246.234375 200.222656 247.246094 199.773438 248.269531 199.351562 C 249.292969 198.925781 250.328125 198.527344 251.371094 198.15625 C 252.414062 197.78125 253.464844 197.433594 254.527344 197.113281 C 255.585938 196.789062 256.65625 196.496094 257.730469 196.226562 C 258.804688 195.957031 259.886719 195.714844 260.972656 195.496094 C 262.058594 195.28125 263.152344 195.09375 264.246094 194.929688 C 265.34375 194.765625 266.441406 194.632812 267.546875 194.523438 C 268.648438 194.414062 269.753906 194.332031 270.859375 194.277344 C 271.964844 194.222656 273.074219 194.195312 274.179688 194.195312 C 275.289062 194.195312 276.398438 194.222656 277.503906 194.277344 C 278.609375 194.332031 279.714844 194.414062 280.816406 194.523438 C 281.921875 194.632812 283.019531 194.765625 284.117188 194.929688 C 285.210938 195.09375 286.304688 195.28125 287.390625 195.496094 C 288.476562 195.714844 289.558594 195.957031 290.632812 196.226562 C 291.707031 196.496094 292.777344 196.789062 293.835938 197.113281 C 294.898438 197.433594 295.949219 197.78125 296.992188 198.15625 C 298.035156 198.527344 299.070312 198.925781 300.09375 199.351562 C 301.117188 199.773438 302.128906 200.222656 303.128906 200.695312 C 304.132812 201.171875 305.121094 201.667969 306.097656 202.191406 C 307.078125 202.714844 308.039062 203.257812 308.992188 203.828125 C 309.941406 204.398438 310.875 204.992188 311.796875 205.605469 C 312.71875 206.222656 313.625 206.859375 314.515625 207.519531 C 315.40625 208.179688 316.277344 208.863281 317.136719 209.566406 C 317.992188 210.269531 318.832031 210.992188 319.652344 211.734375 C 320.472656 212.480469 321.273438 213.242188 322.058594 214.027344 C 322.84375 214.8125 323.605469 215.613281 324.351562 216.433594 C 325.09375 217.253906 325.816406 218.09375 326.519531 218.949219 C 327.222656 219.808594 327.90625 220.679688 328.566406 221.570312 C 329.226562 222.460938 329.863281 223.367188 330.480469 224.289062 C 331.09375 225.210938 331.6875 226.144531 332.257812 227.09375 C 332.828125 228.046875 333.371094 229.011719 333.894531 229.988281 C 334.417969 230.964844 334.914062 231.953125 335.390625 232.957031 C 335.863281 233.957031 336.3125 234.96875 336.734375 235.992188 C 337.160156 237.019531 337.558594 238.050781 337.933594 239.09375 C 338.304688 240.136719 338.652344 241.191406 338.972656 242.25 C 339.296875 243.308594 339.589844 244.378906 339.859375 245.453125 C 340.128906 246.527344 340.371094 247.609375 340.589844 248.695312 C 340.804688 249.78125 340.996094 250.875 341.15625 251.96875 C 341.320312 253.066406 341.457031 254.164062 341.5625 255.269531 C 341.671875 256.371094 341.753906 257.476562 341.808594 258.582031 C 341.863281 259.6875 341.890625 260.796875 341.890625 261.90625 Z M 341.890625 261.90625 " fill="#ffffff"/><path data-cppathid="10011" fill-rule="nonzero" fill-opacity="1" d="M 301.710938 294.644531 L 270.460938 263.394531 L 270.460938 227.679688 L 277.15625 227.679688 L 277.15625 260.417969 L 306.917969 290.179688 Z M 301.710938 294.644531 " fill="#d8e6e9"/><path data-cppathid="10012" fill-rule="nonzero" fill-opacity="1" d="M 301.710938 308.035156 L 295.015625 306.546875 L 299.480469 289.433594 L 315.105469 280.507812 L 318.824219 286.457031 L 305.429688 293.898438 Z M 301.710938 308.035156 " fill="#d8e6e9"/><path data-cppathid="10013" fill-rule="nonzero" fill-opacity="1" d="M 273.4375 229.910156 L 257.070312 222.46875 L 260.042969 216.519531 L 273.4375 222.46875 L 287.574219 217.261719 L 290.550781 223.214844 Z M 273.4375 229.910156 " fill="#d8e6e9"/><path data-cppathid="10014" fill-rule="nonzero" fill-opacity="1" d="M 247.394531 308.035156 L 242.1875 293.898438 L 228.050781 287.945312 L 231.027344 281.25 L 247.394531 288.691406 L 253.347656 305.058594 Z M 247.394531 308.035156 " fill="#d8e6e9"/><path data-cppathid="10015" fill-rule="nonzero" fill-opacity="1" d="M 271.476562 259.792969 L 276.210938 264.527344 L 246.222656 294.515625 L 241.488281 289.78125 Z M 271.476562 259.792969 " fill="#d8e6e9"/><path data-cppathid="10016" fill-rule="nonzero" fill-opacity="1" d="M 286.832031 302.828125 C 284.597656 305.058594 281.621094 305.058594 279.390625 302.828125 C 277.15625 300.59375 277.15625 297.617188 279.390625 295.386719 C 281.621094 293.15625 289.804688 288.691406 291.292969 290.921875 C 293.527344 292.410156 289.0625 300.59375 286.832031 302.828125 Z M 286.832031 302.828125 " fill="#d8e6e9"/><path data-cppathid="10017" fill-rule="nonzero" fill-opacity="1" d="M 279.390625 287.945312 C 279.390625 290.921875 277.15625 293.15625 274.179688 293.15625 C 271.207031 293.15625 268.972656 290.921875 268.972656 287.945312 C 268.972656 284.96875 271.207031 276.042969 274.179688 276.042969 C 276.414062 276.042969 279.390625 284.96875 279.390625 287.945312 Z M 279.390625 287.945312 " fill="#d8e6e9"/><path data-cppathid="10018" fill-rule="nonzero" fill-opacity="1" d="M 268.230469 295.386719 C 270.460938 297.617188 270.460938 300.59375 268.230469 302.828125 C 265.996094 305.058594 263.019531 305.058594 260.789062 302.828125 C 258.554688 300.59375 254.09375 292.410156 256.324219 290.921875 C 257.8125 288.691406 265.996094 293.15625 268.230469 295.386719 Z M 268.230469 295.386719 " fill="#d8e6e9"/><path data-cppathid="10019" fill-rule="nonzero" fill-opacity="1" d="M 300.96875 232.144531 C 303.945312 233.632812 305.429688 237.351562 303.945312 240.328125 C 302.457031 243.304688 298.734375 244.792969 295.757812 243.304688 C 292.78125 241.816406 284.597656 235.117188 286.085938 232.144531 C 287.574219 229.167969 297.992188 230.65625 300.96875 232.144531 Z M 300.96875 232.144531 " fill="#d8e6e9"/><path data-cppathid="10020" fill-rule="nonzero" fill-opacity="1" d="M 294.269531 248.511719 C 297.246094 247.023438 300.96875 248.511719 302.457031 252.230469 C 303.945312 255.207031 302.457031 258.929688 298.734375 260.417969 C 295.757812 261.90625 284.597656 262.648438 283.855469 259.671875 C 282.367188 256.695312 290.550781 250 294.269531 248.511719 Z M 294.269531 248.511719 " fill="#d8e6e9"/><path data-cppathid="10021" fill-rule="nonzero" fill-opacity="1" d="M 309.152344 263.394531 C 312.128906 262.648438 315.847656 264.136719 316.59375 267.855469 C 317.335938 270.832031 315.847656 274.554688 312.128906 275.296875 C 309.152344 276.042969 297.992188 276.785156 297.246094 273.066406 C 296.503906 270.089844 305.429688 264.136719 309.152344 263.394531 Z M 309.152344 263.394531 " fill="#d8e6e9"/><path data-cppathid="10022" fill-rule="nonzero" fill-opacity="1" d="M 247.394531 231.398438 C 244.417969 232.886719 242.929688 236.605469 244.417969 239.582031 C 245.90625 242.558594 249.628906 244.046875 252.605469 242.558594 C 255.582031 241.070312 263.765625 234.375 262.277344 231.398438 C 261.53125 228.421875 250.371094 230.65625 247.394531 231.398438 Z M 247.394531 231.398438 " fill="#d8e6e9"/><path data-cppathid="10023" fill-rule="nonzero" fill-opacity="1" d="M 254.835938 248.511719 C 251.859375 247.023438 248.140625 248.511719 246.652344 252.230469 C 245.164062 255.207031 246.652344 258.929688 250.371094 260.417969 C 254.09375 261.90625 264.507812 262.648438 265.253906 259.671875 C 266.742188 255.953125 257.8125 249.257812 254.835938 248.511719 Z M 254.835938 248.511719 " fill="#d8e6e9"/><path data-cppathid="10024" fill-rule="nonzero" fill-opacity="1" d="M 239.957031 262.648438 C 236.980469 261.90625 233.257812 263.394531 232.515625 267.113281 C 231.769531 270.089844 233.257812 273.808594 236.980469 274.554688 C 239.957031 275.296875 251.117188 276.042969 251.859375 272.320312 C 251.859375 269.34375 242.929688 263.394531 239.957031 262.648438 Z M 239.957031 262.648438 " fill="#d8e6e9"/></svg>