<?xml version="1.0" encoding="UTF-8"?>
<svg xmlns="http://www.w3.org/2000/svg" onmouseup="{ if(window.parent.document.onmouseup) window.parent.document.onmouseup(arguments[0]);}" version="1.0" preserveAspectRatio="xMidYMid meet" height="500" viewBox="0 0 375 374.999991" zoomAndPan="magnify" width="500" xmlns:xlink="http://www.w3.org/1999/xlink"><defs><clipPath id="df226e996d"><path data-cppathid="10000" clip-rule="nonzero" d="M 0 175 L 366.75 175 L 366.75 281.25 L 0 281.25 Z M 0 175 "/></clipPath></defs><g clip-path="url(#df226e996d)"><path data-cppathid="10001" fill-rule="nonzero" fill-opacity="1" d="M 366.546875 228.308594 C 366.546875 257.550781 284.535156 281.257812 183.375 281.257812 C 82.214844 281.257812 0.207031 257.550781 0.207031 228.308594 C 0.207031 199.066406 82.214844 175.359375 183.375 175.359375 C 284.535156 175.359375 366.546875 199.066406 366.546875 228.308594 " fill="#fcaf3f"/></g><path data-cppathid="10002" fill-rule="nonzero" fill-opacity="1" d="M 184.609375 189.519531 C 269.359375 191.90625 332.394531 219.234375 350.917969 227.691406 C 351.480469 226.273438 351.765625 224.835938 351.765625 223.378906 C 351.765625 199.921875 276.925781 180.898438 184.609375 180.898438 C 92.285156 180.898438 17.445312 199.921875 17.445312 223.378906 C 17.445312 224.835938 17.730469 226.273438 18.292969 227.691406 C 30.636719 213.167969 98.480469 190.363281 184.605469 189.519531 Z M 184.609375 189.519531 " fill="#916127"/><path data-cppathid="10003" fill-rule="nonzero" fill-opacity="1" d="M 184.609375 265.863281 C 271.203125 265.863281 342.417969 249.128906 350.917969 227.691406 C 342.417969 206.253906 271.203125 189.519531 184.609375 189.519531 C 98.007812 189.519531 26.792969 206.253906 18.296875 227.691406 C 26.792969 249.128906 98.011719 265.863281 184.609375 265.863281 " fill="#d3984a"/><path data-cppathid="10004" fill-rule="nonzero" fill-opacity="1" d="M 282.015625 256.605469 C 322.207031 243.335938 317.417969 175.496094 276.578125 159.675781 C 275.816406 159.960938 276.46875 159.855469 276.578125 159.675781 C 286.152344 144.347656 191.691406 104.089844 167.765625 115.078125 C 167.757812 115.183594 166.789062 127.851562 167.769531 136.148438 C 168.746094 144.480469 167.277344 156.492188 167.769531 161.882812 C 168.253906 167.273438 169.484375 205.996094 170.953125 208.199219 C 172.386719 210.347656 274.082031 254.136719 282.015625 256.605469 Z M 282.015625 256.605469 " fill="#ebdcb5"/><path data-cppathid="10005" fill-rule="nonzero" fill-opacity="1" d="M 340.542969 167.519531 C 338.828125 162.125 336.128906 143.75 337.109375 141.296875 C 337.84375 139.457031 337.066406 134.460938 335.496094 130.9375 C 313.144531 133.523438 276.347656 147.945312 276.578125 159.675781 C 278.085938 171.722656 281.933594 190.296875 283.136719 199.695312 C 284.683594 211.820312 281.019531 239.386719 282.011719 256.605469 C 282.226562 256.671875 282.382812 256.714844 282.460938 256.722656 C 285.398438 256.96875 310.890625 241.285156 314.5625 239.320312 C 318.242188 237.359375 328.289062 226.578125 330.246094 225.597656 C 332.210938 224.621094 344.464844 214.324219 345.933594 210.160156 C 347.40625 205.996094 342.257812 172.910156 340.542969 167.519531 " fill="#c5ba9e"/><path data-cppathid="10006" fill-rule="nonzero" fill-opacity="1" d="M 242.757812 145.339844 C 248.273438 148.648438 273.636719 159.1875 276.578125 159.675781 C 278.839844 160.054688 316.441406 140.160156 335.496094 130.9375 C 334.972656 129.753906 334.359375 128.738281 333.683594 128.0625 C 330.984375 125.367188 251.335938 102.574219 248.886719 100.617188 C 246.4375 98.652344 233.53125 93.753906 225.683594 95.46875 C 217.84375 97.183594 167.441406 115.074219 167.441406 115.074219 L 167.441406 115.078125 C 178.964844 119.765625 196.078125 127.441406 198.117188 127.695312 C 201.058594 128.0625 237.246094 142.03125 242.757812 145.339844 " fill="#fdfdfb"/><path data-cppathid="10007" fill-rule="nonzero" fill-opacity="1" d="M 166.804688 134.035156 L 167.332031 129.214844 C 167.332031 129.214844 224.4375 166.421875 237.027344 180.902344 C 249.617188 195.375 273.714844 217.449219 269.984375 228.847656 C 266.25 240.253906 166.804688 134.035156 166.804688 134.035156 " fill="#bfb39b"/><path data-cppathid="10008" fill-rule="nonzero" fill-opacity="1" d="M 241.484375 259.414062 C 241.484375 259.414062 238.640625 261.140625 237.082031 260.785156 C 235.519531 260.433594 233.90625 259.789062 230.410156 258.230469 C 226.910156 256.664062 225.675781 253.492188 222.714844 251.988281 C 219.753906 250.476562 202.539062 239.929688 201.675781 237.996094 C 200.8125 236.058594 197.691406 226.371094 197.691406 226.371094 L 211.359375 218.882812 Z M 241.484375 259.414062 " fill="#a09578"/><path data-cppathid="10009" fill-rule="nonzero" fill-opacity="1" d="M 30.347656 162.511719 C 15.074219 198.824219 101.023438 229.617188 117.582031 232.160156 C 137.941406 235.285156 197.8125 242.738281 207.996094 218.277344 C 205.484375 213.59375 129.964844 158.117188 124.773438 157.441406 C 119.492188 156.75 72.800781 162.488281 58.347656 162.488281 C 46.082031 162.488281 34.472656 160.667969 30.347656 162.511719 Z M 30.347656 162.511719 " fill="#fffefa"/><path data-cppathid="10010" fill-rule="nonzero" fill-opacity="1" d="M 115.0625 255.347656 C 115.226562 252.765625 116.4375 252.765625 116.035156 249.777344 C 115.75 247.679688 117.414062 233.351562 118.429688 225.019531 C 112.542969 224.078125 90.597656 210.640625 81.570312 204.296875 C 72.207031 197.71875 57.03125 184.078125 45.085938 175.359375 C 38.75 170.738281 33.703125 165.976562 30.347656 162.511719 C 29.609375 162.839844 29.082031 163.269531 28.859375 163.867188 C 28.859375 163.867188 18.308594 190.476562 22.4375 200.117188 C 22.4375 200.117188 17.617188 203.328125 17.847656 209.75 C 18.078125 216.175781 25.1875 215.71875 28.859375 217.78125 C 32.535156 219.851562 51.808594 240.5 67.871094 246.691406 C 83.929688 252.886719 90.585938 258.164062 97.46875 260.457031 C 100.949219 261.617188 108.011719 262.601562 114.910156 263.5625 C 114.816406 261.273438 114.941406 257.308594 115.0625 255.347656 " fill="#d6c8a3"/><path data-cppathid="10011" fill-rule="nonzero" fill-opacity="1" d="M 208.066406 218.472656 C 208.066406 218.421875 208.039062 218.355469 207.996094 218.277344 C 192.835938 220.941406 123.496094 225.082031 119.019531 225.082031 C 118.847656 225.082031 118.648438 225.054688 118.429688 225.023438 C 117.414062 233.351562 115.75 247.679688 116.035156 249.777344 C 116.4375 252.765625 115.226562 252.765625 115.0625 255.347656 C 114.941406 257.308594 114.820312 261.273438 114.910156 263.5625 C 121.65625 264.496094 128.25 265.402344 131.199219 266.425781 C 137.164062 268.492188 164.929688 269.40625 174.792969 266.425781 C 184.660156 263.445312 185.808594 264.359375 190.625 262.984375 C 195.449219 261.605469 205.773438 258.851562 205.773438 256.558594 C 205.773438 254.265625 204.164062 247.613281 204.164062 242.792969 C 204.164062 237.972656 208.066406 221.453125 208.066406 218.472656 " fill="#b7ac8e"/><path data-cppathid="10012" fill-rule="nonzero" fill-opacity="1" d="M 200.050781 218.882812 C 225.199219 235.539062 240.96875 199.3125 226.308594 177.378906 C 220.390625 172.019531 214 166.6875 207.167969 161.632812 C 169.703125 133.894531 131.085938 106.332031 128.25 109.113281 C 128.25 109.113281 125.082031 112.210938 120.929688 116.292969 C 116.769531 120.371094 105.792969 128.273438 103.210938 130.890625 C 100.632812 133.507812 96.539062 135.085938 100.277344 139.027344 C 104.019531 142.972656 176.765625 201.949219 179.277344 203.144531 C 181.148438 204.039062 193.121094 212.933594 200.050781 218.882812 Z M 200.050781 218.882812 " fill="#ecdebb"/><path data-cppathid="10013" fill-rule="nonzero" fill-opacity="1" d="M 269.984375 228.847656 C 269.472656 226.066406 252.835938 201.433594 226.304688 177.378906 C 224.257812 183.214844 218.554688 195.585938 216.523438 198.121094 C 213.941406 201.351562 212.003906 202.15625 210.574219 207.164062 C 209.703125 210.203125 204.21875 215.328125 200.050781 218.882812 C 202.421875 220.921875 204.210938 222.613281 204.789062 223.523438 C 207.074219 227.089844 232.972656 255.867188 235.707031 259.714844 C 238.445312 263.558594 245.371094 256.101562 251.464844 252.390625 C 257.558594 248.679688 270.609375 232.253906 269.984375 228.847656 " fill="#d3cdb5"/><path data-cppathid="10014" fill-rule="nonzero" fill-opacity="1" d="M 341.625 205.90625 C 341.625 207.671875 340.820312 209.105469 339.820312 209.105469 C 338.824219 209.105469 338.015625 207.671875 338.015625 205.90625 C 338.015625 204.140625 338.824219 202.710938 339.820312 202.710938 C 340.820312 202.710938 341.625 204.140625 341.625 205.90625 " fill="#aa9f8a"/><path data-cppathid="10015" fill-rule="nonzero" fill-opacity="1" d="M 337.277344 201.4375 C 337.277344 202.414062 336.804688 203.203125 336.214844 203.203125 C 335.625 203.203125 335.148438 202.414062 335.148438 201.4375 C 335.148438 200.464844 335.625 199.675781 336.214844 199.675781 C 336.804688 199.675781 337.277344 200.464844 337.277344 201.4375 " fill="#aa9f8a"/><path data-cppathid="10016" fill-rule="nonzero" fill-opacity="1" d="M 124.585938 234.554688 C 124.585938 236.113281 123.757812 237.375 122.742188 237.375 C 121.726562 237.375 120.898438 236.113281 120.898438 234.554688 C 120.898438 232.996094 121.726562 231.734375 122.742188 231.734375 C 123.757812 231.734375 124.585938 232.996094 124.585938 234.554688 " fill="#918674"/><path data-cppathid="10017" fill-rule="nonzero" fill-opacity="1" d="M 130.03125 237.027344 C 130.03125 237.992188 129.398438 238.769531 128.628906 238.769531 C 127.847656 238.769531 127.21875 237.992188 127.21875 237.027344 C 127.21875 236.070312 127.847656 235.285156 128.628906 235.285156 C 129.398438 235.285156 130.03125 236.070312 130.03125 237.027344 " fill="#918674"/><path data-cppathid="10018" fill-rule="nonzero" fill-opacity="1" d="M 122.742188 240.789062 C 122.742188 241.675781 122.332031 242.394531 121.820312 242.394531 C 121.308594 242.394531 120.898438 241.675781 120.898438 240.789062 C 120.898438 239.90625 121.308594 239.1875 121.820312 239.1875 C 122.332031 239.1875 122.742188 239.90625 122.742188 240.789062 " fill="#918674"/><path data-cppathid="10019" fill-rule="nonzero" fill-opacity="1" d="M 213.421875 219.425781 C 213.421875 220.65625 212.828125 221.65625 212.09375 221.65625 C 211.359375 221.65625 210.765625 220.65625 210.765625 219.425781 C 210.765625 218.191406 211.359375 217.195312 212.09375 217.195312 C 212.828125 217.195312 213.421875 218.191406 213.421875 219.425781 " fill="#aa9f8a"/></svg>