<?xml version="1.0" encoding="UTF-8"?>
<svg xmlns="http://www.w3.org/2000/svg" onmouseup="{ if(window.parent.document.onmouseup) window.parent.document.onmouseup(arguments[0]);}" viewBox="0 0 1021.55 230.26"><defs><style>.cls-1,.cls-10,.cls-100,.cls-101,.cls-102,.cls-103,.cls-104,.cls-11,.cls-12,.cls-13,.cls-14,.cls-15,.cls-16,.cls-17,.cls-18,.cls-19,.cls-2,.cls-20,.cls-21,.cls-22,.cls-23,.cls-24,.cls-25,.cls-26,.cls-27,.cls-28,.cls-29,.cls-3,.cls-30,.cls-31,.cls-32,.cls-33,.cls-34,.cls-35,.cls-36,.cls-37,.cls-38,.cls-39,.cls-4,.cls-40,.cls-41,.cls-42,.cls-43,.cls-44,.cls-45,.cls-46,.cls-47,.cls-48,.cls-49,.cls-5,.cls-50,.cls-51,.cls-52,.cls-53,.cls-54,.cls-55,.cls-56,.cls-57,.cls-58,.cls-59,.cls-6,.cls-60,.cls-61,.cls-62,.cls-63,.cls-64,.cls-65,.cls-66,.cls-67,.cls-68,.cls-69,.cls-7,.cls-70,.cls-71,.cls-72,.cls-73,.cls-74,.cls-75,.cls-76,.cls-77,.cls-78,.cls-79,.cls-8,.cls-80,.cls-81,.cls-82,.cls-83,.cls-84,.cls-85,.cls-86,.cls-87,.cls-88,.cls-89,.cls-9,.cls-90,.cls-91,.cls-92,.cls-93,.cls-94,.cls-95,.cls-96,.cls-97,.cls-98,.cls-99{fill:#fff;stroke:#fff;stroke-miterlimit:10;}.cls-1{stroke-width:0.16px;}.cls-2{stroke-width:0.16px;}.cls-3{stroke-width:0.19px;}.cls-4{stroke-width:0.2px;}.cls-5{stroke-width:0.15px;}.cls-6{stroke-width:0.17px;}.cls-7{stroke-width:0.22px;}.cls-8{stroke-width:0.2px;}.cls-9{stroke-width:0.18px;}.cls-10{stroke-width:0.11px;}.cls-11{stroke-width:0.15px;}.cls-12{stroke-width:0.21px;}.cls-13{stroke-width:0.16px;}.cls-14{stroke-width:0.18px;}.cls-15{stroke-width:0.13px;}.cls-16{stroke-width:0.2px;}.cls-17{stroke-width:0.11px;}.cls-18{stroke-width:0.19px;}.cls-19{stroke-width:0.15px;}.cls-20{stroke-width:0.16px;}.cls-21{stroke-width:0.11px;}.cls-22{stroke-width:0.14px;}.cls-23{stroke-width:0.21px;}.cls-24{stroke-width:0.13px;}.cls-25{stroke-width:0.14px;}.cls-26{stroke-width:0.11px;}.cls-27{stroke-width:0.16px;}.cls-28{stroke-width:0.13px;}.cls-29{stroke-width:0.12px;}.cls-30{stroke-width:0.14px;}.cls-31{stroke-width:0.12px;}.cls-32{stroke-width:0.16px;}.cls-33{stroke-width:0.19px;}.cls-34{stroke-width:0.14px;}.cls-35{stroke-width:0.21px;}.cls-36{stroke-width:0.12px;}.cls-37{stroke-width:0.11px;}.cls-38{stroke-width:0.15px;}.cls-39{stroke-width:0.14px;}.cls-40{stroke-width:0.2px;}.cls-41{stroke-width:0.14px;}.cls-42{stroke-width:0.12px;}.cls-43{stroke-width:0.13px;}.cls-44{stroke-width:0.22px;}.cls-45{stroke-width:0.11px;}.cls-46{stroke-width:0.14px;}.cls-47{stroke-width:0.16px;}.cls-48{stroke-width:0.17px;}.cls-49{stroke-width:0.18px;}.cls-50{stroke-width:0.17px;}.cls-51{stroke-width:0.18px;}.cls-52{stroke-width:0.2px;}.cls-53{stroke-width:0.13px;}.cls-54{stroke-width:0.19px;}.cls-55{stroke-width:0.19px;}.cls-56{stroke-width:0.19px;}.cls-57{stroke-width:0.14px;}.cls-58{stroke-width:0.19px;}.cls-59{stroke-width:0.12px;}.cls-60{stroke-width:0.22px;}.cls-61{stroke-width:0.15px;}.cls-62{stroke-width:0.13px;}.cls-63{stroke-width:0.19px;}.cls-64{stroke-width:0.22px;}.cls-65{stroke-width:0.11px;}.cls-66{stroke-width:0.12px;}.cls-67{stroke-width:0.16px;}.cls-68{stroke-width:0.13px;}.cls-69{stroke-width:0.22px;}.cls-70{stroke-width:0.12px;}.cls-71{stroke-width:0.12px;}.cls-72{stroke-width:0.22px;}.cls-73{stroke-width:0.13px;}.cls-74{stroke-width:0.21px;}.cls-75{stroke-width:0.21px;}.cls-76{stroke-width:0.15px;}.cls-77{stroke-width:0.14px;}.cls-78{stroke-width:0.12px;}.cls-79{stroke-width:0.16px;}.cls-80{stroke-width:0.22px;}.cls-81{stroke-width:0.16px;}.cls-82{stroke-width:0.21px;}.cls-83{stroke-width:0.11px;}.cls-84{stroke-width:0.14px;}.cls-85{stroke-width:0.18px;}.cls-86{stroke-width:0.13px;}.cls-87{stroke-width:0.16px;}.cls-88{stroke-width:0.12px;}.cls-89{stroke-width:0.21px;}.cls-90{stroke-width:0.18px;}.cls-91{stroke-width:0.2px;}.cls-92{stroke-width:0.12px;}.cls-93{stroke-width:0.15px;}.cls-94{stroke-width:0.16px;}.cls-95{stroke-width:0.14px;}.cls-96{stroke-width:0.2px;}.cls-97{stroke-width:0.15px;}.cls-98{stroke-width:0.12px;}.cls-99{stroke-width:0.13px;}.cls-100{stroke-width:0.18px;}.cls-101{stroke-width:0.18px;}.cls-102{stroke-width:0.14px;}.cls-103{stroke-width:0.14px;}.cls-104{stroke-width:0.21px;}</style></defs><g data-name="Layer 2" id="Layer_2"><g data-name="Layer 1" id="Layer_1-2"><circle data-cppathid="10000" transform="translate(6.97 339.19) rotate(-18.96)" r="2.46" cy="148.71" cx="1019.2" class="cls-1"/><circle data-cppathid="10001" transform="translate(528.69 933.45) rotate(-64.56)" r="2.46" cy="48.26" cx="1003.17" class="cls-2"/><circle data-cppathid="10002" transform="translate(-23.1 185.7) rotate(-10.49)" r="2.85" cy="218.63" cx="999.7" class="cls-3"/><circle data-cppathid="10003" transform="matrix(0.99, -0.14, 0.14, 0.99, -8.45, 143.02)" r="3.01" cy="129.69" cx="980.71" class="cls-4"/><circle data-cppathid="10004" transform="translate(731.31 1106.23) rotate(-84.4)" r="2.29" cy="149.87" cx="975.63" class="cls-5"/><circle data-cppathid="10005" transform="translate(33.03 544.84) rotate(-31.72)" r="2.54" cy="214.3" cx="975.31" class="cls-6"/><circle data-cppathid="10006" transform="translate(10.3 204.63) rotate(-12.21)" r="3.3" cy="54.2" cx="961.55" class="cls-7"/><circle data-cppathid="10007" transform="translate(140.12 541.89) rotate(-34.13)" r="2.96" cy="42.72" cx="952.68" class="cls-8"/><circle data-cppathid="10008" transform="translate(741.78 997.55) rotate(-81.88)" r="2.68" cy="71.23" cx="945.85" class="cls-9"/><circle data-cppathid="10009" transform="translate(-8.31 124.68) rotate(-7.58)" r="1.69" cy="125.01" cx="936.31" class="cls-10"/><circle data-cppathid="10010" transform="translate(-9.68 57.05) rotate(-3.53)" r="2.3" cy="185.74" cx="922.15" class="cls-11"/><circle data-cppathid="10011" transform="translate(64.39 366.88) rotate(-23.13)" r="3.08" cy="26.13" cx="928.49" class="cls-12"/><circle data-cppathid="10012" transform="translate(596.56 1040.48) rotate(-81.06)" r="2.35" cy="171.39" cx="906.72" class="cls-13"/><circle data-cppathid="10013" transform="translate(602.71 959.9) rotate(-77.06)" r="2.73" cy="101.54" cx="904.03" class="cls-14"/><circle data-cppathid="10014" transform="translate(570.37 885.28) rotate(-70.97)" r="1.89" cy="42.61" cx="906.08" class="cls-15"/><circle data-cppathid="10015" transform="translate(-0.97 89.58) rotate(-5.74)" r="2.99" cy="54.5" cx="892.71" class="cls-16"/><circle data-cppathid="10016" transform="translate(66.19 396.25) rotate(-26.35)" r="1.71" cy="56.74" cx="879.53" class="cls-17"/><circle data-cppathid="10017" transform="translate(145.67 529.85) rotate(-36.96)" r="2.87" cy="47" cx="865.5" class="cls-18"/><circle data-cppathid="10018" transform="translate(33.38 239.4) rotate(-16.28)" r="2.28" cy="3.03" cx="853.45" class="cls-19"/><circle data-cppathid="10019" transform="translate(224.05 592.04) rotate(-44.45)" r="2.42" cy="21.84" cx="836.52" class="cls-20"/><circle data-cppathid="10020" transform="translate(246.49 645.56) rotate(-48.99)" r="1.62" cy="52.29" cx="831.66" class="cls-21"/><circle data-cppathid="10021" transform="translate(217.02 791.02) rotate(-58.45)" r="2.11" cy="201.54" cx="815.53" class="cls-22"/><circle data-cppathid="10022" transform="translate(2.69 165.2) rotate(-11.63)" r="3.11" cy="69.39" cx="812.27" class="cls-23"/><circle data-cppathid="10023" transform="translate(105.02 445.85) rotate(-32.89)" r="1.98" cy="45.05" cx="807.64" class="cls-24"/><circle data-cppathid="10024" transform="translate(555.31 846.44) rotate(-79.37)" r="2.04" cy="88.6" cx="787.71" class="cls-25"/><circle data-cppathid="10025" transform="translate(40.35 264.76) rotate(-19.98)" r="1.65" cy="17.81" cx="771.87" class="cls-26"/><circle data-cppathid="10026" transform="translate(44.53 311.77) rotate(-23.63)" r="2.42" cy="49.42" cx="767.62" class="cls-27"/><circle data-cppathid="10027" transform="translate(71.07 494.15) rotate(-37.51)" r="1.95" cy="142.4" cx="763.27" class="cls-28"/><circle data-cppathid="10028" transform="translate(419.38 709.53) rotate(-66.83)" r="1.77" cy="36.96" cx="747.37" class="cls-29"/><circle data-cppathid="10029" transform="translate(49.8 345.99) rotate(-27.38)" r="2.14" cy="70.76" cx="735.13" class="cls-30"/><circle data-cppathid="10030" transform="translate(224.15 755.53) rotate(-62.66)" r="1.87" cy="193.64" cx="732.7" class="cls-31"/><circle data-cppathid="10031" transform="translate(400.02 716.01) rotate(-69.15)" r="2.43" cy="67.8" cx="719.46" class="cls-32"/><circle data-cppathid="10032" transform="translate(143.28 614.6) rotate(-51.63)" r="2.83" cy="159.21" cx="706.86" class="cls-33"/><circle data-cppathid="10033" transform="translate(-0.21 16.15) rotate(-1.33)" r="2.08" cy="16.96" cx="696.5" class="cls-34"/><circle data-cppathid="10034" transform="matrix(0.09, -1, 1, 0.09, 447.81, 836.36)" r="3.16" cy="172.35" cx="683.03" class="cls-35"/><circle data-cppathid="10035" transform="translate(567.25 780.8) rotate(-89.57)" r="1.86" cy="104.66" cx="676.94" class="cls-36"/><circle data-cppathid="10036" transform="translate(488.4 654.81) rotate(-74.74)" r="1.72" cy="7.65" cx="672.91" class="cls-37"/><circle data-cppathid="10037" transform="translate(12.1 145.36) rotate(-12.62)" r="2.24" cy="17.94" cx="663.39" class="cls-38"/><circle data-cppathid="10038" transform="translate(208.93 621.53) rotate(-59.78)" r="2.12" cy="129.01" cx="645.13" class="cls-39"/><circle data-cppathid="10039" transform="translate(-6.31 49.19) rotate(-4.41)" r="3.03" cy="106.47" cx="635.17" class="cls-40"/><circle data-cppathid="10040" transform="translate(227.93 614.08) rotate(-61.3)" r="2.09" cy="114.73" cx="632.08" class="cls-41"/><circle data-cppathid="10041" transform="translate(488.37 698.93) rotate(-84.98)" r="1.81" cy="82.91" cx="625.66" class="cls-42"/><circle data-cppathid="10042" transform="translate(495.91 682.87) rotate(-84.71)" r="2" cy="69.46" cx="622.47" class="cls-43"/><circle data-cppathid="10043" transform="translate(394.79 672.82) rotate(-77.4)" r="3.26" cy="90.02" cx="617.31" class="cls-44"/><circle data-cppathid="10044" transform="translate(528.91 632.34) rotate(-84.37)" r="1.67" cy="24.37" cx="613.31" class="cls-45"/><circle data-cppathid="10045" transform="translate(33.66 338.56) rotate(-32.22)" r="2.06" cy="111.02" cx="602.88" class="cls-46"/><circle data-cppathid="10046" transform="translate(-0.56 1.65) rotate(-0.16)" r="2.35" cy="200.48" cx="591.8" class="cls-47"/><circle data-cppathid="10047" transform="translate(-22.32 342.11) rotate(-32.1)" r="2.59" cy="209.84" cx="583.45" class="cls-48"/><circle data-cppathid="10048" transform="translate(221.77 530.7) rotate(-59.93)" r="2.77" cy="73.02" cx="571.13" class="cls-49"/><circle data-cppathid="10049" transform="translate(8.44 99.96) rotate(-10.16)" r="2.55" cy="2.53" cx="566.42" class="cls-50"/><circle data-cppathid="10050" transform="translate(27.01 183.04) rotate(-19.18)" r="2.76" cy="11.58" cx="555.2" class="cls-51"/><circle data-cppathid="10051" transform="translate(-39.98 198.56) rotate(-19.86)" r="2.95" cy="213.44" cx="547" class="cls-52"/><circle data-cppathid="10052" transform="translate(52.57 318.22) rotate(-34.43)" r="1.98" cy="74.27" cx="539.87" class="cls-53"/><circle data-cppathid="10053" transform="translate(-4.83 258.21) rotate(-27.45)" r="2.83" cy="138.99" cx="526.28" class="cls-54"/><circle data-cppathid="10054" transform="translate(229.35 644.79) rotate(-77.05)" r="2.82" cy="178.36" cx="519.62" class="cls-55"/><circle data-cppathid="10055" transform="translate(232.96 526.74) rotate(-68.68)" r="2.82" cy="92.88" cx="501.97" class="cls-56"/><circle data-cppathid="10056" transform="translate(44.37 460.1) rotate(-51.24)" r="2.16" cy="183.79" cx="501.86" class="cls-57"/><circle data-cppathid="10057" transform="translate(369.01 530.54) rotate(-83.44)" r="2.86" cy="58.34" cx="482.02" class="cls-58"/><circle data-cppathid="10058" transform="translate(245.18 529.67) rotate(-74.38)" r="1.77" cy="103.27" cx="471.64" class="cls-59"/><circle data-cppathid="10059" transform="translate(-25.41 83.9) rotate(-9.95)" r="3.25" cy="187.83" cx="468.99" class="cls-60"/><circle data-cppathid="10060" transform="translate(73.86 433.51) rotate(-54.98)" r="2.3" cy="145.78" cx="453.51" class="cls-61"/><circle data-cppathid="10061" transform="translate(-12.56 34.06) rotate(-4.29)" r="1.91" cy="184.92" cx="448.87" class="cls-62"/><circle data-cppathid="10062" transform="translate(69.14 267.33) rotate(-38.13)" r="2.92" cy="33.65" cx="421.29" class="cls-63"/><circle data-cppathid="10063" transform="translate(363.83 422.83) rotate(-85.85)" r="3.3" cy="15.83" cx="409.22" class="cls-64"/><circle data-cppathid="10064" transform="translate(188.06 576.01) rotate(-82.57)" r="1.68" cy="180.92" cx="422.01" class="cls-65"/><circle data-cppathid="10065" transform="translate(277 438.59) rotate(-80.7)" r="1.77" cy="56.27" cx="396.63" class="cls-66"/><circle data-cppathid="10066" transform="translate(-52.45 211.66) rotate(-27.43)" r="2.39" cy="213.26" cx="407.33" class="cls-67"/><circle data-cppathid="10067" transform="translate(-20.33 360.48) rotate(-47.76)" r="1.99" cy="203.2" cx="396.91" class="cls-68"/><circle data-cppathid="10068" transform="translate(-17.73 238.27) rotate(-33.93)" r="3.35" cy="148.19" cx="381.66" class="cls-69"/><circle data-cppathid="10069" transform="translate(86.94 259.27) rotate(-45)" r="1.86" cy="24.69" cx="356.43" class="cls-70"/><circle data-cppathid="10070" transform="translate(-39.36 167.06) rotate(-24.28)" r="1.8" cy="175.01" cx="368.57" class="cls-71"/><circle data-cppathid="10071" transform="translate(125.39 352.92) rotate(-63.8)" r="3.22" cy="75.74" cx="346.18" class="cls-72"/><circle data-cppathid="10072" transform="translate(77.9 314.84) rotate(-56.09)" r="1.98" cy="84.3" cx="334.43" class="cls-73"/><circle data-cppathid="10073" transform="translate(-20.09 78.06) rotate(-13.35)" r="3.19" cy="124.85" cx="323.38" class="cls-74"/><circle data-cppathid="10074" transform="translate(47.97 190.24) rotate(-37.12)" r="3.13" cy="23.68" cx="307.26" class="cls-75"/><circle data-cppathid="10075" transform="matrix(0.55, -0.84, 0.84, 0.55, 101.45, 272.07)" r="2.2" cy="42.18" cx="302.43" class="cls-76"/><circle data-cppathid="10076" transform="translate(147.28 432.03) rotate(-86.31)" r="2.12" cy="137.48" cx="304.02" class="cls-77"/><circle data-cppathid="10077" transform="translate(-64.97 252.95) rotate(-42.27)" r="1.81" cy="210.52" cx="294.7" class="cls-78"/><circle data-cppathid="10078" transform="translate(-46.95 372.55) rotate(-61.89)" r="2.4" cy="225.43" cx="287.22" class="cls-79"/><circle data-cppathid="10079" transform="matrix(0.99, -0.13, 0.13, 0.99, -23.34, 36.13)" r="3.23" cy="203.87" cx="275.98" class="cls-80"/><circle data-cppathid="10080" transform="translate(18.28 299.05) rotate(-62.04)" r="2.35" cy="134.32" cx="257.78" class="cls-81"/><circle data-cppathid="10081" transform="translate(5.07 202.33) rotate(-45.5)" r="3.22" cy="95.12" cx="243.8" class="cls-82"/><circle data-cppathid="10082" transform="matrix(0.79, -0.62, 0.62, 0.79, 26.78, 150.62)" r="1.6" cy="36.47" cx="231.79" class="cls-83"/><circle data-cppathid="10083" transform="translate(40.98 400.58) rotate(-88.34)" r="2.09" cy="179.19" cx="226.68" class="cls-84"/><circle data-cppathid="10084" transform="translate(51.63 221.36) rotate(-61.42)" r="2.72" cy="67.22" cx="212.15" class="cls-85"/><circle data-cppathid="10085" transform="translate(-11.8 59.7) rotate(-16.63)" r="1.9" cy="70.21" cx="198.31" class="cls-86"/><circle data-cppathid="10086" transform="translate(-48.66 261.93) rotate(-63.34)" r="2.37" cy="170.4" cx="187.96" class="cls-87"/><circle data-cppathid="10087" transform="translate(-79.81 96.28) rotate(-24.94)" r="1.83" cy="228.58" cx="177.76" class="cls-88"/><circle data-cppathid="10088" transform="translate(-27.88 48.24) rotate(-15.21)" r="3.15" cy="128.54" cx="166.7" class="cls-89"/><circle data-cppathid="10089" transform="translate(-6.24 8.1) rotate(-2.91)" r="2.64" cy="126.91" cx="156.39" class="cls-90"/><circle data-cppathid="10090" transform="translate(-31.76 63.26) rotate(-21.84)" r="2.96" cy="113.96" cx="148.09" class="cls-91"/><circle data-cppathid="10091" transform="translate(-29.51 165.74) rotate(-56.33)" r="1.84" cy="110.42" cx="140.01" class="cls-92"/><circle data-cppathid="10092" transform="translate(-41.94 84.78) rotate(-32.19)" r="2.19" cy="115.07" cx="125.93" class="cls-93"/><circle data-cppathid="10093" transform="translate(-111.81 105.87) rotate(-35.45)" r="2.42" cy="227.81" cx="109.69" class="cls-94"/><circle data-cppathid="10094" transform="translate(-87.06 108.23) rotate(-42.1)" r="2.05" cy="167.22" cx="97.07" class="cls-95"/><circle data-cppathid="10095" transform="translate(-7.97 29.66) rotate(-18.59)" r="3.02" cy="39.17" cx="86.64" class="cls-96"/><circle data-cppathid="10096" transform="translate(-131.93 127.11) rotate(-48.57)" r="2.32" cy="209.75" cx="74.9" class="cls-97"/><circle data-cppathid="10097" transform="translate(-37.79 66.54) rotate(-44.08)" r="1.76" cy="79.95" cx="63.28" class="cls-98"/><circle data-cppathid="10098" transform="translate(-45.77 81.28) rotate(-55.04)" r="2" cy="84.57" cx="55.13" class="cls-99"/><circle data-cppathid="10099" transform="translate(-56.61 32.99) rotate(-25.02)" r="2.63" cy="144.06" cx="46.03" class="cls-100"/><circle data-cppathid="10100" transform="translate(-13.76 7.31) rotate(-10.73)" r="2.66" cy="76.9" cx="32.02" class="cls-101"/><circle data-cppathid="10101" transform="translate(-21.45 27.37) rotate(-38.71)" r="2.07" cy="44.21" cx="28.23" class="cls-102"/><circle data-cppathid="10102" transform="translate(-150.1 77.19) rotate(-48.21)" r="2.1" cy="206.34" cx="11.21" class="cls-103"/><circle data-cppathid="10103" transform="translate(-139.39 73.4) rotate(-53.83)" r="3.14" cy="173.98" cx="2.6" class="cls-104"/></g></g></svg>