<?xml version="1.0" encoding="UTF-8"?>
<svg xmlns="http://www.w3.org/2000/svg" onmouseup="{ if(window.parent.document.onmouseup) window.parent.document.onmouseup(arguments[0]);}" viewBox="0 0 698.64 700" xmlns:xlink="http://www.w3.org/1999/xlink"><defs><style>.cls-1{fill:none;}.cls-2{clip-path:url(#clip-path);}.cls-3{fill:#008594;}.cls-4{fill:#00a7af;}.cls-5{fill:#93c647;}.cls-6{fill:#a6d062;}</style><clipPath transform="translate(177.81 -147.4)" id="clip-path"><rect data-cppathid="10000" height="435.08" width="509.05" class="cls-1"/></clipPath></defs><g data-name="Layer 2" id="Layer_2"><g data-name="Layer 1" id="Layer_1-2"><g id="globe"><g class="cls-2"><path data-cppathid="10001" transform="translate(177.81 -147.4)" d="M520.83,497.39c0,193.31-156.4,350-349.32,350s-349.32-156.7-349.32-350,156.4-350,349.32-350S520.83,304.1,520.83,497.39Z" class="cls-3"/><path data-cppathid="10002" transform="translate(177.81 -147.4)" d="M432.31,408.71C432.31,553,315.54,670,171.51,670s-260.8-117-260.8-261.3S27.48,147.4,171.51,147.4,432.31,264.39,432.31,408.71Z" class="cls-4"/><path data-cppathid="10003" transform="translate(177.81 -147.4)" d="M95.61,600.62C88.38,596.4,81.11,592,73.38,589c-15.9-6.33-30.54-13.77-37.9-30.61-3.23-7.39-8.12-12.45-17.19-11.63-6.19.56-7.57-5.13-8.35-9C6.4,520.2-5.17,519.59-18.52,523.79c-7.28,2.3-13.14,2.26-16.4-5.19-7.47-17-17.11-13.05-27.86-3.6a68.09,68.09,0,0,1-10,6.9c-11.67,7-18.36,5-24.18-7.59a44.6,44.6,0,0,1-3.41-11.6c-.87-5.42-3.49-7.8-9-8-13.92-.49-15.61-6.23-7.77-17.3,3-4.27,4.46-11.39-.68-15-4.28-3-9.91-.78-13.24,3.88-6.3,8.79-16.27,8.45-20.13,1.55-4.66-8.34-18.23-15.9-7.95-29.32,12.67-16.52,32-19.73,49.82-25.15,11.17-3.4,17,8.56,24.69,14.45.62.48,1.92.07,2.9.07.45-.92,1.27-1.79,1.18-2.55-.17-1.46-1.23-2.83-1.29-4.28-.68-15.22.22-29.24,19.27-33.53,8.42-1.9,11-9.91,12.25-17.44,1.63-10,7.06-16,16.63-18.19,10.56-2.43,17-6.46,21-18.75,2-6.16,21.48,1,28.8-10.6a13.38,13.38,0,0,1,1-1.13c3.51-4.13,9.93-8.21,6.67-14-3.62-6.37-9.67-1.1-14.51.33-4.26,1.25-9.47,4-11.39-1.68-1.51-4.47,3.13-8.5,6.62-11,2.61-1.83,6.78-1.74,10.28-1.91,9.56-.48,19.15-.38,28.68-1,5.09-.36,11-1.87,12.25-7.34,1.38-5.9-4.35-7.65-8.74-9.74-4.54-2.15-9.57-4.11-9.83-10.33C36.78,255,30,250.72,22.25,248c-5.28-1.85-8-4.44-8.93-10-.89-5.29-4.35-9.64-9.84-10.18s-7.9,4.63-9.6,8.5c-7.12,16.18-18.29,29.86-26.89,45.09-1.53,2.71-2.54,5.94-6.18,5.39-1.38-.2-3.44-2.66-3.45-4.1-.12-15.91-12.89-17.81-23.72-21.1-6-1.83-8.11-5.54-8.61-10.79a7.68,7.68,0,0,1,0-1.44A349.12,349.12,0,0,0-177.6,486a54.88,54.88,0,0,0,18.38,10.16c20.66,6.84,36.81,19.91,51,35.7,4.18,4.66,8.6,6.58,14.51,6.31,6.56-.32,13.87-1.53,16.89,6.43,2.69,7.11.83,13.9-3.79,20-15.69,20.57-16.75,43.58-11.5,67.8,4.6,21.13,19.58,33.87,36.58,44.1,15.64,9.4,20.39,22.87,18.86,39.55-1.88,20.48-.2,41.07-1.23,61.56a348.93,348.93,0,0,0,49,30.82,10.63,10.63,0,0,1,2.61-3.29C23.45,796.68,23.93,778,42.44,779c.86,0,2.15-3.23,2.82-5.11,3.37-9.43,11-20,9-28.17-5.4-22.49,10.14-23.57,23.6-29.45,20.52-9,24.62-15.1,19.35-30.82-6-17.75-2.52-32.21,7.62-47.33C116.37,621,113.17,610.86,95.61,600.62Z" class="cls-5"/><path data-cppathid="10004" transform="translate(177.81 -147.4)" d="M501.57,443.14c-10,4.38-14.74-1-19.85-7-4.43-5.19-10.29-12.08-4.51-18,6.46-6.57,12.79-.78,17.41,5.19,2.71,3.5,6.3,4.62,10.61,4.72,3.26.07,7.48.55,9.28,2.86A350,350,0,0,0,391.73,225.72a24,24,0,0,1-6.08,1.68c-4.41-4.65-10.13-8.29-11.65-15.18h.06a348,348,0,0,0-37.14-23.16c-9.3,1.35-18.16,5.6-25.85,10.89-10.87,7.49-17.55,22.26-30,30.81-5.2,3.58-3.25,12.87-.49,18.56,2.86,5.9,7.88.1,11.9-.5,5.94-.89,10.17,0,14.19,5.57,6.55,9.14,13.74,7.25,18.66-3,2.09-4.39-.22-7.69-.36-11.47-.66-17.83,9-28.29,25.89-26-14.4,4.11-13.44,16.21-12,25,1.53,9.36,10.06-3.08,15.15,1.6-3.22,7.07-12.47,9.82-13.9,18.65-2.14,13.16-14.62,15.54-23.79,18.3-5.49,1.65-14.62-3.88-17.11-12.82-1.26-4.54-5.39-4.66-8.71-3.41-3.84,1.44-2.65,5.22-1.28,7.76,4.37,8.07-.4,9.61-6.81,10.25-3.37,3.68-1.44,11.64-9.37,11.63h.13l-3.11,3.15,0-.12c-3.53.47-6.44,0-4.68-4.59,8.06-20.78.12-35.41-22.37-39.36,2.25,9,8.2,16.57,7.22,26-.89,8.51-8.07,18.91,6.35,23.28l-2.4,3.75c-3.28.33-7-.9-10.1,4,7.34,3.25,13.45,8.17,10.43,17.19-3.48,10.36-12.68,5.33-19.55,6.49a8.75,8.75,0,0,1-3,0c-9.58-1.7-15,3.66-15.72,12-.66,7.7-5.18,18.77,6.84,21.85,9.06,2.32,19.49,15.19,27.91,2.11,7.38-11.45,17.39-19.77,26.14-29.56,6.2-6.95,15.06-9.31,21.53-4.6,6.82,5,19.35,7.25,16.79,20.45-.58,3-5.08,6.48,1.15,8,4,1,7.14-1.67,8.05-5.23,1.47-5.72,7.33-11.12,1.51-17.76-2.18-2.49-4.58-6.33,0-9s6.19,1.84,8.23,4.35a23.05,23.05,0,0,1,5,17.06c-.47,5.29.86,9.95,4.87,13.72,1.91,1.8,3.78,3.39,6.6,2.87,5.79-1.07,1.4-4.64,1.31-6.75-.27-6.21,2.14-11.44,7.31-13.64,5.83-2.47,9.09,2.7,11.58,7.23,5.88,10.66,15.56,14.86,26.79,17.68,5.62,1.41,16,.54,14.45,9.56-1.31,7.68-5.79,15.59-16.32,17.4-11.58,2-22-.74-32.51-4.4-8.82-3.08-18.11-5.53-25.43,1.27-6.06,5.64-9.08,4.31-12.52-1.55-6.61-11.24-15.93-15.39-29-19.38-24.45-7.48-44.35,1.5-62.68,11.92-38.13,21.66-42.16,64.47-52.24,101.23-3.82,13.94,14,30.12,22.27,45.14,2.9,5.28,7.05,9.85,10.5,14.85,7,10.11,18.52,12.32,28.12,5,11.78-9,27.17.37,39.13-7.83.53-.37,2.72,1.16,3.79,2.17,7.68,7.28,16.89,12.16,26.65,16.43-12,13.75-14,14.91-4.84,30.67,10,17.18,2.26,37.89,13.92,54.11,1.37,1.91-.61,6.79-1.88,10-10.21,25.67-7.06,50.18,5.85,74a9.09,9.09,0,0,0,2.41.79c5,12.31,8,25,6.63,38.42-.69,6.53,1.4,12.32,8.79,9.76,16.85-5.83,36.95-1.41,50.69-17.59,6.65-7.83,13.58-14.43,11.94-25.78-.8-5.46,2.16-9.26,6-13s8.11-8.93,5.72-14.55c-6.17-14.47,2.35-21.64,13.05-26.79,11.78-5.66,14.48-14.19,13.56-26.44-1.18-15.56-.09-31.3-.77-46.93s11.87-24.07,18.48-35.3c9.54-16.17,14.76-33.58,21.21-50.71,1.08-2.87,4.12-6.66.47-9.71-2.94-2.45-5.54,1.26-8.23,1.43-6.9.43-16.92,9.62-19.76.22-2.19-7.24,10.5-9.72,17.46-12,24.51-8.14,40.76-21.49,41.66-50.21C514.88,440.39,508.91,439.92,501.57,443.14Zm-52.5,67.67c-7.07-.36-6.88-6.89-10.77-8.52-3.18-6.26-7.47-12.2-9.32-18.84-3.59-12.78-2.86-27.56-18.51-33.58-.31-.12-.34-.91-.57-1.36-4.13-8.23-9.34-16.66-6-26,1.06-2.95,6.93-6.93,11.6-5.17,10,3.79,16.34,11.08,18.22,22.13,2,11.82-3.59,25.8,9.4,34.63h0C455.88,484.69,447.28,497.91,449.07,510.81Z" class="cls-5"/><path data-cppathid="10005" transform="translate(177.81 -147.4)" d="M198.32,173.29c4.91-9.13,6.75-17.54,5.87-24.36-10.75-1-21.66-1.53-32.68-1.53A348.93,348.93,0,0,0,75.6,160.76c1.52,1.51,3.85,2.14,4.94,3.7C87,173.6,102.26,183,96.35,192.78c-8.54,14.13-5.24,24.4.13,36.48,2.13,4.79,1.23,12.65,8.33,12.86,7.29.23,13.36-4.33,16.61-11.12C128,217.33,139.3,210.49,153,204.87,170.11,197.8,188.48,191.6,198.32,173.29Z" class="cls-5"/><path data-cppathid="10006" transform="translate(177.81 -147.4)" d="M-18.46,220.94c4-.5,6.21-3.42,8.65-7,13.38-19.46,18.6-20.54,39.43-10.49,5.7,2.75,9.53,7.38,14.31,11,6.65,5.07,13.46,4.89,18.9-1.44,6.69-7.79-1.95-9.83-5.85-13.5-3.25-3.07-6.65-5.76-9.41-9.58-3.36-4.64-14.25-8.28-24.32-9.57a346.71,346.71,0,0,0-37.67,20.65,70,70,0,0,1-8.14,13.28C-25.33,218.12-24.36,221.1-18.46,220.94Z" class="cls-5"/><path data-cppathid="10007" transform="translate(177.81 -147.4)" d="M191.61,219.3c-.46,6,5.38,10.92,9.32,9.3,5.76-2.37,15.22-3,15.87-11.27.62-7.9-6.92-4.85-11.41-5.61C199.49,211.94,192.29,210.58,191.61,219.3Z" class="cls-5"/><path data-cppathid="10008" transform="translate(177.81 -147.4)" d="M23.66,215c-2.64.78-8.77-1.63-7.43,3.47,1.57,5.94,6.31,12.1,13.73,11.16,3.72-.47,11.56-.39,10.6-6C39.14,215.37,31,215.07,23.66,215Z" class="cls-5"/><path data-cppathid="10009" transform="translate(177.81 -147.4)" d="M55.83,296.91c-4-.47-8.53-.4-7.69,5.83.55,4.09-1,9.8,6.1,9.72,5.3-.07,7.75-3.73,9.36-8.1C63.62,299,59.92,297.39,55.83,296.91Z" class="cls-5"/><path data-cppathid="10010" transform="translate(177.81 -147.4)" d="M236.43,286c5.36-1.06,8.27-4.17,8-9.51-.2-4.84-2.85-6.94-7.93-6.87-6.1.08-6.11,4-6.06,8.19S230.5,286.3,236.43,286Z" class="cls-5"/><path data-cppathid="10011" transform="translate(177.81 -147.4)" d="M95.61,600.62C88.38,596.4,81.11,592,73.38,589c-15.9-6.33-30.54-13.77-37.9-30.61-3.23-7.39-8.12-12.45-17.19-11.63-6.19.56-7.57-5.13-8.35-9C6.4,520.2-5.17,519.59-18.52,523.79c-7.28,2.3-13.14,2.26-16.4-5.19-7.47-17-17.11-13.05-27.86-3.6a37.08,37.08,0,0,1-3,2.34A261.64,261.64,0,0,0,95.46,658.71c1.59-7,4.79-13.71,9.4-20.59C116.37,621,113.17,610.86,95.61,600.62Z" class="cls-6"/><path data-cppathid="10012" transform="translate(177.81 -147.4)" d="M-62.56,387.5c8.42-1.9,11-9.91,12.25-17.44,1.63-10,7.06-16,16.63-18.19,10.56-2.43,17-6.46,21-18.75,2-6.16,21.48,1,28.8-10.6a13.38,13.38,0,0,1,1-1.13c3.51-4.13,9.93-8.21,6.67-14-3.62-6.37-9.67-1.1-14.51.33-4.26,1.25-9.47,4-11.39-1.68-1.51-4.47,3.13-8.5,6.62-11,2.61-1.83,6.78-1.74,10.28-1.91,9.56-.48,19.15-.38,28.68-1,5.09-.36,11-1.87,12.25-7.34,1.38-5.9-4.35-7.65-8.74-9.74-4.54-2.15-9.57-4.11-9.83-10.33C36.78,255,30,250.72,22.25,248c-5.28-1.85-8-4.44-8.93-10-.89-5.29-4.35-9.64-9.84-10.18s-7.9,4.63-9.6,8.5c-7.12,16.18-18.29,29.86-26.89,45.09-1.53,2.71-2.54,5.94-6.18,5.39-1.38-.2-3.44-2.66-3.45-4.1,0-6.89-2.48-11.14-6.09-14a260.43,260.43,0,0,0-40.56,140c0,5.12.17,10.2.46,15.24a37.49,37.49,0,0,0,4.21,3.84c.62.48,1.92.07,2.9.07.45-.92,1.27-1.79,1.18-2.55-.17-1.46-1.23-2.83-1.29-4.28C-82.51,405.81-81.61,391.79-62.56,387.5Z" class="cls-6"/><path data-cppathid="10013" transform="translate(177.81 -147.4)" d="M292.51,248.82c5.94-.89,10.17,0,14.19,5.57,6.55,9.14,13.74,7.25,18.66-3,2.09-4.39-.22-7.69-.36-11.47-.58-15.61,6.77-25.57,19.94-26.3a261.26,261.26,0,0,0-24.32-19.26,79.06,79.06,0,0,0-9.55,5.64c-10.87,7.49-17.55,22.26-30,30.81-5.2,3.58-3.25,12.87-.49,18.56C283.47,255.22,288.49,249.42,292.51,248.82Z" class="cls-6"/><path data-cppathid="10014" transform="translate(177.81 -147.4)" d="M347,215.36c-10.22,5-9.36,15.58-8.06,23.44,1.53,9.36,10.06-3.08,15.15,1.6-3.22,7.07-12.47,9.82-13.9,18.65-2.14,13.16-14.62,15.54-23.79,18.3-5.49,1.65-14.62-3.88-17.11-12.82-1.26-4.54-5.39-4.66-8.71-3.41-3.84,1.44-2.65,5.22-1.28,7.76,4.37,8.07-.4,9.61-6.81,10.25-3.37,3.68-1.44,11.64-9.37,11.63h.13l-3.11,3.15,0-.12c-3.53.47-6.44,0-4.68-4.59,8.06-20.78.12-35.41-22.37-39.36,2.25,9,8.2,16.57,7.22,26-.89,8.51-8.07,18.91,6.35,23.28l-2.4,3.75c-3.28.33-7-.9-10.1,4,7.34,3.25,13.45,8.17,10.43,17.19-3.48,10.36-12.68,5.33-19.55,6.49a8.75,8.75,0,0,1-3,0c-9.58-1.7-15,3.66-15.72,12-.66,7.7-5.18,18.77,6.84,21.85,9.06,2.32,19.49,15.19,27.91,2.11,7.38-11.45,17.39-19.77,26.14-29.56,6.2-6.95,15.06-9.31,21.53-4.6,6.82,5,19.35,7.25,16.79,20.45-.58,3-5.08,6.48,1.15,8,4,1,7.14-1.67,8.05-5.23,1.47-5.72,7.33-11.12,1.51-17.76-2.18-2.49-4.58-6.33,0-9s6.19,1.84,8.23,4.35a23.05,23.05,0,0,1,5,17.06c-.47,5.29.86,9.95,4.87,13.72,1.91,1.8,3.78,3.39,6.6,2.87,5.79-1.07,1.4-4.64,1.31-6.75-.27-6.21,2.14-11.44,7.31-13.64,5.83-2.47,9.09,2.7,11.58,7.23,5.88,10.66,15.56,14.86,26.79,17.68,5.62,1.41,16,.54,14.45,9.56-1.31,7.68-5.79,15.59-16.32,17.4-11.58,2-22-.74-32.51-4.4-8.82-3.08-18.11-5.53-25.43,1.27-6.06,5.64-9.08,4.31-12.52-1.55-6.61-11.24-15.93-15.39-29-19.38-24.45-7.48-44.35,1.5-62.68,11.92-38.13,21.66-42.16,64.47-52.24,101.23-3.82,13.94,14,30.12,22.27,45.14,2.9,5.28,7.05,9.85,10.5,14.85,7,10.11,18.52,12.32,28.12,5,11.78-9,27.17.37,39.13-7.83.53-.37,2.72,1.16,3.79,2.17,7.68,7.28,16.89,12.16,26.65,16.43-12,13.75-14,14.91-4.84,30.67,6.12,10.52,5.6,22.35,6.95,33.67A261.62,261.62,0,0,0,425.51,468.21c-2.06-7.74-5.5-14.67-15-18.34-.31-.12-.34-.91-.57-1.36-4.13-8.23-9.34-16.66-6-26,1.06-2.95,6.93-6.93,11.6-5.17,7.36,2.78,12.71,7.48,15.78,14.16.65-7.52,1-15.12,1-22.8A260.85,260.85,0,0,0,347,215.36Z" class="cls-6"/><path data-cppathid="10015" transform="translate(177.81 -147.4)" d="M198.32,173.29c4.78-8.9,6.68-17.12,6-23.85a264.39,264.39,0,0,0-32.77-2,259.83,259.83,0,0,0-91.46,16.53,3.46,3.46,0,0,1,.49.53C87,173.6,102.26,183,96.35,192.78c-8.54,14.13-5.24,24.4.13,36.48,2.13,4.79,1.23,12.65,8.33,12.86,7.29.23,13.36-4.33,16.61-11.12C128,217.33,139.3,210.49,153,204.87,170.11,197.8,188.48,191.6,198.32,173.29Z" class="cls-6"/><path data-cppathid="10016" transform="translate(177.81 -147.4)" d="M43.93,214.51c6.65,5.07,13.46,4.89,18.9-1.44,6.69-7.79-1.95-9.83-5.85-13.5-3.25-3.07-6.65-5.76-9.41-9.58-1.64-2.26-5.1-4.28-9.35-5.91q-11,6.57-21.31,14.18a84.46,84.46,0,0,1,12.71,5.22C35.32,206.23,39.15,210.86,43.93,214.51Z" class="cls-6"/><path data-cppathid="10017" transform="translate(177.81 -147.4)" d="M191.61,219.3c-.46,6,5.38,10.92,9.32,9.3,5.76-2.37,15.22-3,15.87-11.27.62-7.9-6.92-4.85-11.41-5.61C199.49,211.94,192.29,210.58,191.61,219.3Z" class="cls-6"/><path data-cppathid="10018" transform="translate(177.81 -147.4)" d="M30,229.62c3.72-.47,11.56-.39,10.6-6-1.42-8.24-9.58-8.54-16.9-8.62-2.64.78-8.77-1.63-7.43,3.47C17.8,224.4,22.54,230.56,30,229.62Z" class="cls-6"/><path data-cppathid="10019" transform="translate(177.81 -147.4)" d="M55.83,296.91c-4-.47-8.53-.4-7.69,5.83.55,4.09-1,9.8,6.1,9.72,5.3-.07,7.75-3.73,9.36-8.1C63.62,299,59.92,297.39,55.83,296.91Z" class="cls-6"/></g></g></g></g></svg>