<?xml version="1.0" encoding="UTF-8"?>
<svg xmlns="http://www.w3.org/2000/svg" onmouseup="{ if(window.parent.document.onmouseup) window.parent.document.onmouseup(arguments[0]);}" viewBox="0 0 96.49 90"><defs><style>.cls-1{fill:#4f1f2c;}.cls-2{fill:#20180f;}.cls-3{fill:#c63938;}</style></defs><g data-name="Layer 2" id="Layer_2"><g data-name="Layer 1" id="Layer_1-2"><rect data-cppathid="10000" transform="translate(-18.11 21.9) rotate(-21.19)" height="18.85" width="60.73" y="49.94" x="19.14" class="cls-1"/><rect data-cppathid="10001" transform="translate(-19.17 22.56) rotate(-21.19)" height="12.06" width="8.06" y="56.5" x="46.7" class="cls-2"/><path data-cppathid="10002" d="M14.26,24.27,33.08,17,51.9,9.69c4.66-1.81,7.6-6.62,7.6-6.62s.5,9.39-5.77,11.83L35.07,22.13,16.42,29.36c-6.28,2.43-12.24-4.85-12.24-4.85S9.6,26.08,14.26,24.27Z" class="cls-3"/><path data-cppathid="10003" d="M33.08,17,17,23.2c1.78,2,4.36,4.22,6.59,3.36l11.44-4.43,11.44-4.44c2.23-.86,2.65-4.23,2.6-6.92Z" class="cls-3"/><rect data-cppathid="10004" transform="translate(-11.68 17.92) rotate(-21.19)" height="9.52" width="46.21" y="35.44" x="18.97" class="cls-1"/><rect data-cppathid="10005" transform="translate(-15.48 20.28) rotate(-21.19)" height="2.04" width="60.73" y="50.51" x="16.1" class="cls-2"/><rect data-cppathid="10006" transform="translate(-22.06 14.14) rotate(-21.19)" height="14.86" width="3.42" y="58.61" x="25.07" class="cls-3"/><rect data-cppathid="10007" transform="translate(-25 15.97) rotate(-21.19)" height="3.99" width="5.21" y="72.83" x="27.58" class="cls-3"/><rect data-cppathid="10008" transform="translate(-22.45 24.59) rotate(-21.19)" height="3.6" width="88.63" y="70.5" x="10.2" class="cls-2"/><rect data-cppathid="10009" transform="translate(-7.05 15.05) rotate(-21.19)" height="9.11" width="35.51" y="21.82" x="18.97" class="cls-1"/><rect data-cppathid="10010" transform="translate(-5.84 14.31) rotate(-21.19)" height="1.4" width="39.32" y="22.08" x="15.66" class="cls-2"/><rect data-cppathid="10011" transform="translate(-5.74 14.24) rotate(-21.19)" height="0.7" width="39.32" y="22.1" x="15.54" class="cls-2"/><rect data-cppathid="10012" transform="translate(154.5 69.06) rotate(158.81)" height="14.86" width="3.42" y="41.55" x="69.08" class="cls-3"/><rect data-cppathid="10013" transform="translate(164.26 84.81) rotate(158.81)" height="3.99" width="5.21" y="55.77" x="71.59" class="cls-3"/><rect data-cppathid="10014" transform="translate(-20.31 16.97) rotate(-21.19)" height="14.86" width="3.42" y="55.34" x="33.49" class="cls-3"/><rect data-cppathid="10015" transform="translate(-23.25 18.79) rotate(-21.19)" height="3.99" width="5.21" y="69.56" x="36.01" class="cls-3"/><rect data-cppathid="10016" transform="translate(139.4 78.42) rotate(158.81)" height="14.86" width="3.42" y="44.82" x="60.65" class="cls-3"/><rect data-cppathid="10017" transform="translate(149.15 94.17) rotate(158.81)" height="3.99" width="5.21" y="59.04" x="63.16" class="cls-3"/><polygon data-cppathid="10018" points="26.5 0 14.26 24.27 51.9 9.69 26.5 0" class="cls-3"/><polygon data-cppathid="10019" points="28.16 4.31 19.03 22.43 47.13 11.54 28.16 4.31" class="cls-2"/><rect data-cppathid="10020" transform="translate(-15.48 20.28) rotate(-21.19)" height="2.04" width="64.8" y="50.51" x="14.07" class="cls-2"/><rect data-cppathid="10021" transform="translate(-15.27 20.15) rotate(-21.19)" height="0.69" width="64.8" y="50.56" x="13.83" class="cls-2"/><rect data-cppathid="10022" transform="translate(-8.76 23.98) rotate(-21.19)" height="5.79" width="0.48" y="32.51" x="59.49" class="cls-3"/><rect data-cppathid="10023" transform="translate(-11.11 20.19) rotate(-21.19)" height="5.79" width="0.48" y="36.9" x="48.18" class="cls-3"/><rect data-cppathid="10024" transform="translate(-13.46 16.4) rotate(-21.19)" height="5.79" width="0.48" y="41.28" x="36.87" class="cls-3"/><rect data-cppathid="10025" transform="translate(-15.8 12.61) rotate(-21.19)" height="5.79" width="0.48" y="45.66" x="25.56" class="cls-3"/><rect data-cppathid="10026" transform="translate(-11.38 17.73) rotate(-21.19)" height="0.48" width="46.21" y="39.04" x="18.62" class="cls-3"/><rect data-cppathid="10027" transform="translate(-4.93 19.78) rotate(-21.19)" height="5.35" width="0.48" y="20.4" x="50.19" class="cls-3"/><rect data-cppathid="10028" transform="translate(-6.73 16.87) rotate(-21.19)" height="5.35" width="0.48" y="23.77" x="41.5" class="cls-3"/><rect data-cppathid="10029" transform="translate(-8.54 13.96) rotate(-21.19)" height="5.35" width="0.48" y="27.13" x="32.81" class="cls-3"/><rect data-cppathid="10030" transform="translate(-10.34 11.05) rotate(-21.19)" height="5.35" width="0.48" y="30.5" x="24.12" class="cls-3"/><rect data-cppathid="10031" transform="translate(-6.8 14.9) rotate(-21.19)" height="0.48" width="35.5" y="25.39" x="18.68" class="cls-3"/><path data-cppathid="10032" d="M16.26,36.54a.6.6,0,1,1,.33-.77A.59.59,0,0,1,16.26,36.54ZM16,35.89a.1.1,0,0,0-.06.14c0,.11.25,0,.2-.08A.1.1,0,0,0,16,35.89Z" class="cls-2"/><path data-cppathid="10033" d="M60.12,23.12,17.24,39.74l-1.38-3.56L58.74,19.56Zm-42.61,16,42-16.28-1-2.66-42,16.27Z" class="cls-2"/><path data-cppathid="10034" d="M58.69,20.09a.59.59,0,1,1,.34-.76A.59.59,0,0,1,58.69,20.09Zm-.26-.65a.11.11,0,0,0-.06.14c.05.11.25,0,.21-.08A.11.11,0,0,0,58.43,19.44Z" class="cls-2"/><path data-cppathid="10035" d="M61.84,21.52l-23.48,9.1-23.47,9.1C10.23,41.53,4.81,40,4.81,40s6,7.28,12.23,4.85l23.32-9,23.31-9c6.27-2.43,5.78-11.83,5.78-11.83S66.5,19.71,61.84,21.52Z" class="cls-3"/><path data-cppathid="10036" d="M57.62,23.16,53,24.93,38.36,30.62,23.69,36.31l-4.58,1.77c1.8,2,4.41,4.21,6.68,3.33l14.57-5.65,14.57-5.64C57.2,29.24,57.64,25.85,57.62,23.16Z" class="cls-3"/><rect data-cppathid="10037" transform="translate(-10.43 17.14) rotate(-21.19)" height="1.47" width="50.01" y="35.72" x="15.62" class="cls-2"/><rect data-cppathid="10038" transform="translate(-10.31 17.07) rotate(-21.19)" height="0.74" width="50.01" y="35.74" x="15.49" class="cls-2"/><path data-cppathid="10039" d="M11.56,57.18l32.25-12.5,32.26-12.5c5.35-2.07,8.72-7.59,8.72-7.59s.57,10.77-6.62,13.56L46.1,50.58,14,63C6.84,65.8,0,57.45,0,57.45S6.21,59.26,11.56,57.18Z" class="cls-3"/><path data-cppathid="10040" d="M17.12,52.17a.59.59,0,0,1-.76-.34.59.59,0,1,1,.76.34Zm-.25-.66a.1.1,0,0,0-.06.14c0,.12.25,0,.2-.08A.11.11,0,0,0,16.87,51.51Z" class="cls-2"/><path data-cppathid="10041" d="M70,35.25,18.1,55.37,16.72,51.8,68.63,31.69ZM18.38,54.74,69.38,35l-1-2.66-51,19.77Z" class="cls-2"/><path data-cppathid="10042" d="M68.58,32.22a.59.59,0,1,1,.34-.76A.59.59,0,0,1,68.58,32.22Zm-.26-.65a.11.11,0,0,0-.06.14c0,.11.25,0,.21-.08A.12.12,0,0,0,68.32,31.57Z" class="cls-2"/><path data-cppathid="10043" d="M70.34,34.4l-5.48,2.12-21,8.16-21,8.16L17.29,55c2.1,2.29,5.17,4.78,7.89,3.73L46.1,50.58,67,42.47C69.74,41.42,70.33,37.51,70.34,34.4Z" class="cls-3"/><rect data-cppathid="10044" transform="translate(-21.47 23.98) rotate(-21.19)" height="2.65" width="74.49" y="68.06" x="16.14" class="cls-2"/><polygon data-cppathid="10045" points="14.26 24.27 51.9 9.69 50.64 9.21 14.87 23.07 14.26 24.27" class="cls-2"/></g></g></svg>