<?xml version="1.0" encoding="UTF-8"?>
<svg xmlns="http://www.w3.org/2000/svg" onmouseup="{ if(window.parent.document.onmouseup) window.parent.document.onmouseup(arguments[0]);}" viewBox="0 0 206.91 125.89" xmlns:xlink="http://www.w3.org/1999/xlink"><defs><style>.cls-1{fill:none;}.cls-2{fill:#e45f5a;}.cls-3{clip-path:url(#clip-path);}.cls-4{fill:#242348;}.cls-5,.cls-6{fill:#141430;}.cls-5{opacity:0.61;}.cls-6{opacity:0.22;}.cls-7{fill:#fff;}</style><clipPath transform="translate(8.36 -3.76)" id="clip-path"><rect data-cppathid="10000" transform="translate(-5.63 11.37) rotate(-6.51)" height="90" width="185.19" y="10.21" x="4.51" class="cls-1"/></clipPath></defs><g data-name="Layer 2" id="Layer_2"><g data-name="Layer 1" id="Layer_1-2"><circle data-cppathid="10001" transform="translate(32.38 91.67) rotate(-48.83)" r="17.5" cy="21.26" cx="117.12" class="cls-2"/><g class="cls-3"><path data-cppathid="10002" transform="translate(8.36 -3.76)" d="M3.26,101.85S24.1,88.27,34.1,77.8,58.79,48.86,63.68,42.7,78.16,22.39,81.63,20.13s7.37-.84,12.69-3.31,12.89-1.47,14.94.16,28.36,35.94,44.57,47.16,40.31,22.3,40.31,22.3l3.2,14.92L5.7,123.23Z" class="cls-4"/><path data-cppathid="10003" transform="translate(8.36 -3.76)" d="M-8.36,124.84s24.16-9.78,37.61-27.75,17.3-20.27,18.36-20.76S43,84.79,37.86,92,33,104.84,29.3,108.61s-15.82,7.49-17.54,10.81S-4.83,129.66-4.83,129.66Z" class="cls-5"/><path data-cppathid="10004" transform="translate(8.36 -3.76)" d="M183.11,103s-25.74-4.08-42.9-18.56-21.42-15.85-22.56-16.1,6.37,7.21,13,13.11,7.65,11.37,12.08,14.22,17.1,3.73,19.52,6.58,18.47,6.23,18.47,6.23Z" class="cls-5"/><path data-cppathid="10005" transform="translate(8.36 -3.76)" d="M77.27,78.16a82.1,82.1,0,0,0-3.74,10C72.24,92.9,72.08,94,67.74,98.79s-7.45,9.1-9,13.65-3.21,10-4.68,13.48,2.51,3.47,4.94,3,1.59-4.88,3.36-8.79,3.12-5.19,5.93-10,.63-7.53,4-10.89,6-9.63,6.5-14.91S80,75.62,80,73,77.27,78.16,77.27,78.16Z" class="cls-5"/><path data-cppathid="10006" transform="translate(8.36 -3.76)" d="M63.38,68.11a2.81,2.81,0,0,0-1.23,1.71A34.16,34.16,0,0,1,59.35,78C57.81,80.76,57,81.19,57,83.82s1.46-.9,5.17-4.3,2-6.36,2.9-9.18S63.63,67.63,63.38,68.11Z" class="cls-5"/><path data-cppathid="10007" transform="translate(8.36 -3.76)" d="M96,68.94s1.2,4,1.74,5.4,3.36,3.34,5.42,8.33,3.37,6.69,5.47,8.69,1.63-2,.23-4.5-4.6-4.32-5.26-6.85-3.24-3.72-3.43-6.31S94.41,65,96,68.94Z" class="cls-5"/><path data-cppathid="10008" transform="translate(8.36 -3.76)" d="M-6.53,108.23s19.92-13.29,20.86-14S30.78,82.35,34,77.88s16.07-16,16.76-16.45,3,2.86,2.24,7.87,3.29,7.59-3,18.34-6.56,14.06-9.59,20.41-6.17,11.55-6.17,11.55L21.7,123.65l-14.44.9-15.36-7.2Z" class="cls-6"/><path data-cppathid="10009" transform="translate(8.36 -3.76)" d="M88.12,44.83s-1.42,4.68-.28,8.27-.3,5.5.69,13.46,2.4,9.3,1.54,17-5.8,10.16-3.9,17S78,113.87,78.65,116.4s35.41-3.3,47.18-4.64,26.79-.45,28.42-2.5-.43-7-5.63-10.17-13.55-4.41-16.22-8.21-6.48-13-11.27-16.41-8.69-6.92-9.91-13.36-2.51-14.49-6.9-17S89.87,42.74,88.12,44.83Z" class="cls-6"/><path data-cppathid="10010" transform="translate(8.36 -3.76)" d="M126.74,49.75a76.3,76.3,0,0,0,5.78,12.79c3.2,5.22,13.06,4.84,18.19,11.53S165.6,87.84,173.54,88.8s25,6.83,25,6.83l-4.41-9.19S166.49,72.17,164.65,71s-14.29-8.5-19.34-13.78S129,48.36,126.74,49.75Z" class="cls-6"/><path data-cppathid="10011" transform="translate(8.36 -3.76)" d="M42.91,66.74S41.14,69,41.37,71,52.45,61.6,54.22,59.38s9.54-5.14,10-1.15,4.23,1.55,4.69,5.54,2.91,7.77,4.68,5.54,8.17-17.13,11.94-19.58,6-.68,6.68,5.31,1.14,10,3.14,9.77,4-.46,3.08-8.45,4.86-10.68,5.31-6.68,2.91,7.76,4.68,5.53S110,51,114.64,56.53,128,67.15,130,66.92s-4.68-5.54-5.14-9.53,5.31-6.68,7.54-4.91,13.13,8.62,14.9,6.4S126.8,38.94,121.89,31.4s-14-16.62-18.27-18.16-7.53,4.91-11.76,3.37-10.22-.86-13.76,3.6-10.4,15.35-15.71,22Z" class="cls-7"/></g></g></g></svg>