<?xml version="1.0" encoding="UTF-8"?>
<svg xmlns="http://www.w3.org/2000/svg" onmouseup="{ if(window.parent.document.onmouseup) window.parent.document.onmouseup(arguments[0]);}" viewBox="0 0 151.5 93.41"><defs><style>.cls-1{isolation:isolate;}.cls-2,.cls-3,.cls-4{fill:#c0aea4;}.cls-3{mix-blend-mode:multiply;}.cls-4{mix-blend-mode:screen;}.cls-5{fill:#c38627;}.cls-6{fill:#9c3e2a;}.cls-7{fill:#ea6046;}.cls-8{fill:#903825;}.cls-9{fill:#ac4631;}.cls-10{fill:#6a2410;}.cls-11{fill:#6f0000;}.cls-12{fill:#a8442f;}.cls-13{fill:#9a3e2a;}.cls-14{fill:#44bda5;}.cls-15{fill:#2f8e7c;}</style></defs><g class="cls-1"><g data-name="Layer 2" id="Layer_2"><g data-name="Layer 1" id="Layer_1-2"><path data-cppathid="10000" d="M95.36,43.61l-.42,0h0a2,2,0,0,1-2-1.81.76.76,0,0,1,0-.15,1.13,1.13,0,0,1-1.08-1.06s0,0,0,0a2.64,2.64,0,0,1-2-.49,3.25,3.25,0,0,1-1.27-1.61,2.68,2.68,0,0,1-.19-1.15c0-.16.05-.32.07-.48a3.12,3.12,0,0,1-2-2.64,3,3,0,0,1,.25-1.47l7.75-.6Z" class="cls-2"/><path data-cppathid="10001" d="M95.22,41.9l-.35,0h0a1.68,1.68,0,0,1-1.67-1.54v-.13a1,1,0,0,1-.92-.9s0,0,0,0a2.21,2.21,0,0,1-1.72-.41,2.76,2.76,0,0,1-1.09-1.38,2.31,2.31,0,0,1-.16-1l.06-.41a2.66,2.66,0,0,1-1.45-3.5l6.6-.51Z" class="cls-3"/><path data-cppathid="10002" d="M49.53,47.14l.42,0h0A2,2,0,0,0,51.62,45a.77.77,0,0,0,0-.15,1.14,1.14,0,0,0,.91-1.22s0,0,0,0a2.67,2.67,0,0,0,1.93-.79,3.32,3.32,0,0,0,1-1.79,2.67,2.67,0,0,0,0-1.16c-.05-.16-.1-.31-.14-.47a3.09,3.09,0,0,0,1.51-2.91,3.06,3.06,0,0,0-.46-1.41l-7.76.6Z" class="cls-2"/><path data-cppathid="10003" d="M49.39,45.43l.36,0h0a1.68,1.68,0,0,0,1.42-1.78s0-.08,0-.13a1,1,0,0,0,.77-1s0,0,0,0a2.27,2.27,0,0,0,1.64-.67,2.87,2.87,0,0,0,.86-1.53,2.36,2.36,0,0,0,0-1c0-.13-.09-.26-.12-.4a2.62,2.62,0,0,0,1.29-2.47,2.71,2.71,0,0,0-.4-1.2l-6.6.51Z" class="cls-3"/><path data-cppathid="10004" d="M11.61,74.5l-.66,0h0a3.09,3.09,0,0,0-2.61,3.29.91.91,0,0,0,0,.23A1.77,1.77,0,0,0,6.93,80s0,0,0,0a4.13,4.13,0,0,0-3,1.23,5.15,5.15,0,0,0-1.58,2.82,4,4,0,0,0,0,1.82c.07.25.15.49.22.74A4.86,4.86,0,0,0,.82,93.41L13,92.47Z" class="cls-2"/><path data-cppathid="10005" d="M12.72,77.11l-.56,0h0A2.63,2.63,0,0,0,9.92,80a1.23,1.23,0,0,0,0,.19,1.51,1.51,0,0,0-1.2,1.63s0,0-.05,0a3.43,3.43,0,0,0-2.57,1.05,4.33,4.33,0,0,0-1.35,2.39,3.38,3.38,0,0,0,0,1.55c0,.21.12.42.18.63a4.12,4.12,0,0,0-2,3.88,4,4,0,0,0,.62,1.88l10.36-.8Z" class="cls-3"/><path data-cppathid="10006" d="M137.54,64.78l.66,0h0a3.09,3.09,0,0,1,3.08,2.85,1.77,1.77,0,0,1,0,.23,1.78,1.78,0,0,1,1.7,1.67,0,0,0,0,0,.05,0,4.08,4.08,0,0,1,3.18.76,5.12,5.12,0,0,1,2,2.54,4,4,0,0,1,.29,1.8c0,.25-.07.5-.1.75a4.88,4.88,0,0,1,2.67,6.45l-12.17.94Z" class="cls-2"/><path data-cppathid="10007" d="M136.84,67.53l.56,0h0a2.62,2.62,0,0,1,2.62,2.42v.2a1.52,1.52,0,0,1,1.45,1.42s0,0,0,0a3.51,3.51,0,0,1,2.71.64,4.42,4.42,0,0,1,1.7,2.16,3.5,3.5,0,0,1,.25,1.53l-.09.65A4.12,4.12,0,0,1,148.38,82l-10.36.8Z" class="cls-3"/><rect data-cppathid="10008" transform="translate(-1.44 5.42) rotate(-4.41)" height="7.19" width="49.48" y="17.83" x="44.94" class="cls-2"/><rect data-cppathid="10009" transform="translate(-1.23 5.4) rotate(-4.41)" height="1.58" width="49.48" y="17.83" x="44.72" class="cls-4"/><rect data-cppathid="10010" transform="translate(-1.63 5.45) rotate(-4.41)" height="2.19" width="49.48" y="22.81" x="45.13" class="cls-3"/><rect data-cppathid="10011" transform="translate(-2.03 5.49) rotate(-4.41)" height="12.2" width="49.48" y="22.96" x="45.53" class="cls-2"/><rect data-cppathid="10012" transform="translate(-1.75 5.52) rotate(-4.41)" height="9.75" width="41.49" y="20.58" x="50.07" class="cls-5"/><rect data-cppathid="10013" transform="translate(-2.35 5.53) rotate(-4.41)" height="3.72" width="49.48" y="31.42" x="45.85" class="cls-3"/><rect data-cppathid="10014" transform="translate(-4 2.38) rotate(-4.41)" height="7.19" width="33.02" y="49.54" x="12.35" class="cls-2"/><rect data-cppathid="10015" transform="translate(-3.79 2.35) rotate(-4.41)" height="1.58" width="33.02" y="49.55" x="12.13" class="cls-4"/><rect data-cppathid="10016" transform="translate(-4.19 2.4) rotate(-4.41)" height="2.19" width="33.02" y="54.53" x="12.54" class="cls-3"/><rect data-cppathid="10017" transform="translate(-3.63 2.33) rotate(-4.41)" height="7.87" width="31.62" y="44.37" x="12.63" class="cls-6"/><rect data-cppathid="10018" transform="translate(-3.71 2.37) rotate(-4.41)" height="4.41" width="26.44" y="47.19" x="15.72" class="cls-5"/><rect data-cppathid="10019" transform="translate(-5.22 1.15) rotate(-4.41)" height="48.29" width="7.19" y="44.16" x="8.73" class="cls-2"/><rect data-cppathid="10020" transform="translate(-5.24 0.94) rotate(-4.41)" height="48.29" width="1.58" y="44.38" x="8.74" class="cls-4"/><rect data-cppathid="10021" transform="translate(-5.2 1.34) rotate(-4.41)" height="48.29" width="2.19" y="43.97" x="13.72" class="cls-3"/><rect data-cppathid="10022" transform="translate(-2.27 2.54) rotate(-4.41)" height="4.51" width="29.06" y="28.48" x="17.24" class="cls-7"/><path data-cppathid="10023" d="M46.72,32.12l-29.5,2.27-.39-5,29.5-2.27Zm-29,1.7,28.45-2.19-.31-4L17.4,29.85Z" class="cls-8"/><path data-cppathid="10024" d="M47.05,39.87l-4,.28h0c-14,1.17-23.59,1.85-27.87,2a35.51,35.51,0,0,1-7.87-.57,8.26,8.26,0,0,1-1.62.37,11.73,11.73,0,0,1-3.59-.31l.27,3.52a34.7,34.7,0,0,0,13,1.75c5.5-.16,18.32-1.17,28.11-2l4-.29Z" class="cls-9"/><path data-cppathid="10025" d="M46.21,29l-29,2.23S12.37,44.93,1,41.07l-.43.62S5,44.81,15.2,44.51c5.32-.15,17.51-1.1,28-2l4-.29Z" class="cls-7"/><path data-cppathid="10026" d="M10.41,44.08a26.84,26.84,0,0,0,4.75-8.51c.09-.24.18-.48.26-.71-.35.56-.75,1.15-1.21,1.75A25.47,25.47,0,0,1,10,43.75l-.52.56.62.06Z" class="cls-10"/><path data-cppathid="10027" d="M10.17,40.3c-.32.18-.65.36-1,.52s-.44.54-.67.79a15.22,15.22,0,0,1-2.37,2.15l.65.14a17.27,17.27,0,0,0,2.09-2A16.59,16.59,0,0,0,10.17,40.3Z" class="cls-10"/><path data-cppathid="10028" d="M12.29,44.5l.66,0,.6-.69a27.37,27.37,0,0,0,4.24-8.47c.6-1.8,1-3.37,1.25-4.26l-.52,0c-.61,2.38-2.43,8.82-5.35,12.38C12.88,43.87,12.59,44.2,12.29,44.5Z" class="cls-10"/><path data-cppathid="10029" d="M15.3,44.51l.67,0c.25-.28.48-.58.72-.9a28.43,28.43,0,0,0,3.72-8.43c.53-1.79.89-3.35,1.09-4.24L21,31c-.52,2.37-2.1,8.8-4.69,12.34A13.8,13.8,0,0,1,15.3,44.51Z" class="cls-10"/><path data-cppathid="10030" d="M18.47,44.37l.66,0c.23-.31.47-.65.7-1A29.72,29.72,0,0,0,23,34.94c.45-1.78.75-3.33.92-4.22l-.51,0c-.44,2.36-1.78,8.79-4,12.31A13.78,13.78,0,0,1,18.47,44.37Z" class="cls-10"/><path data-cppathid="10031" d="M22.54,42.83a12.88,12.88,0,0,1-.84,1.34l.62,0c.22-.33.44-.68.65-1.06,2-3.68,3.12-10.27,3.45-12.54l-.5,0c-.14.9-.38,2.38-.73,4.06A31.89,31.89,0,0,1,22.54,42.83Z" class="cls-10"/><path data-cppathid="10032" d="M25,44l.59-.05c.19-.34.38-.7.56-1.1a34.91,34.91,0,0,0,2.18-8.3c.3-1.75.49-3.29.59-4.17l-.5,0c-.27,2.34-1.13,8.75-2.72,12.24C25.43,43.1,25.2,43.55,25,44Z" class="cls-10"/><path data-cppathid="10033" d="M28.23,43.72l.56,0c.16-.35.31-.72.46-1.13,1.31-3.61,1.91-10.13,2.09-12.4l-.5,0c-.18,2.33-.8,8.74-2.06,12.2C28.6,42.87,28.42,43.32,28.23,43.72Z" class="cls-10"/><path data-cppathid="10034" d="M33.55,34.09c.13-1.73.21-3.25.25-4.13l-.49,0c0,.89-.12,2.38-.25,4.06a50.46,50.46,0,0,1-1.15,8.11c-.13.48-.27.92-.41,1.31l.54,0c.12-.35.23-.73.34-1.14A48.72,48.72,0,0,0,33.55,34.09Z" class="cls-10"/><path data-cppathid="10035" d="M36.26,29.77l-.49,0A99.85,99.85,0,0,1,35,41.94c-.09.48-.17.91-.26,1.28l.51,0c.08-.35.16-.73.23-1.16A98.74,98.74,0,0,0,36.26,29.77Z" class="cls-10"/><path data-cppathid="10036" d="M38.73,29.58l-.49,0c0,2.29.17,8.7-.08,12.11,0,.45-.07.86-.11,1.23l.5,0c0-.35.07-.73.1-1.15C38.91,38.31,38.78,31.85,38.73,29.58Z" class="cls-10"/><path data-cppathid="10037" d="M41.19,29.39l-.49,0c.13,2.28.5,8.69.59,12.09q0,.66,0,1.17l.49,0c0-.34,0-.73,0-1.15C41.7,38.08,41.32,31.66,41.19,29.39Z" class="cls-10"/><path data-cppathid="10038" d="M43.65,29.2l-.49,0c.22,2.27.84,8.68,1.27,12.06q.07.63.15,1.14l.49,0c0-.34-.1-.72-.15-1.16C44.48,37.86,43.87,31.47,43.65,29.2Z" class="cls-10"/><path data-cppathid="10039" d="M46.34,30.69c-.09-.68-.17-1.25-.22-1.68l-.5,0c.21,1.59.7,5.2,1.24,8.39Z" class="cls-10"/><path data-cppathid="10040" d="M34.65,43.87a1.4,1.4,0,1,1-1.5-1.28A1.39,1.39,0,0,1,34.65,43.87Z" class="cls-7"/><path data-cppathid="10041" d="M33.39,45.73A1.76,1.76,0,1,1,35,43.85,1.76,1.76,0,0,1,33.39,45.73Zm-.21-2.79a1,1,0,1,0,1.12,1A1.05,1.05,0,0,0,33.18,42.94Z" class="cls-11"/><path data-cppathid="10042" d="M41.37,43.36a1.4,1.4,0,1,1-1.5-1.29A1.4,1.4,0,0,1,41.37,43.36Z" class="cls-7"/><path data-cppathid="10043" d="M40.11,45.21a1.75,1.75,0,1,1,1.61-1.88A1.75,1.75,0,0,1,40.11,45.21Zm-.22-2.79a1,1,0,1,0,1.13,1A1,1,0,0,0,39.89,42.42Z" class="cls-11"/><path data-cppathid="10044" d="M47.19,41.73a1.38,1.38,0,0,0-.78-.17,1.4,1.4,0,1,0,.22,2.79,1.37,1.37,0,0,0,.74-.28Z" class="cls-7"/><path data-cppathid="10045" d="M46.65,44.71a1.76,1.76,0,0,1-.27-3.5,1.85,1.85,0,0,1,1,.21.35.35,0,0,1,.18.28L47.72,44a.36.36,0,0,1-.13.31A1.78,1.78,0,0,1,46.65,44.71Zm-.21-2.8a1,1,0,0,0-1,1.13,1,1,0,0,0,1.12,1,1.19,1.19,0,0,0,.41-.11L46.86,42A1,1,0,0,0,46.44,41.91Z" class="cls-11"/><path data-cppathid="10046" d="M28.07,44.38a1.4,1.4,0,1,1-1.5-1.29A1.41,1.41,0,0,1,28.07,44.38Z" class="cls-7"/><path data-cppathid="10047" d="M26.81,46.24a1.76,1.76,0,1,1,1.61-1.88A1.75,1.75,0,0,1,26.81,46.24Zm-.22-2.79a1,1,0,1,0,1.13,1A1,1,0,0,0,26.59,43.45Z" class="cls-11"/><path data-cppathid="10048" d="M21.5,44.89A1.4,1.4,0,1,1,20,43.6,1.39,1.39,0,0,1,21.5,44.89Z" class="cls-7"/><path data-cppathid="10049" d="M20.24,46.74a1.75,1.75,0,1,1,1.62-1.88A1.75,1.75,0,0,1,20.24,46.74ZM20,44A1,1,0,1,0,20.19,46a1,1,0,0,0,1-1.12A1.05,1.05,0,0,0,20,44Z" class="cls-11"/><path data-cppathid="10050" d="M4.24,43.79a1.4,1.4,0,1,1-1.5-1.29A1.4,1.4,0,0,1,4.24,43.79Z" class="cls-7"/><path data-cppathid="10051" d="M3,45.64a1.75,1.75,0,1,1,1.61-1.88A1.75,1.75,0,0,1,3,45.64Zm-.22-2.79a1,1,0,1,0,1.13,1A1.06,1.06,0,0,0,2.76,42.85Z" class="cls-11"/><path data-cppathid="10052" d="M15.17,45.38a1.4,1.4,0,1,1-1.5-1.29A1.4,1.4,0,0,1,15.17,45.38Z" class="cls-7"/><path data-cppathid="10053" d="M13.91,47.23a1.75,1.75,0,1,1,1.61-1.88A1.74,1.74,0,0,1,13.91,47.23Zm-.22-2.79a1,1,0,1,0,1.13,1A1.05,1.05,0,0,0,13.69,44.44Z" class="cls-11"/><path data-cppathid="10054" d="M9,44.82a1.4,1.4,0,1,1-1.5-1.29A1.4,1.4,0,0,1,9,44.82Z" class="cls-7"/><path data-cppathid="10055" d="M7.77,46.68A1.76,1.76,0,1,1,9.39,44.8,1.76,1.76,0,0,1,7.77,46.68Zm-.21-2.79a1,1,0,1,0,1.12,1A1,1,0,0,0,7.56,43.89Z" class="cls-11"/><path data-cppathid="10056" d="M46.16,28.41l-29,2.23a.6.6,0,0,0-.51.39,21.07,21.07,0,0,1-3.76,6.19C9.61,40.91,5.67,42,1.22,40.5a.6.6,0,0,0-.68.23l-.43.62a.6.6,0,0,0,.15.83A.58.58,0,0,0,1.08,42l.19-.26a12.21,12.21,0,0,0,4.5.54A12,12,0,0,0,13.83,38a22.18,22.18,0,0,0,3.83-6.19l28.6-2.21Z" class="cls-12"/><rect data-cppathid="10057" transform="translate(-3.22 9.15) rotate(-4.41)" height="7.19" width="33.02" y="42.72" x="100.71" class="cls-2"/><rect data-cppathid="10058" transform="translate(-3 9.13) rotate(-4.41)" height="1.58" width="33.02" y="42.73" x="100.49" class="cls-4"/><rect data-cppathid="10059" transform="matrix(1, -0.08, 0.08, 1, -3.41, 9.18)" height="2.19" width="33.02" y="47.71" x="100.9" class="cls-3"/><rect data-cppathid="10060" transform="translate(-2.84 9.11) rotate(-4.41)" height="7.87" width="31.62" y="37.54" x="101.08" class="cls-6"/><rect data-cppathid="10061" transform="translate(-2.93 9.09) rotate(-4.41)" height="4.41" width="26.44" y="40.43" x="103.35" class="cls-5"/><rect data-cppathid="10062" transform="translate(-4.12 10.63) rotate(-4.41)" height="48.29" width="7.19" y="34.63" x="132.28" class="cls-2"/><rect data-cppathid="10063" transform="translate(-4.09 10.84) rotate(-4.41)" height="48.29" width="1.58" y="34.41" x="137.89" class="cls-4"/><rect data-cppathid="10064" transform="translate(-4.14 10.44) rotate(-4.41)" height="48.29" width="2.19" y="34.82" x="132.29" class="cls-3"/><rect data-cppathid="10065" transform="translate(-1.57 8.6) rotate(-4.41)" height="4.51" width="29.06" y="22.38" x="96.37" class="cls-7"/><path data-cppathid="10066" d="M125.85,26l-29.5,2.28-.39-5L125.46,21Zm-29,1.71,28.45-2.19-.31-4-28.44,2.2Z" class="cls-8"/><path data-cppathid="10067" d="M97.21,36l4-.34h0c14-1,23.59-1.79,27.83-2.32a35.68,35.68,0,0,0,7.69-1.77,8.48,8.48,0,0,0,1.66.11,11.36,11.36,0,0,0,3.5-.85l.28,3.52a34.89,34.89,0,0,1-12.54,3.71c-5.46.69-18.28,1.66-28.07,2.35l-4,.33Z" class="cls-9"/><path data-cppathid="10068" d="M96.37,25.13l29-2.24s6.91,12.79,17.53,7.23l.52.56s-3.84,3.74-14,5c-5.28.66-17.47,1.6-28,2.34l-4,.33Z" class="cls-7"/><path data-cppathid="10069" d="M134.06,34.54a26.88,26.88,0,0,1-6-7.68c-.13-.22-.25-.45-.37-.66.43.5.92,1,1.46,1.54a25.86,25.86,0,0,0,5.22,6.42l.6.47-.6.15Z" class="cls-10"/><path data-cppathid="10070" d="M133.72,30.76c.34.14.69.26,1.05.37s.52.47.78.68a15.54,15.54,0,0,0,2.67,1.76l-.61.23a16.19,16.19,0,0,1-2.36-1.61A15.36,15.36,0,0,1,133.72,30.76Z" class="cls-10"/><path data-cppathid="10071" d="M132.26,35.25l-.64.12c-.24-.19-.47-.39-.7-.6a27.15,27.15,0,0,1-5.49-7.71c-.87-1.69-1.53-3.18-1.89-4l.52,0c1,2.26,3.76,8.34,7.19,11.42C131.58,34.71,131.92,35,132.26,35.25Z" class="cls-10"/><path data-cppathid="10072" d="M129.29,35.71l-.67.08q-.42-.36-.84-.78a28.33,28.33,0,0,1-5-7.76c-.79-1.68-1.39-3.18-1.72-4l.51,0c.88,2.27,3.43,8.38,6.54,11.48A12.37,12.37,0,0,0,129.29,35.71Z" class="cls-10"/><path data-cppathid="10073" d="M126.14,36.06l-.66.07c-.28-.28-.56-.57-.84-.89a29.6,29.6,0,0,1-4.47-7.8c-.71-1.68-1.25-3.17-1.55-4l.51,0c.79,2.27,3.1,8.41,5.87,11.54A13.79,13.79,0,0,0,126.14,36.06Z" class="cls-10"/><path data-cppathid="10074" d="M121.88,35.17c.35.44.69.84,1,1.2l-.63.05c-.26-.29-.53-.61-.8-1-2.56-3.33-4.65-9.67-5.33-11.87l.5,0c.27.87.74,2.3,1.35,3.9A31.63,31.63,0,0,0,121.88,35.17Z" class="cls-10"/><path data-cppathid="10075" d="M119.66,36.65l-.59.05c-.24-.31-.48-.64-.72-1a35.12,35.12,0,0,1-3.43-7.86c-.56-1.68-1-3.18-1.22-4l.5,0c.63,2.27,2.46,8.48,4.56,11.67A13.1,13.1,0,0,0,119.66,36.65Z" class="cls-10"/><path data-cppathid="10076" d="M116.4,36.92l-.56,0c-.21-.32-.42-.66-.63-1-1.85-3.36-3.45-9.71-4-11.94l.5,0c.54,2.27,2.13,8.51,3.9,11.74C115.89,36.14,116.15,36.55,116.4,36.92Z" class="cls-10"/><path data-cppathid="10077" d="M109.66,28.21c-.4-1.68-.71-3.17-.88-4l.49,0c.18.87.48,2.33.87,4a50.06,50.06,0,0,0,2.38,7.84q.3.69.6,1.23l-.53,0c-.18-.33-.35-.69-.52-1.08A50.49,50.49,0,0,1,109.66,28.21Z" class="cls-10"/><path data-cppathid="10078" d="M106.31,24.36l.5,0A99,99,0,0,0,109.4,36.2c.15.47.3.87.44,1.22l-.51,0c-.13-.32-.26-.69-.4-1.1A102.49,102.49,0,0,1,106.31,24.36Z" class="cls-10"/><path data-cppathid="10079" d="M103.85,24.55l.49,0c.3,2.28,1.16,8.62,1.93,12q.15.66.3,1.2l-.5,0c-.09-.34-.18-.71-.28-1.12C105,33.21,104.15,26.81,103.85,24.55Z" class="cls-10"/><path data-cppathid="10080" d="M101.39,24.74l.49,0c.22,2.28.83,8.66,1.26,12,.06.44.11.83.16,1.17l-.49,0q-.07-.52-.15-1.14C102.22,33.41,101.61,27,101.39,24.74Z" class="cls-10"/><path data-cppathid="10081" d="M98.93,24.93l.49,0c.13,2.28.5,8.7.59,12.11,0,.42,0,.8,0,1.15l-.49,0c0-.34,0-.73,0-1.18C99.43,33.62,99.06,27.21,98.93,24.93Z" class="cls-10"/><path data-cppathid="10082" d="M96.5,26.82c0-.68,0-1.26,0-1.7l.49,0c0,1.6.12,5.25.07,8.48Z" class="cls-10"/><path data-cppathid="10083" d="M110.07,38.06a1.4,1.4,0,1,0,1.29-1.51A1.41,1.41,0,0,0,110.07,38.06Z" class="cls-7"/><path data-cppathid="10084" d="M111.6,39.7a1.76,1.76,0,1,1,1.61-1.89A1.76,1.76,0,0,1,111.6,39.7Zm-.22-2.8a1.06,1.06,0,0,0-1,1.13,1,1,0,0,0,2.09-.16A1.06,1.06,0,0,0,111.38,36.9Z" class="cls-11"/><path data-cppathid="10085" d="M103.35,38.57a1.4,1.4,0,1,0,1.29-1.5A1.4,1.4,0,0,0,103.35,38.57Z" class="cls-7"/><path data-cppathid="10086" d="M104.88,40.21a1.75,1.75,0,1,1,1.62-1.88A1.75,1.75,0,0,1,104.88,40.21Zm-.21-2.79a1,1,0,1,0,.16,2.09,1,1,0,0,0-.16-2.09Z" class="cls-11"/><path data-cppathid="10087" d="M97.35,37.86a1.37,1.37,0,0,1,.75-.28,1.39,1.39,0,0,1,1.5,1.28,1.41,1.41,0,0,1-1.29,1.51,1.38,1.38,0,0,1-.78-.17Z" class="cls-7"/><path data-cppathid="10088" d="M98.34,40.72a1.85,1.85,0,0,1-1-.21.38.38,0,0,1-.18-.28L97,37.89a.35.35,0,0,1,.14-.31,1.75,1.75,0,1,1,1.2,3.14ZM97.87,40a1,1,0,0,0,.41.06,1.06,1.06,0,0,0,1-1.13,1,1,0,0,0-1.13-1,1.08,1.08,0,0,0-.4.11Z" class="cls-11"/><path data-cppathid="10089" d="M116.65,37.55A1.4,1.4,0,1,0,117.94,36,1.41,1.41,0,0,0,116.65,37.55Z" class="cls-7"/><path data-cppathid="10090" d="M118.18,39.19a1.75,1.75,0,1,1,1.62-1.88A1.76,1.76,0,0,1,118.18,39.19ZM118,36.4a1,1,0,0,0,.16,2.08A1,1,0,1,0,118,36.4Z" class="cls-11"/><path data-cppathid="10091" d="M123.22,37a1.4,1.4,0,1,0,1.29-1.5A1.4,1.4,0,0,0,123.22,37Z" class="cls-7"/><path data-cppathid="10092" d="M124.75,38.68a1.75,1.75,0,1,1,1.61-1.88A1.75,1.75,0,0,1,124.75,38.68Zm-.22-2.79a1,1,0,1,0,1.13,1A1,1,0,0,0,124.53,35.89Z" class="cls-11"/><path data-cppathid="10093" d="M140.11,33.31a1.4,1.4,0,1,0,1.29-1.51A1.41,1.41,0,0,0,140.11,33.31Z" class="cls-7"/><path data-cppathid="10094" d="M141.64,35a1.76,1.76,0,1,1,1.61-1.89A1.76,1.76,0,0,1,141.64,35Zm-.22-2.8a1.06,1.06,0,0,0-1,1.13,1,1,0,0,0,2.09-.16A1.05,1.05,0,0,0,141.42,32.15Z" class="cls-11"/><path data-cppathid="10095" d="M129.55,36.55a1.4,1.4,0,1,0,1.29-1.5A1.41,1.41,0,0,0,129.55,36.55Z" class="cls-7"/><path data-cppathid="10096" d="M131.08,38.19a1.75,1.75,0,1,1,1.62-1.88A1.75,1.75,0,0,1,131.08,38.19Zm-.21-2.79a1,1,0,1,0,1.12,1A1,1,0,0,0,130.87,35.4Z" class="cls-11"/><path data-cppathid="10097" d="M135.53,35.06a1.4,1.4,0,1,0,1.29-1.5A1.39,1.39,0,0,0,135.53,35.06Z" class="cls-7"/><path data-cppathid="10098" d="M137.06,36.7a1.75,1.75,0,1,1,1.61-1.88A1.75,1.75,0,0,1,137.06,36.7Zm-.21-2.79A1,1,0,1,0,137,36a1,1,0,0,0-.16-2.09Z" class="cls-11"/><path data-cppathid="10099" d="M96.32,24.54l29-2.24a.58.58,0,0,1,.56.31,21.27,21.27,0,0,0,4.66,5.54c3.85,3.14,7.91,3.62,12.07,1.45a.59.59,0,0,1,.71.11l.52.55a.6.6,0,0,1,0,.85.61.61,0,0,1-.84,0l-.22-.24a11.42,11.42,0,0,1-13-1.8A22.35,22.35,0,0,1,125,23.52l-28.6,2.2Z" class="cls-12"/><rect data-cppathid="10100" transform="translate(-3.84 3.8) rotate(-4.41)" height="76.01" width="7.19" y="13.7" x="43.78" class="cls-2"/><rect data-cppathid="10101" transform="translate(-3.86 3.58) rotate(-4.41)" height="76.01" width="1.58" y="13.92" x="43.79" class="cls-4"/><rect data-cppathid="10102" transform="translate(-3.81 3.99) rotate(-4.41)" height="76.01" width="2.19" y="13.51" x="48.77" class="cls-3"/><rect data-cppathid="10103" transform="translate(-3.39 7.69) rotate(-4.41)" height="76.01" width="7.19" y="9.79" x="94.52" class="cls-2"/><rect data-cppathid="10104" transform="translate(-3.41 7.47) rotate(-4.41)" height="76.01" width="1.58" y="10" x="94.53" class="cls-4"/><rect data-cppathid="10105" transform="translate(-3.36 7.88) rotate(-4.41)" height="76.01" width="2.19" y="9.59" x="99.51" class="cls-3"/><rect data-cppathid="10106" transform="translate(-0.14 5.38) rotate(-4.41)" height="4.51" width="49.8" y="2.19" x="44.89" class="cls-7"/><path data-cppathid="10107" d="M95.08,5,44.9,8.9l-.39-5L94.69,0ZM45.39,8.33,94.52,4.54l-.31-4L45.08,4.36Z" class="cls-8"/><path data-cppathid="10108" d="M111.91,10.08a11.36,11.36,0,0,1-2.64.6,14.53,14.53,0,0,1-3.67.11,37,37,0,0,1-7,1.55c-4.25.53-13.87,1.34-27.84,2.32h0c-14,1.17-23.59,1.86-27.86,2A35.46,35.46,0,0,1,35,16.07a8.57,8.57,0,0,1-1.62.36,11.46,11.46,0,0,1-3.6-.3L30,19.65A34.73,34.73,0,0,0,43,21.4c5.5-.16,18.31-1.17,28.1-2,3.58-.25,7.57-.54,11.45-.84,6.74-.52,13.16-1.07,16.63-1.51a34,34,0,0,0,13-4Z" class="cls-9"/><path data-cppathid="10109" d="M112.32,9.12C101.7,14.68,94.8,1.89,94.8,1.89L75,3.42l-10.33.8L44.92,5.74s-4.86,13.69-16.21,9.83l-.43.63S32.65,19.31,42.89,19c5.31-.16,17.5-1.11,28-2s22.69-1.68,28-2.34c10.16-1.28,14-5,14-5Z" class="cls-7"/><path data-cppathid="10110" d="M38.09,18.59a26.64,26.64,0,0,0,4.75-8.51l.27-.71c-.35.56-.76,1.15-1.21,1.74a25.87,25.87,0,0,1-4.17,7.15l-.53.55.62.07Z" class="cls-10"/><path data-cppathid="10111" d="M37.85,14.8a9.33,9.33,0,0,1-1,.52c-.21.28-.44.55-.66.8a15.68,15.68,0,0,1-2.37,2.15l.64.13a16.46,16.46,0,0,0,2.09-1.95A15.47,15.47,0,0,0,37.85,14.8Z" class="cls-10"/><path data-cppathid="10112" d="M40,19l.65,0q.3-.33.6-.69a26.92,26.92,0,0,0,4.24-8.47c.61-1.8,1-3.37,1.25-4.27l-.52,0C45.6,8,43.77,14.46,40.85,18,40.56,18.38,40.27,18.7,40,19Z" class="cls-10"/><path data-cppathid="10113" d="M43,19l.68,0c.24-.28.48-.58.71-.9A28.41,28.41,0,0,0,48.1,9.66c.52-1.79.89-3.36,1.08-4.25l-.51,0c-.52,2.37-2.11,8.8-4.7,12.34A14,14,0,0,1,43,19Z" class="cls-10"/><path data-cppathid="10114" d="M46.15,18.87l.66,0c.24-.32.47-.65.7-1a29.09,29.09,0,0,0,3.21-8.39c.45-1.77.76-3.33.92-4.22l-.51,0c-.43,2.36-1.78,8.78-4,12.31A13.64,13.64,0,0,1,46.15,18.87Z" class="cls-10"/><path data-cppathid="10115" d="M50.22,17.34a12.88,12.88,0,0,1-.84,1.34l.63,0c.22-.33.43-.68.64-1.06C52.67,13.9,53.77,7.31,54.1,5l-.5,0c-.14.9-.38,2.38-.73,4.06A31.51,31.51,0,0,1,50.22,17.34Z" class="cls-10"/><path data-cppathid="10116" d="M52.64,18.46l.59,0c.19-.34.38-.71.56-1.1A35.47,35.47,0,0,0,56,9c.29-1.75.48-3.29.58-4.18l-.5,0c-.27,2.34-1.13,8.75-2.72,12.23A12.08,12.08,0,0,1,52.64,18.46Z" class="cls-10"/><path data-cppathid="10117" d="M55.91,18.23l.56,0c.16-.35.31-.73.46-1.13C58.24,13.45,58.85,6.93,59,4.65l-.49,0c-.19,2.33-.8,8.74-2.06,12.2C56.29,17.38,56.1,17.83,55.91,18.23Z" class="cls-10"/><path data-cppathid="10118" d="M61.23,8.59c.14-1.72.22-3.24.26-4.13l-.5,0c0,.89-.12,2.38-.25,4.06a49.34,49.34,0,0,1-1.15,8.11c-.13.48-.26.92-.4,1.31l.53,0c.12-.35.24-.73.35-1.14A50.34,50.34,0,0,0,61.23,8.59Z" class="cls-10"/><path data-cppathid="10119" d="M64,4.27l-.5,0a98,98,0,0,1-.73,12.14c-.08.48-.17.9-.26,1.27l.52,0c.07-.34.15-.72.22-1.15A101,101,0,0,0,64,4.27Z" class="cls-10"/><path data-cppathid="10120" d="M66.41,4.08l-.49,0c0,2.29.18,8.7-.07,12.11,0,.45-.07.86-.11,1.23l.5,0c0-.35.07-.73.1-1.15C66.59,12.82,66.46,6.36,66.41,4.08Z" class="cls-10"/><path data-cppathid="10121" d="M68.87,3.89l-.49,0c.14,2.28.51,8.69.6,12.08,0,.45,0,.84,0,1.18l.49,0c0-.35,0-.73,0-1.15C69.38,12.59,69,6.17,68.87,3.89Z" class="cls-10"/><path data-cppathid="10122" d="M71.33,3.7l-.49,0c.22,2.27.84,8.67,1.27,12.06,0,.41.11.79.15,1.14l.5,0c-.05-.34-.1-.73-.16-1.17C72.17,12.36,71.55,6,71.33,3.7Z" class="cls-10"/><path data-cppathid="10123" d="M73.8,3.51l-.49,0c.29,2.26,1.16,8.66,1.94,12,.09.41.18.78.27,1.12l.5,0c-.09-.36-.19-.76-.29-1.2C75,12.13,74.1,5.79,73.8,3.51Z" class="cls-10"/><path data-cppathid="10124" d="M76.26,3.32l-.49,0a98.55,98.55,0,0,0,2.62,12c.13.41.27.78.4,1.1l.51,0c-.14-.35-.29-.75-.45-1.22A99,99,0,0,1,76.26,3.32Z" class="cls-10"/><path data-cppathid="10125" d="M82.58,16.18c-.2-.37-.4-.78-.61-1.24A49.18,49.18,0,0,1,79.6,7.1c-.39-1.64-.7-3.1-.87-4l-.5,0c.18.87.49,2.36.89,4a49.62,49.62,0,0,0,2.4,7.93c.18.39.35.75.52,1.08Z" class="cls-10"/><path data-cppathid="10126" d="M84.67,14.92c.2.38.41.72.62,1l.56,0c-.25-.37-.5-.78-.75-1.24-1.78-3.23-3.37-9.47-3.91-11.74l-.5,0c.21.87.58,2.36,1.06,4A39.54,39.54,0,0,0,84.67,14.92Z" class="cls-10"/><path data-cppathid="10127" d="M87.81,14.69c.24.37.48.7.72,1l.59,0a13.1,13.1,0,0,1-.9-1.23C86.11,11.23,84.28,5,83.65,2.75l-.5,0c.24.86.67,2.36,1.22,4A35.06,35.06,0,0,0,87.81,14.69Z" class="cls-10"/><path data-cppathid="10128" d="M91.75,15.42l.62-.05c-.34-.36-.69-.76-1-1.2a32.05,32.05,0,0,1-3.88-7.7c-.6-1.61-1.07-3-1.34-3.91l-.51,0c.68,2.2,2.78,8.54,5.34,11.87C91.21,14.81,91.48,15.13,91.75,15.42Z" class="cls-10"/><path data-cppathid="10129" d="M94.09,14.24c.28.32.57.61.85.88l.65-.06a13.74,13.74,0,0,1-1.13-1.15c-2.77-3.13-5.08-9.27-5.88-11.54l-.5,0c.29.86.83,2.35,1.55,4A29.34,29.34,0,0,0,94.09,14.24Z" class="cls-10"/><path data-cppathid="10130" d="M97.23,14c.28.28.56.54.85.78l.67-.08a13.84,13.84,0,0,1-1.17-1.05c-3.1-3.1-5.65-9.21-6.53-11.48l-.51,0c.32.85.92,2.35,1.72,4A28.58,28.58,0,0,0,97.23,14Z" class="cls-10"/><path data-cppathid="10131" d="M100.37,13.77l.7.6.65-.12q-.51-.39-1-.84C97.27,10.33,94.48,4.25,93.52,2L93,2c.35.85,1,2.34,1.89,4A27,27,0,0,0,100.37,13.77Z" class="cls-10"/><path data-cppathid="10132" d="M103.52,13.54l.3.24.61-.15-.61-.47a25.6,25.6,0,0,1-5.21-6.42c-.54-.52-1-1-1.46-1.54.11.21.24.44.37.66A26.7,26.7,0,0,0,103.52,13.54Z" class="cls-10"/><path data-cppathid="10133" d="M106.77,12.91l.55-.2a21.5,21.5,0,0,1-2.78-2.5,9.12,9.12,0,0,1-.93-.28A24.42,24.42,0,0,0,106.77,12.91Z" class="cls-10"/><path data-cppathid="10134" d="M62.34,18.38a1.4,1.4,0,1,1-1.51-1.29A1.41,1.41,0,0,1,62.34,18.38Z" class="cls-7"/><path data-cppathid="10135" d="M61.08,20.24a1.76,1.76,0,1,1,1.61-1.89A1.77,1.77,0,0,1,61.08,20.24Zm-.22-2.8a1.05,1.05,0,0,0-1,1.13A1,1,0,0,0,62,18.41,1.06,1.06,0,0,0,60.86,17.44Z" class="cls-11"/><path data-cppathid="10136" d="M69.05,17.86a1.4,1.4,0,1,1-1.5-1.28A1.39,1.39,0,0,1,69.05,17.86Z" class="cls-7"/><path data-cppathid="10137" d="M67.79,19.72a1.76,1.76,0,1,1,1.62-1.88A1.76,1.76,0,0,1,67.79,19.72Zm-.21-2.79a1,1,0,1,0,1.12,1A1,1,0,0,0,67.58,16.93Z" class="cls-11"/><path data-cppathid="10138" d="M75.6,17.36a1.4,1.4,0,1,1-1.5-1.29A1.4,1.4,0,0,1,75.6,17.36Z" class="cls-7"/><path data-cppathid="10139" d="M74.34,19.21A1.75,1.75,0,1,1,76,17.33,1.74,1.74,0,0,1,74.34,19.21Zm-.22-2.79a1,1,0,1,0,1.13,1A1.05,1.05,0,0,0,74.12,16.42Z" class="cls-11"/><path data-cppathid="10140" d="M82.14,16.85a1.4,1.4,0,1,1-1.5-1.28A1.4,1.4,0,0,1,82.14,16.85Z" class="cls-7"/><path data-cppathid="10141" d="M80.88,18.71a1.76,1.76,0,1,1,1.61-1.88A1.76,1.76,0,0,1,80.88,18.71Zm-.22-2.79a1,1,0,1,0,1.13,1A1,1,0,0,0,80.66,15.92Z" class="cls-11"/><path data-cppathid="10142" d="M88.69,16.35a1.4,1.4,0,1,1-1.5-1.29A1.39,1.39,0,0,1,88.69,16.35Z" class="cls-7"/><path data-cppathid="10143" d="M87.43,18.2A1.75,1.75,0,1,1,89,16.32,1.75,1.75,0,0,1,87.43,18.2Zm-.21-2.79a1,1,0,1,0,.16,2.09,1,1,0,0,0-.16-2.09Z" class="cls-11"/><path data-cppathid="10144" d="M95.19,15.85a1.4,1.4,0,1,1-1.5-1.29A1.4,1.4,0,0,1,95.19,15.85Z" class="cls-7"/><path data-cppathid="10145" d="M93.93,17.7a1.75,1.75,0,1,1,1.61-1.88A1.75,1.75,0,0,1,93.93,17.7Zm-.22-2.79a1,1,0,1,0,1.13,1A1.05,1.05,0,0,0,93.71,14.91Z" class="cls-11"/><path data-cppathid="10146" d="M101.6,15.35a1.4,1.4,0,1,1-1.5-1.29A1.4,1.4,0,0,1,101.6,15.35Z" class="cls-7"/><path data-cppathid="10147" d="M100.34,17.21A1.76,1.76,0,1,1,102,15.33,1.76,1.76,0,0,1,100.34,17.21Zm-.21-2.79a1,1,0,1,0,.16,2.08,1,1,0,1,0-.16-2.08Z" class="cls-11"/><path data-cppathid="10148" d="M107.41,13.88a1.4,1.4,0,1,1-1.5-1.29A1.39,1.39,0,0,1,107.41,13.88Z" class="cls-7"/><path data-cppathid="10149" d="M106.15,15.73a1.75,1.75,0,1,1,1.61-1.88A1.75,1.75,0,0,1,106.15,15.73Zm-.21-2.79a1,1,0,1,0,1.12,1A1.05,1.05,0,0,0,105.94,12.94Z" class="cls-11"/><path data-cppathid="10150" d="M112.26,11.73a1.4,1.4,0,1,1-1.5-1.29A1.4,1.4,0,0,1,112.26,11.73Z" class="cls-7"/><path data-cppathid="10151" d="M111,13.58a1.75,1.75,0,1,1,1.61-1.88A1.75,1.75,0,0,1,111,13.58Zm-.22-2.79a1,1,0,1,0,1.13,1A1.05,1.05,0,0,0,110.78,10.79Z" class="cls-11"/><path data-cppathid="10152" d="M55.75,18.89a1.4,1.4,0,1,1-1.5-1.29A1.39,1.39,0,0,1,55.75,18.89Z" class="cls-7"/><path data-cppathid="10153" d="M54.49,20.74a1.75,1.75,0,1,1,1.61-1.88A1.74,1.74,0,0,1,54.49,20.74ZM54.28,18A1,1,0,1,0,54.44,20,1,1,0,0,0,54.28,18Z" class="cls-11"/><path data-cppathid="10154" d="M49.19,19.4a1.4,1.4,0,1,1-1.51-1.29A1.4,1.4,0,0,1,49.19,19.4Z" class="cls-7"/><path data-cppathid="10155" d="M47.93,21.25a1.75,1.75,0,1,1,1.61-1.88A1.76,1.76,0,0,1,47.93,21.25Zm-.22-2.79a1,1,0,0,0,.16,2.09,1,1,0,1,0-.16-2.09Z" class="cls-11"/><path data-cppathid="10156" d="M31.92,18.3A1.4,1.4,0,1,1,30.42,17,1.39,1.39,0,0,1,31.92,18.3Z" class="cls-7"/><path data-cppathid="10157" d="M30.66,20.15a1.75,1.75,0,1,1,1.62-1.88A1.75,1.75,0,0,1,30.66,20.15Zm-.21-2.79a1,1,0,1,0,1.12,1A1.05,1.05,0,0,0,30.45,17.36Z" class="cls-11"/><path data-cppathid="10158" d="M42.85,19.89a1.4,1.4,0,1,1-1.5-1.29A1.39,1.39,0,0,1,42.85,19.89Z" class="cls-7"/><path data-cppathid="10159" d="M41.59,21.74a1.75,1.75,0,1,1,1.61-1.88A1.76,1.76,0,0,1,41.59,21.74ZM41.38,19a1,1,0,1,0,1.12,1A1.05,1.05,0,0,0,41.38,19Z" class="cls-11"/><path data-cppathid="10160" d="M36.72,19.33A1.4,1.4,0,1,1,35.21,18,1.41,1.41,0,0,1,36.72,19.33Z" class="cls-7"/><path data-cppathid="10161" d="M35.46,21.19a1.76,1.76,0,1,1,1.61-1.89A1.77,1.77,0,0,1,35.46,21.19Zm-.22-2.8a1.05,1.05,0,0,0-1,1.13,1,1,0,0,0,1.12,1,1,1,0,1,0-.16-2.09Z" class="cls-11"/><path data-cppathid="10162" d="M33.45,16.82a12.24,12.24,0,0,1-4.5-.54l-.18.26a.6.6,0,1,1-1-.68l.43-.63A.61.61,0,0,1,28.9,15c4.45,1.51,8.39.41,11.71-3.28a21,21,0,0,0,3.75-6.19.6.6,0,0,1,.51-.39L94.75,1.3a.59.59,0,0,1,.57.31A21,21,0,0,0,100,7.15c3.84,3.14,7.9,3.62,12.07,1.45a.58.58,0,0,1,.7.11l.53.55a.62.62,0,0,1,0,.85.61.61,0,0,1-.84,0l-.23-.24c-4.44,2.16-8.92,1.54-13-1.8a22.13,22.13,0,0,1-4.73-5.53L45.34,6.31a21.93,21.93,0,0,1-3.83,6.19A12,12,0,0,1,33.45,16.82Z" class="cls-12"/><rect data-cppathid="10163" transform="translate(-1.44 5.42) rotate(-4.41)" height="7.19" width="49.48" y="17.83" x="44.94" class="cls-2"/><rect data-cppathid="10164" transform="translate(-1.23 5.4) rotate(-4.41)" height="1.58" width="49.48" y="17.83" x="44.72" class="cls-4"/><rect data-cppathid="10165" transform="translate(-1.63 5.45) rotate(-4.41)" height="2.19" width="49.48" y="22.81" x="45.13" class="cls-3"/><rect data-cppathid="10166" transform="translate(-2.03 5.49) rotate(-4.41)" height="12.2" width="49.48" y="22.96" x="45.53" class="cls-2"/><rect data-cppathid="10167" transform="translate(-1.75 5.52) rotate(-4.41)" height="9.75" width="41.49" y="20.58" x="50.07" class="cls-5"/><rect data-cppathid="10168" transform="translate(-2.35 5.53) rotate(-4.41)" height="3.72" width="49.48" y="31.42" x="45.85" class="cls-3"/><rect data-cppathid="10169" transform="translate(-4 2.38) rotate(-4.41)" height="7.19" width="33.02" y="49.54" x="12.35" class="cls-2"/><rect data-cppathid="10170" transform="translate(-3.79 2.35) rotate(-4.41)" height="1.58" width="33.02" y="49.55" x="12.13" class="cls-4"/><rect data-cppathid="10171" transform="translate(-4.19 2.4) rotate(-4.41)" height="2.19" width="33.02" y="54.53" x="12.54" class="cls-3"/><rect data-cppathid="10172" transform="translate(-3.63 2.33) rotate(-4.41)" height="7.87" width="31.62" y="44.37" x="12.63" class="cls-6"/><rect data-cppathid="10173" transform="translate(-3.71 2.37) rotate(-4.41)" height="4.41" width="26.44" y="47.19" x="15.72" class="cls-5"/><rect data-cppathid="10174" transform="translate(-5.22 1.15) rotate(-4.41)" height="48.29" width="7.19" y="44.16" x="8.73" class="cls-13"/><rect data-cppathid="10175" transform="translate(-5.24 0.94) rotate(-4.41)" height="48.29" width="1.58" y="44.38" x="8.74" class="cls-4"/><rect data-cppathid="10176" transform="translate(-5.2 1.34) rotate(-4.41)" height="48.29" width="2.19" y="43.97" x="13.72" class="cls-3"/><rect data-cppathid="10177" transform="translate(-2.27 2.54) rotate(-4.41)" height="4.51" width="29.06" y="28.48" x="17.24" class="cls-14"/><path data-cppathid="10178" d="M46.62,32,17.29,34.3l-.37-4.86,29.33-2.26Zm-29,1.88,28.62-2.21-.32-4.15L17.3,29.77Z" class="cls-15"/><path data-cppathid="10179" d="M47.05,39.87l-4,.28h0c-14,1.17-23.59,1.85-27.87,2a35.51,35.51,0,0,1-7.87-.57,8.26,8.26,0,0,1-1.62.37,11.73,11.73,0,0,1-3.59-.31l.27,3.52a34.7,34.7,0,0,0,13,1.75c5.5-.16,18.32-1.17,28.11-2l4-.29Z" class="cls-9"/><path data-cppathid="10180" d="M46.21,29l-29,2.23S12.37,44.93,1,41.07l-.43.62S5,44.81,15.2,44.51c5.32-.15,17.51-1.1,28-2l4-.29Z" class="cls-14"/><path data-cppathid="10181" d="M10.41,44.08a26.84,26.84,0,0,0,4.75-8.51c.09-.24.18-.48.26-.71-.35.56-.75,1.15-1.21,1.75A25.47,25.47,0,0,1,10,43.75l-.52.56.62.06Z" class="cls-15"/><path data-cppathid="10182" d="M10.17,40.3c-.32.18-.65.36-1,.52s-.44.54-.67.79a15.22,15.22,0,0,1-2.37,2.15l.65.14a17.27,17.27,0,0,0,2.09-2A16.59,16.59,0,0,0,10.17,40.3Z" class="cls-15"/><path data-cppathid="10183" d="M12.29,44.5l.66,0,.6-.69a27.37,27.37,0,0,0,4.24-8.47c.6-1.8,1-3.37,1.25-4.26l-.52,0c-.61,2.38-2.43,8.82-5.35,12.38C12.88,43.87,12.59,44.2,12.29,44.5Z" class="cls-15"/><path data-cppathid="10184" d="M15.3,44.51l.67,0c.25-.28.48-.58.72-.9a28.43,28.43,0,0,0,3.72-8.43c.53-1.79.89-3.35,1.09-4.24L21,31c-.52,2.37-2.1,8.8-4.69,12.34A13.8,13.8,0,0,1,15.3,44.51Z" class="cls-15"/><path data-cppathid="10185" d="M18.47,44.37l.66,0c.23-.31.47-.65.7-1A29.72,29.72,0,0,0,23,34.94c.45-1.78.75-3.33.92-4.22l-.51,0c-.44,2.36-1.78,8.79-4,12.31A13.78,13.78,0,0,1,18.47,44.37Z" class="cls-15"/><path data-cppathid="10186" d="M22.54,42.83a12.88,12.88,0,0,1-.84,1.34l.62,0c.22-.33.44-.68.65-1.06,2-3.68,3.12-10.27,3.45-12.54l-.5,0c-.14.9-.38,2.38-.73,4.06A31.89,31.89,0,0,1,22.54,42.83Z" class="cls-15"/><path data-cppathid="10187" d="M25,44l.59-.05c.19-.34.38-.7.56-1.1a34.91,34.91,0,0,0,2.18-8.3c.3-1.75.49-3.29.59-4.17l-.5,0c-.27,2.34-1.13,8.75-2.72,12.24C25.43,43.1,25.2,43.55,25,44Z" class="cls-15"/><path data-cppathid="10188" d="M28.23,43.72l.56,0c.16-.35.31-.72.46-1.13,1.31-3.61,1.91-10.13,2.09-12.4l-.5,0c-.18,2.33-.8,8.74-2.06,12.2C28.6,42.87,28.42,43.32,28.23,43.72Z" class="cls-15"/><path data-cppathid="10189" d="M33.55,34.09c.13-1.73.21-3.25.25-4.13l-.49,0c0,.89-.12,2.38-.25,4.06a50.46,50.46,0,0,1-1.15,8.11c-.13.48-.27.92-.41,1.31l.54,0c.12-.35.23-.73.34-1.14A48.72,48.72,0,0,0,33.55,34.09Z" class="cls-15"/><path data-cppathid="10190" d="M36.26,29.77l-.49,0A99.85,99.85,0,0,1,35,41.94c-.09.48-.17.91-.26,1.28l.51,0c.08-.35.16-.73.23-1.16A98.74,98.74,0,0,0,36.26,29.77Z" class="cls-15"/><path data-cppathid="10191" d="M38.73,29.58l-.49,0c0,2.29.17,8.7-.08,12.11,0,.45-.07.86-.11,1.23l.5,0c0-.35.07-.73.1-1.15C38.91,38.31,38.78,31.85,38.73,29.58Z" class="cls-15"/><path data-cppathid="10192" d="M41.19,29.39l-.49,0c.13,2.28.5,8.69.59,12.09q0,.66,0,1.17l.49,0c0-.34,0-.73,0-1.15C41.7,38.08,41.32,31.66,41.19,29.39Z" class="cls-15"/><path data-cppathid="10193" d="M43.65,29.2l-.49,0c.22,2.27.84,8.68,1.27,12.06q.07.63.15,1.14l.49,0c0-.34-.1-.72-.15-1.16C44.48,37.86,43.87,31.47,43.65,29.2Z" class="cls-15"/><path data-cppathid="10194" d="M46.34,30.69c-.09-.68-.17-1.25-.22-1.68l-.5,0c.21,1.59.7,5.2,1.24,8.39Z" class="cls-15"/><path data-cppathid="10195" d="M34.65,43.87a1.4,1.4,0,1,1-1.5-1.28A1.39,1.39,0,0,1,34.65,43.87Z" class="cls-14"/><path data-cppathid="10196" d="M33.38,45.62a1.64,1.64,0,1,1,1.51-1.76A1.64,1.64,0,0,1,33.38,45.62Zm-.21-2.8a1.16,1.16,0,1,0,1.25,1.07A1.16,1.16,0,0,0,33.17,42.82Z" class="cls-15"/><path data-cppathid="10197" d="M41.37,43.36a1.4,1.4,0,1,1-1.5-1.29A1.4,1.4,0,0,1,41.37,43.36Z" class="cls-14"/><path data-cppathid="10198" d="M40.1,45.1a1.64,1.64,0,1,1,1.51-1.76A1.64,1.64,0,0,1,40.1,45.1Zm-.21-2.79a1.15,1.15,0,0,0-1.07,1.24,1.16,1.16,0,1,0,2.31-.18A1.15,1.15,0,0,0,39.89,42.31Z" class="cls-15"/><path data-cppathid="10199" d="M47.19,41.73a1.38,1.38,0,0,0-.78-.17,1.4,1.4,0,1,0,.22,2.79,1.37,1.37,0,0,0,.74-.28Z" class="cls-14"/><path data-cppathid="10200" d="M46.65,44.59a1.64,1.64,0,1,1,.66-3.07.25.25,0,0,1,.12.19l.18,2.34a.24.24,0,0,1-.09.21A1.67,1.67,0,0,1,46.65,44.59Zm-.22-2.79a1.16,1.16,0,0,0,.18,2.32,1.14,1.14,0,0,0,.51-.17L47,41.89A1.26,1.26,0,0,0,46.43,41.8Z" class="cls-15"/><path data-cppathid="10201" d="M28.07,44.38a1.4,1.4,0,1,1-1.5-1.29A1.41,1.41,0,0,1,28.07,44.38Z" class="cls-14"/><path data-cppathid="10202" d="M26.8,46.12a1.63,1.63,0,1,1,1.51-1.76A1.64,1.64,0,0,1,26.8,46.12Zm-.22-2.79a1.16,1.16,0,1,0,1.25,1.07A1.16,1.16,0,0,0,26.58,43.33Z" class="cls-15"/><path data-cppathid="10203" d="M21.5,44.89A1.4,1.4,0,1,1,20,43.6,1.39,1.39,0,0,1,21.5,44.89Z" class="cls-14"/><path data-cppathid="10204" d="M20.23,46.63a1.64,1.64,0,1,1,1.51-1.76A1.63,1.63,0,0,1,20.23,46.63ZM20,43.84A1.16,1.16,0,0,0,19,45.09a1.18,1.18,0,0,0,1.25,1.07A1.16,1.16,0,0,0,20,43.84Z" class="cls-15"/><path data-cppathid="10205" d="M4.24,43.79a1.4,1.4,0,1,1-1.5-1.29A1.4,1.4,0,0,1,4.24,43.79Z" class="cls-14"/><path data-cppathid="10206" d="M3,45.53a1.64,1.64,0,1,1,1.51-1.76A1.64,1.64,0,0,1,3,45.53Zm-.21-2.79A1.16,1.16,0,1,0,4,43.81,1.16,1.16,0,0,0,2.76,42.74Z" class="cls-15"/><path data-cppathid="10207" d="M15.17,45.38a1.4,1.4,0,1,1-1.5-1.29A1.4,1.4,0,0,1,15.17,45.38Z" class="cls-14"/><path data-cppathid="10208" d="M13.9,47.12a1.64,1.64,0,1,1,1.51-1.76A1.64,1.64,0,0,1,13.9,47.12Zm-.22-2.79a1.16,1.16,0,1,0,1.25,1.07A1.17,1.17,0,0,0,13.68,44.33Z" class="cls-15"/><path data-cppathid="10209" d="M9,44.82a1.4,1.4,0,1,1-1.5-1.29A1.4,1.4,0,0,1,9,44.82Z" class="cls-14"/><path data-cppathid="10210" d="M7.76,46.56A1.63,1.63,0,1,1,9.27,44.8,1.62,1.62,0,0,1,7.76,46.56Zm-.21-2.79A1.16,1.16,0,1,0,8.8,44.84,1.16,1.16,0,0,0,7.55,43.77Z" class="cls-15"/><path data-cppathid="10211" d="M46.16,28.41l-29,2.23a.6.6,0,0,0-.51.39,21.07,21.07,0,0,1-3.76,6.19C9.61,40.91,5.67,42,1.22,40.5a.6.6,0,0,0-.68.23l-.43.62a.6.6,0,0,0,.15.83A.58.58,0,0,0,1.08,42l.19-.26a12.21,12.21,0,0,0,4.5.54A12,12,0,0,0,13.83,38a22.18,22.18,0,0,0,3.83-6.19l28.6-2.21Z" class="cls-15"/><rect data-cppathid="10212" transform="translate(-3.22 9.15) rotate(-4.41)" height="7.19" width="33.02" y="42.72" x="100.71" class="cls-2"/><rect data-cppathid="10213" transform="translate(-3 9.13) rotate(-4.41)" height="1.58" width="33.02" y="42.73" x="100.49" class="cls-4"/><rect data-cppathid="10214" transform="matrix(1, -0.08, 0.08, 1, -3.41, 9.18)" height="2.19" width="33.02" y="47.71" x="100.9" class="cls-3"/><rect data-cppathid="10215" transform="translate(-2.84 9.11) rotate(-4.41)" height="7.87" width="31.62" y="37.54" x="101.08" class="cls-6"/><rect data-cppathid="10216" transform="translate(-2.93 9.09) rotate(-4.41)" height="4.41" width="26.44" y="40.43" x="103.35" class="cls-5"/><rect data-cppathid="10217" transform="translate(-4.12 10.63) rotate(-4.41)" height="48.29" width="7.19" y="34.63" x="132.28" class="cls-13"/><rect data-cppathid="10218" transform="translate(-4.09 10.84) rotate(-4.41)" height="48.29" width="1.58" y="34.41" x="137.89" class="cls-4"/><rect data-cppathid="10219" transform="translate(-4.14 10.44) rotate(-4.41)" height="48.29" width="2.19" y="34.82" x="132.29" class="cls-3"/><rect data-cppathid="10220" transform="translate(-1.57 8.6) rotate(-4.41)" height="4.51" width="29.06" y="22.38" x="96.37" class="cls-14"/><path data-cppathid="10221" d="M125.75,25.93,96.43,28.2l-.38-4.86,29.33-2.26Zm-29,1.88,28.62-2.21-.32-4.14L96.44,23.67Z" class="cls-15"/><path data-cppathid="10222" d="M97.21,36l4-.34h0c14-1,23.59-1.79,27.83-2.32a35.68,35.68,0,0,0,7.69-1.77,8.48,8.48,0,0,0,1.66.11,11.36,11.36,0,0,0,3.5-.85l.28,3.52a34.89,34.89,0,0,1-12.54,3.71c-5.46.69-18.28,1.66-28.07,2.35l-4,.33Z" class="cls-9"/><path data-cppathid="10223" d="M96.37,25.13l29-2.24s6.91,12.79,17.53,7.23l.52.56s-3.84,3.74-14,5c-5.28.66-17.47,1.6-28,2.34l-4,.33Z" class="cls-14"/><path data-cppathid="10224" d="M134.06,34.54a26.88,26.88,0,0,1-6-7.68c-.13-.22-.25-.45-.37-.66.43.5.92,1,1.46,1.54a25.86,25.86,0,0,0,5.22,6.42l.6.47-.6.15Z" class="cls-15"/><path data-cppathid="10225" d="M133.72,30.76c.34.14.69.26,1.05.37s.52.47.78.68a15.54,15.54,0,0,0,2.67,1.76l-.61.23a16.19,16.19,0,0,1-2.36-1.61A15.36,15.36,0,0,1,133.72,30.76Z" class="cls-15"/><path data-cppathid="10226" d="M132.26,35.25l-.64.12c-.24-.19-.47-.39-.7-.6a27.15,27.15,0,0,1-5.49-7.71c-.87-1.69-1.53-3.18-1.89-4l.52,0c1,2.26,3.76,8.34,7.19,11.42C131.58,34.71,131.92,35,132.26,35.25Z" class="cls-15"/><path data-cppathid="10227" d="M129.29,35.71l-.67.08q-.42-.36-.84-.78a28.33,28.33,0,0,1-5-7.76c-.79-1.68-1.39-3.18-1.72-4l.51,0c.88,2.27,3.43,8.38,6.54,11.48A12.37,12.37,0,0,0,129.29,35.71Z" class="cls-15"/><path data-cppathid="10228" d="M126.14,36.06l-.66.07c-.28-.28-.56-.57-.84-.89a29.6,29.6,0,0,1-4.47-7.8c-.71-1.68-1.25-3.17-1.55-4l.51,0c.79,2.27,3.1,8.41,5.87,11.54A13.79,13.79,0,0,0,126.14,36.06Z" class="cls-15"/><path data-cppathid="10229" d="M121.88,35.17c.35.44.69.84,1,1.2l-.63.05c-.26-.29-.53-.61-.8-1-2.56-3.33-4.65-9.67-5.33-11.87l.5,0c.27.87.74,2.3,1.35,3.9A31.63,31.63,0,0,0,121.88,35.17Z" class="cls-15"/><path data-cppathid="10230" d="M119.66,36.65l-.59.05c-.24-.31-.48-.64-.72-1a35.12,35.12,0,0,1-3.43-7.86c-.56-1.68-1-3.18-1.22-4l.5,0c.63,2.27,2.46,8.48,4.56,11.67A13.1,13.1,0,0,0,119.66,36.65Z" class="cls-15"/><path data-cppathid="10231" d="M116.4,36.92l-.56,0c-.21-.32-.42-.66-.63-1-1.85-3.36-3.45-9.71-4-11.94l.5,0c.54,2.27,2.13,8.51,3.9,11.74C115.89,36.14,116.15,36.55,116.4,36.92Z" class="cls-15"/><path data-cppathid="10232" d="M109.66,28.21c-.4-1.68-.71-3.17-.88-4l.49,0c.18.87.48,2.33.87,4a50.06,50.06,0,0,0,2.38,7.84q.3.69.6,1.23l-.53,0c-.18-.33-.35-.69-.52-1.08A50.49,50.49,0,0,1,109.66,28.21Z" class="cls-15"/><path data-cppathid="10233" d="M106.31,24.36l.5,0A99,99,0,0,0,109.4,36.2c.15.47.3.87.44,1.22l-.51,0c-.13-.32-.26-.69-.4-1.1A102.49,102.49,0,0,1,106.31,24.36Z" class="cls-15"/><path data-cppathid="10234" d="M103.85,24.55l.49,0c.3,2.28,1.16,8.62,1.93,12q.15.66.3,1.2l-.5,0c-.09-.34-.18-.71-.28-1.12C105,33.21,104.15,26.81,103.85,24.55Z" class="cls-15"/><path data-cppathid="10235" d="M101.39,24.74l.49,0c.22,2.28.83,8.66,1.26,12,.06.44.11.83.16,1.17l-.49,0q-.07-.52-.15-1.14C102.22,33.41,101.61,27,101.39,24.74Z" class="cls-15"/><path data-cppathid="10236" d="M98.93,24.93l.49,0c.13,2.28.5,8.7.59,12.11,0,.42,0,.8,0,1.15l-.49,0c0-.34,0-.73,0-1.18C99.43,33.62,99.06,27.21,98.93,24.93Z" class="cls-15"/><path data-cppathid="10237" d="M96.5,26.82c0-.68,0-1.26,0-1.7l.49,0c0,1.6.12,5.25.07,8.48Z" class="cls-15"/><path data-cppathid="10238" d="M110.07,38.06a1.4,1.4,0,1,0,1.29-1.51A1.41,1.41,0,0,0,110.07,38.06Z" class="cls-14"/><path data-cppathid="10239" d="M111.59,39.58a1.63,1.63,0,1,1,1.51-1.76A1.64,1.64,0,0,1,111.59,39.58Zm-.21-2.79a1.16,1.16,0,1,0,1.24,1.07A1.16,1.16,0,0,0,111.38,36.79Z" class="cls-15"/><path data-cppathid="10240" d="M103.35,38.57a1.4,1.4,0,1,0,1.29-1.5A1.4,1.4,0,0,0,103.35,38.57Z" class="cls-14"/><path data-cppathid="10241" d="M104.87,40.1a1.64,1.64,0,1,1,1.51-1.76A1.64,1.64,0,0,1,104.87,40.1Zm-.21-2.79a1.16,1.16,0,0,0-1.07,1.25,1.18,1.18,0,0,0,1.25,1.07,1.16,1.16,0,0,0-.18-2.32Z" class="cls-15"/><path data-cppathid="10242" d="M97.35,37.86a1.37,1.37,0,0,1,.75-.28,1.39,1.39,0,0,1,1.5,1.28,1.41,1.41,0,0,1-1.29,1.51,1.38,1.38,0,0,1-.78-.17Z" class="cls-14"/><path data-cppathid="10243" d="M98.33,40.6a1.6,1.6,0,0,1-.91-.19.26.26,0,0,1-.13-.19l-.18-2.34a.25.25,0,0,1,.1-.21,1.6,1.6,0,0,1,.87-.33,1.63,1.63,0,1,1,.25,3.26ZM97.76,40a1.21,1.21,0,0,0,.53.09,1.16,1.16,0,0,0-.18-2.32,1.14,1.14,0,0,0-.51.17Z" class="cls-15"/><path data-cppathid="10244" d="M116.65,37.55A1.4,1.4,0,1,0,117.94,36,1.41,1.41,0,0,0,116.65,37.55Z" class="cls-14"/><path data-cppathid="10245" d="M118.18,39.07a1.64,1.64,0,1,1,1.5-1.76A1.64,1.64,0,0,1,118.18,39.07ZM118,36.28a1.16,1.16,0,1,0,1.25,1.07A1.16,1.16,0,0,0,118,36.28Z" class="cls-15"/><path data-cppathid="10246" d="M123.22,37a1.4,1.4,0,1,0,1.29-1.5A1.4,1.4,0,0,0,123.22,37Z" class="cls-14"/><path data-cppathid="10247" d="M124.74,38.57a1.64,1.64,0,1,1,1.51-1.76A1.64,1.64,0,0,1,124.74,38.57Zm-.21-2.79A1.15,1.15,0,0,0,123.46,37a1.16,1.16,0,1,0,1.07-1.24Z" class="cls-15"/><path data-cppathid="10248" d="M140.11,33.31a1.4,1.4,0,1,0,1.29-1.51A1.41,1.41,0,0,0,140.11,33.31Z" class="cls-14"/><path data-cppathid="10249" d="M141.63,34.83a1.63,1.63,0,1,1,1.51-1.76A1.64,1.64,0,0,1,141.63,34.83ZM141.42,32a1.16,1.16,0,1,0,1.24,1.07A1.16,1.16,0,0,0,141.42,32Z" class="cls-15"/><path data-cppathid="10250" d="M129.55,36.55a1.4,1.4,0,1,0,1.29-1.5A1.41,1.41,0,0,0,129.55,36.55Z" class="cls-14"/><path data-cppathid="10251" d="M131.08,38.08a1.64,1.64,0,1,1,1.5-1.76A1.64,1.64,0,0,1,131.08,38.08Zm-.22-2.79a1.16,1.16,0,1,0,1.25,1.07A1.16,1.16,0,0,0,130.86,35.29Z" class="cls-15"/><path data-cppathid="10252" d="M135.53,35.06a1.4,1.4,0,1,0,1.29-1.5A1.39,1.39,0,0,0,135.53,35.06Z" class="cls-14"/><path data-cppathid="10253" d="M137.05,36.59a1.64,1.64,0,1,1,1.51-1.76A1.64,1.64,0,0,1,137.05,36.59Zm-.21-2.79a1.16,1.16,0,0,0-1.07,1.25A1.18,1.18,0,0,0,137,36.12a1.16,1.16,0,0,0-.18-2.32Z" class="cls-15"/><path data-cppathid="10254" d="M96.32,24.54l29-2.24a.58.58,0,0,1,.56.31,21.27,21.27,0,0,0,4.66,5.54c3.85,3.14,7.91,3.62,12.07,1.45a.59.59,0,0,1,.71.11l.52.55a.6.6,0,0,1,0,.85.61.61,0,0,1-.84,0l-.22-.24a11.42,11.42,0,0,1-13-1.8A22.35,22.35,0,0,1,125,23.52l-28.6,2.2Z" class="cls-15"/><rect data-cppathid="10255" transform="translate(-3.84 3.8) rotate(-4.41)" height="76.01" width="7.19" y="13.7" x="43.78" class="cls-13"/><rect data-cppathid="10256" transform="translate(-3.86 3.58) rotate(-4.41)" height="76.01" width="1.58" y="13.92" x="43.79" class="cls-4"/><rect data-cppathid="10257" transform="translate(-3.81 3.99) rotate(-4.41)" height="76.01" width="2.19" y="13.51" x="48.77" class="cls-3"/><rect data-cppathid="10258" transform="translate(-3.39 7.69) rotate(-4.41)" height="76.01" width="7.19" y="9.79" x="94.52" class="cls-13"/><rect data-cppathid="10259" transform="translate(-3.41 7.47) rotate(-4.41)" height="76.01" width="1.58" y="10" x="94.53" class="cls-4"/><rect data-cppathid="10260" transform="translate(-3.36 7.88) rotate(-4.41)" height="76.01" width="2.19" y="9.59" x="99.51" class="cls-3"/><rect data-cppathid="10261" transform="translate(-0.14 5.38) rotate(-4.41)" height="4.51" width="49.8" y="2.19" x="44.89" class="cls-14"/><path data-cppathid="10262" d="M95,5,45,8.81,44.6,4l50-3.86ZM45.31,8.42l49.3-3.8L94.29.48,45,4.28Z" class="cls-15"/><path data-cppathid="10263" d="M111.91,10.08a11.36,11.36,0,0,1-2.64.6,14.53,14.53,0,0,1-3.67.11,37,37,0,0,1-7,1.55c-4.25.53-13.87,1.34-27.84,2.32h0c-14,1.17-23.59,1.86-27.86,2A35.46,35.46,0,0,1,35,16.07a8.57,8.57,0,0,1-1.62.36,11.46,11.46,0,0,1-3.6-.3L30,19.65A34.73,34.73,0,0,0,43,21.4c5.5-.16,18.31-1.17,28.1-2,3.58-.25,7.57-.54,11.45-.84,6.74-.52,13.16-1.07,16.63-1.51a34,34,0,0,0,13-4Z" class="cls-9"/><path data-cppathid="10264" d="M112.32,9.12C101.7,14.68,94.8,1.89,94.8,1.89L75,3.42l-10.33.8L44.92,5.74s-4.86,13.69-16.21,9.83l-.43.63S32.65,19.31,42.89,19c5.31-.16,17.5-1.11,28-2s22.69-1.68,28-2.34c10.16-1.28,14-5,14-5Z" class="cls-14"/><path data-cppathid="10265" d="M38.09,18.59a26.64,26.64,0,0,0,4.75-8.51l.27-.71c-.35.56-.76,1.15-1.21,1.74a25.87,25.87,0,0,1-4.17,7.15l-.53.55.62.07Z" class="cls-15"/><path data-cppathid="10266" d="M37.85,14.8a9.33,9.33,0,0,1-1,.52c-.21.28-.44.55-.66.8a15.68,15.68,0,0,1-2.37,2.15l.64.13a16.46,16.46,0,0,0,2.09-1.95A15.47,15.47,0,0,0,37.85,14.8Z" class="cls-15"/><path data-cppathid="10267" d="M40,19l.65,0q.3-.33.6-.69a26.92,26.92,0,0,0,4.24-8.47c.61-1.8,1-3.37,1.25-4.27l-.52,0C45.6,8,43.77,14.46,40.85,18,40.56,18.38,40.27,18.7,40,19Z" class="cls-15"/><path data-cppathid="10268" d="M43,19l.68,0c.24-.28.48-.58.71-.9A28.41,28.41,0,0,0,48.1,9.66c.52-1.79.89-3.36,1.08-4.25l-.51,0c-.52,2.37-2.11,8.8-4.7,12.34A14,14,0,0,1,43,19Z" class="cls-15"/><path data-cppathid="10269" d="M46.15,18.87l.66,0c.24-.32.47-.65.7-1a29.09,29.09,0,0,0,3.21-8.39c.45-1.77.76-3.33.92-4.22l-.51,0c-.43,2.36-1.78,8.78-4,12.31A13.64,13.64,0,0,1,46.15,18.87Z" class="cls-15"/><path data-cppathid="10270" d="M50.22,17.34a12.88,12.88,0,0,1-.84,1.34l.63,0c.22-.33.43-.68.64-1.06C52.67,13.9,53.77,7.31,54.1,5l-.5,0c-.14.9-.38,2.38-.73,4.06A31.51,31.51,0,0,1,50.22,17.34Z" class="cls-15"/><path data-cppathid="10271" d="M52.64,18.46l.59,0c.19-.34.38-.71.56-1.1A35.47,35.47,0,0,0,56,9c.29-1.75.48-3.29.58-4.18l-.5,0c-.27,2.34-1.13,8.75-2.72,12.23A12.08,12.08,0,0,1,52.64,18.46Z" class="cls-15"/><path data-cppathid="10272" d="M55.91,18.23l.56,0c.16-.35.31-.73.46-1.13C58.24,13.45,58.85,6.93,59,4.65l-.49,0c-.19,2.33-.8,8.74-2.06,12.2C56.29,17.38,56.1,17.83,55.91,18.23Z" class="cls-15"/><path data-cppathid="10273" d="M61.23,8.59c.14-1.72.22-3.24.26-4.13l-.5,0c0,.89-.12,2.38-.25,4.06a49.34,49.34,0,0,1-1.15,8.11c-.13.48-.26.92-.4,1.31l.53,0c.12-.35.24-.73.35-1.14A50.34,50.34,0,0,0,61.23,8.59Z" class="cls-15"/><path data-cppathid="10274" d="M64,4.27l-.5,0a98,98,0,0,1-.73,12.14c-.08.48-.17.9-.26,1.27l.52,0c.07-.34.15-.72.22-1.15A101,101,0,0,0,64,4.27Z" class="cls-15"/><path data-cppathid="10275" d="M66.41,4.08l-.49,0c0,2.29.18,8.7-.07,12.11,0,.45-.07.86-.11,1.23l.5,0c0-.35.07-.73.1-1.15C66.59,12.82,66.46,6.36,66.41,4.08Z" class="cls-15"/><path data-cppathid="10276" d="M68.87,3.89l-.49,0c.14,2.28.51,8.69.6,12.08,0,.45,0,.84,0,1.18l.49,0c0-.35,0-.73,0-1.15C69.38,12.59,69,6.17,68.87,3.89Z" class="cls-15"/><path data-cppathid="10277" d="M71.33,3.7l-.49,0c.22,2.27.84,8.67,1.27,12.06,0,.41.11.79.15,1.14l.5,0c-.05-.34-.1-.73-.16-1.17C72.17,12.36,71.55,6,71.33,3.7Z" class="cls-15"/><path data-cppathid="10278" d="M73.8,3.51l-.49,0c.29,2.26,1.16,8.66,1.94,12,.09.41.18.78.27,1.12l.5,0c-.09-.36-.19-.76-.29-1.2C75,12.13,74.1,5.79,73.8,3.51Z" class="cls-15"/><path data-cppathid="10279" d="M76.26,3.32l-.49,0a98.55,98.55,0,0,0,2.62,12c.13.41.27.78.4,1.1l.51,0c-.14-.35-.29-.75-.45-1.22A99,99,0,0,1,76.26,3.32Z" class="cls-15"/><path data-cppathid="10280" d="M82.58,16.18c-.2-.37-.4-.78-.61-1.24A49.18,49.18,0,0,1,79.6,7.1c-.39-1.64-.7-3.1-.87-4l-.5,0c.18.87.49,2.36.89,4a49.62,49.62,0,0,0,2.4,7.93c.18.39.35.75.52,1.08Z" class="cls-15"/><path data-cppathid="10281" d="M84.67,14.92c.2.38.41.72.62,1l.56,0c-.25-.37-.5-.78-.75-1.24-1.78-3.23-3.37-9.47-3.91-11.74l-.5,0c.21.87.58,2.36,1.06,4A39.54,39.54,0,0,0,84.67,14.92Z" class="cls-15"/><path data-cppathid="10282" d="M87.81,14.69c.24.37.48.7.72,1l.59,0a13.1,13.1,0,0,1-.9-1.23C86.11,11.23,84.28,5,83.65,2.75l-.5,0c.24.86.67,2.36,1.22,4A35.06,35.06,0,0,0,87.81,14.69Z" class="cls-15"/><path data-cppathid="10283" d="M91.75,15.42l.62-.05c-.34-.36-.69-.76-1-1.2a32.05,32.05,0,0,1-3.88-7.7c-.6-1.61-1.07-3-1.34-3.91l-.51,0c.68,2.2,2.78,8.54,5.34,11.87C91.21,14.81,91.48,15.13,91.75,15.42Z" class="cls-15"/><path data-cppathid="10284" d="M94.09,14.24c.28.32.57.61.85.88l.65-.06a13.74,13.74,0,0,1-1.13-1.15c-2.77-3.13-5.08-9.27-5.88-11.54l-.5,0c.29.86.83,2.35,1.55,4A29.34,29.34,0,0,0,94.09,14.24Z" class="cls-15"/><path data-cppathid="10285" d="M97.23,14c.28.28.56.54.85.78l.67-.08a13.84,13.84,0,0,1-1.17-1.05c-3.1-3.1-5.65-9.21-6.53-11.48l-.51,0c.32.85.92,2.35,1.72,4A28.58,28.58,0,0,0,97.23,14Z" class="cls-15"/><path data-cppathid="10286" d="M100.37,13.77l.7.6.65-.12q-.51-.39-1-.84C97.27,10.33,94.48,4.25,93.52,2L93,2c.35.85,1,2.34,1.89,4A27,27,0,0,0,100.37,13.77Z" class="cls-15"/><path data-cppathid="10287" d="M103.52,13.54l.3.24.61-.15-.61-.47a25.6,25.6,0,0,1-5.21-6.42c-.54-.52-1-1-1.46-1.54.11.21.24.44.37.66A26.7,26.7,0,0,0,103.52,13.54Z" class="cls-15"/><path data-cppathid="10288" d="M106.77,12.91l.55-.2a21.5,21.5,0,0,1-2.78-2.5,9.12,9.12,0,0,1-.93-.28A24.42,24.42,0,0,0,106.77,12.91Z" class="cls-15"/><path data-cppathid="10289" d="M62.34,18.38a1.4,1.4,0,1,1-1.51-1.29A1.41,1.41,0,0,1,62.34,18.38Z" class="cls-14"/><path data-cppathid="10290" d="M61.07,20.12a1.63,1.63,0,1,1,1.51-1.76A1.64,1.64,0,0,1,61.07,20.12Zm-.22-2.79A1.16,1.16,0,1,0,62.1,18.4,1.16,1.16,0,0,0,60.85,17.33Z" class="cls-15"/><path data-cppathid="10291" d="M69.05,17.86a1.4,1.4,0,1,1-1.5-1.28A1.39,1.39,0,0,1,69.05,17.86Z" class="cls-14"/><path data-cppathid="10292" d="M67.78,19.6a1.63,1.63,0,1,1,1.51-1.75A1.63,1.63,0,0,1,67.78,19.6Zm-.21-2.79a1.16,1.16,0,1,0,1.25,1.07A1.16,1.16,0,0,0,67.57,16.81Z" class="cls-15"/><path data-cppathid="10293" d="M75.6,17.36a1.4,1.4,0,1,1-1.5-1.29A1.4,1.4,0,0,1,75.6,17.36Z" class="cls-14"/><path data-cppathid="10294" d="M74.33,19.1a1.64,1.64,0,1,1,1.51-1.76A1.64,1.64,0,0,1,74.33,19.1Zm-.22-2.79a1.16,1.16,0,1,0,1.25,1.07A1.17,1.17,0,0,0,74.11,16.31Z" class="cls-15"/><path data-cppathid="10295" d="M82.14,16.85a1.4,1.4,0,1,1-1.5-1.28A1.4,1.4,0,0,1,82.14,16.85Z" class="cls-14"/><path data-cppathid="10296" d="M80.87,18.59a1.63,1.63,0,1,1,1.51-1.75A1.64,1.64,0,0,1,80.87,18.59Zm-.21-2.79a1.16,1.16,0,1,0,1.24,1.07A1.16,1.16,0,0,0,80.66,15.8Z" class="cls-15"/><path data-cppathid="10297" d="M88.69,16.35a1.4,1.4,0,1,1-1.5-1.29A1.39,1.39,0,0,1,88.69,16.35Z" class="cls-14"/><path data-cppathid="10298" d="M87.42,18.09a1.64,1.64,0,1,1,1.51-1.76A1.64,1.64,0,0,1,87.42,18.09Zm-.21-2.79a1.16,1.16,0,1,0,1.25,1.07A1.16,1.16,0,0,0,87.21,15.3Z" class="cls-15"/><path data-cppathid="10299" d="M95.19,15.85a1.4,1.4,0,1,1-1.5-1.29A1.4,1.4,0,0,1,95.19,15.85Z" class="cls-14"/><path data-cppathid="10300" d="M93.92,17.59a1.64,1.64,0,1,1,1.51-1.76A1.64,1.64,0,0,1,93.92,17.59Zm-.21-2.79A1.16,1.16,0,1,0,95,15.87,1.16,1.16,0,0,0,93.71,14.8Z" class="cls-15"/><path data-cppathid="10301" d="M101.6,15.35a1.4,1.4,0,1,1-1.5-1.29A1.4,1.4,0,0,1,101.6,15.35Z" class="cls-14"/><path data-cppathid="10302" d="M100.33,17.09a1.63,1.63,0,1,1,1.51-1.76A1.64,1.64,0,0,1,100.33,17.09Zm-.21-2.79a1.16,1.16,0,1,0,1.25,1.07A1.16,1.16,0,0,0,100.12,14.3Z" class="cls-15"/><path data-cppathid="10303" d="M107.41,13.88a1.4,1.4,0,1,1-1.5-1.29A1.39,1.39,0,0,1,107.41,13.88Z" class="cls-14"/><path data-cppathid="10304" d="M106.14,15.62a1.64,1.64,0,1,1,1.51-1.76A1.64,1.64,0,0,1,106.14,15.62Zm-.21-2.79a1.15,1.15,0,0,0-1.07,1.24,1.16,1.16,0,1,0,1.07-1.24Z" class="cls-15"/><path data-cppathid="10305" d="M112.26,11.73a1.4,1.4,0,1,1-1.5-1.29A1.4,1.4,0,0,1,112.26,11.73Z" class="cls-14"/><path data-cppathid="10306" d="M111,13.47a1.64,1.64,0,1,1,1.51-1.76A1.64,1.64,0,0,1,111,13.47Zm-.22-2.79a1.16,1.16,0,0,0-1.06,1.25,1.16,1.16,0,0,0,2.31-.18A1.16,1.16,0,0,0,110.77,10.68Z" class="cls-15"/><path data-cppathid="10307" d="M55.75,18.89a1.4,1.4,0,1,1-1.5-1.29A1.39,1.39,0,0,1,55.75,18.89Z" class="cls-14"/><path data-cppathid="10308" d="M54.48,20.63A1.64,1.64,0,1,1,56,18.87,1.64,1.64,0,0,1,54.48,20.63Zm-.21-2.79a1.16,1.16,0,1,0,1.24,1.07A1.15,1.15,0,0,0,54.27,17.84Z" class="cls-15"/><path data-cppathid="10309" d="M49.19,19.4a1.4,1.4,0,1,1-1.51-1.29A1.4,1.4,0,0,1,49.19,19.4Z" class="cls-14"/><path data-cppathid="10310" d="M47.92,21.14a1.64,1.64,0,1,1,1.5-1.76A1.64,1.64,0,0,1,47.92,21.14Zm-.22-2.79a1.15,1.15,0,0,0-1.07,1.24,1.16,1.16,0,1,0,1.07-1.24Z" class="cls-15"/><path data-cppathid="10311" d="M31.92,18.3A1.4,1.4,0,1,1,30.42,17,1.39,1.39,0,0,1,31.92,18.3Z" class="cls-14"/><path data-cppathid="10312" d="M30.65,20a1.64,1.64,0,1,1,1.51-1.76A1.63,1.63,0,0,1,30.65,20Zm-.21-2.79a1.15,1.15,0,0,0-1.07,1.24,1.16,1.16,0,1,0,1.07-1.24Z" class="cls-15"/><path data-cppathid="10313" d="M42.85,19.89a1.4,1.4,0,1,1-1.5-1.29A1.39,1.39,0,0,1,42.85,19.89Z" class="cls-14"/><path data-cppathid="10314" d="M41.58,21.63a1.64,1.64,0,1,1,1.51-1.76A1.64,1.64,0,0,1,41.58,21.63Zm-.21-2.8a1.16,1.16,0,0,0,.18,2.32,1.18,1.18,0,0,0,1.07-1.25A1.16,1.16,0,0,0,41.37,18.83Z" class="cls-15"/><path data-cppathid="10315" d="M36.72,19.33A1.4,1.4,0,1,1,35.21,18,1.41,1.41,0,0,1,36.72,19.33Z" class="cls-14"/><path data-cppathid="10316" d="M35.45,21.07A1.63,1.63,0,1,1,37,19.31,1.64,1.64,0,0,1,35.45,21.07Zm-.22-2.79a1.16,1.16,0,1,0,1.25,1.07A1.16,1.16,0,0,0,35.23,18.28Z" class="cls-15"/><path data-cppathid="10317" d="M33.45,16.82a12.24,12.24,0,0,1-4.5-.54l-.18.26a.6.6,0,1,1-1-.68l.43-.63A.61.61,0,0,1,28.9,15c4.45,1.51,8.39.41,11.71-3.28a21,21,0,0,0,3.75-6.19.6.6,0,0,1,.51-.39L94.75,1.3a.59.59,0,0,1,.57.31A21,21,0,0,0,100,7.15c3.84,3.14,7.9,3.62,12.07,1.45a.58.58,0,0,1,.7.11l.53.55a.62.62,0,0,1,0,.85.61.61,0,0,1-.84,0l-.23-.24c-4.44,2.16-8.92,1.54-13-1.8a22.13,22.13,0,0,1-4.73-5.53L45.34,6.31a21.93,21.93,0,0,1-3.83,6.19A12,12,0,0,1,33.45,16.82Z" class="cls-15"/></g></g></g></svg>