<?xml version="1.0" encoding="UTF-8"?>
<svg xmlns="http://www.w3.org/2000/svg" onmouseup="{ if(window.parent.document.onmouseup) window.parent.document.onmouseup(arguments[0]);}" viewBox="0 0 86.74 36.01"><defs><style>.cls-1{fill:#dff2fc;opacity:0.55;}</style></defs><g data-name="Layer 2" id="Layer_2"><g data-name="Layer 1" id="Layer_1-2"><path data-cppathid="10000" d="M63,32.05a2.76,2.76,0,0,1-.44.24l.44-.24c.75-.48,1.47-1.32.48-1.76a2.16,2.16,0,0,0-2.21.63,2.35,2.35,0,0,1-.38.39,4.68,4.68,0,0,1,.38-.39,9.12,9.12,0,0,0,.67-1A1.52,1.52,0,0,0,61,27.58a3.07,3.07,0,0,0-3.3,1.36,4.69,4.69,0,0,0-.46,2.53c-.07-.58-.22-1.69-1.6-1.45s-.94,1.66-.86,2.43v0a3.41,3.41,0,0,0-1.87-2.75,3,3,0,0,0-2.43.08,1.48,1.48,0,0,0-.91,2,4,4,0,0,0,1.59,1.47,12.22,12.22,0,0,0-2-.44c-1.31-.07-3.39.1-4.11,1.14s.63,2.26,3,2.05c1.57-.14,14.91-1.62,16.49-1.8,1.25-.14,3.06-.9,2.61-2C66.81,31.19,64.37,31.39,63,32.05Z" class="cls-1"/><path data-cppathid="10001" d="M82.8,4.17a3.24,3.24,0,0,1-.4.22,3,3,0,0,1,.4-.22c.68-.44,1.34-1.21.44-1.61a2,2,0,0,0-2,.57,2.36,2.36,0,0,1-.34.36,3.89,3.89,0,0,1,.34-.36,8.46,8.46,0,0,0,.61-.91A1.39,1.39,0,0,0,81,.08a2.8,2.8,0,0,0-3,1.25,4.23,4.23,0,0,0-.42,2.31c-.06-.54-.2-1.55-1.46-1.32s-.86,1.51-.79,2.22v0A3.09,3.09,0,0,0,73.64,2a2.78,2.78,0,0,0-2.22.07,1.36,1.36,0,0,0-.83,1.82A3.62,3.62,0,0,0,72,5.25a11.51,11.51,0,0,0-1.79-.4c-1.2-.07-3.1.09-3.76,1S67.07,8,69.25,7.76c1.44-.13,13.61-1.47,15-1.64,1.15-.13,2.8-.82,2.39-1.85S84.1,3.56,82.8,4.17Z" class="cls-1"/><path data-cppathid="10002" d="M17.94,9.15a4.91,4.91,0,0,1-.43.24,2.52,2.52,0,0,1,.43-.24c.75-.48,1.46-1.32.48-1.75a2.15,2.15,0,0,0-2.2.62,2.3,2.3,0,0,1-.37.39A4.59,4.59,0,0,1,16.22,8a8.26,8.26,0,0,0,.67-1A1.51,1.51,0,0,0,16,4.7a3,3,0,0,0-3.28,1.36,4.67,4.67,0,0,0-.45,2.51c-.07-.58-.22-1.69-1.59-1.44s-.94,1.65-.86,2.42v0A3.36,3.36,0,0,0,8,6.81a3,3,0,0,0-2.41.08,1.46,1.46,0,0,0-.91,2,4.06,4.06,0,0,0,1.58,1.47,12.08,12.08,0,0,0-1.95-.44C3,9.82.89,10,.18,11s.63,2.24,3,2c1.57-.14,14.83-1.6,16.39-1.78,1.25-.15,3-.9,2.6-2C21.78,8.29,19.36,8.49,17.94,9.15Z" class="cls-1"/></g></g></svg>