<?xml version="1.0" encoding="UTF-8"?>
<svg xmlns="http://www.w3.org/2000/svg" onmouseup="{ if(window.parent.document.onmouseup) window.parent.document.onmouseup(arguments[0]);}" viewBox="0 0 60.27 79.85"><defs><style>.cls-1{fill:#ff8da2;}.cls-2{fill:#ffb6c3;}.cls-3{fill:#655f5c;}</style></defs><g data-name="Layer 2" id="Layer_2"><g data-name="Layer 1" id="Layer_1-2"><circle data-cppathid="10000" r="0.71" cy="15.18" cx="36.86" class="cls-1"/><path data-cppathid="10001" d="M58.66,30.25a8,8,0,0,0-5.18-11.78,9.87,9.87,0,0,0,.61-2.56A9.35,9.35,0,0,0,45.63,5.75a9,9,0,0,0-2.27.08,8.32,8.32,0,0,0-14.2-3A9.22,9.22,0,0,0,25.6,1.79,9.28,9.28,0,0,0,15.45,11.91a6.46,6.46,0,0,0-.75-.11A9.32,9.32,0,0,0,4.82,23.49,9.35,9.35,0,0,0,8.49,41a9.15,9.15,0,0,0,1.57,0,11.49,11.49,0,0,0,19.19,7.43A11.5,11.5,0,0,0,49.47,44.7c.2,0,.4.07.6.08a9.33,9.33,0,0,0,8.59-14.53Zm-39-1.85c0,.05.05.1.08.14l-.34.06Z" class="cls-2"/><polygon data-cppathid="10002" points="30.54 79.85 23.82 79.24 30.64 27.72 33.19 27.95 30.54 79.85" class="cls-3"/><polygon data-cppathid="10003" points="30.82 40.25 27.07 34.18 25.48 35.04 29.77 42.46 30.82 40.25" class="cls-3"/><polygon data-cppathid="10004" points="31.73 34.73 36.53 29.43 37.93 30.57 32.36 37.09 31.73 34.73" class="cls-3"/><polygon data-cppathid="10005" points="29.52 45.41 34.31 40.12 35.72 41.25 30.15 47.77 29.52 45.41" class="cls-3"/><circle data-cppathid="10006" r="0.71" cy="21.11" cx="29.15" class="cls-1"/><circle data-cppathid="10007" r="0.71" cy="32.59" cx="19.51" class="cls-1"/><path data-cppathid="10008" d="M11.25,29.39a.71.71,0,1,1-.64-.77A.71.71,0,0,1,11.25,29.39Z" class="cls-1"/><circle data-cppathid="10009" r="0.71" cy="43.03" cx="18.55" class="cls-1"/><path data-cppathid="10010" d="M46.83,13.08a.7.7,0,0,1-.77.64.71.71,0,0,1,.13-1.41A.7.7,0,0,1,46.83,13.08Z" class="cls-1"/><circle data-cppathid="10011" r="0.71" cy="26.55" cx="42.26" class="cls-1"/><path data-cppathid="10012" d="M49.58,35.36a.7.7,0,0,1-.77.64.71.71,0,0,1,.13-1.41A.7.7,0,0,1,49.58,35.36Z" class="cls-1"/><circle data-cppathid="10013" r="0.71" cy="42.21" cx="40.83" class="cls-1"/><path data-cppathid="10014" d="M53.43,26.52a.71.71,0,1,1-.64-.77A.7.7,0,0,1,53.43,26.52Z" class="cls-1"/><circle data-cppathid="10015" r="0.71" cy="10.54" cx="26.92" class="cls-1"/><path data-cppathid="10016" d="M17.61,19.07a.72.72,0,0,1-.77.65A.71.71,0,0,1,16.2,19,.72.72,0,0,1,17,18.3.71.71,0,0,1,17.61,19.07Z" class="cls-1"/></g></g></svg>