<?xml version="1.0" encoding="UTF-8"?>
<svg xmlns="http://www.w3.org/2000/svg" onmouseup="{ if(window.parent.document.onmouseup) window.parent.document.onmouseup(arguments[0]);}" viewBox="0 0 82.27 92.01" xmlns:xlink="http://www.w3.org/1999/xlink"><defs><style>.cls-1{isolation:isolate;}.cls-2{fill:#ba321c;}.cls-3{opacity:0.1;}.cls-4,.cls-5{opacity:0.05;}.cls-5{fill:#fff;}.cls-6{fill:#333;}.cls-7{fill:#c64234;}.cls-8{mix-blend-mode:hard-light;opacity:0.2;fill:url(#linear-gradient);}</style><linearGradient gradientUnits="userSpaceOnUse" gradientTransform="translate(92.73 -613.98) rotate(16.45)" y2="625.92" x2="132.35" y1="689.56" x1="132.35" id="linear-gradient"><stop stop-color="#bb4a33" offset="0"/><stop stop-color="#d17f4e" offset="0.32"/><stop stop-color="#f0c872" offset="0.78"/><stop stop-color="#fce580" offset="1"/></linearGradient></defs><g class="cls-1"><g data-name="Layer 2" id="Layer_2"><g data-name="Layer 1" id="Layer_1-2"><path data-cppathid="10000" d="M40.92,16.9h-.1C26.59,12.69,21.31,11.1,4.65,3.18l.44,5.46c13.28,6.54,20.25,8.3,34.48,12.47l0,0h0c14.21,4.22,21,6.53,35.72,8.26l3.34-4.35C60.43,22.65,55.13,21.12,40.92,16.9Z" class="cls-2"/><path data-cppathid="10001" d="M40.88,17h-.1C26.56,12.81,21.27,11.21,4.62,3.29l.26,3.26c15,7,21,8.79,35.16,13h.1c14.17,4.21,20.13,5.94,36.56,8.22l2-2.59C60.4,22.77,55.09,21.24,40.88,17Z" class="cls-3"/><rect data-cppathid="10002" transform="translate(51.44 35.44) rotate(106.45)" height="4.89" width="46.33" y="34.5" x="-10.69" class="cls-2"/><rect data-cppathid="10003" transform="translate(73.25 -5.07) rotate(106.45)" height="4.89" width="8.35" y="22.39" x="34.34" class="cls-2"/><rect data-cppathid="10004" transform="translate(54.16 35.55) rotate(106.45)" height="1.76" width="40.8" y="37.13" x="-6.6" class="cls-4"/><rect data-cppathid="10005" transform="translate(49.45 37.29) rotate(106.45)" height="1.76" width="40.8" y="36.24" x="-9.61" class="cls-5"/><rect data-cppathid="10006" transform="translate(-56.07 49.4) rotate(-73.55)" height="7.69" width="9.37" y="58.37" x="0.33" class="cls-6"/><polygon data-cppathid="10007" points="3.91 56.36 2.84 56.77 9.8 58.82 9.12 57.9 3.91 56.36" class="cls-6"/><rect data-cppathid="10008" transform="translate(5.1 -4.72) rotate(16.45)" height="1.9" width="7.69" y="14.32" x="15.03" class="cls-7"/><rect data-cppathid="10009" transform="translate(5.59 -4.49) rotate(16.45)" height="1.9" width="4.89" y="16.14" x="15.9" class="cls-3"/><rect data-cppathid="10010" transform="translate(116.18 11.47) rotate(106.45)" height="4.89" width="46.33" y="46.7" x="30.64" class="cls-2"/><rect data-cppathid="10011" transform="translate(-38.15 97.78) rotate(-73.55)" height="7.69" width="9.37" y="70.57" x="41.66" class="cls-6"/><polygon data-cppathid="10012" points="45.24 68.57 44.16 68.97 51.13 71.03 50.45 70.11 45.24 68.57" class="cls-6"/><rect data-cppathid="10013" transform="translate(10.25 -15.93) rotate(16.45)" height="1.9" width="7.69" y="26.53" x="56.36" class="cls-7"/><rect data-cppathid="10014" transform="translate(10.74 -15.7) rotate(16.45)" height="1.9" width="4.89" y="28.35" x="57.22" class="cls-3"/><rect data-cppathid="10015" transform="translate(118.89 11.57) rotate(106.45)" height="1.76" width="40.8" y="49.34" x="34.72" class="cls-4"/><rect data-cppathid="10016" transform="translate(114.19 13.32) rotate(106.45)" height="1.76" width="40.8" y="48.45" x="31.72" class="cls-5"/><path data-cppathid="10017" d="M64.06,35.06l.62-2.31h0a12.07,12.07,0,0,1-5.87-.56,12,12,0,0,1-5.22-2.72h0l-.75,2.28Z" class="cls-2"/><rect data-cppathid="10018" transform="translate(9.9 -9.3) rotate(16.45)" height="4.89" width="74.42" y="27.13" x="-0.09" class="cls-2"/><path data-cppathid="10019" d="M22.74,22.86l.61-2.32h0A12,12,0,0,1,17.49,20a12,12,0,0,1-5.23-2.72h0l-.74,2.28Z" class="cls-2"/><path data-cppathid="10020" d="M40.42,18.22h.1c14.92,4.43,20.73,6.12,39.23,8.59l2.52-3.28C62.57,21,56.85,19.33,41.55,14.78h-.11c-15.32-4.49-21-6.21-39-14.74l.33,4.12C19.69,12.09,25.49,13.84,40.42,18.22Z" class="cls-6"/><path data-cppathid="10021" d="M82.27,35.58C62.57,33,56.85,31.34,41.55,26.79h-.06l0,0h0c-15.32-4.5-21-6.21-39-14.75l.33,4.12L4.76,17l.12,1.53,0,0,.17,2.06C9,22.56,12.3,24.06,15.44,25.34l-.52,1.77,1.34.4-.53,1.81-.55,1.86a9.54,9.54,0,0,1-2.92-1.9l-.72,2.21L2.13,28.71.74,33.4l12.68,3.74L4.17,68.45l-.26-.07-1,.35-.31-.09L0,77.63l7.38,2.18,2.65-9-.31-.09-.6-.82-.26-.07,9.25-31.31L54.75,49.35,45.5,80.66l-.26-.08-1,.36L44,80.85l-2.65,9L48.7,92l2.66-9-.31-.09-.6-.82L50.19,82l9.24-31.31,12.68,3.74,1.39-4.68L64.08,47l.6-2.25a9.52,9.52,0,0,1-3.49,0l.55-1.86.54-1.81,1.34.39.53-1.77c3.32.64,6.94,1.19,11.23,1.69l1.27-1.64h0l.93-1.21,2.12.28Zm-60-6.29L22.67,28c4.39,1.48,8.92,2.79,14.6,4.44l-1.8,6.1L22.76,34.8l.59-2.24a9.47,9.47,0,0,1-3.48,0l.55-1.86L21,28.89ZM57.05,41.53l-.55,1.86a9.5,9.5,0,0,1-2.91-1.9l-.72,2.2L40.16,39.94l1.8-6.1c5.67,1.69,10.18,3.06,14.66,4.2l-.37,1.27,1.34.4Z" class="cls-8"/></g></g></g></svg>