<?xml version="1.0" encoding="UTF-8"?>
<svg xmlns="http://www.w3.org/2000/svg" onmouseup="{ if(window.parent.document.onmouseup) window.parent.document.onmouseup(arguments[0]);}" viewBox="0 0 49.2 106.17" xmlns:xlink="http://www.w3.org/1999/xlink"><defs><style>.cls-1{fill:none;}.cls-2{isolation:isolate;}.cls-3{fill:#ce4627;}.cls-4{fill:#5e190d;}.cls-5,.cls-8{fill:#dcddde;}.cls-6,.cls-9{fill:#c1c3c4;}.cls-12,.cls-21,.cls-22,.cls-6,.cls-8{mix-blend-mode:multiply;}.cls-7{fill:#cdcfd0;}.cls-10{fill:#babcbd;}.cls-11{fill:#a2a5a7;}.cls-12{fill:#adb0b1;}.cls-13{fill:#50899f;}.cls-14{fill:#789da6;}.cls-15{fill:#5b727d;}.cls-16{fill:#4b6069;}.cls-17{fill:#36474e;}.cls-18{fill:#202f35;}.cls-19{clip-path:url(#clip-path);}.cls-20,.cls-21{fill:#a4a6a8;}.cls-22{fill:#d1d3d4;}</style><clipPath id="clip-path"><path data-cppathid="10000" d="M32.25,43.13c-3.18-1.22-5.84-2-5.93-1.78l-.94,2.44-.37.94-.94,2.45c-.09.24,2.41,1.43,5.59,2.65s5.84,2,5.93,1.79l.94-2.44.36-1,1-2.44C37.93,45.55,35.43,44.36,32.25,43.13Z" class="cls-1"/></clipPath></defs><g class="cls-2"><g data-name="Layer 2" id="Layer_2"><g data-name="Layer 1" id="Layer_1-2"><polygon data-cppathid="10001" points="47.6 3.25 48.01 3.41 49.2 0.06 49.05 0 47.6 3.25" class="cls-3"/><path data-cppathid="10002" d="M34.37,38.38,33,37.84l0-.08L43.63,12.08l.77.3Zm-1.17-.63,1.08.42,9.91-25.7-.47-.18Z" class="cls-3"/><path data-cppathid="10003" d="M35.62,38.86l-1.4-.54,10-26,.77.3Zm-1.19-.63,1.09.41,9.29-25.93-.47-.18Z" class="cls-3"/><path data-cppathid="10004" d="M44.88,13l-1.41-.55L47.59,3.2l.46.18Zm-1.19-.64,1.09.42,3.06-9.32-.17-.07Z" class="cls-3"/><rect data-cppathid="10005" transform="translate(22.03 48.03) rotate(-68.91)" height="0.17" width="9.85" y="7.88" x="41.09" class="cls-3"/><rect data-cppathid="10006" transform="translate(13.9 -11.13) rotate(21.09)" height="0.36" width="2.73" y="31.59" x="35.47" class="cls-4"/><rect data-cppathid="10007" transform="translate(11.05 -12.88) rotate(21.09)" height="0.36" width="2.73" y="23.06" x="38.76" class="cls-4"/><rect data-cppathid="10008" transform="translate(7.51 -15.07) rotate(21.09)" height="0.44" width="1.75" y="12.41" x="43.34" class="cls-4"/><rect data-cppathid="10009" transform="translate(5.68 -16.19) rotate(21.09)" height="0.25" width="1.05" y="7.04" x="45.81" class="cls-4"/><rect data-cppathid="10010" transform="translate(4.4 -16.98) rotate(21.09)" height="0.17" width="0.72" y="3.24" x="47.44" class="cls-4"/><path data-cppathid="10011" d="M33.46,36.91a.1.1,0,0,1-.06-.09.08.08,0,0,1,.1-.07l2.65.26a.09.09,0,0,1,0,.17l-2.66-.27Z" class="cls-3"/><path data-cppathid="10012" d="M35.86,37.83h0l-2.15-1.59a.08.08,0,0,1,0-.11.07.07,0,0,1,.11,0l2.15,1.59a.07.07,0,0,1,0,.11A.07.07,0,0,1,35.86,37.83Z" class="cls-3"/><path data-cppathid="10013" d="M34.25,34.86a.08.08,0,0,1-.06-.08.09.09,0,0,1,.09-.08l2.66.27a.08.08,0,0,1,.08.09s-.05.08-.09.07l-2.66-.26Z" class="cls-3"/><path data-cppathid="10014" d="M36.65,35.79h0l-2.15-1.59a.09.09,0,0,1,0-.12.09.09,0,0,1,.12,0l2.15,1.58a.09.09,0,0,1,0,.12A.1.1,0,0,1,36.65,35.79Z" class="cls-3"/><path data-cppathid="10015" d="M35.19,32.72a.09.09,0,0,1-.06-.07.09.09,0,0,1,.09-.09h2.64a.08.08,0,0,1,.09.08.08.08,0,0,1-.08.08H35.19Z" class="cls-3"/><path data-cppathid="10016" d="M37.49,33.61h0l-2-1.79a.07.07,0,0,1,0-.11.08.08,0,0,1,.12,0l2,1.78a.09.09,0,0,1,0,.12A.07.07,0,0,1,37.49,33.61Z" class="cls-3"/><path data-cppathid="10017" d="M36,30.66a.11.11,0,0,1-.05-.09.08.08,0,0,1,.09-.07l2.36.23a.09.09,0,0,1,.08.09.1.1,0,0,1-.1.08l-2.35-.24Z" class="cls-3"/><path data-cppathid="10018" d="M38.16,31.48h0l-1.91-1.41a.09.09,0,0,1,0-.12.09.09,0,0,1,.12,0l1.91,1.4a.09.09,0,0,1,0,.12A.08.08,0,0,1,38.16,31.48Z" class="cls-3"/><path data-cppathid="10019" d="M36.72,28.84a.09.09,0,0,1,0-.08.09.09,0,0,1,.09-.08l2.36.24a.08.08,0,1,1,0,.16l-2.35-.23Z" class="cls-3"/><path data-cppathid="10020" d="M38.86,29.66s0,0,0,0l-1.91-1.4a.09.09,0,0,1,.1-.14l1.91,1.41a.09.09,0,0,1,0,.12A.07.07,0,0,1,38.86,29.66Z" class="cls-3"/><path data-cppathid="10021" d="M37.56,27a.09.09,0,0,1-.06-.08.08.08,0,0,1,.09-.08h2.35a.09.09,0,0,1,.08.08.09.09,0,0,1-.08.09H37.56Z" class="cls-3"/><path data-cppathid="10022" d="M39.6,27.74l0,0-1.73-1.58a.08.08,0,0,1,0-.12A.09.09,0,0,1,38,26l1.74,1.59a.08.08,0,0,1,0,.11A.08.08,0,0,1,39.6,27.74Z" class="cls-3"/><path data-cppathid="10023" d="M38.4,24.76a.08.08,0,0,1,0-.16h2.35a.08.08,0,0,1,.08.09.08.08,0,0,1-.08.08H38.4Z" class="cls-3"/><path data-cppathid="10024" d="M40.44,25.55s0,0,0,0L38.68,24a.08.08,0,0,1,0-.12.08.08,0,0,1,.11,0l1.74,1.58a.08.08,0,0,1,0,.12A.1.1,0,0,1,40.44,25.55Z" class="cls-3"/><path data-cppathid="10025" d="M39.71,22a.08.08,0,0,1,0-.16h1.87a.09.09,0,0,1,.08.09.09.09,0,0,1-.08.08h-1.9Z" class="cls-3"/><path data-cppathid="10026" d="M41.34,22.62l0,0-1.38-1.26a.08.08,0,0,1,0-.12.09.09,0,0,1,.12,0l1.38,1.26a.08.08,0,0,1,0,.11A.09.09,0,0,1,41.34,22.62Z" class="cls-3"/><path data-cppathid="10027" d="M40.32,20.4a.1.1,0,0,1,0-.08.08.08,0,0,1,.09-.08l1.8.06a.1.1,0,0,1,.08.09.08.08,0,0,1-.09.08l-1.8-.07Z" class="cls-3"/><path data-cppathid="10028" d="M41.92,21h0l-1.38-1.16a.09.09,0,1,1,.11-.13L42,20.87A.09.09,0,0,1,42,21,.1.1,0,0,1,41.92,21Z" class="cls-3"/><path data-cppathid="10029" d="M41,18.75a.09.09,0,0,1-.06-.08.1.1,0,0,1,.09-.08l1.8.07a.08.08,0,0,1,.08.09.09.09,0,0,1-.08.08L41,18.76Z" class="cls-3"/><path data-cppathid="10030" d="M42.55,19.37l0,0-1.39-1.16a.08.08,0,0,1,0-.11.08.08,0,0,1,.12,0l1.38,1.16a.07.07,0,0,1,0,.11A.08.08,0,0,1,42.55,19.37Z" class="cls-3"/><path data-cppathid="10031" d="M41.74,16.72a.1.1,0,0,1-.05-.08.08.08,0,0,1,.09-.08l1.8.06a.1.1,0,0,1,.08.09.08.08,0,0,1-.09.08l-1.8-.07Z" class="cls-3"/><path data-cppathid="10032" d="M43.33,17.33h0l-1.38-1.16A.09.09,0,1,1,42,16l1.38,1.16a.09.09,0,0,1,0,.12A.12.12,0,0,1,43.33,17.33Z" class="cls-3"/><path data-cppathid="10033" d="M42.54,14.66a.08.08,0,0,1-.06-.08.09.09,0,0,1,.09-.08l1.8.07a.08.08,0,0,1,.08.09.09.09,0,0,1-.09.08l-1.8-.07Z" class="cls-3"/><path data-cppathid="10034" d="M44.13,15.28l0,0L42.72,14.1a.08.08,0,0,1,0-.11.08.08,0,0,1,.12,0l1.38,1.16a.08.08,0,0,1,0,.11A.08.08,0,0,1,44.13,15.28Z" class="cls-3"/><path data-cppathid="10035" d="M43.87,11.68a.08.08,0,0,1,0-.07.08.08,0,0,1,.08-.09l1.4-.09a.09.09,0,0,1,.09.08.1.1,0,0,1-.08.09l-1.4.08Z" class="cls-3"/><path data-cppathid="10036" d="M45.06,12.14l0,0-1-1a.08.08,0,0,1,0-.11.07.07,0,0,1,.12,0l1,1a.09.09,0,0,1,0,.12A.1.1,0,0,1,45.06,12.14Z" class="cls-3"/><path data-cppathid="10037" d="M44.56,10.33a.08.08,0,0,1-.05-.07.09.09,0,0,1,.08-.09l1-.06a.09.09,0,0,1,.09.08.09.09,0,0,1-.08.08l-1,.07Z" class="cls-3"/><path data-cppathid="10038" d="M45.45,10.68l0,0-.74-.76a.08.08,0,0,1,0-.11.09.09,0,0,1,.12,0l.73.75a.07.07,0,0,1,0,.12A.1.1,0,0,1,45.45,10.68Z" class="cls-3"/><path data-cppathid="10039" d="M45.08,9a.08.08,0,0,1,0-.16l1.06-.07a.08.08,0,0,1,.08.08.07.07,0,0,1-.07.09L45.11,9Z" class="cls-3"/><path data-cppathid="10040" d="M46,9.33l0,0-.73-.75a.08.08,0,1,1,.12-.12l.73.76a.07.07,0,0,1,0,.11A.08.08,0,0,1,46,9.33Z" class="cls-3"/><path data-cppathid="10041" d="M34.29,37.84c-1.38-.53-2.55-.81-2.62-.63l-1,2.58c-.07.18,1,.76,2.36,1.29s2.54.81,2.61.63l1-2.58C36.72,39,35.66,38.37,34.29,37.84Z" class="cls-5"/><path data-cppathid="10042" d="M34,38.72c-1.38-.53-2.55-.81-2.62-.63l-1,2.58c-.07.18,1,.76,2.36,1.29s2.54.81,2.61.63l1-2.58C36.38,39.83,35.32,39.25,34,38.72Z" class="cls-6"/><polygon data-cppathid="10043" points="35.49 40.33 34.76 40.05 32.45 39.16 31.73 38.88 10.89 91.42 12.12 91.89 14.42 92.78 15.65 93.25 35.49 40.33" class="cls-7"/><polygon data-cppathid="10044" points="32.85 39.31 31.73 38.88 10.89 91.42 11.79 91.77 32.85 39.31" class="cls-8"/><polygon data-cppathid="10045" points="35.49 40.33 34.65 40 14.31 92.74 15.65 93.25 35.49 40.33" class="cls-8"/><polygon data-cppathid="10046" points="31.56 50.9 35.49 40.33 31.73 38.88 27.54 49.34 31.56 50.9" class="cls-8"/><path data-cppathid="10047" d="M33.89,38.88c-1.81-.69-3.35-1.07-3.44-.83l-1.31,3.39c-.09.24,1.3,1,3.11,1.69s3.34,1.07,3.43.83L37,40.57C37.08,40.34,35.69,39.58,33.89,38.88Z" class="cls-9"/><path data-cppathid="10048" d="M33.38,40.2c-1.81-.7-3.34-1.07-3.44-.83l-1.3,3.39c-.1.24,1.29,1,3.1,1.69s3.34,1.07,3.43.83l1.31-3.39C36.57,41.65,35.18,40.89,33.38,40.2Z" class="cls-6"/><path data-cppathid="10049" d="M33.2,40.65c-2.58-1-4.74-1.61-4.84-1.37l-1.3,3.39c-.1.23,1.92,1.24,4.5,2.23s4.75,1.61,4.85,1.37l1.3-3.39C37.81,42.64,35.79,41.64,33.2,40.65Z" class="cls-10"/><path data-cppathid="10050" d="M32.25,43.13c-3.18-1.22-5.84-2-5.93-1.78l-.94,2.44-.37.94-.94,2.45c-.09.24,2.41,1.43,5.59,2.65s5.84,2,5.93,1.79l.94-2.44.36-1,1-2.44C37.93,45.55,35.43,44.36,32.25,43.13Z" class="cls-5"/><path data-cppathid="10051" d="M25.18,61.45c-1.38-.54-2.5-.94-2.51-.91l-.16.41s1.1.48,2.47,1,2.5.94,2.51.91l.16-.41S26.55,62,25.18,61.45Z" class="cls-11"/><path data-cppathid="10052" d="M24.26,63.82c-1.37-.53-2.5-.94-2.51-.91l-.15.41s1.09.48,2.47,1,2.5.94,2.51.91l.15-.41S25.64,64.35,24.26,63.82Z" class="cls-11"/><path data-cppathid="10053" d="M27,41.39c-.41-.09-.65-.11-.68,0l-2.25,5.83c0,.07.17.22.53.43Z" class="cls-12"/><path data-cppathid="10054" d="M28.1,40l.36.1.18-.61-.31-.08Z" class="cls-13"/><path data-cppathid="10055" d="M29.19,40.33l-.6-.18.18-.61.61.18Z" class="cls-13"/><path data-cppathid="10056" d="M29.91,40.56l-.59-.19.19-.6.6.19Z" class="cls-14"/><polygon data-cppathid="10057" points="30.63 40.8 30.04 40.6 30.24 40 30.84 40.2 30.63 40.8" class="cls-13"/><polygon data-cppathid="10058" points="31.34 41.06 30.76 40.85 30.96 40.25 31.56 40.46 31.34 41.06" class="cls-15"/><polygon data-cppathid="10059" points="32.06 41.32 31.47 41.1 31.69 40.51 32.28 40.72 32.06 41.32" class="cls-16"/><polygon data-cppathid="10060" points="32.77 41.59 32.18 41.37 32.41 40.77 33 41 32.77 41.59" class="cls-16"/><polygon data-cppathid="10061" points="33.47 41.87 32.89 41.64 33.13 41.05 33.71 41.28 33.47 41.87" class="cls-17"/><path data-cppathid="10062" d="M34.18,42.16l-.58-.24.24-.59.58.24Z" class="cls-17"/><path data-cppathid="10063" d="M34.87,42.46l-.57-.25.25-.58.58.24Z" class="cls-17"/><polygon data-cppathid="10064" points="35.57 42.76 35 42.51 35.25 41.93 35.83 42.18 35.57 42.76" class="cls-17"/><polygon data-cppathid="10065" points="36.26 43.07 35.7 42.81 35.95 42.23 36.53 42.49 36.26 43.07" class="cls-18"/><path data-cppathid="10066" d="M37,43.39l-.56-.26.26-.58.57.27Z" class="cls-18"/><polygon data-cppathid="10067" points="37.69 43.04 37.35 42.88 37.07 43.45 37.46 43.63 37.69 43.04" class="cls-18"/><path data-cppathid="10068" d="M27.67,41.14l.36.1.17-.61-.3-.09Z" class="cls-13"/><path data-cppathid="10069" d="M28.75,41.46c-.19-.07-.39-.12-.59-.18l.18-.61.6.18Z" class="cls-13"/><path data-cppathid="10070" d="M29.48,41.69l-.6-.19.19-.61.6.19Z" class="cls-14"/><polygon data-cppathid="10071" points="30.19 41.93 29.6 41.73 29.8 41.13 30.4 41.33 30.19 41.93" class="cls-13"/><polygon data-cppathid="10072" points="30.91 42.18 30.32 41.98 30.53 41.37 31.13 41.58 30.91 42.18" class="cls-15"/><polygon data-cppathid="10073" points="31.62 42.44 31.04 42.23 31.25 41.63 31.85 41.85 31.62 42.44" class="cls-16"/><polygon data-cppathid="10074" points="32.33 42.72 31.75 42.49 31.97 41.9 32.56 42.12 32.33 42.72" class="cls-16"/><polygon data-cppathid="10075" points="33.04 43 32.46 42.76 32.69 42.17 33.28 42.41 33.04 43" class="cls-17"/><path data-cppathid="10076" d="M33.74,43.28l-.58-.23.24-.59c.2.07.39.16.59.24Z" class="cls-17"/><path data-cppathid="10077" d="M34.44,43.58l-.57-.24.24-.59.58.25Z" class="cls-17"/><polygon data-cppathid="10078" points="35.14 43.88 34.56 43.63 34.82 43.05 35.4 43.3 35.14 43.88" class="cls-17"/><polygon data-cppathid="10079" points="35.83 44.2 35.26 43.94 35.52 43.36 36.09 43.62 35.83 44.2" class="cls-18"/><path data-cppathid="10080" d="M36.52,44.52,36,44.25l.27-.57.57.26Z" class="cls-18"/><polygon data-cppathid="10081" points="37.25 44.16 36.91 44 36.64 44.58 37.02 44.76 37.25 44.16" class="cls-18"/><g class="cls-19"><path data-cppathid="10082" d="M26,43l-.39-.11-.19,0-.19-.05.31-1.24.21.06.2.05.4.12Z" class="cls-13"/><path data-cppathid="10083" d="M27,43.29l-.78-.23.36-1.22c.26.08.53.15.79.24Z" class="cls-13"/><path data-cppathid="10084" d="M27.91,43.59l-.77-.25.38-1.21.79.26Z" class="cls-14"/><polygon data-cppathid="10085" points="28.85 43.91 28.08 43.65 28.48 42.44 29.26 42.71 28.85 43.91" class="cls-13"/><polygon data-cppathid="10086" points="29.78 44.24 29.01 43.97 29.43 42.77 30.21 43.04 29.78 44.24" class="cls-15"/><polygon data-cppathid="10087" points="30.71 44.58 29.95 44.3 30.38 43.1 31.16 43.39 30.71 44.58" class="cls-16"/><polygon data-cppathid="10088" points="31.64 44.93 30.88 44.64 31.33 43.45 32.1 43.75 31.64 44.93" class="cls-16"/><polygon data-cppathid="10089" points="32.56 45.3 31.8 45 32.27 43.81 33.03 44.12 32.56 45.3" class="cls-17"/><path data-cppathid="10090" d="M33.48,45.68l-.76-.31.48-1.18.77.31Z" class="cls-17"/><path data-cppathid="10091" d="M34.39,46.06l-.75-.31.49-1.18c.26.11.51.21.76.33Z" class="cls-17"/><polygon data-cppathid="10092" points="35.3 46.46 34.55 46.13 35.06 44.97 35.82 45.3 35.3 46.46" class="cls-17"/><polygon data-cppathid="10093" points="36.2 46.87 35.46 46.53 35.98 45.37 36.73 45.72 36.2 46.87" class="cls-18"/><path data-cppathid="10094" d="M37.1,47.29l-.74-.35.54-1.15.75.35Z" class="cls-18"/><polygon data-cppathid="10095" points="38 47.72 37.26 47.37 37.81 46.22 38.55 46.57 38 47.72" class="cls-18"/><path data-cppathid="10096" d="M24.45,46.76l-.38-.2-.18-.09-.19-.11.62-1.11.17.1.17.09.36.18Z" class="cls-13"/><path data-cppathid="10097" d="M25.36,47.2l-.75-.36.57-1.14.73.36Z" class="cls-13"/><path data-cppathid="10098" d="M26.27,47.63l-.75-.35.54-1.15.74.34Z" class="cls-14"/><polygon data-cppathid="10099" points="27.2 48.04 26.44 47.71 26.96 46.55 27.7 46.88 27.2 48.04" class="cls-13"/><polygon data-cppathid="10100" points="28.13 48.44 27.36 48.11 27.87 46.95 28.61 47.26 28.13 48.44" class="cls-15"/><polygon data-cppathid="10101" points="29.06 48.82 28.29 48.51 28.78 47.33 29.53 47.64 29.06 48.82" class="cls-16"/><polygon data-cppathid="10102" points="30 49.19 29.23 48.88 29.7 47.7 30.46 48 30 49.19" class="cls-16"/><polygon data-cppathid="10103" points="30.95 49.54 30.17 49.25 30.62 48.06 31.39 48.34 30.95 49.54" class="cls-17"/><path data-cppathid="10104" d="M31.9,49.88l-.78-.28.43-1.2.77.28Z" class="cls-17"/><path data-cppathid="10105" d="M32.85,50.2l-.78-.26.42-1.21.77.27Z" class="cls-17"/><polygon data-cppathid="10106" points="33.81 50.52 33.02 50.26 33.42 49.05 34.2 49.31 33.81 50.52" class="cls-17"/><polygon data-cppathid="10107" points="34.77 50.82 33.98 50.57 34.37 49.36 35.14 49.6 34.77 50.82" class="cls-18"/><path data-cppathid="10108" d="M35.74,51.11l-.8-.24.37-1.22c.26.09.52.16.78.24Z" class="cls-18"/><polygon data-cppathid="10109" points="36.71 51.38 35.91 51.16 36.27 49.93 37.05 50.16 36.71 51.38" class="cls-18"/><rect data-cppathid="10110" transform="translate(-25.2 51.69) rotate(-68.91)" height="0.83" width="1.27" y="43.8" x="24.43" class="cls-13"/><rect data-cppathid="10111" transform="translate(-24.94 52.8) rotate(-68.91)" height="0.83" width="1.27" y="44.16" x="25.38" class="cls-13"/><rect data-cppathid="10112" transform="translate(-24.68 53.92) rotate(-68.91)" height="0.83" width="1.27" y="44.53" x="26.32" class="cls-14"/><rect data-cppathid="10113" transform="translate(-24.41 55.03) rotate(-68.91)" height="0.83" width="1.27" y="44.89" x="27.26" class="cls-13"/><rect data-cppathid="10114" transform="translate(-24.15 56.14) rotate(-68.91)" height="0.83" width="1.27" y="45.25" x="28.21" class="cls-15"/><rect data-cppathid="10115" transform="translate(-23.88 57.26) rotate(-68.91)" height="0.83" width="1.27" y="45.62" x="29.15" class="cls-16"/><rect data-cppathid="10116" transform="translate(-23.62 58.37) rotate(-68.91)" height="0.83" width="1.27" y="45.98" x="30.09" class="cls-16"/><rect data-cppathid="10117" transform="translate(-23.35 59.48) rotate(-68.91)" height="0.83" width="1.27" y="46.35" x="31.04" class="cls-17"/><rect data-cppathid="10118" transform="translate(-23.09 60.6) rotate(-68.91)" height="0.83" width="1.27" y="46.71" x="31.98" class="cls-17"/><rect data-cppathid="10119" transform="translate(-22.82 61.71) rotate(-68.91)" height="0.83" width="1.27" y="47.07" x="32.92" class="cls-17"/><rect data-cppathid="10120" transform="translate(-22.56 62.82) rotate(-68.91)" height="0.83" width="1.27" y="47.44" x="33.87" class="cls-17"/><rect data-cppathid="10121" transform="translate(-22.29 63.94) rotate(-68.91)" height="0.83" width="1.27" y="47.8" x="34.81" class="cls-18"/><rect data-cppathid="10122" transform="translate(-22.03 65.05) rotate(-68.91)" height="0.83" width="1.27" y="48.16" x="35.75" class="cls-18"/><rect data-cppathid="10123" transform="translate(-21.77 66.16) rotate(-68.91)" height="0.83" width="1.27" y="48.53" x="36.7" class="cls-18"/></g><path data-cppathid="10124" d="M35,44.26l-2.54,6.59c1.8.61,3.06.93,3.12.77l2.25-5.83C37.9,45.63,36.76,45,35,44.26Z" class="cls-12"/><rect data-cppathid="10125" transform="translate(34.31 1.53) rotate(21.09)" height="2.7" width="16.73" y="91.56" x="4.68" class="cls-20"/><rect data-cppathid="10126" transform="translate(34.52 1.66) rotate(21.09)" height="1.35" width="16.73" y="92.86" x="4.44" class="cls-21"/><rect data-cppathid="10127" transform="translate(36.01 2.58) rotate(21.09)" height="9.8" width="19.98" y="93.1" x="1.09" class="cls-7"/><polygon data-cppathid="10128" points="18.64 106.17 21.64 97.21 3.53 89.84 22.17 97.03 18.64 106.17" class="cls-22"/></g></g></g></svg>