<?xml version="1.0" encoding="UTF-8"?>
<svg xmlns="http://www.w3.org/2000/svg" onmouseup="{ if(window.parent.document.onmouseup) window.parent.document.onmouseup(arguments[0]);}" viewBox="0 0 103.85 98.88"><defs><style>.cls-1{isolation:isolate;}.cls-2{fill:#673b3a;}.cls-14,.cls-3{mix-blend-mode:multiply;}.cls-3{opacity:0.65;}.cls-4{fill:#009459;}.cls-5{fill:#321d1c;}.cls-6{fill:#402221;}.cls-7{fill:#825f5e;}.cls-8{fill:#9f9f9f;}.cls-9{fill:#636d72;}.cls-10{fill:#233138;}.cls-11{fill:#363b42;}.cls-12{fill:#006a45;}.cls-13{fill:#fa6700;}.cls-14,.cls-15{fill:#b8bbcc;}.cls-14{opacity:0.35;}.cls-16{fill:#604a59;}</style></defs><g class="cls-1"><g data-name="Layer 2" id="Layer_2"><g data-name="Layer 1" id="Layer_1-2"><rect data-cppathid="10000" transform="translate(-27.89 37.48) rotate(-58.05)" height="5.18" width="41.07" y="41.27" x="-0.71" class="cls-2"/><rect data-cppathid="10001" transform="translate(-28.49 49.22) rotate(-58.05)" height="5.18" width="41.07" y="47.69" x="9.57" class="cls-2"/><rect data-cppathid="10002" transform="matrix(0.53, -0.85, 0.85, 0.53, -30.12, 81.21)" height="5.18" width="41.07" y="65.15" x="37.58" class="cls-2"/><rect data-cppathid="10003" transform="translate(-30.72 92.95) rotate(-58.05)" height="5.18" width="41.07" y="71.56" x="47.86" class="cls-2"/><g class="cls-3"><rect data-cppathid="10004" transform="translate(-9.24 38.43) rotate(-58.05)" height="5.18" width="2.59" y="24.95" x="28.71" class="cls-2"/><rect data-cppathid="10005" transform="translate(-38.15 36.95) rotate(-58.05)" height="5.18" width="19.9" y="50.26" x="4.27" class="cls-2"/><rect data-cppathid="10006" transform="translate(-9.84 50.17) rotate(-58.05)" height="5.18" width="2.59" y="31.36" x="38.99" class="cls-2"/><rect data-cppathid="10007" transform="translate(-38.75 48.7) rotate(-58.05)" height="5.18" width="19.9" y="56.67" x="14.56" class="cls-2"/><rect data-cppathid="10008" transform="translate(-11.47 82.16) rotate(-58.05)" height="5.18" width="2.59" y="48.82" x="67" class="cls-2"/><rect data-cppathid="10009" transform="translate(-40.38 80.68) rotate(-58.05)" height="5.18" width="19.9" y="74.13" x="42.56" class="cls-2"/><rect data-cppathid="10010" transform="translate(-12.07 93.9) rotate(-58.05)" height="5.18" width="2.59" y="55.24" x="77.28" class="cls-2"/><rect data-cppathid="10011" transform="translate(-40.98 92.43) rotate(-58.05)" height="5.18" width="19.9" y="80.55" x="52.85" class="cls-2"/></g><rect data-cppathid="10012" transform="translate(-27.79 35.53) rotate(-58.05)" height="1.16" width="41.07" y="42.22" x="-2.42" class="cls-4"/><rect data-cppathid="10013" transform="translate(-28.39 47.27) rotate(-58.05)" height="1.16" width="41.07" y="48.63" x="7.87" class="cls-4"/><rect data-cppathid="10014" transform="translate(-30.22 83.15) rotate(-58.05)" height="1.16" width="41.07" y="68.22" x="39.28" class="cls-4"/><rect data-cppathid="10015" transform="translate(-30.81 94.9) rotate(-58.05)" height="1.16" width="41.07" y="74.64" x="49.56" class="cls-4"/><rect data-cppathid="10016" transform="translate(-50.71 64.12) rotate(-58.05)" height="74.23" width="3.51" y="40.63" x="30.67" class="cls-5"/><rect data-cppathid="10017" transform="translate(-45.52 64.08) rotate(-58.05)" height="52.63" width="7.17" y="46.74" x="31.4" class="cls-6"/><rect data-cppathid="10018" transform="translate(-46.4 81.51) rotate(-58.05)" height="16.67" width="7.17" y="74.24" x="46.66" class="cls-5"/><rect data-cppathid="10019" transform="translate(-44.62 46.59) rotate(-58.05)" height="16.53" width="7.17" y="55.23" x="16.08" class="cls-5"/><rect data-cppathid="10020" transform="translate(-48.38 63.94) rotate(-58.05)" height="19.46" width="1.25" y="65.83" x="32.79" class="cls-2"/><rect data-cppathid="10021" transform="translate(-46.04 64.05) rotate(-58.05)" height="19.46" width="1.25" y="63.79" x="34.07" class="cls-2"/><rect data-cppathid="10022" transform="translate(-43.71 64.17) rotate(-58.05)" height="19.46" width="1.26" y="61.74" x="35.34" class="cls-2"/><path data-cppathid="10023" d="M49.3,62.24,38.54,79.49l24.05,15L73.34,77.24ZM64.41,85.55l1.18.73-3.05,4.9-1.18-.74Zm5.2-8.35,1.19.74-3,4.89-1.19-.74ZM61.85,84l1.19.74L60,89.58l-1.18-.74Zm5.2-8.35,1.19.74-3,4.9L64,80.5Zm-7.76,6.75,1.19.74-3,4.89-1.19-.73ZM64.49,74l1.19.74-3.05,4.89-1.19-.74Zm-7.76,6.75,1.19.74-3.05,4.89-1.19-.74Zm5.21-8.35,1.18.74-3,4.89-1.18-.74Zm-7.77,6.75,1.19.74-3,4.89-1.19-.74Zm5.21-8.34,1.18.74-3.05,4.89-1.18-.74Zm-7.77,6.75,1.19.74-3,4.89-1.19-.74Zm5.21-8.35L58,70l-3,4.89-1.18-.74ZM49.06,76l1.18.74L47.19,81.6,46,80.86Zm5.2-8.34,1.19.74L52.4,73.26l-1.19-.74ZM46.5,74.38l1.18.74-3,4.89-1.18-.74ZM51.7,66l1.19.74-3,4.89-1.19-.74Zm-7.76,6.75,1.18.74-3,4.89-1.18-.74Zm5.2-8.34,1.19.74-3,4.89-1.19-.74Z" class="cls-2"/><path data-cppathid="10024" d="M14.88,40.78,4.12,58,28.17,73,38.92,55.77ZM8.3,57.35l-1.19-.74,3.05-4.89,1.19.74ZM13.5,49l-1.18-.73,3-4.9,1.18.74ZM10.86,59l-1.19-.74,3.05-4.9,1.19.74Zm5.2-8.35-1.18-.74,3-4.89,1.18.74Zm-2.64,9.94-1.19-.74,3-4.89,1.19.74Zm5.2-8.34-1.19-.74,3.05-4.89,1.19.73ZM16,62.14l-1.18-.74,3.05-4.89,1.18.74Zm5.21-8.35L20,53.05,23,48.16l1.19.74Zm-2.65,9.94L17.35,63l3-4.89,1.18.74Zm5.21-8.34-1.19-.74,3.05-4.89,1.19.74Zm-2.65,9.94-1.18-.74L23,59.7l1.18.74ZM26.3,57l-1.19-.74,3.05-4.89,1.19.74Zm-2.65,9.94-1.18-.74,3.05-4.89L26.7,62Zm5.2-8.34-1.18-.74,3-4.89,1.18.74Zm-2.64,9.94L25,67.78l3.05-4.89,1.19.74Zm5.2-8.35-1.18-.74,3.05-4.89,1.18.74Zm-2.64,9.94-1.19-.74,3.05-4.89,1.19.74ZM34,61.77,32.79,61l3.05-4.89,1.18.74Z" class="cls-2"/><rect data-cppathid="10025" transform="translate(-49.28 83.9) rotate(-58.05)" height="28.34" width="1.49" y="72.19" x="50.21" class="cls-5"/><rect data-cppathid="10026" transform="matrix(0.53, -0.85, 0.85, 0.53, -47.28, 44.59)" height="28.34" width="1.49" y="50.72" x="15.79" class="cls-5"/><rect data-cppathid="10027" transform="matrix(0.53, -0.85, 0.85, 0.53, -37.73, 45.08)" height="28.34" width="4.05" y="42.37" x="19.72" class="cls-7"/><rect data-cppathid="10028" transform="translate(-37.73 45.08) rotate(-58.05)" height="27.2" width="2.16" y="42.94" x="20.67" class="cls-6"/><rect data-cppathid="10029" transform="translate(-39.74 84.39) rotate(-58.05)" height="28.34" width="4.05" y="63.83" x="54.14" class="cls-7"/><rect data-cppathid="10030" transform="translate(-39.74 84.39) rotate(-58.05)" height="27.2" width="2.16" y="64.4" x="55.09" class="cls-6"/><rect data-cppathid="10031" transform="matrix(0.53, -0.85, 0.85, 0.53, -29.27, 45.51)" height="28.34" width="2.01" y="34.96" x="25.36" class="cls-7"/><rect data-cppathid="10032" transform="translate(-29.27 45.51) rotate(-58.05)" height="27.2" width="1.07" y="35.53" x="25.83" class="cls-6"/><rect data-cppathid="10033" transform="translate(-31.28 84.82) rotate(-58.05)" height="28.34" width="2.01" y="56.42" x="59.78" class="cls-7"/><rect data-cppathid="10034" transform="translate(-31.28 84.82) rotate(-58.05)" height="27.2" width="1.07" y="56.99" x="60.25" class="cls-6"/><path data-cppathid="10035" d="M98.32,61.61c-7.45-4.53-15.79-13.43-15.79-13.43L60,34.11l-.48-.3L36.92,19.74s-11.66-3.57-19-8.26c0,0,2.63,7.63,37,29.19h0l.43.27.43.26h0C90.3,62.61,98.32,61.61,98.32,61.61Z" class="cls-8"/><path data-cppathid="10036" d="M76.26,55c15.43,7.64,19.8,6.75,19.8,6.75C88.9,57.4,81.15,48.42,81.15,48.42L37.32,21.08s-11.47-3-18.52-7.52c0,0,1.12,4.32,14.77,14.81Z" class="cls-9"/><path data-cppathid="10037" d="M21,14.85,20.26,16c.22.28.46.59.73.92l1-1.58C21.64,15.2,21.32,15,21,14.85Z" class="cls-10"/><path data-cppathid="10038" d="M23.9,16.3l-1.44,2.31c.24.26.51.54.79.82l1.67-2.68Z" class="cls-10"/><path data-cppathid="10039" d="M25.65,21.69,28,18l-1.05-.41L24.8,21l.62.59Z" class="cls-10"/><path data-cppathid="10040" d="M28.39,23.4l2.66-4.26L30,18.76l-2.53,4Z" class="cls-10"/><path data-cppathid="10041" d="M31.13,25.11l3.08-4.93-1.09-.35-2.93,4.69Z" class="cls-10"/><path data-cppathid="10042" d="M33.87,26.82l3.54-5.68-.09-.06-1-.27-3.38,5.42Z" class="cls-10"/><rect data-cppathid="10043" transform="translate(-3.7 44.13) rotate(-58.05)" height="1.11" width="6.69" y="24.85" x="34.57" class="cls-10"/><rect data-cppathid="10044" transform="translate(-3.86 47.27) rotate(-58.05)" height="1.11" width="6.69" y="26.56" x="37.31" class="cls-10"/><rect data-cppathid="10045" transform="translate(-4.02 50.4) rotate(-58.05)" height="1.11" width="6.69" y="28.27" x="40.06" class="cls-10"/><rect data-cppathid="10046" transform="translate(-4.18 53.53) rotate(-58.05)" height="1.11" width="6.69" y="29.98" x="42.8" class="cls-10"/><rect data-cppathid="10047" transform="translate(-4.34 56.66) rotate(-58.05)" height="1.11" width="6.69" y="31.69" x="45.54" class="cls-10"/><rect data-cppathid="10048" transform="translate(-4.5 59.79) rotate(-58.05)" height="1.11" width="6.69" y="33.4" x="48.28" class="cls-10"/><rect data-cppathid="10049" transform="translate(-4.66 62.93) rotate(-58.05)" height="1.11" width="6.69" y="35.11" x="51.02" class="cls-10"/><rect data-cppathid="10050" transform="translate(-4.82 66.06) rotate(-58.05)" height="1.11" width="6.69" y="36.82" x="53.77" class="cls-10"/><rect data-cppathid="10051" transform="translate(-4.98 69.19) rotate(-58.05)" height="1.11" width="6.69" y="38.53" x="56.51" class="cls-10"/><rect data-cppathid="10052" transform="translate(-5.14 72.32) rotate(-58.05)" height="1.11" width="6.69" y="40.24" x="59.25" class="cls-10"/><rect data-cppathid="10053" transform="translate(-5.3 75.45) rotate(-58.05)" height="1.11" width="6.69" y="41.95" x="61.99" class="cls-10"/><rect data-cppathid="10054" transform="translate(-5.46 78.59) rotate(-58.05)" height="1.11" width="6.69" y="43.65" x="64.74" class="cls-10"/><rect data-cppathid="10055" transform="translate(-5.61 81.72) rotate(-58.05)" height="1.11" width="6.69" y="45.37" x="67.48" class="cls-10"/><rect data-cppathid="10056" transform="translate(-5.77 84.85) rotate(-58.05)" height="1.11" width="6.69" y="47.07" x="70.22" class="cls-10"/><rect data-cppathid="10057" transform="translate(-5.93 87.98) rotate(-58.05)" height="1.11" width="6.69" y="48.78" x="72.96" class="cls-10"/><path data-cppathid="10058" d="M77.73,54.17l3.52-5.64-.1-.11-.82-.51-3.54,5.67Z" class="cls-10"/><path data-cppathid="10059" d="M80.47,55.88l3-4.88-.78-.83-3.19,5.12Z" class="cls-10"/><path data-cppathid="10060" d="M83.22,57.59l2.62-4.22-.8-.8L82.28,57Z" class="cls-10"/><path data-cppathid="10061" d="M86,59.3l2.27-3.65-.82-.77L85,58.71Z" class="cls-10"/><path data-cppathid="10062" d="M89.84,57.09l-1.84,3,1.07.36,1.62-2.6Z" class="cls-10"/><path data-cppathid="10063" d="M92.36,59.16,91.19,61l1.13.28.92-1.49Z" class="cls-10"/><path data-cppathid="10064" d="M95,61.05l-.41.66a7,7,0,0,0,1.28,0l.07-.11Z" class="cls-10"/><path data-cppathid="10065" d="M56.6,38.9S21.1,17.69,17.92,11.48c0,0,.24,4.49,5.79,10.74L85.79,60.93c8.09,2.26,12.46.64,12.46.64C91.27,61.45,56.6,38.9,56.6,38.9Z" class="cls-4"/><path data-cppathid="10066" d="M32.06,12.89,92.29,50.45l.1-.16L103.85,49,95.53,43.8a44,44,0,0,1-6.57-5L86.25,36,47.69,12,44,10.76A46.08,46.08,0,0,1,36.53,7L28.29,1.87,32.11,12.8Z" class="cls-11"/><rect data-cppathid="10067" transform="translate(-0.11 67.54) rotate(-58.05)" height="70.99" width="5.19" y="-1.62" x="58.21" class="cls-12"/><path data-cppathid="10068" d="M61.63,30.83,60.89,32h0a.91.91,0,1,0,1.55,1h0l.74-1.19Z" class="cls-13"/><path data-cppathid="10069" d="M63.45,32l-.74,1.19h0a.92.92,0,0,0,1.56,1h0L65,33Z" class="cls-13"/><path data-cppathid="10070" d="M65.28,33.11l-.74,1.19h0a1,1,0,0,0,.3,1.25.94.94,0,0,0,1.25-.28h0l.74-1.18Z" class="cls-13"/><path data-cppathid="10071" d="M67.11,34.25l-.74,1.18h0a1,1,0,0,0,.3,1.25,1,1,0,0,0,1.26-.28h0l.74-1.18Z" class="cls-13"/><path data-cppathid="10072" d="M68.93,35.39l-.74,1.18h0a.91.91,0,0,0,1.55,1h0l.74-1.18Z" class="cls-13"/><path data-cppathid="10073" d="M70.76,36.53,70,37.71h0a1,1,0,0,0,.3,1.25,1,1,0,0,0,1.26-.29h0l.74-1.19Z" class="cls-13"/><path data-cppathid="10074" d="M72.58,37.66l-.74,1.19h0a1,1,0,0,0,.3,1.26,1,1,0,0,0,1.25-.29h0l.74-1.19Z" class="cls-13"/><path data-cppathid="10075" d="M74.41,38.8,73.67,40h0a1,1,0,0,0,.3,1.26A1,1,0,0,0,75.23,41h0L76,39.78Z" class="cls-13"/><path data-cppathid="10076" d="M76.23,39.94l-.74,1.19h0a1,1,0,0,0,.3,1.25.93.93,0,0,0,1.25-.28h0l.74-1.18Z" class="cls-13"/><path data-cppathid="10077" d="M78.06,41.08l-.74,1.18h0a.91.91,0,0,0,1.55,1h0l.74-1.18Z" class="cls-13"/><path data-cppathid="10078" d="M79.88,42.22l-.74,1.18h0a1,1,0,0,0,.3,1.25,1,1,0,0,0,1.26-.28h0l.74-1.18Z" class="cls-13"/><path data-cppathid="10079" d="M81.71,43.36,81,44.54h0a.91.91,0,0,0,1.55,1h0l.74-1.19Z" class="cls-13"/><path data-cppathid="10080" d="M83.53,44.49l-.73,1.19h0a.92.92,0,0,0,1.56,1h0l.74-1.19Z" class="cls-13"/><path data-cppathid="10081" d="M85.36,45.63l-.74,1.19h0a1,1,0,0,0,.3,1.26,1,1,0,0,0,1.25-.29h0l.74-1.19Z" class="cls-13"/><path data-cppathid="10082" d="M87.19,46.77,86.45,48h0a.92.92,0,0,0,1.56,1h0l.73-1.18Z" class="cls-13"/><path data-cppathid="10083" d="M89,47.91l-.74,1.18h0a1,1,0,0,0,.3,1.25.94.94,0,0,0,1.25-.28h0l.74-1.18Z" class="cls-13"/><path data-cppathid="10084" d="M90.84,49.05l-.74,1.18h0a1,1,0,0,0,.3,1.25,1,1,0,0,0,1.26-.28h0L92.41,50Z" class="cls-13"/><path data-cppathid="10085" d="M92.85,49.89l-.74,1.18h0a.91.91,0,0,0,1.55,1h0l.74-1.19Z" class="cls-13"/><path data-cppathid="10086" d="M95,50.54l-.74,1.19h0a.92.92,0,0,0,1.56,1h0l.74-1.19Z" class="cls-13"/><path data-cppathid="10087" d="M97.53,50.5l-.74,1.19h0A1,1,0,0,0,97.1,53a1,1,0,0,0,1.26-.29h0l1.11-1.78Z" class="cls-13"/><path data-cppathid="10088" d="M100.25,49.94l-.74,1.19h0a.91.91,0,0,0,1.55,1h0l1.43-2.29Z" class="cls-13"/><path data-cppathid="10089" d="M61.34,30.65l-.74,1.19h0a1,1,0,0,1-1.26.28,1,1,0,0,1-.3-1.25h0l.74-1.18Z" class="cls-13"/><path data-cppathid="10090" d="M59.52,29.52l-.74,1.18h0a.91.91,0,0,1-1.55-1h0L58,28.54Z" class="cls-13"/><path data-cppathid="10091" d="M57.69,28.38,57,29.56h0a.93.93,0,0,1-1.25.28,1,1,0,0,1-.3-1.25h0l.74-1.19Z" class="cls-13"/><path data-cppathid="10092" d="M55.87,27.24l-.74,1.19h0a.92.92,0,0,1-1.56-1h0l.74-1.19Z" class="cls-13"/><path data-cppathid="10093" d="M54,26.1l-.74,1.19h0a1,1,0,0,1-1.25.29,1,1,0,0,1-.3-1.26h0l.74-1.19Z" class="cls-13"/><path data-cppathid="10094" d="M52.21,25l-.73,1.19h0a1,1,0,0,1-1.26.29,1,1,0,0,1-.3-1.25h0L50.65,24Z" class="cls-13"/><path data-cppathid="10095" d="M50.39,23.82,49.65,25h0a.91.91,0,0,1-1.55-1h0l.74-1.18Z" class="cls-13"/><path data-cppathid="10096" d="M48.56,22.69l-.74,1.18h0a1,1,0,0,1-1.26.28,1,1,0,0,1-.3-1.25h0L47,21.71Z" class="cls-13"/><path data-cppathid="10097" d="M46.74,21.55,46,22.73h0a.91.91,0,0,1-1.55-1h0l.74-1.19Z" class="cls-13"/><path data-cppathid="10098" d="M44.91,20.41l-.74,1.19h0a.92.92,0,0,1-1.56-1h0l.74-1.19Z" class="cls-13"/><path data-cppathid="10099" d="M43.09,19.27l-.74,1.19h0a.91.91,0,0,1-1.55-1h0l.74-1.19Z" class="cls-13"/><path data-cppathid="10100" d="M41.26,18.13l-.74,1.19h0a.91.91,0,0,1-1.55-1h0l.74-1.19Z" class="cls-13"/><path data-cppathid="10101" d="M39.44,17l-.74,1.19h0a1,1,0,0,1-1.26.28,1,1,0,0,1-.3-1.25h0L37.87,16Z" class="cls-13"/><path data-cppathid="10102" d="M37.61,15.86,36.87,17h0a.91.91,0,0,1-1.55-1h0L36,14.88Z" class="cls-13"/><path data-cppathid="10103" d="M35.79,14.72l-.74,1.18h0a.92.92,0,0,1-1.56-1h0l.74-1.19Z" class="cls-13"/><path data-cppathid="10104" d="M34,13.58l-.74,1.19h0A.94.94,0,0,1,32,15a1,1,0,0,1-.3-1.25h0l.74-1.19Z" class="cls-13"/><path data-cppathid="10105" d="M32.32,12.14l-.74,1.19h0a1,1,0,0,1-1.25.29,1,1,0,0,1-.3-1.26h0l.74-1.19Z" class="cls-13"/><path data-cppathid="10106" d="M30.79,10.52l-.73,1.19h0a.92.92,0,0,1-1.56-1h0l.74-1.19Z" class="cls-13"/><path data-cppathid="10107" d="M29.7,8.21,29,9.39h0a.92.92,0,0,1-1.56-1h0l1.18-1.88Z" class="cls-13"/><path data-cppathid="10108" d="M29,5.52l-.74,1.19h0A1,1,0,0,1,27,7a1,1,0,0,1-.3-1.26h0l1.43-2.29Z" class="cls-13"/><path data-cppathid="10109" d="M92.72,46.16,64.22,28.39,35.72,10.62a19.35,19.35,0,0,1-7.43-8.75s-3.24,7,6,12.68L62,31.89l27.8,17.33c9.19,5.74,14-.24,14-.24A19.33,19.33,0,0,1,92.72,46.16Z" class="cls-4"/><path data-cppathid="10110" d="M84.72,27.27,79.09,4.05l-23,5.38c-5.82,1.69-15,.1-15,.1L91.22,40.75S85.76,33.24,84.72,27.27Z" class="cls-9"/><path data-cppathid="10111" d="M79.19,29.91l2.07-3.32c-.13-.52-.26-1.05-.35-1.58l-.13-.58-2.9,4.66Z" class="cls-14"/><polygon data-cppathid="10112" points="59.58 17.68 63.83 10.86 61.67 11.4 58.27 16.86 59.58 17.68" class="cls-14"/><polygon data-cppathid="10113" points="61.76 19.04 67.42 9.98 65.26 10.51 60.45 18.23 61.76 19.04" class="cls-14"/><polygon data-cppathid="10114" points="63.94 20.41 71 9.09 68.84 9.62 62.63 19.59 63.94 20.41" class="cls-14"/><polygon data-cppathid="10115" points="72.64 25.83 78.84 15.89 78.35 13.75 71.33 25.01 72.64 25.83" class="cls-14"/><polygon data-cppathid="10116" points="68.28 23.11 77.22 8.77 76.96 7.62 76.01 7.85 67 22.31 68.28 23.11" class="cls-14"/><polygon data-cppathid="10117" points="77.01 28.55 80.46 23.02 79.97 20.87 75.69 27.73 77.01 28.55" class="cls-14"/><polygon data-cppathid="10118" points="66.13 21.77 74.58 8.2 72.43 8.74 64.81 20.95 66.13 21.77" class="cls-14"/><polygon data-cppathid="10119" points="74.82 27.19 79.65 19.45 79.16 17.31 73.51 26.37 74.82 27.19" class="cls-14"/><polygon data-cppathid="10120" points="70.46 24.47 78.03 12.33 77.54 10.19 69.15 23.65 70.46 24.47" class="cls-14"/><path data-cppathid="10121" d="M57.4,16.32l2.85-4.57-.43.11c-.56.16-1.14.29-1.72.4l-2,3.24Z" class="cls-14"/><path data-cppathid="10122" d="M56.75,12.5a34.8,34.8,0,0,1-4.94.34L55.21,15Z" class="cls-14"/><path data-cppathid="10123" d="M83.55,32.63a34,34,0,0,1-1.91-4.72l-1.58,2.54Z" class="cls-14"/><path data-cppathid="10124" d="M56.08,15.5l2-3.24-1.35.24L55.21,15Z" class="cls-15"/><polygon data-cppathid="10125" points="58.27 16.86 61.67 11.4 60.25 11.75 57.4 16.32 58.27 16.86" class="cls-15"/><polygon data-cppathid="10126" points="60.45 18.23 65.26 10.51 63.83 10.86 59.58 17.68 60.45 18.23" class="cls-15"/><polygon data-cppathid="10127" points="62.63 19.59 68.84 9.62 67.42 9.98 61.76 19.04 62.63 19.59" class="cls-15"/><polygon data-cppathid="10128" points="64.81 20.95 72.43 8.74 71 9.09 63.94 20.41 64.81 20.95" class="cls-15"/><polygon data-cppathid="10129" points="67 22.31 76.01 7.85 74.58 8.2 66.13 21.77 67 22.31" class="cls-15"/><polygon data-cppathid="10130" points="69.15 23.65 77.54 10.19 77.22 8.77 68.28 23.11 69.15 23.65" class="cls-15"/><polygon data-cppathid="10131" points="71.33 25.01 78.35 13.75 78.03 12.33 70.46 24.47 71.33 25.01" class="cls-15"/><polygon data-cppathid="10132" points="73.51 26.37 79.16 17.31 78.84 15.89 72.64 25.83 73.51 26.37" class="cls-15"/><polygon data-cppathid="10133" points="75.69 27.73 79.97 20.87 79.65 19.45 74.82 27.19 75.69 27.73" class="cls-15"/><polygon data-cppathid="10134" points="77.88 29.09 80.78 24.43 80.46 23.02 77.01 28.55 77.88 29.09" class="cls-15"/><path data-cppathid="10135" d="M80.06,30.45l1.58-2.54c-.13-.43-.26-.87-.38-1.32l-2.07,3.32Z" class="cls-15"/><polygon data-cppathid="10136" points="79.75 6.64 76.73 4.76 79.87 0.99 81.75 2.17 79.75 6.64" class="cls-4"/><polygon data-cppathid="10137" points="80.56 4.83 81.75 2.17 79.87 0.99 78 3.23 80.56 4.83" class="cls-16"/><circle data-cppathid="10138" r="1.75" cy="1.75" cx="80.7" class="cls-4"/></g></g></g></svg>