<?xml version="1.0" encoding="UTF-8"?>
<svg xmlns="http://www.w3.org/2000/svg" onmouseup="{ if(window.parent.document.onmouseup) window.parent.document.onmouseup(arguments[0]);}" viewBox="0 0 86.89 90"><defs><style>.cls-1{isolation:isolate;}.cls-2{fill:#f6f6f6;}.cls-3{fill:#010101;}.cls-4{fill:#033378;}.cls-5{fill:#c60e31;}.cls-6{fill:#e9e9ea;mix-blend-mode:multiply;}.cls-7{fill:#585a5c;}.cls-8,.cls-9{fill:#6d7072;}.cls-9{mix-blend-mode:screen;}</style></defs><g class="cls-1"><g data-name="Layer 2" id="Layer_2"><g data-name="Layer 1" id="Layer_1-2"><path data-cppathid="10000" d="M72.18,47C63.65,33.29,45.57,40.53,37,26.8Q44.39,14,51.75,1.23C60.29,15,78.36,7.72,86.89,21.44Z" class="cls-2"/><path data-cppathid="10001" d="M52.56,17.75c-.18-.38-.26-.57-.43-1,2.48-1.38,3.77-2.15,6.4-3.8.2.33.31.49.52.82C56.38,15.5,55.08,16.3,52.56,17.75Z" class="cls-3"/><path data-cppathid="10002" d="M51.9,16.2c-.16-.41-.24-.62-.38-1,2.4-1.25,3.66-2,6.24-3.53l.48.87C55.63,14.11,54.35,14.87,51.9,16.2Z" class="cls-3"/><path data-cppathid="10003" d="M53.24,19.15c-.19-.36-.28-.55-.46-.92,2.54-1.48,3.86-2.3,6.53-4,.22.32.32.48.54.78C57.15,16.75,55.82,17.6,53.24,19.15Z" class="cls-3"/><path data-cppathid="10004" d="M75.28,23.72l1-.12c0-2.91-.06-4.28-.23-6.92L75,17C75.15,19.54,75.23,20.88,75.28,23.72Z" class="cls-3"/><path data-cppathid="10005" d="M73.45,20.35l1.13-.26c-.07-1.22-.11-1.82-.21-3l-1.16.31C73.31,18.57,73.36,19.15,73.45,20.35Z" class="cls-3"/><path data-cppathid="10006" d="M73.64,23.94l1.09-.18c0-1.33-.06-2-.13-3.25l-1.13.25C73.56,22,73.59,22.64,73.64,23.94Z" class="cls-3"/><path data-cppathid="10007" d="M76.88,19.7c.43-.07.64-.1,1.07-.15,0-1.31,0-1.95-.09-3.2l-1.11.22C76.81,17.79,76.84,18.42,76.88,19.7Z" class="cls-3"/><path data-cppathid="10008" d="M76.92,23.56l1,0c0-1.44,0-2.14,0-3.51-.42.05-.63.07-1.06.14C76.92,21.47,76.93,22.15,76.92,23.56Z" class="cls-3"/><path data-cppathid="10009" d="M67.14,31.32c.2.32.3.49.5.83-1.2.74-1.81,1.13-3,1.92-.21-.32-.32-.47-.54-.78C65.31,32.48,65.92,32.09,67.14,31.32Z" class="cls-3"/><path data-cppathid="10010" d="M70.65,29.15c.19.35.28.54.46.91-1.21.7-1.82,1.07-3.06,1.84-.2-.35-.3-.51-.5-.84C68.8,30.27,69.42,29.88,70.65,29.15Z" class="cls-3"/><path data-cppathid="10011" d="M67.91,32.58c.19.34.29.52.47.88-1.17.7-1.77,1.07-3,1.83-.21-.34-.31-.5-.52-.82C66.11,33.69,66.72,33.31,67.91,32.58Z" class="cls-3"/><path data-cppathid="10012" d="M71.35,30.53c.17.38.26.58.42,1-1.17.66-1.77,1-3,1.72-.19-.36-.28-.54-.48-.89C69.55,31.58,70.15,31.22,71.35,30.53Z" class="cls-3"/><path data-cppathid="10013" d="M68.66,34c.18.37.27.55.44.94-1.14.65-1.73,1-2.91,1.71l-.48-.87C66.9,35,67.5,34.66,68.66,34Z" class="cls-3"/><path data-cppathid="10014" d="M72,32.07c.16.41.24.62.38,1-1.14.59-1.72.91-2.9,1.58-.17-.39-.26-.58-.44-1C70.26,33,70.86,32.71,72,32.07Z" class="cls-3"/><path data-cppathid="10015" d="M50.32,24.32l-1.09.18c.07,2.79.15,4.1.36,6.65l1.17-.31C50.52,28.33,50.43,27,50.32,24.32Z" class="cls-3"/><path data-cppathid="10016" d="M48.81,28.27l-1.1.2c0,1.26.08,1.88.15,3.09L49,31.29C48.91,30.1,48.87,29.5,48.81,28.27Z" class="cls-3"/><path data-cppathid="10017" d="M48.68,24.55c-.42.06-.63.08-1,.12,0,1.39,0,2.06.06,3.37.44-.07.66-.11,1.1-.2C48.73,26.56,48.71,25.9,48.68,24.55Z" class="cls-3"/><path data-cppathid="10018" d="M47,24.7l-1,.05c-.06,3,0,4.44.07,7.16l1.12-.23C47.07,29,47,27.65,47,24.7Z" class="cls-3"/><path data-cppathid="10019" d="M67.51,26.28a2.21,2.21,0,0,0-1.2-2.86,4.07,4.07,0,0,0-2.74,0c-1.08.33-2.06,1-3.12,1.36-1.94.74-3.74.25-4.19-1.17a3.78,3.78,0,0,1,.66-3,9.34,9.34,0,0,0-1.87,2.29c-2,3.52-.68,7.09,3.19,7.66a11.1,11.1,0,0,0,7.88-2.19A7.27,7.27,0,0,0,67.51,26.28Z" class="cls-4"/><path data-cppathid="10020" d="M65.59,17.83a11.21,11.21,0,0,0-8.67,2.82,3.78,3.78,0,0,0-.66,3c.45,1.42,2.25,1.91,4.19,1.17,1.06-.4,2-1,3.12-1.36a4.07,4.07,0,0,1,2.74,0,2.21,2.21,0,0,1,1.2,2.86,7.27,7.27,0,0,1-1.39,2.13,9.53,9.53,0,0,0,2.67-2.92C70.82,22,69.46,18.4,65.59,17.83Z" class="cls-5"/><path data-cppathid="10021" d="M39.62,29.68A4.68,4.68,0,0,1,40,25.37c.4-.78.85-1.53,1.27-2.29s.93-1.7,1.39-2.55c.94-1.72,1.88-3.45,2.9-5.13s2.11-3.31,3.14-5c.49-.78,1-1.58,1.41-2.39A12,12,0,0,1,51,6.51,3.12,3.12,0,0,1,53.66,5a6,6,0,0,1,1.91.66,18.06,18.06,0,0,1-3.82-4.41L37,26.8a18.18,18.18,0,0,0,3.85,4.45A6.21,6.21,0,0,1,39.62,29.68Z" class="cls-6"/><path data-cppathid="10022" d="M70.86,43.92a17.13,17.13,0,0,1-2.09-3.51,3.62,3.62,0,0,1,0-1.93,8.93,8.93,0,0,1,.78-1.86C70.32,35.06,71.14,33.5,72,32s5-8.13,5.4-8.74a24.64,24.64,0,0,1,2.13-3.38,3.76,3.76,0,0,1,2.93-1.6,5.07,5.07,0,0,1,2.93,1.33l.52.44c-4.79-6.38-12-7.49-18.89-9.25l1.45.49c1.34.45,3,1,3.7,2.3A4.52,4.52,0,0,1,72,17.74c-.78,1.7-1.72,3.33-2.63,5-1,1.84-2.11,3.65-3.18,5.47S64,31.73,62.84,33.42a17.74,17.74,0,0,1-1.73,2.21,6.78,6.78,0,0,1-1.77,1.28,8.57,8.57,0,0,1-1.91.7c5.63,1.48,11,3.49,14.67,9.28A9.85,9.85,0,0,0,70.86,43.92Z" class="cls-6"/><rect data-cppathid="10023" transform="translate(25.93 -7.08) rotate(29.91)" rx="0.72" height="103.56" width="1.53" y="-6.78" x="25.46" class="cls-7"/><rect data-cppathid="10024" transform="translate(25.92 -7.1) rotate(29.91)" rx="0.36" height="102.09" width="0.77" y="-6.08" x="25.86" class="cls-8"/><rect data-cppathid="10025" transform="translate(25.83 -7.14) rotate(29.91)" rx="0.18" height="101.72" width="0.38" y="-6.09" x="26.08" class="cls-9"/></g></g></g></svg>