<?xml version="1.0" encoding="UTF-8"?>
<svg xmlns="http://www.w3.org/2000/svg" onmouseup="{ if(window.parent.document.onmouseup) window.parent.document.onmouseup(arguments[0]);}" viewBox="0 0 83.56 84.1"><defs><style>.cls-1{fill:#696d72;}.cls-2{fill:#9da3b1;}.cls-3{fill:#2e343b;}.cls-4{fill:#541d3f;}.cls-5{fill:#c4702a;}.cls-6{fill:#1c3a97;}.cls-7{fill:#424252;}.cls-8{fill:#7b8396;}.cls-9{fill:#abb0bc;}</style></defs><g data-name="Layer 2" id="Layer_2"><g data-name="Layer 1" id="Layer_1-2"><rect data-cppathid="10000" transform="translate(9.07 53) rotate(-45.2)" height="19.03" width="7.84" y="6.09" x="64.27" class="cls-1"/><path data-cppathid="10001" d="M77.18,6.43c-.85.21-6.86,1.48-15.21-4.15,0,0-1.35,1.73,8.18,11.22s11.28,8.11,11.28,8.11C75.74,13.29,77,7.27,77.18,6.43Z" class="cls-2"/><rect data-cppathid="10002" transform="translate(11.67 47.87) rotate(-45.2)" height="1.81" width="1.81" y="9.01" x="62.42" class="cls-3"/><rect data-cppathid="10003" transform="translate(10.79 50.01) rotate(-45.2)" height="1.81" width="1.81" y="11.13" x="64.56" class="cls-3"/><rect data-cppathid="10004" transform="translate(9.92 52.15) rotate(-45.2)" height="1.81" width="1.81" y="13.26" x="66.69" class="cls-3"/><rect data-cppathid="10005" transform="translate(9.04 54.29) rotate(-45.2)" height="1.81" width="1.81" y="15.38" x="68.83" class="cls-3"/><rect data-cppathid="10006" transform="translate(8.17 56.44) rotate(-45.2)" height="1.81" width="1.81" y="17.5" x="70.97" class="cls-3"/><rect data-cppathid="10007" transform="translate(7.3 58.58) rotate(-45.2)" height="1.81" width="1.81" y="19.62" x="73.1" class="cls-3"/><path data-cppathid="10008" d="M60.53,9.81,59.34,11l13.5,13.4L74,23.22Zm0,1.76-.35-.35.51-.52.36.35Zm.93.92-.35-.35.51-.52L62,12Zm.93.93-.35-.36.51-.51.36.35Zm.93.92L63,14l.51-.52.36.35Zm.93.93-.35-.36.51-.52.36.36Zm.93.92-.35-.36.51-.51.36.35Zm.93.92-.35-.35.51-.52.36.35Zm.93.93-.35-.36.51-.52.36.36ZM68,19l-.35-.35.51-.52.36.35Zm.93.92-.35-.35.51-.52.36.36Zm.93.93-.35-.36.51-.52.36.36Zm.93.92-.35-.35.51-.52.36.35Zm.93.92-.35-.35.51-.52.36.36Zm.93.93-.35-.36.51-.51.36.35Z" class="cls-4"/><rect data-cppathid="10009" transform="translate(3.21 50.61) rotate(-45.2)" height="20.41" width="8.41" y="11.24" x="58.19" class="cls-1"/><path data-cppathid="10010" d="M75.47,28.62a27.55,27.55,0,0,1-2.65-4.22l-6.7-6.65-.05-.06L59.37,11a27.64,27.64,0,0,1-4.24-2.62s-.6,1,9.34,10.88h0l0,0,0,0h0C74.48,29.22,75.47,28.62,75.47,28.62Z" class="cls-2"/><rect data-cppathid="10011" transform="translate(6 45.11) rotate(-45.2)" height="1.94" width="1.94" y="14.38" x="56.21" class="cls-3"/><rect data-cppathid="10012" transform="translate(5.06 47.4) rotate(-45.2)" height="1.94" width="1.94" y="16.65" x="58.5" class="cls-3"/><rect data-cppathid="10013" transform="translate(4.12 49.7) rotate(-45.2)" height="1.94" width="1.94" y="18.93" x="60.79" class="cls-3"/><rect data-cppathid="10014" transform="translate(3.19 52) rotate(-45.2)" height="1.94" width="1.94" y="21.2" x="63.08" class="cls-3"/><rect data-cppathid="10015" transform="translate(2.25 54.3) rotate(-45.2)" height="1.94" width="1.94" y="23.47" x="65.37" class="cls-3"/><rect data-cppathid="10016" transform="translate(1.31 56.59) rotate(-45.2)" height="1.94" width="1.94" y="25.75" x="67.66" class="cls-3"/><path data-cppathid="10017" d="M54.18,15.23l-1.28,1.3L67.38,30.9l1.28-1.29Zm0,1.89-.38-.38.55-.56.39.38Zm1,1-.38-.38.55-.56.38.38Zm1,1-.38-.38.55-.56.38.38Zm1,1-.39-.38.55-.56.39.38Zm1,1-.38-.38.55-.56.39.38Zm1,1-.38-.38.55-.56.38.38Zm1,1-.39-.38.56-.56.38.38Zm1,1-.39-.38.55-.56.39.38Zm1,1-.38-.38.55-.56.38.39Zm1,1-.38-.38.55-.56.38.39Zm1,1-.39-.38.56-.55.38.38Zm1,1-.38-.38.55-.55.39.38Zm1,1-.38-.38.55-.55.38.38Zm1,1-.38-.38.55-.55.38.38Z" class="cls-4"/><rect data-cppathid="10018" transform="translate(-3.07 48.05) rotate(-45.2)" height="21.84" width="9" y="16.79" x="51.68" class="cls-1"/><path data-cppathid="10019" d="M70.19,35.4a30.64,30.64,0,0,1-2.87-4.49l-7.18-7.13-.06-.06-7.19-7.14a30.73,30.73,0,0,1-4.51-2.84s-.6,1,10.06,11.63h0l0,0,0,0h0C69.17,36,70.19,35.4,70.19,35.4Z" class="cls-2"/><rect data-cppathid="10020" transform="translate(-0.08 42.16) rotate(-45.2)" height="2.08" width="2.08" y="20.14" x="49.56" class="cls-3"/><rect data-cppathid="10021" transform="translate(-1.09 44.62) rotate(-45.2)" height="2.08" width="2.08" y="22.57" x="52.01" class="cls-3"/><rect data-cppathid="10022" transform="translate(-2.09 47.07) rotate(-45.2)" height="2.08" width="2.08" y="25.01" x="54.46" class="cls-3"/><rect data-cppathid="10023" transform="translate(-3.09 49.53) rotate(-45.2)" height="2.08" width="2.08" y="27.44" x="56.91" class="cls-3"/><rect data-cppathid="10024" transform="translate(-4.1 51.99) rotate(-45.2)" height="2.08" width="2.08" y="29.88" x="59.36" class="cls-3"/><rect data-cppathid="10025" transform="translate(-5.1 54.45) rotate(-45.2)" height="2.08" width="2.08" y="32.31" x="61.81" class="cls-3"/><path data-cppathid="10026" d="M47.39,21.06,46,22.44,61.51,37.82l1.37-1.38Zm0,2L47,22.67l.59-.6.41.41Zm1.06,1.05-.41-.4.59-.6.41.41Zm1.07,1.06-.41-.4.59-.6.41.41Zm1.07,1.06-.41-.4.59-.6.41.41Zm1.06,1.06-.41-.4.59-.6.41.41Zm1.07,1.06-.41-.4.59-.6.41.41Zm1.07,1.06-.41-.4.59-.6.41.41Zm1.07,1.06-.41-.4.59-.6.41.41ZM56,31.55l-.41-.41.59-.59.41.41ZM57,32.61l-.41-.41.59-.59.41.41Zm1.07,1.06-.41-.41.59-.59.41.41Zm1.06,1.06-.41-.41.59-.59.41.41Zm1.07,1.06-.41-.41.59-.59.41.41Zm1.07,1.06-.41-.41.59-.59.41.41Z" class="cls-4"/><rect data-cppathid="10027" transform="translate(-9.91 45.26) rotate(-45.2)" height="23.33" width="9.61" y="22.86" x="44.6" class="cls-1"/><path data-cppathid="10028" d="M64.63,42.44a33.23,33.23,0,0,1-3.06-4.79l-7.66-7.6L53.85,30l-7.66-7.61a32.47,32.47,0,0,1-4.8-3s-.65,1.09,10.71,12.39h0l0,0,0,0h0C63.54,43.09,64.63,42.44,64.63,42.44Z" class="cls-2"/><rect data-cppathid="10029" transform="translate(-6.72 38.96) rotate(-45.2)" height="2.22" width="2.22" y="26.44" x="42.33" class="cls-3"/><rect data-cppathid="10030" transform="translate(-7.79 41.59) rotate(-45.2)" height="2.22" width="2.22" y="29.04" x="44.95" class="cls-3"/><rect data-cppathid="10031" transform="translate(-8.86 44.22) rotate(-45.2)" height="2.22" width="2.22" y="31.65" x="47.57" class="cls-3"/><rect data-cppathid="10032" transform="translate(-9.94 46.84) rotate(-45.2)" height="2.22" width="2.22" y="34.25" x="50.19" class="cls-3"/><rect data-cppathid="10033" transform="translate(-11.01 49.47) rotate(-45.2)" height="2.22" width="2.22" y="36.85" x="52.81" class="cls-3"/><rect data-cppathid="10034" transform="translate(-12.08 52.1) rotate(-45.2)" height="2.22" width="2.22" y="39.45" x="55.43" class="cls-3"/><path data-cppathid="10035" d="M40,27.42,38.55,28.9,55.1,45.34l1.47-1.48Zm0,2.16-.44-.44.63-.63.44.43Zm1.14,1.13-.44-.43.63-.64.44.44Zm1.14,1.13-.44-.43.64-.64.43.44ZM43.47,33,43,32.54l.64-.63.43.43Zm1.14,1.13-.44-.44.64-.63.43.43Zm1.14,1.13-.43-.43.63-.64.43.44Zm1.14,1.13-.43-.43.63-.64.43.44ZM48,37.51l-.43-.44.63-.63.43.43Zm1.14,1.13-.43-.44.63-.63.43.43Zm1.14,1.13-.43-.44.63-.63.44.43Zm1.14,1.13L51,40.47l.63-.64.44.44ZM52.59,42l-.43-.43.63-.64.44.44Zm1.15,1.14-.44-.44.63-.63.44.43Zm1.14,1.13-.44-.44.63-.63.44.43Z" class="cls-4"/><rect data-cppathid="10036" transform="translate(-17.15 42.3) rotate(-45.2)" height="25.44" width="10.48" y="29.03" x="37" class="cls-1"/><path data-cppathid="10037" d="M58.26,50.45A35.94,35.94,0,0,1,55,45.33l-8.18-8.12-.07-.07L38.56,29a34.7,34.7,0,0,1-5.14-3.23S32.73,27,44.87,39h0l0,0,0,0h0C57.1,51.14,58.26,50.45,58.26,50.45Z" class="cls-2"/><rect data-cppathid="10038" transform="translate(-13.67 35.44) rotate(-45.2)" height="2.42" width="2.42" y="32.93" x="34.52" class="cls-3"/><rect data-cppathid="10039" transform="translate(-14.84 38.3) rotate(-45.2)" height="2.42" width="2.42" y="35.77" x="37.38" class="cls-3"/><rect data-cppathid="10040" transform="translate(-16.01 41.17) rotate(-45.2)" height="2.42" width="2.42" y="38.6" x="40.23" class="cls-3"/><rect data-cppathid="10041" transform="translate(-17.18 44.03) rotate(-45.2)" height="2.42" width="2.42" y="41.44" x="43.09" class="cls-3"/><rect data-cppathid="10042" transform="translate(-18.35 46.9) rotate(-45.2)" height="2.42" width="2.42" y="44.27" x="45.95" class="cls-3"/><rect data-cppathid="10043" transform="translate(-19.51 49.76) rotate(-45.2)" height="2.42" width="2.42" y="47.11" x="48.8" class="cls-3"/><path data-cppathid="10044" d="M32,34l-1.6,1.61L48.45,53.53l1.6-1.61Zm0,2.35-.48-.47.69-.7.48.48Zm1.24,1.24-.47-.48.68-.69.48.47Zm1.25,1.23-.48-.47.69-.7.47.48Zm1.24,1.23-.48-.47.69-.69.48.47ZM37,41.29l-.47-.48.68-.69.48.48Zm1.25,1.23-.48-.47.69-.69.47.47Zm1.24,1.24L39,43.28l.69-.69.48.48ZM40.74,45l-.47-.47.68-.69.48.47ZM42,46.23l-.48-.48.69-.69.47.47Zm1.24,1.23L42.75,47l.69-.7.48.48Zm1.24,1.24L44,48.22l.69-.69.48.47Zm1.25,1.23-.48-.47.69-.7.47.48ZM47,51.16l-.48-.47.69-.69.48.47ZM48.2,52.4l-.48-.48.69-.69.48.48Z" class="cls-4"/><rect data-cppathid="10045" transform="translate(-25 39.1) rotate(-45.2)" height="27.64" width="11.39" y="35.76" x="28.77" class="cls-1"/><path data-cppathid="10046" d="M52.19,59.29a38.69,38.69,0,0,1-3.63-5.68l-9.08-9-.08-.08-9.08-9a39.3,39.3,0,0,1-5.7-3.59s-.76,1.3,12.71,14.69h0l0,0,0,0h0C50.89,60.06,52.19,59.29,52.19,59.29Z" class="cls-2"/><rect data-cppathid="10047" transform="translate(-21.22 31.64) rotate(-45.2)" height="2.63" width="2.63" y="40" x="26.08" class="cls-3"/><rect data-cppathid="10048" transform="translate(-22.49 34.76) rotate(-45.2)" height="2.63" width="2.63" y="43.08" x="29.18" class="cls-3"/><rect data-cppathid="10049" transform="translate(-23.76 37.87) rotate(-45.2)" height="2.63" width="2.63" y="46.16" x="32.29" class="cls-3"/><rect data-cppathid="10050" transform="translate(-25.03 40.98) rotate(-45.2)" height="2.63" width="2.63" y="49.24" x="35.39" class="cls-3"/><rect data-cppathid="10051" transform="translate(-26.3 44.09) rotate(-45.2)" height="2.63" width="2.63" y="52.32" x="38.49" class="cls-3"/><rect data-cppathid="10052" transform="translate(-27.57 47.2) rotate(-45.2)" height="2.63" width="2.63" y="55.4" x="41.6" class="cls-3"/><path data-cppathid="10053" d="M23.34,41.16,21.6,42.91,41.21,62.38,43,60.63Zm0,2.55-.51-.51.74-.75.52.51Zm1.35,1.34-.51-.51.74-.75.52.51Zm1.36,1.35-.52-.52.74-.75.52.51Zm1.35,1.34-.52-.52.74-.75.52.51Zm1.35,1.34-.52-.52.74-.75.52.52Zm1.35,1.34-.52-.52.75-.75.51.52Zm1.35,1.34L31,51.25l.75-.76.52.52Zm1.35,1.34-.52-.51.75-.76.52.52Zm1.35,1.34-.52-.51.75-.75.52.51Zm1.35,1.34L35,55.27l.75-.75.52.51Zm1.35,1.35-.52-.52.75-.75.52.51Zm1.35,1.34L37.72,58l.75-.75.52.51Zm1.35,1.34-.52-.52.75-.75.52.52Zm1.35,1.34-.52-.52.75-.75.52.52Z" class="cls-4"/><rect data-cppathid="10054" transform="translate(-42.33 32.03) rotate(-45.2)" height="37.01" width="11.85" y="48.35" x="11.38" class="cls-1"/><rect data-cppathid="10055" transform="translate(-33.55 35.61) rotate(-45.2)" height="29.97" width="12.34" y="43.12" x="19.83" class="cls-1"/><rect data-cppathid="10056" transform="translate(-38.82 33.54) rotate(-45.2)" height="3.54" width="0.97" y="61.64" x="20.39" class="cls-5"/><path data-cppathid="10057" d="M45.06,68.52a40.8,40.8,0,0,1-3.89-6.1l-9.76-9.69-.08-.08L21.57,43a41.84,41.84,0,0,1-6.13-3.85S14.62,40.5,29.1,54.9h0l0,0,0,0h0C43.67,69.35,45.06,68.52,45.06,68.52Z" class="cls-2"/><rect data-cppathid="10058" transform="translate(-46.53 37.77) rotate(-45.2)" height="6.08" width="7.36" y="71.73" x="18.42" class="cls-6"/><rect data-cppathid="10059" transform="translate(-43.82 31.13) rotate(-45.2)" height="6.08" width="7.36" y="65.16" x="11.8" class="cls-6"/><rect data-cppathid="10060" transform="translate(-41.12 24.49) rotate(-45.2)" height="6.08" width="7.36" y="58.59" x="5.18" class="cls-6"/><rect data-cppathid="10061" transform="translate(-29.45 27.53) rotate(-45.2)" height="2.85" width="2.85" y="47.72" x="16.91" class="cls-3"/><rect data-cppathid="10062" transform="translate(-30.83 30.9) rotate(-45.2)" height="2.85" width="2.85" y="51.06" x="20.28" class="cls-3"/><rect data-cppathid="10063" transform="translate(-32.21 34.28) rotate(-45.2)" height="2.85" width="2.85" y="54.4" x="23.64" class="cls-3"/><rect data-cppathid="10064" transform="translate(-33.58 37.65) rotate(-45.2)" height="2.85" width="2.85" y="57.74" x="27" class="cls-3"/><rect data-cppathid="10065" transform="translate(-34.96 41.02) rotate(-45.2)" height="2.85" width="2.85" y="61.08" x="30.37" class="cls-3"/><rect data-cppathid="10066" transform="translate(-36.34 44.4) rotate(-45.2)" height="2.85" width="2.85" y="64.42" x="33.73" class="cls-3"/><rect data-cppathid="10067" transform="translate(-47.72 40.69) rotate(-45.2)" height="5.25" width="7.36" y="75.04" x="21.33" class="cls-2"/><rect data-cppathid="10068" transform="translate(-45.19 34.48) rotate(-45.2)" height="5.25" width="7.36" y="68.89" x="15.14" class="cls-2"/><rect data-cppathid="10069" transform="translate(-42.65 28.27) rotate(-45.2)" height="5.25" width="7.36" y="62.74" x="8.95" class="cls-2"/><rect data-cppathid="10070" transform="translate(-40.12 22.06) rotate(-45.2)" height="5.25" width="7.36" y="56.59" x="2.75" class="cls-2"/><rect data-cppathid="10071" transform="translate(-46.77 41.07) rotate(-45.2)" rx="0.48" height="3.53" width="2.29" y="74.95" x="24.8" class="cls-7"/><rect data-cppathid="10072" transform="translate(-44.24 34.86) rotate(-45.2)" rx="0.48" height="3.53" width="2.29" y="68.8" x="18.61" class="cls-7"/><rect data-cppathid="10073" transform="translate(-41.71 28.65) rotate(-45.2)" rx="0.48" height="3.53" width="2.29" y="62.65" x="12.42" class="cls-7"/><rect data-cppathid="10074" transform="translate(-39.17 22.44) rotate(-45.2)" rx="0.48" height="3.53" width="2.29" y="56.51" x="6.23" class="cls-7"/><path data-cppathid="10075" d="M13.94,49l-1.88,1.89L33.31,72l1.89-1.9ZM14,51.74l-.56-.55.8-.82.57.56Zm1.46,1.46-.56-.56.81-.82.56.56Zm1.47,1.45-.57-.56.81-.81.57.56Zm1.46,1.46-.56-.56.81-.82.56.56Zm1.47,1.45L19.28,57l.81-.81.57.56ZM21.31,59l-.56-.55.81-.82.56.56Zm1.46,1.46-.56-.56.81-.82.56.56Zm1.47,1.45-.56-.56.81-.81.56.56Zm1.46,1.46-.56-.56L26,62l.56.56Zm1.47,1.45-.57-.56.81-.81L28,64Zm1.46,1.46-.56-.56.81-.82.56.56Zm1.47,1.45-.57-.56.81-.81.57.55Zm1.46,1.45L31,68.63l.81-.81.56.56ZM33,70.65l-.57-.56.81-.82.56.56Z" class="cls-4"/><rect data-cppathid="10076" transform="translate(-37.78 20.4) rotate(-45.2)" height="1.04" width="11.37" y="55.06" x="-0.07" class="cls-4"/><rect data-cppathid="10077" transform="translate(-39.61 24.88) rotate(-45.2)" height="1.04" width="11.37" y="59.49" x="4.39" class="cls-4"/><rect data-cppathid="10078" transform="translate(-40.31 26.61) rotate(-45.2)" height="1.04" width="11.37" y="61.21" x="6.12" class="cls-4"/><rect data-cppathid="10079" transform="translate(-42.14 31.09) rotate(-45.2)" height="1.04" width="11.37" y="65.64" x="10.58" class="cls-4"/><rect data-cppathid="10080" transform="translate(-42.85 32.82) rotate(-45.2)" height="1.04" width="11.37" y="67.35" x="12.31" class="cls-4"/><rect data-cppathid="10081" transform="translate(-44.67 37.3) rotate(-45.2)" height="1.04" width="11.37" y="71.79" x="16.78" class="cls-4"/><rect data-cppathid="10082" transform="translate(-45.38 39.03) rotate(-45.2)" height="1.04" width="11.37" y="73.5" x="18.5" class="cls-4"/><rect data-cppathid="10083" transform="translate(-47.21 43.51) rotate(-45.2)" height="1.04" width="11.37" y="77.93" x="22.97" class="cls-4"/><path data-cppathid="10084" d="M37.54,78.59A44.56,44.56,0,0,1,33.31,72L22.73,61.48l-.09-.09L12.07,50.88A45.12,45.12,0,0,1,5.42,46.7s-.89,1.52,14.81,17.12h0l0,0,.05,0h0C36,79.49,37.54,78.59,37.54,78.59Z" class="cls-2"/><path data-cppathid="10085" d="M77.43,6.77l1-1-.61-.6-1,1a.51.51,0,0,1-.73,0h0a.52.52,0,0,0-.73,0l-.54.54,2.09,2.08.54-.55a.51.51,0,0,0,0-.73h0A.52.52,0,0,1,77.43,6.77Z" class="cls-8"/><path data-cppathid="10086" d="M83.53.17c.08-.1,0-.23-.14-.14L80.3,2.67l.31.3.3.3Z" class="cls-8"/><path data-cppathid="10087" d="M80.32,3.88l-.62-.61L77.61,4.76a.7.7,0,0,0-.09,1.07l.25.25A.7.7,0,0,0,78.84,6Z" class="cls-9"/><path data-cppathid="10088" d="M81.19,4.05a1.18,1.18,0,0,1-1.66,0,1.18,1.18,0,1,1,1.66-1.67A1.17,1.17,0,0,1,81.19,4.05Z" class="cls-8"/></g></g></svg>