<?xml version="1.0" encoding="UTF-8"?>
<svg xmlns="http://www.w3.org/2000/svg" onmouseup="{ if(window.parent.document.onmouseup) window.parent.document.onmouseup(arguments[0]);}" viewBox="0 0 75.58 59.24" xmlns:xlink="http://www.w3.org/1999/xlink"><defs><style>.cls-1{fill:url(#linear-gradient);}.cls-2{fill:#dff2fc;opacity:0.55;}</style><linearGradient gradientUnits="userSpaceOnUse" gradientTransform="matrix(0.85, 0.53, -0.53, 0.85, 348.7, -1136.19)" y2="1150.97" x2="369.95" y1="1132.13" x1="369.95" id="linear-gradient"><stop stop-color="#fff2d6" offset="0"/><stop stop-color="#fff0c9" offset="0.08"/><stop stop-color="#ffe9a7" offset="0.34"/><stop stop-color="#ffe58e" offset="0.59"/><stop stop-color="#ffe27f" offset="0.82"/><stop stop-color="#ffe17a" offset="1"/></linearGradient></defs><g data-name="Layer 2" id="Layer_2"><g data-name="Layer 1" id="Layer_1-2"><path data-cppathid="10000" d="M66.77,33.09a9.52,9.52,0,1,1-3-13.12A9.52,9.52,0,0,1,66.77,33.09Z" class="cls-1"/><path data-cppathid="10001" d="M72,55.53a4.05,4.05,0,0,1-.54-.09l.54.09c1,.1,2.14-.13,1.6-1.17a2.36,2.36,0,0,0-2.3-1,2.53,2.53,0,0,1-.59.08,4,4,0,0,1,.59-.08,10.17,10.17,0,0,0,1.24-.4,1.64,1.64,0,0,0,.82-2.59,3.34,3.34,0,0,0-3.73-1.07,5.08,5.08,0,0,0-2.09,1.84c.33-.54,1-1.59-.39-2.31s-1.92.78-2.37,1.49l0,0,0,0c.17-.28,1.2-2.08.27-3.61a3.29,3.29,0,0,0-2.12-1.57,1.6,1.6,0,0,0-2.12,1.07,4.37,4.37,0,0,0,.36,2.33,12.26,12.26,0,0,0-1.38-1.7c-1.06-1-2.95-2.21-4.27-1.81s-1,2.35,1.19,3.78c1.43.95,13.78,8.7,15.23,9.61,1.17.73,3.22,1.3,3.6,0C75.88,57.41,73.67,55.93,72,55.53Z" class="cls-2"/><path data-cppathid="10002" d="M19.22,18.38a1.51,1.51,0,0,1-.39-.07,2.92,2.92,0,0,1,.39.07c.72.07,1.6-.1,1.19-.87a1.72,1.72,0,0,0-1.71-.71,2.27,2.27,0,0,1-.43.05,3.15,3.15,0,0,1,.43-.05,8.61,8.61,0,0,0,.93-.3,1.23,1.23,0,0,0,.61-1.93,2.48,2.48,0,0,0-2.78-.79,3.79,3.79,0,0,0-1.56,1.36c.26-.4.72-1.18-.28-1.71s-1.43.57-1.77,1.1v0a2.73,2.73,0,0,0,.21-2.68,2.41,2.41,0,0,0-1.58-1.17,1.2,1.2,0,0,0-1.58.8,3.3,3.3,0,0,0,.27,1.73,10.61,10.61,0,0,0-1-1.27C9.35,11.24,8,10.3,7,10.6s-.74,1.75.88,2.81c1.07.7,10.25,6.47,11.33,7.15.87.54,2.39,1,2.68,0S20.46,18.68,19.22,18.38Z" class="cls-2"/><path data-cppathid="10003" d="M9.84,6,9.53,6a1.18,1.18,0,0,1,.31,0c.55.05,1.22-.08.91-.67A1.32,1.32,0,0,0,9.44,4.8a1.37,1.37,0,0,1-.34,0l.34,0a5.42,5.42,0,0,0,.71-.23.94.94,0,0,0,.47-1.48,1.91,1.91,0,0,0-2.13-.61,3,3,0,0,0-1.2,1c.19-.31.55-.9-.22-1.32s-1.1.45-1.35.85l0,0,0,0A2.13,2.13,0,0,0,5.87,1,1.89,1.89,0,0,0,4.66.1.92.92,0,0,0,3.45.72a2.55,2.55,0,0,0,.2,1.33,7.55,7.55,0,0,0-.78-1C2.26.53,1.18-.19.43,0s-.56,1.34.68,2.16c.82.54,7.86,5,8.7,5.49.66.41,1.83.74,2,0S10.79,6.24,9.84,6Z" class="cls-2"/></g></g></svg>