<?xml version="1.0" encoding="UTF-8"?>
<svg xmlns="http://www.w3.org/2000/svg" onmouseup="{ if(window.parent.document.onmouseup) window.parent.document.onmouseup(arguments[0]);}" xml:space="preserve" style="enable-background:new 0 0 89.1 89.1;" viewBox="0 0 89.1 89.1" y="0px" x="0px" id="Layer_1" version="1.1" xmlns:xlink="http://www.w3.org/1999/xlink"><style type="text/css">
	.st0{fill:#1C8284;}
	.st1{fill:#60A7A8;}
	.st2{opacity:0.5;fill:#60A7A8;enable-background:new    ;}
	.st3{opacity:0.34;fill:#FFFFFF;enable-background:new    ;}
</style><g><g id="Layer_2_00000033338860698999125820000010450402758634629567_"><g id="Button"><g id="hover"><path data-cppathid="10000" d="M44.5,89.1L44.5,89.1C19.9,89.1,0,69.1,0,44.5c0,0,0,0,0,0l0,0C0,19.9,19.9,0,44.5,0c0,0,0,0,0,0l0,0      c24.6,0,44.5,19.9,44.5,44.5l0,0l0,0C89.1,69.1,69.1,89.1,44.5,89.1L44.5,89.1z" class="st0"/><path data-cppathid="10001" d="M44.5,80.4L44.5,80.4c-19.8,0-35.9-16-35.9-35.9c0,0,0,0,0,0l0,0c0-19.8,16-35.9,35.9-35.9c0,0,0,0,0,0l0,0      c19.8,0,35.9,16,35.9,35.9c0,0,0,0,0,0l0,0C80.4,64.3,64.4,80.4,44.5,80.4C44.5,80.4,44.5,80.4,44.5,80.4z" class="st1"/><path data-cppathid="10002" d="M48.2,74.3L48.2,74.3c-18.6,0-33.6-15.1-33.6-33.6l0,0c0-12.9,7.4-24.7,19-30.3      C18.7,15.1,8.6,28.9,8.6,44.5l0,0c0,19.8,16,35.9,35.9,35.9c0,0,0,0,0,0l0,0c16.3,0,30.6-11,34.7-26.8      C74,66.1,61.8,74.3,48.2,74.3z" class="st2"/><path data-cppathid="10003" d="M50.1,14.1c0,1.8-1.5,3.3-3.3,3.3c-1.8,0-3.3-1.5-3.3-3.3s1.5-3.3,3.3-3.3l0,0      C48.6,10.9,50.1,12.3,50.1,14.1z" class="st3"/><path data-cppathid="10004" d="M64.4,20.1c-0.5,1.4-6.1,0.8-9.6-1c-1.3-0.7-2-1.4-2.2-2.2c-0.2-1,0.3-2,1.1-2.6      C56.5,12.4,65,18.2,64.4,20.1z" class="st3"/></g></g></g></g></svg>