<?xml version="1.0" encoding="UTF-8"?>
<svg xmlns="http://www.w3.org/2000/svg" onmouseup="{ if(window.parent.document.onmouseup) window.parent.document.onmouseup(arguments[0]);}" viewBox="0 0 37.6 34.82"><defs><style>.cls-1{fill:#fff;opacity:0.9;}</style></defs><g data-name="Layer 2" id="Layer_2"><g id="Button"><path data-cppathid="10000" d="M32.89,8.61a2.94,2.94,0,0,0-3.28,4.87,4.81,4.81,0,0,1,.1,7.91,2.94,2.94,0,0,0,3.43,4.77,10.69,10.69,0,0,0-.25-17.55Z" class="cls-1"/><path data-cppathid="10001" d="M18,1.28,12.87,5.35H5A5,5,0,0,0,0,10.3V24.52a5,5,0,0,0,5,4.95h7.92L18,33.54c3.13,2.49,5.7,1.24,5.7-2.76V4C23.7,0,21.13-1.2,18,1.28Z" class="cls-1"/></g></g></svg>