<?xml version="1.0" encoding="UTF-8"?>
<svg xmlns="http://www.w3.org/2000/svg" onmouseup="{ if(window.parent.document.onmouseup) window.parent.document.onmouseup(arguments[0]);}" viewBox="0 0 44.55 35.7"><defs><style>.cls-1{fill:#fff;opacity:0.9;}</style></defs><g data-name="Layer 2" id="Layer_2"><g id="Button"><g id="object"><path data-cppathid="10000" d="M18.45,1.31,13.19,5.48H5.07A5.09,5.09,0,0,0,0,10.56V25.14a5.09,5.09,0,0,0,5.07,5.08h8.12l5.26,4.17c3.22,2.55,5.85,1.27,5.85-2.83V4.14C24.3,0,21.67-1.23,18.45,1.31Z" class="cls-1"/><path data-cppathid="10001" d="M43.68,20,41.5,17.85l2.18-2.18a3,3,0,1,0-4.18-4.19l-2.19,2.19-2.18-2.19a3,3,0,0,0-4.19,4.19l2.19,2.18L31,20a3,3,0,1,0,4.18,4.18L37.31,22l2.19,2.18A3,3,0,1,0,43.68,20Z" class="cls-1"/></g></g></g></svg>