<?xml version="1.0" encoding="UTF-8"?>
<svg xmlns="http://www.w3.org/2000/svg" onmouseup="{ if(window.parent.document.onmouseup) window.parent.document.onmouseup(arguments[0]);}" viewBox="0 0 89.06 89.06"><defs><style>.cls-1{fill:#576dc9;}.cls-2{fill:#50d1b8;}.cls-3{fill:#4d98db;}.cls-4,.cls-5{fill:#fff;}.cls-4{opacity:0.9;}.cls-5{opacity:0.34;}</style></defs><g data-name="Layer 2" id="Layer_2"><g id="Button"><g id="hover"><path data-cppathid="10000" d="M44.53,89.06h0A44.53,44.53,0,0,1,0,44.53H0A44.53,44.53,0,0,1,44.53,0h0A44.53,44.53,0,0,1,89.06,44.53h0A44.53,44.53,0,0,1,44.53,89.06Z" class="cls-1"/><path data-cppathid="10001" d="M44.53,80.41h0A35.87,35.87,0,0,1,8.65,44.53h0A35.87,35.87,0,0,1,44.53,8.65h0A35.87,35.87,0,0,1,80.41,44.53h0A35.87,35.87,0,0,1,44.53,80.41Z" class="cls-2"/><path data-cppathid="10002" d="M48.19,74.31h0A33.65,33.65,0,0,1,14.55,40.66h0a33.65,33.65,0,0,1,19-30.31A35.9,35.9,0,0,0,8.65,44.53h0A35.87,35.87,0,0,0,44.53,80.41h0a35.89,35.89,0,0,0,34.72-26.8A33.65,33.65,0,0,1,48.19,74.31Z" class="cls-3"/><path data-cppathid="10003" d="M44.52,35.57s-3.81.3-4.05,3.21.17,15.95-.62,17.81-1.74,2.84-.14,3.48,11.92,2,12.58-.29-1.58-5-1.79-7.36S53.21,35.87,44.52,35.57Z" class="cls-4"/><path data-cppathid="10004" d="M40.49,30.17a4.7,4.7,0,0,1,1.23-5.27c5.26-4,11.11,8,1.76,7.25A3.23,3.23,0,0,1,40.49,30.17Z" class="cls-4"/><path data-cppathid="10005" d="M50.08,15.05a3.26,3.26,0,1,1-3.26-3.26A3.25,3.25,0,0,1,50.08,15.05Z" class="cls-5"/><path data-cppathid="10006" d="M64.39,21c-.48,1.41-6.1.74-9.57-1-1.35-.69-2-1.36-2.16-2.16a2.81,2.81,0,0,1,1.06-2.64C56.5,13.29,65,19.14,64.39,21Z" class="cls-5"/></g></g></g></svg>