<?xml version="1.0" encoding="UTF-8"?>
<svg xmlns="http://www.w3.org/2000/svg" onmouseup="{ if(window.parent.document.onmouseup) window.parent.document.onmouseup(arguments[0]);}" viewBox="0 0 89.06 89.06"><defs><style>.cls-1{isolation:isolate;}.cls-2,.cls-4{fill:maroon;}.cls-3{fill:#a64c4c;}.cls-4{mix-blend-mode:multiply;opacity:0.5;}.cls-5,.cls-6{fill:#fff;}.cls-5{opacity:0.34;}</style></defs><g class="cls-1"><g data-name="Layer 2" id="Layer_2"><g id="Button"><path data-cppathid="10000" d="M44.53,89.06h0A44.53,44.53,0,0,1,0,44.53H0A44.53,44.53,0,0,1,44.53,0h0A44.53,44.53,0,0,1,89.06,44.53h0A44.53,44.53,0,0,1,44.53,89.06Z" class="cls-2"/><path data-cppathid="10001" d="M44.53,80.41h0A35.87,35.87,0,0,1,8.65,44.53h0A35.87,35.87,0,0,1,44.53,8.65h0A35.87,35.87,0,0,1,80.41,44.53h0A35.87,35.87,0,0,1,44.53,80.41Z" class="cls-3"/><path data-cppathid="10002" d="M48.19,74.31h0A33.65,33.65,0,0,1,14.55,40.66h0a33.65,33.65,0,0,1,19-30.31A35.9,35.9,0,0,0,8.65,44.53h0A35.87,35.87,0,0,0,44.53,80.41h0a35.89,35.89,0,0,0,34.72-26.8A33.65,33.65,0,0,1,48.19,74.31Z" class="cls-4"/><path data-cppathid="10003" d="M54.76,17.3a3.26,3.26,0,1,1-3.26-3.25A3.26,3.26,0,0,1,54.76,17.3Z" class="cls-5"/><path data-cppathid="10004" d="M69.07,23.29c-.48,1.4-6.1.74-9.57-1-1.35-.69-2-1.36-2.16-2.16a2.82,2.82,0,0,1,1.06-2.65C61.17,15.55,69.72,21.39,69.07,23.29Z" class="cls-5"/><path data-cppathid="10005" d="M50.62,26.87v6.51a12.15,12.15,0,1,1-12.57,0V26.87a18,18,0,1,0,12.57,0Z" class="cls-6"/><path data-cppathid="10006" d="M43.26,21.8a1.81,1.81,0,0,0-1.8,1.8V35.51a1.81,1.81,0,0,0,1.8,1.8h2.15a1.81,1.81,0,0,0,1.8-1.8V23.6a1.81,1.81,0,0,0-1.8-1.8Z" class="cls-6"/></g></g></g></svg>