<?xml version="1.0" encoding="UTF-8"?>
<svg xmlns="http://www.w3.org/2000/svg" onmouseup="{ if(window.parent.document.onmouseup) window.parent.document.onmouseup(arguments[0]);}" viewBox="0 0 166.33 54.65"><defs><style>.cls-1{isolation:isolate;}.cls-2{fill:#104e4f;}.cls-3{fill:#1c8284;}.cls-4,.cls-5{fill:#60a7a8;}.cls-4{mix-blend-mode:multiply;opacity:0.5;}.cls-6{font-size:24px;font-family:Montserrat-Bold, Montserrat;font-weight:700;}.cls-6,.cls-7{fill:#fff;}.cls-7{opacity:0.34;}</style></defs><g class="cls-1"><g data-name="Layer 2" id="Layer_2"><g data-name="Main menu" id="Main_menu"><rect data-cppathid="10000" rx="24.69" height="54.65" width="166.33" class="cls-2"/><rect data-cppathid="10001" rx="22.19" height="49.64" width="161.32" y="2.51" x="2.51" class="cls-3"/><path data-cppathid="10002" d="M163.83,27.52A30,30,0,0,1,158,45.72c-3.59,4.66-8.55,7.53-14,7.53H22.34c-11,0-19.83-11.52-19.83-25.73q0-1.29.09-2.55c1,13,9.45,23.18,19.74,23.18H144c5.48,0,10.44-2.88,14-7.54A29.23,29.23,0,0,0,163.73,25C163.8,25.81,163.83,26.66,163.83,27.52Z" class="cls-4"/><path data-cppathid="10003" d="M163.83,25.54a27.06,27.06,0,0,1-.14,2.72C162.57,16.49,154.18,7.35,144,7.35H22.34a18.29,18.29,0,0,0-14,6.92,25.52,25.52,0,0,0-5.68,14,27.08,27.08,0,0,1-.13-2.72A25.89,25.89,0,0,1,8.32,8.84a18.3,18.3,0,0,1,14-6.93H144C155,1.91,163.83,12.49,163.83,25.54Z" class="cls-5"/><text data-cppathid="10004" transform="translate(42.43 33.96)" class="cls-6">MULAI</text><path data-cppathid="10005" d="M144.16,11.63a1.6,1.6,0,0,1-3.1,0,1.6,1.6,0,0,1,3.1,0Z" class="cls-7"/><path data-cppathid="10006" d="M151,13.84c-.22.52-2.9.27-4.55-.38-.64-.26-.95-.51-1-.8a1,1,0,0,1,.51-1C147.22,11,151.28,13.14,151,13.84Z" class="cls-7"/></g></g></g></svg>